<?xml version="1.0" encoding="UTF-8"?>
<svg id="Layer_1" data-name="Layer 1" xmlns="http://www.w3.org/2000/svg" xmlns:xlink="http://www.w3.org/1999/xlink" viewBox="0 0 512 512">
  <defs>
    <style>
      .cls-1 {
        fill: url(#linear-gradient-2);
      }

      .cls-2 {
        fill: url(#linear-gradient-4);
      }

      .cls-3 {
        fill: url(#linear-gradient-3);
      }

      .cls-4 {
        fill: url(#linear-gradient);
      }
    </style>
    <linearGradient id="linear-gradient" x1="199.49" y1="246.46" x2="108.15" y2="413.28" gradientUnits="userSpaceOnUse">
      <stop offset="0" stop-color="#1c3a6a"/>
      <stop offset="1" stop-color="#70c48f"/>
    </linearGradient>
    <linearGradient id="linear-gradient-2" x1="427.56" y1="417" x2="257.94" y2="351.76" xlink:href="#linear-gradient"/>
    <linearGradient id="linear-gradient-3" x1="77.61" y1="333.12" x2="428.16" y2="333.12" xlink:href="#linear-gradient"/>
    <linearGradient id="linear-gradient-4" x1="256" y1="248.37" x2="256" y2="40.47" xlink:href="#linear-gradient"/>
  </defs>
  <path class="cls-4" d="M109.07,358.68c-1.05,3.32-1.53,6.9-1.29,10.63.95,14.98,13.52,26.9,28.53,27.09,5.85.07,11.3-1.58,15.88-4.49-14.69,9.81-32.33,15.52-51.31,15.52-5.25,0-10.4-.44-15.41-1.28-2.19-.37-4.35-.81-6.48-1.33-7.42-11.18-11.74-24.6-11.74-39.01.02-6,.76-11.76,2.16-17.33.68-2.72,1.68-5.35,2.93-7.86l7.45-14.99,25.13-50.56c1.6-3.22,3.36-6.77,5.05-10.17s3.72-6.7,6.13-9.68c7.51-9.29,17.41-16.57,28.76-20.91.33-.13.67-.26,1-.38,7.34-2.68,15.25-4.14,23.52-4.14,1.25,0,2.48.03,3.72.1,15.28.81,29.25,6.64,40.25,15.88l8.54,8.54,34.11,34.11-28.52,28.52-37-37.01s-.03-.03-.05-.05c-.31-.33-.63-.64-.95-.95-.02-.02-.03-.03-.05-.05-1.48-1.41-3.13-2.67-4.9-3.72-4.24-2.55-9.19-4.01-14.49-4.01-10.94,0-20.42,6.23-25.09,15.35-.1.2-.21.4-.3.61l-4.03,8.1-23.52,47.32"/>
  <path class="cls-1" d="M433,404.81c-1.32,2-2.75,3.94-4.27,5.79-7.71,9.39-17.79,16.77-29.33,21.2-7.86,3.02-16.4,4.68-25.33,4.68-11.36-.07-22.22-2.76-31.92-7.64-3.72-1.87-7.1-4.36-10.05-7.31l-17.44-17.44s-.02,0-.02-.02l-58.65-58.64,22.66-22.67,5.86-5.85,23.56,23.56,25.71,25.71.89.89,24.21,24.21s0,0,0,0c0,0,.02,0,.02.02.06.04.13.1.21.14.08.06.16.1.24.16.15.1.3.21.45.29.04.02.08.06.12.08,14.66,9.77,32.26,15.44,51.19,15.44,5.25,0,10.4-.44,15.41-1.28,2.19-.37,4.35-.81,6.48-1.33Z"/>
  <path class="cls-3" d="M399.01,350.78l-4.11-8.27-23.52-47.32-4.03-8.1c-.1-.21-.2-.41-.3-.61-4.67-9.11-14.15-15.35-25.09-15.35-5.3,0-10.25,1.46-14.49,4.01-1.77,1.06-3.41,2.31-4.9,3.72-.02.02-.03.03-.05.05l-.95.95s-.03.03-.05.05l-37,37.01-5.86,5.85-22.66,22.67-58.66,58.65-21.12,21.12c-11.03,7.13-24.18,11.27-38.29,11.27-8.92,0-17.47-1.65-25.33-4.68-11.54-4.43-21.63-11.81-29.33-21.2-1.52-1.85-2.95-3.79-4.27-5.79,2.13.52,4.29.97,6.48,1.33,5.01.84,10.16,1.28,15.41,1.28,18.98,0,36.62-5.71,51.31-15.52.15-.09.3-.19.45-.29.15-.1.3-.2.44-.3,0,0,.02,0,.02-.02l24.21-24.21.89-.89,25.71-25.71,23.56-23.56,28.52-28.52,34.11-34.11,8.54-8.54c11-9.23,24.97-15.07,40.25-15.88,1.23-.07,2.47-.1,3.72-.1,8.26,0,16.18,1.46,23.52,4.14.33.12.67.25,1,.38,11.35,4.35,21.25,11.64,28.77,20.93,2.41,2.98,4.43,6.25,6.13,9.68l5.03,10.13,25.14,50.58,7.46,15.01c1.25,2.51,2.24,5.14,2.92,7.85,1.4,5.57,2.14,11.33,2.16,17.33,0,14.42-4.32,27.83-11.74,39.01-2.13.52-4.29.97-6.48,1.33-5.01.84-10.16,1.28-15.41,1.28-18.93,0-36.53-5.68-51.19-15.44,4.95,3.11,10.92,4.76,17.29,4.35,14.44-.92,26.14-12.65,27.02-27.1.22-3.69-.24-7.23-1.29-10.53,0-.02,0-.02,0-.03"/>
  <path class="cls-2" d="M341.58,145.97l-2.37-4.87s0-.03-.02-.04l-4.86-9.96-30.37-62.28-2.59-5.3c-7.03-12.54-19.13-21.87-33.5-25.22-3.81-.9-7.78-1.37-11.86-1.37s-8.05.47-11.86,1.37c-14.38,3.35-26.47,12.68-33.5,25.22l-2.59,5.3-30.37,62.28-4.86,9.96s-.02.02-.02.04l-2.37,4.87c-1.83,4.53-2.83,9.49-2.83,14.67,0,8.61,2.78,16.58,7.49,23.06l55.77,55.77c6.8,5.7,15.58,9.14,25.16,9.14s18.36-3.44,25.16-9.14l2.45-2.45,2.42-2.41,36.2-36.21,14.7-14.7c4.71-6.48,7.49-14.45,7.49-23.06,0-5.18-1.01-10.14-2.83-14.67ZM234.81,188.22l-6.53-6.53-16.81-16.81c-2.16-2.16-2.71-5.44-1.37-8.18l13.32-27.31,1.71-3.52,19.15-39.26c.25-.69.58-1.34.96-1.97,0,0,0-.02.02-.03,2.2-3.62,6.18-6.04,10.73-6.04s8.53,2.42,10.73,6.04c0,.02.02.02.02.03.38.63.71,1.28.96,1.97l19.15,39.26,1.71,3.52,13.32,27.31c1.34,2.74.79,6.03-1.37,8.18l-16.81,16.81-6.53,6.53-21.19,21.2-21.19-21.2Z"/>
</svg>