<svg xmlns="http://www.w3.org/2000/svg" xmlns:xlink="http://www.w3.org/1999/xlink" viewBox="0 0 27 27">
<path fill-rule="nonzero" fill="rgb(0%, 14.117432%, 49.01886%)" fill-opacity="1" d="M 24 3.75 L 3 3.75 C 2.847656 3.75 2.695312 3.761719 2.546875 3.785156 L 2.542969 5.097656 L 0.496094 5.097656 C 0.183594 5.570312 0 6.140625 0 6.75 L 0 20.25 C 0 21.90625 1.34375 23.25 3 23.25 L 24 23.25 C 25.65625 23.25 27 21.90625 27 20.25 L 27 6.75 C 27 5.09375 25.65625 3.75 24 3.75 Z M 24 3.75 "/>
<path fill-rule="nonzero" fill="rgb(15.686035%, 52.156067%, 28.234863%)" fill-opacity="1" d="M 21.871094 12.15625 L 20.722656 15.101562 L 19.574219 12.15625 L 20.722656 9.210938 Z M 21.871094 12.15625 "/>
<path fill-rule="nonzero" fill="rgb(100%, 100%, 100%)" fill-opacity="1" d="M 18.265625 13.179688 C 18.265625 13.179688 18.46875 13.625 18.945312 13.625 C 19.425781 13.625 19.699219 13.28125 19.699219 13.28125 L 20.175781 13.898438 C 20.175781 13.898438 19.867188 14.101562 19.867188 14.339844 C 19.867188 14.339844 19.664062 14.136719 19.734375 13.964844 C 19.734375 13.964844 19.59375 14.101562 19.492188 14.136719 C 19.492188 14.136719 19.460938 13.929688 19.527344 13.828125 C 19.527344 13.828125 19.289062 13.964844 18.980469 13.964844 C 18.675781 13.964844 18.367188 13.761719 18.300781 13.589844 C 18.230469 13.417969 18.265625 13.179688 18.265625 13.179688 Z M 20.175781 12.738281 C 20.175781 12.847656 20.085938 12.941406 19.96875 12.941406 L 19.800781 12.941406 C 19.6875 12.941406 19.59375 12.847656 19.59375 12.738281 C 19.59375 12.625 19.6875 12.53125 19.800781 12.53125 L 19.96875 12.53125 C 20.085938 12.53125 20.175781 12.625 20.175781 12.738281 Z M 21.234375 12.464844 C 21.234375 12.578125 21.140625 12.667969 21.027344 12.667969 L 20.859375 12.667969 C 20.746094 12.667969 20.652344 12.578125 20.652344 12.464844 C 20.652344 12.351562 20.746094 12.257812 20.859375 12.257812 L 21.027344 12.257812 C 21.140625 12.257812 21.234375 12.351562 21.234375 12.464844 Z M 21.234375 12.464844 "/>
<path fill-rule="nonzero" fill="rgb(39.215088%, 53.33252%, 74.116516%)" fill-opacity="1" d="M 20.308594 12.890625 C 20.210938 12.949219 20.085938 12.921875 20.023438 12.828125 L 19.953125 12.710938 C 19.890625 12.617188 19.917969 12.492188 20.015625 12.429688 L 20.042969 12.410156 C 20.140625 12.351562 20.265625 12.378906 20.324219 12.476562 L 20.398438 12.589844 C 20.460938 12.683594 20.429688 12.8125 20.335938 12.871094 Z M 21.46875 12.753906 C 21.371094 12.816406 21.246094 12.785156 21.183594 12.691406 L 21.113281 12.574219 C 21.050781 12.480469 21.078125 12.355469 21.175781 12.292969 L 21.203125 12.277344 C 21.300781 12.214844 21.425781 12.242188 21.488281 12.339844 L 21.558594 12.453125 C 21.621094 12.550781 21.589844 12.675781 21.496094 12.738281 Z M 21.46875 12.753906 "/>
<path fill-rule="nonzero" fill="rgb(16.078186%, 49.803162%, 27.842712%)" fill-opacity="1" d="M 20.714844 12.824219 C 20.621094 12.882812 20.496094 12.855469 20.433594 12.757812 L 20.359375 12.644531 C 20.300781 12.550781 20.328125 12.421875 20.425781 12.363281 L 20.453125 12.34375 C 20.546875 12.285156 20.675781 12.3125 20.734375 12.40625 L 20.808594 12.523438 C 20.871094 12.617188 20.839844 12.746094 20.746094 12.804688 Z M 21.71875 12.921875 C 21.605469 12.917969 21.515625 12.824219 21.519531 12.710938 L 21.527344 12.574219 C 21.53125 12.460938 21.625 12.375 21.738281 12.378906 L 21.769531 12.378906 C 21.882812 12.382812 21.972656 12.476562 21.96875 12.589844 L 21.964844 12.726562 C 21.960938 12.839844 21.867188 12.929688 21.753906 12.925781 Z M 21.71875 12.921875 "/>
<path fill-rule="nonzero" fill="rgb(40.783691%, 62.35199%, 61.959839%)" fill-opacity="1" d="M 20.722656 12.53125 C 21.164062 12.511719 21.8125 13.792969 21.847656 13.964844 C 21.882812 14.136719 21.644531 14.613281 21.472656 14.714844 C 21.300781 14.820312 20.515625 14.921875 20.3125 14.75 C 20.109375 14.578125 20.074219 14.136719 20.039062 14 C 20.003906 13.863281 19.664062 13.386719 19.664062 13.386719 L 19.289062 13.316406 L 19.425781 13.179688 L 19.867188 13.214844 L 19.902344 13.078125 L 19.699219 13.078125 C 19.699219 13.078125 20.003906 12.566406 20.722656 12.53125 Z M 20.722656 12.53125 "/>
<path fill-rule="nonzero" fill="rgb(28.234863%, 9.803772%, 9.411621%)" fill-opacity="1" d="M 20.585938 14.648438 C 20.757812 14.441406 21.371094 13.929688 21.574219 14.035156 C 21.777344 14.136719 21.746094 14.339844 21.539062 14.546875 C 21.335938 14.75 20.585938 14.648438 20.585938 14.648438 Z M 20.585938 14.648438 "/>
<path fill-rule="nonzero" fill="rgb(100%, 100%, 100%)" fill-opacity="1" d="M 20.722656 14.578125 L 18.671875 14.578125 L 18.671875 16.386719 C 18.671875 17.617188 19.132812 18.265625 19.507812 18.605469 C 19.886719 18.949219 20.722656 19.253906 20.722656 19.253906 C 20.722656 19.253906 21.554688 18.949219 21.933594 18.605469 C 22.308594 18.265625 22.769531 17.617188 22.769531 16.386719 L 22.769531 14.578125 Z M 20.722656 14.578125 "/>
<path fill-rule="nonzero" fill="rgb(22.744751%, 69.410706%, 83.920288%)" fill-opacity="1" d="M 22.222656 18.058594 C 21.949219 18.058594 21.746094 18.367188 21.472656 18.367188 C 21.199219 18.367188 20.996094 18.09375 20.757812 18.09375 C 20.519531 18.09375 20.3125 18.367188 20.039062 18.367188 C 19.765625 18.367188 19.5625 18.058594 19.289062 18.058594 C 19.230469 18.058594 19.164062 18.078125 19.097656 18.109375 C 19.230469 18.320312 19.375 18.484375 19.511719 18.605469 C 19.886719 18.945312 20.722656 19.253906 20.722656 19.253906 C 20.722656 19.253906 21.558594 18.945312 21.933594 18.605469 C 22.074219 18.480469 22.222656 18.308594 22.359375 18.085938 C 22.3125 18.070312 22.265625 18.058594 22.222656 18.058594 Z M 22.222656 16.59375 C 21.949219 16.59375 21.746094 16.898438 21.472656 16.898438 C 21.199219 16.898438 20.996094 16.625 20.757812 16.625 C 20.519531 16.625 20.3125 16.898438 20.039062 16.898438 C 19.765625 16.898438 19.5625 16.59375 19.289062 16.59375 C 19.101562 16.59375 18.863281 16.789062 18.703125 16.875 C 18.726562 17.09375 18.765625 17.289062 18.816406 17.460938 C 18.949219 17.367188 19.082031 17.277344 19.253906 17.277344 C 19.59375 17.277344 19.835938 17.582031 20.074219 17.582031 C 20.3125 17.582031 20.519531 17.34375 20.757812 17.34375 C 20.996094 17.34375 21.199219 17.582031 21.4375 17.582031 C 21.675781 17.582031 21.917969 17.277344 22.257812 17.277344 C 22.402344 17.277344 22.523438 17.34375 22.640625 17.421875 C 22.6875 17.246094 22.726562 17.054688 22.746094 16.835938 C 22.589844 16.742188 22.386719 16.59375 22.222656 16.59375 Z M 22.222656 15.125 C 21.949219 15.125 21.746094 15.433594 21.472656 15.433594 C 21.199219 15.433594 20.996094 15.160156 20.757812 15.160156 C 20.519531 15.160156 20.3125 15.433594 20.039062 15.433594 C 19.765625 15.433594 19.5625 15.125 19.289062 15.125 C 19.089844 15.125 18.835938 15.34375 18.675781 15.421875 L 18.675781 16.09375 C 18.855469 15.980469 19.023438 15.808594 19.253906 15.808594 C 19.59375 15.808594 19.835938 16.117188 20.074219 16.117188 C 20.3125 16.117188 20.519531 15.875 20.757812 15.875 C 20.996094 15.875 21.199219 16.117188 21.4375 16.117188 C 21.675781 16.117188 21.917969 15.808594 22.257812 15.808594 C 22.457031 15.808594 22.613281 15.941406 22.769531 16.046875 L 22.769531 15.382812 C 22.609375 15.289062 22.394531 15.125 22.222656 15.125 Z M 22.222656 15.125 "/>
<path fill-rule="nonzero" fill="rgb(15.686035%, 52.156067%, 28.234863%)" fill-opacity="1" d="M 18.847656 17.5625 C 18.949219 17.867188 19.085938 18.109375 19.226562 18.296875 L 20.722656 16.625 L 22.214844 18.296875 C 22.359375 18.109375 22.496094 17.867188 22.597656 17.5625 L 20.722656 15.535156 Z M 18.847656 17.5625 "/>
<path fill-rule="nonzero" fill="rgb(45.489502%, 58.03833%, 56.077576%)" fill-opacity="1" d="M 17.652344 17.921875 C 17.761719 17.917969 18 17.914062 18.09375 17.957031 C 18.378906 18.085938 18.570312 18.402344 18.570312 18.402344 C 18.570312 18.402344 18.980469 18.707031 19.015625 18.914062 C 19.015625 18.914062 19.324219 19.050781 19.324219 19.1875 C 19.324219 19.324219 18.878906 19.457031 18.742188 19.425781 C 18.605469 19.390625 18.230469 19.289062 18.09375 19.355469 C 17.957031 19.425781 17.546875 19.527344 17.378906 19.492188 C 17.207031 19.457031 17.003906 19.492188 16.867188 19.492188 C 16.730469 19.492188 16.558594 19.355469 16.351562 19.289062 C 16.148438 19.21875 15.671875 19.359375 15.601562 19.152344 C 15.535156 18.949219 16.078125 18.742188 16.285156 18.742188 C 16.492188 18.742188 17.070312 17.957031 17.652344 17.921875 Z M 17.652344 17.921875 "/>
<path fill-rule="nonzero" fill="rgb(81.175232%, 86.273193%, 85.096741%)" fill-opacity="1" d="M 17.273438 18.09375 C 17.273438 18.09375 17.445312 18.128906 17.480469 18.128906 C 17.511719 18.128906 17.71875 18.058594 17.785156 18.09375 C 17.855469 18.128906 17.820312 18.230469 17.921875 18.265625 C 18.027344 18.300781 18.058594 18.332031 17.992188 18.4375 L 17.855469 18.640625 C 17.855469 18.640625 17.480469 18.707031 17.34375 18.777344 C 17.207031 18.847656 16.933594 18.949219 17.242188 18.980469 C 17.546875 19.015625 17.992188 19.152344 17.921875 19.1875 C 17.855469 19.21875 17.445312 19.1875 17.308594 19.1875 C 17.171875 19.1875 16.898438 19.253906 16.828125 19.253906 C 16.761719 19.253906 16.558594 19.289062 16.660156 19.359375 C 16.761719 19.425781 16.523438 19.324219 16.386719 19.289062 C 16.25 19.253906 15.941406 19.152344 16.148438 19.082031 C 16.351562 19.015625 16.523438 19.050781 16.625 19.050781 C 16.730469 19.050781 16.863281 18.914062 16.761719 18.878906 C 16.660156 18.84375 16.867188 18.605469 17.070312 18.570312 C 17.273438 18.539062 17.617188 18.46875 17.34375 18.402344 C 17.070312 18.332031 17.035156 18.230469 17.273438 18.09375 Z M 17.273438 18.09375 "/>
<path fill-rule="nonzero" fill="rgb(81.175232%, 86.273193%, 85.096741%)" fill-opacity="1" d="M 17.515625 18.777344 C 17.652344 18.742188 17.992188 18.8125 17.957031 18.878906 C 17.921875 18.949219 17.890625 19.015625 17.785156 18.980469 C 17.683594 18.949219 17.515625 18.777344 17.515625 18.777344 Z M 17.515625 18.777344 "/>
<path fill-rule="nonzero" fill="rgb(23.529053%, 27.058411%, 26.66626%)" fill-opacity="1" d="M 19.015625 18.914062 C 18.980469 18.707031 18.570312 18.402344 18.570312 18.402344 C 18.570312 18.402344 18.390625 18.109375 18.121094 17.972656 C 18.019531 18.007812 17.976562 18.09375 18.09375 18.164062 C 18.265625 18.265625 18.265625 18.332031 18.195312 18.367188 C 18.128906 18.402344 18.058594 18.46875 18.027344 18.539062 C 17.992188 18.605469 18.128906 18.503906 18.296875 18.539062 C 18.46875 18.570312 18.46875 18.570312 18.605469 18.605469 C 18.742188 18.640625 18.878906 18.777344 18.8125 18.8125 C 18.742188 18.847656 18.878906 18.878906 18.914062 18.980469 C 18.945312 19.085938 18.84375 19.050781 18.707031 19.050781 C 18.570312 19.050781 18.195312 19.050781 18.160156 19.085938 C 18.128906 19.117188 18.808594 19.117188 18.808594 19.1875 C 18.808594 19.253906 18.433594 19.1875 18.332031 19.222656 C 18.230469 19.253906 17.886719 19.324219 17.753906 19.289062 C 17.617188 19.253906 17.34375 19.222656 17.273438 19.253906 C 17.207031 19.289062 17.035156 19.324219 17.242188 19.359375 C 17.445312 19.390625 17.785156 19.390625 17.992188 19.359375 C 18.195312 19.324219 18.332031 19.1875 18.535156 19.253906 C 18.644531 19.289062 18.648438 19.351562 18.65625 19.40625 L 18.742188 19.425781 C 18.824219 19.445312 19.011719 19.40625 19.152344 19.34375 C 19.207031 19.308594 19.257812 19.273438 19.304688 19.234375 C 19.316406 19.21875 19.320312 19.203125 19.320312 19.1875 C 19.324219 19.050781 19.015625 18.914062 19.015625 18.914062 Z M 19.015625 18.914062 "/>
<path fill-rule="nonzero" fill="rgb(15.686035%, 52.156067%, 28.234863%)" fill-opacity="1" d="M 17.820312 17.789062 C 17.820312 17.789062 17.753906 17.480469 17.820312 17.445312 C 17.890625 17.410156 17.992188 17.550781 17.992188 17.550781 C 17.992188 17.550781 17.992188 17.171875 18.09375 17.207031 C 18.195312 17.242188 18.230469 17.378906 18.230469 17.378906 C 18.230469 17.378906 18.335938 17.105469 18.4375 17.175781 C 18.539062 17.242188 18.4375 17.445312 18.4375 17.445312 C 18.4375 17.445312 18.675781 17.550781 18.605469 17.652344 C 18.539062 17.753906 18.195312 17.753906 18.128906 17.789062 C 18.0625 17.824219 18.09375 17.925781 18.164062 17.890625 C 18.230469 17.859375 18.574219 17.71875 18.539062 17.859375 C 18.503906 17.992188 18.4375 18.027344 18.300781 18.027344 C 18.164062 18.027344 17.925781 17.960938 17.925781 17.960938 L 17.617188 18.164062 L 17.582031 18.128906 Z M 17.242188 17.445312 C 17.273438 17.582031 17.308594 17.617188 17.445312 17.617188 C 17.582031 17.617188 17.683594 17.6875 17.617188 17.753906 C 17.546875 17.820312 17.378906 17.820312 17.378906 17.820312 L 17.480469 18.09375 L 17.445312 18.128906 L 17.308594 17.855469 L 17.171875 18.027344 C 17.171875 18.027344 16.96875 17.890625 17.035156 17.820312 C 17.105469 17.753906 17.242188 17.753906 17.171875 17.6875 C 17.105469 17.617188 17 17.414062 17.207031 17.445312 C 17.410156 17.480469 17.070312 17.550781 17.070312 17.550781 M 15.195312 18.878906 C 15.226562 18.8125 15.433594 18.742188 15.433594 18.742188 C 15.433594 18.742188 15.464844 18.46875 15.570312 18.46875 C 15.671875 18.46875 15.773438 18.675781 15.773438 18.675781 C 15.773438 18.675781 15.808594 18.539062 15.875 18.570312 C 15.945312 18.605469 16.113281 18.777344 16.078125 18.84375 C 16.046875 18.914062 16.011719 19.152344 15.875 19.1875 C 15.738281 19.21875 15.601562 18.980469 15.601562 18.980469 C 15.601562 18.980469 15.535156 19.015625 15.398438 19.015625 C 15.261719 19.015625 15.195312 18.878906 15.195312 18.878906 Z M 18.296875 18.332031 C 18.296875 18.332031 18.402344 18.027344 18.503906 18.058594 C 18.605469 18.09375 18.605469 18.230469 18.605469 18.230469 C 18.605469 18.230469 18.914062 18.195312 19.050781 18.300781 C 19.1875 18.402344 19.1875 18.605469 19.015625 18.675781 C 18.84375 18.742188 18.605469 18.605469 18.570312 18.570312 C 18.539062 18.539062 18.539062 18.949219 18.402344 18.949219 C 18.265625 18.949219 18.195312 18.777344 18.230469 18.675781 C 18.265625 18.570312 18.230469 18.46875 18.230469 18.46875 C 18.230469 18.46875 17.957031 18.46875 17.890625 18.609375 C 17.890625 18.609375 17.957031 18.503906 18.09375 18.4375 Z M 18.296875 18.332031 "/>
<path fill-rule="nonzero" fill="rgb(81.959534%, 74.508667%, 65.489197%)" fill-opacity="1" d="M 18.128906 13.417969 C 18.128906 13.417969 18.027344 13.214844 17.683594 13.351562 C 17.34375 13.488281 17.273438 13.726562 17.242188 13.898438 C 17.207031 14.066406 17.308594 14.238281 17.070312 14.410156 C 16.832031 14.582031 16.660156 15.636719 16.933594 15.605469 C 17.207031 15.570312 17.273438 15.535156 17.410156 15.636719 C 17.546875 15.742188 17.855469 15.777344 18.058594 15.535156 C 18.058594 15.535156 18.261719 15.84375 18.261719 16.015625 C 18.261719 16.183594 18.195312 16.660156 18.402344 16.730469 C 18.402344 16.730469 18.707031 16.320312 18.707031 15.910156 C 18.707031 15.5 18.605469 15.058594 18.261719 14.855469 C 18.261719 14.855469 18.402344 14.75 18.503906 14.613281 C 18.605469 14.476562 18.671875 14.511719 18.878906 14.511719 L 19.421875 14.511719 C 19.421875 14.511719 19.285156 14.203125 19.117188 14.136719 C 18.945312 14.070312 18.640625 13.898438 18.332031 14.136719 C 18.023438 14.375 17.820312 14.546875 17.820312 14.546875 L 17.785156 14.308594 C 17.785156 14.308594 17.855469 14.171875 17.992188 14.035156 C 18.128906 13.898438 18.128906 13.695312 18.128906 13.589844 Z M 18.128906 13.417969 "/>
<path fill-rule="nonzero" fill="rgb(57.646179%, 47.842407%, 38.038635%)" fill-opacity="1" d="M 18.707031 14 C 19.289062 14 19.457031 14.546875 19.457031 14.546875 L 18.84375 14.546875 C 18.84375 14.546875 18.742188 14.511719 18.671875 14.511719 C 18.605469 14.511719 18.367188 14.683594 18.265625 14.886719 C 18.160156 15.09375 17.652344 14.851562 17.753906 14.683594 C 17.855469 14.511719 18.09375 14 18.707031 14 Z M 18.707031 14 "/>
<path fill-rule="nonzero" fill="rgb(68.626404%, 59.606934%, 49.411011%)" fill-opacity="1" d="M 17.515625 14.648438 C 17.527344 14.589844 17.632812 14.578125 17.753906 14.605469 C 17.886719 14.628906 18.007812 14.746094 18.128906 14.785156 C 18.433594 14.886719 18.777344 15.328125 18.777344 15.738281 C 18.777344 16.148438 18.46875 16.625 18.433594 16.726562 C 18.402344 16.832031 18.332031 16.726562 18.296875 16.625 C 18.265625 16.523438 18.265625 16.285156 18.265625 16.078125 C 18.265625 15.875 18.160156 15.566406 17.992188 15.464844 C 17.820312 15.363281 17.378906 15.195312 17.515625 14.648438 Z M 17.003906 17.445312 C 17.003906 17.53125 17.113281 17.824219 17.105469 18.128906 C 17.105469 18.152344 17.070312 18.308594 17.070312 18.332031 C 17.058594 18.628906 16.964844 18.78125 16.898438 18.878906 C 16.898438 18.878906 16.730469 18.8125 16.558594 18.570312 C 16.386719 18.332031 16.355469 18.09375 16.457031 17.890625 C 16.558594 17.683594 17.003906 17.445312 17.003906 17.445312 Z M 17.003906 17.445312 "/>
<path fill-rule="nonzero" fill="rgb(81.959534%, 74.508667%, 65.489197%)" fill-opacity="1" d="M 16.796875 17.070312 C 16.832031 17.070312 16.917969 17.785156 16.867188 18.058594 C 16.761719 18.605469 16.351562 19.21875 16.078125 19.152344 C 15.808594 19.082031 15.976562 18.914062 16.046875 18.777344 C 16.113281 18.640625 16.214844 18.332031 16.148438 18.09375 C 16.078125 17.855469 16.796875 17.070312 16.796875 17.070312 Z M 16.796875 17.070312 "/>
<path fill-rule="nonzero" fill="rgb(72.940063%, 56.077576%, 41.175842%)" fill-opacity="1" d="M 17.34375 15.5 C 17.445312 15.703125 17.683594 15.875 17.957031 15.570312 C 17.957031 15.570312 18.058594 16.082031 17.855469 16.421875 C 17.652344 16.765625 16.867188 17.652344 16.867188 17.652344 L 16.761719 17.070312 Z M 17.34375 15.5 "/>
<path fill-rule="nonzero" fill="rgb(73.332214%, 42.352295%, 24.705505%)" fill-opacity="1" d="M 16.832031 14.339844 C 17.070312 14.238281 17.410156 14.410156 17.445312 14.613281 C 17.480469 14.816406 17.511719 15.296875 17.480469 15.5 C 17.445312 15.703125 17.480469 16.046875 17.410156 16.21875 C 17.34375 16.386719 17.070312 16.558594 17.035156 16.796875 C 17 17.035156 16.796875 17.242188 16.492188 17.582031 C 16.183594 17.921875 15.703125 18.46875 15.570312 18.402344 C 15.429688 18.332031 15.261719 17.105469 15.671875 16.046875 C 16.078125 14.988281 16.832031 14.339844 16.832031 14.339844 Z M 16.832031 14.339844 "/>
<path fill-rule="nonzero" fill="rgb(0.784302%, 0.784302%, 0.784302%)" fill-opacity="1" d="M 17.71875 13.453125 C 17.855469 13.386719 17.957031 13.417969 17.855469 13.523438 C 17.753906 13.625 17.582031 13.523438 17.71875 13.453125 Z M 17.71875 13.453125 "/>
<path fill-rule="nonzero" fill="rgb(45.489502%, 58.03833%, 56.077576%)" fill-opacity="1" d="M 23.792969 17.921875 C 23.683594 17.917969 23.445312 17.914062 23.351562 17.957031 C 23.066406 18.085938 22.871094 18.402344 22.871094 18.402344 C 22.871094 18.402344 22.460938 18.707031 22.425781 18.914062 C 22.425781 18.914062 22.121094 19.050781 22.121094 19.1875 C 22.121094 19.324219 22.566406 19.457031 22.699219 19.425781 C 22.835938 19.390625 23.210938 19.289062 23.347656 19.355469 C 23.484375 19.425781 23.894531 19.527344 24.066406 19.492188 C 24.234375 19.457031 24.441406 19.492188 24.578125 19.492188 C 24.714844 19.492188 24.882812 19.355469 25.089844 19.289062 C 25.292969 19.21875 25.773438 19.359375 25.839844 19.152344 C 25.910156 18.949219 25.363281 18.742188 25.15625 18.742188 C 24.953125 18.742188 24.371094 17.957031 23.792969 17.921875 Z M 23.792969 17.921875 "/>
<path fill-rule="nonzero" fill="rgb(81.175232%, 86.273193%, 85.096741%)" fill-opacity="1" d="M 24.167969 18.09375 C 24.167969 18.09375 23.996094 18.128906 23.964844 18.128906 C 23.929688 18.128906 23.726562 18.058594 23.65625 18.09375 C 23.589844 18.128906 23.621094 18.230469 23.519531 18.265625 C 23.417969 18.300781 23.382812 18.332031 23.453125 18.4375 L 23.589844 18.640625 C 23.589844 18.640625 23.964844 18.707031 24.101562 18.777344 C 24.238281 18.847656 24.511719 18.949219 24.203125 18.980469 C 23.898438 19.015625 23.453125 19.152344 23.523438 19.1875 C 23.589844 19.21875 24 19.1875 24.136719 19.1875 C 24.273438 19.1875 24.542969 19.253906 24.613281 19.253906 C 24.683594 19.253906 24.886719 19.289062 24.785156 19.359375 C 24.683594 19.425781 24.921875 19.324219 25.058594 19.289062 C 25.191406 19.253906 25.5 19.152344 25.296875 19.082031 C 25.089844 19.015625 24.921875 19.050781 24.816406 19.050781 C 24.714844 19.050781 24.578125 18.914062 24.679688 18.878906 C 24.78125 18.84375 24.578125 18.605469 24.375 18.570312 C 24.167969 18.539062 23.828125 18.46875 24.101562 18.402344 C 24.371094 18.332031 24.40625 18.230469 24.167969 18.09375 Z M 24.167969 18.09375 "/>
<path fill-rule="nonzero" fill="rgb(81.175232%, 86.273193%, 85.096741%)" fill-opacity="1" d="M 23.929688 18.777344 C 23.792969 18.742188 23.449219 18.8125 23.484375 18.878906 C 23.519531 18.949219 23.554688 19.015625 23.65625 18.980469 C 23.757812 18.949219 23.929688 18.777344 23.929688 18.777344 Z M 23.929688 18.777344 "/>
<path fill-rule="nonzero" fill="rgb(23.529053%, 27.058411%, 26.66626%)" fill-opacity="1" d="M 22.425781 18.914062 C 22.460938 18.707031 22.871094 18.402344 22.871094 18.402344 C 22.871094 18.402344 23.054688 18.109375 23.324219 17.972656 C 23.425781 18.007812 23.464844 18.09375 23.351562 18.164062 C 23.179688 18.265625 23.179688 18.332031 23.246094 18.367188 C 23.316406 18.402344 23.382812 18.46875 23.417969 18.539062 C 23.453125 18.605469 23.316406 18.503906 23.144531 18.539062 C 22.972656 18.570312 22.972656 18.570312 22.839844 18.605469 C 22.699219 18.640625 22.566406 18.777344 22.632812 18.8125 C 22.703125 18.847656 22.566406 18.878906 22.53125 18.980469 C 22.496094 19.085938 22.601562 19.050781 22.734375 19.050781 C 22.871094 19.050781 23.246094 19.050781 23.28125 19.085938 C 23.316406 19.117188 22.632812 19.117188 22.632812 19.1875 C 22.632812 19.253906 23.007812 19.1875 23.109375 19.222656 C 23.214844 19.253906 23.554688 19.324219 23.691406 19.289062 C 23.828125 19.253906 24.101562 19.222656 24.167969 19.253906 C 24.238281 19.289062 24.40625 19.324219 24.203125 19.359375 C 24 19.390625 23.65625 19.390625 23.453125 19.359375 C 23.246094 19.324219 23.109375 19.1875 22.90625 19.253906 C 22.800781 19.289062 22.796875 19.351562 22.785156 19.40625 L 22.703125 19.425781 C 22.621094 19.445312 22.433594 19.40625 22.292969 19.34375 C 22.238281 19.308594 22.183594 19.273438 22.140625 19.234375 C 22.128906 19.21875 22.121094 19.203125 22.121094 19.1875 C 22.121094 19.050781 22.425781 18.914062 22.425781 18.914062 Z M 22.425781 18.914062 "/>
<path fill-rule="nonzero" fill="rgb(15.686035%, 52.156067%, 28.234863%)" fill-opacity="1" d="M 23.621094 17.789062 C 23.621094 17.789062 23.691406 17.480469 23.621094 17.445312 C 23.554688 17.410156 23.453125 17.550781 23.453125 17.550781 C 23.453125 17.550781 23.453125 17.171875 23.351562 17.207031 C 23.246094 17.242188 23.210938 17.378906 23.210938 17.378906 C 23.210938 17.378906 23.109375 17.105469 23.007812 17.175781 C 22.90625 17.242188 23.007812 17.445312 23.007812 17.445312 C 23.007812 17.445312 22.769531 17.550781 22.835938 17.652344 C 22.90625 17.753906 23.246094 17.753906 23.316406 17.789062 C 23.382812 17.824219 23.351562 17.925781 23.28125 17.890625 C 23.210938 17.859375 22.871094 17.71875 22.90625 17.859375 C 22.941406 17.992188 23.007812 18.027344 23.144531 18.027344 C 23.28125 18.027344 23.519531 17.960938 23.519531 17.960938 L 23.828125 18.164062 L 23.859375 18.128906 Z M 24.203125 17.445312 C 24.167969 17.582031 24.132812 17.617188 24 17.617188 C 23.863281 17.617188 23.761719 17.6875 23.828125 17.753906 C 23.894531 17.820312 24.066406 17.820312 24.066406 17.820312 L 23.964844 18.09375 L 23.996094 18.128906 L 24.132812 17.855469 L 24.273438 18.027344 C 24.273438 18.027344 24.476562 17.890625 24.40625 17.820312 C 24.339844 17.753906 24.203125 17.753906 24.273438 17.6875 C 24.339844 17.617188 24.441406 17.414062 24.238281 17.445312 C 24.03125 17.480469 24.375 17.550781 24.375 17.550781 M 26.25 18.878906 C 26.214844 18.8125 26.011719 18.742188 26.011719 18.742188 C 26.011719 18.742188 25.976562 18.46875 25.875 18.46875 C 25.773438 18.46875 25.671875 18.675781 25.671875 18.675781 C 25.671875 18.675781 25.636719 18.539062 25.566406 18.570312 C 25.5 18.605469 25.328125 18.777344 25.363281 18.84375 C 25.398438 18.914062 25.433594 19.152344 25.566406 19.1875 C 25.703125 19.21875 25.839844 18.980469 25.839844 18.980469 C 25.839844 18.980469 25.910156 19.015625 26.042969 19.015625 C 26.183594 19.015625 26.25 18.878906 26.25 18.878906 Z M 23.144531 18.332031 C 23.144531 18.332031 23.042969 18.027344 22.9375 18.058594 C 22.835938 18.09375 22.835938 18.230469 22.835938 18.230469 C 22.835938 18.230469 22.53125 18.195312 22.394531 18.300781 C 22.257812 18.402344 22.257812 18.605469 22.425781 18.675781 C 22.597656 18.742188 22.835938 18.605469 22.871094 18.570312 C 22.90625 18.539062 22.90625 18.949219 23.042969 18.949219 C 23.179688 18.949219 23.246094 18.777344 23.210938 18.675781 C 23.179688 18.570312 23.210938 18.46875 23.210938 18.46875 C 23.210938 18.46875 23.484375 18.46875 23.554688 18.609375 C 23.554688 18.609375 23.484375 18.503906 23.347656 18.4375 Z M 23.144531 18.332031 "/>
<path fill-rule="nonzero" fill="rgb(81.959534%, 74.508667%, 65.489197%)" fill-opacity="1" d="M 23.316406 13.417969 C 23.316406 13.417969 23.417969 13.214844 23.757812 13.351562 C 24.101562 13.488281 24.167969 13.726562 24.203125 13.898438 C 24.238281 14.066406 24.132812 14.238281 24.375 14.410156 C 24.613281 14.582031 24.78125 15.636719 24.511719 15.605469 C 24.238281 15.570312 24.167969 15.535156 24.03125 15.636719 C 23.894531 15.742188 23.589844 15.777344 23.382812 15.535156 C 23.382812 15.535156 23.179688 15.84375 23.179688 16.015625 C 23.179688 16.183594 23.25 16.660156 23.042969 16.730469 C 23.042969 16.730469 22.734375 16.320312 22.734375 15.910156 C 22.734375 15.5 22.839844 15.058594 23.179688 14.855469 C 23.179688 14.855469 23.042969 14.75 22.941406 14.613281 C 22.839844 14.476562 22.773438 14.511719 22.566406 14.511719 L 22.019531 14.511719 C 22.019531 14.511719 22.15625 14.203125 22.328125 14.136719 C 22.5 14.070312 22.804688 13.898438 23.113281 14.136719 C 23.417969 14.375 23.625 14.546875 23.625 14.546875 L 23.660156 14.308594 C 23.660156 14.308594 23.589844 14.171875 23.453125 14.035156 C 23.316406 13.898438 23.316406 13.695312 23.316406 13.589844 C 23.316406 13.488281 23.316406 13.417969 23.316406 13.417969 Z M 23.316406 13.417969 "/>
<path fill-rule="nonzero" fill="rgb(57.646179%, 47.842407%, 38.038635%)" fill-opacity="1" d="M 22.734375 14 C 22.15625 14 21.984375 14.546875 21.984375 14.546875 L 22.597656 14.546875 C 22.597656 14.546875 22.699219 14.511719 22.769531 14.511719 C 22.835938 14.511719 23.074219 14.683594 23.179688 14.886719 C 23.28125 15.09375 23.792969 14.851562 23.691406 14.683594 C 23.589844 14.511719 23.351562 14 22.734375 14 Z M 22.734375 14 "/>
<path fill-rule="nonzero" fill="rgb(68.626404%, 59.606934%, 49.411011%)" fill-opacity="1" d="M 23.929688 14.648438 C 23.914062 14.589844 23.8125 14.578125 23.691406 14.605469 C 23.558594 14.628906 23.433594 14.746094 23.316406 14.785156 C 23.007812 14.886719 22.667969 15.328125 22.667969 15.738281 C 22.667969 16.148438 22.972656 16.625 23.007812 16.726562 C 23.042969 16.832031 23.109375 16.726562 23.144531 16.625 C 23.179688 16.523438 23.179688 16.285156 23.179688 16.078125 C 23.179688 15.875 23.28125 15.566406 23.453125 15.464844 C 23.621094 15.363281 24.066406 15.195312 23.929688 14.648438 Z M 24.441406 17.445312 C 24.441406 17.53125 24.332031 17.824219 24.339844 18.128906 C 24.339844 18.152344 24.371094 18.308594 24.371094 18.332031 C 24.382812 18.628906 24.480469 18.78125 24.542969 18.878906 C 24.542969 18.878906 24.714844 18.8125 24.886719 18.570312 C 25.054688 18.332031 25.089844 18.09375 24.988281 17.890625 C 24.886719 17.683594 24.441406 17.445312 24.441406 17.445312 Z M 24.441406 17.445312 "/>
<path fill-rule="nonzero" fill="rgb(81.959534%, 74.508667%, 65.489197%)" fill-opacity="1" d="M 24.644531 17.070312 C 24.613281 17.070312 24.527344 17.785156 24.578125 18.058594 C 24.679688 18.605469 25.089844 19.21875 25.363281 19.152344 C 25.636719 19.082031 25.464844 18.914062 25.398438 18.777344 C 25.328125 18.640625 25.226562 18.332031 25.292969 18.09375 C 25.363281 17.855469 24.644531 17.070312 24.644531 17.070312 Z M 24.644531 17.070312 "/>
<path fill-rule="nonzero" fill="rgb(72.940063%, 56.077576%, 41.175842%)" fill-opacity="1" d="M 24.101562 15.5 C 23.996094 15.703125 23.757812 15.875 23.484375 15.570312 C 23.484375 15.570312 23.382812 16.082031 23.589844 16.421875 C 23.792969 16.765625 24.578125 17.652344 24.578125 17.652344 L 24.679688 17.070312 Z M 24.101562 15.5 "/>
<path fill-rule="nonzero" fill="rgb(73.332214%, 42.352295%, 24.705505%)" fill-opacity="1" d="M 24.613281 14.339844 C 24.371094 14.238281 24.03125 14.410156 23.996094 14.613281 C 23.964844 14.816406 23.929688 15.296875 23.964844 15.5 C 23.996094 15.703125 23.964844 16.046875 24.03125 16.21875 C 24.101562 16.386719 24.371094 16.558594 24.40625 16.796875 C 24.441406 17.035156 24.644531 17.242188 24.953125 17.582031 C 25.261719 17.921875 25.738281 18.46875 25.875 18.402344 C 26.011719 18.332031 26.183594 17.105469 25.773438 16.046875 C 25.363281 14.988281 24.613281 14.339844 24.613281 14.339844 Z M 24.613281 14.339844 "/>
<path fill-rule="nonzero" fill="rgb(0.784302%, 0.784302%, 0.784302%)" fill-opacity="1" d="M 23.726562 13.453125 C 23.589844 13.386719 23.484375 13.417969 23.589844 13.523438 C 23.691406 13.625 23.859375 13.523438 23.726562 13.453125 Z M 23.726562 13.453125 "/>
<path fill-rule="nonzero" fill="rgb(100%, 100%, 100%)" fill-opacity="1" d="M 17.410156 11.066406 C 17.410156 11.066406 17.546875 11.40625 17.957031 11.371094 C 18.367188 11.335938 18.675781 11.234375 18.777344 11.609375 C 18.777344 11.609375 18.539062 11.644531 18.4375 11.816406 C 18.332031 11.984375 18.605469 12.429688 18.605469 12.429688 C 18.605469 12.429688 18.335938 12.429688 18.230469 12.257812 C 18.230469 12.257812 18.195312 12.566406 17.992188 12.769531 C 17.90625 12.855469 17.6875 12.871094 17.6875 12.871094 L 18.027344 12.191406 C 18.09375 12.054688 18.164062 11.882812 17.855469 12.085938 C 17.550781 12.292969 17.140625 12.460938 16.902344 12.191406 C 16.902344 12.191406 17.890625 11.746094 18.09375 11.644531 C 17.753906 11.644531 17.71875 11.609375 17.414062 11.644531 C 17.230469 11.664062 17.039062 11.746094 17.039062 11.746094 C 17.039062 11.746094 17.003906 11.472656 17.378906 11.472656 C 17.617188 11.472656 17.34375 11.40625 17.3125 11.269531 C 17.273438 11.132812 17.410156 11.066406 17.410156 11.066406 Z M 22.632812 13.863281 C 22.632812 13.863281 23.382812 13.761719 23.28125 13.078125 C 23.179688 12.394531 22.667969 11.917969 22.769531 11.507812 C 22.769531 11.507812 22.527344 11.574219 22.460938 11.78125 C 22.324219 12.222656 22.757812 12.585938 22.835938 12.703125 C 22.972656 12.90625 23.042969 13.144531 23.042969 13.144531 C 23.042969 13.144531 22.667969 12.839844 22.460938 13.144531 C 22.460938 13.144531 22.699219 13.113281 22.804688 13.214844 C 22.90625 13.316406 22.972656 13.453125 22.871094 13.589844 C 22.769531 13.726562 22.632812 13.863281 22.632812 13.863281 Z M 24.78125 11.542969 C 24.78125 11.542969 25.125 11.679688 25.125 11.882812 C 25.125 12.089844 24.953125 12.15625 24.679688 12.15625 C 24.679688 12.15625 24.816406 12.054688 24.851562 11.917969 C 24.886719 11.78125 24.78125 11.542969 24.78125 11.542969 Z M 24.78125 11.542969 "/>
<path fill-rule="nonzero" fill="rgb(56.469727%, 37.254333%, 25.489807%)" fill-opacity="1" d="M 19.527344 11.304688 C 19.527344 11.304688 20.039062 11.644531 20.175781 11.679688 C 20.3125 11.710938 20.859375 11.679688 20.859375 11.679688 L 20.960938 11.441406 C 20.960938 11.441406 21.234375 11.371094 21.402344 11.371094 C 21.574219 11.371094 21.78125 11.40625 21.78125 11.40625 L 21.847656 11.609375 L 21.574219 12.226562 L 20.652344 12.226562 C 20.515625 12.226562 20.210938 12.121094 20.140625 11.988281 C 20.074219 11.847656 19.800781 11.679688 19.730469 11.578125 C 19.664062 11.472656 19.289062 11.203125 19.527344 11.304688 Z M 19.527344 11.304688 "/>
<path fill-rule="nonzero" fill="rgb(56.469727%, 37.254333%, 25.489807%)" fill-opacity="1" d="M 20.925781 11.671875 C 20.925781 11.714844 20.894531 11.746094 20.859375 11.746094 C 20.820312 11.746094 20.789062 11.714844 20.789062 11.671875 L 20.789062 10.320312 C 20.789062 10.277344 20.820312 10.246094 20.859375 10.246094 C 20.894531 10.246094 20.925781 10.277344 20.925781 10.320312 Z M 20.3125 11.710938 C 20.3125 11.75 20.28125 11.78125 20.242188 11.78125 C 20.207031 11.78125 20.175781 11.75 20.175781 11.710938 L 20.175781 10.484375 C 20.175781 10.445312 20.207031 10.414062 20.242188 10.414062 C 20.28125 10.414062 20.3125 10.445312 20.3125 10.484375 Z M 21.300781 11.710938 C 21.300781 11.75 21.269531 11.78125 21.234375 11.78125 C 21.195312 11.78125 21.164062 11.75 21.164062 11.710938 L 21.164062 10.484375 C 21.164062 10.445312 21.195312 10.414062 21.234375 10.414062 C 21.269531 10.414062 21.300781 10.445312 21.300781 10.484375 Z M 21.300781 11.710938 "/>
<path fill-rule="nonzero" fill="rgb(100%, 100%, 100%)" fill-opacity="1" d="M 20.449219 10.828125 C 20.449219 10.863281 20.328125 10.894531 20.175781 10.894531 C 20.027344 10.894531 19.902344 10.863281 19.902344 10.828125 C 19.902344 10.789062 20.027344 10.757812 20.175781 10.757812 C 20.328125 10.757812 20.449219 10.789062 20.449219 10.828125 Z M 20.585938 11.167969 C 20.585938 11.203125 20.425781 11.234375 20.226562 11.234375 C 20.027344 11.234375 19.867188 11.203125 19.867188 11.167969 C 19.867188 11.128906 20.027344 11.097656 20.226562 11.097656 C 20.425781 11.097656 20.585938 11.128906 20.585938 11.167969 Z M 21.097656 10.707031 C 21.097656 10.734375 20.976562 10.757812 20.824219 10.757812 C 20.671875 10.757812 20.550781 10.734375 20.550781 10.707031 C 20.550781 10.679688 20.671875 10.65625 20.824219 10.65625 C 20.976562 10.65625 21.097656 10.679688 21.097656 10.707031 Z M 21.097656 10.707031 "/>
<path fill-rule="nonzero" fill="rgb(100%, 100%, 100%)" fill-opacity="1" d="M 21.507812 10.6875 C 21.507812 10.707031 21.40625 10.722656 21.285156 10.722656 C 21.160156 10.722656 21.0625 10.707031 21.0625 10.6875 C 21.0625 10.671875 21.160156 10.65625 21.285156 10.65625 C 21.40625 10.65625 21.507812 10.671875 21.507812 10.6875 Z M 21.027344 11.03125 C 21.027344 11.070312 20.929688 11.097656 20.804688 11.097656 C 20.683594 11.097656 20.585938 11.070312 20.585938 11.03125 C 20.585938 10.992188 20.683594 10.960938 20.804688 10.960938 C 20.929688 10.960938 21.027344 10.992188 21.027344 11.03125 Z M 21.507812 11.03125 C 21.507812 11.058594 21.40625 11.082031 21.285156 11.082031 C 21.160156 11.082031 21.0625 11.058594 21.0625 11.03125 C 21.0625 11 21.160156 10.976562 21.285156 10.976562 C 21.40625 10.976562 21.507812 11 21.507812 11.03125 Z M 21.507812 11.03125 "/>
<path fill-rule="nonzero" fill="rgb(56.077576%, 82.351685%, 88.626099%)" fill-opacity="1" d="M 19.59375 12.328125 C 19.59375 12.328125 19.867188 12.292969 19.734375 12.054688 C 19.734375 12.054688 19.867188 11.988281 20.039062 12.15625 C 20.210938 12.328125 20.519531 12.15625 20.3125 11.953125 C 20.3125 11.953125 20.484375 11.851562 20.617188 11.988281 C 20.757812 12.125 20.996094 12.160156 20.890625 11.882812 C 20.890625 11.882812 21.128906 11.816406 21.234375 12.023438 C 21.335938 12.226562 21.710938 12.191406 21.539062 11.917969 C 21.539062 11.917969 21.710938 11.882812 21.777344 12.023438 C 21.847656 12.160156 21.914062 12.191406 21.914062 12.191406 C 21.914062 12.191406 22.050781 12.023438 22.1875 12.191406 C 22.324219 12.363281 22.257812 12.535156 22.019531 12.566406 C 21.777344 12.601562 21.675781 12.328125 21.675781 12.328125 C 21.675781 12.328125 21.574219 12.464844 21.402344 12.433594 C 21.234375 12.398438 21.128906 12.261719 21.128906 12.261719 C 21.128906 12.261719 20.929688 12.363281 20.824219 12.363281 C 20.652344 12.363281 20.523438 12.195312 20.484375 12.261719 C 20.414062 12.363281 20.210938 12.464844 20.003906 12.363281 C 20.003906 12.363281 19.835938 12.636719 19.628906 12.636719 C 19.425781 12.636719 19.21875 12.511719 19.21875 12.328125 C 19.21875 12.160156 19.320312 12.089844 19.421875 12.125 C 19.527344 12.15625 19.59375 12.328125 19.59375 12.328125 Z M 19.59375 12.328125 "/>
<path fill-rule="nonzero" fill="rgb(15.686035%, 52.156067%, 28.234863%)" fill-opacity="1" d="M 19.117188 13.042969 C 19.117188 13.042969 18.742188 13.148438 18.707031 13.351562 C 18.671875 13.554688 18.640625 13.589844 18.640625 13.589844 C 18.640625 13.589844 18.46875 13.523438 18.367188 13.386719 C 18.265625 13.25 18.230469 12.941406 18.265625 12.839844 C 18.296875 12.738281 18.433594 12.429688 18.570312 12.257812 C 18.707031 12.089844 18.777344 11.746094 18.742188 11.609375 C 18.707031 11.472656 18.539062 11.339844 18.539062 11.339844 C 18.539062 11.339844 18.980469 11.339844 19.050781 11.609375 C 19.117188 11.882812 18.980469 12.089844 18.980469 12.089844 C 18.980469 12.089844 19.050781 12.121094 19.152344 11.988281 C 19.152344 11.988281 19.1875 12.328125 18.980469 12.394531 C 18.980469 12.394531 18.84375 12.601562 18.777344 12.773438 C 18.707031 12.941406 18.589844 13.144531 18.675781 13.078125 C 18.84375 12.941406 19.117188 13.042969 19.117188 13.042969 Z M 16.867188 11.644531 C 16.867188 11.644531 16.730469 11.816406 16.730469 11.917969 C 16.730469 12.019531 16.867188 12.257812 17.070312 12.328125 C 17.070312 12.328125 16.457031 12.089844 16.457031 11.882812 C 16.457031 11.679688 16.730469 11.644531 16.867188 11.644531 Z M 22.425781 11.847656 C 22.425781 11.847656 22.496094 11.335938 22.871094 11.371094 C 23.246094 11.40625 23.792969 11.507812 23.894531 11.40625 C 23.996094 11.304688 23.964844 11.097656 23.964844 11.097656 C 23.964844 11.097656 24.167969 11.132812 24.203125 11.234375 C 24.234375 11.339844 24.101562 11.472656 24.101562 11.472656 C 24.101562 11.472656 24.269531 11.441406 24.371094 11.542969 C 24.476562 11.644531 24.578125 11.78125 24.578125 11.78125 C 24.578125 11.78125 24.234375 11.679688 24.066406 11.679688 C 23.894531 11.679688 23.417969 11.644531 23.417969 11.644531 C 23.417969 11.644531 23.894531 11.917969 24.167969 12.019531 C 24.441406 12.121094 24.644531 12.226562 24.984375 12.121094 C 24.984375 12.121094 24.644531 12.328125 24.542969 12.394531 C 24.441406 12.464844 24.269531 12.464844 24.066406 12.359375 C 23.859375 12.257812 23.519531 12.019531 23.519531 12.019531 C 23.519531 12.019531 23.519531 12.257812 23.621094 12.496094 C 23.722656 12.738281 23.894531 12.90625 23.894531 12.90625 C 23.894531 12.90625 23.585938 12.839844 23.449219 12.703125 C 23.3125 12.566406 23.3125 12.257812 23.3125 12.257812 C 23.3125 12.257812 23.144531 12.496094 22.902344 12.429688 C 22.902344 12.429688 23.007812 12.363281 23.074219 12.191406 C 23.144531 12.019531 23.246094 11.882812 23.144531 11.746094 C 23.039062 11.609375 22.90625 11.476562 22.734375 11.507812 C 22.566406 11.542969 22.425781 11.847656 22.425781 11.847656 Z M 21.199219 12.53125 C 20.894531 12.667969 20.6875 12.871094 20.722656 13.386719 C 20.722656 13.386719 20.890625 13.042969 21.0625 12.941406 C 21.0625 12.941406 21.0625 13.25 21.164062 13.523438 C 21.269531 13.792969 21.539062 14 21.746094 14.035156 C 21.746094 14.035156 21.507812 13.660156 21.507812 13.351562 C 21.507812 13.351562 21.710938 13.863281 22.050781 14.171875 L 22.085938 13.933594 C 22.085938 13.933594 21.949219 13.792969 21.917969 13.625 C 21.917969 13.625 22.121094 13.898438 22.394531 13.898438 C 22.667969 13.898438 22.871094 13.726562 22.90625 13.488281 C 22.90625 13.488281 22.769531 13.554688 22.53125 13.589844 C 22.292969 13.625 22.019531 13.488281 21.816406 13.214844 C 21.609375 12.941406 21.574219 12.703125 21.574219 12.703125 Z M 21.199219 12.53125 "/>
<path fill-rule="nonzero" fill="rgb(0%, 14.117432%, 49.01886%)" fill-opacity="1" d="M 14.25 13.5 L 14.25 3.75 L 3 3.75 C 2.761719 3.75 2.546875 3.785156 2.546875 3.785156 L 2.542969 5.097656 L 0.496094 5.097656 C 0.496094 5.097656 0.464844 5.140625 0.402344 5.25 C 0.144531 5.691406 0 6.203125 0 6.75 L 0 13.5 Z M 14.25 13.5 "/>
<path fill-rule="nonzero" fill="rgb(93.331909%, 93.331909%, 93.331909%)" fill-opacity="1" d="M 14.25 3.75 L 12.5 3.75 L 9 6.203125 L 9 3.75 L 5.25 3.75 L 5.25 5.675781 L 2.546875 3.785156 C 2.085938 3.855469 1.65625 4.027344 1.292969 4.28125 L 4.820312 6.75 L 3.515625 6.75 L 0.726562 4.792969 C 0.644531 4.890625 0.566406 4.988281 0.496094 5.097656 L 2.859375 6.75 L 0 6.75 L 0 10.5 L 2.914062 10.5 L 0 12.574219 L 0 13.5 L 2.5 13.5 L 5.25 11.574219 L 5.25 13.5 L 9 13.5 L 9 11.046875 L 12.5 13.5 L 14.25 13.5 L 14.25 11.976562 L 12.140625 10.5 L 14.25 10.5 L 14.25 6.75 L 12.140625 6.75 L 14.25 5.273438 Z M 14.25 3.75 "/>
<path fill-rule="nonzero" fill="rgb(81.175232%, 10.588074%, 16.862488%)" fill-opacity="1" d="M 8.25 3.75 L 6 3.75 L 6 7.5 L 0 7.5 L 0 9.75 L 6 9.75 L 6 13.5 L 8.25 13.5 L 8.25 9.75 L 14.25 9.75 L 14.25 7.5 L 8.25 7.5 Z M 8.25 3.75 "/>
<path fill-rule="nonzero" fill="rgb(81.175232%, 10.588074%, 16.862488%)" fill-opacity="1" d="M 14.25 3.75 L 13.152344 3.75 L 9 6.660156 L 9 6.75 L 10.179688 6.75 L 14.25 3.898438 Z M 1.292969 4.28125 C 1.082031 4.429688 0.890625 4.601562 0.726562 4.792969 L 3.515625 6.75 L 4.820312 6.75 Z M 4.828125 10.5 L 0.550781 13.5 L 1.847656 13.5 L 5.25 11.117188 L 5.25 10.5 Z M 14.25 13.351562 L 14.25 12.4375 L 11.484375 10.5 L 10.175781 10.5 Z M 14.25 13.351562 "/>
</svg>