<svg xmlns="http://www.w3.org/2000/svg" xmlns:xlink="http://www.w3.org/1999/xlink" viewBox="0 0 27 27">
<path fill-rule="nonzero" fill="rgb(0%, 14.117432%, 49.01886%)" fill-opacity="1" d="M 24 3.75 L 3 3.75 C 2.847656 3.75 2.695312 3.761719 2.546875 3.785156 L 2.542969 5.097656 L 0.496094 5.097656 C 0.183594 5.570312 0 6.140625 0 6.75 L 0 20.25 C 0 21.90625 1.34375 23.25 3 23.25 L 24 23.25 C 25.65625 23.25 27 21.90625 27 20.25 L 27 6.75 C 27 5.09375 25.65625 3.75 24 3.75 Z M 24 3.75 "/>
<path fill-rule="nonzero" fill="rgb(79.998779%, 79.998779%, 19.607544%)" fill-opacity="1" d="M 25.453125 9.242188 C 25.453125 9.242188 24.351562 9.625 23.121094 9.625 C 21.886719 9.625 20.960938 8.984375 20.960938 8.984375 C 20.960938 8.984375 20.035156 9.625 18.800781 9.625 C 17.570312 9.625 16.40625 9.242188 16.40625 9.242188 C 16.292969 12.332031 16.480469 15.585938 17.613281 17.289062 C 18.832031 19.125 20.960938 20.25 20.960938 20.25 C 20.960938 20.25 23.023438 19.125 24.242188 17.289062 C 25.378906 15.585938 25.570312 12.332031 25.453125 9.242188 Z M 25.453125 9.242188 "/>
<path fill-rule="nonzero" fill="rgb(100%, 100%, 100%)" fill-opacity="1" d="M 25.0625 9.609375 C 25.0625 9.609375 24.179688 9.9375 23.011719 9.9375 C 21.839844 9.9375 20.960938 9.351562 20.960938 9.351562 C 20.960938 9.351562 20.082031 9.9375 18.910156 9.9375 C 17.738281 9.9375 16.863281 9.609375 16.863281 9.609375 C 16.753906 12.535156 16.863281 15.535156 17.996094 17.105469 C 19.132812 18.679688 20.960938 19.777344 20.960938 19.777344 C 20.960938 19.777344 22.792969 18.679688 23.925781 17.105469 C 25.058594 15.535156 25.171875 12.535156 25.0625 9.609375 Z M 25.0625 9.609375 "/>
<path fill-rule="nonzero" fill="rgb(100%, 59.999084%, 0%)" fill-opacity="1" d="M 19.933594 10.046875 C 19.933594 10.046875 19.972656 10.558594 20.191406 10.742188 C 20.191406 10.742188 20.738281 10.632812 21.179688 10.816406 C 21.527344 10.960938 22.167969 11.21875 22.496094 11.109375 C 22.824219 11 23.117188 10.890625 23.191406 10.960938 C 23.265625 11.035156 22.824219 11.144531 22.75 11.21875 C 22.679688 11.292969 22.421875 11.363281 22.570312 11.582031 C 22.714844 11.804688 22.972656 11.988281 22.898438 12.207031 C 22.898438 12.207031 22.570312 11.949219 22.421875 11.730469 C 22.277344 11.511719 21.945312 11.328125 21.398438 11.402344 C 20.847656 11.476562 20.410156 11.765625 20.335938 12.097656 C 20.265625 12.425781 20.667969 12.390625 20.996094 12.460938 C 20.996094 12.460938 20.519531 12.644531 20.265625 12.644531 C 20.265625 12.644531 20.042969 13.046875 19.824219 13.414062 C 19.605469 13.777344 19.566406 14 19.460938 13.960938 C 19.351562 13.925781 19.3125 13.414062 19.386719 13.121094 C 19.386719 13.121094 19.128906 12.972656 19.167969 12.242188 C 19.199219 11.617188 19.640625 11.035156 19.640625 11.035156 C 19.640625 11.035156 19.605469 10.816406 19.640625 10.558594 C 19.679688 10.304688 19.933594 10.046875 19.933594 10.046875 Z M 19.933594 10.046875 "/>
<path fill-rule="nonzero" fill="rgb(100%, 100%, 100%)" fill-opacity="1" d="M 19.53125 12.625 C 19.53125 12.699219 19.476562 12.753906 19.40625 12.753906 C 19.332031 12.753906 19.277344 12.699219 19.277344 12.625 C 19.277344 12.554688 19.332031 12.5 19.40625 12.5 C 19.476562 12.5 19.53125 12.554688 19.53125 12.625 Z M 19.53125 12.625 "/>
<path fill-rule="nonzero" fill="rgb(100%, 59.999084%, 0%)" fill-opacity="1" d="M 18.769531 16.296875 C 18.769531 16.296875 19.140625 15.945312 19.144531 15.660156 C 19.144531 15.660156 18.714844 15.300781 18.578125 14.847656 C 18.46875 14.484375 18.265625 13.828125 17.972656 13.640625 C 17.675781 13.453125 17.40625 13.296875 17.417969 13.195312 C 17.429688 13.09375 17.789062 13.363281 17.894531 13.375 C 17.996094 13.382812 18.214844 13.535156 18.292969 13.285156 C 18.371094 13.03125 18.351562 12.71875 18.566406 12.636719 C 18.566406 12.636719 18.578125 13.050781 18.5 13.304688 C 18.421875 13.554688 18.488281 13.925781 18.890625 14.304688 C 19.292969 14.683594 19.796875 14.839844 20.101562 14.6875 C 20.402344 14.535156 20.117188 14.25 19.964844 13.945312 C 19.964844 13.945312 20.410156 14.199219 20.570312 14.398438 C 20.570312 14.398438 21.023438 14.3125 21.445312 14.253906 C 21.867188 14.191406 22.058594 14.082031 22.101562 14.1875 C 22.140625 14.296875 21.769531 14.648438 21.492188 14.777344 C 21.492188 14.777344 21.542969 15.066406 20.953125 15.503906 C 20.449219 15.875 19.714844 15.898438 19.714844 15.898438 C 19.714844 15.898438 19.570312 16.066406 19.347656 16.199219 C 19.128906 16.332031 18.769531 16.296875 18.769531 16.296875 Z M 18.769531 16.296875 "/>
<path fill-rule="nonzero" fill="rgb(100%, 100%, 100%)" fill-opacity="1" d="M 21.019531 14.976562 C 21.074219 14.933594 21.15625 14.941406 21.199219 14.996094 C 21.246094 15.050781 21.238281 15.132812 21.183594 15.175781 C 21.128906 15.21875 21.046875 15.210938 21.003906 15.15625 C 20.957031 15.101562 20.964844 15.019531 21.019531 14.976562 Z M 21.019531 14.976562 "/>
<path fill-rule="nonzero" fill="rgb(100%, 59.999084%, 0%)" fill-opacity="1" d="M 24.585938 14.121094 C 24.585938 14.121094 24.109375 13.929688 23.847656 14.046875 C 23.847656 14.046875 23.707031 14.589844 23.351562 14.902344 C 23.066406 15.152344 22.554688 15.617188 22.511719 15.960938 C 22.464844 16.304688 22.433594 16.613281 22.339844 16.648438 C 22.242188 16.683594 22.335938 16.238281 22.300781 16.140625 C 22.265625 16.042969 22.3125 15.78125 22.050781 15.816406 C 21.789062 15.851562 21.511719 16.003906 21.347656 15.839844 C 21.347656 15.839844 21.722656 15.65625 21.984375 15.621094 C 22.246094 15.585938 22.554688 15.367188 22.730469 14.84375 C 22.902344 14.316406 22.832031 13.796875 22.566406 13.585938 C 22.304688 13.375 22.160156 13.753906 21.949219 14.019531 C 21.949219 14.019531 21.996094 13.507812 22.105469 13.28125 C 22.105469 13.28125 21.839844 12.90625 21.609375 12.550781 C 21.375 12.191406 21.195312 12.0625 21.273438 11.980469 C 21.355469 11.898438 21.832031 12.089844 22.0625 12.28125 C 22.0625 12.28125 22.308594 12.117188 22.949219 12.46875 C 23.5 12.773438 23.824219 13.425781 23.824219 13.425781 C 23.824219 13.425781 24.039062 13.488281 24.253906 13.632812 C 24.46875 13.78125 24.585938 14.121094 24.585938 14.121094 Z M 24.585938 14.121094 "/>
<path fill-rule="nonzero" fill="rgb(100%, 100%, 100%)" fill-opacity="1" d="M 22.445312 12.628906 C 22.378906 12.601562 22.351562 12.523438 22.382812 12.460938 C 22.414062 12.394531 22.492188 12.371094 22.554688 12.402344 C 22.621094 12.433594 22.644531 12.507812 22.613281 12.570312 C 22.582031 12.636719 22.507812 12.664062 22.445312 12.628906 Z M 22.445312 12.628906 "/>
<path fill-rule="nonzero" fill="rgb(59.999084%, 79.998779%, 100%)" fill-opacity="1" d="M 17.828125 16.851562 C 17.882812 16.941406 17.9375 17.027344 17.996094 17.109375 C 19.132812 18.683594 20.960938 19.777344 20.960938 19.777344 C 20.960938 19.777344 22.792969 18.679688 23.925781 17.109375 C 23.984375 17.027344 24.042969 16.941406 24.09375 16.851562 Z M 17.828125 16.851562 "/>
<path fill-rule="nonzero" fill="rgb(0%, 14.117432%, 49.01886%)" fill-opacity="1" d="M 14.25 13.5 L 14.25 3.75 L 3 3.75 C 2.761719 3.75 2.546875 3.785156 2.546875 3.785156 L 2.542969 5.097656 L 0.496094 5.097656 C 0.496094 5.097656 0.464844 5.140625 0.402344 5.25 C 0.144531 5.691406 0 6.203125 0 6.75 L 0 13.5 Z M 14.25 13.5 "/>
<path fill-rule="nonzero" fill="rgb(93.331909%, 93.331909%, 93.331909%)" fill-opacity="1" d="M 14.25 3.75 L 12.5 3.75 L 9 6.203125 L 9 3.75 L 5.25 3.75 L 5.25 5.675781 L 2.546875 3.785156 C 2.085938 3.855469 1.65625 4.027344 1.292969 4.28125 L 4.820312 6.75 L 3.515625 6.75 L 0.726562 4.792969 C 0.644531 4.890625 0.566406 4.988281 0.496094 5.097656 L 2.859375 6.75 L 0 6.75 L 0 10.5 L 2.914062 10.5 L 0 12.574219 L 0 13.5 L 2.5 13.5 L 5.25 11.574219 L 5.25 13.5 L 9 13.5 L 9 11.046875 L 12.5 13.5 L 14.25 13.5 L 14.25 11.976562 L 12.140625 10.5 L 14.25 10.5 L 14.25 6.75 L 12.140625 6.75 L 14.25 5.273438 Z M 14.25 3.75 "/>
<path fill-rule="nonzero" fill="rgb(81.175232%, 10.588074%, 16.862488%)" fill-opacity="1" d="M 8.25 3.75 L 6 3.75 L 6 7.5 L 0 7.5 L 0 9.75 L 6 9.75 L 6 13.5 L 8.25 13.5 L 8.25 9.75 L 14.25 9.75 L 14.25 7.5 L 8.25 7.5 Z M 8.25 3.75 "/>
<path fill-rule="nonzero" fill="rgb(81.175232%, 10.588074%, 16.862488%)" fill-opacity="1" d="M 14.25 3.75 L 13.152344 3.75 L 9 6.660156 L 9 6.75 L 10.179688 6.75 L 14.25 3.898438 Z M 1.292969 4.28125 C 1.082031 4.429688 0.890625 4.601562 0.726562 4.792969 L 3.515625 6.75 L 4.820312 6.75 Z M 4.828125 10.5 L 0.550781 13.5 L 1.847656 13.5 L 5.25 11.117188 L 5.25 10.5 Z M 14.25 13.351562 L 14.25 12.4375 L 11.484375 10.5 L 10.175781 10.5 Z M 14.25 13.351562 "/>
</svg>