<svg xmlns="http://www.w3.org/2000/svg" xmlns:xlink="http://www.w3.org/1999/xlink" viewBox="0 0 27 27">
<path fill-rule="nonzero" fill="rgb(14.901733%, 37.254333%, 70.979309%)" fill-opacity="1" d="M 27 20.25 C 27 21.90625 25.65625 23.25 24 23.25 L 3 23.25 C 1.34375 23.25 0 21.90625 0 20.25 L 0 6.75 C 0 5.09375 1.34375 3.75 3 3.75 L 24 3.75 C 25.65625 3.75 27 5.09375 27 6.75 Z M 27 20.25 "/>
<path fill-rule="nonzero" fill="rgb(100%, 100%, 100%)" fill-opacity="1" d="M 20.648438 14.199219 C 20.609375 13.804688 21.25 12.828125 20.738281 12.898438 C 20.109375 12.984375 19.617188 12.554688 19.40625 12.5625 C 20.085938 11.601562 19.582031 11.359375 19.429688 10.734375 C 19.164062 9.640625 20.015625 9.105469 18.492188 8.871094 C 17.5 8.71875 16.816406 8.820312 16.519531 7.691406 C 16.082031 7.996094 15.5625 8.074219 15.070312 7.859375 C 14.753906 7.722656 14.65625 7.460938 14.359375 7.332031 C 14.136719 7.238281 13.667969 7.238281 13.414062 7.199219 C 12.722656 7.089844 12.367188 7.398438 11.746094 7.292969 C 11.804688 7.382812 11.8125 7.5 11.855469 7.59375 C 11.472656 7.609375 11.238281 7.867188 11.199219 8.222656 C 10.636719 8.167969 10.496094 8.898438 10.558594 9.355469 L 10.5 9.375 L 10.523438 9.398438 C 10.40625 10.617188 9.910156 11.226562 8.660156 11.417969 C 7.839844 11.542969 7.109375 10.996094 6.398438 10.558594 C 6.242188 10.460938 5.96875 10.25 5.824219 10.089844 C 5.613281 9.855469 5.464844 9.53125 5.261719 9.363281 C 5.167969 9.285156 4.96875 9.222656 4.996094 9.378906 C 4.867188 10.1875 5.457031 11.195312 6.136719 11.582031 C 5.207031 12.011719 6.371094 12.269531 6.539062 12.417969 C 6.542969 12.417969 6.945312 12.972656 6.949219 12.992188 C 7.011719 13.386719 6.738281 13.339844 6.710938 13.65625 C 6.683594 13.984375 6.683594 14.246094 6.792969 14.574219 L 6.769531 14.597656 C 6.773438 14.859375 6.574219 14.765625 6.316406 14.707031 C 6.351562 15.503906 7.109375 15.570312 7.238281 15.726562 C 7.644531 16.230469 7.503906 16.960938 7.980469 17.425781 C 9.15625 18.574219 10.492188 17.898438 11.820312 18.089844 C 12.566406 18.199219 13.203125 18.824219 13.878906 18.117188 C 14.671875 18.988281 13.269531 20.019531 13.613281 20.3125 C 13.710938 20.398438 13.8125 20.433594 13.917969 20.4375 C 13.898438 20.492188 13.867188 20.539062 13.855469 20.597656 C 14.808594 20.6875 15.816406 20.914062 16.707031 20.445312 C 16.707031 20.589844 16.800781 20.761719 16.808594 20.839844 C 17.027344 20.578125 17.195312 20.59375 17.476562 20.453125 C 17.824219 20.277344 18.441406 20.070312 18.671875 19.71875 C 18.949219 19.304688 18.515625 18.730469 19.382812 18.910156 C 19.449219 18.609375 19.476562 18.640625 19.636719 18.441406 C 19.398438 17.839844 20.109375 17.4375 20.324219 17.007812 C 20.367188 16.921875 20.371094 16.519531 20.425781 16.367188 C 20.535156 16.078125 20.84375 15.917969 20.929688 15.554688 C 21.085938 14.890625 20.703125 14.777344 20.648438 14.199219 Z M 20.648438 14.199219 "/>
</svg>