<svg xmlns="http://www.w3.org/2000/svg" xmlns:xlink="http://www.w3.org/1999/xlink" viewBox="0 0 27 27">
<path fill-rule="nonzero" fill="rgb(0%, 14.117432%, 49.01886%)" fill-opacity="1" d="M 27 20.25 C 27 21.90625 25.65625 23.25 24 23.25 L 3 23.25 C 1.34375 23.25 0 21.90625 0 20.25 L 0 6.75 C 0 5.09375 1.34375 3.75 3 3.75 L 24 3.75 C 25.65625 3.75 27 5.09375 27 6.75 Z M 27 20.25 "/>
<path fill-rule="nonzero" fill="rgb(74.116516%, 9.01947%, 12.940979%)" fill-opacity="1" d="M 25.636719 4.242188 L 0 13.472656 L 0 13.503906 L 25.640625 22.757812 C 26.457031 22.222656 27 21.300781 27 20.25 L 27 6.75 C 27 5.699219 26.457031 4.777344 25.636719 4.242188 Z M 25.636719 4.242188 "/>
<path fill-rule="nonzero" fill="rgb(93.331909%, 93.331909%, 93.331909%)" fill-opacity="1" d="M 26.453125 21.96875 C 26.796875 21.480469 27 20.890625 27 20.25 L 27 6.75 C 27 6.109375 26.792969 5.515625 26.449219 5.027344 L 2.957031 13.488281 Z M 26.453125 21.96875 "/>
<path fill-rule="nonzero" fill="rgb(84.70459%, 58.430481%, 0%)" fill-opacity="1" d="M 16.5 14.652344 C 16.5 14.652344 17.074219 14.742188 17.316406 14.652344 C 17.558594 14.5625 17.859375 14.472656 17.859375 14.472656 L 18.316406 14.953125 L 18.496094 14.5 L 18.828125 14.59375 L 18.796875 14.742188 C 18.796875 14.742188 19.070312 14.835938 19.070312 14.863281 C 19.070312 14.894531 19.039062 15.136719 19.039062 15.136719 L 19.886719 15.347656 L 20.039062 15.015625 C 20.039062 15.015625 20.582031 15.5 20.796875 15.53125 C 21.007812 15.558594 21.644531 15.53125 21.761719 15.621094 C 21.882812 15.710938 22.15625 15.890625 22.15625 15.890625 C 22.15625 15.890625 24.304688 16.378906 24.304688 16.40625 C 24.304688 16.4375 24.273438 16.617188 24.09375 16.589844 C 23.910156 16.558594 21.128906 16.011719 20.765625 15.890625 C 20.402344 15.773438 19.855469 16.011719 19.855469 16.011719 L 19.855469 15.679688 L 18.917969 15.410156 L 18.828125 15.652344 L 18.585938 15.652344 L 18.496094 15.863281 L 18.164062 15.773438 L 18.222656 15.316406 C 18.222656 15.316406 17.953125 15.289062 17.832031 15.378906 C 17.710938 15.46875 17.527344 15.558594 17.527344 15.558594 C 17.527344 15.558594 17.347656 15.226562 17.074219 15.046875 C 16.800781 14.863281 16.5 14.652344 16.5 14.652344 Z M 16.5 14.652344 "/>
<path fill-rule="nonzero" fill="rgb(84.70459%, 58.430481%, 0%)" fill-opacity="1" d="M 19.585938 16.257812 C 19.585938 16.257812 23.640625 16.589844 23.882812 16.617188 C 24.125 16.648438 24.125 16.859375 23.882812 16.890625 C 23.640625 16.921875 19.585938 16.589844 19.585938 16.589844 C 19.585938 16.589844 19.402344 16.769531 19.402344 16.832031 C 19.402344 16.890625 21.007812 16.921875 21.007812 16.921875 L 20.855469 17.070312 C 20.855469 17.070312 21.492188 17.101562 21.734375 17.042969 C 21.976562 16.980469 22.003906 16.800781 22.035156 16.859375 C 22.066406 16.921875 21.855469 17.164062 21.914062 17.164062 C 21.976562 17.164062 22.640625 17.101562 22.640625 17.101562 L 22.15625 17.34375 L 22.882812 17.617188 C 22.882812 17.617188 22.519531 17.707031 22.367188 17.707031 C 22.21875 17.707031 21.976562 17.648438 21.976562 17.648438 C 21.976562 17.648438 22.21875 17.980469 22.398438 18.039062 C 22.398438 18.039062 21.792969 17.886719 21.703125 17.796875 C 21.613281 17.707031 21.882812 18.253906 21.339844 17.765625 C 20.796875 17.28125 20.796875 17.527344 20.796875 17.527344 L 20.976562 17.828125 C 20.976562 17.828125 20.523438 17.828125 20.21875 17.648438 C 19.917969 17.464844 19.554688 17.375 19.28125 17.285156 C 19.011719 17.191406 18.769531 17.101562 18.554688 16.980469 C 18.34375 16.859375 17.890625 16.589844 17.980469 16.316406 C 18.070312 16.042969 18.433594 16.132812 18.433594 16.132812 C 18.433594 16.132812 18.675781 16.074219 18.859375 16.105469 C 19.039062 16.132812 19.160156 15.890625 19.34375 15.984375 C 19.527344 16.074219 19.585938 16.257812 19.585938 16.257812 Z M 19.585938 16.257812 "/>
<path fill-rule="nonzero" fill="rgb(100%, 100%, 100%)" fill-opacity="1" d="M 23.792969 11.566406 C 24.152344 11.65625 24.820312 11.535156 25.121094 11.476562 C 25.425781 11.414062 25.636719 11.324219 25.757812 11.445312 C 25.878906 11.566406 25.847656 11.628906 25.847656 11.628906 C 25.847656 11.628906 26.03125 11.71875 26.03125 11.808594 L 26.03125 11.898438 C 26.03125 11.898438 26.152344 12.109375 26.03125 12.203125 C 26.03125 12.203125 26.152344 12.535156 25.9375 12.59375 C 25.9375 12.59375 26.089844 12.867188 25.847656 12.898438 L 25.757812 13.199219 L 23.761719 12.867188 Z M 23.792969 11.566406 "/>
<path fill-rule="nonzero" fill="rgb(39.99939%, 45.881653%, 49.803162%)" fill-opacity="1" d="M 25.796875 13.265625 L 23.703125 12.914062 L 23.703125 12.867188 L 23.738281 11.496094 L 23.804688 11.511719 C 23.976562 11.554688 24.347656 11.574219 25.113281 11.421875 C 25.175781 11.410156 25.234375 11.394531 25.289062 11.382812 C 25.507812 11.332031 25.679688 11.289062 25.796875 11.40625 C 25.882812 11.488281 25.90625 11.554688 25.90625 11.597656 C 25.972656 11.632812 26.085938 11.714844 26.085938 11.808594 L 26.085938 11.886719 C 26.132812 11.972656 26.175781 12.125 26.09375 12.21875 C 26.113281 12.289062 26.144531 12.433594 26.089844 12.539062 C 26.070312 12.574219 26.046875 12.601562 26.011719 12.625 C 26.035156 12.683594 26.058594 12.777344 26.019531 12.851562 C 26.003906 12.886719 25.96875 12.929688 25.890625 12.945312 Z M 23.816406 12.820312 L 25.71875 13.136719 L 25.804688 12.847656 L 25.839844 12.839844 C 25.902344 12.832031 25.917969 12.808594 25.921875 12.800781 C 25.945312 12.753906 25.910156 12.660156 25.890625 12.621094 L 25.855469 12.558594 L 25.921875 12.539062 C 25.953125 12.53125 25.976562 12.515625 25.988281 12.488281 C 26.03125 12.410156 25.992188 12.269531 25.976562 12.222656 L 25.960938 12.179688 L 25.996094 12.15625 C 26.074219 12.097656 25.980469 11.929688 25.980469 11.925781 L 25.972656 11.914062 L 25.972656 11.808594 C 25.972656 11.777344 25.894531 11.714844 25.824219 11.675781 L 25.773438 11.652344 L 25.796875 11.601562 C 25.792969 11.601562 25.792969 11.5625 25.714844 11.484375 C 25.648438 11.414062 25.523438 11.441406 25.316406 11.488281 C 25.257812 11.503906 25.199219 11.519531 25.132812 11.53125 C 24.550781 11.648438 24.117188 11.683594 23.84375 11.636719 Z M 23.816406 12.820312 "/>
<path fill-rule="nonzero" fill="rgb(100%, 76.077271%, 12.548828%)" fill-opacity="1" d="M 21.644531 14.863281 C 21.628906 14.890625 21.402344 15.46875 21.28125 15.558594 C 21.160156 15.652344 20.886719 15.863281 20.765625 15.890625 C 20.644531 15.921875 20.644531 16.042969 20.644531 16.042969 C 20.644531 16.042969 20.371094 16.195312 20.28125 16.253906 C 20.191406 16.316406 20.101562 16.316406 20.34375 16.347656 C 20.585938 16.375 20.644531 16.40625 20.644531 16.40625 C 20.644531 16.40625 20.464844 16.585938 20.523438 16.679688 C 20.585938 16.769531 20.828125 16.785156 21.128906 16.859375 C 21.371094 16.921875 21.613281 16.828125 21.613281 16.738281 C 21.613281 16.648438 21.554688 16.40625 21.554688 16.4375 C 21.554688 16.46875 21.734375 16.347656 21.917969 16.253906 C 22.097656 16.164062 22.1875 15.953125 22.128906 15.800781 C 22.066406 15.648438 22.128906 15.40625 22.277344 15.136719 C 22.429688 14.863281 22.25 14.53125 22.097656 14.5 C 21.945312 14.472656 21.703125 14.710938 21.644531 14.863281 Z M 21.644531 14.863281 "/>
<path fill-rule="nonzero" fill="rgb(61.175537%, 22.3526%, 0%)" fill-opacity="1" d="M 19.285156 12.324219 C 19.554688 12.140625 19.796875 11.777344 19.796875 11.777344 C 19.796875 11.777344 19.707031 11.65625 19.375 11.808594 C 19.042969 11.960938 18.617188 12.140625 18.4375 11.929688 C 18.160156 11.605469 18.566406 11.195312 18.890625 11.082031 C 19.859375 10.75 18.496094 10.386719 19.648438 9.871094 C 20.128906 9.65625 21.070312 9.511719 21.25 9.417969 C 21.433594 9.328125 21.703125 8.996094 21.703125 9.027344 C 21.703125 9.054688 21.734375 9.269531 21.734375 9.269531 C 21.734375 9.269531 22.398438 9.085938 22.613281 8.996094 C 22.824219 8.90625 23.003906 8.664062 23.003906 8.664062 L 23.066406 8.875 C 23.066406 8.875 23.609375 8.816406 23.820312 8.664062 C 24.03125 8.511719 24.183594 8.632812 24.183594 8.632812 C 24.183594 8.632812 24.789062 8.484375 25.03125 8.363281 C 25.273438 8.242188 25.605469 8.179688 25.546875 8.390625 C 25.484375 8.605469 25.121094 9.664062 24.96875 9.875 C 24.820312 10.085938 24.851562 10.417969 24.667969 10.570312 C 24.488281 10.722656 23.246094 11.417969 23.246094 11.417969 C 23.246094 11.417969 23.851562 11.449219 24.09375 11.539062 C 24.335938 11.628906 24.214844 11.933594 24.214844 11.933594 C 24.214844 11.933594 24.277344 12.054688 24.277344 12.175781 C 24.277344 12.296875 24.125 12.324219 24.125 12.324219 C 24.125 12.324219 24.277344 12.386719 24.246094 12.507812 C 24.214844 12.628906 23.941406 12.628906 24.003906 12.628906 C 24.066406 12.628906 24.304688 12.871094 24.277344 12.960938 C 24.246094 13.050781 23.761719 12.839844 23.550781 12.902344 C 23.550781 12.902344 23.578125 13.050781 23.761719 13.144531 C 23.941406 13.234375 23.941406 13.292969 23.792969 13.386719 C 23.640625 13.476562 23.488281 13.597656 23.640625 13.597656 C 23.792969 13.597656 23.851562 13.6875 23.761719 13.75 C 23.671875 13.808594 24.125 13.75 23.851562 13.960938 C 23.578125 14.171875 23.519531 14.171875 23.519531 14.171875 C 23.519531 14.171875 23.792969 14.503906 23.671875 14.535156 C 23.550781 14.566406 23.15625 14.351562 23.15625 14.351562 C 23.15625 14.351562 23.246094 14.65625 23.398438 14.746094 C 23.398438 14.746094 23.066406 14.957031 22.882812 14.714844 C 22.882812 14.714844 22.914062 15.046875 23.003906 15.140625 C 23.003906 15.140625 22.824219 15.167969 22.671875 15.046875 C 22.671875 15.046875 22.550781 15.289062 22.609375 15.441406 L 22.308594 14.957031 L 21.886719 14.835938 L 21.644531 15.261719 C 21.644531 15.261719 21.492188 14.957031 21.523438 14.683594 C 21.554688 14.414062 21.523438 14.019531 21.492188 13.867188 C 21.460938 13.714844 21.097656 13.292969 20.796875 13.234375 C 20.492188 13.171875 19.917969 13.171875 19.917969 13.171875 L 19.222656 12.324219 "/>
<path fill-rule="nonzero" fill="rgb(100%, 76.077271%, 12.548828%)" fill-opacity="1" d="M 17.738281 14.015625 C 17.738281 14.015625 18.375 14.230469 18.585938 13.804688 C 18.796875 13.382812 18.074219 13.230469 17.800781 13.382812 C 17.527344 13.535156 17.316406 13.804688 17.347656 14.015625 C 17.378906 14.230469 17.648438 14.320312 17.648438 14.320312 Z M 17.738281 14.015625 "/>
<path fill-rule="nonzero" fill="rgb(100%, 100%, 100%)" fill-opacity="1" d="M 17.679688 13.441406 L 17.832031 13.804688 L 18.585938 13.804688 C 18.585938 13.804688 19.285156 13.230469 19.828125 13.199219 C 20.371094 13.171875 20.765625 12.898438 20.160156 12.867188 C 20.160156 12.867188 20.976562 12.503906 20.097656 12.566406 C 20.097656 12.566406 20.675781 12.171875 19.917969 12.324219 C 19.917969 12.324219 20.582031 11.867188 19.707031 12.082031 L 19.796875 11.746094 C 19.796875 11.746094 19.433594 12.171875 19.191406 12.292969 C 18.949219 12.414062 18.195312 12.777344 18.011719 12.835938 C 17.832031 12.898438 17.859375 12.988281 17.832031 13.140625 C 17.800781 13.292969 17.679688 13.441406 17.679688 13.441406 Z M 17.679688 13.441406 "/>
<path fill-rule="nonzero" fill="rgb(39.99939%, 45.881653%, 49.803162%)" fill-opacity="1" d="M 18.609375 13.863281 L 17.792969 13.863281 L 17.617188 13.433594 L 17.636719 13.40625 C 17.636719 13.40625 17.75 13.265625 17.777344 13.128906 C 17.78125 13.101562 17.785156 13.074219 17.789062 13.050781 C 17.804688 12.945312 17.816406 12.84375 17.996094 12.785156 C 18.167969 12.726562 18.90625 12.375 19.167969 12.242188 C 19.398438 12.128906 19.75 11.714844 19.753906 11.710938 L 19.917969 11.523438 L 19.785156 12.003906 C 20.09375 11.9375 20.179688 11.96875 20.207031 12.035156 C 20.234375 12.09375 20.1875 12.167969 20.117188 12.234375 C 20.257812 12.222656 20.332031 12.246094 20.355469 12.304688 C 20.382812 12.367188 20.335938 12.4375 20.269531 12.5 L 20.277344 12.5 C 20.460938 12.5 20.542969 12.535156 20.558594 12.601562 C 20.578125 12.667969 20.507812 12.746094 20.355469 12.835938 C 20.445312 12.855469 20.523438 12.894531 20.523438 12.96875 C 20.523438 13.125 20.164062 13.238281 19.832031 13.257812 C 19.3125 13.285156 18.628906 13.84375 18.625 13.847656 Z M 17.867188 13.75 L 18.566406 13.75 C 18.675781 13.660156 19.308594 13.171875 19.824219 13.144531 C 20.171875 13.125 20.394531 13.011719 20.410156 12.96875 C 20.402344 12.96875 20.359375 12.933594 20.15625 12.925781 L 19.921875 12.910156 L 20.136719 12.816406 C 20.277344 12.753906 20.410156 12.675781 20.441406 12.632812 C 20.414062 12.621094 20.335938 12.605469 20.105469 12.621094 L 19.898438 12.636719 L 20.070312 12.519531 C 20.152344 12.460938 20.234375 12.386719 20.25 12.351562 C 20.226562 12.34375 20.152344 12.332031 19.929688 12.378906 L 19.660156 12.433594 L 19.886719 12.277344 C 19.984375 12.210938 20.078125 12.125 20.101562 12.085938 C 20.070312 12.078125 19.980469 12.074219 19.71875 12.136719 L 19.628906 12.160156 L 19.683594 11.957031 C 19.550781 12.09375 19.367188 12.269531 19.21875 12.34375 C 19 12.453125 18.222656 12.828125 18.03125 12.890625 C 17.917969 12.929688 17.914062 12.964844 17.902344 13.066406 C 17.898438 13.089844 17.894531 13.121094 17.886719 13.152344 C 17.863281 13.277344 17.78125 13.398438 17.746094 13.449219 Z M 17.867188 13.75 "/>
<path fill-rule="nonzero" fill="rgb(0%, 0%, 0%)" fill-opacity="1" d="M 18.390625 13.140625 C 18.421875 13.195312 18.375 13.277344 18.292969 13.320312 C 18.207031 13.363281 18.117188 13.351562 18.085938 13.292969 C 18.058594 13.234375 18.101562 13.152344 18.1875 13.109375 C 18.269531 13.066406 18.363281 13.082031 18.390625 13.140625 Z M 18.390625 13.140625 "/>
</svg>