<svg xmlns="http://www.w3.org/2000/svg" xmlns:xlink="http://www.w3.org/1999/xlink" viewBox="0 0 27 27">
<path fill-rule="nonzero" fill="rgb(25.489807%, 53.72467%, 86.665344%)" fill-opacity="1" d="M 24 3.75 L 3 3.75 C 1.34375 3.75 0 5.09375 0 6.75 L 0 16.542969 L 27 16.542969 L 27 6.75 C 27 5.09375 25.65625 3.75 24 3.75 Z M 4.707031 8.457031 L 4 10.75 L 3.292969 8.457031 L 1 7.75 L 3.292969 7.042969 L 4 4.75 L 4.707031 7.042969 L 7 7.75 Z M 3 23.25 L 24 23.25 C 25.402344 23.25 26.574219 22.28125 26.898438 20.980469 L 0.101562 20.980469 C 0.425781 22.28125 1.597656 23.25 3 23.25 Z M 0 18.019531 L 27 18.019531 L 27 19.5 L 0 19.5 Z M 0 18.019531 "/>
<path fill-rule="nonzero" fill="rgb(100%, 100%, 100%)" fill-opacity="1" d="M 4 4.75 L 3.292969 7.042969 L 1 7.75 L 3.292969 8.457031 L 4 10.75 L 4.707031 8.457031 L 7 7.75 L 4.707031 7.042969 Z M 4.546875 8.296875 L 4 10.0625 L 3.457031 8.296875 L 1.6875 7.75 L 3.457031 7.207031 L 4 5.441406 L 4.546875 7.207031 L 6.3125 7.75 Z M 4.546875 8.296875 "/>
<path fill-rule="nonzero" fill="rgb(82.351685%, 6.274414%, 20.391846%)" fill-opacity="1" d="M 4 5.4375 L 3.457031 7.207031 L 1.6875 7.75 L 3.457031 8.296875 L 4 10.0625 L 4.546875 8.296875 L 6.3125 7.75 L 4.546875 7.207031 Z M 4 5.4375 "/>
<path fill-rule="nonzero" fill="rgb(97.647095%, 83.920288%, 8.627319%)" fill-opacity="1" d="M 0 16.542969 L 27 16.542969 L 27 18.019531 L 0 18.019531 Z M 0 20.25 C 0 20.503906 0.0390625 20.746094 0.101562 20.980469 L 26.898438 20.980469 C 26.960938 20.746094 27 20.503906 27 20.25 L 27 19.5 L 0 19.5 Z M 0 20.25 "/>
</svg>