<svg xmlns="http://www.w3.org/2000/svg" xmlns:xlink="http://www.w3.org/1999/xlink" viewBox="0 0 27 27">
<path fill-rule="nonzero" fill="rgb(100%, 80.783081%, 0%)" fill-opacity="1" d="M 13.5 3.75 L 12 3.75 L 12 12 L 27 12 L 27 10.5 L 13.5 10.5 Z M 12 16.5 L 12 23.25 L 13.5 23.25 L 13.5 16.5 L 27 16.5 L 27 15 L 12 15 Z M 9.75 15 L 0 15 L 0 16.5 L 8.25 16.5 L 8.25 23.25 L 9.75 23.25 Z M 9.75 10.5 L 9.75 3.75 L 8.25 3.75 L 8.25 10.5 L 0 10.5 L 0 12 L 9.75 12 Z M 9.75 10.5 "/>
<path fill-rule="nonzero" fill="rgb(82.351685%, 6.274414%, 20.391846%)" fill-opacity="1" d="M 12 3.75 L 9.75 3.75 L 9.75 12 L 0 12 L 0 15 L 9.75 15 L 9.75 23.25 L 12 23.25 L 12 15 L 27 15 L 27 12 L 12 12 Z M 12 3.75 "/>
<path fill-rule="nonzero" fill="rgb(0%, 32.548523%, 64.704895%)" fill-opacity="1" d="M 13.5 16.5 L 13.5 23.25 L 24 23.25 C 25.65625 23.25 27 21.90625 27 20.25 L 27 16.5 Z M 0 16.5 L 0 20.25 C 0 21.90625 1.34375 23.25 3 23.25 L 8.25 23.25 L 8.25 16.5 Z M 8.25 3.75 L 3 3.75 C 1.34375 3.75 0 5.09375 0 6.75 L 0 10.5 L 8.25 10.5 Z M 24 3.75 L 13.5 3.75 L 13.5 10.5 L 27 10.5 L 27 6.75 C 27 5.09375 25.65625 3.75 24 3.75 Z M 24 3.75 "/>
</svg>