<svg xmlns="http://www.w3.org/2000/svg" xmlns:xlink="http://www.w3.org/1999/xlink" viewBox="0 0 27 27">
<path fill-rule="nonzero" fill="rgb(93.331909%, 93.331909%, 93.331909%)" fill-opacity="1" d="M 27 20.25 C 27 21.90625 25.65625 23.25 24 23.25 L 3 23.25 C 1.34375 23.25 0 21.90625 0 20.25 L 0 6.75 C 0 5.09375 1.34375 3.75 3 3.75 L 24 3.75 C 25.65625 3.75 27 5.09375 27 6.75 Z M 27 20.25 "/>
<path fill-rule="nonzero" fill="rgb(80.783081%, 10.195923%, 14.117432%)" fill-opacity="1" d="M 7.792969 15.941406 C 7.792969 15.941406 7.539062 16.703125 7.601562 17.460938 C 7.667969 18.222656 9.441406 18.160156 9.824219 18.097656 C 10.203125 18.03125 10.457031 18.03125 10.203125 18.351562 C 9.949219 18.667969 9.632812 19.175781 9.695312 19.746094 C 9.757812 20.316406 8.933594 19.933594 8.683594 19.363281 C 8.429688 18.792969 8.175781 18.792969 7.730469 18.539062 C 7.285156 18.285156 6.855469 17.648438 6.589844 17.273438 C 6.273438 16.828125 6.082031 16.511719 7.792969 15.941406 Z M 19.207031 15.941406 C 19.207031 15.941406 19.460938 16.703125 19.398438 17.460938 C 19.335938 18.222656 17.558594 18.160156 17.175781 18.097656 C 16.796875 18.03125 16.542969 18.03125 16.796875 18.351562 C 17.050781 18.667969 17.367188 19.175781 17.304688 19.746094 C 17.242188 20.316406 18.066406 19.933594 18.320312 19.363281 C 18.574219 18.792969 18.828125 18.792969 19.269531 18.539062 C 19.714844 18.285156 20.144531 17.648438 20.410156 17.273438 C 20.726562 16.828125 20.917969 16.511719 19.207031 15.941406 Z M 19.207031 15.941406 "/>
<path fill-rule="nonzero" fill="rgb(96.469116%, 89.4104%, 74.508667%)" fill-opacity="1" d="M 20.285156 17.144531 C 19.585938 17.460938 18.140625 17.671875 17.558594 17.714844 C 16.789062 17.773438 16.671875 17.96875 16.671875 18.160156 C 16.671875 18.351562 17.496094 18.476562 17.9375 18.414062 C 18.382812 18.351562 18.890625 18.476562 18.128906 18.921875 C 17.367188 19.363281 16.351562 20 15.402344 20.253906 C 14.449219 20.507812 13.5 20.441406 13.5 20.441406 C 13.5 20.441406 12.550781 20.507812 11.597656 20.253906 C 10.644531 20 9.632812 19.363281 8.871094 18.921875 C 8.109375 18.476562 8.617188 18.351562 9.0625 18.414062 C 9.503906 18.476562 10.328125 18.351562 10.328125 18.160156 C 10.328125 17.96875 10.210938 17.773438 9.441406 17.714844 C 8.859375 17.671875 7.410156 17.460938 6.714844 17.144531 C 6.421875 17.011719 6.335938 16.765625 6.335938 16.765625 C 6.335938 16.765625 6.335938 16.890625 6.398438 17.273438 C 6.460938 17.652344 6.777344 17.90625 6.84375 18.285156 C 6.90625 18.664062 6.90625 18.855469 7.222656 18.921875 C 7.539062 18.984375 8.238281 19.046875 8.238281 19.046875 C 8.238281 19.046875 8.238281 19.617188 8.109375 19.933594 C 7.984375 20.253906 8.429688 20.824219 10.140625 21.457031 C 11.851562 22.09375 12.613281 22.027344 13.5 22.027344 C 14.386719 22.027344 15.148438 22.09375 16.859375 21.457031 C 18.574219 20.824219 19.015625 20.25 18.890625 19.933594 C 18.761719 19.617188 18.761719 19.046875 18.761719 19.046875 C 18.761719 19.046875 19.460938 18.984375 19.777344 18.921875 C 20.09375 18.855469 20.09375 18.664062 20.15625 18.285156 C 20.222656 17.90625 20.539062 17.652344 20.601562 17.273438 C 20.664062 16.890625 20.664062 16.765625 20.664062 16.765625 C 20.664062 16.765625 20.578125 17.011719 20.285156 17.144531 Z M 20.285156 17.144531 "/>
<path fill-rule="nonzero" fill="rgb(73.724365%, 67.842102%, 58.822632%)" fill-opacity="1" d="M 10.710938 20.507812 C 11.414062 20.742188 14.335938 21.355469 16.097656 20.570312 C 16.671875 20.316406 16.859375 21.074219 16.351562 21.269531 C 15.953125 21.417969 14.386719 21.648438 13.691406 21.648438 C 12.992188 21.648438 11.078125 21.425781 10.519531 21.203125 C 10.203125 21.074219 10.328125 20.378906 10.710938 20.507812 Z M 10.710938 20.507812 "/>
<path fill-rule="nonzero" fill="rgb(39.99939%, 39.99939%, 39.99939%)" fill-opacity="1" d="M 9.441406 7.886719 L 17.558594 7.886719 L 17.558594 9.027344 L 9.441406 9.027344 Z M 9.441406 7.886719 "/>
<path fill-rule="nonzero" fill="rgb(80.783081%, 10.195923%, 14.117432%)" fill-opacity="1" d="M 13.5 8.648438 L 9.441406 8.648438 L 9.441406 13.46875 C 9.441406 15.878906 10.964844 16.828125 11.722656 17.398438 C 12.484375 17.96875 14.515625 17.96875 15.273438 17.398438 C 16.035156 16.828125 17.558594 15.878906 17.558594 13.46875 L 17.558594 8.648438 Z M 13.5 8.648438 "/>
<path fill-rule="nonzero" fill="rgb(7.450867%, 32.548523%, 70.587158%)" fill-opacity="1" d="M 9.542969 14.484375 C 9.894531 16.160156 11.082031 16.917969 11.722656 17.398438 C 12.484375 17.96875 13.5 18.351562 13.5 18.351562 C 13.5 18.351562 14.515625 17.96875 15.273438 17.398438 C 15.917969 16.917969 17.105469 16.164062 17.457031 14.484375 Z M 9.441406 8.648438 L 17.558594 8.648438 L 17.558594 11.628906 L 9.441406 11.628906 Z M 9.441406 8.648438 "/>
<path fill-rule="nonzero" fill="rgb(91.763306%, 80.783081%, 13.725281%)" fill-opacity="1" d="M 11.089844 9.726562 C 11.089844 9.726562 11.152344 9.601562 11.089844 9.410156 C 11.035156 9.238281 10.773438 9.09375 10.773438 9.09375 C 10.773438 9.09375 10.511719 9.238281 10.457031 9.410156 C 10.394531 9.597656 10.457031 9.726562 10.457031 9.726562 C 10.140625 9.601562 10.011719 9.917969 10.011719 10.105469 C 10.011719 10.296875 10.265625 10.421875 10.265625 10.421875 C 10.265625 10.421875 10.265625 10.171875 10.394531 10.171875 C 10.519531 10.171875 10.519531 10.421875 10.519531 10.421875 C 10.265625 10.421875 10.519531 10.613281 10.519531 10.613281 L 10.332031 10.929688 L 10.585938 10.867188 C 10.519531 11.058594 10.773438 11.246094 10.773438 11.246094 C 10.773438 11.246094 11.027344 11.058594 10.964844 10.867188 L 11.21875 10.929688 L 11.027344 10.613281 C 11.027344 10.613281 11.28125 10.421875 11.027344 10.421875 C 11.027344 10.421875 11.027344 10.171875 11.15625 10.171875 C 11.28125 10.171875 11.28125 10.421875 11.28125 10.421875 C 11.28125 10.421875 11.535156 10.296875 11.535156 10.105469 C 11.535156 9.917969 11.40625 9.597656 11.089844 9.726562 Z M 16.542969 9.726562 C 16.542969 9.726562 16.605469 9.601562 16.542969 9.410156 C 16.488281 9.238281 16.226562 9.09375 16.226562 9.09375 C 16.226562 9.09375 15.964844 9.238281 15.910156 9.410156 C 15.847656 9.597656 15.910156 9.726562 15.910156 9.726562 C 15.59375 9.601562 15.464844 9.917969 15.464844 10.105469 C 15.464844 10.296875 15.71875 10.421875 15.71875 10.421875 C 15.71875 10.421875 15.71875 10.171875 15.847656 10.171875 C 15.972656 10.171875 15.972656 10.421875 15.972656 10.421875 C 15.71875 10.421875 15.972656 10.613281 15.972656 10.613281 L 15.78125 10.929688 L 16.035156 10.867188 C 15.972656 11.058594 16.226562 11.246094 16.226562 11.246094 C 16.226562 11.246094 16.480469 11.058594 16.417969 10.867188 L 16.671875 10.929688 L 16.480469 10.613281 C 16.480469 10.613281 16.734375 10.421875 16.480469 10.421875 C 16.480469 10.421875 16.480469 10.171875 16.605469 10.171875 C 16.734375 10.171875 16.734375 10.421875 16.734375 10.421875 C 16.734375 10.421875 16.988281 10.296875 16.988281 10.105469 C 16.988281 9.917969 16.859375 9.597656 16.542969 9.726562 Z M 13.816406 9.726562 C 13.816406 9.726562 13.878906 9.601562 13.816406 9.410156 C 13.761719 9.238281 13.5 9.09375 13.5 9.09375 C 13.5 9.09375 13.238281 9.238281 13.183594 9.410156 C 13.121094 9.597656 13.183594 9.726562 13.183594 9.726562 C 12.867188 9.601562 12.738281 9.917969 12.738281 10.105469 C 12.738281 10.296875 12.992188 10.421875 12.992188 10.421875 C 12.992188 10.421875 12.992188 10.171875 13.117188 10.171875 C 13.246094 10.171875 13.246094 10.421875 13.246094 10.421875 C 12.992188 10.421875 13.246094 10.613281 13.246094 10.613281 L 13.054688 10.929688 L 13.308594 10.867188 C 13.246094 11.058594 13.5 11.25 13.5 11.25 C 13.5 11.25 13.753906 11.058594 13.691406 10.867188 L 13.941406 10.933594 L 13.753906 10.617188 C 13.753906 10.617188 14.007812 10.425781 13.753906 10.425781 C 13.753906 10.425781 13.753906 10.171875 13.878906 10.171875 C 14.007812 10.171875 14.007812 10.425781 14.007812 10.425781 C 14.007812 10.425781 14.261719 10.300781 14.261719 10.109375 C 14.261719 9.917969 14.132812 9.597656 13.816406 9.726562 Z M 13.816406 9.726562 "/>
<path fill-rule="nonzero" fill="rgb(100%, 100%, 100%)" fill-opacity="1" d="M 14.199219 13.085938 L 14.515625 12.644531 L 13.625 12.898438 L 13.878906 12.070312 L 13.5 12.328125 L 13.121094 12.070312 L 13.375 12.898438 L 12.484375 12.644531 L 12.800781 13.085938 L 12.484375 13.46875 L 13.375 13.152344 L 13.054688 14.039062 L 13.5 13.785156 L 13.945312 14.039062 L 13.625 13.152344 L 14.515625 13.46875 Z M 14.199219 13.085938 "/>
<path fill-rule="nonzero" fill="rgb(91.763306%, 80.783081%, 13.725281%)" fill-opacity="1" d="M 14.199219 16.511719 C 14.199219 16.511719 14.007812 16.511719 14.007812 16.703125 C 14.007812 16.894531 14.199219 16.957031 14.199219 16.957031 C 14.199219 16.957031 14.070312 17.144531 13.878906 17.144531 C 13.691406 17.144531 13.625 16.957031 13.625 16.957031 C 13.625 16.957031 13.878906 16.894531 13.878906 16.765625 C 13.878906 16.636719 13.691406 16.574219 13.691406 16.574219 C 13.691406 16.574219 13.691406 16.257812 13.5 16.257812 C 13.308594 16.257812 13.308594 16.574219 13.308594 16.574219 C 13.308594 16.574219 13.121094 16.636719 13.121094 16.765625 C 13.121094 16.894531 13.375 16.957031 13.375 16.957031 C 13.375 16.957031 13.308594 17.144531 13.121094 17.144531 C 12.929688 17.144531 12.804688 16.957031 12.804688 16.957031 C 12.804688 16.957031 12.992188 16.894531 12.992188 16.703125 C 12.992188 16.511719 12.804688 16.511719 12.804688 16.511719 C 12.804688 16.257812 12.550781 16.382812 12.550781 16.382812 L 12.738281 17.714844 L 14.261719 17.714844 L 14.449219 16.382812 C 14.449219 16.382812 14.199219 16.257812 14.199219 16.511719 Z M 12.738281 14.859375 C 12.738281 14.859375 12.550781 14.859375 12.550781 15.054688 C 12.550781 15.242188 12.738281 15.308594 12.738281 15.308594 C 12.738281 15.308594 12.613281 15.496094 12.421875 15.496094 C 12.234375 15.496094 12.167969 15.308594 12.167969 15.308594 C 12.167969 15.308594 12.421875 15.242188 12.421875 15.117188 C 12.421875 14.988281 12.234375 14.925781 12.234375 14.925781 C 12.234375 14.925781 12.234375 14.609375 12.042969 14.609375 C 11.851562 14.609375 11.851562 14.925781 11.851562 14.925781 C 11.851562 14.925781 11.660156 14.988281 11.660156 15.117188 C 11.660156 15.242188 11.914062 15.308594 11.914062 15.308594 C 11.914062 15.308594 11.851562 15.496094 11.660156 15.496094 C 11.472656 15.496094 11.34375 15.308594 11.34375 15.308594 C 11.34375 15.308594 11.535156 15.242188 11.535156 15.054688 C 11.535156 14.859375 11.34375 14.859375 11.34375 14.859375 C 11.34375 14.609375 11.089844 14.734375 11.089844 14.734375 L 11.28125 16.066406 L 12.804688 16.066406 L 12.992188 14.734375 C 12.992188 14.734375 12.738281 14.609375 12.738281 14.859375 Z M 15.65625 14.859375 C 15.65625 14.859375 15.464844 14.859375 15.464844 15.054688 C 15.464844 15.242188 15.65625 15.308594 15.65625 15.308594 C 15.65625 15.308594 15.53125 15.496094 15.339844 15.496094 C 15.148438 15.496094 15.085938 15.308594 15.085938 15.308594 C 15.085938 15.308594 15.339844 15.242188 15.339844 15.117188 C 15.339844 14.988281 15.148438 14.925781 15.148438 14.925781 C 15.148438 14.925781 15.148438 14.609375 14.957031 14.609375 C 14.769531 14.609375 14.769531 14.925781 14.769531 14.925781 C 14.769531 14.925781 14.578125 14.988281 14.578125 15.117188 C 14.578125 15.242188 14.832031 15.308594 14.832031 15.308594 C 14.832031 15.308594 14.769531 15.496094 14.578125 15.496094 C 14.386719 15.496094 14.261719 15.308594 14.261719 15.308594 C 14.261719 15.308594 14.449219 15.242188 14.449219 15.054688 C 14.449219 14.859375 14.261719 14.859375 14.261719 14.859375 C 14.261719 14.609375 14.007812 14.734375 14.007812 14.734375 L 14.199219 16.066406 L 15.71875 16.066406 L 15.910156 14.734375 C 15.910156 14.734375 15.65625 14.609375 15.65625 14.859375 Z M 18.382812 5.605469 L 18.253906 5.984375 L 18.003906 5.921875 L 18.066406 5.542969 L 17.429688 5.414062 L 17.363281 5.816406 L 17.113281 5.746094 L 17.113281 5.289062 L 16.480469 5.226562 L 16.425781 5.621094 L 15.972656 5.542969 L 15.972656 5.796875 L 15.847656 5.796875 L 15.847656 5.476562 L 15.53125 5.476562 L 15.53125 5.730469 L 15.339844 5.730469 L 15.339844 5.414062 L 15.023438 5.414062 L 15.023438 5.667969 L 14.769531 5.605469 L 14.769531 5.035156 L 14.132812 4.972656 L 14.132812 5.351562 L 13.816406 5.351562 L 13.816406 4.972656 L 13.183594 4.972656 L 13.183594 5.351562 L 12.863281 5.351562 L 12.863281 4.972656 L 12.234375 5.035156 L 12.234375 5.605469 L 11.976562 5.667969 L 11.976562 5.414062 L 11.660156 5.414062 L 11.660156 5.730469 L 11.472656 5.730469 L 11.472656 5.476562 L 11.15625 5.476562 L 11.15625 5.796875 L 11.027344 5.796875 L 11.027344 5.542969 L 10.574219 5.621094 L 10.519531 5.226562 L 9.886719 5.289062 L 9.886719 5.746094 L 9.636719 5.816406 L 9.570312 5.414062 L 8.933594 5.542969 L 8.996094 5.921875 L 8.742188 5.984375 L 8.617188 5.605469 L 7.984375 5.796875 L 8.300781 6.621094 L 8.492188 6.554688 L 9.441406 8.648438 C 9.441406 8.648438 10.519531 8.332031 11.535156 8.203125 C 12.550781 8.078125 13.5 8.078125 13.5 8.078125 C 13.5 8.078125 14.449219 8.078125 15.464844 8.203125 C 16.480469 8.332031 17.558594 8.648438 17.558594 8.648438 L 18.507812 6.554688 L 18.699219 6.621094 L 19.015625 5.796875 Z M 18.382812 5.605469 "/>
<path fill-rule="nonzero" fill="rgb(36.862183%, 32.156372%, 5.097961%)" fill-opacity="1" d="M 13.5 5.984375 C 13.359375 5.984375 13.246094 6.097656 13.246094 6.238281 L 13.246094 6.871094 L 13.753906 6.871094 L 13.753906 6.238281 C 13.753906 6.097656 13.640625 5.984375 13.5 5.984375 Z M 9.660156 6.378906 C 9.523438 6.414062 9.441406 6.554688 9.476562 6.691406 L 9.636719 7.304688 L 10.128906 7.175781 L 9.96875 6.5625 C 9.933594 6.425781 9.792969 6.34375 9.660156 6.378906 Z M 17.339844 6.378906 C 17.476562 6.414062 17.558594 6.554688 17.523438 6.691406 L 17.363281 7.304688 L 16.871094 7.175781 L 17.03125 6.5625 C 17.066406 6.425781 17.203125 6.34375 17.339844 6.378906 Z M 17.339844 6.378906 "/>
</svg>