<svg xmlns="http://www.w3.org/2000/svg" xmlns:xlink="http://www.w3.org/1999/xlink" viewBox="0 0 27 27">
<path fill-rule="nonzero" fill="rgb(81.175232%, 10.588074%, 16.862488%)" fill-opacity="1" d="M 24 3.75 L 3 3.75 C 2.847656 3.75 2.695312 3.761719 2.546875 3.785156 L 2.542969 5.097656 L 0.496094 5.097656 C 0.183594 5.570312 0 6.140625 0 6.75 L 0 20.25 C 0 21.90625 1.34375 23.25 3 23.25 L 24 23.25 C 25.65625 23.25 27 21.90625 27 20.25 L 27 6.75 C 27 5.09375 25.65625 3.75 24 3.75 Z M 24 3.75 "/>
<path fill-rule="nonzero" fill="rgb(0%, 0%, 0%)" fill-opacity="1" d="M 16.9375 9.4375 L 16.9375 16.238281 C 16.9375 16.71875 17.046875 17.375 17.921875 17.78125 C 18.664062 18.128906 19.777344 18.527344 20.28125 18.847656 C 20.5625 19.023438 21 19.324219 21 19.324219 C 21 19.324219 21.4375 19.023438 21.71875 18.847656 C 22.222656 18.527344 23.253906 18.128906 24 17.78125 C 24.875 17.375 24.984375 16.71875 24.984375 16.238281 L 24.984375 9.4375 Z M 16.9375 9.4375 "/>
<path fill-rule="nonzero" fill="rgb(18.03894%, 56.077576%, 13.33313%)" fill-opacity="1" d="M 17.332031 16.089844 C 17.335938 16.535156 17.449219 17.203125 18.25 17.574219 C 18.949219 17.898438 19.855469 18.273438 20.328125 18.570312 C 20.589844 18.738281 21 19.019531 21 19.019531 C 21 19.019531 21.410156 18.738281 21.671875 18.570312 C 22.144531 18.273438 23.054688 17.898438 23.75 17.574219 C 24.550781 17.203125 24.664062 16.535156 24.671875 16.089844 Z M 17.332031 16.089844 "/>
<path fill-rule="nonzero" fill="rgb(100%, 100%, 100%)" fill-opacity="1" d="M 17.332031 9.828125 L 24.671875 9.828125 L 24.671875 16.160156 L 17.332031 16.160156 Z M 17.332031 9.828125 "/>
<path fill-rule="nonzero" fill="rgb(81.175232%, 10.588074%, 16.862488%)" fill-opacity="1" d="M 23.898438 15.28125 C 23.84375 14.988281 23.898438 14.539062 23.816406 14.402344 C 23.738281 14.269531 22.992188 14.003906 22.460938 14.058594 C 21.929688 14.109375 22.300781 13.394531 22.671875 13.207031 C 23.046875 13.019531 23.390625 12.859375 23.445312 12.648438 C 23.496094 12.4375 23.3125 12.277344 22.992188 12.328125 C 22.671875 12.382812 22.488281 12.382812 22.300781 12.570312 C 22.113281 12.753906 22.085938 12.542969 22.007812 12.328125 C 21.929688 12.117188 22.058594 12.035156 22.085938 11.824219 C 22.113281 11.613281 22.058594 11.027344 21.902344 10.785156 C 21.742188 10.546875 21.824219 10.386719 21.558594 10.253906 C 21.292969 10.121094 21 10.015625 21 10.015625 C 21 10.015625 20.710938 10.121094 20.441406 10.253906 C 20.175781 10.386719 20.257812 10.546875 20.097656 10.785156 C 19.9375 11.027344 19.882812 11.613281 19.910156 11.824219 C 19.9375 12.035156 20.070312 12.117188 19.992188 12.328125 C 19.910156 12.542969 19.882812 12.753906 19.699219 12.570312 C 19.511719 12.382812 19.324219 12.382812 19.007812 12.328125 C 18.6875 12.277344 18.5 12.4375 18.554688 12.648438 C 18.605469 12.859375 18.953125 13.019531 19.324219 13.207031 C 19.699219 13.394531 20.070312 14.109375 19.539062 14.058594 C 19.003906 14.003906 18.261719 14.269531 18.179688 14.402344 C 18.101562 14.539062 18.15625 14.988281 18.101562 15.28125 C 18.046875 15.574219 17.914062 15.8125 18.046875 15.761719 C 18.183594 15.707031 18.792969 15.496094 19.085938 15.28125 C 19.378906 15.070312 19.726562 16.132812 19.59375 16.398438 C 19.457031 16.664062 19.433594 16.851562 19.21875 16.746094 C 19.007812 16.636719 18.6875 16.796875 18.582031 17.011719 C 18.476562 17.222656 18.714844 17.355469 18.980469 17.542969 C 19.246094 17.726562 19.566406 17.355469 19.699219 17.167969 C 19.832031 16.984375 21 16.398438 21 16.398438 C 21 16.398438 22.167969 16.984375 22.300781 17.167969 C 22.433594 17.355469 22.753906 17.726562 23.019531 17.542969 C 23.285156 17.355469 23.523438 17.222656 23.417969 17.011719 C 23.308594 16.796875 22.992188 16.636719 22.777344 16.746094 C 22.566406 16.851562 22.539062 16.664062 22.40625 16.398438 C 22.273438 16.132812 22.617188 15.070312 22.910156 15.28125 C 23.203125 15.496094 23.816406 15.707031 23.949219 15.761719 C 24.082031 15.8125 23.949219 15.574219 23.898438 15.28125 Z M 23.898438 15.28125 "/>
<path fill-rule="nonzero" fill="rgb(100%, 87.841797%, 0%)" fill-opacity="1" d="M 23.148438 13.792969 C 23.148438 13.792969 23.230469 13.976562 23.335938 13.976562 C 23.441406 13.976562 23.628906 13.738281 23.46875 13.554688 C 23.308594 13.367188 23.175781 13.289062 23.257812 13.128906 C 23.335938 12.96875 23.125 12.703125 23.125 12.703125 C 23.015625 12.863281 22.722656 13.101562 22.21875 12.78125 C 21.714844 12.464844 21.3125 12.410156 21.234375 12.597656 L 20.765625 12.597656 C 20.6875 12.410156 20.285156 12.464844 19.78125 12.78125 C 19.273438 13.101562 18.980469 12.863281 18.875 12.703125 C 18.875 12.703125 18.664062 12.96875 18.742188 13.128906 C 18.824219 13.289062 18.6875 13.367188 18.53125 13.554688 C 18.371094 13.738281 18.558594 13.976562 18.664062 13.976562 C 18.769531 13.976562 18.851562 13.792969 18.851562 13.792969 C 18.851562 13.792969 19.195312 14.085938 19.167969 14.484375 C 19.140625 14.882812 18.609375 15.253906 18.609375 15.253906 C 18.769531 15.441406 18.769531 15.707031 18.929688 16.183594 C 19.089844 16.664062 19.648438 16.53125 19.648438 16.53125 C 19.675781 16.824219 20.179688 17.117188 20.367188 17.117188 C 20.550781 17.117188 20.605469 17.277344 20.605469 17.277344 C 20.605469 17.277344 20.390625 17.410156 20.5 17.515625 C 20.597656 17.613281 20.953125 17.480469 21 17.464844 C 21.042969 17.480469 21.402344 17.613281 21.5 17.515625 C 21.605469 17.410156 21.394531 17.277344 21.394531 17.277344 C 21.394531 17.277344 21.445312 17.117188 21.632812 17.117188 C 21.816406 17.117188 22.324219 16.824219 22.351562 16.53125 C 22.351562 16.53125 22.910156 16.664062 23.070312 16.183594 C 23.226562 15.707031 23.226562 15.441406 23.386719 15.253906 C 23.386719 15.253906 22.855469 14.882812 22.828125 14.484375 C 22.804688 14.085938 23.148438 13.792969 23.148438 13.792969 Z M 23.148438 13.792969 "/>
<path fill-rule="nonzero" fill="rgb(39.215088%, 70.587158%, 81.959534%)" fill-opacity="1" d="M 23.472656 13.578125 C 23.3125 13.394531 23.179688 13.3125 23.261719 13.152344 C 23.339844 12.996094 23.152344 12.890625 23.152344 12.890625 C 23.046875 13.046875 22.601562 13.277344 22.222656 13.046875 C 21.824219 12.808594 21.71875 12.863281 21.613281 12.808594 C 21.613281 12.808594 21.675781 12.992188 21.53125 13.046875 C 21.320312 13.128906 21.238281 12.941406 21.238281 12.941406 L 20.761719 12.941406 C 20.761719 12.941406 20.679688 13.128906 20.46875 13.046875 C 20.324219 12.992188 20.390625 12.808594 20.390625 12.808594 C 20.28125 12.863281 20.175781 12.808594 19.777344 13.046875 C 19.398438 13.277344 18.953125 13.046875 18.847656 12.890625 C 18.847656 12.890625 18.660156 12.996094 18.742188 13.152344 C 18.820312 13.3125 18.6875 13.394531 18.527344 13.578125 C 18.367188 13.765625 18.605469 13.605469 18.714844 13.605469 C 18.820312 13.605469 19.085938 13.792969 19.085938 13.792969 C 19.085938 13.792969 19.378906 14.003906 19.351562 14.511719 C 19.332031 14.910156 18.738281 15.308594 18.738281 15.308594 C 18.898438 15.496094 19.058594 16.160156 19.058594 16.160156 C 19.21875 16.507812 22.671875 14.910156 22.648438 14.511719 C 22.621094 14.003906 22.914062 13.792969 22.914062 13.792969 C 22.914062 13.792969 23.179688 13.605469 23.285156 13.605469 C 23.394531 13.605469 23.632812 13.765625 23.472656 13.578125 Z M 23.472656 13.578125 "/>
<path fill-rule="nonzero" fill="rgb(79.998779%, 79.998779%, 79.998779%)" fill-opacity="1" d="M 22.648438 14.511719 C 22.644531 14.441406 22.648438 14.375 22.65625 14.316406 C 22.402344 14.332031 22.152344 14.199219 22.0625 14.085938 C 21.957031 13.953125 21.824219 13.953125 21.585938 14.085938 C 21.347656 14.21875 21.347656 14.589844 21.347656 14.589844 L 21.347656 14.644531 L 22.808594 15.601562 L 23.230469 15.347656 C 23.242188 15.332031 23.25 15.320312 23.261719 15.308594 C 23.261719 15.308594 22.671875 14.910156 22.648438 14.511719 Z M 22.648438 14.511719 "/>
<path fill-rule="nonzero" fill="rgb(89.4104%, 79.606628%, 36.862183%)" fill-opacity="1" d="M 19.246094 13.421875 L 19.429688 15.386719 L 20.28125 16.027344 L 21.160156 15.308594 L 20.972656 14.75 L 20.867188 14.03125 L 20.546875 13.820312 L 20.28125 13.289062 L 19.9375 13.261719 L 19.75 13.394531 C 19.75 13.394531 19.589844 13.285156 19.589844 13.3125 C 19.589844 13.339844 19.457031 13.472656 19.457031 13.472656 Z M 19.246094 13.421875 "/>
<path fill-rule="nonzero" fill="rgb(0%, 0%, 0%)" fill-opacity="1" d="M 20.734375 13.5 L 21.054688 13.421875 L 21.503906 14.21875 L 21.957031 14.164062 L 22.039062 14.378906 L 20.8125 14.777344 L 20.8125 14.457031 L 20.867188 14.351562 Z M 20.734375 13.5 "/>
<path fill-rule="nonzero" fill="rgb(0%, 0%, 0%)" fill-opacity="1" d="M 19.882812 13.765625 L 20.015625 15.679688 L 20.148438 15.601562 C 20.148438 15.601562 19.964844 14.03125 19.988281 14.058594 C 20.015625 14.085938 20.390625 15.414062 20.390625 15.414062 L 20.546875 15.46875 L 20.097656 13.820312 L 20.8125 15.070312 L 20.945312 14.75 L 20.203125 13.738281 L 19.988281 13.472656 Z M 19.882812 13.765625 "/>
<path fill-rule="nonzero" fill="rgb(62.35199%, 35.293579%, 16.862488%)" fill-opacity="1" d="M 20.785156 14.589844 L 21.984375 14.324219 L 22.515625 15.121094 L 22.304688 15.734375 C 22.304688 15.734375 21.398438 16.183594 21.375 16.210938 C 21.347656 16.238281 20.496094 16.132812 20.496094 16.132812 Z M 20.785156 14.589844 "/>
<path fill-rule="nonzero" fill="rgb(79.998779%, 79.998779%, 79.998779%)" fill-opacity="1" d="M 22.171875 16.292969 C 22.171875 16.292969 22.222656 16.132812 22.382812 16.160156 C 22.542969 16.1875 22.488281 16.371094 22.488281 16.371094 C 22.488281 16.371094 22.78125 16.507812 22.941406 16.160156 C 22.953125 16.144531 22.960938 16.125 22.96875 16.105469 C 23.0625 15.820312 23.101562 15.496094 23.261719 15.308594 C 23.261719 15.308594 23.246094 15.300781 23.222656 15.28125 C 23.078125 15.335938 22.96875 15.414062 22.96875 15.414062 C 22.96875 15.414062 22.96875 15.175781 22.703125 15.121094 C 22.4375 15.070312 22.171875 15.46875 22.171875 15.46875 C 22.0625 15.148438 21.636719 15.46875 21.453125 15.761719 C 21.265625 16.054688 20.8125 15.972656 20.8125 15.972656 L 20.734375 15.816406 C 20.734375 15.816406 20.761719 15.550781 20.546875 15.414062 C 20.335938 15.28125 20.015625 15.601562 20.015625 15.601562 C 20.09375 15.253906 19.722656 15.308594 19.644531 15.363281 C 19.5625 15.414062 19.429688 15.230469 19.246094 15.175781 C 19.105469 15.136719 18.980469 15.441406 18.917969 15.695312 C 18.953125 15.828125 18.988281 15.972656 19.03125 16.109375 C 19.039062 16.128906 19.046875 16.144531 19.058594 16.160156 C 19.21875 16.507812 19.511719 16.371094 19.511719 16.371094 C 19.511719 16.371094 19.457031 16.1875 19.617188 16.160156 C 19.777344 16.132812 19.828125 16.292969 19.828125 16.292969 C 19.828125 16.292969 20.015625 16.242188 20.070312 16.398438 C 20.121094 16.558594 19.882812 16.613281 19.882812 16.613281 C 19.855469 16.664062 20.015625 16.90625 20.570312 17.03125 C 20.675781 17.105469 20.734375 17.25 20.734375 17.25 L 20.734375 17.488281 L 21.265625 17.488281 L 21.265625 17.25 C 21.265625 17.25 21.324219 17.105469 21.429688 17.027344 C 21.984375 16.902344 22.144531 16.664062 22.117188 16.613281 C 22.117188 16.613281 21.878906 16.558594 21.929688 16.398438 C 21.984375 16.238281 22.171875 16.292969 22.171875 16.292969 Z M 22.171875 16.292969 "/>
<path fill-rule="nonzero" fill="rgb(100%, 100%, 100%)" fill-opacity="1" d="M 20.628906 10.546875 L 20.894531 10.679688 L 20.839844 10.789062 L 20.574219 10.734375 Z M 21.347656 10.546875 L 21.082031 10.679688 L 21.132812 10.789062 L 21.398438 10.734375 Z M 21.347656 10.546875 "/>
<path fill-rule="nonzero" fill="rgb(0%, 0%, 0%)" fill-opacity="1" d="M 21.558594 10.894531 L 21.609375 10.707031 L 21.371094 10.945312 L 21.265625 11.078125 L 21.132812 10.945312 L 21 11.078125 L 20.867188 10.945312 L 20.734375 11.078125 L 20.628906 10.945312 L 20.390625 10.707031 L 20.441406 10.894531 L 20.175781 11.078125 L 20.414062 10.972656 L 20.546875 11.027344 L 20.679688 11.160156 L 20.867188 11.105469 L 21 11.265625 L 21.132812 11.105469 L 21.320312 11.160156 L 21.453125 11.027344 L 21.585938 10.972656 L 21.824219 11.078125 Z M 21.558594 10.894531 "/>
<path fill-rule="nonzero" fill="rgb(0%, 14.117432%, 49.01886%)" fill-opacity="1" d="M 14.25 13.5 L 14.25 3.75 L 3 3.75 C 2.761719 3.75 2.546875 3.785156 2.546875 3.785156 L 2.542969 5.097656 L 0.496094 5.097656 C 0.496094 5.097656 0.464844 5.140625 0.402344 5.25 C 0.144531 5.691406 0 6.203125 0 6.75 L 0 13.5 Z M 14.25 13.5 "/>
<path fill-rule="nonzero" fill="rgb(93.331909%, 93.331909%, 93.331909%)" fill-opacity="1" d="M 14.25 3.75 L 12.5 3.75 L 9 6.203125 L 9 3.75 L 5.25 3.75 L 5.25 5.675781 L 2.546875 3.785156 C 2.085938 3.855469 1.65625 4.027344 1.292969 4.28125 L 4.820312 6.75 L 3.515625 6.75 L 0.726562 4.792969 C 0.644531 4.890625 0.566406 4.988281 0.496094 5.097656 L 2.859375 6.75 L 0 6.75 L 0 10.5 L 2.914062 10.5 L 0 12.574219 L 0 13.5 L 2.5 13.5 L 5.25 11.574219 L 5.25 13.5 L 9 13.5 L 9 11.046875 L 12.5 13.5 L 14.25 13.5 L 14.25 11.976562 L 12.140625 10.5 L 14.25 10.5 L 14.25 6.75 L 12.140625 6.75 L 14.25 5.273438 Z M 14.25 3.75 "/>
<path fill-rule="nonzero" fill="rgb(81.175232%, 10.588074%, 16.862488%)" fill-opacity="1" d="M 8.25 3.75 L 6 3.75 L 6 7.5 L 0 7.5 L 0 9.75 L 6 9.75 L 6 13.5 L 8.25 13.5 L 8.25 9.75 L 14.25 9.75 L 14.25 7.5 L 8.25 7.5 Z M 8.25 3.75 "/>
<path fill-rule="nonzero" fill="rgb(81.175232%, 10.588074%, 16.862488%)" fill-opacity="1" d="M 14.25 3.75 L 13.152344 3.75 L 9 6.660156 L 9 6.75 L 10.179688 6.75 L 14.25 3.898438 Z M 1.292969 4.28125 C 1.082031 4.429688 0.890625 4.601562 0.726562 4.792969 L 3.515625 6.75 L 4.820312 6.75 Z M 4.828125 10.5 L 0.550781 13.5 L 1.847656 13.5 L 5.25 11.117188 L 5.25 10.5 Z M 14.25 13.351562 L 14.25 12.4375 L 11.484375 10.5 L 10.175781 10.5 Z M 14.25 13.351562 "/>
</svg>