<svg xmlns="http://www.w3.org/2000/svg" xmlns:xlink="http://www.w3.org/1999/xlink" viewBox="0 0 27 27">
<path fill-rule="nonzero" fill="rgb(93.331909%, 92.939758%, 92.939758%)" fill-opacity="1" d="M 1.027344 22.507812 L 25.976562 4.492188 C 25.449219 4.03125 24.753906 3.75 24 3.75 L 9.9375 3.75 L 0 11.875 L 0 20.25 C 0 21.152344 0.398438 21.957031 1.027344 22.507812 Z M 1.027344 22.507812 "/>
<path fill-rule="nonzero" fill="rgb(0.392151%, 16.470337%, 52.940369%)" fill-opacity="1" d="M 25.976562 4.492188 L 1.027344 22.507812 C 1.554688 22.96875 2.246094 23.25 3 23.25 L 24 23.25 C 25.65625 23.25 27 21.90625 27 20.25 L 27 6.75 C 27 6.335938 26.914062 5.941406 26.765625 5.582031 C 26.585938 5.160156 26.316406 4.789062 25.976562 4.492188 Z M 25.976562 4.492188 "/>
<path fill-rule="nonzero" fill="rgb(97.647095%, 85.096741%, 5.882263%)" fill-opacity="1" d="M 3 3.75 C 1.34375 3.75 0 5.09375 0 6.75 L 0 11.875 L 9.9375 3.75 Z M 3 3.75 "/>
<path fill-rule="nonzero" fill="rgb(0%, 0%, 0%)" fill-opacity="1" d="M 12.382812 11.921875 L 13.277344 11.40625 L 12.382812 10.886719 C 12.152344 9.003906 10.652344 7.503906 8.765625 7.269531 L 8.25 6.375 L 7.734375 7.269531 C 5.847656 7.503906 4.347656 9 4.117188 10.886719 L 3.222656 11.402344 L 4.117188 11.917969 C 4.347656 13.804688 5.847656 15.304688 7.734375 15.539062 L 8.25 16.433594 L 8.765625 15.539062 C 10.652344 15.304688 12.152344 13.808594 12.382812 11.921875 Z M 8.25 15.035156 C 6.246094 15.035156 4.617188 13.40625 4.617188 11.40625 C 4.617188 9.402344 6.246094 7.773438 8.25 7.773438 C 10.253906 7.773438 11.882812 9.402344 11.882812 11.40625 C 11.882812 13.40625 10.253906 15.035156 8.25 15.035156 Z M 8.25 15.035156 "/>
<path fill-rule="nonzero" fill="rgb(86.273193%, 9.01947%, 11.372375%)" fill-opacity="1" d="M 9.683594 11.40625 L 10.402344 10.160156 L 8.96875 10.160156 L 8.25 8.917969 L 7.53125 10.160156 L 6.097656 10.160156 L 6.816406 11.40625 L 6.097656 12.648438 L 7.53125 12.648438 L 8.25 13.890625 L 8.96875 12.648438 L 10.402344 12.648438 Z M 9.683594 11.40625 "/>
</svg>