<svg xmlns="http://www.w3.org/2000/svg" xmlns:xlink="http://www.w3.org/1999/xlink" viewBox="0 0 27 27">
<path fill-rule="nonzero" fill="rgb(0%, 50.195312%, 0%)" fill-opacity="1" d="M 27 20.25 C 27 21.90625 25.65625 23.25 24 23.25 L 3 23.25 C 1.34375 23.25 0 21.90625 0 20.25 L 0 6.75 C 0 5.09375 1.34375 3.75 3 3.75 L 24 3.75 C 25.65625 3.75 27 5.09375 27 6.75 Z M 27 20.25 "/>
<path fill-rule="nonzero" fill="rgb(100%, 87.841797%, 0%)" fill-opacity="1" d="M 22.898438 14.746094 L 23.023438 15.183594 L 23.464844 15.183594 L 23.117188 15.453125 L 23.246094 15.875 L 22.898438 15.609375 L 22.546875 15.863281 L 22.675781 15.453125 L 22.328125 15.183594 L 22.757812 15.183594 Z M 21.75 9.867188 L 21.238281 10.339844 L 21.289062 9.648438 L 20.605469 9.542969 L 21.175781 9.152344 L 20.832031 8.550781 L 21.496094 8.753906 L 21.75 8.109375 L 22.003906 8.753906 L 22.664062 8.550781 L 22.320312 9.152344 L 22.890625 9.542969 L 22.207031 9.648438 L 22.257812 10.339844 Z M 19.03125 13.851562 L 18.523438 14.324219 L 18.574219 13.632812 L 17.886719 13.527344 L 18.460938 13.136719 L 18.113281 12.535156 L 18.777344 12.738281 L 19.03125 12.09375 L 19.285156 12.738281 L 19.949219 12.535156 L 19.601562 13.136719 L 20.175781 13.527344 L 19.488281 13.632812 L 19.539062 14.324219 Z M 24.363281 13.523438 L 23.855469 13.992188 L 23.90625 13.300781 L 23.21875 13.199219 L 23.792969 12.804688 L 23.445312 12.203125 L 24.109375 12.40625 L 24.363281 11.765625 L 24.617188 12.40625 L 25.28125 12.203125 L 24.9375 12.804688 L 25.507812 13.199219 L 24.824219 13.300781 L 24.871094 13.992188 Z M 21.703125 19.328125 L 21.195312 19.796875 L 21.246094 19.109375 L 20.558594 19.003906 L 21.132812 18.609375 L 20.785156 18.011719 L 21.449219 18.214844 L 21.703125 17.570312 L 21.957031 18.214844 L 22.621094 18.011719 L 22.277344 18.609375 L 22.847656 19.003906 L 22.164062 19.109375 L 22.210938 19.796875 Z M 15.273438 16.453125 C 13.640625 16.453125 12.320312 15.128906 12.320312 13.5 C 12.320312 11.867188 13.640625 10.542969 15.273438 10.542969 C 15.894531 10.542969 16.46875 10.738281 16.945312 11.066406 C 16.265625 10.285156 15.269531 9.792969 14.152344 9.792969 C 12.101562 9.792969 10.445312 11.453125 10.445312 13.5 C 10.445312 15.546875 12.101562 17.207031 14.152344 17.207031 C 15.269531 17.207031 16.265625 16.714844 16.945312 15.933594 C 16.472656 16.261719 15.894531 16.453125 15.273438 16.453125 Z M 8.980469 9 C 8.980469 11.105469 7.273438 12.816406 5.164062 12.816406 C 3.058594 12.816406 1.351562 11.105469 1.351562 9 C 1.351562 6.894531 3.058594 5.183594 5.164062 5.183594 C 7.273438 5.183594 8.980469 6.894531 8.980469 9 Z M 8.980469 9 "/>
<path fill-rule="nonzero" fill="rgb(50.195312%, 12.548828%, 0%)" fill-opacity="1" d="M 5.359375 12 L 4.507812 12 C 4.507812 12 4.785156 11.734375 4.933594 11.496094 C 5.078125 11.257812 5.664062 9.988281 5.597656 8.828125 C 5.53125 7.671875 5.730469 7.863281 5.796875 8.554688 C 5.863281 9.246094 5.796875 10.664062 5.675781 11.078125 C 5.558594 11.488281 5.425781 11.75 5.597656 11.804688 C 5.769531 11.859375 5.824219 12 5.824219 12 Z M 5.359375 12 "/>
<path fill-rule="nonzero" fill="rgb(0%, 50.195312%, 0%)" fill-opacity="1" d="M 3.882812 6.6875 L 4.402344 6.6875 L 5.464844 7.699219 L 5.105469 7.046875 L 5.433594 6.84375 L 5.53125 6.039062 L 6.421875 5.957031 L 6.300781 6.410156 L 6.765625 6.648438 L 6.25 7.40625 L 7.378906 7.300781 L 7.164062 7.964844 L 7.777344 7.964844 L 8.03125 8.804688 L 6.539062 8.683594 L 7.285156 9.242188 L 7.285156 10.09375 L 5.714844 8.617188 L 5.582031 9.242188 L 5.492188 9.867188 L 5.148438 9.96875 L 5.066406 9.496094 L 4.707031 10.09375 L 4.226562 10.09375 L 4.695312 8.40625 L 2.300781 8.855469 L 2.9375 8.085938 L 4.203125 7.832031 L 3.085938 7.246094 L 4.734375 7.539062 L 3.03125 6.6875 Z M 3.882812 6.6875 "/>
</svg>