<svg xmlns="http://www.w3.org/2000/svg" xmlns:xlink="http://www.w3.org/1999/xlink" viewBox="0 0 27 27">
<path fill-rule="nonzero" fill="rgb(0%, 14.117432%, 49.01886%)" fill-opacity="1" d="M 24 3.75 L 3 3.75 C 2.847656 3.75 2.695312 3.761719 2.546875 3.785156 L 2.542969 5.097656 L 0.496094 5.097656 C 0.183594 5.570312 0 6.140625 0 6.75 L 0 20.25 C 0 21.90625 1.34375 23.25 3 23.25 L 24 23.25 C 25.65625 23.25 27 21.90625 27 20.25 L 27 6.75 C 27 5.09375 25.65625 3.75 24 3.75 Z M 24 3.75 "/>
<path fill-rule="nonzero" fill="rgb(100%, 100%, 100%)" fill-opacity="1" d="M 20.851562 8.835938 L 21.460938 8.394531 L 20.707031 8.394531 L 20.476562 7.679688 L 20.242188 8.394531 L 19.492188 8.394531 L 20.097656 8.835938 L 19.867188 9.554688 L 20.476562 9.109375 L 21.085938 9.554688 Z M 22.773438 9.394531 L 23.511719 9.238281 L 22.824219 8.929688 L 22.902344 8.183594 L 22.398438 8.742188 L 21.710938 8.433594 L 22.085938 9.085938 L 21.582031 9.644531 L 22.320312 9.488281 L 22.695312 10.140625 Z M 24.3125 10.714844 L 25.046875 10.867188 L 24.542969 10.3125 L 24.917969 9.660156 L 24.230469 9.964844 L 23.726562 9.40625 L 23.804688 10.15625 L 23.121094 10.464844 L 23.855469 10.617188 L 23.9375 11.367188 Z M 25.167969 12.515625 L 25.78125 12.953125 L 25.542969 12.238281 L 26.152344 11.792969 L 25.398438 11.796875 L 25.160156 11.082031 L 24.933594 11.800781 L 24.179688 11.804688 L 24.792969 12.242188 L 24.5625 12.960938 Z M 25.230469 14.53125 L 25.605469 15.183594 L 25.683594 14.433594 L 26.421875 14.277344 L 25.734375 13.972656 L 25.808594 13.222656 L 25.308594 13.78125 L 24.617188 13.476562 L 24.996094 14.128906 L 24.492188 14.691406 Z M 24.453125 16.367188 L 24.53125 17.113281 L 24.90625 16.464844 L 25.644531 16.621094 L 25.140625 16.058594 L 25.515625 15.410156 L 24.828125 15.714844 L 24.324219 15.15625 L 24.402344 15.902344 L 23.714844 16.210938 Z M 22.996094 17.777344 L 22.769531 18.492188 L 23.375 18.046875 L 23.988281 18.488281 L 23.75 17.773438 L 24.359375 17.328125 L 23.605469 17.332031 L 23.371094 16.617188 L 23.140625 17.335938 L 22.386719 17.335938 Z M 21.109375 18.4375 L 20.605469 18.996094 L 21.34375 18.835938 L 21.722656 19.488281 L 21.796875 18.738281 L 22.53125 18.578125 L 21.84375 18.277344 L 21.917969 17.527344 L 21.417969 18.089844 L 20.726562 17.785156 Z M 18.179688 9.394531 L 17.441406 9.238281 L 18.128906 8.929688 L 18.050781 8.183594 L 18.554688 8.742188 L 19.242188 8.433594 L 18.867188 9.085938 L 19.371094 9.644531 L 18.632812 9.488281 L 18.257812 10.140625 Z M 16.640625 10.714844 L 15.902344 10.867188 L 16.410156 10.3125 L 16.035156 9.660156 L 16.71875 9.964844 L 17.226562 9.40625 L 17.144531 10.15625 L 17.832031 10.464844 L 17.09375 10.617188 L 17.015625 11.367188 Z M 15.78125 12.515625 L 15.171875 12.953125 L 15.40625 12.238281 L 14.800781 11.792969 L 15.554688 11.796875 L 15.789062 11.082031 L 16.019531 11.800781 L 16.773438 11.804688 L 16.160156 12.242188 L 16.390625 12.960938 Z M 15.722656 14.53125 L 15.34375 15.183594 L 15.265625 14.433594 L 14.53125 14.277344 L 15.21875 13.972656 L 15.140625 13.222656 L 15.644531 13.78125 L 16.332031 13.476562 L 15.957031 14.128906 L 16.457031 14.691406 Z M 16.5 16.367188 L 16.421875 17.113281 L 16.046875 16.464844 L 15.308594 16.621094 L 15.8125 16.058594 L 15.4375 15.410156 L 16.125 15.714844 L 16.625 15.15625 L 16.546875 15.902344 L 17.238281 16.210938 Z M 17.953125 17.777344 L 18.183594 18.492188 L 17.578125 18.046875 L 16.964844 18.488281 L 17.203125 17.773438 L 16.59375 17.328125 L 17.347656 17.332031 L 17.582031 16.617188 L 17.8125 17.335938 L 18.566406 17.335938 Z M 19.84375 18.4375 L 20.347656 18.996094 L 19.609375 18.835938 L 19.230469 19.488281 L 19.15625 18.738281 L 18.421875 18.578125 L 19.109375 18.277344 L 19.03125 17.527344 L 19.535156 18.089844 L 20.222656 17.785156 Z M 19.84375 18.4375 "/>
<path fill-rule="nonzero" fill="rgb(0%, 14.117432%, 49.01886%)" fill-opacity="1" d="M 14.25 13.5 L 14.25 3.75 L 3 3.75 C 2.761719 3.75 2.546875 3.785156 2.546875 3.785156 L 2.542969 5.097656 L 0.496094 5.097656 C 0.496094 5.097656 0.464844 5.140625 0.402344 5.25 C 0.144531 5.691406 0 6.203125 0 6.75 L 0 13.5 Z M 14.25 13.5 "/>
<path fill-rule="nonzero" fill="rgb(93.331909%, 93.331909%, 93.331909%)" fill-opacity="1" d="M 14.25 3.75 L 12.5 3.75 L 9 6.203125 L 9 3.75 L 5.25 3.75 L 5.25 5.675781 L 2.546875 3.785156 C 2.085938 3.855469 1.65625 4.027344 1.292969 4.28125 L 4.820312 6.75 L 3.515625 6.75 L 0.726562 4.792969 C 0.644531 4.890625 0.566406 4.988281 0.496094 5.097656 L 2.859375 6.75 L 0 6.75 L 0 10.5 L 2.914062 10.5 L 0 12.574219 L 0 13.5 L 2.5 13.5 L 5.25 11.574219 L 5.25 13.5 L 9 13.5 L 9 11.046875 L 12.5 13.5 L 14.25 13.5 L 14.25 11.976562 L 12.140625 10.5 L 14.25 10.5 L 14.25 6.75 L 12.140625 6.75 L 14.25 5.273438 Z M 14.25 3.75 "/>
<path fill-rule="nonzero" fill="rgb(81.175232%, 10.588074%, 16.862488%)" fill-opacity="1" d="M 8.25 3.75 L 6 3.75 L 6 7.5 L 0 7.5 L 0 9.75 L 6 9.75 L 6 13.5 L 8.25 13.5 L 8.25 9.75 L 14.25 9.75 L 14.25 7.5 L 8.25 7.5 Z M 8.25 3.75 "/>
<path fill-rule="nonzero" fill="rgb(81.175232%, 10.588074%, 16.862488%)" fill-opacity="1" d="M 14.25 3.75 L 13.152344 3.75 L 9 6.660156 L 9 6.75 L 10.179688 6.75 L 14.25 3.898438 Z M 1.292969 4.28125 C 1.082031 4.429688 0.890625 4.601562 0.726562 4.792969 L 3.515625 6.75 L 4.820312 6.75 Z M 4.828125 10.5 L 0.550781 13.5 L 1.847656 13.5 L 5.25 11.117188 L 5.25 10.5 Z M 14.25 13.351562 L 14.25 12.4375 L 11.484375 10.5 L 10.175781 10.5 Z M 14.25 13.351562 "/>
</svg>