<svg xmlns="http://www.w3.org/2000/svg" xmlns:xlink="http://www.w3.org/1999/xlink" viewBox="0 0 27 27">
<path fill-rule="nonzero" fill="rgb(0%, 16.862488%, 49.803162%)" fill-opacity="1" d="M 0 20.25 C 0 21.90625 1.34375 23.25 3 23.25 L 24 23.25 C 25.65625 23.25 27 21.90625 27 20.25 L 27 18.75 L 0 18.75 Z M 0 20.25 "/>
<path fill-rule="nonzero" fill="rgb(97.647095%, 90.979004%, 7.843018%)" fill-opacity="1" d="M 0 15.75 L 27 15.75 L 27 18.75 L 0 18.75 Z M 0 15.75 "/>
<path fill-rule="nonzero" fill="rgb(0%, 16.862488%, 49.803162%)" fill-opacity="1" d="M 24 3.75 L 3 3.75 C 1.34375 3.75 0 5.09375 0 6.75 L 0 15.75 L 27 15.75 L 27 6.75 C 27 5.09375 25.65625 3.75 24 3.75 Z M 3 7.324219 L 2.117188 7.964844 L 2.453125 6.925781 L 1.574219 6.285156 L 2.664062 6.285156 L 3 5.25 L 3.335938 6.285156 L 4.425781 6.285156 L 3.546875 6.925781 L 3.882812 7.964844 Z M 7.175781 11.367188 L 6 10.515625 L 4.824219 11.367188 L 5.273438 9.984375 L 4.097656 9.132812 L 5.550781 9.132812 L 6 7.75 L 6.449219 9.132812 L 7.902344 9.132812 L 6.726562 9.984375 Z M 7.175781 11.367188 "/>
<path fill-rule="nonzero" fill="rgb(100%, 100%, 100%)" fill-opacity="1" d="M 6.449219 9.132812 L 6 7.75 L 5.550781 9.132812 L 4.097656 9.132812 L 5.273438 9.984375 L 4.824219 11.367188 L 6 10.515625 L 7.175781 11.367188 L 6.726562 9.984375 L 7.902344 9.132812 Z M 4.425781 6.285156 L 3.335938 6.285156 L 3 5.25 L 2.664062 6.285156 L 1.574219 6.285156 L 2.453125 6.925781 L 2.117188 7.964844 L 3 7.324219 L 3.882812 7.964844 L 3.546875 6.925781 Z M 4.425781 6.285156 "/>
</svg>