<svg xmlns="http://www.w3.org/2000/svg" xmlns:xlink="http://www.w3.org/1999/xlink" viewBox="0 0 27 27">
<path fill-rule="nonzero" fill="rgb(0%, 12.940979%, 67.842102%)" fill-opacity="1" d="M 27 20.25 C 27 21.90625 25.65625 23.25 24 23.25 L 3 23.25 C 1.34375 23.25 0 21.90625 0 20.25 L 0 6.75 C 0 5.09375 1.34375 3.75 3 3.75 L 24 3.75 C 25.65625 3.75 27 5.09375 27 6.75 Z M 27 20.25 "/>
<path fill-rule="nonzero" fill="rgb(10.588074%, 54.116821%, 25.881958%)" fill-opacity="1" d="M 25.964844 22.5 C 26.59375 21.953125 27 21.152344 27 20.25 L 27 6.75 C 27 5.09375 25.65625 3.75 24 3.75 L 3 3.75 C 2.246094 3.75 1.5625 4.039062 1.035156 4.5 Z M 25.964844 22.5 "/>
<path fill-rule="nonzero" fill="rgb(100%, 100%, 100%)" fill-opacity="1" d="M 6.390625 16.695312 L 6.515625 17.132812 L 6.957031 17.132812 L 6.609375 17.402344 L 6.738281 17.828125 L 6.390625 17.558594 L 6.042969 17.816406 L 6.167969 17.402344 L 5.820312 17.132812 L 6.25 17.132812 Z M 5.242188 11.820312 L 4.734375 12.289062 L 4.78125 11.597656 L 4.097656 11.492188 L 4.667969 11.101562 L 4.324219 10.5 L 4.988281 10.703125 L 5.242188 10.058594 L 5.496094 10.703125 L 6.160156 10.5 L 5.8125 11.101562 L 6.382812 11.492188 L 5.699219 11.597656 L 5.75 12.289062 Z M 2.523438 15.800781 L 2.015625 16.273438 L 2.066406 15.582031 L 1.378906 15.476562 L 1.953125 15.085938 L 1.605469 14.484375 L 2.269531 14.6875 L 2.523438 14.042969 L 2.777344 14.6875 L 3.441406 14.484375 L 3.097656 15.085938 L 3.667969 15.476562 L 2.984375 15.582031 L 3.03125 16.273438 Z M 7.855469 15.472656 L 7.347656 15.945312 L 7.398438 15.253906 L 6.710938 15.148438 L 7.285156 14.757812 L 6.941406 14.15625 L 7.601562 14.359375 L 7.855469 13.714844 L 8.109375 14.359375 L 8.773438 14.15625 L 8.429688 14.757812 L 9 15.148438 L 8.316406 15.253906 L 8.367188 15.945312 Z M 5.195312 21.28125 L 4.6875 21.75 L 4.738281 21.058594 L 4.050781 20.953125 L 4.625 20.5625 L 4.28125 19.960938 L 4.941406 20.164062 L 5.195312 19.519531 L 5.449219 20.164062 L 6.113281 19.960938 L 5.769531 20.5625 L 6.339844 20.953125 L 5.65625 21.058594 L 5.707031 21.75 Z M 5.195312 21.28125 "/>
<path fill-rule="nonzero" fill="rgb(100%, 77.645874%, 22.3526%)" fill-opacity="1" d="M 10.828125 13.5 C 10.828125 12.023438 12.023438 10.828125 13.5 10.828125 C 14.976562 10.828125 16.171875 12.023438 16.171875 13.5 C 16.171875 14.976562 14.976562 16.171875 13.5 16.171875 C 12.023438 16.171875 10.828125 14.976562 10.828125 13.5 Z M 10.828125 13.5 "/>
<path fill-rule="nonzero" fill="rgb(10.588074%, 54.116821%, 25.881958%)" fill-opacity="1" d="M 11.898438 12.269531 C 11.898438 12.269531 12.710938 13.023438 13.128906 13.054688 C 13.8125 13.109375 14.460938 12.539062 14.460938 12.121094 L 15.101562 11.851562 L 15.101562 12.691406 L 15.714844 13.109375 L 14.570312 14.160156 L 14.570312 15.417969 L 13.882812 15.25 L 13.832031 14.375 C 13.832031 14.375 13.804688 14.042969 13.382812 14.042969 C 12.964844 14.042969 12.636719 14.019531 12.546875 13.789062 C 12.523438 13.730469 11.414062 13.949219 11.414062 13.949219 L 12.132812 12.945312 L 11.898438 12.691406 Z M 11.898438 12.269531 "/>
<path fill-rule="nonzero" fill="rgb(100%, 77.645874%, 22.3526%)" fill-opacity="1" d="M 22.210938 4.886719 C 22.386719 4.753906 24.019531 6.367188 24.214844 6.675781 C 24.40625 6.988281 24.332031 8.152344 24.523438 8.679688 C 24.71875 9.203125 24.894531 9.320312 25.089844 9.203125 C 25.28125 9.085938 25.964844 9.203125 26.058594 9.457031 C 26.058594 9.457031 25.515625 9.785156 25.476562 10.019531 C 25.476562 10.019531 23.746094 10.621094 22.757812 11.128906 C 21.765625 11.632812 22.023438 11.375 21.203125 11.730469 C 19.996094 12.253906 18.910156 12.003906 18.113281 11.886719 C 17.316406 11.769531 17.546875 11.59375 18.113281 11.671875 C 18.675781 11.75 20.367188 11.574219 20.8125 11.421875 C 21.261719 11.265625 22.136719 10.566406 22.503906 10.390625 C 22.875 10.214844 23.339844 9.574219 22.933594 9.183594 C 22.523438 8.792969 21.296875 8.25 20.8125 7.726562 C 20.328125 7.199219 20.328125 7.121094 21.085938 7.238281 C 21.84375 7.355469 22.507812 7.757812 22.871094 8.121094 C 23.261719 8.507812 23.609375 8.011719 23.375 7.386719 C 23.140625 6.765625 22.816406 6.832031 22.601562 6.265625 C 22.386719 5.703125 22.039062 5.023438 22.210938 4.886719 Z M 22.210938 4.886719 "/>
</svg>