<svg xmlns="http://www.w3.org/2000/svg" xmlns:xlink="http://www.w3.org/1999/xlink" viewBox="0 0 27 27">
<path fill-rule="nonzero" fill="rgb(7.843018%, 7.843018%, 7.843018%)" fill-opacity="1" d="M 24 3.75 L 3 3.75 C 1.34375 3.75 0 5.09375 0 6.75 L 0 10.125 L 27 10.125 L 27 6.75 C 27 5.09375 25.65625 3.75 24 3.75 Z M 24 3.75 "/>
<path fill-rule="nonzero" fill="rgb(0%, 47.842407%, 23.921204%)" fill-opacity="1" d="M 0 20.25 C 0 21.90625 1.34375 23.25 3 23.25 L 24 23.25 C 25.65625 23.25 27 21.90625 27 20.25 L 27 16.875 L 0 16.875 Z M 0 20.25 "/>
<path fill-rule="nonzero" fill="rgb(93.331909%, 93.331909%, 93.331909%)" fill-opacity="1" d="M 0 10.125 L 27 10.125 L 27 16.875 L 0 16.875 Z M 0 10.125 "/>
<path fill-rule="nonzero" fill="rgb(76.861572%, 6.666565%, 10.588074%)" fill-opacity="1" d="M 0.847656 4.667969 C 0.324219 5.207031 0 5.941406 0 6.75 L 0 20.25 C 0 21.058594 0.324219 21.792969 0.847656 22.332031 L 9 13.5 Z M 0.847656 4.667969 "/>
<path fill-rule="nonzero" fill="rgb(76.861572%, 6.666565%, 10.588074%)" fill-opacity="1" d="M 13.421875 13.523438 C 13.421875 12.253906 14.332031 11.199219 15.535156 10.972656 C 15.375 10.941406 15.210938 10.925781 15.046875 10.925781 C 13.609375 10.925781 12.445312 12.089844 12.445312 13.523438 C 12.445312 14.960938 13.609375 16.125 15.046875 16.125 C 15.210938 16.125 15.375 16.109375 15.53125 16.078125 C 14.332031 15.851562 13.421875 14.792969 13.421875 13.523438 Z M 13.421875 13.523438 "/>
<path fill-rule="nonzero" fill="rgb(76.861572%, 6.666565%, 10.588074%)" fill-opacity="1" d="M 14.347656 15.097656 L 15.457031 14.304688 L 16.554688 15.109375 L 16.144531 13.8125 L 17.25 13.015625 L 15.886719 13.003906 L 15.46875 11.707031 L 15.039062 13 L 13.675781 12.996094 L 14.773438 13.804688 Z M 14.347656 15.097656 "/>
</svg>