<svg xmlns="http://www.w3.org/2000/svg" xmlns:xlink="http://www.w3.org/1999/xlink" viewBox="0 0 27 27">
<path fill-rule="nonzero" fill="rgb(0%, 14.117432%, 49.01886%)" fill-opacity="1" d="M 24 3.75 L 3 3.75 C 2.847656 3.75 2.695312 3.761719 2.546875 3.785156 L 2.542969 5.097656 L 0.496094 5.097656 C 0.183594 5.570312 0 6.140625 0 6.75 L 0 20.25 C 0 21.90625 1.34375 23.25 3 23.25 L 24 23.25 C 25.65625 23.25 27 21.90625 27 20.25 L 27 6.75 C 27 5.09375 25.65625 3.75 24 3.75 Z M 24 3.75 "/>
<path fill-rule="nonzero" fill="rgb(72.940063%, 40.391541%, 27.842712%)" fill-opacity="1" d="M 17.457031 16.992188 C 17.664062 16.605469 17.808594 16.21875 17.976562 16.101562 C 18.144531 15.984375 19.089844 16.078125 19.273438 16.289062 C 19.457031 16.5 19.363281 17.589844 19 18.199219 C 18.636719 18.808594 17.960938 19.042969 17.707031 18.996094 C 17.453125 18.949219 17.289062 18.492188 17.242188 18.328125 C 17.195312 18.164062 17.351562 18.105469 17.707031 18.210938 C 18.0625 18.316406 18.589844 17.414062 18.578125 17.085938 C 18.273438 16.863281 18.007812 17.039062 17.890625 17.308594 C 17.769531 17.578125 17.457031 16.992188 17.457031 16.992188 Z M 17.457031 16.992188 "/>
<path fill-rule="nonzero" fill="rgb(84.312439%, 65.881348%, 58.822632%)" fill-opacity="1" d="M 16.984375 17.777344 C 17.035156 17.996094 17.238281 18.515625 17.457031 18.800781 C 17.351562 18.164062 17.828125 18.363281 17.792969 18.621094 C 17.957031 18.667969 17.75 18.257812 17.707031 18.023438 C 17.664062 17.789062 17.699219 17.332031 17.316406 17.355469 C 16.925781 17.378906 16.949219 17.621094 16.984375 17.777344 Z M 16.984375 17.777344 "/>
<path fill-rule="nonzero" fill="rgb(72.940063%, 40.391541%, 27.842712%)" fill-opacity="1" d="M 24.460938 16.992188 C 24.253906 16.605469 24.109375 16.21875 23.941406 16.101562 C 23.769531 15.984375 22.828125 16.078125 22.640625 16.289062 C 22.457031 16.5 22.550781 17.589844 22.914062 18.199219 C 23.277344 18.808594 23.957031 19.042969 24.210938 18.996094 C 24.460938 18.949219 24.621094 18.492188 24.667969 18.328125 C 24.714844 18.164062 24.558594 18.105469 24.203125 18.210938 C 23.847656 18.316406 23.324219 17.414062 23.335938 17.085938 C 23.640625 16.863281 23.910156 17.039062 24.027344 17.308594 C 24.144531 17.578125 24.460938 16.992188 24.460938 16.992188 Z M 24.460938 16.992188 "/>
<path fill-rule="nonzero" fill="rgb(91.371155%, 81.175232%, 77.645874%)" fill-opacity="1" d="M 24.683594 17.589844 C 24.738281 17.355469 24.460938 16.992188 24.285156 16.640625 C 23.566406 17.988281 21.679688 18.160156 20.957031 18.164062 C 20.238281 18.160156 18.351562 17.988281 17.632812 16.640625 C 17.457031 16.992188 17.179688 17.355469 17.234375 17.589844 C 17.289062 17.824219 18.988281 19.042969 20.945312 19.054688 L 20.972656 19.054688 C 22.929688 19.042969 24.628906 17.824219 24.683594 17.589844 Z M 24.683594 17.589844 "/>
<path fill-rule="nonzero" fill="rgb(84.312439%, 65.881348%, 58.822632%)" fill-opacity="1" d="M 24.929688 17.777344 C 24.882812 17.996094 24.679688 18.515625 24.460938 18.800781 C 24.566406 18.164062 24.085938 18.363281 24.121094 18.621094 C 23.957031 18.667969 24.167969 18.257812 24.210938 18.023438 C 24.253906 17.789062 24.214844 17.332031 24.601562 17.355469 C 24.988281 17.378906 24.96875 17.621094 24.929688 17.777344 Z M 24.929688 17.777344 "/>
<path fill-rule="nonzero" fill="rgb(100%, 100%, 100%)" fill-opacity="1" d="M 20.96875 7.984375 L 17.453125 7.984375 L 17.453125 12.859375 C 17.453125 17.140625 20.96875 18.078125 20.96875 18.078125 C 20.96875 18.078125 24.484375 17.140625 24.484375 12.859375 L 24.484375 7.984375 Z M 20.96875 7.984375 "/>
<path fill-rule="nonzero" fill="rgb(0%, 44.7052%, 76.861572%)" fill-opacity="1" d="M 20.96875 17.777344 C 20.578125 17.660156 17.703125 16.667969 17.703125 12.863281 L 17.703125 8.28125 L 24.234375 8.28125 L 24.234375 12.863281 C 24.234375 16.632812 21.328125 17.664062 20.96875 17.777344 Z M 20.96875 17.777344 "/>
<path fill-rule="nonzero" fill="rgb(100%, 100%, 100%)" fill-opacity="1" d="M 19.570312 12.515625 C 19.652344 12.1875 19.710938 11.730469 19.511719 11.660156 C 19.3125 11.589844 18.960938 11.378906 18.84375 11.003906 C 18.726562 10.628906 18.785156 9.761719 18.679688 9.703125 C 18.574219 9.644531 18.257812 9.785156 18.070312 9.550781 C 17.882812 9.316406 18 9.234375 18.128906 9.152344 C 18.257812 9.070312 18.621094 8.882812 18.597656 8.8125 C 18.574219 8.742188 18.621094 8.628906 18.84375 8.554688 C 19.253906 8.414062 19.582031 8.777344 19.710938 8.917969 C 19.839844 9.058594 20.179688 9.246094 20.332031 9.257812 C 20.484375 9.269531 22.324219 9.292969 22.535156 9.316406 C 22.746094 9.339844 23.285156 9.480469 23.238281 10.125 C 23.191406 10.769531 23.101562 11.390625 23.011719 11.507812 C 22.921875 11.625 22.863281 11.660156 22.863281 11.660156 C 22.863281 11.660156 22.957031 12.175781 22.945312 12.269531 C 22.933594 12.363281 22.769531 12.398438 22.757812 12.234375 C 22.746094 12.070312 22.6875 11.683594 22.6875 11.683594 L 22.371094 11.625 C 22.371094 11.625 22.382812 12.1875 22.277344 12.351562 C 22.171875 12.515625 21.902344 12.410156 21.972656 12.292969 C 22.042969 12.175781 22.078125 12.070312 22.078125 11.929688 C 22.078125 11.789062 22.042969 11.578125 21.972656 11.554688 C 21.902344 11.53125 21.550781 11.671875 21.292969 11.671875 C 21.035156 11.671875 20.460938 11.507812 20.355469 11.601562 C 20.25 11.695312 20.109375 12.175781 20.039062 12.445312 C 19.96875 12.714844 19.851562 12.550781 19.863281 12.421875 C 19.875 12.292969 19.921875 11.859375 19.851562 11.929688 C 19.78125 12 19.804688 12.328125 19.757812 12.433594 C 19.710938 12.539062 19.570312 12.515625 19.570312 12.515625 Z M 19.570312 12.515625 "/>
<path fill-rule="nonzero" fill="rgb(0.392151%, 31.764221%, 12.940979%)" fill-opacity="1" d="M 18.738281 11.929688 C 18.738281 11.929688 18.890625 12.804688 19.464844 13.183594 C 20.039062 13.5625 22.449219 13.464844 22.863281 13.171875 C 23.277344 12.878906 23.660156 12.164062 23.660156 12.164062 C 23.660156 12.164062 23.320312 12.164062 23.203125 12.035156 C 22.863281 12.222656 22.664062 12.140625 22.59375 12.023438 C 22.324219 12.292969 22.347656 12.128906 22.3125 12.046875 C 22.078125 12.316406 21.738281 12.152344 21.632812 12.058594 C 21.398438 12.210938 21.046875 12.117188 20.976562 12.023438 C 20.707031 12.257812 20.308594 12.199219 20.226562 12.09375 C 20.050781 12.386719 19.792969 12.28125 19.652344 12.1875 C 19.453125 12.375 19.371094 12.164062 19.300781 12.035156 C 19.136719 12.316406 18.867188 12.117188 18.738281 11.929688 Z M 18.738281 11.929688 "/>
<path fill-rule="nonzero" fill="rgb(100%, 100%, 100%)" fill-opacity="1" d="M 17.566406 13.03125 C 17.566406 13.03125 17.929688 13.078125 18.210938 12.820312 C 18.492188 12.5625 18.972656 12.433594 19.324219 12.820312 C 19.675781 13.207031 20.074219 13.195312 20.378906 12.878906 C 20.683594 12.5625 21.140625 12.414062 21.574219 12.84375 C 22.007812 13.277344 22.382812 13.09375 22.640625 12.84375 C 22.898438 12.597656 23.4375 12.4375 23.789062 12.84375 C 24.140625 13.253906 24.386719 13.03125 24.386719 13.03125 L 24.234375 14.109375 C 24.234375 14.109375 24.128906 14.132812 23.800781 13.851562 C 23.472656 13.570312 23.015625 13.464844 22.6875 13.816406 C 22.359375 14.167969 21.867188 14.179688 21.515625 13.839844 C 21.164062 13.5 20.753906 13.535156 20.449219 13.804688 C 20.144531 14.074219 19.617188 14.203125 19.195312 13.804688 C 18.773438 13.40625 18.410156 13.605469 18.199219 13.816406 C 17.988281 14.027344 17.703125 14.109375 17.703125 14.109375 Z M 17.925781 14.953125 C 18.019531 14.921875 18.121094 14.871094 18.210938 14.789062 C 18.492188 14.53125 18.972656 14.402344 19.324219 14.789062 C 19.675781 15.175781 20.074219 15.164062 20.378906 14.847656 C 20.683594 14.53125 21.140625 14.378906 21.574219 14.8125 C 22.007812 15.246094 22.382812 15.058594 22.640625 14.8125 C 22.898438 14.566406 23.4375 14.402344 23.789062 14.8125 C 23.859375 14.894531 23.925781 14.949219 23.984375 14.988281 C 24.046875 15.222656 23.714844 15.753906 23.671875 15.722656 C 23.359375 15.519531 22.972656 15.476562 22.6875 15.785156 C 22.359375 16.136719 21.867188 16.148438 21.515625 15.808594 C 21.164062 15.46875 20.753906 15.503906 20.449219 15.773438 C 20.144531 16.039062 19.617188 16.171875 19.195312 15.773438 C 18.832031 15.425781 18.507812 15.53125 18.292969 15.699219 C 18.257812 15.730469 17.734375 15.023438 17.925781 14.953125 Z M 18.84375 16.492188 C 19.011719 16.503906 19.179688 16.574219 19.324219 16.734375 C 19.675781 17.121094 20.074219 17.109375 20.378906 16.792969 C 20.683594 16.476562 21.140625 16.324219 21.574219 16.757812 C 22.007812 17.191406 22.382812 17.003906 22.640625 16.757812 C 22.734375 16.667969 22.867188 16.589844 23.011719 16.546875 C 22.527344 17.238281 21.152344 17.941406 20.96875 17.941406 C 20.78125 17.941406 19.289062 17.285156 18.84375 16.492188 Z M 18.84375 16.492188 "/>
<path fill-rule="nonzero" fill="rgb(0%, 0%, 0%)" fill-opacity="1" d="M 18.527344 9.070312 C 18.585938 8.941406 18.785156 8.976562 18.84375 9.070312 C 18.902344 9.164062 18.46875 9.199219 18.527344 9.070312 Z M 18.527344 9.070312 "/>
<path fill-rule="nonzero" fill="rgb(86.665344%, 54.508972%, 34.901428%)" fill-opacity="1" d="M 17.882812 14.789062 C 17.8125 14.875 18.785156 15.300781 18.785156 15.300781 C 18.785156 15.300781 18.871094 15.761719 18.949219 15.703125 C 19.027344 15.644531 19.359375 15.707031 19.359375 15.707031 C 19.359375 15.707031 19.4375 17.085938 20.976562 17.085938 C 22.515625 17.085938 22.925781 15.613281 22.925781 15.613281 C 22.925781 15.613281 23.484375 15.621094 23.546875 15.65625 C 23.613281 15.6875 23.414062 15.472656 23.496094 15.300781 C 23.578125 15.128906 23.777344 14.929688 23.660156 14.882812 C 23.542969 14.835938 22.300781 15.175781 22.300781 15.175781 C 22.300781 15.175781 22.324219 16.289062 20.976562 16.289062 C 19.628906 16.289062 19.804688 15.5625 19.804688 15.5625 C 19.804688 15.5625 17.992188 14.65625 17.882812 14.789062 Z M 17.882812 14.789062 "/>
<path fill-rule="nonzero" fill="rgb(86.665344%, 54.508972%, 34.901428%)" fill-opacity="1" d="M 19.863281 15.992188 C 19.863281 16.027344 19.835938 16.054688 19.796875 16.054688 C 19.761719 16.054688 19.734375 16.027344 19.734375 15.992188 L 19.734375 13.023438 C 19.734375 12.988281 19.761719 12.960938 19.796875 12.960938 C 19.835938 12.960938 19.863281 12.988281 19.863281 13.023438 Z M 20.976562 16.355469 C 20.976562 16.382812 20.953125 16.40625 20.925781 16.40625 C 20.894531 16.40625 20.871094 16.382812 20.871094 16.355469 L 20.871094 12.816406 C 20.871094 12.785156 20.894531 12.761719 20.925781 12.761719 C 20.953125 12.761719 20.976562 12.785156 20.976562 12.816406 Z M 22.136719 16.160156 C 22.136719 16.191406 22.109375 16.21875 22.078125 16.21875 C 22.046875 16.21875 22.019531 16.191406 22.019531 16.160156 L 22.019531 13.019531 C 22.019531 12.988281 22.046875 12.960938 22.078125 12.960938 C 22.109375 12.960938 22.136719 12.988281 22.136719 13.019531 Z M 22.136719 16.160156 "/>
<path fill-rule="nonzero" fill="rgb(99.606323%, 81.175232%, 23.921204%)" fill-opacity="1" d="M 19.40625 13.5 C 19.40625 13.5 19.511719 13.710938 19.863281 13.617188 C 20.214844 13.523438 20.226562 13.230469 20.226562 13.230469 Z M 21.339844 13.03125 L 20.542969 13.230469 C 20.542969 13.230469 20.625 13.492188 20.925781 13.429688 C 21.222656 13.371094 21.339844 13.03125 21.339844 13.03125 Z M 21.691406 13.40625 C 21.691406 13.40625 21.878906 13.628906 22.136719 13.546875 C 22.394531 13.464844 22.558594 13.160156 22.558594 13.160156 Z M 20.34375 13.640625 L 19.339844 13.917969 C 19.339844 13.917969 19.242188 14.097656 19.277344 14.285156 C 19.3125 14.472656 19.40625 14.648438 19.40625 14.648438 C 19.40625 14.648438 19.5 14.414062 19.734375 14.367188 C 19.96875 14.320312 20.132812 14.507812 20.132812 14.507812 C 20.132812 14.507812 20.042969 14.078125 20.34375 13.640625 Z M 20.542969 13.640625 C 20.542969 13.640625 20.339844 13.757812 20.34375 14.109375 C 20.347656 14.300781 20.542969 14.546875 20.542969 14.546875 C 20.542969 14.546875 20.648438 14.355469 20.871094 14.285156 C 21.09375 14.214844 21.339844 14.414062 21.339844 14.414062 C 21.339844 14.414062 21.25 14.128906 21.28125 13.910156 C 21.316406 13.691406 21.46875 13.433594 21.46875 13.433594 Z M 21.621094 13.816406 C 21.621094 13.816406 21.550781 13.96875 21.550781 14.144531 C 21.550781 14.320312 21.691406 14.648438 21.691406 14.648438 C 21.691406 14.648438 21.761719 14.402344 22.019531 14.34375 C 22.277344 14.285156 22.417969 14.460938 22.417969 14.460938 C 22.417969 14.460938 22.332031 14.289062 22.371094 14.035156 C 22.40625 13.78125 22.664062 13.566406 22.664062 13.566406 Z M 20.167969 14.589844 L 19.289062 14.753906 C 19.289062 14.753906 19.394531 15.035156 19.730469 15 C 20.0625 14.964844 20.167969 14.589844 20.167969 14.589844 Z M 21.386719 14.546875 C 21.386719 14.546875 20.542969 14.589844 20.542969 14.648438 C 20.542969 14.707031 20.625 14.917969 20.90625 14.871094 C 21.1875 14.824219 21.386719 14.546875 21.386719 14.546875 Z M 22.476562 14.589844 L 21.644531 14.777344 C 21.644531 14.777344 21.761719 14.988281 22.0625 14.929688 C 22.359375 14.871094 22.476562 14.589844 22.476562 14.589844 Z M 22.476562 14.589844 "/>
<path fill-rule="nonzero" fill="rgb(100%, 0.392151%, 0%)" fill-opacity="1" d="M 19.734375 13.023438 L 19.113281 13.230469 L 19.734375 13.296875 Z M 20.917969 12.824219 L 20.296875 13.03125 L 20.917969 13.097656 Z M 22.089844 12.960938 L 21.46875 13.167969 L 22.089844 13.234375 Z M 22.089844 12.960938 "/>
<path fill-rule="nonzero" fill="rgb(0%, 14.117432%, 49.01886%)" fill-opacity="1" d="M 14.25 13.5 L 14.25 3.75 L 3 3.75 C 2.761719 3.75 2.546875 3.785156 2.546875 3.785156 L 2.542969 5.097656 L 0.496094 5.097656 C 0.496094 5.097656 0.464844 5.140625 0.402344 5.25 C 0.144531 5.691406 0 6.203125 0 6.75 L 0 13.5 Z M 14.25 13.5 "/>
<path fill-rule="nonzero" fill="rgb(93.331909%, 93.331909%, 93.331909%)" fill-opacity="1" d="M 14.25 3.75 L 12.5 3.75 L 9 6.203125 L 9 3.75 L 5.25 3.75 L 5.25 5.675781 L 2.546875 3.785156 C 2.085938 3.855469 1.65625 4.027344 1.292969 4.28125 L 4.820312 6.75 L 3.515625 6.75 L 0.726562 4.792969 C 0.644531 4.890625 0.566406 4.988281 0.496094 5.097656 L 2.859375 6.75 L 0 6.75 L 0 10.5 L 2.914062 10.5 L 0 12.574219 L 0 13.5 L 2.5 13.5 L 5.25 11.574219 L 5.25 13.5 L 9 13.5 L 9 11.046875 L 12.5 13.5 L 14.25 13.5 L 14.25 11.976562 L 12.140625 10.5 L 14.25 10.5 L 14.25 6.75 L 12.140625 6.75 L 14.25 5.273438 Z M 14.25 3.75 "/>
<path fill-rule="nonzero" fill="rgb(81.175232%, 10.588074%, 16.862488%)" fill-opacity="1" d="M 8.25 3.75 L 6 3.75 L 6 7.5 L 0 7.5 L 0 9.75 L 6 9.75 L 6 13.5 L 8.25 13.5 L 8.25 9.75 L 14.25 9.75 L 14.25 7.5 L 8.25 7.5 Z M 8.25 3.75 "/>
<path fill-rule="nonzero" fill="rgb(81.175232%, 10.588074%, 16.862488%)" fill-opacity="1" d="M 14.25 3.75 L 13.152344 3.75 L 9 6.660156 L 9 6.75 L 10.179688 6.75 L 14.25 3.898438 Z M 1.292969 4.28125 C 1.082031 4.429688 0.890625 4.601562 0.726562 4.792969 L 3.515625 6.75 L 4.820312 6.75 Z M 4.828125 10.5 L 0.550781 13.5 L 1.847656 13.5 L 5.25 11.117188 L 5.25 10.5 Z M 14.25 13.351562 L 14.25 12.4375 L 11.484375 10.5 L 10.175781 10.5 Z M 14.25 13.351562 "/>
</svg>