<svg xmlns="http://www.w3.org/2000/svg" xmlns:xlink="http://www.w3.org/1999/xlink" viewBox="0 0 27 27">
<path fill-rule="nonzero" fill="rgb(93.331909%, 93.331909%, 93.331909%)" fill-opacity="1" d="M 7.082031 3.75 L 3 3.75 C 1.34375 3.75 0 5.09375 0 6.75 L 0 10.875 L 7.082031 10.875 Z M 27 10.875 L 27 6.75 C 27 5.09375 25.65625 3.75 24 3.75 L 12.375 3.75 L 12.375 10.875 Z M 27 10.875 "/>
<path fill-rule="nonzero" fill="rgb(0%, 39.607239%, 74.116516%)" fill-opacity="1" d="M 27 12 L 27 10.875 L 12.375 10.875 L 12.375 3.75 L 11.25 3.75 L 11.25 12 Z M 8.25 3.75 L 7.082031 3.75 L 7.082031 10.875 L 0 10.875 L 0 12 L 8.25 12 Z M 8.25 3.75 "/>
<path fill-rule="nonzero" fill="rgb(93.331909%, 93.331909%, 93.331909%)" fill-opacity="1" d="M 0 16.125 L 0 20.25 C 0 21.90625 1.34375 23.25 3 23.25 L 7.082031 23.25 L 7.082031 16.125 Z M 12.375 16.125 L 12.375 23.25 L 24 23.25 C 25.65625 23.25 27 21.90625 27 20.25 L 27 16.125 Z M 12.375 16.125 "/>
<path fill-rule="nonzero" fill="rgb(92.939758%, 16.078186%, 22.3526%)" fill-opacity="1" d="M 11.25 12 L 11.25 3.75 L 8.25 3.75 L 8.25 12 L 0 12 L 0 15 L 8.25 15 L 8.25 23.25 L 11.25 23.25 L 11.25 15 L 27 15 L 27 12 Z M 11.25 12 "/>
<path fill-rule="nonzero" fill="rgb(0%, 39.607239%, 74.116516%)" fill-opacity="1" d="M 11.25 15 L 11.25 23.25 L 12.375 23.25 L 12.375 16.125 L 27 16.125 L 27 15 Z M 8.25 15 L 0 15 L 0 16.125 L 7.082031 16.125 L 7.082031 23.25 L 8.25 23.25 Z M 8.25 15 "/>
</svg>