<svg xmlns="http://www.w3.org/2000/svg" xmlns:xlink="http://www.w3.org/1999/xlink" viewBox="0 0 27 27">
<path fill-rule="nonzero" fill="rgb(2.745056%, 53.72467%, 18.823242%)" fill-opacity="1" d="M 24 3.75 L 3 3.75 C 2.246094 3.75 1.5625 4.039062 1.035156 4.5 L 12.171875 12.539062 L 12.792969 12.539062 L 13.5 10.359375 L 14.207031 12.539062 L 16.5 12.539062 L 14.644531 13.886719 L 14.832031 14.460938 L 25.964844 22.5 C 26.59375 21.953125 27 21.152344 27 20.25 L 27 6.75 C 27 5.09375 25.65625 3.75 24 3.75 Z M 24 3.75 "/>
<path fill-rule="nonzero" fill="rgb(98.822021%, 86.665344%, 3.529358%)" fill-opacity="1" d="M 15.355469 16.066406 L 13.5 14.71875 L 11.644531 16.066406 L 12.355469 13.886719 L 10.5 12.539062 L 12.171875 12.539062 L 1.035156 4.5 C 0.40625 5.046875 0 5.847656 0 6.75 L 0 20.25 C 0 21.90625 1.34375 23.25 3 23.25 L 24 23.25 C 24.753906 23.25 25.4375 22.960938 25.964844 22.5 L 14.832031 14.464844 Z M 15.355469 16.066406 "/>
<path fill-rule="nonzero" fill="rgb(85.488892%, 7.058716%, 10.195923%)" fill-opacity="1" d="M 12.355469 13.886719 L 11.644531 16.066406 L 13.5 14.71875 L 15.355469 16.066406 L 14.832031 14.464844 L 14.644531 13.886719 L 16.5 12.539062 L 14.207031 12.539062 L 13.5 10.359375 L 12.792969 12.539062 L 10.5 12.539062 Z M 12.355469 13.886719 "/>
</svg>