<svg xmlns="http://www.w3.org/2000/svg" xmlns:xlink="http://www.w3.org/1999/xlink" viewBox="0 0 27 27">
<path fill-rule="nonzero" fill="rgb(93.331909%, 93.331909%, 93.331909%)" fill-opacity="1" d="M 24 3.75 L 3 3.75 C 1.34375 3.75 0 5.09375 0 6.75 L 0 20.25 C 0 21.90625 1.34375 23.25 3 23.25 L 24 23.25 C 25.65625 23.25 27 21.90625 27 20.25 L 27 6.75 C 27 5.09375 25.65625 3.75 24 3.75 Z M 24 3.75 "/>
<path fill-rule="nonzero" fill="rgb(90.979004%, 6.666565%, 17.64679%)" fill-opacity="1" d="M 15.75 23.25 L 11.25 23.25 L 11.25 15.75 L 0 15.75 L 0 11.25 L 11.25 11.25 L 11.25 3.75 L 15.75 3.75 L 15.75 11.25 L 27 11.25 L 27 15.75 L 15.75 15.75 Z M 15.75 23.25 "/>
<path fill-rule="nonzero" fill="rgb(97.647095%, 86.665344%, 8.627319%)" fill-opacity="1" d="M 20.625 12.75 L 14.25 12.75 L 14.25 7.125 L 15 6.375 L 12 6.375 L 12.75 7.125 L 12.75 12.75 L 6.375 12.75 L 5.625 12 L 5.625 15 L 6.375 14.25 L 12.75 14.25 L 12.75 19.875 L 12 20.625 L 15 20.625 L 14.25 19.875 L 14.25 14.25 L 20.625 14.25 L 21.375 15 L 21.375 12 Z M 20.625 12.75 "/>
</svg>