<svg xmlns="http://www.w3.org/2000/svg" xmlns:xlink="http://www.w3.org/1999/xlink" viewBox="0 0 27 27">
<path fill-rule="nonzero" fill="rgb(85.488892%, 10.980225%, 4.31366%)" fill-opacity="1" d="M 27 20.25 C 27 21.90625 25.65625 23.25 24 23.25 L 3 23.25 C 1.34375 23.25 0 21.90625 0 20.25 L 0 16.5 L 27 16.5 Z M 27 20.25 "/>
<path fill-rule="nonzero" fill="rgb(93.331909%, 93.331909%, 93.331909%)" fill-opacity="1" d="M 24 3.75 L 3 3.75 C 1.34375 3.75 0 5.09375 0 6.75 L 0 17.25 L 27 17.25 L 27 6.75 C 27 5.09375 25.65625 3.75 24 3.75 Z M 24 3.75 "/>
<path fill-rule="nonzero" fill="rgb(85.488892%, 10.980225%, 4.31366%)" fill-opacity="1" d="M 10.839844 7.773438 L 10.839844 8.355469 L 10.253906 8.355469 L 10.253906 7.773438 L 9.085938 7.773438 L 9.085938 8.355469 L 8.503906 8.355469 L 8.503906 7.773438 L 7.917969 7.773438 L 7.917969 8.941406 L 8.503906 8.941406 L 8.503906 11.859375 L 10.839844 11.859375 L 10.839844 8.941406 L 11.421875 8.941406 L 11.421875 7.773438 Z M 10.839844 7.773438 "/>
<path fill-rule="nonzero" fill="rgb(85.488892%, 10.980225%, 4.31366%)" fill-opacity="1" d="M 11.429688 10.691406 L 11.429688 11.277344 L 10.847656 11.277344 L 10.847656 10.691406 L 10.261719 10.691406 L 10.261719 11.277344 L 9.09375 11.277344 L 9.09375 10.691406 L 8.511719 10.691406 L 8.511719 11.277344 L 7.925781 11.277344 L 7.925781 10.691406 L 7.34375 10.691406 L 7.34375 11.859375 L 7.925781 11.859375 L 7.925781 15.050781 L 7.34375 15.363281 L 7.34375 15.945312 L 12.015625 15.945312 L 12.015625 15.363281 L 11.429688 15.050781 L 11.429688 11.859375 L 12.015625 11.859375 L 12.015625 10.691406 Z M 11.429688 10.691406 "/>
<path fill-rule="nonzero" fill="rgb(0%, 0%, 0%)" fill-opacity="1" d="M 9.085938 10.109375 L 10.253906 10.109375 L 10.253906 11.277344 L 9.085938 11.277344 Z M 9.085938 10.109375 "/>
<path fill-rule="nonzero" fill="rgb(0%, 0%, 0%)" fill-opacity="1" d="M 10.253906 10.109375 C 10.253906 10.429688 9.992188 10.691406 9.671875 10.691406 C 9.347656 10.691406 9.085938 10.429688 9.085938 10.109375 C 9.085938 9.785156 9.347656 9.523438 9.671875 9.523438 C 9.992188 9.523438 10.253906 9.785156 10.253906 10.109375 Z M 10.253906 13.785156 C 10.253906 13.320312 10.136719 12.941406 9.671875 12.941406 C 9.207031 12.941406 9.085938 13.320312 9.085938 13.785156 L 9.085938 14.777344 L 10.253906 14.777344 Z M 10.253906 13.785156 "/>
<path fill-rule="nonzero" fill="rgb(85.488892%, 10.980225%, 4.31366%)" fill-opacity="1" d="M 18.683594 7.773438 L 18.683594 8.355469 L 18.097656 8.355469 L 18.097656 7.773438 L 16.929688 7.773438 L 16.929688 8.355469 L 16.347656 8.355469 L 16.347656 7.773438 L 15.761719 7.773438 L 15.761719 8.941406 L 16.347656 8.941406 L 16.347656 11.859375 L 18.683594 11.859375 L 18.683594 8.941406 L 19.265625 8.941406 L 19.265625 7.773438 Z M 18.683594 7.773438 "/>
<path fill-rule="nonzero" fill="rgb(85.488892%, 10.980225%, 4.31366%)" fill-opacity="1" d="M 19.265625 10.691406 L 19.265625 11.277344 L 18.683594 11.277344 L 18.683594 10.691406 L 18.097656 10.691406 L 18.097656 11.277344 L 16.929688 11.277344 L 16.929688 10.691406 L 16.347656 10.691406 L 16.347656 11.277344 L 15.761719 11.277344 L 15.761719 10.691406 L 15.179688 10.691406 L 15.179688 11.859375 L 15.761719 11.859375 L 15.761719 15.050781 L 15.179688 15.363281 L 15.179688 15.945312 L 19.851562 15.945312 L 19.851562 15.363281 L 19.265625 15.050781 L 19.265625 11.859375 L 19.851562 11.859375 L 19.851562 10.691406 Z M 19.265625 10.691406 "/>
<path fill-rule="nonzero" fill="rgb(0%, 0%, 0%)" fill-opacity="1" d="M 16.929688 10.109375 L 18.097656 10.109375 L 18.097656 11.277344 L 16.929688 11.277344 Z M 16.929688 10.109375 "/>
<path fill-rule="nonzero" fill="rgb(0%, 0%, 0%)" fill-opacity="1" d="M 18.097656 10.109375 C 18.097656 10.429688 17.835938 10.691406 17.515625 10.691406 C 17.191406 10.691406 16.933594 10.429688 16.933594 10.109375 C 16.933594 9.785156 17.195312 9.523438 17.515625 9.523438 C 17.835938 9.523438 18.097656 9.785156 18.097656 10.109375 Z M 18.097656 13.785156 C 18.097656 13.320312 17.980469 12.941406 17.515625 12.941406 C 17.050781 12.941406 16.933594 13.320312 16.933594 13.785156 L 16.933594 14.777344 L 18.101562 14.777344 L 18.101562 13.785156 Z M 18.097656 13.785156 "/>
<path fill-rule="nonzero" fill="rgb(85.488892%, 10.980225%, 4.31366%)" fill-opacity="1" d="M 15 6 L 15 6.75 L 14.25 6.75 L 14.25 6 L 12.75 6 L 12.75 6.75 L 12 6.75 L 12 6 L 11.25 6 L 11.25 7.5 L 12 7.5 L 12 11.25 L 15 11.25 L 15 7.5 L 15.75 7.5 L 15.75 6 Z M 15 6 "/>
<path fill-rule="nonzero" fill="rgb(85.488892%, 10.980225%, 4.31366%)" fill-opacity="1" d="M 15.75 9.75 L 15.75 10.5 L 15 10.5 L 15 9.75 L 14.25 9.75 L 14.25 10.5 L 12.75 10.5 L 12.75 9.75 L 12 9.75 L 12 10.5 L 11.25 10.5 L 11.25 9.75 L 10.5 9.75 L 10.5 16.5 L 16.5 16.5 L 16.5 9.75 Z M 15.75 9.75 "/>
<path fill-rule="nonzero" fill="rgb(0%, 0%, 0%)" fill-opacity="1" d="M 12.75 9 L 14.25 9 L 14.25 10.5 L 12.75 10.5 Z M 12.75 9 "/>
<path fill-rule="nonzero" fill="rgb(0%, 0%, 0%)" fill-opacity="1" d="M 14.25 9 C 14.25 9.414062 13.914062 9.75 13.5 9.75 C 13.085938 9.75 12.75 9.414062 12.75 9 C 12.75 8.585938 13.085938 8.25 13.5 8.25 C 13.914062 8.25 14.25 8.585938 14.25 9 Z M 14.25 9 "/>
<path fill-rule="nonzero" fill="rgb(0%, 0%, 0%)" fill-opacity="1" d="M 14.582031 13.722656 C 14.582031 13.125 14.097656 12.640625 13.5 12.640625 C 12.902344 12.640625 12.417969 13.125 12.417969 13.722656 L 12.417969 15.347656 L 14.582031 15.347656 Z M 14.582031 13.722656 "/>
<path fill-rule="nonzero" fill="rgb(100%, 94.508362%, 0%)" fill-opacity="1" d="M 13.621094 17.511719 L 13.621094 17.613281 L 14.429688 18.421875 L 13.621094 19.226562 L 13.621094 22.765625 L 13.359375 22.765625 L 13.359375 22.371094 L 12.46875 22.371094 L 12.46875 21.839844 L 12.726562 21.839844 L 12.726562 22.113281 L 13.359375 22.113281 L 13.359375 21.324219 L 12.726562 21.324219 L 12.726562 21.589844 L 12.46875 21.589844 L 12.46875 21.066406 L 13.359375 21.066406 L 13.359375 19.226562 L 12.550781 18.421875 L 13.359375 17.613281 L 13.359375 17.511719 Z M 13.621094 17.511719 "/>
<path fill-rule="nonzero" fill="rgb(85.488892%, 10.980225%, 4.31366%)" fill-opacity="1" d="M 12.929688 18.417969 L 13.492188 17.855469 L 14.050781 18.417969 L 13.492188 18.980469 Z M 12.929688 18.417969 "/>
<path fill-rule="nonzero" fill="rgb(100%, 94.508362%, 0%)" fill-opacity="1" d="M 13.609375 15.988281 L 13.390625 15.988281 C 13.207031 15.988281 13.058594 16.214844 13.058594 16.492188 L 13.058594 17.496094 C 13.058594 17.773438 13.207031 17.996094 13.390625 17.996094 L 13.609375 17.996094 C 13.792969 17.996094 13.941406 17.773438 13.941406 17.496094 L 13.941406 16.492188 C 13.941406 16.214844 13.792969 15.988281 13.609375 15.988281 Z M 13.691406 17.511719 C 13.691406 17.667969 13.609375 17.792969 13.507812 17.792969 C 13.40625 17.792969 13.320312 17.667969 13.320312 17.511719 L 13.320312 16.5 C 13.320312 16.34375 13.40625 16.21875 13.507812 16.21875 C 13.609375 16.21875 13.691406 16.34375 13.691406 16.5 Z M 13.691406 17.511719 "/>
<path fill-rule="nonzero" fill="rgb(100%, 94.508362%, 0%)" fill-opacity="1" d="M 14.496094 15.199219 C 14.414062 15.152344 14.308594 15.15625 14.257812 15.199219 L 13.5 15.882812 L 12.742188 15.199219 C 12.691406 15.15625 12.585938 15.15625 12.503906 15.199219 C 12.425781 15.242188 12.402344 15.316406 12.453125 15.363281 L 13.375 16.191406 C 13.402344 16.21875 13.449219 16.226562 13.5 16.222656 C 13.550781 16.226562 13.59375 16.21875 13.625 16.191406 L 14.546875 15.363281 C 14.601562 15.316406 14.578125 15.242188 14.496094 15.199219 Z M 14.496094 15.199219 "/>
</svg>