<svg xmlns="http://www.w3.org/2000/svg" xmlns:xlink="http://www.w3.org/1999/xlink" viewBox="0 0 27 27">
<path fill-rule="nonzero" fill="rgb(81.567383%, 4.705811%, 19.999695%)" fill-opacity="1" d="M 0 20.25 C 0 21.90625 1.34375 23.25 3 23.25 L 24 23.25 C 25.65625 23.25 27 21.90625 27 20.25 L 27 13.5 L 0 13.5 Z M 0 20.25 "/>
<path fill-rule="nonzero" fill="rgb(93.331909%, 93.331909%, 93.331909%)" fill-opacity="1" d="M 24 3.75 L 3 3.75 C 1.34375 3.75 0 5.09375 0 6.75 L 0 13.5 L 27 13.5 L 27 6.75 C 27 5.09375 25.65625 3.75 24 3.75 Z M 24 3.75 "/>
<path fill-rule="nonzero" fill="rgb(93.331909%, 93.331909%, 93.331909%)" fill-opacity="1" d="M 16.125 13.5 C 16.125 16.8125 13.4375 19.5 10.125 19.5 C 6.8125 19.5 4.125 16.8125 4.125 13.5 C 4.125 10.1875 6.8125 7.5 10.125 7.5 C 13.4375 7.5 16.125 10.1875 16.125 13.5 Z M 16.125 13.5 "/>
<path fill-rule="nonzero" fill="rgb(81.567383%, 4.705811%, 19.999695%)" fill-opacity="1" d="M 10.125 7.5 C 6.8125 7.5 4.125 10.1875 4.125 13.5 L 16.125 13.5 C 16.125 10.1875 13.4375 7.5 10.125 7.5 Z M 10.125 7.5 "/>
</svg>