<svg xmlns="http://www.w3.org/2000/svg" xmlns:xlink="http://www.w3.org/1999/xlink" viewBox="0 0 27 27">
<path fill-rule="nonzero" fill="rgb(0%, 14.117432%, 53.33252%)" fill-opacity="1" d="M 27 20.25 C 27 21.90625 25.65625 23.25 24 23.25 L 3 23.25 C 1.34375 23.25 0 21.90625 0 20.25 L 0 6.75 C 0 5.09375 1.34375 3.75 3 3.75 L 24 3.75 C 25.65625 3.75 27 5.09375 27 6.75 Z M 27 20.25 "/>
<path fill-rule="nonzero" fill="rgb(7.843018%, 7.843018%, 7.843018%)" fill-opacity="1" d="M 0 20.25 C 0 21.90625 1.34375 23.25 3 23.25 L 24 23.25 C 25.65625 23.25 27 21.90625 27 20.25 L 27 10.5 L 0 10.5 Z M 0 20.25 "/>
<path fill-rule="nonzero" fill="rgb(0%, 50.195312%, 0%)" fill-opacity="1" d="M 21.75 21.359375 C 21.75 21.359375 15.453125 18.046875 12.40625 17.046875 C 9.359375 16.046875 8.546875 16.828125 8.375 17.203125 C 8.703125 16.3125 9.046875 16.09375 9.046875 16.09375 C 9.046875 16.09375 7.84375 16.40625 7.859375 17.15625 C 7.609375 16.484375 8.453125 15.65625 9.5625 15.640625 C 8.5625 15.5 6.828125 15.65625 6.515625 16.640625 C 6.53125 15.625 8.296875 15.34375 9.015625 15.375 C 7.21875 14.8125 5.71875 14.828125 5.609375 15.578125 C 5.484375 15.25 5.828125 14.980469 5.828125 14.980469 C 5.828125 14.980469 5.125 14.917969 4.78125 15.234375 C 4.765625 14.953125 5.921875 14.671875 6.484375 14.734375 C 5.5 14.34375 4.734375 14.277344 4.546875 14.722656 C 4.484375 14.203125 6.3125 14.0625 7.15625 14.25 C 5.1875 13.53125 4.453125 13.25 3.71875 14.015625 C 3.71875 13.484375 4.359375 13.28125 4.8125 13.328125 C 4.421875 12.921875 4.125 12.65625 3.71875 12.640625 C 3.953125 12.546875 4.453125 12.734375 4.453125 12.734375 C 4.453125 12.734375 3.890625 12.140625 3.5 11.953125 C 4.1875 12.0625 5.46875 13.390625 5.5625 13.5 C 5.65625 13.609375 6.203125 13.734375 6.203125 13.734375 C 6.203125 13.734375 4.421875 12.28125 4.359375 11.8125 C 5.09375 12.171875 6.53125 13.75 6.53125 13.75 C 6.53125 13.75 6.890625 13.953125 6.90625 13.796875 C 6.921875 13.640625 4.75 12.21875 4.78125 11.40625 C 5.21875 12.011719 5.84375 12.703125 5.84375 12.703125 C 5.84375 12.703125 5.390625 12.105469 5.4375 11.558594 C 5.875 12.34375 6.53125 13.292969 7.125 13.621094 C 6.148438 12.664062 6.046875 12.105469 6.125 11.902344 C 6.65625 12.871094 7.515625 13.839844 7.65625 13.902344 C 7.796875 13.96875 7.875 13.949219 7.875 13.949219 C 7.875 13.949219 7.265625 13.308594 7.171875 12.902344 C 7.59375 13.199219 7.890625 13.886719 7.984375 13.917969 C 8.078125 13.949219 8.1875 13.886719 8.1875 13.886719 C 8.1875 13.886719 7.28125 12.949219 7.28125 12.496094 C 7.71875 12.839844 8.296875 13.792969 8.375 13.933594 C 8.453125 14.074219 8.8125 14.324219 8.859375 14.214844 C 8.90625 14.105469 7.5625 12.886719 7.953125 12.683594 C 8.578125 13.199219 8.9375 13.949219 9 13.964844 C 9.066406 13.980469 9.34375 14.089844 9.296875 13.996094 C 9.253906 13.902344 8.417969 12.847656 8.625 12.261719 C 8.671875 12.886719 9.3125 14.074219 10.421875 14.339844 C 11.53125 14.605469 14.828125 16.824219 17.03125 17.484375 C 19.234375 18.140625 23.203125 19.015625 23.203125 19.015625 L 23.078125 19.203125 C 23.078125 19.203125 17.25 17.671875 17.25 17.71875 C 17.25 17.765625 17.421875 17.921875 17.421875 17.921875 C 17.421875 17.921875 23.015625 19.390625 23 19.4375 C 22.984375 19.484375 22.875 19.703125 22.875 19.703125 L 17.203125 17.9375 L 17.03125 17.9375 C 17.03125 17.9375 22.6875 19.84375 22.6875 19.890625 C 22.6875 19.9375 22.578125 20.140625 22.578125 20.140625 L 16.734375 17.9375 L 16.921875 18.15625 C 16.921875 18.15625 22.5 20.28125 22.484375 20.34375 C 22.46875 20.40625 22.328125 20.5625 22.328125 20.5625 L 17.015625 18.390625 L 16.703125 18.3125 L 22.234375 20.703125 L 22.0625 20.90625 L 16.921875 18.625 L 16.75 18.625 L 21.953125 21.203125 Z M 21.75 21.359375 "/>
<path fill-rule="nonzero" fill="rgb(98.822021%, 86.665344%, 3.529358%)" fill-opacity="1" d="M 19.011719 18.257812 C 19.011719 18.257812 18.820312 17.597656 17.535156 17.570312 L 17.539062 17.566406 C 18.238281 16.867188 18.875 16.933594 19.222656 17.070312 C 19.222656 17.070312 18.898438 16.484375 17.679688 16.699219 C 18.214844 15.941406 18.828125 15.878906 19.1875 15.945312 C 19.1875 15.945312 18.738281 15.402344 17.523438 15.910156 C 17.53125 15.894531 17.542969 15.878906 17.550781 15.859375 C 17.902344 14.9375 18.511719 14.738281 18.882812 14.71875 C 18.882812 14.71875 18.351562 14.3125 17.328125 15.003906 C 17.511719 14.101562 18.042969 13.796875 18.394531 13.710938 C 18.394531 13.710938 17.765625 13.398438 16.871094 14.347656 C 16.871094 14.335938 16.875 14.324219 16.875 14.3125 C 16.824219 13.324219 17.300781 12.894531 17.632812 12.730469 C 17.632812 12.730469 16.960938 12.566406 16.300781 13.664062 L 16.296875 13.660156 C 16.039062 12.707031 16.414062 12.1875 16.707031 11.953125 C 16.707031 11.953125 16.023438 11.9375 15.605469 13.136719 C 15.167969 12.269531 15.421875 11.6875 15.660156 11.402344 C 15.660156 11.402344 14.988281 11.53125 14.828125 12.785156 C 14.226562 12.027344 14.355469 11.410156 14.527344 11.082031 C 14.527344 11.082031 13.898438 11.34375 14 12.609375 C 13.253906 11.988281 13.25 11.355469 13.351562 11 C 13.351562 11 12.789062 11.386719 13.148438 12.601562 C 12.289062 12.152344 12.15625 11.53125 12.179688 11.160156 C 12.179688 11.160156 11.707031 11.660156 12.320312 12.78125 C 11.371094 12.523438 11.109375 11.941406 11.054688 11.570312 C 11.054688 11.570312 10.695312 12.152344 11.515625 13.109375 C 10.558594 13.039062 10.1875 12.535156 10.0625 12.1875 C 10.0625 12.1875 9.824219 12.839844 10.851562 13.621094 C 10.847656 13.621094 10.839844 13.621094 10.835938 13.621094 C 9.859375 13.777344 9.382812 13.351562 9.179688 13.035156 C 9.179688 13.035156 9.09375 13.695312 10.195312 14.234375 C 9.328125 14.515625 8.804688 14.210938 8.558594 13.949219 C 8.558594 13.949219 8.597656 14.652344 9.878906 14.953125 C 9.859375 14.964844 9.84375 14.972656 9.828125 14.980469 C 9 15.515625 8.390625 15.320312 8.078125 15.113281 C 8.078125 15.113281 8.273438 15.773438 9.554688 15.800781 L 9.550781 15.804688 C 8.855469 16.503906 8.21875 16.441406 7.867188 16.300781 C 7.867188 16.300781 8.195312 16.886719 9.410156 16.671875 C 8.875 17.429688 8.261719 17.492188 7.90625 17.429688 C 7.90625 17.429688 8.351562 17.972656 9.566406 17.460938 C 9.558594 17.476562 9.546875 17.492188 9.539062 17.511719 C 9.1875 18.433594 8.582031 18.636719 8.207031 18.652344 C 8.207031 18.652344 8.738281 19.058594 9.761719 18.367188 C 9.578125 19.269531 9.046875 19.574219 8.695312 19.660156 C 8.695312 19.660156 9.324219 19.972656 10.21875 19.023438 C 10.21875 19.035156 10.214844 19.046875 10.214844 19.058594 C 10.265625 20.042969 9.792969 20.476562 9.457031 20.640625 C 9.457031 20.640625 10.128906 20.804688 10.792969 19.703125 L 10.792969 19.707031 C 11.050781 20.660156 10.675781 21.183594 10.382812 21.414062 C 10.382812 21.414062 11.070312 21.433594 11.488281 20.234375 C 11.921875 21.101562 11.667969 21.679688 11.429688 21.96875 C 11.429688 21.96875 12.101562 21.839844 12.261719 20.585938 C 12.863281 21.34375 12.734375 21.960938 12.5625 22.289062 C 12.5625 22.289062 13.195312 22.023438 13.09375 20.761719 C 13.839844 21.382812 13.839844 22.015625 13.738281 22.371094 C 13.738281 22.371094 14.304688 21.984375 13.941406 20.765625 C 14.804688 21.21875 14.933594 21.839844 14.910156 22.207031 C 14.910156 22.207031 15.382812 21.710938 14.773438 20.589844 C 15.722656 20.847656 15.984375 21.429688 16.039062 21.796875 C 16.039062 21.796875 16.398438 21.21875 15.578125 20.257812 C 16.535156 20.328125 16.902344 20.835938 17.03125 21.183594 C 17.03125 21.183594 17.269531 20.53125 16.242188 19.746094 L 16.257812 19.746094 C 17.234375 19.59375 17.710938 20.019531 17.910156 20.335938 C 17.910156 20.335938 17.996094 19.675781 16.898438 19.132812 C 17.761719 18.851562 18.285156 19.160156 18.535156 19.421875 C 18.535156 19.421875 18.496094 18.71875 17.214844 18.414062 C 17.230469 18.402344 17.246094 18.398438 17.261719 18.386719 C 18.09375 17.855469 18.703125 18.050781 19.011719 18.257812 Z M 4.6875 8.5625 C 4.6875 8.5625 4.71875 7.453125 4 6.859375 C 3.28125 6.265625 2.828125 6.90625 2.859375 7.265625 C 2.890625 7.625 3.199219 8.09375 3.773438 8.265625 C 3.421875 7.578125 3.898438 7.566406 4.0625 7.65625 C 4.296875 7.785156 4.421875 8.125 4.421875 8.5625 Z M 5.015625 4.703125 C 4.234375 5.109375 4.265625 6.3125 4.515625 6.921875 C 4.765625 7.53125 4.828125 8.5625 4.828125 8.5625 L 5.203125 8.5625 C 5.203125 8.5625 5.265625 7.53125 5.515625 6.921875 C 5.765625 6.3125 5.796875 5.109375 5.015625 4.703125 Z M 5.34375 8.5625 C 5.34375 8.5625 5.3125 7.453125 6.03125 6.859375 C 6.75 6.265625 7.203125 6.90625 7.171875 7.265625 C 7.140625 7.625 6.832031 8.09375 6.257812 8.265625 C 6.609375 7.578125 6.132812 7.566406 5.96875 7.65625 C 5.734375 7.785156 5.609375 8.125 5.609375 8.5625 Z M 5.015625 8.703125 L 4.359375 8.757812 L 5.015625 8.8125 L 5.671875 8.757812 Z M 5.871094 9.515625 C 5.460938 9.292969 5.34375 8.953125 5.34375 8.953125 L 4.6875 8.953125 C 4.6875 8.953125 4.570312 9.292969 4.160156 9.515625 C 4.523438 9.574219 4.898438 9.386719 4.898438 9.386719 C 4.898438 9.386719 4.6875 9.902344 5.015625 10.40625 C 5.34375 9.902344 5.132812 9.386719 5.132812 9.386719 C 5.132812 9.386719 5.507812 9.574219 5.871094 9.515625 Z M 13.171875 8.5625 C 13.171875 8.5625 13.203125 7.453125 12.484375 6.859375 C 11.765625 6.265625 11.3125 6.90625 11.34375 7.265625 C 11.375 7.625 11.683594 8.09375 12.257812 8.265625 C 11.90625 7.578125 12.382812 7.566406 12.546875 7.65625 C 12.78125 7.785156 12.90625 8.125 12.90625 8.5625 Z M 13.5 4.703125 C 12.71875 5.109375 12.75 6.3125 13 6.921875 C 13.25 7.53125 13.3125 8.5625 13.3125 8.5625 L 13.6875 8.5625 C 13.6875 8.5625 13.75 7.53125 14 6.921875 C 14.25 6.3125 14.28125 5.109375 13.5 4.703125 Z M 13.828125 8.5625 C 13.828125 8.5625 13.796875 7.453125 14.515625 6.859375 C 15.234375 6.265625 15.6875 6.90625 15.65625 7.265625 C 15.625 7.625 15.316406 8.09375 14.742188 8.265625 C 15.09375 7.578125 14.617188 7.566406 14.453125 7.65625 C 14.21875 7.785156 14.09375 8.125 14.09375 8.5625 Z M 13.5 8.703125 L 12.84375 8.757812 L 13.5 8.8125 L 14.15625 8.757812 Z M 14.355469 9.515625 C 13.945312 9.292969 13.828125 8.953125 13.828125 8.953125 L 13.171875 8.953125 C 13.171875 8.953125 13.054688 9.292969 12.644531 9.515625 C 13.007812 9.574219 13.382812 9.386719 13.382812 9.386719 C 13.382812 9.386719 13.171875 9.902344 13.5 10.40625 C 13.828125 9.902344 13.617188 9.386719 13.617188 9.386719 C 13.617188 9.386719 13.992188 9.574219 14.355469 9.515625 Z M 21.714844 8.5625 C 21.714844 8.5625 21.746094 7.453125 21.027344 6.859375 C 20.308594 6.265625 19.855469 6.90625 19.886719 7.265625 C 19.917969 7.625 20.226562 8.09375 20.800781 8.265625 C 20.449219 7.578125 20.925781 7.566406 21.089844 7.65625 C 21.324219 7.785156 21.449219 8.125 21.449219 8.5625 Z M 22.042969 4.703125 C 21.261719 5.109375 21.292969 6.3125 21.542969 6.921875 C 21.792969 7.53125 21.855469 8.5625 21.855469 8.5625 L 22.230469 8.5625 C 22.230469 8.5625 22.292969 7.53125 22.542969 6.921875 C 22.792969 6.3125 22.824219 5.109375 22.042969 4.703125 Z M 22.371094 8.5625 C 22.371094 8.5625 22.339844 7.453125 23.058594 6.859375 C 23.777344 6.265625 24.230469 6.90625 24.199219 7.265625 C 24.167969 7.625 23.859375 8.09375 23.285156 8.265625 C 23.636719 7.578125 23.160156 7.566406 22.996094 7.65625 C 22.761719 7.785156 22.636719 8.125 22.636719 8.5625 Z M 22.042969 8.703125 L 21.386719 8.757812 L 22.042969 8.8125 L 22.699219 8.757812 Z M 22.898438 9.515625 C 22.488281 9.292969 22.371094 8.953125 22.371094 8.953125 L 21.714844 8.953125 C 21.714844 8.953125 21.597656 9.292969 21.1875 9.515625 C 21.550781 9.574219 21.925781 9.386719 21.925781 9.386719 C 21.925781 9.386719 21.714844 9.902344 22.042969 10.40625 C 22.371094 9.902344 22.160156 9.386719 22.160156 9.386719 C 22.160156 9.386719 22.535156 9.574219 22.898438 9.515625 Z M 22.898438 9.515625 "/>
</svg>