<svg xmlns="http://www.w3.org/2000/svg" xmlns:xlink="http://www.w3.org/1999/xlink" viewBox="0 0 27 27">
<path fill-rule="nonzero" fill="rgb(0%, 14.117432%, 49.01886%)" fill-opacity="1" d="M 24 3.75 L 3 3.75 C 2.847656 3.75 2.695312 3.761719 2.546875 3.785156 L 2.542969 5.097656 L 0.496094 5.097656 C 0.183594 5.570312 0 6.140625 0 6.75 L 0 20.25 C 0 21.90625 1.34375 23.25 3 23.25 L 24 23.25 C 25.65625 23.25 27 21.90625 27 20.25 L 27 6.75 C 27 5.09375 25.65625 3.75 24 3.75 Z M 24 3.75 "/>
<path fill-rule="nonzero" fill="rgb(80.39093%, 67.842102%, 34.117126%)" fill-opacity="1" d="M 19.992188 7.5 C 19.890625 7.421875 19.734375 7.324219 19.511719 7.195312 C 19.289062 7.066406 19.242188 6.796875 19.347656 6.597656 C 19.453125 6.398438 19.703125 6.328125 19.640625 6.515625 C 19.582031 6.703125 19.515625 6.933594 19.640625 6.953125 C 19.769531 6.972656 19.734375 6.703125 19.851562 6.714844 C 19.96875 6.726562 19.734375 7.148438 19.851562 7.160156 C 19.96875 7.171875 19.933594 6.785156 20.0625 6.832031 C 20.191406 6.878906 20.167969 7.21875 20.0625 7.242188 C 19.957031 7.265625 20.074219 7.417969 20.148438 7.5 C 20.226562 7.582031 20.097656 7.582031 19.992188 7.5 Z M 20.589844 7.5 C 20.691406 7.421875 20.847656 7.324219 21.070312 7.195312 C 21.292969 7.066406 21.339844 6.796875 21.234375 6.597656 C 21.128906 6.398438 20.878906 6.328125 20.941406 6.515625 C 21 6.703125 21.066406 6.933594 20.941406 6.953125 C 20.8125 6.972656 20.847656 6.703125 20.730469 6.714844 C 20.617188 6.726562 20.847656 7.148438 20.730469 7.160156 C 20.617188 7.171875 20.652344 6.785156 20.523438 6.832031 C 20.390625 6.878906 20.414062 7.21875 20.523438 7.242188 C 20.628906 7.265625 20.507812 7.417969 20.433594 7.5 C 20.355469 7.582031 20.484375 7.582031 20.589844 7.5 Z M 20.589844 7.5 "/>
<path fill-rule="nonzero" fill="rgb(57.254028%, 24.705505%, 0%)" fill-opacity="1" d="M 20.1875 8.15625 C 20.257812 7.894531 20.171875 7.640625 19.96875 7.71875 C 19.765625 7.796875 19.578125 7.671875 19.609375 7.609375 C 19.640625 7.546875 19.875 7.359375 20.1875 7.359375 C 20.5 7.359375 20.90625 7.53125 20.875 7.609375 C 20.84375 7.6875 20.5 7.757812 20.5 7.757812 C 20.5 7.757812 20.546875 8.0625 21.125 8.0625 C 21.703125 8.0625 22.1875 8.203125 22.078125 8.90625 C 21.96875 9.609375 21.9375 9.703125 21.84375 9.671875 C 21.75 9.640625 21.734375 9.40625 21.78125 9.203125 C 21.828125 9 21.703125 8.71875 21.640625 8.921875 C 21.578125 9.125 21.453125 9.515625 21.296875 9.546875 C 21.140625 9.578125 21.359375 8.953125 21.34375 8.8125 C 21.328125 8.671875 20.96875 8.703125 20.953125 8.921875 C 20.9375 9.140625 20.980469 9.5 20.847656 9.59375 C 20.71875 9.6875 20.703125 9.375 20.71875 9.15625 C 20.734375 8.9375 20.578125 8.59375 20.5625 8.890625 C 20.546875 9.1875 20.53125 9.5625 20.390625 9.609375 C 20.25 9.65625 20.390625 9.25 20.34375 9 C 20.296875 8.75 20.109375 8.453125 20.1875 8.15625 Z M 20.1875 8.15625 "/>
<path fill-rule="nonzero" fill="rgb(100%, 100%, 100%)" fill-opacity="1" d="M 20.636719 11.707031 C 20.4375 11.894531 19.6875 12.316406 19.394531 11.625 C 20.097656 11.90625 20.511719 11.296875 20.511719 11.296875 Z M 19.605469 10.042969 C 19.292969 9.082031 18.597656 9 18.597656 9 C 18.597656 9 18.5625 9.304688 18.714844 9.519531 C 18.210938 9.476562 17.71875 9.246094 17.71875 9.246094 C 17.578125 9.644531 18.421875 10.066406 18.9375 10.042969 C 18.691406 10.289062 18.925781 10.5 19.160156 10.542969 C 19.042969 10.253906 19.417969 10.0625 19.5 10.285156 C 19.582031 10.511719 19.605469 10.042969 19.605469 10.042969 Z M 19.605469 10.042969 "/>
<path fill-rule="nonzero" fill="rgb(8.235168%, 0%, 100%)" fill-opacity="1" d="M 19.734375 11.699219 C 19.101562 11.765625 18.652344 10.796875 18.65625 10.507812 C 19.03125 10.617188 19.335938 10.875 19.335938 10.875 C 19.335938 10.875 19.4375 10.019531 19.515625 9.808594 C 19.828125 10.042969 19.910156 10.699219 19.804688 11.003906 C 20.148438 11.019531 20.214844 11.308594 20.109375 11.519531 C 19.945312 11.285156 19.773438 11.507812 19.734375 11.699219 Z M 19.734375 11.699219 "/>
<path fill-rule="nonzero" fill="rgb(100%, 100%, 100%)" fill-opacity="1" d="M 21.558594 11.707031 C 21.757812 11.894531 22.507812 12.316406 22.800781 11.625 C 22.097656 11.90625 21.683594 11.296875 21.683594 11.296875 Z M 22.589844 10.042969 C 22.902344 9.082031 23.597656 9 23.597656 9 C 23.597656 9 23.632812 9.304688 23.480469 9.519531 C 23.984375 9.476562 24.476562 9.246094 24.476562 9.246094 C 24.617188 9.644531 23.773438 10.066406 23.257812 10.042969 C 23.503906 10.289062 23.269531 10.5 23.035156 10.542969 C 23.152344 10.253906 22.777344 10.0625 22.695312 10.285156 C 22.613281 10.511719 22.589844 10.042969 22.589844 10.042969 Z M 22.589844 10.042969 "/>
<path fill-rule="nonzero" fill="rgb(8.235168%, 0%, 100%)" fill-opacity="1" d="M 22.460938 11.699219 C 23.09375 11.765625 23.542969 10.796875 23.542969 10.507812 C 23.164062 10.617188 22.859375 10.875 22.859375 10.875 C 22.859375 10.875 22.761719 10.019531 22.679688 9.808594 C 22.367188 10.042969 22.285156 10.699219 22.390625 11.003906 C 22.046875 11.019531 21.980469 11.308594 22.085938 11.519531 C 22.25 11.285156 22.421875 11.507812 22.460938 11.699219 Z M 22.460938 11.699219 "/>
<path fill-rule="nonzero" fill="rgb(39.607239%, 38.430786%, 38.822937%)" fill-opacity="1" d="M 21.152344 13.054688 C 20.179688 13.054688 19.839844 12.609375 19.933594 12.304688 C 20.027344 12 20.355469 12.164062 20.460938 12.082031 C 20.566406 12 20.566406 11.460938 20.320312 11.214844 C 20.074219 10.96875 19.921875 10.710938 20.027344 10.582031 C 19.886719 10.347656 20.105469 10.242188 20.171875 9.972656 C 20.238281 9.703125 20.308594 9.453125 20.410156 9.421875 C 20.511719 9.390625 20.566406 9.644531 20.601562 9.597656 C 20.636719 9.550781 20.675781 9.339844 20.847656 9.328125 C 21.023438 9.316406 21 9.503906 21.058594 9.550781 C 21.117188 9.597656 21.164062 9.332031 21.328125 9.328125 C 21.492188 9.324219 21.535156 9.550781 21.609375 9.5625 C 21.679688 9.574219 21.703125 9.394531 21.839844 9.421875 C 21.980469 9.449219 21.933594 9.808594 22.027344 9.960938 C 22.121094 10.113281 22.320312 10.40625 22.203125 10.582031 C 22.367188 10.699219 22.191406 10.910156 21.992188 11.0625 C 21.792969 11.214844 21.558594 11.589844 21.699219 12.011719 C 21.828125 12.292969 22.320312 12 22.4375 12.175781 C 22.558594 12.351562 22.511719 13.054688 21.152344 13.054688 Z M 21.152344 13.054688 "/>
<path fill-rule="nonzero" fill="rgb(100%, 100%, 100%)" fill-opacity="1" d="M 19.917969 10.417969 C 19.917969 10.136719 20.671875 10.042969 21.09375 10.042969 C 21.515625 10.042969 22.289062 10.140625 22.289062 10.417969 C 22.289062 10.695312 21.699219 10.417969 21.105469 10.417969 C 20.507812 10.417969 19.917969 10.6875 19.917969 10.417969 Z M 19.917969 10.417969 "/>
<path fill-rule="nonzero" fill="rgb(8.235168%, 0%, 100%)" fill-opacity="1" d="M 20.691406 10.066406 C 20.558594 10.082031 20.425781 10.105469 20.308594 10.136719 C 20.269531 10.265625 20.292969 10.402344 20.359375 10.507812 C 20.472656 10.488281 20.601562 10.464844 20.738281 10.445312 C 20.65625 10.355469 20.625 10.21875 20.691406 10.066406 Z M 21.058594 10.042969 L 21.058594 10.421875 C 21.074219 10.417969 21.089844 10.417969 21.105469 10.417969 C 21.25 10.417969 21.390625 10.433594 21.527344 10.457031 C 21.570312 10.410156 21.597656 10.355469 21.597656 10.292969 C 21.597656 10.203125 21.542969 10.128906 21.46875 10.0625 C 21.332031 10.050781 21.070312 10.042969 21.058594 10.042969 Z M 21.785156 10.5 C 22.078125 10.550781 22.289062 10.582031 22.289062 10.417969 C 22.289062 10.273438 22.074219 10.175781 21.8125 10.117188 C 21.855469 10.171875 21.890625 10.230469 21.890625 10.292969 C 21.890625 10.378906 21.839844 10.445312 21.785156 10.5 Z M 21.785156 10.5 "/>
<path fill-rule="nonzero" fill="rgb(67.842102%, 69.018555%, 69.802856%)" fill-opacity="1" d="M 19.996094 10.714844 C 20.027344 10.582031 21.105469 11.320312 21.105469 11.320312 C 21.105469 11.320312 22.242188 10.523438 22.253906 10.632812 C 22.265625 10.742188 21.105469 11.519531 21.105469 11.519531 C 21.105469 11.519531 19.964844 10.847656 19.996094 10.714844 Z M 19.996094 10.714844 "/>
<path fill-rule="nonzero" fill="rgb(41.567993%, 29.803467%, 17.64679%)" fill-opacity="1" d="M 20.015625 13.828125 C 19.5 14.320312 17.4375 16.101562 17.320312 16.476562 C 17.203125 16.851562 17.449219 16.945312 17.8125 16.699219 C 17.683594 16.992188 17.847656 17.109375 17.929688 17.121094 C 18.011719 17.132812 18.351562 17.015625 18.492188 16.710938 C 18.644531 16.957031 19.03125 16.992188 19.101562 16.945312 C 19.171875 16.898438 19.207031 16.816406 19.207031 16.816406 C 19.207031 16.816406 19.273438 17.167969 19.40625 17.121094 C 19.535156 17.074219 19.652344 16.886719 19.734375 16.898438 C 19.816406 16.910156 19.730469 17.074219 19.917969 17.0625 C 20.109375 17.050781 20.1875 16.96875 20.289062 16.863281 C 20.390625 16.757812 20.554688 16.910156 20.636719 16.886719 C 20.71875 16.863281 20.800781 16.359375 20.929688 15.996094 C 21.058594 15.632812 20.015625 13.828125 20.015625 13.828125 Z M 20.015625 13.828125 "/>
<path fill-rule="nonzero" fill="rgb(100%, 100%, 100%)" fill-opacity="1" d="M 21.890625 15.65625 C 22.234375 15.734375 22.617188 15.640625 22.800781 15.75 C 22.984375 15.859375 23.125 15.953125 23.390625 15.96875 C 23.65625 15.984375 24.15625 15.75 24.265625 15.96875 C 24.375 16.1875 24.515625 16.5 24.65625 16.546875 C 24.796875 16.59375 25.328125 16.765625 24.796875 16.796875 C 24.265625 16.828125 23.078125 16.796875 23.078125 16.796875 L 23.222656 16.984375 L 22.179688 17.046875 C 22.179688 17.046875 21.570312 16.515625 21.597656 16.140625 C 21.628906 15.765625 21.890625 15.65625 21.890625 15.65625 Z M 21.890625 15.65625 "/>
<path fill-rule="nonzero" fill="rgb(0%, 44.313049%, 23.921204%)" fill-opacity="1" d="M 20.636719 15.65625 C 20.214844 15.914062 20.410156 16.234375 20.410156 16.234375 C 20.410156 16.234375 20.480469 16.671875 20.511719 16.625 C 20.546875 16.578125 20.738281 16.421875 20.738281 16.421875 C 20.738281 16.421875 20.703125 16.773438 20.710938 16.757812 C 20.714844 16.742188 20.941406 16.757812 20.941406 16.757812 C 20.941406 16.757812 21.023438 17.066406 21.058594 17.125 C 21.09375 17.1875 21.289062 16.984375 21.289062 16.984375 C 21.289062 16.984375 21.476562 17.105469 21.558594 17.136719 C 21.640625 17.171875 21.671875 16.921875 21.671875 16.921875 C 21.671875 16.921875 21.894531 17.207031 22.039062 17.125 C 22.179688 17.046875 22.359375 16.8125 22.359375 16.8125 L 22.09375 16.578125 C 22.09375 16.578125 22.140625 16.515625 22.09375 16.398438 C 22.046875 16.28125 21.875 16.234375 21.875 16.234375 C 21.875 16.234375 22.046875 16.109375 21.921875 16.03125 C 21.796875 15.953125 21.335938 15.234375 20.636719 15.65625 Z M 20.636719 15.65625 "/>
<path fill-rule="nonzero" fill="rgb(100%, 100%, 100%)" fill-opacity="1" d="M 22.546875 12.738281 L 22.332031 12.738281 L 21.199219 13.5 L 20.066406 12.738281 L 19.78125 12.738281 L 19.78125 14.402344 C 19.78125 14.546875 19.808594 14.773438 19.890625 15.027344 C 19.957031 15.226562 20.058594 15.4375 20.222656 15.640625 C 20.300781 15.742188 20.394531 15.835938 20.503906 15.929688 C 20.652344 16.054688 20.835938 16.167969 21.050781 16.261719 C 21.101562 16.285156 21.144531 16.316406 21.199219 16.335938 C 21.257812 16.3125 21.304688 16.285156 21.359375 16.261719 C 21.570312 16.164062 21.753906 16.050781 21.902344 15.925781 C 22.015625 15.828125 22.113281 15.730469 22.195312 15.625 C 22.355469 15.417969 22.445312 15.195312 22.519531 15 C 22.605469 14.765625 22.621094 14.542969 22.621094 14.402344 L 22.621094 12.738281 Z M 22.546875 12.738281 "/>
<path fill-rule="nonzero" fill="rgb(11.764526%, 35.293579%, 65.097046%)" fill-opacity="1" d="M 22.621094 13.441406 L 22.316406 13.042969 L 22.550781 12.738281 L 22.335938 12.738281 L 21.199219 13.5 L 20.066406 12.738281 L 19.878906 12.738281 L 20.113281 13.042969 L 19.78125 13.472656 L 19.78125 13.5 L 20.101562 13.917969 L 19.78125 14.335938 L 19.78125 14.363281 L 20.089844 14.765625 L 19.890625 15.027344 C 19.957031 15.226562 20.058594 15.4375 20.222656 15.640625 L 20.511719 15.265625 L 20.761719 15.589844 L 20.503906 15.929688 C 20.652344 16.054688 20.835938 16.164062 21.050781 16.261719 L 21.203125 16.058594 L 21.359375 16.257812 C 21.570312 16.160156 21.753906 16.050781 21.902344 15.925781 L 21.648438 15.589844 L 21.90625 15.253906 L 22.195312 15.625 C 22.355469 15.417969 22.453125 15.203125 22.519531 15 L 22.335938 14.765625 L 22.621094 14.398438 L 22.621094 14.300781 L 22.324219 13.917969 L 22.621094 13.535156 Z M 22.183594 13.917969 L 21.90625 14.28125 L 21.628906 13.917969 L 21.90625 13.558594 Z M 21.640625 14.765625 L 21.90625 14.421875 L 22.171875 14.765625 L 21.90625 15.113281 Z M 20.78125 13.917969 L 20.511719 14.265625 L 20.242188 13.917969 L 20.511719 13.570312 Z M 20.253906 14.765625 L 20.511719 14.433594 L 20.769531 14.765625 L 20.511719 15.097656 Z M 20.9375 15.589844 L 21.203125 15.242188 L 21.472656 15.589844 L 21.203125 15.9375 Z M 20.9375 15.589844 "/>
<path fill-rule="nonzero" fill="rgb(0.392151%, 42.352295%, 0%)" fill-opacity="1" d="M 21.199219 12.9375 C 20.898438 12.753906 20.441406 12.734375 20.066406 12.738281 L 21.195312 15.910156 C 21.195312 15.925781 21.203125 15.925781 21.203125 15.910156 L 22.335938 12.738281 C 21.957031 12.734375 21.5 12.753906 21.199219 12.9375 Z M 21.199219 12.9375 "/>
<path fill-rule="nonzero" fill="rgb(54.508972%, 58.03833%, 59.214783%)" fill-opacity="1" d="M 17.941406 13.230469 C 17.96875 12.480469 18.09375 12.105469 18.082031 11.8125 C 18.070312 11.519531 18.328125 11.519531 18.527344 11.460938 C 18.726562 11.402344 18.820312 11.566406 18.984375 11.578125 C 19.148438 11.589844 19.242188 11.613281 19.195312 11.8125 C 19.148438 12.011719 18.996094 12.269531 18.960938 12.339844 C 18.925781 12.410156 19.160156 12.855469 19.347656 13.230469 C 19.535156 13.605469 19.804688 14.085938 19.605469 14.835938 C 19.40625 15.585938 19.289062 15.855469 19.207031 15.914062 C 19.125 15.972656 19.191406 15.421875 19.117188 15.164062 C 19.042969 14.90625 18.949219 14.847656 18.949219 14.847656 C 18.949219 14.847656 18.632812 15.144531 18.515625 15.523438 C 18.398438 15.902344 18.492188 16.175781 18.714844 16.332031 C 18.9375 16.488281 19.441406 16.582031 19.523438 16.628906 C 19.605469 16.675781 19.359375 16.78125 19.019531 16.757812 C 18.679688 16.734375 17.878906 16.449219 17.574219 16.128906 C 17.273438 15.808594 16.863281 15.285156 17.097656 14.707031 C 17.226562 14.390625 17.472656 14.285156 17.554688 14.179688 C 17.636719 14.074219 17.933594 13.453125 17.941406 13.230469 Z M 17.941406 13.230469 "/>
<path fill-rule="nonzero" fill="rgb(100%, 100%, 100%)" fill-opacity="1" d="M 23.648438 11.699219 C 23.902344 11.664062 24.539062 13.300781 24.609375 14.003906 C 24.679688 14.707031 24.667969 15.972656 24.246094 16.019531 C 23.824219 16.066406 23.445312 15.902344 23.3125 15.199219 C 23.179688 14.496094 23.28125 13.957031 23.3125 13.5 C 23.34375 13.042969 23.273438 11.753906 23.648438 11.699219 Z M 23.648438 11.699219 "/>
<path fill-rule="nonzero" fill="rgb(0%, 0%, 0%)" fill-opacity="1" d="M 23.542969 11.699219 C 23.558594 11.402344 23.847656 11.296875 24.1875 11.355469 C 24.527344 11.414062 24.503906 11.941406 24.492188 12.1875 C 24.480469 12.433594 25.023438 12.375 25.027344 13.699219 C 25.03125 15.023438 24.65625 15.773438 24.761719 15.960938 C 24.867188 16.148438 25.347656 16.394531 25.078125 16.441406 C 24.808594 16.488281 24.46875 16.207031 24.234375 16.125 C 24 16.042969 24.253906 15.714844 24.347656 15.316406 C 24.445312 14.917969 24.398438 14.484375 24.199219 14.539062 C 24 14.589844 24.28125 15.558594 23.953125 15.523438 C 23.625 15.492188 23.449219 14.769531 23.484375 14.105469 C 23.519531 13.441406 23.648438 13.394531 23.835938 13.183594 C 24.023438 12.972656 23.90625 12.878906 23.707031 12.65625 C 23.507812 12.433594 23.578125 12.257812 23.789062 12.140625 C 24 12.023438 23.515625 12.105469 23.542969 11.699219 Z M 23.542969 11.699219 "/>
<path fill-rule="nonzero" fill="rgb(100%, 100%, 100%)" fill-opacity="1" d="M 23.246094 12.832031 C 22.964844 12.855469 22.675781 12.9375 22.675781 13.054688 C 22.675781 13.171875 22.664062 13.558594 22.675781 13.605469 C 22.6875 13.652344 23.074219 13.40625 23.246094 13.417969 Z M 23.246094 12.832031 "/>
<path fill-rule="nonzero" fill="rgb(96.469116%, 41.960144%, 0.392151%)" fill-opacity="1" d="M 23.648438 11.699219 C 23.71875 11.339844 23.0625 11.683594 23.027344 11.777344 C 22.992188 11.871094 23.578125 12.070312 23.648438 11.699219 Z M 23.648438 11.699219 "/>
<path fill-rule="nonzero" fill="rgb(97.253418%, 94.116211%, 0.392151%)" fill-opacity="1" d="M 23.847656 11.519531 C 23.882812 11.414062 24.667969 11.285156 24.796875 11.296875 C 24.925781 11.308594 24.917969 11.28125 24.882812 11.339844 C 24.871094 11.359375 24.496094 11.410156 24.492188 11.449219 C 24.480469 11.511719 24.820312 11.472656 24.878906 11.519531 C 24.917969 11.550781 24.5 11.546875 24.570312 11.597656 C 24.664062 11.667969 25.019531 11.828125 24.917969 11.789062 C 24.734375 11.722656 23.789062 11.691406 23.847656 11.519531 Z M 23.847656 11.519531 "/>
<path fill-rule="nonzero" fill="rgb(96.469116%, 41.960144%, 0.392151%)" fill-opacity="1" d="M 23.722656 15.925781 C 23.546875 15.957031 23.003906 15.917969 23.191406 16.027344 C 23.378906 16.136719 23.4375 16.148438 23.4375 16.148438 C 23.4375 16.148438 23.101562 16.269531 23.246094 16.332031 C 23.390625 16.394531 23.722656 16.355469 23.945312 16.351562 C 24.164062 16.347656 24.328125 16.222656 24.234375 16.125 C 24.144531 16.023438 23.984375 15.878906 23.722656 15.925781 Z M 23.722656 15.925781 "/>
<path fill-rule="nonzero" fill="rgb(75.68512%, 8.627319%, 0%)" fill-opacity="1" d="M 18.789062 18.808594 C 19.210938 18.890625 19.761719 19.066406 19.761719 19.066406 L 19.691406 19.828125 C 19.691406 19.828125 19.515625 19.570312 18.589844 19.40625 C 18.484375 19.101562 18.789062 18.808594 18.789062 18.808594 Z M 18.929688 17.53125 C 18.929688 17.53125 18.941406 17.777344 18.613281 18.058594 C 18.285156 18.339844 17.910156 18.316406 17.933594 18 C 18.25 17.917969 18.167969 17.289062 18.433594 17.210938 C 18.402344 17.472656 18.507812 17.648438 18.929688 17.53125 Z M 23.785156 18.808594 C 23.363281 18.890625 22.8125 19.066406 22.8125 19.066406 L 22.882812 19.828125 C 22.882812 19.828125 23.058594 19.570312 23.984375 19.40625 C 24.089844 19.101562 23.785156 18.808594 23.785156 18.808594 Z M 23.785156 18.808594 "/>
<path fill-rule="nonzero" fill="rgb(100%, 73.724365%, 0%)" fill-opacity="1" d="M 23.597656 18.140625 C 23.867188 17.847656 24.054688 17.859375 24.195312 17.578125 C 24.335938 17.296875 24.125 17.074219 23.761719 17.140625 C 23.398438 17.207031 23.023438 17.789062 23.023438 17.789062 C 23.023438 17.789062 22.332031 17.378906 21.289062 17.378906 C 20.242188 17.378906 19.550781 17.789062 19.550781 17.789062 C 19.550781 17.789062 19.175781 17.207031 18.816406 17.140625 C 18.453125 17.074219 18.238281 17.296875 18.382812 17.578125 C 18.523438 17.859375 18.710938 17.847656 18.980469 18.140625 C 18.546875 18.433594 18.195312 19.019531 18.195312 19.019531 L 18.589844 19.40625 C 18.589844 19.40625 18.816406 19.03125 19.285156 18.644531 C 19.695312 19.113281 19.695312 19.828125 19.695312 19.828125 C 19.695312 19.828125 19.816406 19.324219 20.007812 19.160156 C 19.996094 18.703125 19.867188 18.363281 19.867188 18.363281 C 19.867188 18.363281 20.480469 17.988281 21.289062 17.988281 C 22.097656 17.988281 22.707031 18.363281 22.707031 18.363281 C 22.707031 18.363281 22.578125 18.703125 22.570312 19.160156 C 22.761719 19.324219 22.882812 19.828125 22.882812 19.828125 C 22.882812 19.828125 22.882812 19.113281 23.292969 18.644531 C 23.761719 19.03125 23.984375 19.40625 23.984375 19.40625 L 24.382812 19.019531 C 24.382812 19.019531 24.03125 18.433594 23.597656 18.140625 Z M 23.597656 18.140625 "/>
<path fill-rule="nonzero" fill="rgb(75.68512%, 8.627319%, 0%)" fill-opacity="1" d="M 23.644531 17.53125 C 23.644531 17.53125 23.632812 17.777344 23.960938 18.058594 C 24.289062 18.339844 24.664062 18.316406 24.640625 18 C 24.324219 17.917969 24.40625 17.289062 24.144531 17.210938 C 24.171875 17.472656 24.066406 17.648438 23.644531 17.53125 Z M 23.644531 17.53125 "/>
<path fill-rule="nonzero" fill="rgb(0%, 14.117432%, 49.01886%)" fill-opacity="1" d="M 14.25 13.5 L 14.25 3.75 L 3 3.75 C 2.761719 3.75 2.546875 3.785156 2.546875 3.785156 L 2.542969 5.097656 L 0.496094 5.097656 C 0.496094 5.097656 0.464844 5.140625 0.402344 5.25 C 0.144531 5.691406 0 6.203125 0 6.75 L 0 13.5 Z M 14.25 13.5 "/>
<path fill-rule="nonzero" fill="rgb(93.331909%, 93.331909%, 93.331909%)" fill-opacity="1" d="M 14.25 3.75 L 12.5 3.75 L 9 6.203125 L 9 3.75 L 5.25 3.75 L 5.25 5.675781 L 2.546875 3.785156 C 2.085938 3.855469 1.65625 4.027344 1.292969 4.28125 L 4.820312 6.75 L 3.515625 6.75 L 0.726562 4.792969 C 0.644531 4.890625 0.566406 4.988281 0.496094 5.097656 L 2.859375 6.75 L 0 6.75 L 0 10.5 L 2.914062 10.5 L 0 12.574219 L 0 13.5 L 2.5 13.5 L 5.25 11.574219 L 5.25 13.5 L 9 13.5 L 9 11.046875 L 12.5 13.5 L 14.25 13.5 L 14.25 11.976562 L 12.140625 10.5 L 14.25 10.5 L 14.25 6.75 L 12.140625 6.75 L 14.25 5.273438 Z M 14.25 3.75 "/>
<path fill-rule="nonzero" fill="rgb(81.175232%, 10.588074%, 16.862488%)" fill-opacity="1" d="M 8.25 3.75 L 6 3.75 L 6 7.5 L 0 7.5 L 0 9.75 L 6 9.75 L 6 13.5 L 8.25 13.5 L 8.25 9.75 L 14.25 9.75 L 14.25 7.5 L 8.25 7.5 Z M 8.25 3.75 "/>
<path fill-rule="nonzero" fill="rgb(81.175232%, 10.588074%, 16.862488%)" fill-opacity="1" d="M 14.25 3.75 L 13.152344 3.75 L 9 6.660156 L 9 6.75 L 10.179688 6.75 L 14.25 3.898438 Z M 1.292969 4.28125 C 1.082031 4.429688 0.890625 4.601562 0.726562 4.792969 L 3.515625 6.75 L 4.820312 6.75 Z M 4.828125 10.5 L 0.550781 13.5 L 1.847656 13.5 L 5.25 11.117188 L 5.25 10.5 Z M 14.25 13.351562 L 14.25 12.4375 L 11.484375 10.5 L 10.175781 10.5 Z M 14.25 13.351562 "/>
</svg>