<svg xmlns="http://www.w3.org/2000/svg" xmlns:xlink="http://www.w3.org/1999/xlink" viewBox="0 0 27 27">
<path fill-rule="nonzero" fill="rgb(86.665344%, 18.03894%, 26.66626%)" fill-opacity="1" d="M 27 20.25 C 27 21.90625 25.65625 23.25 24 23.25 L 3 23.25 C 1.34375 23.25 0 21.90625 0 20.25 L 0 6.75 C 0 5.09375 1.34375 3.75 3 3.75 L 24 3.75 C 25.65625 3.75 27 5.09375 27 6.75 Z M 27 20.25 "/>
<path fill-rule="nonzero" fill="rgb(0%, 16.078186%, 48.234558%)" fill-opacity="1" d="M 26.25 20.25 C 26.25 21.492188 25.242188 22.5 24 22.5 L 3 22.5 C 1.757812 22.5 0.75 21.492188 0.75 20.25 L 0.75 6.75 C 0.75 5.507812 1.757812 4.5 3 4.5 L 24 4.5 C 25.242188 4.5 26.25 5.507812 26.25 6.75 Z M 26.25 20.25 "/>
<path fill-rule="nonzero" fill="rgb(86.665344%, 18.03894%, 26.66626%)" fill-opacity="1" d="M 13.140625 19.96875 C 15.144531 18.304688 17.359375 16.371094 17.359375 13.644531 C 17.359375 10.914062 15.144531 8.980469 13.140625 7.316406 C 11.132812 8.980469 8.917969 10.914062 8.917969 13.644531 C 8.917969 16.371094 11.132812 18.304688 13.140625 19.96875 Z M 13.140625 19.96875 "/>
<path fill-rule="nonzero" fill="rgb(0.392151%, 48.234558%, 86.665344%)" fill-opacity="1" d="M 9.546875 14.71875 C 10.007812 16.640625 11.640625 18.09375 13.140625 19.371094 C 14.636719 18.09375 16.273438 16.640625 16.734375 14.71875 Z M 9.546875 14.71875 "/>
<path fill-rule="nonzero" fill="rgb(39.99939%, 68.626404%, 92.155457%)" fill-opacity="1" d="M 16.734375 14.71875 C 16.816406 14.375 16.863281 14.015625 16.863281 13.644531 C 16.863281 11.171875 14.90625 9.421875 13.140625 7.914062 C 11.371094 9.421875 9.417969 11.171875 9.417969 13.644531 C 9.417969 14.015625 9.460938 14.375 9.546875 14.71875 Z M 16.734375 14.71875 "/>
<path fill-rule="nonzero" fill="rgb(61.175537%, 51.763916%, 19.215393%)" fill-opacity="1" d="M 16.847656 13.996094 C 16.828125 14.246094 16.789062 14.484375 16.734375 14.71875 L 12.414062 14.71875 C 12.46875 14.574219 12.542969 14.351562 12.605469 14.1875 C 13.820312 14.351562 15.734375 14.308594 16.847656 13.996094 Z M 16.847656 13.996094 "/>
<path fill-rule="nonzero" fill="rgb(100%, 94.508362%, 0%)" fill-opacity="1" d="M 11.203125 17.566406 C 10.871094 17.207031 10.566406 16.828125 10.304688 16.429688 C 10.984375 16.460938 12.3125 16.601562 12.839844 17.0625 C 12.96875 17.171875 12.96875 17.226562 12.808594 17.203125 C 12.488281 17.160156 11.632812 17.339844 11.203125 17.566406 Z M 11.203125 17.566406 "/>
<path fill-rule="nonzero" fill="rgb(100%, 94.508362%, 0%)" fill-opacity="1" d="M 16.339844 15.789062 C 15.644531 17.199219 14.347656 18.339844 13.140625 19.371094 C 12.761719 19.050781 12.378906 18.71875 12.007812 18.371094 C 12.519531 17.558594 13.949219 18.058594 13.949219 17.339844 C 13.949219 16.960938 13.585938 16.632812 13.074219 16.59375 C 12.914062 16.585938 12.875 16.578125 13 16.484375 C 13.585938 16.039062 14.183594 16.515625 15.1875 16.0625 C 15.914062 15.730469 16.25 15.757812 16.339844 15.789062 Z M 16.339844 15.789062 "/>
<path fill-rule="nonzero" fill="rgb(0.784302%, 57.254028%, 43.920898%)" fill-opacity="1" d="M 13.90625 10.835938 C 13.894531 10.820312 13.878906 10.773438 13.871094 10.761719 C 13.902344 10.789062 14.042969 10.828125 14.09375 10.835938 C 14.070312 10.820312 14.035156 10.765625 14.019531 10.753906 C 14.0625 10.773438 14.210938 10.824219 14.242188 10.808594 C 14.214844 10.78125 14.140625 10.703125 14.109375 10.679688 C 14.164062 10.699219 14.296875 10.773438 14.332031 10.773438 C 14.324219 10.746094 14.3125 10.695312 14.296875 10.65625 C 14.34375 10.691406 14.429688 10.730469 14.476562 10.746094 C 14.472656 10.710938 14.460938 10.652344 14.445312 10.621094 C 14.492188 10.652344 14.578125 10.71875 14.636719 10.742188 C 14.621094 10.71875 14.625 10.648438 14.597656 10.613281 C 14.636719 10.640625 14.746094 10.730469 14.796875 10.746094 C 14.769531 10.714844 14.765625 10.648438 14.742188 10.621094 C 14.773438 10.648438 14.882812 10.699219 14.929688 10.730469 C 14.917969 10.707031 14.898438 10.660156 14.875 10.625 C 14.910156 10.660156 15.050781 10.742188 15.09375 10.773438 C 15.085938 10.742188 15.0625 10.667969 15.046875 10.640625 C 15.109375 10.664062 15.277344 10.765625 15.332031 10.785156 C 15.140625 10.402344 14.277344 10.273438 13.785156 10.429688 C 13.863281 10.390625 13.902344 10.3125 14.050781 10.277344 C 14.015625 10.265625 13.921875 10.21875 13.914062 10.203125 C 13.960938 10.214844 14.136719 10.179688 14.171875 10.175781 C 14.140625 10.148438 14.082031 10.101562 14.054688 10.074219 C 14.125 10.082031 14.292969 10.0625 14.339844 10.046875 C 14.3125 10.035156 14.253906 10.015625 14.222656 10 C 14.269531 10.003906 14.382812 10.015625 14.429688 10.003906 C 14.398438 9.976562 14.34375 9.910156 14.300781 9.882812 C 14.371094 9.898438 14.507812 9.898438 14.597656 9.886719 C 14.558594 9.859375 14.5 9.832031 14.460938 9.808594 C 14.503906 9.816406 14.683594 9.765625 14.730469 9.753906 C 14.707031 9.726562 14.636719 9.710938 14.59375 9.691406 C 14.667969 9.6875 14.789062 9.613281 14.828125 9.582031 C 14.234375 9.589844 13.738281 9.878906 13.480469 10.304688 C 13.492188 10.164062 13.445312 9.996094 13.4375 9.898438 L 13.363281 9.992188 C 13.386719 9.917969 13.386719 9.714844 13.375 9.652344 C 13.359375 9.691406 13.324219 9.75 13.304688 9.78125 C 13.3125 9.707031 13.292969 9.507812 13.269531 9.425781 C 13.253906 9.46875 13.210938 9.523438 13.195312 9.554688 C 13.207031 9.464844 13.148438 9.226562 13.121094 9.136719 C 13.121094 9.179688 13.082031 9.289062 13.066406 9.3125 C 13.066406 9.230469 13 8.964844 12.96875 8.910156 C 12.980469 8.953125 12.957031 9.070312 12.957031 9.113281 C 12.9375 9.054688 12.855469 8.898438 12.828125 8.855469 C 12.839844 8.886719 12.828125 8.949219 12.828125 8.980469 C 12.78125 8.914062 12.660156 8.789062 12.605469 8.75 C 12.652344 8.820312 12.695312 8.9375 12.71875 8.988281 C 12.703125 8.980469 12.667969 8.964844 12.648438 8.960938 C 12.691406 9.011719 12.773438 9.148438 12.800781 9.199219 C 12.773438 9.191406 12.71875 9.1875 12.691406 9.1875 C 12.75 9.230469 12.859375 9.355469 12.894531 9.40625 C 12.871094 9.394531 12.796875 9.398438 12.777344 9.40625 C 12.824219 9.433594 12.9375 9.535156 12.972656 9.582031 C 12.945312 9.566406 12.882812 9.546875 12.855469 9.550781 C 12.914062 9.609375 12.996094 9.714844 13.03125 9.753906 C 13 9.734375 12.894531 9.703125 12.859375 9.707031 C 12.902344 9.75 13.03125 9.890625 13.066406 9.9375 C 13.03125 9.925781 12.957031 9.933594 12.929688 9.933594 C 12.976562 9.980469 13.105469 10.125 13.132812 10.164062 C 13.105469 10.144531 13.019531 10.132812 12.988281 10.128906 C 13.046875 10.191406 13.125 10.316406 13.160156 10.371094 C 13.132812 10.367188 13.070312 10.359375 13.042969 10.347656 C 12.765625 9.890625 12.265625 9.605469 11.914062 9.578125 C 11.964844 9.601562 12.128906 9.707031 12.179688 9.761719 C 12.144531 9.761719 12.089844 9.75 12.058594 9.75 C 12.117188 9.800781 12.238281 9.875 12.289062 9.894531 C 12.273438 9.894531 12.203125 9.894531 12.179688 9.910156 C 12.230469 9.957031 12.355469 9.992188 12.441406 10.054688 C 12.410156 10.054688 12.355469 10.058594 12.324219 10.058594 C 12.394531 10.085938 12.519531 10.175781 12.5625 10.238281 C 12.542969 10.238281 12.484375 10.230469 12.453125 10.226562 C 12.523438 10.265625 12.621094 10.335938 12.660156 10.382812 C 12.636719 10.375 12.574219 10.375 12.550781 10.375 C 12.59375 10.40625 12.722656 10.464844 12.761719 10.515625 C 12.742188 10.511719 12.667969 10.507812 12.644531 10.507812 C 12.691406 10.542969 12.816406 10.640625 12.886719 10.714844 C 12.074219 10.320312 11.085938 10.5 10.5625 11.222656 C 10.625 11.199219 10.847656 11.066406 10.921875 11.042969 C 10.890625 11.082031 10.902344 11.132812 10.878906 11.171875 C 10.945312 11.132812 11.046875 11.050781 11.121094 11 C 11.105469 11.027344 11.09375 11.089844 11.066406 11.136719 C 11.121094 11.105469 11.285156 10.996094 11.367188 10.925781 C 11.355469 10.976562 11.335938 11.023438 11.316406 11.054688 C 11.402344 11.003906 11.5625 10.894531 11.617188 10.855469 C 11.589844 10.902344 11.570312 10.960938 11.542969 10.992188 C 11.617188 10.964844 11.785156 10.855469 11.886719 10.800781 C 11.871094 10.839844 11.863281 10.894531 11.835938 10.925781 C 11.914062 10.882812 12.042969 10.84375 12.128906 10.847656 C 12.113281 10.875 12.085938 10.925781 12.054688 10.949219 C 12.132812 10.921875 12.25 10.902344 12.375 10.917969 C 11.828125 11.097656 11.277344 11.691406 11.292969 12.082031 C 11.34375 11.992188 11.445312 11.875 11.507812 11.816406 C 11.496094 11.855469 11.503906 11.921875 11.503906 11.960938 C 11.53125 11.878906 11.589844 11.777344 11.636719 11.691406 C 11.632812 11.738281 11.648438 11.804688 11.65625 11.835938 C 11.683594 11.757812 11.78125 11.59375 11.820312 11.523438 C 11.808594 11.574219 11.824219 11.660156 11.835938 11.707031 C 11.875 11.625 11.957031 11.496094 12.027344 11.421875 C 12.007812 11.472656 12.011719 11.558594 12.015625 11.589844 C 12.058594 11.515625 12.164062 11.378906 12.226562 11.3125 C 12.210938 11.371094 12.210938 11.457031 12.207031 11.5 C 12.257812 11.421875 12.402344 11.269531 12.484375 11.199219 C 12.460938 11.25 12.453125 11.335938 12.445312 11.371094 C 12.503906 11.304688 12.683594 11.195312 12.75 11.175781 C 12.644531 11.25 12.53125 11.441406 12.46875 11.535156 L 12.570312 11.515625 C 12.511719 11.554688 12.398438 11.695312 12.371094 11.746094 C 12.402344 11.726562 12.460938 11.707031 12.492188 11.695312 C 12.445312 11.742188 12.34375 11.894531 12.316406 11.964844 C 12.351562 11.945312 12.410156 11.929688 12.441406 11.917969 C 12.378906 11.972656 12.285156 12.175781 12.253906 12.253906 C 12.277344 12.222656 12.367188 12.175781 12.390625 12.164062 C 12.347656 12.222656 12.242188 12.445312 12.230469 12.503906 C 12.246094 12.464844 12.328125 12.398438 12.355469 12.371094 C 12.335938 12.421875 12.304688 12.578125 12.296875 12.625 C 12.308594 12.597656 12.347656 12.5625 12.367188 12.539062 C 12.363281 12.613281 12.375 12.777344 12.390625 12.835938 C 12.398438 12.757812 12.4375 12.652344 12.445312 12.601562 C 12.453125 12.617188 12.46875 12.648438 12.476562 12.664062 C 12.476562 12.601562 12.503906 12.457031 12.511719 12.40625 C 12.523438 12.425781 12.558594 12.464844 12.578125 12.480469 C 12.5625 12.417969 12.558594 12.265625 12.5625 12.207031 C 12.570312 12.226562 12.625 12.269531 12.644531 12.273438 C 12.625 12.226562 12.609375 12.089844 12.609375 12.035156 C 12.617188 12.0625 12.652344 12.113281 12.671875 12.128906 C 12.664062 12.050781 12.667969 11.929688 12.664062 11.878906 C 12.675781 11.914062 12.730469 11.996094 12.757812 12.015625 C 12.753906 11.960938 12.742188 11.785156 12.746094 11.734375 C 12.761719 11.761719 12.820312 11.800781 12.839844 11.816406 C 12.832031 11.757812 12.824219 11.578125 12.824219 11.535156 C 12.835938 11.566406 12.886719 11.625 12.90625 11.644531 C 12.902344 11.566406 12.917969 11.429688 12.925781 11.375 C 12.941406 11.394531 12.984375 11.4375 12.992188 11.460938 C 13.003906 11.34375 13.074219 11.222656 13.164062 11.109375 C 13.261719 11.210938 13.34375 11.433594 13.359375 11.453125 C 13.371094 11.425781 13.382812 11.375 13.394531 11.363281 C 13.394531 11.417969 13.417969 11.5625 13.425781 11.601562 C 13.4375 11.574219 13.46875 11.515625 13.476562 11.507812 C 13.476562 11.574219 13.484375 11.683594 13.492188 11.734375 C 13.503906 11.707031 13.53125 11.664062 13.546875 11.652344 C 13.535156 11.707031 13.539062 11.855469 13.546875 11.914062 C 13.558594 11.890625 13.59375 11.84375 13.609375 11.824219 C 13.59375 11.875 13.648438 12.054688 13.652344 12.132812 C 13.660156 12.101562 13.695312 12.058594 13.710938 12.03125 C 13.710938 12.09375 13.734375 12.269531 13.738281 12.359375 C 13.75 12.324219 13.785156 12.269531 13.804688 12.246094 C 13.792969 12.328125 13.832031 12.480469 13.863281 12.550781 C 13.867188 12.511719 13.882812 12.445312 13.898438 12.421875 C 13.925781 12.476562 13.996094 12.625 14 12.707031 C 14.03125 12.628906 14.027344 12.464844 13.988281 12.363281 C 14.015625 12.382812 14.035156 12.394531 14.054688 12.402344 C 14.035156 12.328125 13.976562 12.191406 13.949219 12.164062 C 13.976562 12.179688 14.015625 12.199219 14.03125 12.210938 C 14.015625 12.128906 13.953125 11.992188 13.917969 11.933594 C 13.949219 11.941406 13.996094 11.949219 14.023438 11.964844 C 13.996094 11.902344 13.894531 11.761719 13.847656 11.722656 C 13.875 11.730469 13.941406 11.753906 13.964844 11.761719 C 13.9375 11.710938 13.800781 11.59375 13.71875 11.539062 C 13.761719 11.535156 13.835938 11.535156 13.871094 11.535156 C 13.820312 11.472656 13.699219 11.386719 13.625 11.347656 C 13.648438 11.351562 13.710938 11.363281 13.742188 11.371094 C 13.722656 11.3125 13.605469 11.195312 13.550781 11.144531 C 13.597656 11.167969 13.753906 11.246094 13.800781 11.296875 C 13.8125 11.257812 13.804688 11.167969 13.785156 11.128906 C 13.832031 11.15625 13.949219 11.265625 13.96875 11.308594 C 13.980469 11.269531 13.980469 11.203125 13.976562 11.175781 C 14.101562 11.261719 14.179688 11.367188 14.210938 11.421875 C 14.214844 11.382812 14.21875 11.292969 14.207031 11.242188 C 14.246094 11.277344 14.332031 11.378906 14.351562 11.425781 C 14.355469 11.386719 14.359375 11.328125 14.351562 11.296875 C 14.375 11.332031 14.449219 11.476562 14.457031 11.507812 C 14.46875 11.476562 14.484375 11.378906 14.476562 11.351562 C 14.507812 11.394531 14.605469 11.539062 14.617188 11.589844 C 14.628906 11.546875 14.648438 11.476562 14.644531 11.449219 C 14.675781 11.5 14.734375 11.667969 14.742188 11.714844 C 14.753906 11.691406 14.78125 11.578125 14.777344 11.535156 C 14.800781 11.585938 14.878906 11.789062 14.894531 11.832031 C 14.90625 11.800781 14.921875 11.710938 14.917969 11.683594 C 14.9375 11.714844 15.027344 11.933594 15.027344 11.96875 C 15.042969 11.9375 15.046875 11.855469 15.046875 11.824219 C 15.058594 11.875 15.125 12.007812 15.207031 12.101562 C 15.285156 11.386719 14.519531 10.929688 13.90625 10.835938 Z M 13.90625 10.835938 "/>
<path fill-rule="nonzero" fill="rgb(48.234558%, 28.234863%, 0%)" fill-opacity="1" d="M 12.671875 15.511719 C 12.375 15.511719 12.238281 15.566406 11.921875 15.589844 C 11.914062 14.359375 11.921875 13.929688 11.886719 13.929688 C 11.851562 13.929688 11.855469 14.359375 11.851562 15.59375 C 11.785156 15.597656 11.726562 15.601562 11.640625 15.601562 C 11.085938 15.601562 10.984375 15.511719 10.613281 15.511719 C 10.601562 15.644531 10.753906 15.777344 11.175781 15.832031 L 11.160156 15.941406 C 11.101562 15.9375 11.035156 15.929688 11.003906 15.917969 C 10.980469 16.042969 11.277344 16.074219 11.640625 16.074219 C 12.007812 16.074219 12.300781 16.042969 12.277344 15.917969 C 12.246094 15.929688 12.179688 15.9375 12.121094 15.941406 L 12.105469 15.832031 C 12.53125 15.777344 12.683594 15.644531 12.671875 15.511719 Z M 12.03125 15.949219 C 11.898438 15.96875 11.734375 15.96875 11.640625 15.96875 C 11.546875 15.96875 11.382812 15.96875 11.25 15.949219 L 11.265625 15.839844 C 11.375 15.851562 11.496094 15.859375 11.640625 15.859375 C 11.785156 15.859375 11.90625 15.851562 12.015625 15.839844 Z M 12.03125 15.949219 "/>
<path fill-rule="nonzero" fill="rgb(48.234558%, 28.234863%, 0%)" fill-opacity="1" d="M 13.246094 11.03125 C 13.292969 12.398438 12.707031 15.699219 14.78125 16.722656 C 14.976562 16.8125 14.832031 17.183594 14.496094 17.011719 C 12.519531 15.894531 13.152344 12.488281 13.117188 11.023438 Z M 13.246094 11.03125 "/>
<path fill-rule="nonzero" fill="rgb(48.234558%, 28.234863%, 0%)" fill-opacity="1" d="M 13.234375 11.082031 C 13.234375 11.164062 13.167969 11.230469 13.085938 11.230469 C 13.003906 11.230469 12.9375 11.164062 12.9375 11.082031 C 12.9375 11 13.003906 10.933594 13.085938 10.933594 C 13.167969 10.933594 13.234375 11 13.234375 11.082031 Z M 13.234375 11.082031 "/>
<path fill-rule="nonzero" fill="rgb(48.234558%, 28.234863%, 0%)" fill-opacity="1" d="M 13.410156 11.027344 C 13.410156 11.109375 13.34375 11.175781 13.261719 11.175781 C 13.179688 11.175781 13.113281 11.109375 13.113281 11.027344 C 13.113281 10.945312 13.179688 10.878906 13.261719 10.878906 C 13.34375 10.878906 13.410156 10.945312 13.410156 11.027344 Z M 13.410156 11.027344 "/>
<path fill-rule="nonzero" fill="rgb(48.234558%, 28.234863%, 0%)" fill-opacity="1" d="M 13.484375 10.886719 C 13.484375 10.96875 13.417969 11.035156 13.335938 11.035156 C 13.253906 11.035156 13.1875 10.96875 13.1875 10.886719 C 13.1875 10.804688 13.253906 10.738281 13.335938 10.738281 C 13.417969 10.738281 13.484375 10.804688 13.484375 10.886719 Z M 13.484375 10.886719 "/>
<path fill-rule="nonzero" fill="rgb(48.234558%, 28.234863%, 0%)" fill-opacity="1" d="M 13.226562 10.839844 C 13.226562 10.921875 13.160156 10.988281 13.078125 10.988281 C 12.996094 10.988281 12.929688 10.921875 12.929688 10.839844 C 12.929688 10.757812 12.996094 10.691406 13.078125 10.691406 C 13.160156 10.691406 13.226562 10.757812 13.226562 10.839844 Z M 13.226562 10.839844 "/>
<path fill-rule="nonzero" fill="rgb(100%, 100%, 100%)" fill-opacity="1" d="M 11.117188 14.019531 C 11.246094 14.484375 11.109375 15.101562 10.878906 15.53125 C 11.371094 15.480469 12.160156 15.429688 12.425781 15.53125 C 12.191406 14.910156 11.652344 14.148438 11.117188 14.019531 Z M 11.117188 14.019531 "/>
<path fill-rule="nonzero" fill="rgb(86.665344%, 18.03894%, 26.66626%)" fill-opacity="1" d="M 11.132812 13.175781 C 11.097656 13.074219 11.03125 13.011719 10.941406 13.011719 C 10.804688 13.011719 10.71875 13.148438 10.71875 13.355469 C 10.71875 13.5625 10.808594 13.703125 10.945312 13.703125 C 11.058594 13.699219 11.132812 13.621094 11.140625 13.484375 L 10.96875 13.484375 L 10.96875 13.324219 L 11.292969 13.324219 L 11.292969 13.847656 L 11.1875 13.847656 C 11.1875 13.8125 11.183594 13.765625 11.171875 13.734375 C 11.125 13.820312 11.042969 13.871094 10.941406 13.875 C 10.734375 13.886719 10.558594 13.660156 10.558594 13.355469 C 10.558594 13.046875 10.707031 12.847656 10.941406 12.847656 C 11.128906 12.847656 11.277344 12.984375 11.277344 13.175781 Z M 12.34375 13.707031 C 12.464844 13.707031 12.496094 13.613281 12.496094 13.527344 L 12.496094 12.847656 L 12.671875 12.847656 L 12.671875 13.523438 C 12.671875 13.691406 12.59375 13.878906 12.339844 13.878906 C 12.089844 13.878906 12.011719 13.691406 12.011719 13.523438 L 12.011719 12.847656 L 12.183594 12.847656 L 12.183594 13.527344 C 12.1875 13.613281 12.21875 13.707031 12.34375 13.707031 Z M 13.910156 13.496094 L 13.800781 13.496094 L 13.914062 13.078125 L 14.023438 13.496094 L 13.910156 13.496094 L 13.910156 13.667969 L 14.074219 13.667969 L 14.128906 13.875 L 14.296875 13.875 L 14.011719 12.847656 L 13.8125 12.847656 L 13.527344 13.875 L 13.695312 13.875 L 13.753906 13.667969 L 13.910156 13.667969 Z M 15.246094 13.875 L 15.085938 13.089844 L 15.085938 13.875 L 14.917969 13.875 L 14.917969 12.847656 L 15.175781 12.847656 L 15.332031 13.636719 L 15.484375 12.847656 L 15.742188 12.847656 L 15.742188 13.875 L 15.578125 13.875 L 15.578125 13.089844 L 15.417969 13.875 Z M 15.246094 13.875 "/>
</svg>