<svg xmlns="http://www.w3.org/2000/svg" xmlns:xlink="http://www.w3.org/1999/xlink" viewBox="0 0 27 27">
<path fill-rule="nonzero" fill="rgb(100%, 79.998779%, 0%)" fill-opacity="1" d="M 27 20.25 C 27 21.90625 25.65625 23.25 24 23.25 L 3 23.25 C 1.34375 23.25 0 21.90625 0 20.25 L 0 6.75 C 0 5.09375 1.34375 3.75 3 3.75 L 24 3.75 C 25.65625 3.75 27 5.09375 27 6.75 Z M 27 20.25 "/>
<path fill-rule="nonzero" fill="rgb(93.331909%, 93.331909%, 93.331909%)" fill-opacity="1" d="M 3 3.75 C 1.34375 3.75 0 5.09375 0 6.75 L 0 20.25 C 0 21.90625 1.34375 23.25 3 23.25 L 9 23.25 L 9 3.75 Z M 3 3.75 "/>
<path fill-rule="nonzero" fill="rgb(3.137207%, 40.783691%, 66.273499%)" fill-opacity="1" d="M 9 3.75 L 18 3.75 L 18 23.25 L 9 23.25 Z M 9 3.75 "/>
<path fill-rule="nonzero" fill="rgb(75.292969%, 60.783386%, 35.293579%)" fill-opacity="1" d="M 15.765625 12.226562 C 15.558594 12.007812 15.304688 12.226562 15.195312 12.160156 C 15.085938 12.09375 14.941406 12.042969 14.953125 12.273438 C 14.964844 12.503906 15.140625 12.613281 15.238281 12.6875 C 15.339844 12.765625 15.285156 12.996094 15.285156 12.996094 C 15.285156 12.996094 15.117188 12.808594 15.050781 12.6875 C 14.988281 12.566406 14.933594 12.457031 14.8125 12.457031 C 14.691406 12.457031 14.570312 12.621094 14.644531 12.6875 C 14.722656 12.753906 14.996094 12.816406 14.996094 12.992188 C 14.996094 13.167969 15.105469 13.34375 15.105469 13.34375 L 15.074219 13.464844 C 15.074219 13.464844 14.964844 13.410156 14.933594 13.34375 C 14.898438 13.28125 14.964844 13.070312 14.8125 13.070312 C 14.65625 13.070312 14.613281 13.410156 14.710938 13.464844 C 14.8125 13.519531 15.097656 13.839844 15.097656 13.839844 C 15.097656 13.839844 15.214844 14.070312 15.402344 14.179688 C 15.589844 14.289062 15.832031 14.53125 15.832031 14.53125 C 15.832031 14.53125 15.515625 14.761719 15.492188 14.90625 C 15.46875 15.046875 15.601562 15.101562 15.589844 15.222656 C 15.578125 15.34375 15.4375 15.28125 15.316406 15.347656 C 15.195312 15.414062 15.320312 15.582031 15.320312 15.582031 L 15.648438 15.582031 L 15.8125 15.277344 L 15.8125 15.058594 L 16.160156 14.980469 C 16.160156 14.980469 16.128906 15.113281 16.195312 15.191406 C 16.261719 15.269531 16.511719 15.375 16.511719 15.5625 C 16.511719 15.75 16.414062 15.757812 16.304688 15.765625 C 16.195312 15.777344 16.140625 15.90625 16.140625 15.90625 L 16.570312 15.90625 C 16.570312 15.90625 16.691406 15.625 16.757812 15.492188 C 16.820312 15.359375 16.777344 15.269531 16.699219 15.234375 C 16.625 15.203125 16.546875 15.03125 16.570312 14.890625 C 16.570312 14.890625 16.722656 15.011719 16.898438 14.980469 C 17.074219 14.945312 17.226562 14.796875 17.238281 14.613281 C 17.25 14.425781 17.238281 14.242188 17.0625 14.175781 C 16.886719 14.109375 16.921875 14.296875 16.988281 14.351562 C 17.054688 14.40625 17.054688 14.648438 16.964844 14.707031 C 16.878906 14.761719 16.734375 14.828125 16.691406 14.671875 C 16.644531 14.519531 16.550781 14.277344 16.363281 14.210938 C 16.175781 14.148438 15.921875 13.730469 15.933594 13.433594 C 15.941406 13.136719 16.019531 12.488281 15.765625 12.226562 Z M 11.21875 12.226562 C 11.429688 12.007812 11.679688 12.226562 11.789062 12.160156 C 11.898438 12.09375 12.042969 12.042969 12.03125 12.273438 C 12.019531 12.503906 11.84375 12.613281 11.746094 12.6875 C 11.648438 12.765625 11.703125 12.996094 11.703125 12.996094 C 11.703125 12.996094 11.867188 12.808594 11.933594 12.6875 C 12 12.566406 12.054688 12.457031 12.175781 12.457031 C 12.296875 12.457031 12.417969 12.621094 12.339844 12.6875 C 12.261719 12.753906 11.988281 12.816406 11.988281 12.992188 C 11.988281 13.167969 11.878906 13.34375 11.878906 13.34375 L 11.914062 13.464844 C 11.914062 13.464844 12.023438 13.410156 12.054688 13.34375 C 12.085938 13.28125 12.023438 13.070312 12.175781 13.070312 C 12.328125 13.070312 12.375 13.410156 12.273438 13.464844 C 12.175781 13.519531 11.890625 13.839844 11.890625 13.839844 C 11.890625 13.839844 11.769531 14.070312 11.582031 14.179688 C 11.394531 14.289062 11.152344 14.53125 11.152344 14.53125 C 11.152344 14.53125 11.472656 14.761719 11.496094 14.90625 C 11.515625 15.046875 11.386719 15.101562 11.394531 15.222656 C 11.40625 15.34375 11.550781 15.28125 11.671875 15.347656 C 11.789062 15.414062 11.757812 15.578125 11.757812 15.578125 L 11.429688 15.578125 L 11.175781 15.28125 L 11.175781 15.058594 L 10.832031 14.980469 C 10.832031 14.980469 10.863281 15.113281 10.796875 15.191406 C 10.730469 15.269531 10.476562 15.378906 10.476562 15.5625 C 10.476562 15.75 10.574219 15.757812 10.683594 15.765625 C 10.792969 15.777344 10.847656 15.90625 10.847656 15.90625 L 10.417969 15.90625 C 10.417969 15.90625 10.296875 15.625 10.230469 15.496094 C 10.164062 15.363281 10.210938 15.269531 10.285156 15.238281 C 10.363281 15.203125 10.441406 15.03125 10.417969 14.890625 C 10.417969 14.890625 10.265625 15.011719 10.089844 14.980469 C 9.914062 14.945312 9.757812 14.800781 9.75 14.613281 C 9.738281 14.425781 9.75 14.242188 9.925781 14.175781 C 10.097656 14.109375 10.066406 14.300781 10 14.351562 C 9.933594 14.410156 9.933594 14.652344 10.023438 14.707031 C 10.109375 14.761719 10.253906 14.828125 10.296875 14.671875 C 10.339844 14.519531 10.4375 14.277344 10.625 14.214844 C 10.8125 14.148438 11.066406 13.730469 11.054688 13.433594 C 11.042969 13.136719 10.96875 12.488281 11.21875 12.226562 Z M 11.21875 12.226562 "/>
<path fill-rule="nonzero" fill="rgb(54.901123%, 55.293274%, 56.077576%)" fill-opacity="1" d="M 15.917969 12.933594 C 15.757812 12.960938 15.503906 12.941406 15.316406 12.929688 C 15.25 12.925781 15.222656 13.117188 15.273438 13.125 C 15.417969 13.160156 15.804688 13.183594 15.929688 13.113281 C 15.972656 13.085938 15.992188 12.921875 15.917969 12.933594 Z M 15.917969 12.933594 "/>
<path fill-rule="nonzero" fill="rgb(0%, 0%, 0%)" fill-opacity="1" d="M 15.132812 12.125 C 15.132812 12.125 15.066406 12.226562 14.953125 12.242188 C 14.953125 12.242188 14.941406 12.148438 15.007812 12.113281 C 15.074219 12.078125 15.132812 12.125 15.132812 12.125 Z M 15.398438 12.289062 C 15.300781 12.273438 15.226562 12.328125 15.320312 12.363281 C 15.414062 12.394531 15.457031 12.304688 15.398438 12.289062 Z M 15.808594 12.515625 C 15.808594 12.515625 15.796875 12.867188 15.609375 12.863281 C 15.414062 12.855469 15.492188 12.558594 15.609375 12.433594 C 15.609375 12.433594 15.46875 12.785156 15.59375 12.796875 C 15.722656 12.808594 15.808594 12.515625 15.808594 12.515625 Z M 15.808594 12.515625 "/>
<path fill-rule="nonzero" fill="rgb(54.901123%, 55.293274%, 56.077576%)" fill-opacity="1" d="M 11.066406 12.933594 C 11.226562 12.960938 11.480469 12.941406 11.671875 12.929688 C 11.734375 12.925781 11.761719 13.117188 11.714844 13.125 C 11.566406 13.160156 11.179688 13.183594 11.058594 13.113281 C 11.011719 13.085938 10.996094 12.921875 11.066406 12.933594 Z M 11.066406 12.933594 "/>
<path fill-rule="nonzero" fill="rgb(0%, 0%, 0%)" fill-opacity="1" d="M 11.855469 12.125 C 11.855469 12.125 11.917969 12.226562 12.03125 12.242188 C 12.03125 12.242188 12.046875 12.148438 11.980469 12.113281 C 11.910156 12.078125 11.855469 12.125 11.855469 12.125 Z M 11.585938 12.289062 C 11.683594 12.273438 11.757812 12.328125 11.664062 12.363281 C 11.570312 12.394531 11.527344 12.304688 11.585938 12.289062 Z M 11.175781 12.515625 C 11.175781 12.515625 11.1875 12.867188 11.378906 12.863281 C 11.570312 12.855469 11.496094 12.558594 11.378906 12.433594 C 11.378906 12.433594 11.515625 12.785156 11.390625 12.796875 C 11.261719 12.808594 11.175781 12.515625 11.175781 12.515625 Z M 11.175781 12.515625 "/>
<path fill-rule="nonzero" fill="rgb(92.155457%, 81.959534%, 10.588074%)" fill-opacity="1" d="M 14.066406 11.351562 C 14.066406 11.351562 13.847656 11.140625 13.605469 11.195312 L 13.554688 11.160156 L 13.558594 10.925781 L 13.449219 10.925781 L 13.453125 11.160156 L 13.402344 11.195312 C 13.164062 11.140625 12.941406 11.351562 12.941406 11.351562 C 12.585938 11.210938 12.242188 11.445312 12.242188 11.714844 C 12.242188 11.988281 12.445312 12.109375 12.488281 12.15625 C 12.535156 12.203125 12.769531 12.792969 12.769531 12.792969 L 14.238281 12.792969 C 14.238281 12.792969 14.472656 12.203125 14.519531 12.15625 C 14.5625 12.109375 14.765625 11.988281 14.765625 11.714844 C 14.765625 11.445312 14.425781 11.210938 14.066406 11.351562 Z M 14.066406 11.351562 "/>
<path fill-rule="nonzero" fill="rgb(74.508667%, 9.411621%, 15.293884%)" fill-opacity="1" d="M 13.359375 11.589844 L 13.359375 11.765625 L 13.238281 11.898438 C 13.238281 11.898438 13.121094 11.910156 13.066406 11.871094 C 13.011719 11.828125 12.964844 11.730469 12.964844 11.730469 C 12.964844 11.730469 13.089844 11.644531 13.164062 11.625 C 13.234375 11.605469 13.359375 11.589844 13.359375 11.589844 Z M 12.921875 11.789062 C 12.921875 11.789062 12.898438 11.929688 12.792969 11.96875 C 12.6875 12.007812 12.585938 11.988281 12.585938 11.988281 C 12.585938 11.988281 12.609375 11.914062 12.699219 11.851562 C 12.789062 11.792969 12.921875 11.789062 12.921875 11.789062 Z M 12.921875 11.789062 "/>
<path fill-rule="nonzero" fill="rgb(3.137207%, 40.783691%, 66.273499%)" fill-opacity="1" d="M 13.128906 11.433594 C 13.238281 11.410156 13.359375 11.433594 13.359375 11.433594 C 13.359375 11.433594 13.359375 11.589844 13.214844 11.613281 C 13.074219 11.636719 13.015625 11.570312 13.015625 11.570312 C 13.015625 11.570312 13.046875 11.457031 13.128906 11.433594 Z M 12.453125 11.730469 C 12.414062 11.542969 12.671875 11.472656 12.800781 11.617188 C 12.800781 11.617188 12.828125 11.8125 12.675781 11.871094 C 12.523438 11.929688 12.46875 11.804688 12.453125 11.730469 Z M 12.804688 11.46875 C 12.835938 11.398438 12.980469 11.464844 12.9375 11.539062 C 12.890625 11.617188 12.746094 11.59375 12.804688 11.46875 Z M 12.804688 11.46875 "/>
<path fill-rule="nonzero" fill="rgb(3.137207%, 40.783691%, 66.273499%)" fill-opacity="1" d="M 12.835938 11.652344 C 12.902344 11.582031 13.003906 11.722656 12.921875 11.761719 C 12.835938 11.800781 12.78125 11.707031 12.835938 11.652344 Z M 12.835938 11.652344 "/>
<path fill-rule="nonzero" fill="rgb(74.508667%, 9.411621%, 15.293884%)" fill-opacity="1" d="M 13.625 11.589844 L 13.625 11.765625 L 13.757812 11.898438 C 13.757812 11.898438 13.882812 11.910156 13.9375 11.871094 C 13.992188 11.828125 14.039062 11.730469 14.039062 11.730469 C 14.039062 11.730469 13.90625 11.644531 13.832031 11.625 C 13.761719 11.605469 13.625 11.589844 13.625 11.589844 Z M 14.089844 11.789062 C 14.089844 11.789062 14.109375 11.929688 14.214844 11.96875 C 14.320312 12.007812 14.425781 11.988281 14.425781 11.988281 C 14.425781 11.988281 14.398438 11.914062 14.308594 11.851562 C 14.222656 11.792969 14.089844 11.789062 14.089844 11.789062 Z M 14.089844 11.789062 "/>
<path fill-rule="nonzero" fill="rgb(3.137207%, 40.783691%, 66.273499%)" fill-opacity="1" d="M 13.878906 11.433594 C 13.769531 11.410156 13.648438 11.433594 13.648438 11.433594 C 13.648438 11.433594 13.648438 11.589844 13.792969 11.613281 C 13.933594 11.636719 13.992188 11.570312 13.992188 11.570312 C 13.992188 11.570312 13.960938 11.457031 13.878906 11.433594 Z M 14.554688 11.730469 C 14.59375 11.542969 14.335938 11.472656 14.207031 11.617188 C 14.207031 11.617188 14.179688 11.8125 14.332031 11.871094 C 14.484375 11.929688 14.539062 11.804688 14.554688 11.730469 Z M 14.203125 11.46875 C 14.171875 11.398438 14.027344 11.464844 14.070312 11.539062 C 14.113281 11.617188 14.261719 11.59375 14.203125 11.46875 Z M 14.203125 11.46875 "/>
<path fill-rule="nonzero" fill="rgb(3.137207%, 40.783691%, 66.273499%)" fill-opacity="1" d="M 14.171875 11.652344 C 14.105469 11.582031 14.003906 11.722656 14.089844 11.761719 C 14.171875 11.800781 14.226562 11.707031 14.171875 11.652344 Z M 14.171875 11.652344 "/>
<path fill-rule="nonzero" fill="rgb(74.508667%, 9.411621%, 15.293884%)" fill-opacity="1" d="M 12.769531 12.6875 C 12.769531 12.546875 13.09375 12.433594 13.492188 12.433594 C 13.890625 12.433594 14.214844 12.546875 14.214844 12.6875 C 14.214844 12.828125 13.890625 12.941406 13.492188 12.941406 C 13.09375 12.9375 12.769531 12.824219 12.769531 12.6875 Z M 12.769531 12.6875 "/>
<path fill-rule="nonzero" fill="rgb(0.784302%, 0.784302%, 0.784302%)" fill-opacity="1" d="M 13.5 12.640625 L 12.09375 12.640625 L 12.09375 14.9375 C 12.09375 15.84375 13.5 15.84375 13.5 15.84375 C 13.5 15.84375 14.890625 15.84375 14.890625 14.9375 L 14.890625 12.640625 Z M 13.5 12.640625 "/>
<path fill-rule="nonzero" fill="rgb(29.803467%, 52.548218%, 78.038025%)" fill-opacity="1" d="M 13.5 12.792969 L 12.253906 12.792969 L 12.253906 14.9375 C 12.253906 15.683594 13.5 15.671875 13.5 15.671875 C 13.5 15.671875 14.746094 15.683594 14.746094 14.9375 L 14.746094 12.792969 Z M 13.5 12.792969 "/>
<path fill-rule="nonzero" fill="rgb(64.704895%, 65.489197%, 66.273499%)" fill-opacity="1" d="M 15.273438 11.054688 C 15.453125 10.988281 15.601562 10.738281 15.601562 10.738281 C 15.601562 10.738281 15.308594 10.773438 15.125 10.738281 C 14.941406 10.703125 14.804688 10.570312 14.804688 10.570312 C 14.9375 10.335938 14.722656 10.195312 14.304688 10.144531 C 13.980469 10.105469 13.496094 10.09375 13.496094 10.09375 C 13.496094 10.09375 13.003906 10.105469 12.683594 10.144531 C 12.265625 10.191406 12.042969 10.335938 12.175781 10.570312 C 12.175781 10.570312 12.035156 10.703125 11.851562 10.738281 C 11.667969 10.773438 11.375 10.738281 11.375 10.738281 C 11.375 10.738281 11.523438 10.988281 11.707031 11.054688 C 11.707031 11.054688 11.652344 11.222656 11.425781 11.257812 C 11.425781 11.257812 11.902344 11.339844 12.246094 11.191406 C 12.589844 11.046875 12.78125 10.921875 12.832031 10.871094 C 12.882812 10.820312 12.695312 10.703125 12.835938 10.6875 C 12.976562 10.671875 13.496094 10.660156 13.496094 10.660156 C 13.496094 10.660156 14.011719 10.671875 14.148438 10.6875 C 14.289062 10.703125 14.09375 10.820312 14.144531 10.871094 C 14.195312 10.921875 14.386719 11.046875 14.730469 11.191406 C 15.074219 11.339844 15.550781 11.257812 15.550781 11.257812 C 15.324219 11.222656 15.273438 11.054688 15.273438 11.054688 Z M 15.273438 11.054688 "/>
<path fill-rule="nonzero" fill="rgb(100%, 100%, 100%)" fill-opacity="1" d="M 13.917969 15.410156 L 13.070312 15.410156 L 13.492188 14.984375 Z M 13.304688 14.003906 L 12.453125 14.003906 L 12.878906 13.578125 Z M 13.304688 13.34375 L 12.453125 13.34375 L 12.878906 12.921875 Z M 13.304688 14.707031 L 12.453125 14.707031 L 12.878906 14.28125 Z M 14.488281 14.003906 L 13.640625 14.003906 L 14.0625 13.578125 Z M 14.488281 13.34375 L 13.640625 13.34375 L 14.0625 12.921875 Z M 14.488281 14.707031 L 13.640625 14.707031 L 14.0625 14.28125 Z M 14.488281 14.707031 "/>
</svg>