<svg xmlns="http://www.w3.org/2000/svg" xmlns:xlink="http://www.w3.org/1999/xlink" viewBox="0 0 27 27">
<path fill-rule="nonzero" fill="rgb(81.175232%, 10.588074%, 16.862488%)" fill-opacity="1" d="M 27 20.25 C 27 21.90625 25.65625 23.25 24 23.25 L 3 23.25 C 1.34375 23.25 0 21.90625 0 20.25 L 0 6.75 C 0 5.09375 1.34375 3.75 3 3.75 L 24 3.75 C 25.65625 3.75 27 5.09375 27 6.75 Z M 27 20.25 "/>
<path fill-rule="nonzero" fill="rgb(97.253418%, 86.273193%, 8.235168%)" fill-opacity="1" d="M 14.261719 12.429688 C 14.261719 13.003906 13.800781 13.46875 13.226562 13.46875 C 12.652344 13.46875 12.1875 13.003906 12.1875 12.429688 C 12.1875 11.859375 12.652344 11.394531 13.226562 11.394531 C 13.800781 11.394531 14.261719 11.859375 14.261719 12.429688 Z M 14.261719 12.429688 "/>
<path fill-rule="nonzero" fill="rgb(97.253418%, 86.273193%, 8.235168%)" fill-opacity="1" d="M 14.261719 12.988281 C 14.261719 13.558594 13.800781 14.023438 13.226562 14.023438 C 12.652344 14.023438 12.1875 13.558594 12.1875 12.988281 C 12.1875 12.414062 12.652344 11.949219 13.226562 11.949219 C 13.800781 11.949219 14.261719 12.414062 14.261719 12.988281 Z M 14.261719 12.988281 "/>
<path fill-rule="nonzero" fill="rgb(100%, 100%, 100%)" fill-opacity="1" d="M 7.394531 9.082031 C 7.699219 8.929688 8.390625 10.242188 8.9375 10.207031 C 9.484375 10.175781 10.898438 9.128906 11.671875 9.058594 C 11.671875 9.058594 11.671875 8.726562 12.316406 8.726562 C 12.960938 8.726562 13.054688 9.050781 13.121094 9.46875 C 13.121094 9.46875 13.632812 10.273438 13.859375 10.882812 C 14.085938 11.496094 14.085938 11.914062 14.085938 11.914062 C 14.085938 11.914062 13.601562 12.394531 13.3125 12.425781 C 13.023438 12.460938 12.21875 12.171875 12.21875 12.171875 C 12.21875 12.171875 12.058594 10.949219 11.992188 10.578125 L 11.769531 10.335938 C 11.769531 10.335938 11.449219 10.691406 10.867188 10.789062 C 10.289062 10.882812 9.386719 10.851562 9.066406 10.914062 C 8.746094 10.980469 8.777344 11.398438 8.488281 11.367188 C 8.199219 11.335938 8.425781 10.691406 7.910156 10.335938 C 7.394531 9.984375 7.007812 9.273438 7.394531 9.082031 Z M 13.066406 19.640625 C 12.78125 19.453125 13.570312 18.199219 13.269531 17.742188 C 12.96875 17.285156 11.351562 16.582031 10.902344 15.949219 C 10.902344 15.949219 10.621094 16.113281 10.296875 15.554688 C 9.976562 15 10.207031 14.753906 10.535156 14.488281 C 10.535156 14.488281 10.976562 13.640625 11.394531 13.140625 C 11.808594 12.640625 12.171875 12.429688 12.171875 12.429688 C 12.171875 12.429688 12.832031 12.609375 13.003906 12.84375 C 13.175781 13.078125 13.328125 13.917969 13.328125 13.917969 C 13.328125 13.917969 12.351562 14.667969 12.0625 14.910156 L 11.964844 15.226562 C 11.964844 15.226562 12.429688 15.328125 12.804688 15.78125 C 13.179688 16.234375 13.601562 17.03125 13.816406 17.277344 C 14.035156 17.523438 14.378906 17.285156 14.496094 17.554688 C 14.613281 17.816406 13.941406 17.945312 13.894531 18.566406 C 13.847656 19.191406 13.425781 19.878906 13.066406 19.640625 Z M 19.339844 9.5 C 19.320312 9.839844 17.835938 9.785156 17.59375 10.273438 C 17.347656 10.761719 17.546875 12.511719 17.222656 13.214844 C 17.222656 13.214844 17.507812 13.378906 17.183594 13.9375 C 16.863281 14.496094 16.535156 14.417969 16.140625 14.265625 C 16.140625 14.265625 15.1875 14.308594 14.546875 14.195312 C 13.902344 14.085938 13.542969 13.878906 13.542969 13.878906 C 13.542969 13.878906 13.367188 13.21875 13.480469 12.953125 C 13.597656 12.683594 14.253906 12.132812 14.253906 12.132812 C 14.253906 12.132812 15.390625 12.605469 15.742188 12.734375 L 16.066406 12.660156 C 16.066406 12.660156 15.917969 12.203125 16.125 11.65625 C 16.332031 11.105469 16.808594 10.339844 16.914062 10.03125 C 17.019531 9.71875 16.644531 9.539062 16.816406 9.304688 C 16.988281 9.066406 17.429688 9.585938 17.996094 9.316406 C 18.558594 9.046875 19.367188 9.070312 19.339844 9.5 Z M 19.339844 9.5 "/>
<path fill-rule="nonzero" fill="rgb(97.253418%, 86.273193%, 8.235168%)" fill-opacity="1" d="M 8.722656 11.167969 L 9.003906 11.414062 L 9.363281 11.320312 L 9.21875 11.664062 L 9.417969 11.980469 L 9.046875 11.945312 L 8.808594 12.234375 L 8.722656 11.871094 L 8.378906 11.730469 L 8.699219 11.539062 Z M 14.210938 17.449219 L 14.28125 17.082031 L 14.019531 16.816406 L 14.390625 16.769531 L 14.5625 16.441406 L 14.71875 16.78125 L 15.085938 16.839844 L 14.816406 17.097656 L 14.867188 17.464844 L 14.542969 17.28125 Z M 16.867188 9.605469 L 16.515625 9.726562 L 16.414062 10.085938 L 16.191406 9.789062 L 15.820312 9.804688 L 16.035156 9.5 L 15.902344 9.148438 L 16.261719 9.257812 L 16.550781 9.027344 L 16.558594 9.398438 Z M 16.867188 9.605469 "/>
</svg>