<svg xmlns="http://www.w3.org/2000/svg" xmlns:xlink="http://www.w3.org/1999/xlink" viewBox="0 0 27 27">
<path fill-rule="nonzero" fill="rgb(93.331909%, 93.331909%, 93.331909%)" fill-opacity="1" d="M 27 20.25 C 27 21.90625 25.65625 23.25 24 23.25 L 3 23.25 C 1.34375 23.25 0 21.90625 0 20.25 L 0 6.75 C 0 5.09375 1.34375 3.75 3 3.75 L 24 3.75 C 25.65625 3.75 27 5.09375 27 6.75 Z M 27 20.25 "/>
<path fill-rule="nonzero" fill="rgb(0%, 14.117432%, 49.01886%)" fill-opacity="1" d="M 25.773438 21.09375 C 24.410156 21.09375 24.410156 20.296875 23.046875 20.296875 C 21.683594 20.296875 21.683594 21.046875 20.277344 21.046875 C 18.953125 21.046875 18.953125 20.296875 17.570312 20.296875 C 16.226562 20.296875 16.226562 21.046875 14.863281 21.046875 C 13.5 21.046875 13.5 20.296875 12.136719 20.296875 C 10.773438 20.296875 10.773438 21.046875 9.410156 21.046875 C 8.046875 21.046875 8.046875 20.296875 6.683594 20.296875 C 5.320312 20.296875 5.320312 21.046875 3.957031 21.046875 C 2.59375 21.046875 2.59375 20.296875 1.226562 20.296875 C 0.65625 20.296875 0.328125 20.429688 0.0351562 20.585938 C 0.0859375 21.0625 0.242188 21.507812 0.496094 21.890625 C 0.691406 21.835938 0.925781 21.796875 1.226562 21.796875 C 2.59375 21.796875 2.59375 22.546875 3.957031 22.546875 C 5.320312 22.546875 5.320312 21.796875 6.683594 21.796875 C 8.046875 21.796875 8.046875 22.546875 9.410156 22.546875 C 10.773438 22.546875 10.773438 21.796875 12.136719 21.796875 C 13.5 21.796875 13.5 22.546875 14.863281 22.546875 C 16.226562 22.546875 16.226562 21.796875 17.585938 21.796875 C 18.957031 21.796875 18.957031 22.546875 20.316406 22.546875 C 21.683594 22.546875 21.683594 21.796875 23.046875 21.796875 C 24.410156 21.796875 24.410156 22.523438 25.773438 22.523438 C 25.839844 22.523438 25.890625 22.515625 25.953125 22.511719 C 26.457031 22.078125 26.820312 21.484375 26.945312 20.800781 C 26.65625 20.957031 26.332031 21.09375 25.773438 21.09375 Z M 27 19.039062 L 27 17.578125 C 26.699219 17.75 26.367188 17.902344 25.773438 17.902344 C 24.410156 17.902344 24.410156 17.105469 23.046875 17.105469 C 21.683594 17.105469 21.683594 17.855469 20.277344 17.855469 C 18.953125 17.855469 18.953125 17.105469 17.570312 17.105469 C 16.226562 17.105469 16.226562 17.855469 14.863281 17.855469 C 13.5 17.855469 13.5 17.105469 12.136719 17.105469 C 10.773438 17.105469 10.773438 17.855469 9.410156 17.855469 C 8.046875 17.855469 8.046875 17.105469 6.683594 17.105469 C 5.320312 17.105469 5.320312 17.855469 3.957031 17.855469 C 2.59375 17.855469 2.59375 17.105469 1.226562 17.105469 C 0.632812 17.105469 0.300781 17.246094 0 17.410156 L 0 18.910156 C 0.300781 18.746094 0.636719 18.605469 1.226562 18.605469 C 2.589844 18.605469 2.589844 19.355469 3.957031 19.355469 C 5.320312 19.355469 5.320312 18.605469 6.683594 18.605469 C 8.046875 18.605469 8.046875 19.355469 9.410156 19.355469 C 10.773438 19.355469 10.773438 18.605469 12.136719 18.605469 C 13.5 18.605469 13.5 19.355469 14.863281 19.355469 C 16.226562 19.355469 16.226562 18.605469 17.585938 18.605469 C 18.953125 18.605469 18.953125 19.355469 20.316406 19.355469 C 21.683594 19.355469 21.683594 18.605469 23.046875 18.605469 C 24.410156 18.605469 24.410156 19.332031 25.773438 19.332031 C 26.367188 19.332031 26.699219 19.191406 27 19.039062 Z M 27 15.84375 L 27 14.386719 C 26.699219 14.558594 26.367188 14.710938 25.773438 14.710938 C 24.410156 14.710938 24.410156 13.910156 23.046875 13.910156 C 21.683594 13.910156 21.683594 14.660156 20.277344 14.660156 C 18.953125 14.660156 18.953125 13.910156 17.570312 13.910156 C 16.226562 13.910156 16.226562 14.660156 14.863281 14.660156 C 13.5 14.660156 13.5 13.910156 12.136719 13.910156 C 10.773438 13.910156 10.773438 14.660156 9.410156 14.660156 C 8.046875 14.660156 8.046875 13.910156 6.683594 13.910156 C 5.320312 13.910156 5.320312 14.660156 3.957031 14.660156 C 2.59375 14.660156 2.59375 13.910156 1.226562 13.910156 C 0.632812 13.910156 0.300781 14.054688 0 14.214844 L 0 15.714844 C 0.300781 15.554688 0.636719 15.410156 1.226562 15.410156 C 2.589844 15.410156 2.589844 16.160156 3.957031 16.160156 C 5.320312 16.160156 5.320312 15.410156 6.683594 15.410156 C 8.046875 15.410156 8.046875 16.160156 9.410156 16.160156 C 10.773438 16.160156 10.773438 15.410156 12.136719 15.410156 C 13.5 15.410156 13.5 16.160156 14.863281 16.160156 C 16.226562 16.160156 16.226562 15.410156 17.585938 15.410156 C 18.953125 15.410156 18.953125 16.160156 20.316406 16.160156 C 21.683594 16.160156 21.683594 15.410156 23.046875 15.410156 C 24.410156 15.410156 24.410156 16.136719 25.773438 16.136719 C 26.367188 16.136719 26.699219 16 27 15.84375 Z M 27 12.652344 L 27 11.195312 C 26.699219 11.363281 26.367188 11.515625 25.773438 11.515625 C 24.410156 11.515625 24.410156 10.71875 23.046875 10.71875 C 21.683594 10.71875 21.683594 11.46875 20.277344 11.46875 C 18.953125 11.46875 18.953125 10.71875 17.570312 10.71875 C 16.226562 10.71875 16.226562 11.46875 14.863281 11.46875 C 13.5 11.46875 13.5 10.71875 12.136719 10.71875 C 10.773438 10.71875 10.773438 11.46875 9.410156 11.46875 C 8.046875 11.46875 8.046875 10.71875 6.683594 10.71875 C 5.320312 10.71875 5.320312 11.46875 3.957031 11.46875 C 2.59375 11.46875 2.59375 10.71875 1.226562 10.71875 C 0.632812 10.71875 0.300781 10.863281 0 11.023438 L 0 12.523438 C 0.300781 12.363281 0.636719 12.21875 1.226562 12.21875 C 2.589844 12.21875 2.589844 12.96875 3.957031 12.96875 C 5.320312 12.96875 5.320312 12.21875 6.683594 12.21875 C 8.046875 12.21875 8.046875 12.96875 9.410156 12.96875 C 10.773438 12.96875 10.773438 12.21875 12.136719 12.21875 C 13.5 12.21875 13.5 12.96875 14.863281 12.96875 C 16.226562 12.96875 16.226562 12.21875 17.585938 12.21875 C 18.953125 12.21875 18.953125 12.96875 20.316406 12.96875 C 21.683594 12.96875 21.683594 12.21875 23.046875 12.21875 C 24.410156 12.21875 24.410156 12.945312 25.773438 12.945312 C 26.367188 12.945312 26.699219 12.808594 27 12.652344 Z M 27 9.457031 L 27 8 C 26.699219 8.171875 26.367188 8.324219 25.773438 8.324219 C 24.410156 8.324219 24.410156 7.527344 23.046875 7.527344 C 21.683594 7.527344 21.683594 8.277344 20.277344 8.277344 C 18.953125 8.277344 18.953125 7.527344 17.570312 7.527344 C 16.226562 7.527344 16.226562 8.277344 14.863281 8.277344 C 13.5 8.277344 13.5 7.527344 12.136719 7.527344 C 10.773438 7.527344 10.773438 8.277344 9.410156 8.277344 C 8.046875 8.277344 8.046875 7.527344 6.683594 7.527344 C 5.320312 7.527344 5.320312 8.277344 3.957031 8.277344 C 2.59375 8.277344 2.59375 7.527344 1.226562 7.527344 C 0.632812 7.527344 0.300781 7.667969 0 7.828125 L 0 9.328125 C 0.300781 9.167969 0.636719 9.027344 1.226562 9.027344 C 2.589844 9.027344 2.589844 9.777344 3.957031 9.777344 C 5.320312 9.777344 5.320312 9.027344 6.683594 9.027344 C 8.046875 9.027344 8.046875 9.777344 9.410156 9.777344 C 10.773438 9.777344 10.773438 9.027344 12.136719 9.027344 C 13.5 9.027344 13.5 9.777344 14.863281 9.777344 C 16.226562 9.777344 16.226562 9.027344 17.585938 9.027344 C 18.953125 9.027344 18.953125 9.777344 20.316406 9.777344 C 21.683594 9.777344 21.683594 9.027344 23.046875 9.027344 C 24.410156 9.027344 24.410156 9.753906 25.773438 9.753906 C 26.367188 9.753906 26.699219 9.613281 27 9.457031 Z M 26.953125 6.289062 C 26.882812 5.828125 26.714844 5.40625 26.460938 5.039062 C 26.273438 5.09375 26.054688 5.128906 25.773438 5.128906 C 24.410156 5.128906 24.410156 4.332031 23.046875 4.332031 C 21.683594 4.332031 21.683594 5.082031 20.277344 5.082031 C 18.953125 5.082031 18.953125 4.332031 17.570312 4.332031 C 16.226562 4.332031 16.226562 5.082031 14.863281 5.082031 C 13.5 5.082031 13.5 4.332031 12.136719 4.332031 C 10.773438 4.332031 10.773438 5.082031 9.410156 5.082031 C 8.046875 5.082031 8.046875 4.332031 6.683594 4.332031 C 5.320312 4.332031 5.320312 5.082031 3.957031 5.082031 C 2.59375 5.082031 2.589844 4.339844 1.238281 4.335938 C 0.65625 4.757812 0.234375 5.375 0.0742188 6.101562 C 0.359375 5.953125 0.683594 5.832031 1.226562 5.832031 C 2.589844 5.832031 2.589844 6.582031 3.953125 6.582031 C 5.316406 6.582031 5.316406 5.832031 6.683594 5.832031 C 8.046875 5.832031 8.046875 6.582031 9.410156 6.582031 C 10.773438 6.582031 10.773438 5.832031 12.136719 5.832031 C 13.5 5.832031 13.5 6.582031 14.863281 6.582031 C 16.226562 6.582031 16.226562 5.832031 17.585938 5.832031 C 18.953125 5.832031 18.953125 6.582031 20.316406 6.582031 C 21.683594 6.582031 21.683594 5.832031 23.042969 5.832031 C 24.410156 5.832031 24.410156 6.558594 25.773438 6.558594 C 26.335938 6.558594 26.664062 6.433594 26.953125 6.289062 Z M 26.953125 6.289062 "/>
<path fill-rule="nonzero" fill="rgb(75.68512%, 41.175842%, 30.979919%)" fill-opacity="1" d="M 20.4375 21.507812 C 20.4375 21.640625 20.328125 21.75 20.195312 21.75 C 20.058594 21.75 19.953125 21.640625 19.953125 21.507812 L 19.953125 9.609375 C 19.953125 9.476562 20.0625 9.367188 20.195312 9.367188 C 20.328125 9.367188 20.4375 9.476562 20.4375 9.609375 Z M 20.4375 21.507812 "/>
<path fill-rule="nonzero" fill="rgb(86.665344%, 18.03894%, 26.66626%)" fill-opacity="1" d="M 18.492188 15.273438 C 18.492188 15.273438 18.597656 15.023438 18.960938 15.023438 C 19.328125 15.023438 19.417969 15.214844 19.636719 15.300781 C 19.859375 15.390625 20.136719 15.433594 20.136719 15.433594 L 20.136719 17.269531 L 18.167969 17.269531 C 18.167969 17.269531 18.09375 16.578125 17.976562 16.242188 C 17.859375 15.90625 17.757812 15.449219 18.007812 15.300781 C 18.257812 15.15625 18.492188 15.273438 18.492188 15.273438 Z M 18.492188 15.273438 "/>
<path fill-rule="nonzero" fill="rgb(100%, 79.998779%, 30.195618%)" fill-opacity="1" d="M 20.128906 14.796875 L 20.128906 15.058594 C 20.128906 15.058594 19.625 15.015625 19.183594 14.707031 C 18.914062 14.519531 18.347656 14.289062 17.90625 14.664062 C 17.617188 14.90625 17.640625 15.523438 17.820312 15.765625 C 17.992188 16.007812 18.171875 16.558594 17.796875 16.183594 C 17.421875 15.808594 17.308594 15.234375 17.421875 14.863281 C 17.53125 14.488281 17.773438 14.113281 18.347656 14.113281 C 18.917969 14.113281 19.292969 14.421875 19.558594 14.578125 C 19.789062 14.710938 20.152344 14.75 20.128906 14.796875 Z M 20.128906 14.796875 "/>
<path fill-rule="nonzero" fill="rgb(100%, 79.998779%, 30.195618%)" fill-opacity="1" d="M 17.921875 16.125 L 18.230469 16.109375 L 18.140625 16.578125 C 18.140625 16.578125 18.449219 16.34375 18.464844 16.402344 C 18.476562 16.464844 18.523438 16.886719 18.523438 16.886719 L 18.125 16.800781 L 18.359375 17.136719 L 18.050781 17.285156 C 18.050781 17.285156 17.933594 16.886719 17.90625 16.699219 C 17.875 16.507812 17.921875 16.125 17.921875 16.125 Z M 18.566406 16.375 L 18.859375 16.34375 C 18.859375 16.34375 18.605469 15.773438 18.976562 15.785156 C 19.390625 15.800781 19.109375 16.332031 19.109375 16.332031 L 19.417969 16.332031 L 19.460938 16.757812 L 19.167969 16.582031 L 19.167969 16.832031 L 19.492188 17.140625 L 18.640625 17.226562 L 18.859375 16.859375 L 18.847656 16.597656 L 18.640625 16.832031 Z M 18.566406 16.375 "/>
<path fill-rule="nonzero" fill="rgb(86.665344%, 18.03894%, 26.66626%)" fill-opacity="1" d="M 21.902344 15.273438 C 21.902344 15.273438 21.800781 15.023438 21.433594 15.023438 C 21.066406 15.023438 20.980469 15.214844 20.757812 15.300781 C 20.539062 15.390625 20.257812 15.433594 20.257812 15.433594 L 20.257812 17.269531 L 22.226562 17.269531 C 22.226562 17.269531 22.300781 16.578125 22.417969 16.242188 C 22.535156 15.90625 22.636719 15.449219 22.390625 15.300781 C 22.136719 15.15625 21.902344 15.273438 21.902344 15.273438 Z M 21.902344 15.273438 "/>
<path fill-rule="nonzero" fill="rgb(100%, 79.998779%, 30.195618%)" fill-opacity="1" d="M 20.265625 14.796875 L 20.265625 15.058594 C 20.265625 15.058594 20.773438 15.015625 21.214844 14.707031 C 21.480469 14.519531 22.050781 14.289062 22.492188 14.664062 C 22.777344 14.90625 22.753906 15.523438 22.578125 15.765625 C 22.402344 16.007812 22.226562 16.558594 22.601562 16.183594 C 22.976562 15.808594 23.085938 15.234375 22.976562 14.863281 C 22.867188 14.488281 22.621094 14.113281 22.050781 14.113281 C 21.476562 14.113281 21.101562 14.421875 20.839844 14.578125 C 20.609375 14.710938 20.242188 14.75 20.265625 14.796875 Z M 20.265625 14.796875 "/>
<path fill-rule="nonzero" fill="rgb(100%, 79.998779%, 30.195618%)" fill-opacity="1" d="M 22.476562 16.125 L 22.167969 16.109375 L 22.257812 16.578125 C 22.257812 16.578125 21.949219 16.34375 21.933594 16.402344 C 21.917969 16.464844 21.875 16.886719 21.875 16.886719 L 22.269531 16.800781 L 22.035156 17.136719 L 22.34375 17.285156 C 22.34375 17.285156 22.460938 16.886719 22.492188 16.699219 C 22.519531 16.507812 22.476562 16.125 22.476562 16.125 Z M 21.828125 16.375 L 21.535156 16.34375 C 21.535156 16.34375 21.789062 15.773438 21.417969 15.785156 C 21.007812 15.800781 21.285156 16.332031 21.285156 16.332031 L 20.976562 16.332031 L 20.933594 16.757812 L 21.226562 16.582031 L 21.226562 16.832031 L 20.902344 17.140625 L 21.757812 17.226562 L 21.535156 16.859375 L 21.550781 16.597656 L 21.757812 16.832031 Z M 20.707031 14.054688 C 20.707031 14.347656 20.476562 14.582031 20.195312 14.582031 C 19.910156 14.582031 19.679688 14.34375 19.679688 14.054688 C 19.679688 13.761719 19.910156 13.523438 20.195312 13.523438 C 20.476562 13.527344 20.707031 13.761719 20.707031 14.054688 Z M 19.734375 12.894531 L 20.65625 12.894531 L 20.65625 13.261719 L 19.734375 13.261719 Z M 19.734375 12.894531 "/>
<path fill-rule="nonzero" fill="rgb(100%, 79.998779%, 30.195618%)" fill-opacity="1" d="M 19.976562 12.644531 L 20.414062 12.644531 L 20.414062 16.035156 L 19.976562 16.035156 Z M 19.976562 12.644531 "/>
<path fill-rule="nonzero" fill="rgb(100%, 79.998779%, 30.195618%)" fill-opacity="1" d="M 19.828125 15.890625 L 20.519531 15.890625 L 20.328125 16.375 L 20.769531 16.140625 L 20.769531 16.785156 L 20.34375 16.640625 L 20.710938 17.195312 L 19.753906 17.195312 L 20.050781 16.640625 L 19.625 16.742188 L 19.625 16.167969 L 20.019531 16.359375 Z M 19.828125 15.890625 "/>
<path fill-rule="nonzero" fill="rgb(100%, 79.998779%, 30.195618%)" fill-opacity="1" d="M 20.195312 16.976562 C 21.105469 16.976562 21.679688 17.050781 22.324219 17.285156 C 22.324219 17.285156 22.371094 17.667969 22.28125 17.859375 C 22.195312 18.050781 20.183594 17.726562 20.183594 17.726562 Z M 20.195312 16.976562 "/>
<path fill-rule="nonzero" fill="rgb(100%, 79.998779%, 30.195618%)" fill-opacity="1" d="M 20.222656 16.976562 C 19.3125 16.976562 18.738281 17.050781 18.09375 17.285156 C 18.09375 17.285156 18.046875 17.667969 18.136719 17.859375 C 18.226562 18.050781 20.238281 17.726562 20.238281 17.726562 Z M 20.222656 16.976562 "/>
<path fill-rule="nonzero" fill="rgb(93.331909%, 93.331909%, 93.331909%)" fill-opacity="1" d="M 22.558594 18.246094 C 22.558594 18.535156 21.5 18.765625 20.195312 18.765625 C 18.890625 18.765625 17.828125 18.535156 17.828125 18.246094 C 17.828125 17.957031 18.890625 17.726562 20.195312 17.726562 C 21.5 17.726562 22.558594 17.957031 22.558594 18.246094 Z M 22.558594 18.246094 "/>
<path fill-rule="nonzero" fill="rgb(59.999084%, 66.665649%, 70.979309%)" fill-opacity="1" d="M 21.78125 18.4375 C 21.78125 18.597656 21.070312 18.726562 20.195312 18.726562 C 19.316406 18.726562 18.605469 18.597656 18.605469 18.4375 C 18.605469 18.28125 19.316406 18.152344 20.195312 18.152344 C 21.070312 18.152344 21.78125 18.28125 21.78125 18.4375 Z M 21.78125 18.4375 "/>
<path fill-rule="nonzero" fill="rgb(46.665955%, 69.802856%, 33.332825%)" fill-opacity="1" d="M 19.242188 5.15625 L 19.726562 5.757812 C 19.726562 5.757812 20.0625 5.550781 20.078125 5.597656 C 20.09375 5.640625 20.050781 6.09375 20.050781 6.09375 L 20.285156 6.152344 L 20.09375 6.757812 C 20.09375 6.757812 20.386719 6.59375 20.371094 6.652344 C 20.359375 6.710938 20.285156 7.226562 20.285156 7.226562 L 20.402344 7.300781 L 20.386719 7.871094 C 20.386719 7.871094 20.503906 8.078125 20.503906 8.035156 C 20.503906 7.992188 20.621094 7.285156 20.621094 7.285156 L 20.785156 7.417969 L 20.839844 7.050781 L 20.972656 6.417969 L 21.121094 6.652344 L 21.429688 5.609375 L 21.589844 5.976562 L 21.957031 5.550781 L 22.207031 5.539062 L 22.574219 5.433594 L 22.648438 5.652344 L 22.984375 5.652344 C 22.984375 5.652344 22.808594 5.800781 22.824219 5.84375 C 22.839844 5.890625 23.148438 6.050781 23.101562 6.066406 C 23.058594 6.082031 22.308594 6.007812 22.308594 6.007812 L 21.886719 6.433594 L 22.148438 6.519531 L 21.75 6.753906 L 22.089844 6.859375 L 21.78125 7.09375 L 22.046875 7.0625 L 21.621094 7.386719 L 22.046875 7.476562 L 21.472656 7.769531 L 21.605469 7.914062 L 21.03125 8.253906 L 20.957031 8.488281 L 21.503906 8.0625 C 21.503906 8.0625 21.945312 7.769531 22.164062 7.636719 C 22.382812 7.503906 22.558594 7.253906 22.929688 7.152344 C 23.296875 7.050781 24 7.167969 24 7.167969 L 23.339844 7.519531 L 23.472656 7.726562 L 23.046875 7.855469 L 23.105469 8.105469 L 22.398438 8.210938 L 22.414062 8.472656 L 21.8125 8.578125 L 21.738281 8.828125 L 21.328125 8.972656 L 21.519531 9.136719 C 21.519531 9.136719 21.164062 9.253906 21.210938 9.265625 C 21.253906 9.28125 21.722656 9.324219 21.722656 9.324219 C 21.722656 9.324219 21.488281 9.53125 21.53125 9.53125 C 21.578125 9.53125 22.164062 9.558594 22.164062 9.558594 L 21.914062 9.738281 L 22.503906 9.765625 L 22.238281 9.972656 C 22.238281 9.972656 22.722656 10.015625 22.722656 10.058594 C 22.722656 10.101562 22.515625 10.324219 22.515625 10.324219 L 22.941406 10.367188 C 22.941406 10.367188 22.738281 10.585938 22.78125 10.601562 C 22.824219 10.617188 23.382812 11 23.382812 11 L 22.722656 10.910156 C 22.722656 10.910156 22.558594 11.132812 22.546875 11.085938 C 22.53125 11.042969 22.371094 10.777344 22.371094 10.777344 L 22.207031 10.957031 L 22.03125 10.601562 C 22.03125 10.601562 21.828125 10.71875 21.839844 10.675781 C 21.855469 10.632812 21.605469 10.351562 21.605469 10.351562 L 21.546875 10.484375 L 21.386719 10.089844 L 21.238281 10.292969 L 20.960938 9.910156 L 20.859375 10.074219 L 20.476562 9.734375 C 20.476562 9.734375 20.460938 9.957031 20.476562 10 C 20.488281 10.042969 20.753906 10.234375 20.753906 10.234375 C 20.753906 10.234375 20.578125 10.308594 20.578125 10.351562 C 20.578125 10.398438 20.933594 10.675781 20.933594 10.675781 L 20.769531 10.792969 L 21.152344 11.117188 C 21.152344 11.117188 20.800781 11.191406 20.84375 11.21875 C 20.886719 11.25 21.0625 11.484375 21.0625 11.484375 L 20.917969 11.835938 L 20.625 11.378906 L 20.460938 11.425781 L 20.429688 11.042969 L 20.269531 11.027344 L 20.359375 10.601562 L 20.183594 10.632812 L 20.167969 10.28125 L 20.09375 9.925781 L 19.945312 9.691406 C 19.945312 9.691406 19.84375 9.867188 19.859375 9.910156 C 19.875 9.957031 19.992188 10.234375 19.992188 10.234375 C 19.992188 10.234375 19.828125 10.320312 19.859375 10.367188 C 19.886719 10.410156 20.050781 10.734375 20.050781 10.734375 C 20.050781 10.734375 19.695312 10.808594 19.742188 10.808594 C 19.785156 10.808594 19.902344 11.011719 19.902344 11.011719 L 19.710938 11.085938 L 19.625 11.304688 C 19.625 11.304688 19.40625 11.054688 19.417969 11.101562 C 19.433594 11.144531 19.285156 11.554688 19.285156 11.554688 L 19.066406 11.304688 L 19.285156 10.441406 L 19.023438 10.367188 L 18.832031 10.761719 C 18.832031 10.761719 18.667969 10.574219 18.65625 10.617188 C 18.640625 10.660156 18.476562 10.953125 18.476562 10.953125 C 18.476562 10.953125 18.289062 10.632812 18.304688 10.675781 C 18.316406 10.71875 18.082031 11.191406 18.082031 11.191406 C 18.082031 11.191406 17.878906 10.777344 17.878906 10.835938 C 17.878906 10.894531 17.730469 11.410156 17.730469 11.410156 C 17.730469 11.410156 17.496094 11.015625 17.511719 11.085938 C 17.527344 11.160156 17.347656 11.5 17.347656 11.5 L 17.304688 11.132812 L 16.980469 11.320312 L 17.347656 10.792969 L 17.964844 10.21875 L 18.4375 9.867188 L 18.125 9.824219 C 18.125 9.824219 18.574219 9.667969 18.625 9.664062 C 18.757812 9.648438 18.421875 9.53125 18.421875 9.53125 L 19.242188 9.28125 C 19.242188 9.28125 18.875 9.089844 18.832031 9.136719 C 18.785156 9.179688 18.347656 9.265625 18.347656 9.265625 L 18.289062 8.929688 L 17.832031 9.121094 C 17.832031 9.121094 17.757812 8.8125 17.746094 8.855469 C 17.730469 8.898438 17.375 9.089844 17.375 9.089844 L 17.203125 8.898438 L 16.996094 9.222656 L 16.761719 9.046875 L 16.335938 9.179688 L 16.539062 8.871094 L 16.304688 8.738281 L 16.789062 8.429688 L 16.894531 8.222656 L 17.554688 8.269531 C 17.554688 8.269531 17.378906 8.035156 17.40625 8.078125 C 17.4375 8.121094 18.082031 8.222656 18.082031 8.222656 L 18.273438 8.195312 L 18.921875 8.429688 L 18.390625 8.003906 L 17.9375 7.914062 L 18.230469 7.679688 L 17.539062 7.433594 L 17.6875 7.195312 L 16.773438 6.960938 L 17.335938 6.816406 L 16.953125 6.167969 L 17.746094 6.640625 L 18.097656 6.519531 L 18.273438 6.976562 L 18.597656 7.167969 L 18.65625 7.503906 L 18.816406 7.433594 L 18.964844 7.828125 L 19.15625 7.769531 L 19.257812 8.046875 L 19.539062 8.0625 L 19.464844 7.695312 L 19.582031 7.519531 L 19.257812 7.253906 L 19.539062 7.121094 L 19.125 6.785156 L 19.476562 6.738281 L 18.976562 6.253906 L 19.375 6.269531 L 18.976562 5.816406 L 19.300781 5.742188 Z M 19.242188 5.15625 "/>
<path fill-rule="nonzero" fill="rgb(0%, 14.117432%, 49.01886%)" fill-opacity="1" d="M 14.25 13.5 L 14.25 3.75 L 3 3.75 C 2.761719 3.75 2.546875 3.785156 2.546875 3.785156 L 2.542969 5.097656 L 0.496094 5.097656 C 0.496094 5.097656 0.464844 5.140625 0.402344 5.25 C 0.144531 5.691406 0 6.203125 0 6.75 L 0 13.5 Z M 14.25 13.5 "/>
<path fill-rule="nonzero" fill="rgb(93.331909%, 93.331909%, 93.331909%)" fill-opacity="1" d="M 14.25 3.75 L 12.5 3.75 L 9 6.203125 L 9 3.75 L 5.25 3.75 L 5.25 5.675781 L 2.546875 3.785156 C 2.085938 3.855469 1.65625 4.027344 1.292969 4.28125 L 4.820312 6.75 L 3.515625 6.75 L 0.726562 4.792969 C 0.644531 4.890625 0.566406 4.988281 0.496094 5.097656 L 2.859375 6.75 L 0 6.75 L 0 10.5 L 2.914062 10.5 L 0 12.574219 L 0 13.5 L 2.5 13.5 L 5.25 11.574219 L 5.25 13.5 L 9 13.5 L 9 11.046875 L 12.5 13.5 L 14.25 13.5 L 14.25 11.976562 L 12.140625 10.5 L 14.25 10.5 L 14.25 6.75 L 12.140625 6.75 L 14.25 5.273438 Z M 14.25 3.75 "/>
<path fill-rule="nonzero" fill="rgb(81.175232%, 10.588074%, 16.862488%)" fill-opacity="1" d="M 8.25 3.75 L 6 3.75 L 6 7.5 L 0 7.5 L 0 9.75 L 6 9.75 L 6 13.5 L 8.25 13.5 L 8.25 9.75 L 14.25 9.75 L 14.25 7.5 L 8.25 7.5 Z M 8.25 3.75 "/>
<path fill-rule="nonzero" fill="rgb(81.175232%, 10.588074%, 16.862488%)" fill-opacity="1" d="M 14.25 3.75 L 13.152344 3.75 L 9 6.660156 L 9 6.75 L 10.179688 6.75 L 14.25 3.898438 Z M 1.292969 4.28125 C 1.082031 4.429688 0.890625 4.601562 0.726562 4.792969 L 3.515625 6.75 L 4.820312 6.75 Z M 4.828125 10.5 L 0.550781 13.5 L 1.847656 13.5 L 5.25 11.117188 L 5.25 10.5 Z M 14.25 13.351562 L 14.25 12.4375 L 11.484375 10.5 L 10.175781 10.5 Z M 14.25 13.351562 "/>
</svg>