<svg xmlns="http://www.w3.org/2000/svg" xmlns:xlink="http://www.w3.org/1999/xlink" viewBox="0 0 27 27">
<path fill-rule="nonzero" fill="rgb(93.331909%, 93.331909%, 93.331909%)" fill-opacity="1" d="M 27 20.25 C 27 21.90625 25.65625 23.25 24 23.25 L 3 23.25 C 1.34375 23.25 0 21.90625 0 20.25 L 0 6.75 C 0 5.09375 1.34375 3.75 3 3.75 L 24 3.75 C 25.65625 3.75 27 5.09375 27 6.75 Z M 27 20.25 "/>
<path fill-rule="nonzero" fill="rgb(83.528137%, 12.548828%, 28.234863%)" fill-opacity="1" d="M 2.390625 3.8125 C 1.511719 3.996094 0.789062 4.566406 0.375 5.328125 L 11.464844 13.5 L 0.375 21.671875 C 0.789062 22.4375 1.511719 23.003906 2.390625 23.1875 L 13.5 15 L 24.609375 23.1875 C 25.488281 23.003906 26.210938 22.433594 26.625 21.671875 L 15.535156 13.5 L 26.625 5.328125 C 26.210938 4.566406 25.488281 3.996094 24.609375 3.8125 L 13.5 12 Z M 2.390625 3.8125 "/>
<path fill-rule="nonzero" fill="rgb(100%, 79.998779%, 30.195618%)" fill-opacity="1" d="M 15.398438 5.25 C 15.273438 5.296875 15.207031 5.523438 15.207031 5.523438 C 15.207031 5.523438 15.09375 5.269531 14.753906 5.433594 C 14.753906 5.433594 14.941406 5.621094 14.898438 5.777344 C 14.859375 5.933594 14.753906 6.003906 14.566406 5.976562 C 14.351562 5.949219 14.3125 5.699219 14.3125 5.699219 C 14.3125 5.699219 14.445312 5.675781 14.460938 5.5625 C 14.46875 5.492188 14.4375 5.394531 14.320312 5.386719 C 14.230469 5.378906 14.144531 5.433594 14.144531 5.542969 C 14.144531 5.621094 14.242188 5.6875 14.242188 5.6875 C 14.242188 5.6875 14.164062 5.855469 13.984375 5.863281 C 13.761719 5.875 13.660156 5.746094 13.660156 5.53125 C 13.652344 5.222656 14.050781 5.21875 14.050781 5.21875 C 14.050781 5.21875 14.015625 5.070312 13.878906 4.992188 C 13.742188 4.914062 13.613281 5.019531 13.613281 5.019531 C 13.613281 5.019531 13.710938 4.800781 13.683594 4.648438 C 13.65625 4.519531 13.558594 4.386719 13.523438 4.34375 L 13.523438 4.332031 L 13.519531 4.339844 L 13.511719 4.332031 L 13.511719 4.347656 C 13.476562 4.390625 13.378906 4.519531 13.355469 4.648438 C 13.324219 4.800781 13.421875 5.019531 13.421875 5.019531 C 13.421875 5.019531 13.296875 4.914062 13.160156 4.992188 C 13.023438 5.070312 12.988281 5.222656 12.988281 5.222656 C 12.988281 5.222656 13.382812 5.226562 13.378906 5.535156 C 13.375 5.75 13.273438 5.875 13.050781 5.867188 C 12.875 5.859375 12.796875 5.691406 12.796875 5.691406 C 12.796875 5.691406 12.894531 5.621094 12.894531 5.542969 C 12.894531 5.4375 12.804688 5.378906 12.71875 5.386719 C 12.601562 5.398438 12.566406 5.496094 12.574219 5.5625 C 12.589844 5.675781 12.722656 5.699219 12.722656 5.699219 C 12.722656 5.699219 12.683594 5.949219 12.46875 5.980469 C 12.285156 6.003906 12.175781 5.933594 12.136719 5.777344 C 12.097656 5.621094 12.28125 5.4375 12.28125 5.4375 C 11.941406 5.269531 11.828125 5.523438 11.828125 5.523438 C 11.828125 5.523438 11.765625 5.296875 11.640625 5.25 C 11.511719 5.203125 11.386719 5.222656 11.386719 5.222656 C 11.386719 5.222656 11.621094 5.59375 11.777344 5.953125 C 11.933594 6.316406 11.992188 6.6875 11.992188 6.6875 C 11.992188 6.6875 12.257812 6.5 12.695312 6.394531 C 13.03125 6.3125 13.460938 6.304688 13.519531 6.304688 C 13.574219 6.304688 14.007812 6.3125 14.34375 6.394531 C 14.78125 6.5 15.046875 6.6875 15.046875 6.6875 C 15.046875 6.6875 15.105469 6.316406 15.261719 5.953125 C 15.421875 5.59375 15.652344 5.222656 15.652344 5.222656 C 15.652344 5.222656 15.527344 5.203125 15.398438 5.25 Z M 15.398438 5.25 "/>
<path fill-rule="nonzero" fill="rgb(86.665344%, 18.03894%, 26.66626%)" fill-opacity="1" d="M 15.046875 6.6875 C 15.046875 6.6875 14.6875 6.453125 14.3125 6.367188 C 13.964844 6.292969 13.570312 6.289062 13.519531 6.289062 C 13.464844 6.289062 13.074219 6.292969 12.722656 6.367188 C 12.347656 6.453125 11.992188 6.6875 11.992188 6.6875 C 11.992188 6.6875 11.683594 7.828125 11.863281 8.65625 C 12.21875 10.296875 13.378906 10.972656 13.511719 11.042969 L 13.511719 11.050781 L 13.523438 11.050781 L 13.523438 11.042969 C 13.660156 10.972656 14.820312 10.296875 15.175781 8.65625 C 15.355469 7.828125 15.046875 6.6875 15.046875 6.6875 Z M 15.046875 6.6875 "/>
<path fill-rule="nonzero" fill="rgb(13.725281%, 12.156677%, 12.548828%)" fill-opacity="1" d="M 13.511719 11.054688 L 13.511719 11.042969 C 13.378906 10.972656 12.214844 10.296875 11.859375 8.65625 C 11.683594 7.835938 11.984375 6.699219 11.988281 6.6875 C 11.992188 6.683594 12.351562 6.449219 12.722656 6.367188 C 13.050781 6.292969 13.414062 6.289062 13.519531 6.289062 C 13.621094 6.289062 13.984375 6.292969 14.316406 6.367188 C 14.683594 6.449219 15.042969 6.683594 15.046875 6.683594 C 15.050781 6.695312 15.355469 7.835938 15.175781 8.65625 C 14.820312 10.292969 13.65625 10.972656 13.527344 11.042969 L 13.527344 11.050781 C 13.523438 11.050781 13.519531 11.050781 13.515625 11.050781 Z M 13.519531 11.046875 L 13.527344 11.050781 L 13.523438 11.042969 C 13.65625 10.972656 14.820312 10.292969 15.171875 8.65625 C 15.347656 7.84375 15.054688 6.722656 15.046875 6.6875 C 15.027344 6.679688 14.679688 6.453125 14.3125 6.371094 C 13.984375 6.296875 13.621094 6.292969 13.519531 6.292969 C 13.414062 6.292969 13.054688 6.296875 12.722656 6.371094 C 12.351562 6.453125 11.996094 6.6875 11.992188 6.6875 C 11.988281 6.699219 11.6875 7.835938 11.863281 8.65625 C 12.21875 10.292969 13.382812 10.972656 13.511719 11.042969 L 13.511719 11.050781 Z M 13.519531 11.046875 "/>
<path fill-rule="nonzero" fill="rgb(100%, 79.998779%, 30.195618%)" fill-opacity="1" d="M 14.554688 6.691406 C 14.554688 6.691406 14.484375 6.785156 14.246094 6.785156 C 14.007812 6.785156 14.113281 6.753906 13.921875 6.753906 C 13.734375 6.753906 13.648438 6.800781 13.648438 6.859375 C 13.648438 6.917969 13.71875 6.957031 13.972656 6.957031 C 14.226562 6.957031 14.320312 6.890625 14.523438 6.890625 C 14.730469 6.890625 14.808594 6.964844 14.808594 7.058594 C 14.808594 7.152344 14.675781 7.320312 14.464844 7.269531 C 14.464844 7.269531 14.613281 7.339844 14.769531 7.332031 C 14.925781 7.320312 15.058594 7.292969 15.066406 7.328125 C 15.078125 7.359375 15.140625 7.542969 15.132812 7.640625 C 15.117188 7.792969 14.925781 7.84375 14.847656 7.835938 C 14.769531 7.828125 14.667969 7.898438 14.636719 7.933594 L 14.65625 7.832031 L 14.578125 7.859375 L 14.621094 7.734375 L 14.527344 7.734375 C 14.527344 7.734375 14.574219 7.636719 14.652344 7.636719 C 14.730469 7.636719 14.90625 7.65625 14.917969 7.601562 C 14.925781 7.546875 14.867188 7.472656 14.757812 7.480469 C 14.644531 7.484375 14.429688 7.546875 14.296875 7.511719 C 14.296875 7.511719 14.253906 7.574219 14.292969 7.625 C 14.332031 7.675781 14.390625 7.734375 14.359375 7.765625 C 14.332031 7.800781 14.257812 7.800781 14.1875 7.796875 C 14.121094 7.792969 13.886719 7.808594 13.804688 7.839844 C 13.71875 7.871094 13.640625 7.914062 13.640625 7.914062 L 13.679688 7.800781 C 13.679688 7.800781 13.601562 7.777344 13.5625 7.8125 C 13.5625 7.8125 13.578125 7.738281 13.640625 7.722656 L 13.566406 7.703125 C 13.566406 7.703125 13.597656 7.617188 13.707031 7.625 C 13.8125 7.636719 13.863281 7.660156 13.894531 7.621094 C 13.929688 7.582031 13.8125 7.503906 13.8125 7.503906 C 13.8125 7.503906 13.726562 7.539062 13.53125 7.566406 C 13.335938 7.597656 13.207031 7.585938 13.207031 7.585938 C 13.207031 7.585938 13.183594 7.792969 12.871094 7.828125 C 12.558594 7.859375 12.402344 7.714844 12.328125 7.683594 C 12.253906 7.65625 12.152344 7.679688 12.152344 7.679688 L 12.199219 7.585938 L 12.082031 7.613281 C 12.082031 7.613281 12.074219 7.5 12.15625 7.496094 L 12.046875 7.464844 C 12.046875 7.464844 12.125 7.371094 12.234375 7.398438 C 12.34375 7.421875 12.398438 7.511719 12.496094 7.5625 C 12.664062 7.644531 13.050781 7.585938 12.761719 7.527344 C 12.695312 7.515625 12.648438 7.453125 12.648438 7.453125 C 12.648438 7.453125 12.464844 7.492188 12.324219 7.269531 C 12.226562 7.121094 12.179688 6.996094 12.003906 7.03125 C 12.003906 7.03125 12.085938 6.925781 12.179688 6.957031 C 12.179688 6.957031 12.125 6.890625 12.042969 6.894531 C 12.042969 6.894531 12.082031 6.796875 12.199219 6.832031 C 12.199219 6.832031 12.136719 6.773438 12.078125 6.777344 C 12.078125 6.777344 12.113281 6.675781 12.269531 6.761719 C 12.421875 6.847656 12.328125 6.921875 12.359375 6.976562 C 12.378906 7.007812 12.421875 7.070312 12.527344 7.160156 C 12.703125 7.316406 12.785156 7.355469 12.730469 7.199219 C 12.671875 7.160156 12.636719 7.058594 12.625 7.007812 C 12.609375 6.960938 12.527344 6.84375 12.550781 6.8125 C 12.574219 6.785156 12.648438 6.839844 12.648438 6.839844 C 12.648438 6.839844 12.742188 6.796875 12.867188 6.796875 C 12.996094 6.796875 13.042969 6.855469 13.042969 6.855469 C 13.042969 6.855469 13.132812 6.789062 13.144531 6.824219 C 13.160156 6.855469 13.097656 6.910156 13.066406 6.96875 C 13.039062 7.027344 13.074219 7.097656 13.074219 7.097656 C 13.074219 7.097656 13.15625 7.210938 13.335938 7.214844 C 13.507812 7.21875 13.773438 7.191406 13.863281 7.171875 C 13.957031 7.152344 14.117188 7.117188 14.226562 7.136719 C 14.335938 7.15625 14.636719 7.152344 14.628906 7.074219 C 14.617188 6.996094 14.542969 6.96875 14.394531 6.988281 C 14.242188 7.007812 14.109375 7.058594 13.832031 7.039062 C 13.550781 7.019531 13.523438 6.875 13.542969 6.808594 C 13.566406 6.714844 13.722656 6.660156 13.871094 6.660156 C 14.015625 6.660156 14.199219 6.71875 14.308594 6.71875 C 14.414062 6.722656 14.554688 6.691406 14.554688 6.691406 Z M 14.554688 6.691406 "/>
<path fill-rule="nonzero" fill="rgb(86.665344%, 18.03894%, 26.66626%)" fill-opacity="1" d="M 12.746094 7.117188 C 12.746094 7.117188 12.804688 7.148438 12.839844 7.144531 C 12.875 7.140625 12.933594 7.109375 12.933594 7.109375 C 12.933594 7.109375 12.914062 7.148438 12.914062 7.179688 C 12.914062 7.214844 12.90625 7.25 12.847656 7.25 C 12.761719 7.253906 12.773438 7.195312 12.769531 7.171875 C 12.761719 7.148438 12.746094 7.117188 12.746094 7.117188 Z M 12.746094 7.117188 "/>
<path fill-rule="nonzero" fill="rgb(6.666565%, 25.881958%, 60.391235%)" fill-opacity="1" d="M 12.890625 7.433594 C 12.890625 7.457031 12.871094 7.480469 12.847656 7.480469 L 12.839844 7.480469 C 12.816406 7.480469 12.796875 7.457031 12.796875 7.433594 L 12.796875 7.246094 C 12.796875 7.21875 12.816406 7.199219 12.839844 7.199219 L 12.847656 7.199219 C 12.871094 7.199219 12.890625 7.21875 12.890625 7.246094 Z M 12.121094 7.410156 C 12.074219 7.429688 12.046875 7.464844 12.046875 7.464844 L 12.15625 7.492188 C 12.074219 7.496094 12.082031 7.609375 12.082031 7.609375 L 12.195312 7.585938 Z M 14.605469 7.648438 C 14.554688 7.671875 14.527344 7.734375 14.527344 7.734375 L 14.621094 7.734375 L 14.578125 7.859375 L 14.65625 7.832031 L 14.636719 7.933594 C 14.652344 7.917969 14.683594 7.890625 14.722656 7.867188 Z M 13.710938 7.878906 L 13.632812 7.636719 C 13.582031 7.65625 13.566406 7.703125 13.566406 7.703125 L 13.640625 7.722656 C 13.578125 7.734375 13.5625 7.808594 13.5625 7.808594 C 13.601562 7.777344 13.679688 7.800781 13.679688 7.800781 L 13.640625 7.914062 C 13.640625 7.914062 13.667969 7.898438 13.710938 7.878906 Z M 12.078125 6.773438 C 12.109375 6.773438 12.148438 6.789062 12.171875 6.808594 L 12.183594 6.726562 C 12.097656 6.710938 12.078125 6.773438 12.078125 6.773438 Z M 12.199219 7.585938 L 12.148438 7.679688 C 12.148438 7.679688 12.1875 7.671875 12.234375 7.667969 Z M 12.152344 6.929688 L 12.167969 6.824219 C 12.074219 6.8125 12.042969 6.890625 12.042969 6.890625 C 12.089844 6.890625 12.125 6.910156 12.152344 6.929688 Z M 12.003906 7.027344 C 12.058594 7.019531 12.097656 7.023438 12.132812 7.039062 L 12.148438 6.949219 C 12.066406 6.945312 12.003906 7.027344 12.003906 7.027344 Z M 12.003906 7.027344 "/>
<path fill-rule="nonzero" fill="rgb(100%, 79.998779%, 30.195618%)" fill-opacity="1" d="M 14.414062 8.039062 C 14.414062 8.039062 14.355469 8.121094 14.136719 8.121094 C 13.921875 8.121094 14.019531 8.09375 13.847656 8.09375 C 13.675781 8.09375 13.601562 8.136719 13.601562 8.191406 C 13.601562 8.242188 13.664062 8.277344 13.890625 8.277344 C 14.121094 8.277344 14.203125 8.21875 14.386719 8.21875 C 14.570312 8.21875 14.640625 8.285156 14.640625 8.367188 C 14.640625 8.453125 14.523438 8.605469 14.335938 8.558594 C 14.335938 8.558594 14.464844 8.625 14.605469 8.613281 C 14.746094 8.605469 14.867188 8.578125 14.875 8.609375 C 14.882812 8.640625 14.9375 8.804688 14.933594 8.890625 C 14.917969 9.027344 14.746094 9.078125 14.675781 9.066406 C 14.605469 9.058594 14.515625 9.125 14.488281 9.15625 L 14.503906 9.0625 L 14.433594 9.089844 L 14.472656 8.976562 L 14.386719 8.976562 C 14.386719 8.976562 14.429688 8.886719 14.5 8.886719 C 14.570312 8.886719 14.730469 8.90625 14.738281 8.855469 C 14.746094 8.808594 14.691406 8.742188 14.59375 8.746094 C 14.492188 8.75 14.296875 8.808594 14.179688 8.777344 C 14.179688 8.777344 14.140625 8.835938 14.175781 8.878906 C 14.210938 8.921875 14.261719 8.976562 14.238281 9.007812 C 14.210938 9.035156 14.144531 9.035156 14.085938 9.03125 C 14.023438 9.027344 13.8125 9.046875 13.738281 9.070312 C 13.664062 9.097656 13.59375 9.136719 13.59375 9.136719 L 13.628906 9.035156 C 13.628906 9.035156 13.558594 9.015625 13.523438 9.046875 C 13.523438 9.046875 13.535156 8.980469 13.59375 8.964844 L 13.527344 8.949219 C 13.527344 8.949219 13.550781 8.871094 13.648438 8.878906 C 13.746094 8.886719 13.789062 8.910156 13.820312 8.875 C 13.851562 8.839844 13.746094 8.769531 13.746094 8.769531 C 13.746094 8.769531 13.667969 8.800781 13.492188 8.824219 C 13.316406 8.851562 13.203125 8.84375 13.203125 8.84375 C 13.203125 8.84375 13.179688 9.027344 12.898438 9.058594 C 12.617188 9.085938 12.476562 8.957031 12.410156 8.929688 C 12.347656 8.902344 12.253906 8.925781 12.253906 8.925781 L 12.296875 8.84375 L 12.191406 8.863281 C 12.191406 8.863281 12.1875 8.765625 12.257812 8.757812 L 12.160156 8.734375 C 12.160156 8.734375 12.230469 8.648438 12.328125 8.671875 C 12.425781 8.691406 12.472656 8.777344 12.566406 8.820312 C 12.714844 8.894531 13.058594 8.84375 12.800781 8.789062 C 12.742188 8.777344 12.699219 8.71875 12.699219 8.71875 C 12.699219 8.71875 12.535156 8.753906 12.40625 8.558594 C 12.320312 8.421875 12.277344 8.3125 12.121094 8.34375 C 12.121094 8.34375 12.195312 8.246094 12.277344 8.277344 C 12.277344 8.277344 12.230469 8.214844 12.15625 8.21875 C 12.15625 8.21875 12.191406 8.132812 12.296875 8.164062 C 12.296875 8.164062 12.238281 8.109375 12.1875 8.113281 C 12.1875 8.113281 12.21875 8.023438 12.359375 8.101562 C 12.5 8.179688 12.414062 8.246094 12.441406 8.292969 C 12.460938 8.324219 12.496094 8.378906 12.589844 8.460938 C 12.75 8.601562 12.824219 8.636719 12.773438 8.492188 C 12.722656 8.457031 12.691406 8.367188 12.679688 8.324219 C 12.664062 8.28125 12.589844 8.175781 12.613281 8.148438 C 12.632812 8.121094 12.699219 8.171875 12.699219 8.171875 C 12.699219 8.171875 12.785156 8.136719 12.898438 8.136719 C 13.011719 8.136719 13.054688 8.1875 13.054688 8.1875 C 13.054688 8.1875 13.132812 8.128906 13.148438 8.15625 C 13.160156 8.1875 13.105469 8.238281 13.078125 8.289062 C 13.050781 8.34375 13.082031 8.402344 13.082031 8.402344 C 13.082031 8.402344 13.160156 8.503906 13.316406 8.507812 C 13.472656 8.511719 13.710938 8.488281 13.792969 8.46875 C 13.875 8.453125 14.019531 8.425781 14.117188 8.441406 C 14.214844 8.457031 14.484375 8.453125 14.476562 8.382812 C 14.46875 8.3125 14.402344 8.289062 14.265625 8.308594 C 14.128906 8.324219 14.011719 8.367188 13.761719 8.351562 C 13.511719 8.332031 13.488281 8.207031 13.503906 8.144531 C 13.527344 8.0625 13.664062 8.011719 13.796875 8.011719 C 13.929688 8.011719 14.09375 8.066406 14.191406 8.066406 C 14.289062 8.066406 14.414062 8.039062 14.414062 8.039062 Z M 14.414062 8.039062 "/>
<path fill-rule="nonzero" fill="rgb(86.665344%, 18.03894%, 26.66626%)" fill-opacity="1" d="M 12.78125 8.425781 C 12.78125 8.425781 12.835938 8.449219 12.863281 8.449219 C 12.894531 8.445312 12.949219 8.417969 12.949219 8.417969 C 12.949219 8.417969 12.933594 8.449219 12.933594 8.480469 C 12.933594 8.511719 12.925781 8.542969 12.871094 8.542969 C 12.792969 8.546875 12.804688 8.496094 12.800781 8.472656 C 12.796875 8.449219 12.78125 8.425781 12.78125 8.425781 Z M 12.78125 8.425781 "/>
<path fill-rule="nonzero" fill="rgb(6.666565%, 25.881958%, 60.391235%)" fill-opacity="1" d="M 12.914062 8.707031 C 12.914062 8.730469 12.894531 8.746094 12.875 8.746094 L 12.867188 8.746094 C 12.84375 8.746094 12.824219 8.730469 12.824219 8.707031 L 12.824219 8.539062 C 12.824219 8.515625 12.84375 8.496094 12.867188 8.496094 L 12.875 8.496094 C 12.894531 8.496094 12.914062 8.515625 12.914062 8.539062 Z M 12.191406 8.683594 C 12.148438 8.703125 12.125 8.734375 12.125 8.734375 L 12.21875 8.757812 C 12.148438 8.761719 12.15625 8.863281 12.15625 8.863281 L 12.257812 8.84375 Z M 14.421875 8.894531 C 14.375 8.917969 14.347656 8.972656 14.347656 8.972656 L 14.4375 8.972656 L 14.398438 9.085938 L 14.46875 9.0625 L 14.449219 9.152344 C 14.464844 9.136719 14.492188 9.113281 14.527344 9.09375 Z M 13.617188 9.101562 L 13.546875 8.886719 C 13.503906 8.90625 13.488281 8.949219 13.488281 8.949219 L 13.554688 8.964844 C 13.496094 8.976562 13.484375 9.042969 13.484375 9.042969 C 13.519531 9.011719 13.589844 9.035156 13.589844 9.035156 L 13.554688 9.136719 C 13.554688 9.136719 13.582031 9.121094 13.617188 9.101562 Z M 12.152344 8.113281 C 12.183594 8.109375 12.214844 8.128906 12.234375 8.140625 L 12.246094 8.070312 C 12.167969 8.054688 12.152344 8.113281 12.152344 8.113281 Z M 12.257812 8.84375 L 12.214844 8.925781 C 12.214844 8.925781 12.25 8.917969 12.292969 8.917969 Z M 12.21875 8.25 L 12.234375 8.15625 C 12.148438 8.148438 12.121094 8.21875 12.121094 8.21875 C 12.160156 8.214844 12.195312 8.234375 12.21875 8.25 Z M 12.085938 8.339844 C 12.132812 8.332031 12.171875 8.335938 12.199219 8.351562 L 12.214844 8.269531 C 12.140625 8.265625 12.085938 8.339844 12.085938 8.339844 Z M 12.085938 8.339844 "/>
<path fill-rule="nonzero" fill="rgb(100%, 79.998779%, 30.195618%)" fill-opacity="1" d="M 14.148438 9.347656 C 14.148438 9.347656 14.101562 9.40625 13.941406 9.40625 C 13.78125 9.40625 13.855469 9.386719 13.726562 9.386719 C 13.601562 9.386719 13.546875 9.421875 13.546875 9.457031 C 13.546875 9.496094 13.589844 9.523438 13.761719 9.523438 C 13.929688 9.523438 13.992188 9.480469 14.128906 9.480469 C 14.265625 9.480469 14.316406 9.527344 14.316406 9.589844 C 14.316406 9.652344 14.230469 9.765625 14.089844 9.730469 C 14.089844 9.730469 14.1875 9.777344 14.292969 9.773438 C 14.394531 9.765625 14.484375 9.746094 14.492188 9.769531 C 14.496094 9.792969 14.539062 9.914062 14.535156 9.980469 C 14.523438 10.078125 14.394531 10.117188 14.34375 10.109375 C 14.292969 10.101562 14.222656 10.152344 14.203125 10.175781 L 14.21875 10.105469 L 14.164062 10.125 L 14.195312 10.039062 L 14.128906 10.039062 C 14.128906 10.039062 14.164062 9.976562 14.214844 9.976562 C 14.265625 9.976562 14.382812 9.988281 14.390625 9.953125 C 14.394531 9.917969 14.359375 9.867188 14.28125 9.871094 C 14.207031 9.875 14.066406 9.917969 13.976562 9.894531 C 13.976562 9.894531 13.945312 9.9375 13.972656 9.96875 C 14 10.003906 14.039062 10.039062 14.019531 10.0625 C 14 10.085938 13.949219 10.085938 13.902344 10.082031 C 13.859375 10.078125 13.703125 10.09375 13.648438 10.113281 C 13.589844 10.132812 13.539062 10.160156 13.539062 10.160156 L 13.566406 10.085938 C 13.566406 10.085938 13.511719 10.070312 13.488281 10.09375 C 13.488281 10.09375 13.496094 10.042969 13.539062 10.035156 L 13.492188 10.019531 C 13.492188 10.019531 13.511719 9.960938 13.582031 9.96875 C 13.65625 9.972656 13.6875 9.992188 13.710938 9.964844 C 13.734375 9.9375 13.65625 9.886719 13.65625 9.886719 C 13.65625 9.886719 13.59375 9.910156 13.464844 9.929688 C 13.335938 9.949219 13.25 9.941406 13.25 9.941406 C 13.25 9.941406 13.234375 10.078125 13.023438 10.101562 C 12.816406 10.125 12.710938 10.027344 12.664062 10.007812 C 12.613281 9.988281 12.546875 10.003906 12.546875 10.003906 L 12.578125 9.941406 L 12.5 9.960938 C 12.5 9.960938 12.496094 9.882812 12.550781 9.882812 L 12.476562 9.863281 C 12.476562 9.863281 12.53125 9.800781 12.601562 9.816406 C 12.671875 9.832031 12.710938 9.894531 12.777344 9.925781 C 12.890625 9.980469 13.148438 9.941406 12.953125 9.902344 C 12.910156 9.894531 12.878906 9.851562 12.878906 9.851562 C 12.878906 9.851562 12.753906 9.878906 12.660156 9.730469 C 12.59375 9.628906 12.566406 9.546875 12.449219 9.570312 C 12.449219 9.570312 12.503906 9.5 12.566406 9.523438 C 12.566406 9.523438 12.53125 9.476562 12.476562 9.480469 C 12.476562 9.480469 12.5 9.414062 12.578125 9.4375 C 12.578125 9.4375 12.535156 9.398438 12.496094 9.402344 C 12.496094 9.402344 12.519531 9.332031 12.625 9.390625 C 12.730469 9.449219 12.664062 9.5 12.6875 9.535156 C 12.699219 9.558594 12.726562 9.597656 12.796875 9.660156 C 12.914062 9.761719 12.96875 9.789062 12.933594 9.683594 C 12.894531 9.65625 12.871094 9.589844 12.863281 9.558594 C 12.851562 9.527344 12.796875 9.449219 12.816406 9.425781 C 12.832031 9.40625 12.878906 9.445312 12.878906 9.445312 C 12.878906 9.445312 12.941406 9.417969 13.027344 9.417969 C 13.113281 9.417969 13.144531 9.457031 13.144531 9.457031 C 13.144531 9.457031 13.203125 9.410156 13.210938 9.433594 C 13.222656 9.457031 13.179688 9.492188 13.160156 9.53125 C 13.140625 9.570312 13.164062 9.617188 13.164062 9.617188 C 13.164062 9.617188 13.222656 9.691406 13.339844 9.695312 C 13.457031 9.699219 13.628906 9.679688 13.691406 9.664062 C 13.753906 9.652344 13.863281 9.632812 13.933594 9.644531 C 14.003906 9.65625 14.207031 9.652344 14.203125 9.601562 C 14.195312 9.546875 14.144531 9.53125 14.042969 9.542969 C 13.945312 9.558594 13.855469 9.589844 13.667969 9.578125 C 13.484375 9.5625 13.464844 9.46875 13.476562 9.421875 C 13.492188 9.363281 13.597656 9.324219 13.695312 9.324219 C 13.792969 9.324219 13.917969 9.367188 13.988281 9.367188 C 14.054688 9.367188 14.148438 9.347656 14.148438 9.347656 Z M 14.148438 9.347656 "/>
<path fill-rule="nonzero" fill="rgb(86.665344%, 18.03894%, 26.66626%)" fill-opacity="1" d="M 12.941406 9.632812 C 12.941406 9.632812 12.980469 9.648438 13.003906 9.648438 C 13.027344 9.648438 13.066406 9.625 13.066406 9.625 C 13.066406 9.625 13.054688 9.648438 13.054688 9.671875 C 13.054688 9.695312 13.046875 9.71875 13.007812 9.71875 C 12.949219 9.722656 12.960938 9.683594 12.957031 9.667969 C 12.953125 9.652344 12.941406 9.632812 12.941406 9.632812 Z M 12.941406 9.632812 "/>
<path fill-rule="nonzero" fill="rgb(6.666565%, 25.881958%, 60.391235%)" fill-opacity="1" d="M 13.039062 9.84375 C 13.039062 9.859375 13.027344 9.871094 13.007812 9.871094 L 13.003906 9.871094 C 12.988281 9.871094 12.972656 9.859375 12.972656 9.84375 L 12.972656 9.714844 C 12.972656 9.699219 12.988281 9.683594 13.003906 9.683594 L 13.007812 9.683594 C 13.027344 9.683594 13.039062 9.699219 13.039062 9.714844 Z M 12.523438 9.824219 C 12.492188 9.839844 12.476562 9.863281 12.476562 9.863281 L 12.546875 9.882812 C 12.496094 9.882812 12.5 9.960938 12.5 9.960938 L 12.574219 9.941406 Z M 14.183594 9.984375 C 14.148438 10 14.128906 10.039062 14.128906 10.039062 L 14.195312 10.039062 L 14.164062 10.125 L 14.214844 10.105469 L 14.203125 10.175781 C 14.210938 10.164062 14.234375 10.144531 14.261719 10.132812 Z M 13.585938 10.136719 L 13.53125 9.976562 C 13.5 9.992188 13.488281 10.023438 13.488281 10.023438 L 13.539062 10.035156 C 13.496094 10.042969 13.484375 10.09375 13.484375 10.09375 C 13.511719 10.070312 13.5625 10.085938 13.5625 10.085938 L 13.539062 10.164062 C 13.539062 10.160156 13.558594 10.152344 13.585938 10.136719 Z M 12.496094 9.402344 C 12.515625 9.398438 12.542969 9.414062 12.558594 9.421875 L 12.566406 9.371094 C 12.507812 9.359375 12.496094 9.402344 12.496094 9.402344 Z M 12.574219 9.945312 L 12.542969 10.003906 C 12.542969 10.003906 12.570312 10 12.601562 10 Z M 12.542969 9.503906 L 12.554688 9.433594 C 12.492188 9.425781 12.472656 9.480469 12.472656 9.480469 C 12.503906 9.476562 12.527344 9.492188 12.542969 9.503906 Z M 12.445312 9.570312 C 12.480469 9.566406 12.507812 9.566406 12.53125 9.578125 L 12.542969 9.519531 C 12.488281 9.515625 12.445312 9.570312 12.445312 9.570312 Z M 12.445312 9.570312 "/>
</svg>