<svg xmlns="http://www.w3.org/2000/svg" xmlns:xlink="http://www.w3.org/1999/xlink" viewBox="0 0 27 27">
<path fill-rule="nonzero" fill="rgb(0%, 14.117432%, 49.01886%)" fill-opacity="1" d="M 24 3.75 L 3 3.75 C 2.847656 3.75 2.695312 3.761719 2.546875 3.785156 L 2.542969 5.097656 L 0.496094 5.097656 C 0.183594 5.570312 0 6.140625 0 6.75 L 0 20.25 C 0 21.90625 1.34375 23.25 3 23.25 L 24 23.25 C 25.65625 23.25 27 21.90625 27 20.25 L 27 6.75 C 27 5.09375 25.65625 3.75 24 3.75 Z M 24 3.75 "/>
<path fill-rule="nonzero" fill="rgb(97.647095%, 81.567383%, 31.37207%)" fill-opacity="1" d="M 25.304688 17.039062 C 25.097656 17.070312 25.007812 17.371094 24.917969 17.550781 C 24.917969 17.550781 24.707031 17.730469 24.378906 17.699219 C 24.378906 17.699219 24.53125 17.460938 24.679688 17.21875 C 24.828125 16.980469 24.738281 16.679688 24.53125 16.648438 C 24.320312 16.621094 24.289062 16.5 24.019531 16.261719 C 23.75 16.019531 23.269531 15.988281 23.179688 16.199219 C 23.089844 16.410156 22.667969 16.558594 22.730469 16.859375 C 22.789062 17.160156 22.9375 17.550781 23.089844 17.789062 C 23.089844 17.789062 22.378906 18.238281 21.808594 18.449219 C 21.238281 18.660156 20.824219 18.691406 20.824219 18.691406 C 20.824219 18.691406 20.226562 18.660156 19.65625 18.449219 C 19.085938 18.238281 18.542969 17.789062 18.542969 17.789062 C 18.691406 17.550781 18.84375 17.160156 18.902344 16.859375 C 18.964844 16.5625 18.542969 16.410156 18.453125 16.199219 C 18.363281 15.988281 17.882812 16.019531 17.613281 16.261719 C 17.34375 16.5 17.3125 16.621094 17.101562 16.648438 C 16.894531 16.679688 16.800781 16.980469 16.953125 17.21875 C 17.101562 17.460938 17.25 17.699219 17.25 17.699219 C 16.921875 17.730469 16.710938 17.550781 16.710938 17.550781 C 16.621094 17.371094 16.527344 17.070312 16.316406 17.039062 C 16.105469 17.011719 16.101562 17.21875 16.132812 17.429688 C 16.164062 17.640625 16.300781 18.03125 16.390625 18.269531 C 16.480469 18.511719 16.640625 18.539062 16.96875 18.601562 C 17.300781 18.660156 17.796875 18.390625 17.796875 18.390625 C 18.96875 19.53125 20.652344 19.5 20.652344 19.5 C 20.652344 19.5 22.5 19.53125 23.671875 18.390625 C 23.671875 18.390625 24.25 18.660156 24.582031 18.601562 C 24.910156 18.539062 25.109375 18.511719 25.199219 18.269531 C 25.289062 18.03125 25.449219 17.640625 25.480469 17.429688 C 25.511719 17.21875 25.515625 17.011719 25.304688 17.039062 Z M 25.304688 17.039062 "/>
<path fill-rule="nonzero" fill="rgb(85.881042%, 10.980225%, 10.980225%)" fill-opacity="1" d="M 25.191406 18.238281 C 25.191406 18.238281 25.429688 17.519531 25.492188 17.277344 C 25.550781 17.039062 25.308594 16.949219 25.132812 17.097656 C 24.949219 17.25 24.679688 18.121094 24.679688 18.121094 C 24.679688 18.121094 24.769531 17.941406 24.949219 17.96875 C 25.132812 18 25.191406 18.238281 25.191406 18.238281 Z M 23.75 17.128906 C 23.75 17.128906 24.082031 16.738281 24.109375 16.5 C 24.140625 16.261719 23.808594 15.960938 23.570312 15.988281 C 23.332031 16.019531 23.148438 16.199219 23.210938 16.410156 C 23.269531 16.621094 23.480469 17.039062 23.480469 17.039062 C 23.480469 17.039062 23.480469 16.980469 23.601562 16.980469 C 23.71875 16.980469 23.75 17.128906 23.75 17.128906 Z M 16.445312 18.238281 C 16.445312 18.238281 16.203125 17.519531 16.144531 17.277344 C 16.085938 17.039062 16.324219 16.949219 16.503906 17.097656 C 16.683594 17.25 16.953125 18.121094 16.953125 18.121094 C 16.953125 18.121094 16.863281 17.941406 16.683594 17.96875 C 16.503906 18 16.445312 18.238281 16.445312 18.238281 Z M 17.882812 17.128906 C 17.882812 17.128906 17.554688 16.738281 17.523438 16.5 C 17.496094 16.261719 17.824219 15.960938 18.066406 15.988281 C 18.304688 16.019531 18.484375 16.199219 18.425781 16.410156 C 18.363281 16.621094 18.15625 17.039062 18.15625 17.039062 C 18.15625 17.039062 18.15625 16.980469 18.035156 16.980469 C 17.914062 16.980469 17.882812 17.128906 17.882812 17.128906 Z M 17.882812 17.128906 "/>
<path fill-rule="nonzero" fill="rgb(81.175232%, 10.588074%, 16.862488%)" fill-opacity="1" d="M 20.824219 11.878906 L 18.402344 11.878906 L 18.402344 14.074219 L 23.652344 14.074219 L 23.652344 11.878906 Z M 20.824219 11.878906 "/>
<path fill-rule="nonzero" fill="rgb(100%, 100%, 100%)" fill-opacity="1" d="M 22.703125 17.519531 C 23.125 17.007812 23.652344 16.078125 23.652344 14.789062 L 23.652344 13.675781 C 23.492188 13.671875 23.316406 13.65625 23.273438 13.667969 C 22.996094 13.75 22.953125 14.039062 22.617188 14.039062 C 22.226562 14.039062 22.121094 13.648438 21.730469 13.648438 C 21.339844 13.648438 21.210938 14.039062 20.820312 14.039062 C 20.492188 14.039062 20.21875 13.648438 19.917969 13.648438 C 19.617188 13.648438 19.285156 14.039062 19.015625 14.039062 C 18.777344 14.039062 18.621094 13.734375 18.402344 13.664062 L 18.402344 14.789062 C 18.402344 15.683594 18.585938 16.398438 18.796875 16.9375 C 18.921875 17.25 19.265625 17.71875 19.328125 17.765625 C 19.328125 17.765625 20.035156 17.921875 20.449219 18.644531 C 20.449219 18.644531 20.523438 18.695312 20.832031 18.695312 C 21.144531 18.695312 21.214844 18.628906 21.214844 18.628906 C 21.625 17.878906 22.328125 17.972656 22.703125 17.519531 Z M 22.703125 17.519531 "/>
<path fill-rule="nonzero" fill="rgb(4.31366%, 31.37207%, 62.744141%)" fill-opacity="1" d="M 18.921875 15.660156 C 19.28125 15.660156 19.734375 15.328125 19.972656 15.328125 C 20.210938 15.328125 20.421875 15.660156 20.753906 15.660156 C 21.082031 15.660156 21.503906 15.328125 21.710938 15.328125 C 21.921875 15.328125 22.253906 15.660156 22.582031 15.660156 C 22.910156 15.660156 23.03125 15.328125 23.332031 15.328125 C 23.390625 15.328125 23.566406 15.351562 23.617188 15.375 C 23.648438 15.179688 23.660156 14.851562 23.652344 14.542969 C 23.527344 14.542969 23.4375 14.539062 23.378906 14.539062 C 23.34375 14.539062 23.296875 14.53125 23.25 14.546875 C 22.992188 14.636719 22.941406 14.910156 22.613281 14.910156 C 22.226562 14.910156 22.117188 14.519531 21.726562 14.519531 C 21.335938 14.519531 21.210938 14.910156 20.820312 14.910156 C 20.492188 14.910156 20.214844 14.519531 19.917969 14.519531 C 19.617188 14.519531 19.285156 14.910156 19.015625 14.910156 C 18.828125 14.910156 18.695312 14.726562 18.539062 14.613281 C 18.472656 14.558594 18.402344 14.542969 18.402344 14.542969 C 18.382812 14.957031 18.421875 15.367188 18.421875 15.367188 C 18.570312 15.457031 18.640625 15.660156 18.921875 15.660156 Z M 21.746094 17.429688 C 21.359375 17.429688 21.238281 17.808594 20.859375 17.816406 C 20.476562 17.808594 20.355469 17.429688 19.96875 17.429688 C 19.707031 17.429688 19.5 17.652344 19.328125 17.765625 C 19.527344 17.894531 19.816406 17.972656 20.199219 18.257812 C 20.46875 18.460938 20.859375 18.480469 20.859375 18.480469 C 20.859375 18.480469 21.246094 18.457031 21.515625 18.257812 C 21.898438 17.972656 22.1875 17.894531 22.386719 17.765625 C 22.214844 17.652344 22.007812 17.429688 21.746094 17.429688 Z M 23.480469 15.839844 C 23.058594 15.839844 23.089844 16.230469 22.703125 16.230469 C 22.3125 16.230469 22.222656 15.839844 21.832031 15.839844 C 21.441406 15.839844 21.320312 16.230469 20.933594 16.230469 C 20.601562 16.230469 20.332031 15.839844 20.03125 15.839844 C 19.730469 15.839844 19.402344 16.230469 19.132812 16.230469 C 18.925781 16.230469 18.703125 16.003906 18.488281 15.894531 C 18.488281 15.894531 18.59375 16.519531 18.792969 16.925781 C 18.859375 16.953125 18.953125 16.980469 19.039062 16.980469 C 19.402344 16.980469 19.851562 16.648438 20.089844 16.648438 C 20.332031 16.648438 20.539062 16.980469 20.871094 16.980469 C 21.199219 16.980469 21.621094 16.648438 21.832031 16.648438 C 22.039062 16.648438 22.371094 16.980469 22.699219 16.980469 C 22.914062 16.980469 23.058594 16.835938 23.203125 16.738281 C 23.34375 16.484375 23.445312 16.191406 23.53125 15.839844 C 23.515625 15.839844 23.496094 15.839844 23.480469 15.839844 Z M 23.480469 15.839844 "/>
<path fill-rule="nonzero" fill="rgb(1.960754%, 57.646179%, 20.391846%)" fill-opacity="1" d="M 19.378906 14.875 L 19.648438 13.96875 L 19.921875 14.875 L 20.863281 14.847656 L 20.089844 15.386719 L 20.40625 16.273438 L 19.65625 15.703125 L 18.90625 16.28125 L 19.214844 15.390625 L 18.4375 14.855469 Z M 22.140625 14.875 L 22.40625 13.96875 L 22.679688 14.875 L 23.625 14.847656 L 22.851562 15.386719 L 23.167969 16.273438 L 22.414062 15.703125 L 21.667969 16.28125 L 21.976562 15.390625 L 21.195312 14.855469 Z M 22.140625 14.875 "/>
<path fill-rule="nonzero" fill="rgb(1.960754%, 57.646179%, 20.391846%)" fill-opacity="1" d="M 20.761719 16.496094 L 21.027344 15.589844 L 21.300781 16.492188 L 22.246094 16.46875 L 21.46875 17.007812 L 21.789062 17.894531 L 21.035156 17.328125 L 20.285156 17.902344 L 20.597656 17.011719 L 19.816406 16.476562 Z M 20.761719 16.496094 "/>
<path fill-rule="nonzero" fill="rgb(97.647095%, 81.567383%, 31.37207%)" fill-opacity="1" d="M 18.886719 12.074219 C 19.074219 11.917969 19.246094 12.164062 19.277344 12.3125 C 19.308594 12.464844 19.488281 12.671875 19.667969 12.671875 C 19.667969 12.671875 19.789062 12.3125 19.878906 12.132812 C 19.96875 11.953125 20.207031 11.894531 20.359375 11.953125 C 20.507812 12.011719 20.78125 11.984375 20.75 12.253906 C 20.71875 12.523438 20.628906 12.644531 20.628906 12.644531 C 20.628906 12.644531 21.167969 12.671875 21.410156 12.644531 C 21.648438 12.613281 21.921875 12.464844 22.101562 12.554688 C 22.28125 12.644531 22.550781 12.671875 22.640625 12.613281 C 22.730469 12.554688 22.789062 12.375 22.582031 12.402344 C 22.371094 12.433594 22.191406 12.433594 22.011719 12.464844 C 21.832031 12.492188 21.050781 12.523438 21.050781 12.285156 C 21.050781 12.042969 21.347656 12.015625 21.410156 12.042969 C 21.46875 12.074219 21.921875 11.746094 22.011719 11.894531 C 22.101562 12.042969 22.101562 12.222656 21.832031 12.222656 C 21.558594 12.222656 21.167969 12.164062 21.167969 12.253906 C 21.167969 12.34375 21.289062 12.402344 21.46875 12.402344 C 21.648438 12.402344 21.949219 12.285156 22.160156 12.285156 C 22.371094 12.285156 22.671875 12.042969 22.847656 12.195312 C 23.03125 12.34375 23.179688 12.554688 23.03125 12.644531 C 22.878906 12.734375 22.339844 12.765625 22.160156 12.734375 C 22.160156 12.734375 22.371094 12.855469 22.550781 12.882812 C 22.730469 12.914062 23.089844 12.972656 23.0625 13.152344 C 23.03125 13.335938 23.121094 13.574219 22.882812 13.542969 C 22.640625 13.515625 22.671875 13.394531 22.730469 13.304688 C 22.789062 13.214844 22.640625 13.125 22.371094 13.152344 C 22.101562 13.183594 21.769531 13.035156 21.769531 13.035156 C 21.769531 13.035156 21.679688 13.273438 21.800781 13.335938 C 21.800781 13.335938 21.441406 13.484375 21.230469 13.515625 C 21.019531 13.542969 20.8125 13.632812 20.8125 13.515625 C 20.8125 13.394531 20.960938 13.214844 21.082031 13.273438 C 21.199219 13.335938 21.410156 13.242188 21.472656 13.242188 C 21.53125 13.242188 21.261719 13.0625 21.410156 13.003906 C 21.5625 12.945312 21.292969 12.914062 21.140625 13.003906 C 20.992188 13.09375 20.089844 13.332031 19.789062 13.453125 C 19.492188 13.574219 19.222656 13.542969 19.101562 13.601562 C 18.980469 13.664062 18.742188 13.511719 18.859375 13.363281 C 18.980469 13.214844 19.039062 13.125 19.132812 13.214844 C 19.222656 13.304688 19.371094 13.273438 19.582031 13.214844 C 19.789062 13.152344 19.460938 13.09375 19.402344 13.035156 C 19.339844 12.972656 19.101562 12.613281 19.101562 12.523438 C 19.097656 12.433594 18.558594 12.34375 18.886719 12.074219 Z M 20 9.808594 C 19.820312 9.539062 19.28125 9.179688 19.28125 9.179688 L 19.789062 9.328125 C 19.789062 9.328125 19.550781 9 19.28125 8.9375 C 19.339844 8.9375 19.820312 9 19.96875 9.121094 C 19.96875 9.121094 19.550781 8.640625 19.339844 8.550781 C 19.339844 8.550781 19.851562 8.699219 20.03125 8.878906 L 19.820312 8.429688 C 19.820312 8.429688 20.210938 8.609375 20.332031 8.847656 C 20.332031 8.847656 20.210938 8.371094 19.96875 8.128906 C 19.96875 8.128906 20.332031 8.339844 20.453125 8.519531 L 20.539062 8.089844 L 20.804688 8.328125 L 20.984375 7.996094 L 21.195312 8.339844 L 21.5625 7.964844 C 21.5625 7.964844 21.472656 8.257812 21.441406 8.527344 C 21.441406 8.527344 21.589844 8.28125 21.921875 8.164062 C 21.921875 8.164062 21.5 8.804688 21.441406 9.046875 C 21.441406 9.046875 22.039062 8.453125 22.429688 8.300781 C 22.429688 8.300781 21.890625 8.9375 21.742188 9.175781 C 21.742188 9.175781 22.191406 8.789062 22.609375 8.667969 C 22.609375 8.667969 22.070312 9.238281 21.980469 9.359375 C 21.980469 9.359375 22.28125 9.238281 22.671875 9.269531 C 22.671875 9.269531 21.769531 9.777344 21.5625 9.957031 C 21.351562 10.136719 20 9.808594 20 9.808594 Z M 20 9.808594 "/>
<path fill-rule="nonzero" fill="rgb(100%, 100%, 100%)" fill-opacity="1" d="M 19.574219 11.132812 C 19.25 11.191406 19.160156 11.371094 19.191406 11.546875 C 19.21875 11.722656 19.425781 11.871094 19.632812 11.78125 C 19.839844 11.691406 19.933594 11.648438 20.015625 11.632812 C 20.214844 11.597656 20.488281 11.515625 20.488281 11.515625 C 20.488281 11.515625 20.8125 11.574219 20.988281 11.515625 C 20.988281 11.515625 21.3125 11.664062 21.578125 11.546875 C 21.578125 11.546875 22.226562 11.839844 22.523438 11.722656 C 22.816406 11.605469 22.578125 11.210938 22.433594 11.164062 C 22.167969 11.074219 21.519531 10.984375 21.019531 10.957031 C 20.515625 10.925781 19.574219 11.132812 19.574219 11.132812 Z M 19.574219 11.132812 "/>
<path fill-rule="nonzero" fill="rgb(2.745056%, 19.215393%, 38.822937%)" fill-opacity="1" d="M 22.460938 11.160156 C 22.351562 11.121094 22.171875 11.085938 21.96875 11.050781 C 21.96875 11.050781 22.011719 11.21875 22.039062 11.398438 C 22.058594 11.519531 22.066406 11.652344 22.132812 11.726562 C 22.285156 11.777344 22.441406 11.769531 22.550781 11.726562 C 22.851562 11.609375 22.605469 11.207031 22.460938 11.160156 Z M 20.703125 10.953125 C 20.796875 11.0625 20.851562 11.34375 20.980469 11.523438 C 21.027344 11.550781 21.324219 11.683594 21.578125 11.554688 C 21.605469 11.503906 21.367188 10.976562 21.367188 10.976562 C 21.25 10.964844 20.816406 10.945312 20.703125 10.953125 Z M 20.058594 11.625 C 20.105469 11.652344 20.464844 11.546875 20.464844 11.523438 C 20.460938 11.476562 20.421875 11.410156 20.359375 11.277344 C 20.3125 11.171875 20.25 11.085938 20.179688 11.015625 C 19.882812 11.058594 19.628906 11.109375 19.566406 11.125 C 19.695312 11.339844 19.832031 11.492188 20.058594 11.625 Z M 20.058594 11.625 "/>
<path fill-rule="nonzero" fill="rgb(1.960754%, 57.646179%, 20.391846%)" fill-opacity="1" d="M 18.589844 9.929688 C 18.589844 9.929688 18.679688 9.597656 19.070312 9.597656 C 19.460938 9.597656 19.28125 9.839844 19.730469 9.867188 C 20.179688 9.898438 21.769531 10.109375 22.011719 10.226562 C 22.25 10.347656 22.550781 10.320312 22.699219 10.289062 C 22.851562 10.257812 22.730469 10.4375 22.582031 10.527344 C 22.429688 10.617188 22.128906 10.558594 22.128906 10.558594 C 22.128906 10.558594 22.460938 10.859375 22.550781 11.070312 C 22.640625 11.277344 22.550781 11.367188 22.402344 11.277344 C 22.25 11.1875 22.070312 11.367188 22.039062 11.25 C 22.011719 11.128906 21.710938 10.707031 21.710938 10.707031 C 21.710938 10.707031 20.839844 10.589844 20.601562 10.796875 C 20.363281 11.007812 20.066406 11.085938 19.582031 11.039062 C 19.28125 11.007812 19.101562 10.859375 19.160156 10.679688 C 19.222656 10.5 19.371094 10.4375 19.371094 10.4375 C 19.371094 10.4375 19.339844 10.078125 19.222656 10.167969 C 19.101562 10.257812 18.832031 10.199219 18.800781 10.136719 C 18.769531 10.078125 18.589844 9.929688 18.589844 9.929688 Z M 18.589844 9.929688 "/>
<path fill-rule="nonzero" fill="rgb(1.960754%, 57.646179%, 20.391846%)" fill-opacity="1" d="M 19.550781 9.808594 C 19.679688 9.730469 20.300781 9.449219 20.78125 9.480469 C 21.261719 9.507812 21.558594 9.628906 21.890625 9.808594 C 22.21875 9.988281 22.191406 10.140625 22.371094 10.199219 C 22.550781 10.257812 22.460938 10.347656 22.371094 10.4375 C 22.28125 10.527344 21.980469 11.039062 21.019531 11.007812 C 20.058594 10.980469 19.96875 10.710938 19.820312 10.589844 C 19.667969 10.46875 19.578125 10.167969 19.578125 10.078125 C 19.578125 9.988281 19.398438 9.898438 19.550781 9.808594 Z M 19.550781 9.808594 "/>
<path fill-rule="nonzero" fill="rgb(0%, 28.627014%, 23.921204%)" fill-opacity="1" d="M 21.351562 10.710938 C 21.675781 10.621094 22.117188 10.503906 22.332031 10.183594 C 22.191406 10.113281 22.191406 9.972656 21.890625 9.808594 C 21.5625 9.628906 21.261719 9.507812 20.78125 9.480469 C 20.441406 9.457031 20.03125 9.59375 19.773438 9.703125 C 19.761719 9.914062 19.761719 10.167969 19.761719 10.167969 C 19.761719 10.167969 20.03125 10.320312 20.242188 10.5 C 20.449219 10.679688 21.019531 10.800781 21.351562 10.710938 Z M 21.351562 10.710938 "/>
<path fill-rule="nonzero" fill="rgb(0%, 14.117432%, 49.01886%)" fill-opacity="1" d="M 14.25 13.5 L 14.25 3.75 L 3 3.75 C 2.761719 3.75 2.546875 3.785156 2.546875 3.785156 L 2.542969 5.097656 L 0.496094 5.097656 C 0.496094 5.097656 0.464844 5.140625 0.402344 5.25 C 0.144531 5.691406 0 6.203125 0 6.75 L 0 13.5 Z M 14.25 13.5 "/>
<path fill-rule="nonzero" fill="rgb(93.331909%, 93.331909%, 93.331909%)" fill-opacity="1" d="M 14.25 3.75 L 12.5 3.75 L 9 6.203125 L 9 3.75 L 5.25 3.75 L 5.25 5.675781 L 2.546875 3.785156 C 2.085938 3.855469 1.65625 4.027344 1.292969 4.28125 L 4.820312 6.75 L 3.515625 6.75 L 0.726562 4.792969 C 0.644531 4.890625 0.566406 4.988281 0.496094 5.097656 L 2.859375 6.75 L 0 6.75 L 0 10.5 L 2.914062 10.5 L 0 12.574219 L 0 13.5 L 2.5 13.5 L 5.25 11.574219 L 5.25 13.5 L 9 13.5 L 9 11.046875 L 12.5 13.5 L 14.25 13.5 L 14.25 11.976562 L 12.140625 10.5 L 14.25 10.5 L 14.25 6.75 L 12.140625 6.75 L 14.25 5.273438 Z M 14.25 3.75 "/>
<path fill-rule="nonzero" fill="rgb(81.175232%, 10.588074%, 16.862488%)" fill-opacity="1" d="M 8.25 3.75 L 6 3.75 L 6 7.5 L 0 7.5 L 0 9.75 L 6 9.75 L 6 13.5 L 8.25 13.5 L 8.25 9.75 L 14.25 9.75 L 14.25 7.5 L 8.25 7.5 Z M 8.25 3.75 "/>
<path fill-rule="nonzero" fill="rgb(81.175232%, 10.588074%, 16.862488%)" fill-opacity="1" d="M 14.25 3.75 L 13.152344 3.75 L 9 6.660156 L 9 6.75 L 10.179688 6.75 L 14.25 3.898438 Z M 1.292969 4.28125 C 1.082031 4.429688 0.890625 4.601562 0.726562 4.792969 L 3.515625 6.75 L 4.820312 6.75 Z M 4.828125 10.5 L 0.550781 13.5 L 1.847656 13.5 L 5.25 11.117188 L 5.25 10.5 Z M 14.25 13.351562 L 14.25 12.4375 L 11.484375 10.5 L 10.175781 10.5 Z M 14.25 13.351562 "/>
</svg>