<svg xmlns="http://www.w3.org/2000/svg" xmlns:xlink="http://www.w3.org/1999/xlink" viewBox="0 0 27 27">
<path fill-rule="nonzero" fill="rgb(0%, 47.058105%, 36.862183%)" fill-opacity="1" d="M 27 20.25 C 27 21.90625 25.65625 23.25 24 23.25 L 3 23.25 C 1.34375 23.25 0 21.90625 0 20.25 L 0 6.75 C 0 5.09375 1.34375 3.75 3 3.75 L 24 3.75 C 25.65625 3.75 27 5.09375 27 6.75 Z M 27 20.25 "/>
<path fill-rule="evenodd" fill="rgb(98.431396%, 81.959534%, 8.627319%)" fill-opacity="1" d="M 13.480469 6.425781 C 13.617188 6.683594 13.691406 7.007812 13.789062 7.304688 L 14.742188 7.304688 C 14.496094 7.496094 14.234375 7.671875 13.984375 7.863281 C 14.054688 8.171875 14.171875 8.433594 14.253906 8.726562 C 14.203125 8.746094 14.132812 8.675781 14.074219 8.636719 C 13.910156 8.515625 13.691406 8.347656 13.519531 8.222656 C 13.238281 8.363281 12.984375 8.621094 12.746094 8.742188 C 12.820312 8.441406 12.9375 8.183594 13.015625 7.878906 C 12.785156 7.671875 12.523438 7.496094 12.261719 7.324219 C 12.535156 7.28125 12.890625 7.316406 13.195312 7.304688 C 13.300781 7.023438 13.402344 6.734375 13.480469 6.425781 Z M 9.402344 8.976562 C 9.585938 8.867188 9.75 8.742188 9.921875 8.617188 C 9.84375 8.433594 9.8125 8.203125 9.722656 8.027344 C 9.890625 8.082031 10.066406 8.28125 10.246094 8.386719 C 10.429688 8.277344 10.597656 8.148438 10.765625 8.027344 C 10.753906 8.199219 10.632812 8.417969 10.585938 8.617188 C 10.726562 8.78125 10.917969 8.886719 11.089844 9.015625 C 10.910156 9.058594 10.648438 9.023438 10.460938 9.015625 C 10.367188 9.195312 10.304688 9.40625 10.246094 9.625 C 10.152344 9.449219 10.101562 9.230469 10.046875 9.015625 L 9.5625 9.015625 C 9.550781 8.960938 9.414062 9.03125 9.402344 8.976562 Z M 17.4375 9.015625 L 16.96875 9.015625 C 16.890625 9.207031 16.84375 9.425781 16.773438 9.625 C 16.691406 9.429688 16.625 9.21875 16.554688 9.015625 C 16.351562 9.03125 16.132812 9.035156 15.910156 9.03125 C 16.0625 8.886719 16.257812 8.78125 16.410156 8.636719 C 16.363281 8.417969 16.277344 8.230469 16.214844 8.027344 C 16.394531 8.136719 16.5625 8.265625 16.734375 8.386719 C 16.9375 8.28125 17.078125 8.117188 17.273438 8.007812 C 17.195312 8.191406 17.164062 8.421875 17.074219 8.601562 C 17.226562 8.75 17.417969 8.859375 17.597656 8.976562 C 17.582031 9.03125 17.449219 8.960938 17.4375 9.015625 Z M 8.449219 10.109375 C 8.539062 10.28125 8.539062 10.535156 8.59375 10.738281 C 8.820312 10.753906 9.019531 10.789062 9.238281 10.8125 C 9.058594 10.917969 8.878906 11.027344 8.683594 11.117188 C 8.695312 11.34375 8.753906 11.523438 8.789062 11.726562 C 8.738281 11.738281 8.632812 11.636719 8.558594 11.566406 C 8.472656 11.488281 8.398438 11.390625 8.324219 11.332031 C 8.121094 11.425781 7.949219 11.546875 7.75 11.636719 C 7.839844 11.453125 7.914062 11.25 8.015625 11.082031 C 7.890625 10.902344 7.71875 10.769531 7.550781 10.632812 C 7.738281 10.597656 7.976562 10.667969 8.179688 10.683594 C 8.28125 10.507812 8.371094 10.3125 8.449219 10.109375 Z M 18.800781 10.683594 C 19.019531 10.660156 19.222656 10.625 19.449219 10.613281 C 19.296875 10.769531 19.125 10.898438 18.980469 11.0625 C 19.078125 11.242188 19.152344 11.445312 19.25 11.621094 C 19.078125 11.582031 18.871094 11.421875 18.695312 11.332031 C 18.519531 11.445312 18.363281 11.671875 18.210938 11.746094 C 18.242188 11.539062 18.300781 11.359375 18.316406 11.136719 C 18.140625 11.023438 17.960938 10.917969 17.761719 10.828125 C 17.941406 10.773438 18.179688 10.769531 18.390625 10.742188 C 18.46875 10.5625 18.46875 10.304688 18.535156 10.113281 C 18.632812 10.292969 18.71875 10.488281 18.800781 10.683594 Z M 18.800781 10.683594 "/>
<path fill-rule="evenodd" fill="rgb(100%, 100%, 100%)" fill-opacity="1" d="M 16.070312 17.410156 C 14.902344 17.347656 14.160156 16.863281 13.480469 16.3125 C 12.847656 16.894531 12.078125 17.335938 10.929688 17.410156 L 7.550781 17.410156 C 7.554688 17.421875 7.550781 17.445312 7.566406 17.445312 C 7.644531 17.5625 7.726562 17.683594 7.820312 17.785156 C 8.871094 17.855469 10.121094 17.820312 11.179688 17.804688 C 12.199219 17.742188 12.875 17.339844 13.5 16.886719 C 14.121094 17.34375 14.800781 17.742188 15.816406 17.804688 C 16.898438 17.820312 18.148438 17.855469 19.179688 17.785156 C 19.269531 17.675781 19.355469 17.5625 19.433594 17.445312 C 19.4375 17.445312 19.445312 17.441406 19.449219 17.445312 C 19.320312 17.363281 18.910156 17.410156 18.695312 17.410156 Z M 18.765625 18.269531 C 18.796875 18.273438 18.828125 18.199219 18.765625 18.214844 C 15.25 18.238281 11.644531 18.167969 8.195312 18.253906 C 8.214844 18.253906 8.21875 18.265625 8.234375 18.269531 C 8.277344 18.324219 8.339844 18.410156 8.414062 18.433594 C 8.554688 18.472656 8.8125 18.433594 9.042969 18.433594 L 18.621094 18.433594 C 18.660156 18.367188 18.730469 18.335938 18.765625 18.269531 Z M 18.121094 18.898438 C 18.136719 18.898438 18.140625 18.886719 18.15625 18.882812 C 18.15625 18.859375 18.179688 18.855469 18.171875 18.828125 C 15.175781 18.886719 12.042969 18.75 9.058594 18.828125 C 9.007812 18.828125 8.855469 18.777344 8.84375 18.882812 C 8.863281 18.882812 8.867188 18.894531 8.878906 18.898438 C 8.992188 18.980469 9.097656 19.066406 9.203125 19.152344 C 12.027344 19.179688 14.972656 19.179688 17.796875 19.152344 C 17.902344 19.066406 18.011719 18.980469 18.121094 18.898438 Z M 17.292969 19.492188 C 17.339844 19.457031 17.335938 19.46875 17.292969 19.457031 C 17.042969 19.398438 16.660156 19.457031 16.339844 19.457031 L 10.085938 19.457031 C 9.96875 19.457031 9.632812 19.433594 9.707031 19.492188 C 9.917969 19.621094 10.136719 19.746094 10.375 19.851562 C 12.417969 19.882812 14.585938 19.882812 16.628906 19.851562 C 16.863281 19.746094 17.082031 19.625 17.292969 19.492188 Z M 16.105469 20.085938 L 16.140625 20.085938 C 16.140625 20.054688 16.136719 20.054688 16.105469 20.050781 C 15.710938 19.992188 15.238281 20.050781 14.792969 20.050781 C 13.472656 20.050781 12.082031 20.019531 10.859375 20.085938 L 10.894531 20.085938 C 11.539062 20.324219 12.234375 20.519531 13.085938 20.554688 C 13.160156 20.59375 13.308594 20.558594 13.410156 20.570312 L 13.589844 20.570312 C 13.691406 20.558594 13.84375 20.59375 13.914062 20.554688 C 14.761719 20.515625 15.460938 20.328125 16.105469 20.085938 Z M 16.105469 20.085938 "/>
<path fill-rule="evenodd" fill="rgb(100%, 100%, 100%)" fill-opacity="1" d="M 11.9375 12.484375 C 11.972656 13.339844 12.203125 14 12.566406 14.53125 C 12.277344 13.890625 12.019531 13.183594 12.097656 12.265625 C 12.199219 11.070312 12.8125 10.117188 13.519531 9.554688 C 14.183594 10.152344 14.789062 11.0625 14.902344 12.25 C 14.996094 13.238281 14.695312 14.019531 14.34375 14.65625 C 14.734375 14.15625 15.03125 13.40625 15.066406 12.484375 C 15.09375 12.453125 15.09375 12.296875 15.066406 12.265625 C 15.042969 11.636719 14.902344 11.125 14.6875 10.683594 C 14.800781 10.457031 14.984375 10.300781 15.046875 10.019531 C 15.332031 10.472656 15.515625 11.027344 15.566406 11.710938 L 15.566406 12.269531 C 15.515625 13.117188 15.230469 13.726562 14.882812 14.28125 C 14.867188 14.28125 14.828125 14.339844 14.867188 14.335938 C 14.902344 14.269531 14.972656 14.238281 15.011719 14.171875 C 15.785156 13.511719 16.699219 12.988281 18.085938 12.933594 L 18.40625 12.933594 C 18.441406 12.988281 18.320312 13.054688 18.265625 13.132812 C 18.203125 13.210938 18.160156 13.320312 18.101562 13.382812 C 16.597656 13.414062 15.613281 13.964844 14.832031 14.710938 C 15.421875 14.304688 16.234375 13.84375 17.1875 13.761719 C 18.097656 13.679688 18.886719 13.820312 19.558594 14.101562 C 19.367188 14.617188 19.097656 15.054688 18.75 15.414062 C 18.664062 15.484375 18.585938 15.5625 18.515625 15.648438 C 17.898438 16.207031 17.144531 16.632812 16.035156 16.707031 L 15.605469 16.707031 C 15.605469 16.726562 15.625 16.722656 15.640625 16.726562 C 15.714844 16.773438 15.84375 16.761719 15.964844 16.761719 C 16.046875 16.789062 16.257812 16.789062 16.339844 16.761719 C 17.546875 16.714844 18.300781 16.214844 18.984375 15.648438 C 19.078125 15.714844 19.503906 15.695312 19.414062 15.792969 C 19.316406 15.871094 19.226562 15.964844 19.144531 16.058594 C 18.511719 16.617188 17.738281 17.035156 16.609375 17.101562 L 16.234375 17.101562 C 15.09375 17.035156 14.320312 16.609375 13.679688 16.042969 C 13.621094 15.976562 13.574219 15.898438 13.484375 15.863281 C 13.441406 15.933594 13.367188 15.972656 13.320312 16.042969 C 12.683594 16.609375 11.90625 17.035156 10.769531 17.101562 L 10.394531 17.101562 C 9.253906 17.035156 8.472656 16.613281 7.839844 16.042969 C 7.761719 15.949219 7.679688 15.867188 7.589844 15.792969 C 7.597656 15.765625 7.519531 15.746094 7.570312 15.738281 C 7.726562 15.722656 7.875 15.695312 8.003906 15.648438 C 8.707031 16.203125 9.445312 16.71875 10.664062 16.761719 C 10.746094 16.789062 10.957031 16.789062 11.039062 16.761719 C 11.160156 16.761719 11.289062 16.773438 11.363281 16.726562 L 11.398438 16.726562 C 11.292969 16.683594 11.105469 16.71875 10.96875 16.707031 C 9.859375 16.636719 9.109375 16.207031 8.488281 15.648438 C 8.417969 15.5625 8.339844 15.484375 8.253906 15.414062 C 7.910156 15.050781 7.632812 14.621094 7.445312 14.101562 C 8.113281 13.820312 8.898438 13.683594 9.800781 13.761719 C 10.746094 13.839844 11.558594 14.285156 12.136719 14.695312 C 12.171875 14.738281 12.21875 14.765625 12.261719 14.804688 C 12.253906 14.742188 12.207031 14.726562 12.171875 14.695312 C 11.371094 13.976562 10.414062 13.410156 8.917969 13.382812 C 8.800781 13.25 8.660156 13.042969 8.578125 12.933594 L 8.917969 12.933594 C 10.277344 12.996094 11.203125 13.492188 11.957031 14.15625 C 12.03125 14.234375 12.085938 14.324219 12.191406 14.371094 C 12.203125 14.292969 12.15625 14.386719 12.152344 14.335938 C 12.136719 14.296875 12.113281 14.257812 12.082031 14.226562 C 11.753906 13.6875 11.484375 13.089844 11.433594 12.269531 L 11.433594 11.710938 C 11.480469 11.023438 11.683594 10.496094 11.9375 10.023438 C 12.03125 10.269531 12.175781 10.46875 12.316406 10.667969 C 12.136719 11.0625 12 11.503906 11.957031 12.035156 C 11.914062 12.0625 11.949219 12.160156 11.9375 12.214844 L 11.9375 12.269531 C 11.90625 12.296875 11.90625 12.453125 11.9375 12.484375 Z M 12.566406 14.53125 C 12.578125 14.597656 12.609375 14.640625 12.65625 14.675781 C 12.640625 14.613281 12.609375 14.566406 12.566406 14.53125 Z M 12.566406 14.53125 "/>
</svg>