<svg xmlns="http://www.w3.org/2000/svg" xmlns:xlink="http://www.w3.org/1999/xlink" viewBox="0 0 27 27">
<path fill-rule="nonzero" fill="rgb(14.901733%, 37.254333%, 70.979309%)" fill-opacity="1" d="M 27 20.25 C 27 21.90625 25.65625 23.25 24 23.25 L 3 23.25 C 1.34375 23.25 0 21.90625 0 20.25 L 0 6.75 C 0 5.09375 1.34375 3.75 3 3.75 L 24 3.75 C 25.65625 3.75 27 5.09375 27 6.75 Z M 27 20.25 "/>
<path fill-rule="nonzero" fill="rgb(100%, 100%, 100%)" fill-opacity="1" d="M 19.453125 13.738281 C 19.4375 13.496094 19.285156 13.304688 19.285156 13.304688 C 19.285156 13.304688 19.515625 13.085938 19.503906 12.765625 C 19.488281 12.445312 19.179688 12.214844 19.179688 12.214844 C 19.179688 12.214844 19.285156 12.101562 19.296875 11.855469 C 19.308594 11.613281 19.105469 11.523438 19.105469 11.523438 C 19.105469 11.523438 19.179688 11.316406 19.066406 11.1875 C 18.949219 11.0625 18.769531 11.074219 18.769531 11.074219 C 18.769531 11.074219 18.9375 10.90625 18.820312 10.675781 C 18.707031 10.445312 18.5 10.394531 18.5 10.394531 C 18.5 10.394531 18.550781 10.113281 18.347656 9.90625 C 18.140625 9.703125 17.785156 9.726562 17.785156 9.726562 C 17.785156 9.726562 17.847656 9.304688 17.667969 9.125 C 17.488281 8.945312 17.089844 9.0625 17.089844 9.0625 C 17.15625 8.90625 17.039062 8.625 16.847656 8.496094 C 16.65625 8.371094 16.117188 8.421875 16.117188 8.421875 C 16.15625 8.277344 16.003906 8.101562 15.769531 8.023438 C 15.539062 7.945312 15.308594 8.0625 15.308594 8.0625 C 15.308594 8.0625 15.09375 7.804688 14.898438 7.792969 C 14.707031 7.777344 14.566406 7.867188 14.566406 7.867188 C 14.566406 7.867188 14.464844 7.636719 14.234375 7.636719 C 14.003906 7.636719 13.542969 7.945312 13.542969 7.945312 C 13.542969 7.945312 13.015625 7.703125 12.757812 7.714844 C 12.503906 7.726562 12.363281 7.894531 12.363281 7.894531 C 12.363281 7.894531 12.09375 7.738281 11.785156 7.882812 C 11.476562 8.023438 11.453125 8.226562 11.453125 8.226562 C 11.453125 8.226562 11.257812 8.125 10.953125 8.1875 C 10.644531 8.253906 10.605469 8.574219 10.605469 8.574219 C 10.605469 8.574219 10.363281 8.472656 10.121094 8.636719 C 9.875 8.804688 9.941406 8.972656 9.941406 8.972656 C 9.941406 8.972656 9.761719 8.828125 9.464844 8.984375 C 9.171875 9.136719 9.171875 9.40625 9.171875 9.40625 C 9.171875 9.40625 8.980469 9.355469 8.746094 9.664062 C 8.515625 9.96875 8.554688 10.097656 8.554688 10.097656 C 8.554688 10.097656 8.3125 10.113281 8.171875 10.472656 C 8.03125 10.828125 8.171875 11.007812 8.171875 11.007812 C 8.171875 11.007812 7.964844 11.097656 7.8125 11.40625 C 7.660156 11.714844 7.761719 12.023438 7.761719 12.023438 C 7.761719 12.023438 7.480469 12.152344 7.503906 12.523438 C 7.53125 12.894531 7.773438 12.984375 7.773438 12.984375 C 7.773438 12.984375 7.554688 13.097656 7.53125 13.394531 C 7.503906 13.691406 7.695312 13.804688 7.695312 13.804688 C 7.695312 13.804688 7.503906 13.921875 7.492188 14.164062 C 7.480469 14.40625 7.902344 14.546875 7.902344 14.546875 C 7.902344 14.546875 7.75 14.636719 7.75 14.871094 C 7.75 15.101562 8.054688 15.199219 8.054688 15.199219 C 8.054688 15.199219 7.929688 15.316406 8.003906 15.613281 C 8.082031 15.90625 8.351562 15.90625 8.351562 15.90625 C 8.273438 16.125 8.53125 16.203125 8.53125 16.203125 C 8.53125 16.203125 8.414062 16.277344 8.621094 16.523438 C 8.824219 16.765625 9.03125 16.675781 9.03125 16.675781 C 8.941406 16.945312 9.195312 17.035156 9.195312 17.035156 C 9.222656 17.511719 9.75 17.394531 9.75 17.394531 C 9.839844 17.832031 10.171875 17.726562 10.171875 17.726562 C 10.171875 17.726562 10.03125 17.917969 10.25 18.152344 C 10.46875 18.382812 10.8125 18.304688 10.8125 18.304688 C 11.003906 18.613281 11.429688 18.726562 11.902344 18.648438 C 12.375 18.574219 12.890625 18.546875 13.132812 18.484375 C 13.378906 18.421875 14.992188 18.496094 14.992188 18.496094 C 14.992188 18.496094 15.605469 18.636719 15.941406 18.457031 C 16.273438 18.277344 16.246094 18.113281 16.246094 18.113281 C 16.246094 18.113281 16.425781 18.226562 16.773438 18.0625 C 17.121094 17.894531 17.054688 17.535156 17.054688 17.535156 C 17.054688 17.535156 17.375 17.535156 17.554688 17.367188 C 17.734375 17.203125 17.671875 17.097656 17.671875 17.097656 C 17.671875 17.097656 17.953125 16.957031 18.054688 16.832031 C 18.160156 16.703125 18.066406 16.574219 18.066406 16.574219 C 18.066406 16.574219 18.195312 16.636719 18.425781 16.433594 C 18.660156 16.226562 18.632812 15.894531 18.632812 15.894531 C 18.632812 15.894531 18.796875 15.917969 18.941406 15.6875 C 19.082031 15.457031 18.988281 15.253906 18.988281 15.253906 C 18.988281 15.253906 19.183594 15.109375 19.296875 14.816406 C 19.414062 14.523438 19.3125 14.214844 19.3125 14.214844 C 19.3125 14.214844 19.464844 13.984375 19.453125 13.738281 Z M 17.808594 14.226562 C 17.824219 14.265625 17.707031 14.242188 17.554688 14.460938 C 17.398438 14.675781 17.503906 14.972656 17.503906 14.972656 C 17.503906 14.972656 17.324219 15.113281 17.207031 15.242188 C 17.09375 15.367188 17.09375 15.613281 17.09375 15.613281 C 17.09375 15.613281 16.941406 15.625 16.722656 15.804688 C 16.503906 15.984375 16.503906 16.304688 16.503906 16.304688 C 16.503906 16.304688 16.351562 16.265625 16.117188 16.457031 C 15.886719 16.652344 15.886719 16.90625 15.886719 16.90625 C 15.886719 16.90625 15.722656 16.777344 15.375 16.945312 C 15.027344 17.113281 14.722656 17.394531 14.722656 17.394531 C 14.722656 17.394531 12.121094 17.371094 11.925781 17.085938 C 11.734375 16.804688 11.222656 16.933594 11.222656 16.933594 C 11.222656 16.933594 11.273438 16.765625 11.015625 16.601562 C 10.761719 16.433594 10.515625 16.511719 10.515625 16.511719 C 10.515625 16.511719 10.65625 16.433594 10.59375 16.304688 C 10.527344 16.175781 10.351562 16.191406 10.351562 16.191406 C 10.351562 16.191406 10.453125 16.152344 10.386719 15.921875 C 10.324219 15.691406 9.953125 15.71875 9.953125 15.71875 C 9.953125 15.71875 10.117188 15.613281 10.003906 15.398438 C 9.886719 15.179688 9.617188 15.21875 9.617188 15.21875 C 9.617188 15.21875 9.671875 15.023438 9.617188 14.832031 C 9.566406 14.640625 9.363281 14.601562 9.363281 14.601562 C 9.363281 14.601562 9.53125 14.578125 9.492188 14.34375 C 9.453125 14.113281 9.195312 14 9.195312 14 C 9.195312 14 9.246094 13.847656 9.246094 13.589844 C 9.246094 13.332031 9.09375 13.269531 9.09375 13.269531 C 9.09375 13.269531 9.285156 13.179688 9.3125 12.960938 C 9.335938 12.742188 9.195312 12.511719 9.195312 12.511719 C 9.195312 12.511719 9.324219 12.410156 9.375 12.242188 C 9.425781 12.074219 9.347656 11.988281 9.347656 11.988281 C 9.347656 11.988281 9.515625 11.882812 9.582031 11.703125 C 9.644531 11.523438 9.617188 11.332031 9.617188 11.332031 C 9.617188 11.332031 9.757812 11.292969 9.886719 11.140625 C 10.015625 10.988281 9.953125 10.847656 9.953125 10.847656 C 9.953125 10.847656 10.246094 10.859375 10.386719 10.703125 C 10.527344 10.550781 10.542969 10.359375 10.542969 10.359375 C 10.542969 10.359375 10.722656 10.382812 10.953125 10.21875 C 11.183594 10.050781 11.15625 9.898438 11.15625 9.898438 C 11.15625 9.898438 11.375 9.960938 11.554688 9.847656 C 11.734375 9.730469 11.824219 9.527344 11.824219 9.527344 C 11.824219 9.527344 11.886719 9.617188 12.15625 9.527344 C 12.425781 9.4375 12.527344 9.347656 12.527344 9.347656 C 12.527344 9.347656 12.632812 9.5 12.886719 9.449219 C 13.144531 9.398438 13.347656 9.230469 13.347656 9.230469 C 13.347656 9.230469 13.386719 9.410156 13.671875 9.359375 C 13.953125 9.308594 14.066406 9.21875 14.066406 9.21875 C 14.066406 9.21875 14.042969 9.410156 14.246094 9.460938 C 14.453125 9.511719 14.644531 9.433594 14.644531 9.433594 C 14.644531 9.433594 14.667969 9.578125 14.8125 9.601562 C 14.953125 9.628906 15.054688 9.527344 15.054688 9.527344 C 15.054688 9.527344 15.078125 9.730469 15.296875 9.847656 C 15.515625 9.960938 15.875 9.898438 15.875 9.898438 C 15.875 9.898438 15.863281 10 16.015625 10.078125 C 16.171875 10.152344 16.324219 10.179688 16.324219 10.179688 C 16.324219 10.179688 16.273438 10.398438 16.515625 10.472656 C 16.757812 10.550781 16.902344 10.550781 16.902344 10.550781 C 16.902344 10.550781 16.925781 10.730469 17.015625 10.910156 C 17.105469 11.089844 17.335938 11.167969 17.335938 11.167969 C 17.335938 11.167969 17.257812 11.28125 17.296875 11.488281 C 17.335938 11.691406 17.628906 11.78125 17.628906 11.78125 C 17.628906 11.78125 17.554688 11.921875 17.605469 12.117188 C 17.65625 12.308594 17.796875 12.449219 17.796875 12.449219 C 17.796875 12.449219 17.707031 12.640625 17.695312 12.808594 C 17.683594 12.972656 17.886719 13.421875 17.886719 13.421875 C 17.886719 13.421875 17.683594 13.539062 17.695312 13.769531 C 17.707031 13.996094 17.796875 14.1875 17.808594 14.226562 Z M 17.808594 14.226562 "/>
<path fill-rule="nonzero" fill="rgb(100%, 71.37146%, 21.176147%)" fill-opacity="1" d="M 13.445312 18.167969 C 10.714844 18.167969 8.492188 16.105469 8.402344 13.398438 C 8.398438 13.457031 8.398438 13.515625 8.398438 13.574219 C 8.398438 16.359375 10.65625 18.621094 13.445312 18.621094 C 16.230469 18.621094 18.492188 16.359375 18.492188 13.574219 C 18.492188 13.515625 18.488281 13.457031 18.488281 13.398438 C 18.394531 16.105469 16.171875 18.167969 13.445312 18.167969 Z M 13.445312 18.167969 "/>
<path fill-rule="nonzero" fill="rgb(70.979309%, 56.077576%, 89.802551%)" fill-opacity="1" d="M 14.898438 8.101562 C 14.898438 8.101562 14.738281 7.851562 14.40625 7.894531 C 14.070312 7.9375 13.636719 7.765625 13.371094 7.628906 C 13.105469 7.492188 12.695312 7.699219 12.695312 8.03125 C 12.695312 8.363281 12.910156 8.527344 13.21875 8.527344 C 13.523438 8.527344 13.945312 8.390625 14.234375 8.195312 C 14.476562 8.03125 14.898438 8.101562 14.898438 8.101562 Z M 14.898438 8.101562 "/>
<path fill-rule="nonzero" fill="rgb(41.960144%, 14.901733%, 70.979309%)" fill-opacity="1" d="M 13.21875 8.53125 C 12.882812 8.53125 12.695312 8.347656 12.695312 8.03125 C 12.695312 7.882812 12.773438 7.75 12.917969 7.660156 C 13.0625 7.574219 13.242188 7.558594 13.371094 7.628906 C 13.503906 7.695312 13.929688 7.898438 14.296875 7.898438 C 14.332031 7.898438 14.371094 7.898438 14.40625 7.890625 C 14.429688 7.890625 14.457031 7.886719 14.480469 7.886719 C 14.761719 7.886719 14.902344 8.097656 14.902344 8.097656 L 14.90625 8.105469 L 14.898438 8.105469 C 14.898438 8.105469 14.472656 8.035156 14.234375 8.199219 C 13.945312 8.394531 13.527344 8.53125 13.21875 8.53125 Z M 13.1875 7.589844 C 13.097656 7.589844 13.003906 7.617188 12.917969 7.667969 C 12.78125 7.753906 12.699219 7.882812 12.699219 8.03125 C 12.699219 8.34375 12.890625 8.523438 13.21875 8.523438 C 13.527344 8.523438 13.941406 8.386719 14.230469 8.191406 C 14.453125 8.039062 14.835938 8.089844 14.894531 8.097656 C 14.867188 8.058594 14.707031 7.859375 14.40625 7.898438 C 14.371094 7.902344 14.332031 7.90625 14.296875 7.90625 C 13.929688 7.90625 13.5 7.699219 13.371094 7.632812 C 13.316406 7.605469 13.25 7.589844 13.1875 7.589844 Z M 13.1875 7.589844 "/>
<path fill-rule="nonzero" fill="rgb(70.979309%, 56.077576%, 89.802551%)" fill-opacity="1" d="M 18.183594 10.210938 C 18.636719 10.210938 18.644531 10.613281 18.652344 10.773438 C 18.660156 10.9375 18.730469 11.277344 18.839844 11.414062 C 18.953125 11.550781 19.078125 11.878906 19.097656 12.011719 C 19.113281 12.152344 19.097656 12.289062 18.976562 12.105469 C 18.855469 11.929688 18.574219 11.570312 18.304688 11.414062 C 18.027344 11.261719 17.695312 11.039062 17.695312 10.695312 C 17.695312 10.355469 17.976562 10.210938 18.183594 10.210938 Z M 18.183594 10.210938 "/>
<path fill-rule="nonzero" fill="rgb(41.960144%, 14.901733%, 70.979309%)" fill-opacity="1" d="M 19.066406 12.195312 C 19.042969 12.195312 19.015625 12.167969 18.976562 12.109375 C 18.851562 11.925781 18.570312 11.570312 18.300781 11.417969 C 18 11.25 17.691406 11.03125 17.691406 10.699219 C 17.691406 10.339844 17.992188 10.210938 18.183594 10.210938 C 18.625 10.210938 18.644531 10.59375 18.65625 10.757812 L 18.65625 10.773438 C 18.664062 10.921875 18.726562 11.273438 18.84375 11.414062 C 18.953125 11.546875 19.082031 11.871094 19.101562 12.011719 C 19.105469 12.050781 19.117188 12.179688 19.074219 12.195312 Z M 18.183594 10.214844 C 17.996094 10.214844 17.699219 10.34375 17.699219 10.699219 C 17.699219 11.027344 18.003906 11.246094 18.304688 11.414062 C 18.570312 11.5625 18.855469 11.917969 18.980469 12.105469 C 19.023438 12.175781 19.050781 12.191406 19.066406 12.191406 L 19.074219 12.191406 C 19.097656 12.179688 19.105469 12.113281 19.09375 12.015625 C 19.078125 11.871094 18.945312 11.550781 18.835938 11.417969 C 18.722656 11.273438 18.65625 10.921875 18.648438 10.773438 L 18.648438 10.757812 C 18.640625 10.582031 18.617188 10.214844 18.183594 10.214844 Z M 18.183594 10.214844 "/>
<path fill-rule="nonzero" fill="rgb(70.979309%, 56.077576%, 89.802551%)" fill-opacity="1" d="M 18.933594 13.097656 C 19.25 13.097656 19.378906 13.339844 19.378906 13.601562 C 19.378906 13.867188 19.226562 14.089844 19.15625 14.355469 C 19.089844 14.621094 19.113281 14.996094 19.0625 15.125 C 19.011719 15.253906 18.941406 15.320312 18.941406 15.320312 C 18.941406 15.320312 18.867188 15.210938 18.847656 15.03125 C 18.832031 14.851562 18.847656 14.570312 18.722656 14.347656 C 18.59375 14.125 18.414062 13.84375 18.414062 13.585938 C 18.414062 13.328125 18.730469 13.097656 18.933594 13.097656 Z M 18.933594 13.097656 "/>
<path fill-rule="nonzero" fill="rgb(41.960144%, 14.901733%, 70.979309%)" fill-opacity="1" d="M 18.941406 15.328125 L 18.941406 15.324219 C 18.941406 15.324219 18.863281 15.210938 18.847656 15.03125 C 18.84375 14.992188 18.839844 14.949219 18.835938 14.902344 C 18.828125 14.734375 18.820312 14.523438 18.71875 14.347656 L 18.683594 14.292969 C 18.5625 14.082031 18.410156 13.824219 18.410156 13.585938 C 18.410156 13.324219 18.738281 13.097656 18.933594 13.097656 C 19.265625 13.097656 19.382812 13.359375 19.382812 13.601562 C 19.382812 13.769531 19.324219 13.917969 19.261719 14.070312 C 19.222656 14.164062 19.183594 14.257812 19.160156 14.355469 C 19.125 14.496094 19.113281 14.660156 19.105469 14.808594 C 19.097656 14.945312 19.089844 15.0625 19.066406 15.125 C 19.015625 15.253906 18.945312 15.324219 18.945312 15.324219 Z M 18.933594 13.101562 C 18.738281 13.101562 18.417969 13.328125 18.417969 13.585938 C 18.417969 13.820312 18.570312 14.078125 18.691406 14.289062 L 18.722656 14.34375 C 18.824219 14.519531 18.835938 14.734375 18.84375 14.902344 C 18.847656 14.949219 18.847656 14.992188 18.851562 15.03125 C 18.867188 15.191406 18.929688 15.296875 18.945312 15.316406 C 18.957031 15.300781 19.015625 15.234375 19.058594 15.121094 C 19.082031 15.0625 19.089844 14.945312 19.097656 14.808594 C 19.109375 14.660156 19.117188 14.492188 19.152344 14.355469 C 19.179688 14.253906 19.21875 14.160156 19.253906 14.070312 C 19.316406 13.914062 19.375 13.769531 19.375 13.601562 C 19.375 13.484375 19.34375 13.101562 18.933594 13.101562 Z M 18.933594 13.101562 "/>
<path fill-rule="nonzero" fill="rgb(70.979309%, 56.077576%, 89.802551%)" fill-opacity="1" d="M 7.757812 11.707031 C 7.757812 11.707031 7.882812 11.84375 7.953125 12.007812 C 8.019531 12.167969 8.054688 12.449219 8.203125 12.628906 C 8.347656 12.808594 8.652344 13.332031 8.652344 13.550781 C 8.652344 13.773438 8.492188 13.996094 8.203125 13.996094 C 7.910156 13.996094 7.585938 13.75 7.570312 13.476562 C 7.542969 13.003906 7.816406 13.066406 7.785156 12.734375 C 7.757812 12.484375 7.773438 12.449219 7.765625 12.324219 C 7.753906 12.15625 7.757812 11.707031 7.757812 11.707031 Z M 7.757812 11.707031 "/>
<path fill-rule="nonzero" fill="rgb(41.960144%, 14.901733%, 70.979309%)" fill-opacity="1" d="M 8.203125 14 C 7.894531 14 7.582031 13.738281 7.566406 13.476562 C 7.550781 13.222656 7.625 13.121094 7.691406 13.035156 C 7.746094 12.957031 7.796875 12.886719 7.78125 12.734375 C 7.765625 12.578125 7.765625 12.503906 7.765625 12.441406 C 7.765625 12.40625 7.765625 12.371094 7.761719 12.324219 C 7.753906 12.15625 7.753906 11.710938 7.753906 11.707031 L 7.753906 11.699219 L 7.757812 11.707031 C 7.761719 11.707031 7.890625 11.84375 7.957031 12.003906 C 7.980469 12.058594 7.996094 12.125 8.019531 12.195312 C 8.058594 12.34375 8.105469 12.507812 8.203125 12.628906 C 8.34375 12.796875 8.65625 13.324219 8.65625 13.550781 C 8.65625 13.769531 8.496094 14 8.203125 14 Z M 7.757812 11.714844 C 7.757812 11.773438 7.757812 12.167969 7.769531 12.320312 C 7.773438 12.367188 7.773438 12.402344 7.769531 12.441406 C 7.769531 12.503906 7.769531 12.574219 7.785156 12.730469 C 7.800781 12.890625 7.75 12.960938 7.695312 13.039062 C 7.628906 13.125 7.558594 13.226562 7.570312 13.476562 C 7.585938 13.734375 7.898438 13.992188 8.199219 13.992188 C 8.492188 13.992188 8.652344 13.765625 8.652344 13.550781 C 8.652344 13.328125 8.335938 12.800781 8.199219 12.628906 C 8.101562 12.511719 8.054688 12.34375 8.011719 12.195312 C 7.992188 12.125 7.972656 12.058594 7.949219 12.007812 C 7.890625 11.863281 7.785156 11.742188 7.757812 11.714844 Z M 7.757812 11.714844 "/>
<path fill-rule="nonzero" fill="rgb(70.979309%, 56.077576%, 89.802551%)" fill-opacity="1" d="M 10.695312 8.542969 C 10.695312 8.542969 10.398438 8.808594 10.246094 9.21875 C 10.089844 9.628906 9.929688 10.269531 9.457031 10.269531 C 9.066406 10.269531 8.960938 9.9375 8.960938 9.730469 C 8.960938 9.527344 9.226562 9.304688 9.492188 9.21875 C 9.757812 9.132812 9.921875 9.007812 10.054688 8.84375 C 10.261719 8.585938 10.664062 8.535156 10.664062 8.535156 "/>
<path fill-rule="nonzero" fill="rgb(41.960144%, 14.901733%, 70.979309%)" fill-opacity="1" d="M 9.457031 10.273438 C 8.972656 10.273438 8.957031 9.789062 8.957031 9.730469 C 8.957031 9.519531 9.234375 9.296875 9.488281 9.214844 C 9.734375 9.136719 9.910156 9.023438 10.054688 8.839844 C 10.257812 8.585938 10.65625 8.53125 10.660156 8.53125 L 10.660156 8.539062 C 10.660156 8.539062 10.257812 8.59375 10.058594 8.84375 C 9.910156 9.027344 9.738281 9.140625 9.492188 9.222656 C 9.238281 9.304688 8.964844 9.523438 8.964844 9.730469 C 8.964844 9.785156 8.976562 10.265625 9.457031 10.265625 C 9.867188 10.265625 10.042969 9.773438 10.183594 9.375 C 10.203125 9.320312 10.222656 9.269531 10.242188 9.21875 C 10.394531 8.8125 10.691406 8.546875 10.695312 8.542969 L 10.699219 8.546875 C 10.695312 8.550781 10.398438 8.816406 10.246094 9.222656 C 10.226562 9.269531 10.210938 9.324219 10.191406 9.378906 C 10.046875 9.777344 9.871094 10.273438 9.457031 10.273438 Z M 9.457031 10.273438 "/>
<path fill-rule="nonzero" fill="rgb(54.901123%, 54.116821%, 54.901123%)" fill-opacity="1" d="M 12.621094 9.765625 C 13.277344 9.765625 13.765625 9.785156 14.105469 9.785156 C 14.449219 9.785156 14.789062 9.894531 14.789062 10.210938 C 14.789062 10.527344 14.621094 10.640625 14.621094 10.640625 C 14.621094 10.640625 14.6875 10.878906 14.578125 11.132812 C 14.464844 11.390625 14.269531 11.527344 13.917969 11.527344 C 13.566406 11.527344 12.945312 11.535156 12.773438 11.535156 C 12.601562 11.535156 12.441406 11.496094 12.328125 11.109375 C 11.996094 9.964844 12.269531 9.765625 12.621094 9.765625 Z M 12.816406 11.542969 L 14.105469 11.542969 C 14.25 11.542969 14.378906 11.542969 14.394531 11.953125 C 14.414062 12.363281 15.132812 18.074219 15.175781 18.5 C 15.214844 18.929688 14.859375 18.980469 14.859375 18.980469 C 14.859375 18.980469 14.753906 19.175781 14.285156 19.3125 C 13.816406 19.449219 13.644531 19.398438 13.480469 19.355469 C 13.320312 19.3125 13.140625 19.261719 12.910156 19.355469 C 12.679688 19.449219 12.472656 19.421875 12.277344 19.320312 C 12.082031 19.21875 12.0625 19.0625 12.0625 19.0625 C 12.0625 19.0625 11.933594 19.027344 11.78125 18.910156 C 11.628906 18.792969 11.636719 18.5 11.679688 18.304688 C 11.722656 18.105469 12.371094 12.5625 12.421875 12.167969 C 12.472656 11.773438 12.535156 11.542969 12.816406 11.542969 Z M 12.816406 11.542969 "/>
<path fill-rule="nonzero" fill="rgb(100%, 100%, 100%)" fill-opacity="1" d="M 13.464844 9.976562 L 14.234375 12.382812 L 16.785156 12.390625 L 14.710938 13.875 L 15.519531 16.292969 L 13.464844 14.777344 L 11.414062 16.292969 L 12.21875 13.875 L 10.144531 12.390625 L 12.695312 12.382812 Z M 13.464844 9.976562 "/>
<path fill-rule="nonzero" fill="rgb(100%, 71.37146%, 21.176147%)" fill-opacity="1" d="M 9.082031 12.960938 C 9.082031 12.960938 8.929688 12.476562 8.585938 12.542969 C 8.320312 12.59375 8.398438 12.730469 8.484375 12.808594 C 8.570312 12.886719 8.570312 12.9375 8.644531 12.886719 C 8.722656 12.835938 8.839844 12.84375 8.902344 12.902344 C 8.960938 12.960938 9.082031 12.960938 9.082031 12.960938 Z M 8.003906 11.601562 C 8.003906 11.601562 8.054688 11.65625 8.117188 11.757812 C 8.175781 11.859375 8.40625 11.910156 8.5 11.878906 C 8.59375 11.84375 8.621094 12.125 8.535156 12.203125 C 8.449219 12.277344 8.351562 12.316406 8.183594 12.167969 C 7.945312 11.953125 8.003906 11.601562 8.003906 11.601562 Z M 8.808594 11.648438 C 8.9375 11.601562 9.054688 11.714844 9.039062 11.886719 C 9.023438 12.058594 8.84375 12.398438 8.84375 12.398438 C 8.84375 12.398438 8.808594 12.332031 8.78125 12.246094 C 8.757812 12.160156 8.875 12.117188 8.800781 11.980469 C 8.722656 11.84375 8.808594 11.648438 8.808594 11.648438 Z M 8.441406 10.414062 C 8.441406 10.414062 8.621094 10.585938 8.722656 10.621094 C 8.824219 10.65625 9.03125 10.570312 9.089844 10.707031 C 9.148438 10.84375 9.167969 11.132812 8.925781 11.054688 C 8.6875 10.980469 8.59375 10.835938 8.535156 10.707031 C 8.476562 10.578125 8.441406 10.414062 8.441406 10.414062 Z M 9.714844 10.03125 C 9.816406 9.921875 10.074219 9.910156 10.089844 10.125 C 10.105469 10.339844 9.929688 10.730469 9.929688 10.730469 C 9.929688 10.730469 9.875 10.59375 9.867188 10.535156 C 9.859375 10.476562 9.808594 10.285156 9.695312 10.246094 C 9.585938 10.203125 9.714844 10.03125 9.714844 10.03125 Z M 10.175781 9.5 C 10.320312 9.398438 10.484375 9.484375 10.527344 9.613281 C 10.566406 9.742188 10.472656 10.210938 10.398438 10.3125 L 10.347656 10.140625 C 10.332031 10.082031 10.355469 9.851562 10.160156 9.800781 C 9.960938 9.75 10.175781 9.5 10.175781 9.5 Z M 10.988281 8.183594 C 10.988281 8.183594 10.507812 8.621094 10.789062 8.953125 C 11.070312 9.289062 11.113281 8.953125 11.082031 8.851562 C 11.046875 8.75 11.070312 8.742188 11.011719 8.648438 C 10.953125 8.554688 10.953125 8.449219 10.988281 8.375 C 11.019531 8.296875 10.988281 8.183594 10.988281 8.183594 Z M 10.988281 8.183594 "/>
<path fill-rule="nonzero" fill="rgb(100%, 71.37146%, 21.176147%)" fill-opacity="1" d="M 10.652344 9.261719 C 10.636719 9.390625 10.679688 9.449219 10.757812 9.511719 C 10.832031 9.570312 10.789062 9.808594 10.789062 9.808594 C 10.789062 9.808594 10.945312 9.773438 10.976562 9.492188 C 11.011719 9.210938 10.902344 9.066406 10.824219 9.066406 C 10.746094 9.066406 10.652344 9.261719 10.652344 9.261719 Z M 11.304688 8.851562 C 11.226562 8.945312 11.210938 9.167969 11.335938 9.261719 C 11.464844 9.355469 11.414062 9.648438 11.414062 9.648438 C 11.414062 9.648438 11.601562 9.535156 11.617188 9.273438 C 11.632812 9.007812 11.472656 8.820312 11.472656 8.820312 Z M 11.910156 7.921875 C 11.910156 7.921875 11.492188 8.289062 11.703125 8.597656 C 11.917969 8.902344 12.125 8.527344 12.046875 8.449219 C 11.96875 8.375 11.839844 8.304688 11.894531 8.167969 C 11.945312 8.03125 11.910156 7.921875 11.910156 7.921875 Z M 11.910156 7.921875 "/>
<path fill-rule="nonzero" fill="rgb(100%, 71.37146%, 21.176147%)" fill-opacity="1" d="M 11.945312 8.714844 C 12.082031 8.671875 12.167969 8.765625 12.191406 8.914062 C 12.21875 9.058594 12.003906 9.484375 12.003906 9.484375 C 12.003906 9.484375 11.910156 9.398438 11.953125 9.269531 C 11.996094 9.144531 11.910156 9.058594 11.832031 8.980469 C 11.757812 8.902344 11.808594 8.757812 11.945312 8.714844 Z M 12.925781 8.449219 C 12.765625 8.488281 12.679688 8.636719 12.816406 8.75 C 12.953125 8.859375 12.945312 8.921875 12.910156 9.007812 C 12.875 9.089844 12.917969 9.195312 12.917969 9.195312 C 12.917969 9.195312 13.097656 9.101562 13.148438 8.835938 C 13.199219 8.570312 13.074219 8.417969 12.925781 8.449219 Z M 15.027344 7.9375 C 15.027344 7.9375 14.875 8.277344 15.054688 8.5 C 15.234375 8.722656 15.40625 8.550781 15.394531 8.425781 C 15.386719 8.296875 15.269531 8.269531 15.191406 8.21875 C 15.113281 8.167969 15.070312 8.167969 15.089844 8.089844 C 15.105469 8.015625 15.027344 7.9375 15.027344 7.9375 Z M 15.039062 8.648438 C 14.960938 8.679688 14.925781 8.929688 14.96875 9.007812 C 15.011719 9.082031 14.910156 9.179688 14.882812 9.273438 L 14.859375 9.367188 C 14.859375 9.367188 15.070312 9.296875 15.210938 9.089844 C 15.347656 8.886719 15.355469 8.714844 15.269531 8.65625 C 15.183594 8.597656 15.039062 8.648438 15.039062 8.648438 Z M 15.773438 8.082031 C 15.773438 8.082031 15.394531 8.398438 15.429688 8.699219 C 15.464844 8.996094 15.746094 8.929688 15.796875 8.785156 C 15.847656 8.636719 15.753906 8.519531 15.738281 8.433594 C 15.722656 8.347656 15.753906 8.296875 15.78125 8.226562 C 15.804688 8.160156 15.78125 8.082031 15.773438 8.082031 Z M 15.773438 8.082031 "/>
<path fill-rule="nonzero" fill="rgb(100%, 71.37146%, 21.176147%)" fill-opacity="1" d="M 15.671875 8.921875 C 15.59375 9.015625 15.636719 9.203125 15.636719 9.3125 C 15.636719 9.425781 15.507812 9.535156 15.515625 9.640625 C 15.515625 9.640625 15.902344 9.546875 15.953125 9.144531 C 16.003906 8.742188 15.671875 8.921875 15.671875 8.921875 Z M 16.234375 8.722656 C 16.394531 8.597656 16.679688 8.613281 16.894531 8.691406 C 16.894531 8.691406 16.832031 8.828125 16.714844 8.820312 C 16.59375 8.808594 16.652344 9.058594 16.355469 9.101562 C 16.054688 9.140625 16.105469 8.828125 16.234375 8.722656 Z M 16.421875 9.375 C 16.269531 9.433594 16.191406 9.640625 16.335938 9.714844 C 16.480469 9.792969 16.464844 9.835938 16.457031 9.945312 C 16.445312 10.058594 16.515625 10.144531 16.515625 10.144531 C 16.515625 10.144531 16.625 9.980469 16.652344 9.722656 C 16.679688 9.46875 16.59375 9.304688 16.421875 9.375 Z M 16.917969 9.570312 C 16.933594 9.40625 17.148438 9.253906 17.351562 9.253906 C 17.558594 9.253906 17.6875 9.328125 17.6875 9.328125 C 17.6875 9.328125 17.679688 9.40625 17.523438 9.414062 C 17.371094 9.425781 17.363281 9.722656 17.105469 9.742188 C 16.847656 9.757812 16.917969 9.570312 16.917969 9.570312 Z M 18.445312 12.519531 C 18.445312 12.519531 18.542969 12.421875 18.6875 12.417969 C 18.832031 12.40625 18.96875 12.554688 19.054688 12.664062 C 19.136719 12.773438 19.183594 12.929688 19.183594 12.929688 C 19.183594 12.929688 19.0625 12.929688 19.019531 12.859375 C 18.976562 12.792969 18.644531 12.84375 18.480469 12.722656 C 18.480469 12.722656 18.414062 12.800781 18.328125 12.851562 C 18.242188 12.902344 18.089844 12.859375 18.027344 12.972656 C 17.96875 13.082031 17.867188 13.160156 17.867188 13.160156 C 17.867188 13.160156 17.832031 12.816406 17.984375 12.648438 C 18.140625 12.476562 18.207031 12.457031 18.308594 12.476562 C 18.414062 12.492188 18.445312 12.519531 18.445312 12.519531 Z M 18.445312 12.519531 "/>
<path fill-rule="nonzero" fill="rgb(12.548828%, 47.450256%, 0%)" fill-opacity="1" d="M 9.558594 10.195312 C 9.558594 10.195312 9.714844 10.296875 9.636719 10.613281 C 9.558594 10.929688 9.464844 11.320312 9.527344 11.585938 C 9.527344 11.585938 9.3125 11.332031 9.335938 11.074219 C 9.363281 10.816406 9.550781 10.636719 9.492188 10.441406 C 9.433594 10.246094 9.558594 10.195312 9.558594 10.195312 Z M 9.558594 10.195312 "/>
<path fill-rule="nonzero" fill="rgb(6.274414%, 21.960449%, 0%)" fill-opacity="1" d="M 9.550781 11.636719 L 9.515625 11.59375 C 9.507812 11.582031 9.300781 11.332031 9.324219 11.070312 C 9.335938 10.960938 9.378906 10.859375 9.417969 10.769531 C 9.46875 10.652344 9.511719 10.550781 9.480469 10.445312 C 9.417969 10.238281 9.554688 10.183594 9.554688 10.179688 L 9.5625 10.179688 L 9.566406 10.183594 C 9.574219 10.1875 9.726562 10.292969 9.648438 10.613281 C 9.578125 10.910156 9.476562 11.316406 9.539062 11.582031 Z M 9.558594 10.210938 C 9.535156 10.222656 9.457031 10.277344 9.503906 10.4375 C 9.539062 10.554688 9.492188 10.664062 9.441406 10.78125 C 9.402344 10.871094 9.363281 10.964844 9.351562 11.074219 C 9.332031 11.261719 9.445312 11.453125 9.503906 11.535156 C 9.464844 11.265625 9.554688 10.890625 9.625 10.609375 C 9.6875 10.339844 9.585938 10.230469 9.558594 10.210938 Z M 9.558594 10.210938 "/>
<path fill-rule="nonzero" fill="rgb(12.548828%, 47.450256%, 0%)" fill-opacity="1" d="M 9.175781 10.800781 C 9.226562 11.039062 9.285156 11.449219 9.261719 11.664062 C 9.234375 11.878906 9.023438 12.046875 9.023438 12.046875 C 9.023438 12.046875 9.148438 11.773438 9.117188 11.449219 C 9.085938 11.167969 9.175781 10.800781 9.175781 10.800781 Z M 9.175781 10.800781 "/>
<path fill-rule="nonzero" fill="rgb(6.274414%, 21.960449%, 0%)" fill-opacity="1" d="M 8.988281 12.09375 L 9.007812 12.042969 C 9.011719 12.039062 9.136719 11.769531 9.101562 11.453125 C 9.074219 11.171875 9.160156 10.800781 9.164062 10.796875 L 9.175781 10.742188 L 9.1875 10.796875 C 9.238281 11.023438 9.300781 11.445312 9.273438 11.664062 C 9.25 11.882812 9.039062 12.050781 9.03125 12.058594 Z M 9.175781 10.863281 C 9.152344 10.976562 9.105469 11.238281 9.128906 11.449219 C 9.152344 11.691406 9.089844 11.90625 9.054688 12 C 9.117188 11.941406 9.230469 11.8125 9.25 11.660156 C 9.273438 11.460938 9.222656 11.097656 9.175781 10.863281 Z M 9.175781 10.863281 "/>
<path fill-rule="nonzero" fill="rgb(87.057495%, 12.548828%, 5.882263%)" fill-opacity="1" d="M 8.355469 12.679688 C 8.355469 12.679688 8.242188 12.851562 8.242188 12.972656 C 8.246094 13.09375 8.363281 13.167969 8.429688 13.167969 C 8.714844 13.167969 8.671875 12.84375 8.578125 12.707031 C 8.578125 12.707031 8.671875 12.628906 8.703125 12.476562 C 8.738281 12.320312 8.601562 12.203125 8.601562 12.203125 C 8.601562 12.203125 8.765625 12.203125 8.816406 12.03125 C 8.867188 11.859375 8.78125 11.6875 8.78125 11.6875 C 8.78125 11.6875 8.933594 11.664062 9.003906 11.484375 C 9.070312 11.304688 8.996094 11.167969 8.996094 11.167969 C 8.996094 11.167969 9.132812 11.160156 9.226562 11.003906 C 9.320312 10.851562 9.277344 10.707031 9.277344 10.707031 C 9.277344 10.707031 9.378906 10.722656 9.5 10.570312 C 9.621094 10.414062 9.585938 10.269531 9.585938 10.269531 C 9.585938 10.269531 9.703125 10.261719 9.816406 10.160156 C 9.925781 10.054688 9.9375 9.867188 9.9375 9.867188 C 9.9375 9.867188 10.046875 9.875 10.175781 9.765625 C 10.304688 9.652344 10.296875 9.542969 10.296875 9.542969 C 10.296875 9.542969 10.433594 9.585938 10.585938 9.484375 C 10.738281 9.382812 10.738281 9.21875 10.738281 9.21875 C 10.738281 9.21875 10.84375 9.277344 11.03125 9.175781 C 11.21875 9.074219 11.207031 8.9375 11.207031 8.9375 C 11.207031 8.9375 11.320312 9.011719 11.507812 8.910156 C 11.695312 8.808594 11.703125 8.714844 11.703125 8.714844 C 11.703125 8.714844 11.789062 8.78125 11.960938 8.722656 C 12.132812 8.664062 12.191406 8.527344 12.191406 8.527344 C 12.191406 8.527344 12.25 8.652344 12.457031 8.601562 C 12.660156 8.550781 12.722656 8.390625 12.722656 8.390625 C 12.722656 8.390625 12.808594 8.535156 12.96875 8.535156 C 13.132812 8.535156 13.269531 8.414062 13.269531 8.414062 C 13.269531 8.414062 13.335938 8.519531 13.5 8.519531 C 13.660156 8.519531 13.78125 8.414062 13.78125 8.414062 C 13.78125 8.414062 13.832031 8.484375 14.039062 8.5 C 14.242188 8.519531 14.320312 8.457031 14.320312 8.457031 C 14.320312 8.457031 14.394531 8.585938 14.523438 8.621094 C 14.652344 8.652344 14.816406 8.59375 14.816406 8.59375 C 14.816406 8.59375 14.859375 8.722656 15.011719 8.78125 C 15.164062 8.84375 15.320312 8.78125 15.320312 8.78125 C 15.320312 8.78125 15.3125 8.925781 15.492188 8.988281 C 15.671875 9.046875 15.796875 8.988281 15.796875 8.988281 C 15.796875 8.988281 15.847656 9.140625 16.011719 9.21875 C 16.175781 9.296875 16.292969 9.277344 16.292969 9.277344 C 16.292969 9.277344 16.304688 9.40625 16.4375 9.5 C 16.574219 9.59375 16.722656 9.585938 16.722656 9.585938 C 16.722656 9.585938 16.722656 9.742188 16.847656 9.84375 C 16.976562 9.945312 17.113281 9.96875 17.113281 9.96875 C 17.113281 9.96875 17.054688 10.117188 17.148438 10.226562 C 17.242188 10.339844 17.421875 10.414062 17.421875 10.414062 C 17.421875 10.414062 17.394531 10.558594 17.472656 10.679688 C 17.550781 10.800781 17.703125 10.859375 17.703125 10.859375 C 17.703125 10.859375 17.714844 10.960938 17.753906 11.089844 C 17.796875 11.21875 18.003906 11.296875 18.003906 11.296875 C 18.003906 11.296875 17.925781 11.433594 17.960938 11.558594 C 17.996094 11.6875 18.164062 11.800781 18.164062 11.800781 C 18.164062 11.800781 18.105469 11.867188 18.121094 12.003906 C 18.140625 12.140625 18.285156 12.285156 18.285156 12.285156 C 18.285156 12.285156 18.25 12.363281 18.242188 12.570312 C 18.234375 12.773438 18.359375 12.851562 18.359375 12.851562 C 18.359375 12.851562 18.277344 12.945312 18.265625 13.097656 C 18.257812 13.253906 18.394531 13.398438 18.523438 13.386719 C 18.652344 13.378906 18.710938 13.292969 18.695312 13.140625 C 18.679688 12.988281 18.550781 12.832031 18.550781 12.832031 C 18.550781 12.832031 18.660156 12.714844 18.652344 12.566406 C 18.644531 12.421875 18.457031 12.242188 18.457031 12.242188 C 18.457031 12.242188 18.53125 12.199219 18.523438 12.003906 C 18.515625 11.808594 18.34375 11.738281 18.34375 11.738281 C 18.34375 11.738281 18.402344 11.6875 18.363281 11.484375 C 18.320312 11.277344 18.164062 11.226562 18.164062 11.226562 C 18.164062 11.226562 18.207031 11.117188 18.140625 10.945312 C 18.070312 10.773438 17.890625 10.730469 17.890625 10.730469 C 17.890625 10.730469 17.890625 10.59375 17.832031 10.441406 C 17.773438 10.285156 17.59375 10.296875 17.59375 10.296875 C 17.59375 10.296875 17.617188 10.089844 17.488281 9.96875 C 17.363281 9.851562 17.207031 9.84375 17.207031 9.84375 C 17.207031 9.84375 17.257812 9.707031 17.105469 9.558594 C 16.953125 9.414062 16.8125 9.476562 16.8125 9.476562 C 16.8125 9.476562 16.8125 9.277344 16.640625 9.160156 C 16.472656 9.039062 16.371094 9.089844 16.371094 9.089844 C 16.371094 9.089844 16.359375 8.972656 16.199219 8.886719 C 16.035156 8.800781 15.890625 8.824219 15.890625 8.824219 C 15.890625 8.824219 15.882812 8.679688 15.703125 8.613281 C 15.523438 8.542969 15.378906 8.59375 15.378906 8.59375 C 15.378906 8.59375 15.378906 8.46875 15.179688 8.398438 C 14.984375 8.332031 14.863281 8.382812 14.863281 8.382812 C 14.863281 8.382812 14.8125 8.289062 14.660156 8.226562 C 14.503906 8.167969 14.328125 8.261719 14.328125 8.261719 C 14.328125 8.261719 14.207031 8.132812 14.035156 8.117188 C 13.863281 8.101562 13.761719 8.183594 13.761719 8.183594 C 13.761719 8.183594 13.710938 8.101562 13.515625 8.082031 C 13.316406 8.066406 13.230469 8.175781 13.230469 8.175781 C 13.230469 8.175781 13.199219 8.117188 13.019531 8.101562 C 12.839844 8.082031 12.695312 8.269531 12.695312 8.269531 C 12.695312 8.269531 12.539062 8.152344 12.378906 8.175781 C 12.214844 8.203125 12.121094 8.339844 12.121094 8.339844 C 12.121094 8.339844 12.027344 8.269531 11.847656 8.3125 C 11.667969 8.355469 11.59375 8.492188 11.59375 8.492188 C 11.59375 8.492188 11.515625 8.449219 11.34375 8.519531 C 11.171875 8.585938 11.128906 8.765625 11.128906 8.765625 C 11.128906 8.765625 11.019531 8.6875 10.8125 8.808594 C 10.609375 8.929688 10.617188 9.03125 10.617188 9.03125 C 10.617188 9.03125 10.53125 8.996094 10.359375 9.089844 C 10.191406 9.183594 10.214844 9.378906 10.214844 9.378906 C 10.214844 9.378906 10.078125 9.320312 9.910156 9.449219 C 9.738281 9.578125 9.789062 9.730469 9.789062 9.730469 C 9.789062 9.730469 9.582031 9.722656 9.488281 9.867188 C 9.394531 10.011719 9.410156 10.175781 9.410156 10.175781 C 9.410156 10.175781 9.234375 10.191406 9.148438 10.328125 C 9.0625 10.464844 9.113281 10.628906 9.113281 10.628906 C 9.113281 10.628906 8.949219 10.628906 8.863281 10.789062 C 8.78125 10.953125 8.832031 11.097656 8.832031 11.097656 C 8.832031 11.097656 8.667969 11.140625 8.609375 11.320312 C 8.550781 11.5 8.617188 11.617188 8.617188 11.617188 C 8.617188 11.617188 8.429688 11.671875 8.386719 11.839844 C 8.34375 12.011719 8.421875 12.15625 8.421875 12.15625 C 8.421875 12.15625 8.308594 12.226562 8.277344 12.394531 C 8.242188 12.570312 8.355469 12.679688 8.355469 12.679688 Z M 8.355469 12.679688 "/>
<path fill-rule="nonzero" fill="rgb(100%, 89.01825%, 0.392151%)" fill-opacity="1" d="M 8.355469 12.878906 C 8.355469 12.878906 8.441406 12.949219 8.542969 12.878906 C 8.542969 12.878906 8.613281 13.121094 8.433594 13.089844 C 8.277344 13.0625 8.355469 12.878906 8.355469 12.878906 Z M 8.40625 12.410156 C 8.40625 12.410156 8.445312 12.449219 8.503906 12.453125 C 8.558594 12.457031 8.609375 12.433594 8.609375 12.433594 C 8.609375 12.433594 8.613281 12.5 8.585938 12.558594 C 8.5625 12.621094 8.523438 12.683594 8.445312 12.660156 C 8.367188 12.632812 8.375 12.535156 8.382812 12.492188 C 8.390625 12.449219 8.40625 12.410156 8.40625 12.410156 Z M 8.539062 11.859375 C 8.539062 11.859375 8.59375 11.902344 8.640625 11.90625 C 8.691406 11.910156 8.75 11.898438 8.75 11.898438 C 8.75 11.898438 8.746094 11.96875 8.714844 12.027344 C 8.683594 12.089844 8.628906 12.132812 8.566406 12.117188 C 8.503906 12.101562 8.503906 12.019531 8.507812 11.96875 C 8.507812 11.921875 8.539062 11.859375 8.539062 11.859375 Z M 8.734375 11.339844 C 8.734375 11.339844 8.769531 11.382812 8.816406 11.398438 C 8.859375 11.410156 8.929688 11.410156 8.929688 11.410156 C 8.929688 11.410156 8.910156 11.492188 8.882812 11.535156 C 8.855469 11.574219 8.796875 11.628906 8.738281 11.601562 C 8.679688 11.578125 8.671875 11.507812 8.6875 11.445312 C 8.699219 11.382812 8.734375 11.339844 8.734375 11.339844 Z M 8.988281 10.839844 C 8.988281 10.839844 9.019531 10.894531 9.074219 10.90625 C 9.128906 10.921875 9.1875 10.921875 9.1875 10.921875 C 9.1875 10.921875 9.164062 10.984375 9.128906 11.035156 C 9.09375 11.082031 9.03125 11.109375 8.96875 11.085938 C 8.914062 11.066406 8.914062 10.984375 8.929688 10.9375 C 8.945312 10.886719 8.988281 10.839844 8.988281 10.839844 Z M 9.296875 10.367188 C 9.296875 10.367188 9.320312 10.417969 9.359375 10.445312 C 9.410156 10.480469 9.46875 10.484375 9.46875 10.484375 C 9.46875 10.484375 9.398438 10.574219 9.367188 10.601562 C 9.335938 10.625 9.242188 10.671875 9.195312 10.589844 C 9.160156 10.53125 9.195312 10.46875 9.21875 10.4375 C 9.242188 10.40625 9.296875 10.367188 9.296875 10.367188 Z M 9.625 9.917969 C 9.625 9.917969 9.644531 9.980469 9.6875 10.003906 C 9.734375 10.035156 9.796875 10.042969 9.796875 10.042969 C 9.796875 10.042969 9.726562 10.21875 9.601562 10.199219 C 9.476562 10.179688 9.507812 10.0625 9.535156 10.019531 C 9.558594 9.972656 9.625 9.917969 9.625 9.917969 Z M 10.019531 9.539062 C 10.019531 9.539062 10.050781 9.605469 10.078125 9.628906 C 10.113281 9.65625 10.171875 9.679688 10.171875 9.679688 C 10.171875 9.679688 10.097656 9.789062 10.007812 9.804688 C 9.921875 9.816406 9.867188 9.757812 9.871094 9.691406 C 9.875 9.605469 10.019531 9.539062 10.019531 9.539062 Z M 10.453125 9.183594 C 10.453125 9.183594 10.46875 9.25 10.503906 9.277344 C 10.535156 9.308594 10.601562 9.34375 10.601562 9.34375 C 10.601562 9.34375 10.519531 9.457031 10.425781 9.457031 C 10.328125 9.457031 10.300781 9.414062 10.300781 9.363281 C 10.300781 9.308594 10.335938 9.257812 10.363281 9.238281 C 10.390625 9.21875 10.453125 9.183594 10.453125 9.183594 Z M 10.925781 8.875 C 10.925781 8.875 10.929688 8.949219 10.964844 8.992188 C 10.988281 9.023438 11.058594 9.054688 11.058594 9.054688 C 11.058594 9.054688 10.976562 9.152344 10.882812 9.152344 C 10.78125 9.152344 10.753906 9.105469 10.753906 9.046875 C 10.753906 8.988281 10.796875 8.945312 10.828125 8.921875 C 10.859375 8.898438 10.925781 8.875 10.925781 8.875 Z M 11.421875 8.628906 C 11.421875 8.628906 11.417969 8.707031 11.441406 8.742188 C 11.464844 8.777344 11.53125 8.820312 11.53125 8.820312 C 11.53125 8.820312 11.453125 8.878906 11.386719 8.886719 C 11.324219 8.894531 11.269531 8.882812 11.25 8.8125 C 11.230469 8.738281 11.28125 8.691406 11.3125 8.671875 C 11.339844 8.652344 11.421875 8.628906 11.421875 8.628906 Z M 11.925781 8.40625 C 11.925781 8.40625 11.925781 8.476562 11.960938 8.539062 C 11.980469 8.578125 12.023438 8.617188 12.023438 8.617188 C 12.023438 8.617188 11.960938 8.675781 11.855469 8.667969 C 11.75 8.664062 11.730469 8.578125 11.746094 8.519531 C 11.773438 8.425781 11.925781 8.40625 11.925781 8.40625 Z M 12.488281 8.269531 C 12.488281 8.269531 12.464844 8.355469 12.484375 8.40625 C 12.507812 8.457031 12.546875 8.492188 12.546875 8.492188 C 12.546875 8.492188 12.472656 8.535156 12.386719 8.535156 C 12.300781 8.535156 12.238281 8.472656 12.257812 8.386719 C 12.285156 8.265625 12.488281 8.269531 12.488281 8.269531 Z M 13.03125 8.21875 C 13.03125 8.21875 13.015625 8.28125 13.015625 8.316406 C 13.019531 8.394531 13.0625 8.4375 13.0625 8.4375 C 13.0625 8.4375 12.988281 8.476562 12.902344 8.453125 C 12.8125 8.429688 12.78125 8.40625 12.785156 8.332031 C 12.789062 8.257812 12.859375 8.226562 12.910156 8.214844 C 12.964844 8.203125 13.03125 8.21875 13.03125 8.21875 Z M 13.359375 8.3125 C 13.355469 8.269531 13.425781 8.195312 13.566406 8.199219 C 13.5625 8.203125 13.554688 8.277344 13.566406 8.316406 C 13.582031 8.355469 13.359375 8.3125 13.359375 8.3125 Z M 13.902344 8.300781 C 13.9375 8.222656 14.101562 8.21875 14.15625 8.25 C 14.15625 8.25 14.113281 8.339844 14.132812 8.390625 C 14.15625 8.441406 13.902344 8.300781 13.902344 8.300781 Z M 14.710938 8.355469 C 14.710938 8.355469 14.652344 8.398438 14.644531 8.445312 C 14.636719 8.496094 14.660156 8.566406 14.660156 8.566406 C 14.660156 8.566406 14.578125 8.5625 14.511719 8.539062 C 14.453125 8.515625 14.410156 8.449219 14.425781 8.378906 C 14.4375 8.320312 14.503906 8.300781 14.566406 8.300781 C 14.625 8.296875 14.710938 8.355469 14.710938 8.355469 Z M 15.234375 8.535156 C 15.234375 8.535156 15.199219 8.546875 15.179688 8.613281 C 15.15625 8.675781 15.171875 8.738281 15.171875 8.738281 C 15.109375 8.726562 15.058594 8.707031 15.003906 8.664062 C 14.953125 8.621094 14.949219 8.570312 14.972656 8.515625 C 15 8.460938 15.0625 8.460938 15.121094 8.46875 C 15.175781 8.480469 15.234375 8.535156 15.234375 8.535156 Z M 15.476562 8.703125 C 15.511719 8.644531 15.652344 8.671875 15.691406 8.703125 C 15.730469 8.738281 15.742188 8.765625 15.742188 8.765625 C 15.742188 8.765625 15.695312 8.773438 15.671875 8.824219 C 15.652344 8.875 15.667969 8.945312 15.667969 8.945312 C 15.667969 8.945312 15.605469 8.925781 15.546875 8.890625 C 15.492188 8.855469 15.429688 8.789062 15.476562 8.703125 Z M 15.964844 8.972656 C 16 8.894531 16.097656 8.910156 16.148438 8.941406 C 16.195312 8.972656 16.226562 9.019531 16.226562 9.019531 C 16.226562 9.019531 16.179688 9.035156 16.152344 9.082031 C 16.132812 9.125 16.128906 9.203125 16.128906 9.203125 C 16.128906 9.203125 16.054688 9.179688 16.003906 9.132812 C 15.953125 9.085938 15.9375 9.027344 15.964844 8.972656 Z M 16.429688 9.246094 C 16.476562 9.191406 16.542969 9.203125 16.589844 9.242188 C 16.640625 9.28125 16.671875 9.355469 16.671875 9.355469 C 16.671875 9.355469 16.621094 9.367188 16.59375 9.402344 C 16.566406 9.433594 16.566406 9.503906 16.566406 9.503906 C 16.566406 9.503906 16.5 9.484375 16.449219 9.425781 C 16.398438 9.367188 16.398438 9.289062 16.429688 9.246094 Z M 16.839844 9.601562 C 16.890625 9.546875 16.96875 9.570312 17.003906 9.609375 C 17.042969 9.648438 17.082031 9.738281 17.082031 9.738281 C 17.082031 9.738281 17.011719 9.742188 16.988281 9.773438 C 16.960938 9.800781 16.945312 9.875 16.945312 9.875 C 16.945312 9.875 16.902344 9.851562 16.859375 9.785156 C 16.816406 9.722656 16.800781 9.648438 16.839844 9.601562 Z M 17.234375 9.992188 C 17.292969 9.9375 17.382812 9.988281 17.410156 10.019531 C 17.445312 10.066406 17.453125 10.136719 17.453125 10.136719 C 17.453125 10.136719 17.40625 10.144531 17.375 10.167969 C 17.347656 10.1875 17.316406 10.257812 17.316406 10.257812 C 17.316406 10.257812 17.265625 10.234375 17.234375 10.175781 C 17.203125 10.117188 17.183594 10.039062 17.234375 9.992188 Z M 17.652344 10.457031 C 17.769531 10.453125 17.832031 10.597656 17.832031 10.597656 C 17.832031 10.597656 17.710938 10.59375 17.671875 10.691406 C 17.628906 10.789062 17.621094 10.5625 17.621094 10.53125 C 17.621094 10.507812 17.652344 10.457031 17.652344 10.457031 Z M 17.847656 10.898438 C 17.917969 10.839844 17.992188 10.882812 18.019531 10.925781 C 18.046875 10.972656 18.074219 11.066406 18.074219 11.066406 C 18.074219 11.066406 18 11.070312 17.957031 11.097656 C 17.910156 11.125 17.875 11.175781 17.875 11.175781 C 17.875 11.175781 17.839844 11.128906 17.8125 11.050781 C 17.785156 10.96875 17.816406 10.921875 17.847656 10.898438 Z M 18.097656 11.382812 C 18.167969 11.339844 18.226562 11.402344 18.257812 11.433594 C 18.289062 11.46875 18.308594 11.5625 18.308594 11.5625 C 18.308594 11.5625 18.230469 11.5625 18.195312 11.585938 C 18.160156 11.605469 18.117188 11.671875 18.117188 11.671875 C 18.117188 11.671875 18.074219 11.601562 18.058594 11.546875 C 18.042969 11.488281 18.050781 11.414062 18.097656 11.382812 Z M 18.300781 11.875 C 18.375 11.839844 18.433594 11.914062 18.441406 11.96875 C 18.453125 12.019531 18.457031 12.101562 18.457031 12.101562 C 18.457031 12.101562 18.421875 12.082031 18.355469 12.101562 C 18.289062 12.117188 18.261719 12.148438 18.261719 12.148438 C 18.261719 12.148438 18.230469 12.089844 18.21875 12.023438 C 18.210938 11.957031 18.226562 11.90625 18.300781 11.875 Z M 18.421875 12.421875 C 18.523438 12.394531 18.558594 12.480469 18.5625 12.550781 C 18.5625 12.621094 18.558594 12.65625 18.558594 12.65625 C 18.558594 12.65625 18.511719 12.640625 18.457031 12.65625 C 18.402344 12.671875 18.371094 12.71875 18.371094 12.71875 C 18.371094 12.71875 18.34375 12.648438 18.332031 12.582031 C 18.320312 12.515625 18.339844 12.441406 18.421875 12.421875 Z M 18.457031 12.953125 C 18.535156 12.933594 18.605469 13.007812 18.609375 13.070312 C 18.613281 13.128906 18.613281 13.195312 18.613281 13.195312 C 18.613281 13.195312 18.5625 13.179688 18.515625 13.1875 C 18.46875 13.195312 18.40625 13.246094 18.40625 13.246094 C 18.40625 13.246094 18.386719 13.183594 18.378906 13.121094 C 18.371094 13.0625 18.375 12.976562 18.457031 12.953125 Z M 18.457031 12.953125 "/>
<path fill-rule="nonzero" fill="rgb(100%, 71.37146%, 21.176147%)" fill-opacity="1" d="M 17.15625 10.175781 C 17.355469 10.121094 17.363281 10.332031 17.40625 10.425781 C 17.445312 10.519531 17.351562 10.808594 17.257812 10.910156 C 17.257812 10.910156 17.199219 10.878906 17.21875 10.773438 C 17.234375 10.671875 17.019531 10.457031 17.011719 10.363281 C 17.003906 10.269531 17.097656 10.195312 17.15625 10.175781 Z M 17.15625 10.175781 "/>
<path fill-rule="nonzero" fill="rgb(12.548828%, 47.450256%, 0%)" fill-opacity="1" d="M 14.300781 9.246094 C 14.300781 9.246094 14.542969 9.179688 14.542969 8.800781 C 14.542969 8.425781 14.003906 8.1875 13.722656 8.332031 L 13.816406 8.535156 C 13.816406 8.535156 13.804688 8.519531 13.96875 8.519531 C 14.132812 8.519531 14.316406 8.640625 14.355469 8.820312 C 14.40625 9.058594 14.300781 9.246094 14.300781 9.246094 Z M 14.300781 9.246094 "/>
<path fill-rule="nonzero" fill="rgb(6.274414%, 21.960449%, 0%)" fill-opacity="1" d="M 14.277344 9.265625 L 14.292969 9.238281 C 14.292969 9.238281 14.390625 9.050781 14.34375 8.820312 C 14.304688 8.640625 14.117188 8.53125 13.96875 8.53125 C 13.847656 8.53125 13.828125 8.542969 13.824219 8.542969 C 13.828125 8.539062 13.828125 8.535156 13.828125 8.53125 L 13.804688 8.539062 L 13.800781 8.535156 L 13.703125 8.324219 L 13.714844 8.320312 C 13.867188 8.242188 14.097656 8.269531 14.289062 8.382812 C 14.457031 8.488281 14.554688 8.640625 14.554688 8.800781 C 14.554688 9.183594 14.308594 9.257812 14.304688 9.257812 Z M 13.96875 8.503906 C 14.128906 8.503906 14.328125 8.625 14.367188 8.816406 C 14.40625 9.003906 14.355469 9.15625 14.328125 9.21875 C 14.390625 9.1875 14.527344 9.085938 14.527344 8.800781 C 14.527344 8.648438 14.4375 8.503906 14.273438 8.40625 C 14.097656 8.296875 13.882812 8.273438 13.738281 8.335938 L 13.820312 8.515625 C 13.839844 8.511719 13.878906 8.503906 13.96875 8.503906 Z M 13.96875 8.503906 "/>
<path fill-rule="nonzero" fill="rgb(12.548828%, 47.450256%, 0%)" fill-opacity="1" d="M 13.21875 8.40625 C 13.21875 8.40625 13.40625 8.238281 13.636719 8.238281 C 13.867188 8.238281 14.03125 8.503906 14.03125 8.679688 C 14.03125 8.859375 13.96875 9.261719 13.578125 9.261719 C 13.578125 9.261719 13.796875 9.109375 13.796875 8.808594 C 13.796875 8.511719 13.617188 8.375 13.507812 8.375 C 13.398438 8.375 13.21875 8.40625 13.21875 8.40625 Z M 13.21875 8.40625 "/>
<path fill-rule="nonzero" fill="rgb(6.274414%, 21.960449%, 0%)" fill-opacity="1" d="M 13.578125 9.273438 L 13.535156 9.273438 L 13.570312 9.253906 C 13.570312 9.25 13.785156 9.097656 13.785156 8.808594 C 13.785156 8.511719 13.605469 8.386719 13.507812 8.386719 C 13.398438 8.386719 13.222656 8.421875 13.21875 8.421875 L 13.175781 8.429688 L 13.207031 8.398438 C 13.214844 8.390625 13.402344 8.226562 13.636719 8.226562 C 13.878906 8.226562 14.042969 8.5 14.042969 8.683594 C 14.042969 8.78125 14.019531 9.273438 13.578125 9.273438 Z M 13.507812 8.359375 C 13.636719 8.359375 13.8125 8.515625 13.8125 8.808594 C 13.8125 9.042969 13.675781 9.195312 13.613281 9.25 C 13.996094 9.222656 14.015625 8.773438 14.015625 8.679688 C 14.015625 8.507812 13.855469 8.25 13.636719 8.25 C 13.472656 8.25 13.332031 8.335938 13.265625 8.386719 C 13.328125 8.375 13.433594 8.359375 13.507812 8.359375 Z M 13.507812 8.359375 "/>
<path fill-rule="nonzero" fill="rgb(12.548828%, 47.450256%, 0%)" fill-opacity="1" d="M 17.710938 10.296875 C 17.710938 10.296875 17.632812 10.605469 17.738281 10.84375 C 17.839844 11.082031 18.035156 11.742188 17.644531 11.988281 C 17.644531 11.988281 17.695312 11.679688 17.6875 11.433594 C 17.679688 11.183594 17.523438 10.921875 17.515625 10.699219 C 17.507812 10.476562 17.710938 10.296875 17.710938 10.296875 Z M 17.710938 10.296875 "/>
<path fill-rule="nonzero" fill="rgb(6.274414%, 21.960449%, 0%)" fill-opacity="1" d="M 17.625 12.015625 L 17.632812 11.984375 C 17.632812 11.984375 17.683594 11.675781 17.675781 11.433594 C 17.671875 11.308594 17.628906 11.175781 17.585938 11.046875 C 17.546875 10.921875 17.507812 10.808594 17.503906 10.695312 C 17.496094 10.472656 17.695312 10.292969 17.707031 10.285156 L 17.738281 10.257812 L 17.726562 10.300781 C 17.726562 10.300781 17.652344 10.605469 17.75 10.835938 C 17.890625 11.160156 18.023438 11.765625 17.652344 12 Z M 17.691406 10.335938 C 17.636719 10.394531 17.523438 10.535156 17.527344 10.695312 C 17.53125 10.804688 17.570312 10.917969 17.609375 11.039062 C 17.652344 11.167969 17.695312 11.304688 17.699219 11.433594 C 17.707031 11.632812 17.671875 11.878906 17.660156 11.960938 C 18.070312 11.664062 17.742188 10.882812 17.726562 10.847656 C 17.644531 10.65625 17.671875 10.429688 17.691406 10.335938 Z M 17.691406 10.335938 "/>
<path fill-rule="nonzero" fill="rgb(12.548828%, 47.450256%, 0%)" fill-opacity="1" d="M 18.089844 11.125 C 18.089844 11.125 18.070312 11.386719 18.078125 11.59375 C 18.097656 11.917969 18.617188 12.347656 18.457031 12.824219 C 18.457031 12.824219 18.378906 12.542969 18.277344 12.347656 C 18.171875 12.152344 17.960938 11.765625 17.96875 11.5625 C 17.976562 11.355469 18.089844 11.125 18.089844 11.125 Z M 18.089844 11.125 "/>
<path fill-rule="nonzero" fill="rgb(6.274414%, 21.960449%, 0%)" fill-opacity="1" d="M 18.453125 12.871094 L 18.441406 12.828125 C 18.441406 12.828125 18.367188 12.546875 18.265625 12.351562 L 18.238281 12.304688 C 18.128906 12.101562 17.949219 11.753906 17.957031 11.558594 C 17.964844 11.355469 18.070312 11.128906 18.078125 11.121094 L 18.105469 11.058594 L 18.101562 11.125 C 18.101562 11.128906 18.082031 11.390625 18.089844 11.59375 C 18.097656 11.714844 18.179688 11.855469 18.265625 12.003906 C 18.40625 12.25 18.570312 12.53125 18.46875 12.828125 Z M 18.070312 11.199219 C 18.039062 11.28125 17.988281 11.429688 17.980469 11.5625 C 17.972656 11.746094 18.15625 12.089844 18.261719 12.292969 L 18.289062 12.339844 C 18.367188 12.492188 18.429688 12.695312 18.457031 12.78125 C 18.527344 12.503906 18.378906 12.246094 18.246094 12.015625 C 18.15625 11.867188 18.074219 11.722656 18.066406 11.597656 C 18.058594 11.457031 18.066406 11.292969 18.070312 11.199219 Z M 18.070312 11.199219 "/>
<path fill-rule="nonzero" fill="rgb(12.548828%, 47.450256%, 0%)" fill-opacity="1" d="M 18.582031 13.527344 C 18.582031 13.527344 18.875 13.902344 18.855469 14.195312 C 18.839844 14.484375 18.652344 14.808594 18.738281 15.054688 C 18.738281 15.054688 18.550781 14.824219 18.617188 14.421875 C 18.6875 14.023438 18.582031 13.527344 18.582031 13.527344 Z M 18.582031 13.527344 "/>
<path fill-rule="nonzero" fill="rgb(6.274414%, 21.960449%, 0%)" fill-opacity="1" d="M 18.773438 15.121094 L 18.726562 15.066406 C 18.71875 15.054688 18.535156 14.824219 18.605469 14.421875 C 18.671875 14.027344 18.570312 13.535156 18.570312 13.527344 L 18.558594 13.472656 L 18.59375 13.519531 C 18.605469 13.535156 18.886719 13.902344 18.871094 14.195312 C 18.863281 14.308594 18.828125 14.429688 18.796875 14.546875 C 18.746094 14.730469 18.699219 14.90625 18.75 15.050781 Z M 18.605469 13.582031 C 18.632812 13.722656 18.683594 14.105469 18.628906 14.425781 C 18.585938 14.695312 18.65625 14.890625 18.707031 14.984375 C 18.6875 14.847656 18.730469 14.699219 18.773438 14.539062 C 18.804688 14.425781 18.839844 14.304688 18.847656 14.191406 C 18.859375 13.96875 18.683594 13.6875 18.605469 13.582031 Z M 18.605469 13.582031 "/>
<path fill-rule="nonzero" fill="rgb(12.548828%, 47.450256%, 0%)" fill-opacity="1" d="M 18.542969 13.484375 C 18.542969 13.484375 18.742188 13.832031 18.738281 14.058594 C 18.730469 14.421875 18.507812 14.816406 18.429688 15.054688 C 18.351562 15.296875 18.320312 15.722656 18.320312 15.722656 C 18.320312 15.722656 18.234375 15.457031 18.253906 15.226562 C 18.269531 14.996094 18.492188 14.5 18.535156 14.125 C 18.574219 13.75 18.542969 13.484375 18.542969 13.484375 Z M 18.542969 13.484375 "/>
<path fill-rule="nonzero" fill="rgb(6.274414%, 21.960449%, 0%)" fill-opacity="1" d="M 18.328125 15.789062 L 18.308594 15.726562 C 18.308594 15.722656 18.222656 15.457031 18.238281 15.226562 C 18.246094 15.117188 18.296875 14.957031 18.355469 14.773438 C 18.421875 14.5625 18.496094 14.324219 18.519531 14.125 C 18.5625 13.753906 18.53125 13.488281 18.53125 13.484375 L 18.519531 13.421875 L 18.554688 13.476562 C 18.5625 13.492188 18.757812 13.832031 18.75 14.058594 C 18.746094 14.320312 18.628906 14.597656 18.535156 14.824219 C 18.5 14.910156 18.464844 14.992188 18.441406 15.058594 C 18.367188 15.292969 18.332031 15.71875 18.332031 15.722656 Z M 18.558594 13.546875 C 18.566406 13.644531 18.574219 13.859375 18.546875 14.125 C 18.523438 14.332031 18.445312 14.570312 18.378906 14.78125 C 18.320312 14.964844 18.269531 15.121094 18.261719 15.226562 C 18.25 15.382812 18.289062 15.558594 18.3125 15.652344 C 18.324219 15.519531 18.359375 15.234375 18.417969 15.050781 C 18.441406 14.984375 18.472656 14.902344 18.511719 14.8125 C 18.601562 14.59375 18.71875 14.316406 18.722656 14.058594 C 18.730469 13.890625 18.613281 13.652344 18.558594 13.546875 Z M 18.558594 13.546875 "/>
<path fill-rule="nonzero" fill="rgb(12.548828%, 47.450256%, 0%)" fill-opacity="1" d="M 8.203125 13.59375 C 8.203125 13.59375 8.203125 14.011719 8.21875 14.183594 C 8.234375 14.355469 8.601562 14.921875 8.652344 15.199219 C 8.707031 15.484375 8.492188 15.78125 8.492188 15.78125 C 8.492188 15.78125 8.515625 15.457031 8.492188 15.285156 C 8.464844 15.117188 8.074219 14.519531 8.082031 14.210938 C 8.089844 13.902344 8.203125 13.59375 8.203125 13.59375 Z M 8.203125 13.59375 "/>
<path fill-rule="nonzero" fill="rgb(6.274414%, 21.960449%, 0%)" fill-opacity="1" d="M 8.476562 15.828125 L 8.480469 15.78125 C 8.480469 15.777344 8.503906 15.457031 8.480469 15.289062 C 8.46875 15.226562 8.40625 15.101562 8.335938 14.953125 C 8.214844 14.710938 8.0625 14.40625 8.070312 14.210938 C 8.078125 13.902344 8.1875 13.59375 8.1875 13.589844 L 8.214844 13.519531 L 8.214844 13.59375 C 8.214844 13.597656 8.214844 14.015625 8.230469 14.183594 C 8.238281 14.261719 8.324219 14.429688 8.414062 14.605469 C 8.519531 14.8125 8.636719 15.046875 8.664062 15.199219 C 8.714844 15.484375 8.507812 15.777344 8.5 15.789062 Z M 8.1875 13.675781 C 8.15625 13.785156 8.101562 14 8.09375 14.210938 C 8.089844 14.398438 8.238281 14.703125 8.359375 14.945312 C 8.429688 15.089844 8.496094 15.21875 8.503906 15.285156 C 8.523438 15.417969 8.515625 15.636719 8.507812 15.734375 C 8.5625 15.644531 8.679688 15.417969 8.640625 15.203125 C 8.617188 15.054688 8.496094 14.820312 8.390625 14.617188 C 8.296875 14.429688 8.214844 14.269531 8.207031 14.1875 C 8.191406 14.0625 8.1875 13.804688 8.1875 13.675781 Z M 8.1875 13.675781 "/>
<path fill-rule="nonzero" fill="rgb(12.548828%, 47.450256%, 0%)" fill-opacity="1" d="M 8.253906 15.527344 C 8.253906 15.527344 8.378906 15.414062 8.371094 15.234375 C 8.363281 15.054688 8.269531 14.789062 8.183594 14.570312 C 8.097656 14.34375 8.066406 14.003906 8.105469 13.882812 C 8.148438 13.765625 8.199219 13.59375 8.199219 13.59375 C 8.199219 13.59375 7.96875 13.851562 7.945312 14.089844 C 7.917969 14.328125 7.972656 14.699219 8.105469 14.945312 C 8.277344 15.261719 8.253906 15.527344 8.253906 15.527344 Z M 8.253906 15.527344 "/>
<path fill-rule="nonzero" fill="rgb(6.274414%, 21.960449%, 0%)" fill-opacity="1" d="M 8.238281 15.554688 L 8.238281 15.523438 C 8.238281 15.523438 8.261719 15.257812 8.09375 14.949219 C 7.957031 14.691406 7.90625 14.316406 7.933594 14.089844 C 7.957031 13.847656 8.183594 13.597656 8.191406 13.585938 L 8.230469 13.542969 L 8.214844 13.597656 C 8.214844 13.601562 8.164062 13.769531 8.121094 13.890625 C 8.082031 14 8.109375 14.332031 8.195312 14.566406 C 8.28125 14.78125 8.375 15.050781 8.386719 15.234375 C 8.394531 15.417969 8.265625 15.53125 8.261719 15.535156 Z M 8.167969 13.652344 C 8.101562 13.738281 7.976562 13.921875 7.957031 14.09375 C 7.933594 14.316406 7.980469 14.6875 8.117188 14.9375 C 8.253906 15.191406 8.265625 15.410156 8.265625 15.492188 C 8.300781 15.453125 8.367188 15.359375 8.359375 15.238281 C 8.351562 15.058594 8.253906 14.789062 8.171875 14.574219 C 8.089844 14.355469 8.050781 14.007812 8.09375 13.882812 C 8.121094 13.808594 8.152344 13.714844 8.167969 13.652344 Z M 8.167969 13.652344 "/>
</svg>