<svg xmlns="http://www.w3.org/2000/svg" xmlns:xlink="http://www.w3.org/1999/xlink" viewBox="0 0 27 27">
<path fill-rule="nonzero" fill="rgb(12.940979%, 25.881958%, 55.685425%)" fill-opacity="1" d="M 27 20.25 C 27 21.90625 25.65625 23.25 24 23.25 L 3 23.25 C 1.34375 23.25 0 21.90625 0 20.25 L 0 6.75 C 0 5.09375 1.34375 3.75 3 3.75 L 24 3.75 C 25.65625 3.75 27 5.09375 27 6.75 Z M 27 20.25 "/>
<path fill-rule="nonzero" fill="rgb(93.331909%, 93.331909%, 93.331909%)" fill-opacity="1" d="M 12 3.75 L 15 3.75 L 15 23.25 L 12 23.25 Z M 12 3.75 "/>
<path fill-rule="nonzero" fill="rgb(93.331909%, 93.331909%, 93.331909%)" fill-opacity="1" d="M 0 12 L 27 12 L 27 15 L 0 15 Z M 0 12 "/>
<path fill-rule="nonzero" fill="rgb(100%, 100%, 100%)" fill-opacity="1" d="M 8.578125 9.9375 C 8.296875 9.4375 5.8125 9.234375 4.90625 9.6875 C 5.71875 8.984375 8.15625 9.5 8.234375 8.34375 C 8.296875 7.421875 6.5625 7.5 5.890625 7.328125 C 5.21875 7.15625 5.8125 6.96875 6.328125 6.75 C 6.84375 6.53125 7.40625 6.328125 7.28125 5.582031 C 7.15625 4.839844 5.890625 4.890625 5.3125 4.859375 C 4.734375 4.828125 4 5.046875 4.171875 5.40625 C 3.71875 5.59375 3.1875 5.5625 2.875 5.40625 C 2.871094 5.53125 3.070312 5.578125 3.070312 5.578125 L 2.734375 5.65625 C 3.125 5.84375 3.9375 5.75 4.28125 5.578125 C 4.34375 5.65625 4.5625 5.703125 5.40625 5.65625 C 6.25 5.609375 6.34375 5.453125 6.546875 5.640625 C 6.886719 5.953125 6.171875 6.078125 5.265625 6.40625 C 4.359375 6.734375 4.75 7.53125 5.234375 7.78125 C 5.71875 8.03125 6.203125 8.007812 7.015625 8.140625 C 7.828125 8.273438 7.25 8.4375 6.78125 8.46875 C 6.609375 8.480469 5.234375 8.53125 4.5 8.921875 C 3.640625 9.378906 3.8125 9.953125 3.734375 10.046875 C 3.65625 10.140625 2.90625 10.109375 2.328125 9.9375 C 2.53125 10.5 3.5 10.5 3.84375 10.515625 C 4.1875 10.53125 4.5 11.34375 6.578125 11.3125 C 8.65625 11.28125 8.859375 10.4375 8.578125 9.9375 Z M 5.074219 5.226562 C 4.980469 5.320312 4.898438 5.285156 4.992188 5.167969 C 5.085938 5.050781 5.167969 5.132812 5.074219 5.226562 Z M 4.992188 10.21875 C 5.195312 9.984375 7.992188 9.878906 7.839844 10.261719 C 7.644531 10.753906 4.746094 10.5 4.992188 10.21875 Z M 24.203125 9.9375 C 23.921875 9.4375 21.4375 9.234375 20.53125 9.6875 C 21.34375 8.984375 23.78125 9.5 23.859375 8.34375 C 23.921875 7.421875 22.1875 7.5 21.515625 7.328125 C 20.84375 7.15625 21.4375 6.96875 21.953125 6.75 C 22.46875 6.53125 23.03125 6.328125 22.90625 5.582031 C 22.78125 4.839844 21.515625 4.890625 20.9375 4.859375 C 20.359375 4.828125 19.625 5.046875 19.796875 5.40625 C 19.34375 5.59375 18.8125 5.5625 18.5 5.40625 C 18.496094 5.53125 18.695312 5.578125 18.695312 5.578125 L 18.359375 5.65625 C 18.75 5.84375 19.5625 5.75 19.90625 5.578125 C 19.96875 5.65625 20.1875 5.703125 21.03125 5.65625 C 21.875 5.609375 21.96875 5.453125 22.171875 5.640625 C 22.511719 5.953125 21.796875 6.078125 20.890625 6.40625 C 19.984375 6.734375 20.375 7.53125 20.859375 7.78125 C 21.34375 8.03125 21.828125 8.007812 22.640625 8.140625 C 23.453125 8.273438 22.875 8.4375 22.40625 8.46875 C 22.234375 8.480469 20.859375 8.53125 20.125 8.921875 C 19.269531 9.378906 19.4375 9.953125 19.359375 10.046875 C 19.28125 10.140625 18.53125 10.109375 17.953125 9.9375 C 18.15625 10.5 19.125 10.5 19.46875 10.515625 C 19.8125 10.53125 20.125 11.34375 22.203125 11.3125 C 24.28125 11.28125 24.484375 10.4375 24.203125 9.9375 Z M 20.699219 5.226562 C 20.605469 5.320312 20.523438 5.285156 20.617188 5.167969 C 20.710938 5.050781 20.792969 5.132812 20.699219 5.226562 Z M 20.617188 10.21875 C 20.816406 9.984375 23.617188 9.878906 23.464844 10.261719 C 23.269531 10.753906 20.371094 10.5 20.617188 10.21875 Z M 8.578125 20.84375 C 8.296875 20.34375 5.8125 20.140625 4.90625 20.59375 C 5.71875 19.890625 8.15625 20.40625 8.234375 19.25 C 8.296875 18.328125 6.5625 18.40625 5.890625 18.234375 C 5.21875 18.0625 5.8125 17.875 6.328125 17.65625 C 6.84375 17.4375 7.40625 17.234375 7.28125 16.488281 C 7.15625 15.746094 5.890625 15.796875 5.3125 15.765625 C 4.734375 15.734375 4 15.953125 4.171875 16.3125 C 3.71875 16.5 3.1875 16.46875 2.875 16.3125 C 2.871094 16.4375 3.070312 16.484375 3.070312 16.484375 L 2.734375 16.5625 C 3.125 16.75 3.9375 16.65625 4.28125 16.484375 C 4.34375 16.5625 4.5625 16.609375 5.40625 16.5625 C 6.25 16.515625 6.34375 16.359375 6.546875 16.546875 C 6.886719 16.863281 6.171875 16.984375 5.265625 17.3125 C 4.359375 17.640625 4.75 18.4375 5.234375 18.6875 C 5.71875 18.9375 6.203125 18.914062 7.015625 19.046875 C 7.828125 19.179688 7.25 19.34375 6.78125 19.375 C 6.609375 19.386719 5.234375 19.4375 4.5 19.828125 C 3.640625 20.285156 3.8125 20.859375 3.734375 20.953125 C 3.65625 21.046875 2.90625 21.015625 2.328125 20.84375 C 2.53125 21.40625 3.5 21.40625 3.84375 21.421875 C 4.1875 21.4375 4.5 22.25 6.578125 22.21875 C 8.65625 22.1875 8.859375 21.34375 8.578125 20.84375 Z M 5.074219 16.132812 C 4.980469 16.226562 4.898438 16.191406 4.992188 16.074219 C 5.085938 15.957031 5.167969 16.039062 5.074219 16.132812 Z M 4.992188 21.121094 C 5.195312 20.890625 7.992188 20.785156 7.839844 21.167969 C 7.644531 21.660156 4.746094 21.40625 4.992188 21.121094 Z M 24.203125 20.84375 C 23.921875 20.34375 21.4375 20.140625 20.53125 20.59375 C 21.34375 19.890625 23.78125 20.40625 23.859375 19.25 C 23.921875 18.328125 22.1875 18.40625 21.515625 18.234375 C 20.84375 18.0625 21.4375 17.875 21.953125 17.65625 C 22.46875 17.4375 23.03125 17.234375 22.90625 16.488281 C 22.78125 15.746094 21.515625 15.796875 20.9375 15.765625 C 20.359375 15.734375 19.625 15.953125 19.796875 16.3125 C 19.34375 16.5 18.8125 16.46875 18.5 16.3125 C 18.496094 16.4375 18.695312 16.484375 18.695312 16.484375 L 18.359375 16.5625 C 18.75 16.75 19.5625 16.65625 19.90625 16.484375 C 19.96875 16.5625 20.1875 16.609375 21.03125 16.5625 C 21.875 16.515625 21.96875 16.359375 22.171875 16.546875 C 22.511719 16.863281 21.796875 16.984375 20.890625 17.3125 C 19.984375 17.640625 20.375 18.4375 20.859375 18.6875 C 21.34375 18.9375 21.828125 18.914062 22.640625 19.046875 C 23.453125 19.175781 22.875 19.34375 22.40625 19.375 C 22.234375 19.386719 20.859375 19.4375 20.125 19.828125 C 19.269531 20.285156 19.4375 20.859375 19.359375 20.953125 C 19.28125 21.046875 18.53125 21.015625 17.953125 20.84375 C 18.15625 21.40625 19.125 21.40625 19.46875 21.421875 C 19.8125 21.4375 20.125 22.25 22.203125 22.21875 C 24.28125 22.1875 24.484375 21.34375 24.203125 20.84375 Z M 20.699219 16.132812 C 20.605469 16.226562 20.523438 16.191406 20.617188 16.074219 C 20.710938 15.957031 20.792969 16.039062 20.699219 16.132812 Z M 20.617188 21.121094 C 20.816406 20.890625 23.617188 20.785156 23.464844 21.167969 C 23.269531 21.660156 20.371094 21.40625 20.617188 21.121094 Z M 20.617188 21.121094 "/>
</svg>