<svg xmlns="http://www.w3.org/2000/svg" xmlns:xlink="http://www.w3.org/1999/xlink" viewBox="0 0 27 27">
<path fill-rule="nonzero" fill="rgb(0%, 14.117432%, 49.01886%)" fill-opacity="1" d="M 24 3.75 L 3 3.75 C 2.847656 3.75 2.695312 3.761719 2.546875 3.785156 L 2.542969 5.097656 L 0.496094 5.097656 C 0.183594 5.570312 0 6.140625 0 6.75 L 0 20.25 C 0 21.90625 1.34375 23.25 3 23.25 L 24 23.25 C 25.65625 23.25 27 21.90625 27 20.25 L 27 6.75 C 27 5.09375 25.65625 3.75 24 3.75 Z M 24 3.75 "/>
<path fill-rule="nonzero" fill="rgb(33.332825%, 67.449951%, 93.331909%)" fill-opacity="1" d="M 24.722656 9.375 L 17.269531 9.375 L 17.269531 15.011719 L 20.996094 16.511719 L 24.722656 15.011719 Z M 24.722656 9.375 "/>
<path fill-rule="nonzero" fill="rgb(62.35199%, 11.372375%, 13.33313%)" fill-opacity="1" d="M 17.269531 15.011719 C 17.273438 15.074219 17.273438 15.140625 17.277344 15.199219 C 17.386719 16.121094 17.765625 16.800781 18.386719 17.351562 C 19.460938 18.3125 20.996094 18.523438 20.996094 18.75 C 20.996094 18.519531 22.53125 18.3125 23.601562 17.351562 C 24.222656 16.800781 24.605469 16.117188 24.710938 15.199219 C 24.71875 15.140625 24.71875 15.074219 24.722656 15.011719 Z M 17.269531 15.011719 "/>
<path fill-rule="nonzero" fill="rgb(0%, 0%, 0%)" fill-opacity="1" d="M 21.257812 11.066406 L 22.675781 11.066406 L 22.675781 10.59375 L 21.257812 10.59375 L 21.257812 9.960938 L 20.757812 9.960938 L 20.757812 10.59375 L 19.3125 10.59375 L 19.3125 11.066406 L 20.757812 11.066406 L 20.757812 17.03125 L 21.257812 17.03125 Z M 21.257812 11.066406 "/>
<path fill-rule="nonzero" fill="rgb(46.665955%, 69.802856%, 32.548523%)" fill-opacity="1" d="M 21.257812 11.765625 C 21.34375 11.691406 21.386719 11.648438 21.441406 11.65625 C 21.492188 11.664062 21.5625 11.660156 21.617188 11.644531 C 21.667969 11.628906 21.933594 11.59375 22.039062 11.632812 C 22.074219 11.636719 22.125 11.65625 22.199219 11.71875 C 22.277344 11.78125 22.386719 11.890625 22.347656 12.195312 C 22.308594 12.5 22.324219 12.632812 22.308594 12.800781 C 22.28125 13.101562 22.210938 13.351562 22.09375 13.332031 C 22.253906 13.613281 22.269531 13.859375 22.375 14.054688 C 22.480469 14.246094 22.546875 14.648438 22.507812 15.078125 C 22.464844 15.507812 22.351562 16.472656 22.691406 17.125 C 22.636719 17.164062 22.496094 17.125 22.375 16.996094 C 22.253906 16.863281 22.199219 16.867188 22.097656 16.945312 C 21.792969 17.179688 21.503906 17.464844 21.074219 17.179688 C 20.976562 17.113281 20.949219 17.039062 21.019531 16.839844 C 21.199219 16.34375 21.285156 15.664062 21.253906 15.34375 L 21.253906 11.765625 Z M 21.257812 11.765625 "/>
<path fill-rule="nonzero" fill="rgb(98.03772%, 66.665649%, 20.391846%)" fill-opacity="1" d="M 19.515625 15.445312 C 19.777344 15.714844 20.589844 16.574219 20.691406 16.671875 C 20.800781 16.769531 20.847656 16.761719 20.890625 16.664062 C 21.183594 15.957031 21.109375 15.054688 20.382812 14.167969 C 20.261719 14.601562 19.960938 14.886719 19.484375 14.988281 C 19.242188 15.039062 19.199219 15.195312 19.246094 15.253906 C 19.308594 15.140625 19.457031 15.132812 19.527344 15.269531 C 19.582031 15.378906 19.507812 15.515625 19.386719 15.554688 C 19.265625 15.589844 19.085938 15.585938 19.011719 15.460938 C 18.9375 15.332031 18.878906 15.039062 19.214844 14.894531 C 19.554688 14.75 19.914062 14.597656 19.984375 14.296875 C 20.054688 13.996094 20.144531 13.851562 20.347656 13.832031 C 21.472656 14.867188 21.617188 16.023438 21.148438 17.058594 C 21.035156 17.3125 20.855469 17.378906 20.734375 17.222656 C 20.613281 17.070312 19.761719 16.0625 19.320312 15.566406 C 19.421875 15.558594 19.492188 15.503906 19.515625 15.445312 Z M 19.515625 15.445312 "/>
<path fill-rule="nonzero" fill="rgb(96.469116%, 86.665344%, 80.39093%)" fill-opacity="1" d="M 21.550781 11.460938 C 21.570312 11.53125 21.585938 11.621094 21.546875 11.699219 C 21.511719 11.78125 21.503906 11.878906 21.5625 11.996094 C 21.664062 11.859375 21.800781 11.886719 21.878906 11.804688 C 21.960938 11.726562 21.980469 11.648438 22.039062 11.632812 C 21.980469 11.578125 21.886719 11.523438 21.90625 11.367188 C 21.925781 11.214844 22.140625 11.085938 21.945312 10.851562 C 21.820312 10.699219 21.636719 10.742188 21.558594 10.800781 C 21.519531 10.828125 21.488281 10.867188 21.476562 10.894531 C 21.464844 10.921875 21.480469 10.980469 21.449219 11.015625 C 21.429688 11.042969 21.40625 11.066406 21.378906 11.085938 C 21.359375 11.097656 21.347656 11.117188 21.367188 11.140625 C 21.375 11.148438 21.386719 11.152344 21.402344 11.15625 C 21.394531 11.175781 21.386719 11.195312 21.375 11.207031 C 21.367188 11.21875 21.367188 11.230469 21.382812 11.242188 C 21.367188 11.289062 21.394531 11.296875 21.375 11.332031 C 21.359375 11.363281 21.332031 11.402344 21.398438 11.4375 C 21.417969 11.449219 21.503906 11.46875 21.550781 11.460938 Z M 20.757812 12.269531 C 20.648438 12.300781 20.464844 12.25 20.324219 12.265625 C 20.265625 12.273438 20.214844 12.242188 20.222656 12.183594 C 20.230469 12.121094 20.238281 12.027344 20.226562 11.941406 C 20.210938 11.808594 20.273438 11.625 20.363281 11.421875 C 20.453125 11.21875 20.496094 11.105469 20.496094 11.011719 C 20.496094 10.945312 20.503906 10.875 20.558594 10.839844 C 20.601562 10.8125 20.609375 10.785156 20.625 10.765625 C 20.660156 10.714844 20.691406 10.699219 20.695312 10.730469 C 20.699219 10.75 20.691406 10.765625 20.675781 10.789062 C 20.710938 10.761719 20.773438 10.726562 20.789062 10.714844 C 20.804688 10.703125 20.875 10.652344 20.878906 10.703125 C 20.90625 10.6875 20.925781 10.6875 20.933594 10.703125 C 20.941406 10.71875 20.933594 10.726562 20.921875 10.738281 C 20.941406 10.734375 20.964844 10.769531 20.925781 10.800781 C 20.945312 10.792969 20.96875 10.828125 20.929688 10.863281 C 20.890625 10.898438 20.847656 10.921875 20.832031 10.945312 C 20.816406 10.972656 20.722656 11.046875 20.683594 11.0625 C 20.644531 11.078125 20.644531 11.101562 20.644531 11.160156 C 20.644531 11.785156 20.566406 11.734375 20.566406 11.882812 C 20.566406 11.925781 20.558594 11.960938 20.597656 11.949219 C 20.640625 11.9375 20.699219 11.917969 20.761719 11.917969 L 20.761719 12.269531 Z M 20.785156 13.621094 C 20.96875 13.527344 21.179688 13.492188 21.289062 13.464844 C 21.398438 13.4375 21.574219 13.351562 21.65625 13.304688 C 21.742188 13.261719 21.8125 13.199219 21.859375 13.183594 C 21.910156 13.167969 21.964844 13.132812 21.996094 13.074219 C 22.152344 12.765625 22.238281 12.515625 22.238281 12.304688 C 22.238281 12.160156 22.199219 12.003906 22.0625 12.117188 C 21.933594 12.222656 21.792969 12.429688 21.753906 12.578125 C 21.699219 12.808594 21.648438 12.855469 21.636719 12.902344 C 21.625 12.945312 21.578125 12.945312 21.523438 12.957031 C 21.285156 13.011719 21.226562 13.046875 21.046875 13.179688 C 20.871094 13.316406 20.675781 13.433594 20.542969 13.503906 C 20.414062 13.578125 20.390625 13.585938 20.363281 13.644531 C 20.332031 13.703125 20.308594 13.75 20.28125 13.777344 C 20.257812 13.800781 20.25 13.832031 20.257812 13.867188 C 20.261719 13.890625 20.25 14.011719 20.246094 14.054688 C 20.246094 14.09375 20.253906 14.105469 20.269531 14.105469 C 20.285156 14.109375 20.308594 14.101562 20.316406 14.050781 C 20.308594 14.101562 20.375 14.085938 20.378906 14.046875 C 20.378906 14.101562 20.449219 14.070312 20.453125 14.019531 C 20.453125 14.054688 20.507812 14.03125 20.511719 14.015625 C 20.523438 13.972656 20.535156 13.929688 20.550781 13.898438 C 20.574219 13.851562 20.601562 13.789062 20.648438 13.753906 C 20.699219 13.714844 20.675781 13.675781 20.785156 13.621094 Z M 22.101562 16.945312 C 22.113281 16.992188 22.132812 17.042969 22.144531 17.070312 C 22.152344 17.101562 22.136719 17.113281 22.128906 17.128906 C 22.085938 17.21875 22.039062 17.359375 22.035156 17.4375 C 22.027344 17.484375 22 17.527344 21.984375 17.550781 C 21.96875 17.578125 21.972656 17.601562 22.011719 17.632812 C 22.027344 17.644531 22.085938 17.625 22.089844 17.597656 C 22.109375 17.617188 22.148438 17.609375 22.164062 17.578125 C 22.179688 17.597656 22.210938 17.585938 22.230469 17.554688 C 22.25 17.566406 22.277344 17.542969 22.289062 17.527344 C 22.316406 17.542969 22.347656 17.523438 22.347656 17.46875 C 22.347656 17.457031 22.355469 17.4375 22.363281 17.425781 C 22.371094 17.410156 22.375 17.386719 22.371094 17.363281 C 22.371094 17.339844 22.386719 17.296875 22.40625 17.265625 C 22.425781 17.234375 22.457031 17.179688 22.441406 17.125 C 22.429688 17.074219 22.410156 17.078125 22.390625 17.007812 C 22.347656 16.960938 22.285156 16.898438 22.222656 16.894531 C 22.160156 16.890625 22.121094 16.929688 22.101562 16.945312 Z M 20.945312 17.296875 C 21 17.351562 21.128906 17.355469 21.21875 17.257812 C 21.1875 17.242188 21.113281 17.210938 21.082031 17.183594 C 21.039062 17.230469 20.988281 17.28125 20.945312 17.296875 Z M 20.945312 17.296875 "/>
<path fill-rule="nonzero" fill="rgb(58.430481%, 36.077881%, 5.882263%)" fill-opacity="1" d="M 21.519531 10.835938 C 21.542969 10.691406 21.644531 10.695312 21.707031 10.710938 C 21.734375 10.714844 21.800781 10.722656 21.859375 10.707031 C 21.980469 10.675781 22.070312 10.714844 22.058594 10.832031 C 22.09375 10.855469 22.125 10.914062 22.121094 10.960938 C 22.117188 11.011719 22.125 11.03125 22.167969 11.039062 C 22.214844 11.042969 22.308594 11.097656 22.246094 11.175781 C 22.308594 11.210938 22.355469 11.304688 22.320312 11.367188 C 22.289062 11.429688 22.191406 11.441406 22.152344 11.382812 C 22.105469 11.40625 22.035156 11.410156 21.988281 11.363281 C 21.957031 11.398438 21.878906 11.394531 21.867188 11.363281 C 21.851562 11.328125 21.828125 11.3125 21.800781 11.300781 C 21.765625 11.292969 21.765625 11.203125 21.8125 11.191406 C 21.804688 11.167969 21.808594 11.136719 21.820312 11.121094 C 21.832031 11.109375 21.824219 11.082031 21.796875 11.058594 C 21.765625 11.035156 21.742188 10.953125 21.769531 10.90625 C 21.722656 10.921875 21.613281 10.875 21.589844 10.84375 C 21.570312 10.808594 21.539062 10.808594 21.519531 10.835938 Z M 21.519531 10.835938 "/>
<path fill-rule="nonzero" fill="rgb(0%, 0%, 0%)" fill-opacity="1" d="M 22.226562 11.429688 C 22.195312 11.429688 22.167969 11.414062 22.152344 11.390625 C 22.101562 11.410156 22.035156 11.414062 21.988281 11.371094 C 21.972656 11.386719 21.945312 11.394531 21.921875 11.394531 L 21.910156 11.394531 C 21.886719 11.390625 21.867188 11.378906 21.859375 11.363281 C 21.847656 11.335938 21.828125 11.316406 21.796875 11.308594 C 21.777344 11.300781 21.769531 11.273438 21.769531 11.25 C 21.773438 11.226562 21.78125 11.199219 21.808594 11.191406 C 21.800781 11.164062 21.804688 11.132812 21.820312 11.121094 C 21.828125 11.109375 21.820312 11.085938 21.792969 11.066406 C 21.765625 11.042969 21.742188 10.964844 21.761719 10.914062 L 21.746094 10.914062 C 21.691406 10.914062 21.609375 10.875 21.589844 10.847656 C 21.578125 10.832031 21.566406 10.824219 21.554688 10.824219 C 21.542969 10.824219 21.535156 10.828125 21.523438 10.839844 L 21.515625 10.835938 C 21.523438 10.78125 21.542969 10.742188 21.574219 10.71875 C 21.609375 10.695312 21.652344 10.691406 21.710938 10.707031 C 21.738281 10.710938 21.800781 10.714844 21.859375 10.699219 C 21.929688 10.683594 21.992188 10.6875 22.03125 10.71875 C 22.058594 10.746094 22.070312 10.78125 22.066406 10.828125 C 22.101562 10.855469 22.132812 10.914062 22.128906 10.960938 C 22.121094 11.011719 22.132812 11.027344 22.171875 11.03125 C 22.203125 11.035156 22.253906 11.0625 22.269531 11.101562 C 22.277344 11.117188 22.277344 11.144531 22.253906 11.171875 C 22.316406 11.214844 22.359375 11.304688 22.328125 11.371094 C 22.3125 11.402344 22.277344 11.425781 22.238281 11.425781 Z M 22.152344 11.378906 L 22.15625 11.382812 C 22.171875 11.40625 22.203125 11.417969 22.234375 11.414062 C 22.269531 11.414062 22.300781 11.394531 22.316406 11.367188 C 22.347656 11.304688 22.300781 11.214844 22.242188 11.179688 L 22.238281 11.175781 L 22.242188 11.171875 C 22.261719 11.148438 22.265625 11.125 22.257812 11.105469 C 22.242188 11.070312 22.195312 11.046875 22.167969 11.042969 C 22.117188 11.035156 22.109375 11.007812 22.113281 10.960938 C 22.121094 10.917969 22.089844 10.859375 22.054688 10.835938 L 22.054688 10.832031 C 22.058594 10.789062 22.046875 10.753906 22.019531 10.730469 C 21.988281 10.699219 21.929688 10.695312 21.859375 10.710938 C 21.800781 10.730469 21.734375 10.722656 21.707031 10.714844 C 21.652344 10.703125 21.609375 10.707031 21.582031 10.730469 C 21.554688 10.746094 21.535156 10.777344 21.527344 10.820312 C 21.535156 10.816406 21.542969 10.8125 21.550781 10.8125 L 21.554688 10.8125 C 21.570312 10.8125 21.585938 10.824219 21.59375 10.839844 C 21.613281 10.867188 21.695312 10.902344 21.746094 10.902344 C 21.753906 10.902344 21.761719 10.902344 21.769531 10.902344 L 21.78125 10.898438 L 21.773438 10.910156 C 21.75 10.953125 21.769531 11.035156 21.796875 11.058594 C 21.8125 11.070312 21.824219 11.082031 21.828125 11.09375 C 21.832031 11.109375 21.832031 11.121094 21.824219 11.128906 C 21.816406 11.140625 21.8125 11.167969 21.816406 11.195312 L 21.820312 11.199219 L 21.816406 11.199219 C 21.792969 11.203125 21.78125 11.230469 21.78125 11.25 C 21.777344 11.273438 21.789062 11.296875 21.800781 11.300781 C 21.835938 11.308594 21.855469 11.332031 21.871094 11.363281 C 21.875 11.371094 21.886719 11.378906 21.910156 11.382812 C 21.929688 11.386719 21.964844 11.382812 21.984375 11.359375 L 21.988281 11.355469 L 21.992188 11.359375 C 22.035156 11.402344 22.101562 11.402344 22.148438 11.382812 Z M 21.550781 11.46875 L 21.550781 11.457031 C 21.585938 11.449219 21.613281 11.4375 21.636719 11.425781 C 21.65625 11.410156 21.679688 11.402344 21.707031 11.402344 L 21.714844 11.402344 L 21.714844 11.410156 C 21.683594 11.410156 21.664062 11.421875 21.640625 11.433594 C 21.617188 11.449219 21.589844 11.460938 21.550781 11.46875 Z M 21.4375 12.980469 L 21.429688 12.972656 C 21.558594 12.855469 21.511719 12.601562 21.476562 12.417969 L 21.476562 12.40625 C 21.449219 12.246094 21.476562 12.105469 21.558594 11.996094 L 21.566406 12 C 21.488281 12.109375 21.460938 12.246094 21.488281 12.402344 L 21.488281 12.414062 C 21.523438 12.601562 21.570312 12.859375 21.4375 12.980469 Z M 21.640625 13.414062 C 21.59375 13.414062 21.550781 13.402344 21.515625 13.382812 L 21.519531 13.375 C 21.601562 13.414062 21.722656 13.40625 21.789062 13.359375 C 21.863281 13.304688 21.992188 13.304688 22.09375 13.324219 L 22.089844 13.335938 C 22 13.316406 21.867188 13.316406 21.796875 13.367188 C 21.753906 13.398438 21.699219 13.414062 21.640625 13.414062 Z M 21.640625 13.414062 "/>
<path fill-rule="nonzero" fill="rgb(0%, 14.117432%, 49.01886%)" fill-opacity="1" d="M 14.25 13.5 L 14.25 3.75 L 3 3.75 C 2.761719 3.75 2.546875 3.785156 2.546875 3.785156 L 2.542969 5.097656 L 0.496094 5.097656 C 0.496094 5.097656 0.464844 5.140625 0.402344 5.25 C 0.144531 5.691406 0 6.203125 0 6.75 L 0 13.5 Z M 14.25 13.5 "/>
<path fill-rule="nonzero" fill="rgb(93.331909%, 93.331909%, 93.331909%)" fill-opacity="1" d="M 14.25 3.75 L 12.5 3.75 L 9 6.203125 L 9 3.75 L 5.25 3.75 L 5.25 5.675781 L 2.546875 3.785156 C 2.085938 3.855469 1.65625 4.027344 1.292969 4.28125 L 4.820312 6.75 L 3.515625 6.75 L 0.726562 4.792969 C 0.644531 4.890625 0.566406 4.988281 0.496094 5.097656 L 2.859375 6.75 L 0 6.75 L 0 10.5 L 2.914062 10.5 L 0 12.574219 L 0 13.5 L 2.5 13.5 L 5.25 11.574219 L 5.25 13.5 L 9 13.5 L 9 11.046875 L 12.5 13.5 L 14.25 13.5 L 14.25 11.976562 L 12.140625 10.5 L 14.25 10.5 L 14.25 6.75 L 12.140625 6.75 L 14.25 5.273438 Z M 14.25 3.75 "/>
<path fill-rule="nonzero" fill="rgb(81.175232%, 10.588074%, 16.862488%)" fill-opacity="1" d="M 8.25 3.75 L 6 3.75 L 6 7.5 L 0 7.5 L 0 9.75 L 6 9.75 L 6 13.5 L 8.25 13.5 L 8.25 9.75 L 14.25 9.75 L 14.25 7.5 L 8.25 7.5 Z M 8.25 3.75 "/>
<path fill-rule="nonzero" fill="rgb(81.175232%, 10.588074%, 16.862488%)" fill-opacity="1" d="M 14.25 3.75 L 13.152344 3.75 L 9 6.660156 L 9 6.75 L 10.179688 6.75 L 14.25 3.898438 Z M 1.292969 4.28125 C 1.082031 4.429688 0.890625 4.601562 0.726562 4.792969 L 3.515625 6.75 L 4.820312 6.75 Z M 4.828125 10.5 L 0.550781 13.5 L 1.847656 13.5 L 5.25 11.117188 L 5.25 10.5 Z M 14.25 13.351562 L 14.25 12.4375 L 11.484375 10.5 L 10.175781 10.5 Z M 14.25 13.351562 "/>
</svg>