<svg xmlns="http://www.w3.org/2000/svg" xmlns:xlink="http://www.w3.org/1999/xlink" viewBox="0 0 27 27">
<path fill-rule="nonzero" fill="rgb(0%, 58.430481%, 26.274109%)" fill-opacity="1" d="M 27 20.25 C 27 21.90625 25.65625 23.25 24 23.25 L 3 23.25 C 1.34375 23.25 0 21.90625 0 20.25 L 0 6.75 C 0 5.09375 1.34375 3.75 3 3.75 L 24 3.75 C 25.65625 3.75 27 5.09375 27 6.75 Z M 27 20.25 "/>
<path fill-rule="nonzero" fill="rgb(92.939758%, 25.489807%, 20.783997%)" fill-opacity="1" d="M 0 9.75 L 27 9.75 L 27 17.25 L 0 17.25 Z M 0 9.75 "/>
<path fill-rule="nonzero" fill="rgb(0%, 20.783997%, 67.842102%)" fill-opacity="1" d="M 24 3.75 L 3 3.75 C 1.34375 3.75 0 5.09375 0 6.75 L 0 9.75 L 27 9.75 L 27 6.75 C 27 5.09375 25.65625 3.75 24 3.75 Z M 24 3.75 "/>
<path fill-rule="nonzero" fill="rgb(7.843018%, 7.843018%, 7.843018%)" fill-opacity="1" d="M 11.371094 6.636719 C 15.160156 7.535156 17.507812 11.332031 16.613281 15.121094 C 15.71875 18.910156 11.917969 21.257812 8.128906 20.363281 C 4.339844 19.46875 1.992188 15.671875 2.886719 11.878906 C 3.78125 8.089844 7.582031 5.742188 11.371094 6.636719 Z M 11.371094 6.636719 "/>
<path fill-rule="nonzero" fill="rgb(98.03772%, 90.194702%, 0%)" fill-opacity="1" d="M 16.5 13.5 C 16.5 17.226562 13.476562 20.25 9.75 20.25 C 6.023438 20.25 3 17.226562 3 13.5 C 3 9.773438 6.023438 6.75 9.75 6.75 C 13.476562 6.75 16.5 9.773438 16.5 13.5 Z M 16.5 13.5 "/>
<path fill-rule="nonzero" fill="rgb(7.843018%, 7.843018%, 7.843018%)" fill-opacity="1" d="M 9.652344 6.757812 L 9.894531 6.757812 L 9.894531 20.242188 L 9.652344 20.242188 Z M 9.652344 6.757812 "/>
<path fill-rule="nonzero" fill="rgb(7.843018%, 7.843018%, 7.843018%)" fill-opacity="1" d="M 10.6875 11.039062 C 10.6875 11.542969 10.277344 11.953125 9.773438 11.953125 C 9.269531 11.953125 8.859375 11.542969 8.859375 11.039062 C 8.859375 10.535156 9.269531 10.125 9.773438 10.125 C 10.277344 10.125 10.6875 10.535156 10.6875 11.039062 Z M 10.523438 16.699219 C 10.523438 17.289062 10.1875 17.765625 9.773438 17.765625 C 9.359375 17.765625 9.023438 17.289062 9.023438 16.699219 C 9.023438 16.109375 9.359375 15.632812 9.773438 15.632812 C 10.1875 15.632812 10.523438 16.109375 10.523438 16.699219 Z M 10.6875 13.710938 C 10.6875 14.015625 10.277344 14.261719 9.773438 14.261719 C 9.269531 14.261719 8.859375 14.015625 8.859375 13.710938 C 8.859375 13.40625 9.269531 13.160156 9.773438 13.160156 C 10.277344 13.160156 10.6875 13.40625 10.6875 13.710938 Z M 8.765625 9.75 C 8.765625 9.75 8.671875 9.09375 8.859375 8.8125 C 9.046875 8.53125 9.539062 8.273438 9.9375 8.179688 C 10.335938 8.085938 10.875 7.5 10.875 7.5 C 10.875 7.5 10.804688 8.367188 10.148438 8.90625 C 9.492188 9.445312 8.765625 9.75 8.765625 9.75 Z M 8.191406 11.082031 C 8.191406 11.082031 8.554688 11.316406 8.648438 11.667969 C 8.742188 12.019531 9 12.394531 9.75 12.394531 L 9.75 12.816406 C 9.75 12.816406 9.117188 12.863281 8.765625 12.722656 C 8.414062 12.582031 8.320312 11.925781 8.320312 11.691406 C 8.320312 11.457031 8.191406 11.082031 8.191406 11.082031 Z M 11.332031 11.082031 C 11.332031 11.082031 10.96875 11.316406 10.875 11.667969 C 10.78125 12.019531 10.523438 12.394531 9.773438 12.394531 L 9.773438 12.816406 C 9.773438 12.816406 10.40625 12.863281 10.757812 12.722656 C 11.109375 12.582031 11.203125 11.925781 11.203125 11.691406 C 11.203125 11.457031 11.332031 11.082031 11.332031 11.082031 Z M 11.332031 11.082031 "/>
<path fill-rule="nonzero" fill="rgb(7.843018%, 7.843018%, 7.843018%)" fill-opacity="1" d="M 11.203125 15.890625 C 11.203125 15.65625 11.097656 15 10.746094 14.859375 C 10.394531 14.71875 9.75 14.664062 9.75 14.664062 C 9.75 14.664062 9.117188 14.71875 8.765625 14.859375 C 8.414062 15 8.320312 15.65625 8.320312 15.890625 C 8.320312 16.125 8.191406 17.25 8.191406 17.25 C 8.191406 17.25 8.683594 16.425781 8.777344 16.074219 C 8.871094 15.722656 9.257812 15.285156 9.75 15.285156 C 10.253906 15.285156 10.652344 15.707031 10.746094 16.058594 C 10.839844 16.410156 11.328125 17.25 11.328125 17.25 C 11.328125 17.25 11.203125 16.125 11.203125 15.890625 Z M 9.75 18 L 9.75 20.25 C 9.75 20.25 9.09375 20.320312 8.15625 20.074219 C 7.21875 19.828125 7.042969 19.734375 7.042969 19.734375 C 7.042969 19.734375 7.996094 18.78125 8.414062 18.421875 C 8.90625 18 9.75 18 9.75 18 Z M 9.75 18 L 9.75 20.25 C 9.75 20.25 10.40625 20.320312 11.34375 20.074219 C 12.28125 19.828125 12.457031 19.734375 12.457031 19.734375 C 12.457031 19.734375 11.503906 18.78125 11.085938 18.421875 C 10.59375 18 9.75 18 9.75 18 Z M 9.75 18 "/>
</svg>