<svg xmlns="http://www.w3.org/2000/svg" xmlns:xlink="http://www.w3.org/1999/xlink" viewBox="0 0 27 27">
<path fill-rule="nonzero" fill="rgb(0%, 47.450256%, 20.391846%)" fill-opacity="1" d="M 3 3.75 C 1.34375 3.75 0 5.09375 0 6.75 L 0 20.25 C 0 21.90625 1.34375 23.25 3 23.25 L 9 23.25 L 9 3.75 Z M 24 3.75 L 18 3.75 L 18 23.25 L 24 23.25 C 25.65625 23.25 27 21.90625 27 20.25 L 27 6.75 C 27 5.09375 25.65625 3.75 24 3.75 Z M 24 3.75 "/>
<path fill-rule="nonzero" fill="rgb(93.331909%, 93.331909%, 93.331909%)" fill-opacity="1" d="M 9 3.75 L 18 3.75 L 18 23.25 L 9 23.25 Z M 9 3.75 "/>
<path fill-rule="nonzero" fill="rgb(0%, 47.450256%, 20.391846%)" fill-opacity="1" d="M 15.011719 16.242188 C 15.40625 16.210938 16.019531 16.382812 16.472656 16.339844 C 16.921875 16.300781 16.851562 16.269531 16.703125 16.152344 C 16.554688 16.035156 16.425781 16.121094 16.347656 16.195312 C 16.269531 16.273438 16.140625 16.269531 16.199219 16.191406 C 16.261719 16.113281 16.207031 16.078125 16.058594 16.089844 C 15.910156 16.097656 15.800781 16.152344 15.703125 16.175781 C 15.605469 16.203125 15.5 16.132812 15.574219 16.097656 C 15.652344 16.0625 15.640625 16.03125 15.578125 16.027344 C 15.519531 16.023438 15.515625 15.980469 15.683594 15.953125 C 15.851562 15.929688 15.96875 15.976562 16.066406 16.011719 C 16.164062 16.046875 16.277344 16.015625 16.351562 15.964844 C 16.421875 15.914062 16.460938 15.859375 16.546875 15.863281 C 16.636719 15.867188 16.6875 15.820312 16.574219 15.746094 C 16.464844 15.667969 16.300781 15.664062 16.199219 15.710938 C 16.101562 15.757812 16.058594 15.726562 16.019531 15.679688 C 15.984375 15.632812 15.847656 15.636719 15.710938 15.699219 C 15.570312 15.761719 15.476562 15.839844 15.398438 15.730469 C 15.355469 15.671875 15.074219 15.742188 14.898438 15.792969 C 14.726562 15.84375 14.695312 15.792969 14.835938 15.722656 C 15.027344 15.636719 15.144531 15.699219 15.425781 15.589844 C 15.617188 15.519531 15.886719 15.636719 16.335938 15.382812 C 16.441406 15.320312 16.542969 15.257812 16.246094 15.246094 C 16.097656 15.242188 16.027344 15.257812 15.976562 15.324219 C 15.925781 15.390625 15.863281 15.375 15.867188 15.324219 C 15.875 15.273438 15.734375 15.238281 15.617188 15.3125 C 15.5 15.390625 15.414062 15.457031 15.355469 15.472656 C 15.300781 15.488281 15.285156 15.476562 15.300781 15.433594 C 15.3125 15.386719 15.269531 15.394531 15.21875 15.425781 C 15.167969 15.460938 15.082031 15.503906 15.027344 15.5 C 14.96875 15.496094 14.90625 15.449219 15.066406 15.367188 C 15.226562 15.285156 15.375 15.183594 15.617188 15.199219 C 15.933594 15.226562 16.003906 15.09375 16.160156 15.101562 C 16.3125 15.105469 16.394531 14.988281 16.1875 14.984375 C 15.980469 14.984375 15.921875 15.03125 15.875 15.0625 C 15.828125 15.097656 15.734375 15.121094 15.75 15.050781 C 15.765625 14.980469 15.730469 14.980469 15.65625 15.015625 C 15.582031 15.046875 15.398438 15.070312 15.3125 15.042969 C 15.226562 15.019531 15.140625 14.972656 15.351562 14.964844 C 15.558594 14.953125 15.703125 14.855469 15.878906 14.898438 C 16.039062 14.941406 16.121094 14.859375 16.179688 14.867188 C 16.238281 14.875 16.3125 14.820312 16.207031 14.738281 C 16.101562 14.652344 15.835938 14.648438 15.746094 14.664062 C 15.652344 14.679688 15.605469 14.664062 15.621094 14.628906 C 15.640625 14.589844 15.613281 14.578125 15.535156 14.578125 C 15.457031 14.582031 15.234375 14.632812 15.140625 14.671875 C 15.019531 14.726562 14.925781 14.644531 15.027344 14.578125 C 15.09375 14.535156 15.269531 14.480469 15.367188 14.496094 C 15.464844 14.507812 15.507812 14.519531 15.476562 14.449219 C 15.464844 14.421875 15.460938 14.382812 15.566406 14.40625 C 15.671875 14.433594 15.882812 14.4375 16 14.371094 C 16.117188 14.304688 16.03125 14.226562 15.84375 14.230469 C 15.652344 14.238281 15.242188 14.292969 15.078125 14.402344 C 14.914062 14.507812 14.890625 14.394531 14.957031 14.355469 C 15.027344 14.320312 15.035156 14.296875 15 14.273438 C 14.964844 14.25 14.964844 14.230469 15.066406 14.195312 C 15.253906 14.125 15.453125 14.144531 15.6875 14.039062 C 15.863281 13.957031 16.046875 13.863281 16.105469 13.726562 C 16.160156 13.585938 16.074219 13.632812 15.96875 13.675781 C 15.867188 13.714844 15.804688 13.746094 15.804688 13.816406 C 15.804688 13.890625 15.71875 13.890625 15.726562 13.800781 C 15.730469 13.714844 15.679688 13.675781 15.539062 13.730469 C 15.402344 13.789062 15.054688 13.914062 14.929688 13.902344 C 14.808594 13.886719 14.757812 13.808594 14.882812 13.804688 C 15.011719 13.796875 15.1875 13.746094 15.289062 13.710938 C 15.390625 13.675781 15.453125 13.617188 15.375 13.578125 C 15.300781 13.535156 15.355469 13.484375 15.441406 13.484375 C 15.53125 13.484375 15.632812 13.40625 15.746094 13.421875 C 15.855469 13.4375 15.984375 13.402344 15.835938 13.316406 C 15.777344 13.28125 15.71875 13.234375 15.796875 13.191406 C 15.871094 13.152344 15.828125 13.039062 15.710938 13.023438 C 15.589844 13.007812 15.484375 13.035156 15.421875 13.054688 C 15.359375 13.074219 15.308594 13.070312 15.292969 13.019531 C 15.277344 12.964844 15.078125 12.972656 14.996094 12.992188 C 14.914062 13.011719 14.757812 13.003906 14.875 12.945312 C 14.992188 12.890625 15.242188 12.855469 15.367188 12.855469 C 15.488281 12.855469 15.617188 12.824219 15.683594 12.796875 C 15.75 12.773438 15.765625 12.640625 15.617188 12.640625 C 15.46875 12.640625 15.273438 12.648438 15.308594 12.59375 C 15.347656 12.535156 15.214844 12.5 15.074219 12.53125 C 14.929688 12.5625 14.734375 12.59375 14.847656 12.515625 C 14.960938 12.4375 15.191406 12.355469 15.300781 12.363281 C 15.40625 12.367188 15.484375 12.347656 15.414062 12.257812 C 15.339844 12.171875 15.386719 12.140625 15.460938 12.132812 C 15.53125 12.121094 15.546875 12.035156 15.441406 12.011719 C 15.339844 11.992188 15.078125 11.933594 14.953125 12.003906 C 14.777344 12.101562 14.644531 12.097656 14.699219 12.039062 C 14.757812 11.984375 14.71875 11.984375 14.628906 12.007812 C 14.425781 12.066406 13.980469 12.191406 13.859375 12.183594 C 13.796875 12.179688 13.726562 12.191406 13.726562 12.117188 C 13.730469 12.046875 13.777344 12.042969 13.957031 12.011719 C 14.316406 11.957031 14.710938 11.84375 14.878906 11.863281 C 15.046875 11.886719 15.121094 11.859375 15.074219 11.789062 C 15.027344 11.714844 14.894531 11.773438 14.953125 11.679688 C 15.007812 11.589844 14.90625 11.597656 14.828125 11.59375 C 14.75 11.589844 14.671875 11.558594 14.628906 11.515625 C 14.566406 11.457031 14.351562 11.492188 14.246094 11.53125 C 14.136719 11.574219 13.902344 11.628906 13.808594 11.621094 C 13.695312 11.617188 13.691406 11.617188 13.683594 11.53125 C 13.683594 11.492188 13.695312 11.472656 13.746094 11.453125 C 13.863281 11.40625 14.34375 11.390625 14.492188 11.417969 C 14.78125 11.472656 14.792969 11.367188 14.734375 11.3125 C 14.652344 11.242188 14.402344 11.273438 14.242188 11.300781 C 14.082031 11.332031 13.914062 11.359375 13.871094 11.320312 C 13.828125 11.285156 13.875 11.25 13.984375 11.226562 C 14.117188 11.203125 14.429688 11.21875 14.480469 11.195312 C 14.527344 11.171875 14.578125 11.101562 14.46875 11.074219 C 14.363281 11.042969 14.109375 11.074219 13.992188 11.113281 C 13.871094 11.15625 13.742188 11.144531 13.714844 11.101562 C 13.683594 11.058594 13.695312 10.957031 13.894531 10.972656 C 14.089844 10.988281 14.453125 10.984375 14.515625 10.972656 C 14.582031 10.964844 14.589844 10.917969 14.554688 10.875 C 14.523438 10.832031 14.480469 10.785156 14.519531 10.75 C 14.558594 10.71875 14.542969 10.691406 14.523438 10.660156 C 14.5 10.632812 14.523438 10.609375 14.542969 10.59375 C 14.5625 10.574219 14.589844 10.53125 14.515625 10.542969 C 14.390625 10.566406 14.195312 10.503906 14.097656 10.542969 C 13.996094 10.582031 13.769531 10.605469 13.695312 10.597656 C 13.664062 10.589844 13.644531 10.523438 13.707031 10.515625 C 13.8125 10.503906 14.027344 10.472656 14.105469 10.433594 C 14.183594 10.390625 14.265625 10.359375 14.367188 10.363281 C 14.464844 10.363281 14.53125 10.328125 14.433594 10.28125 C 14.335938 10.234375 14.179688 10.246094 14.085938 10.292969 C 13.992188 10.335938 13.828125 10.417969 13.738281 10.40625 C 13.648438 10.394531 13.640625 10.339844 13.671875 10.230469 C 13.691406 10.171875 13.808594 10.167969 13.890625 10.179688 C 13.972656 10.195312 14.214844 10.136719 14.304688 10.15625 C 14.398438 10.175781 14.480469 10.140625 14.378906 10.0625 C 14.277344 9.984375 14.183594 10.011719 14.082031 10.054688 C 13.980469 10.09375 13.753906 10.152344 13.691406 10.09375 C 13.632812 10.039062 13.617188 9.894531 13.730469 9.945312 C 13.855469 10.003906 14.167969 9.898438 14.253906 9.945312 C 14.335938 9.988281 14.382812 9.90625 14.296875 9.867188 C 14.21875 9.828125 13.976562 9.863281 13.894531 9.882812 C 13.757812 9.914062 13.699219 9.925781 13.699219 9.84375 C 13.699219 9.789062 13.859375 9.796875 13.902344 9.8125 C 14.015625 9.839844 14.183594 9.703125 14.285156 9.726562 C 14.386719 9.753906 14.371094 9.695312 14.316406 9.65625 C 14.261719 9.613281 14.058594 9.632812 13.988281 9.679688 C 13.917969 9.726562 13.792969 9.753906 13.746094 9.753906 C 13.699219 9.75 13.679688 9.738281 13.679688 9.65625 C 13.679688 9.574219 13.726562 9.550781 13.785156 9.519531 C 13.886719 9.46875 13.902344 9.394531 13.828125 9.414062 C 13.707031 9.441406 13.667969 9.480469 13.667969 9.320312 C 13.667969 9.25 13.679688 9.183594 13.773438 9.164062 C 13.867188 9.144531 13.886719 9.082031 13.855469 9.066406 C 13.824219 9.050781 13.785156 9.089844 13.738281 9.105469 C 13.691406 9.125 13.660156 9.144531 13.65625 9.015625 C 13.65625 8.941406 13.699219 8.917969 13.742188 8.914062 C 13.785156 8.914062 13.828125 8.882812 13.847656 8.855469 C 13.871094 8.824219 13.847656 8.785156 13.78125 8.816406 C 13.714844 8.84375 13.652344 8.851562 13.652344 8.777344 C 13.648438 8.609375 13.628906 8.230469 13.625 8.140625 C 13.617188 8.050781 13.554688 8.027344 13.554688 8.128906 C 13.554688 8.230469 13.546875 8.601562 13.535156 8.773438 C 13.527344 8.835938 13.492188 8.839844 13.441406 8.808594 C 13.390625 8.78125 13.242188 8.800781 13.34375 8.847656 C 13.445312 8.890625 13.511719 8.90625 13.519531 8.988281 C 13.523438 9.070312 13.476562 9.082031 13.390625 9.039062 C 13.304688 9 13.191406 9.015625 13.351562 9.113281 C 13.507812 9.210938 13.519531 9.214844 13.511719 9.316406 C 13.507812 9.421875 13.457031 9.410156 13.355469 9.363281 C 13.230469 9.308594 13.128906 9.351562 13.273438 9.421875 C 13.417969 9.488281 13.515625 9.574219 13.507812 9.664062 C 13.5 9.757812 13.433594 9.800781 13.324219 9.667969 C 13.21875 9.535156 13.042969 9.46875 12.914062 9.484375 C 12.789062 9.5 12.855469 9.5625 13.003906 9.617188 C 13.152344 9.675781 13.390625 9.789062 13.449219 9.851562 C 13.503906 9.910156 13.472656 9.960938 13.339844 9.90625 C 13.207031 9.851562 12.910156 9.738281 12.8125 9.773438 C 12.714844 9.808594 12.675781 9.863281 12.839844 9.871094 C 13.003906 9.875 13.289062 9.921875 13.40625 9.96875 C 13.558594 10.023438 13.578125 10.140625 13.433594 10.101562 C 13.289062 10.058594 12.890625 9.976562 12.773438 10.050781 C 12.65625 10.121094 12.617188 10.191406 12.820312 10.160156 C 13.019531 10.132812 13.269531 10.128906 13.382812 10.175781 C 13.445312 10.203125 13.496094 10.207031 13.492188 10.296875 C 13.484375 10.382812 13.417969 10.382812 13.296875 10.332031 C 13.171875 10.28125 12.804688 10.183594 12.691406 10.273438 C 12.578125 10.367188 12.605469 10.382812 12.761719 10.355469 C 12.921875 10.332031 13.164062 10.355469 13.28125 10.378906 C 13.519531 10.421875 13.5 10.464844 13.347656 10.464844 C 13.195312 10.464844 12.738281 10.484375 12.628906 10.445312 C 12.523438 10.402344 12.363281 10.378906 12.300781 10.402344 C 12.242188 10.429688 12.292969 10.453125 12.34375 10.453125 C 12.394531 10.453125 12.4375 10.496094 12.398438 10.53125 C 12.363281 10.566406 12.34375 10.632812 12.488281 10.605469 C 12.628906 10.582031 12.835938 10.582031 12.941406 10.621094 C 13.050781 10.664062 13.214844 10.710938 13.347656 10.726562 C 13.492188 10.742188 13.496094 10.746094 13.492188 10.851562 C 13.488281 10.933594 13.320312 10.882812 13.164062 10.78125 C 13.003906 10.679688 12.695312 10.621094 12.554688 10.71875 C 12.410156 10.816406 12.492188 10.835938 12.625 10.8125 C 12.757812 10.785156 13.128906 10.851562 13.265625 10.898438 C 13.402344 10.945312 13.488281 10.914062 13.480469 11.042969 C 13.476562 11.117188 13.398438 11.078125 13.28125 11.03125 C 12.921875 10.886719 12.488281 10.875 12.347656 10.894531 C 12.246094 10.90625 12.234375 10.914062 12.265625 10.945312 C 12.289062 10.964844 12.273438 11.003906 12.210938 11.019531 C 12.148438 11.035156 12.070312 11.058594 12.03125 11.089844 C 11.992188 11.121094 11.996094 11.152344 12.105469 11.140625 C 12.21875 11.132812 12.328125 11.148438 12.261719 11.191406 C 12.199219 11.234375 12.117188 11.292969 12.246094 11.304688 C 12.574219 11.335938 13.050781 11.539062 13.214844 11.632812 C 13.378906 11.722656 13.421875 11.730469 13.417969 11.816406 C 13.417969 11.898438 13.328125 11.886719 13.230469 11.835938 C 12.933594 11.675781 12.632812 11.714844 12.480469 11.605469 C 12.328125 11.496094 12.101562 11.378906 11.957031 11.472656 C 11.816406 11.5625 11.839844 11.621094 11.96875 11.605469 C 12.097656 11.589844 12.234375 11.609375 12.183594 11.675781 C 12.132812 11.746094 12.097656 11.785156 12.308594 11.816406 C 12.597656 11.859375 13.074219 12.042969 13.234375 12.109375 C 13.394531 12.175781 13.453125 12.21875 13.320312 12.242188 C 13.1875 12.261719 13.183594 12.167969 12.972656 12.160156 C 12.839844 12.15625 12.671875 12.082031 12.578125 12.011719 C 12.488281 11.941406 12.425781 11.902344 12.273438 11.917969 C 12.117188 11.933594 11.898438 11.960938 11.816406 12.007812 C 11.734375 12.050781 11.703125 12.121094 11.835938 12.125 C 11.96875 12.128906 12.03125 12.210938 11.929688 12.246094 C 11.824219 12.285156 11.71875 12.304688 11.683594 12.34375 C 11.648438 12.386719 11.699219 12.421875 11.835938 12.421875 C 11.976562 12.421875 12.191406 12.46875 12.378906 12.5625 C 12.570312 12.652344 13.117188 12.929688 13.265625 12.941406 C 13.414062 12.949219 13.429688 12.96875 13.425781 13.046875 C 13.421875 13.125 13.367188 13.109375 13.246094 13.074219 C 13.125 13.039062 12.773438 12.929688 12.664062 12.832031 C 12.550781 12.734375 12.433594 12.644531 12.332031 12.636719 C 12.230469 12.632812 12.257812 12.667969 12.292969 12.703125 C 12.328125 12.742188 12.328125 12.835938 12.257812 12.773438 C 12.148438 12.671875 12.066406 12.5625 11.921875 12.558594 C 11.777344 12.554688 11.636719 12.558594 11.5625 12.601562 C 11.488281 12.640625 11.5 12.699219 11.636719 12.71875 C 11.804688 12.742188 11.980469 12.792969 12.0625 12.84375 C 12.144531 12.890625 12.105469 12.941406 12.03125 12.933594 C 11.953125 12.929688 11.972656 12.972656 12.054688 13.023438 C 12.140625 13.074219 12.191406 13.144531 12.128906 13.160156 C 12.035156 13.183594 11.875 13 11.800781 13.007812 C 11.75 13.015625 11.789062 13.054688 11.832031 13.082031 C 11.878906 13.109375 11.878906 13.203125 11.808594 13.152344 C 11.710938 13.074219 11.578125 12.980469 11.429688 13.03125 C 11.28125 13.085938 11.210938 13.152344 11.335938 13.203125 C 11.460938 13.257812 11.550781 13.308594 11.492188 13.382812 C 11.464844 13.417969 11.4375 13.472656 11.613281 13.488281 C 11.726562 13.492188 11.847656 13.539062 11.902344 13.597656 C 11.957031 13.65625 11.886719 13.679688 11.820312 13.652344 C 11.753906 13.621094 11.605469 13.605469 11.53125 13.675781 C 11.460938 13.738281 11.535156 13.785156 11.679688 13.804688 C 12.089844 13.851562 12.523438 13.984375 12.765625 14.007812 C 13.003906 14.027344 13.207031 14.085938 13.308594 14.125 C 13.445312 14.179688 13.371094 14.328125 13.273438 14.277344 C 13.132812 14.207031 13.035156 14.164062 12.980469 14.152344 C 12.925781 14.144531 12.925781 14.164062 12.9375 14.210938 C 12.945312 14.257812 12.886719 14.285156 12.828125 14.230469 C 12.765625 14.171875 12.589844 14.066406 12.476562 14.046875 C 12.367188 14.027344 12.382812 14.050781 12.402344 14.085938 C 12.417969 14.121094 12.410156 14.183594 12.339844 14.109375 C 12.269531 14.039062 12.042969 13.9375 11.910156 13.945312 C 11.820312 13.949219 11.839844 13.976562 11.859375 14.015625 C 11.875 14.050781 11.832031 14.125 11.777344 14.054688 C 11.722656 13.976562 11.609375 13.875 11.472656 13.957031 C 11.414062 13.988281 11.359375 14.035156 11.277344 14.050781 C 11.195312 14.066406 11.210938 14.113281 11.324219 14.136719 C 11.621094 14.199219 11.734375 14.117188 11.929688 14.195312 C 12.078125 14.253906 12.210938 14.273438 12.265625 14.277344 C 12.320312 14.28125 12.363281 14.316406 12.300781 14.335938 C 12.234375 14.355469 12.238281 14.40625 12.308594 14.46875 C 12.378906 14.527344 12.324219 14.625 12.261719 14.550781 C 12.152344 14.417969 11.992188 14.464844 11.933594 14.402344 C 11.875 14.335938 11.847656 14.34375 11.847656 14.394531 C 11.847656 14.445312 11.820312 14.460938 11.761719 14.414062 C 11.566406 14.261719 11.320312 14.292969 11.214844 14.363281 C 11.109375 14.4375 11.132812 14.460938 11.324219 14.492188 C 11.859375 14.574219 12.523438 14.6875 13.097656 14.929688 C 13.410156 15.058594 13.390625 15.085938 13.375 15.125 C 13.359375 15.164062 13.300781 15.171875 13.175781 15.089844 C 13.035156 14.996094 12.660156 14.9375 12.492188 14.835938 C 12.324219 14.734375 12.277344 14.789062 12.320312 14.851562 C 12.367188 14.914062 12.351562 14.984375 12.253906 14.898438 C 12.160156 14.8125 11.964844 14.707031 11.851562 14.703125 C 11.738281 14.699219 11.824219 14.75 11.878906 14.785156 C 11.9375 14.824219 11.949219 14.941406 11.851562 14.882812 C 11.753906 14.820312 11.464844 14.660156 11.238281 14.714844 C 11.015625 14.769531 11.046875 14.804688 11.164062 14.878906 C 11.277344 14.953125 11.386719 15.007812 11.632812 15 C 11.878906 14.992188 12.113281 15.039062 12.222656 15.109375 C 12.332031 15.183594 12.230469 15.199219 12.15625 15.15625 C 12.082031 15.113281 11.882812 15.078125 11.800781 15.089844 C 11.71875 15.101562 11.757812 15.136719 11.789062 15.175781 C 11.824219 15.214844 11.785156 15.335938 11.71875 15.261719 C 11.652344 15.1875 11.46875 15.101562 11.359375 15.074219 C 11.117188 15.019531 11.011719 15.128906 11.117188 15.167969 C 11.179688 15.1875 11.214844 15.222656 11.175781 15.273438 C 11.136719 15.324219 11.117188 15.382812 11.246094 15.363281 C 11.550781 15.316406 12.113281 15.328125 12.421875 15.425781 C 12.6875 15.511719 12.628906 15.566406 12.558594 15.5625 C 12.492188 15.554688 12.417969 15.519531 12.453125 15.585938 C 12.488281 15.652344 12.484375 15.714844 12.394531 15.652344 C 12.210938 15.523438 11.957031 15.476562 11.835938 15.480469 C 11.773438 15.480469 11.800781 15.515625 11.828125 15.550781 C 11.859375 15.585938 11.816406 15.648438 11.746094 15.59375 C 11.679688 15.542969 11.550781 15.464844 11.464844 15.460938 C 11.382812 15.460938 11.386719 15.488281 11.421875 15.527344 C 11.460938 15.566406 11.453125 15.632812 11.375 15.574219 C 11.257812 15.492188 11.070312 15.402344 10.933594 15.410156 C 10.796875 15.421875 10.859375 15.488281 10.980469 15.539062 C 11.214844 15.636719 11.460938 15.695312 11.636719 15.714844 C 11.808594 15.726562 11.964844 15.777344 12.035156 15.78125 C 12.105469 15.785156 12.136719 15.828125 12.039062 15.835938 C 11.90625 15.851562 11.691406 15.757812 11.582031 15.808594 C 11.527344 15.832031 11.597656 15.871094 11.605469 15.890625 C 11.625 15.925781 11.617188 16.019531 11.546875 15.964844 C 11.339844 15.792969 11.207031 15.816406 11.132812 15.761719 C 11.058594 15.707031 10.980469 15.738281 11.03125 15.796875 C 11.078125 15.859375 10.976562 15.84375 10.898438 15.792969 C 10.816406 15.746094 10.683594 15.714844 10.601562 15.738281 C 10.515625 15.765625 10.476562 15.792969 10.652344 15.886719 C 10.824219 15.980469 10.964844 16.046875 11.144531 16.082031 C 11.320312 16.113281 11.34375 16.21875 11.246094 16.207031 C 11.148438 16.195312 11.132812 16.25 11.199219 16.300781 C 11.230469 16.320312 11.25 16.386719 11.242188 16.425781 C 11.238281 16.464844 11.179688 16.457031 11.101562 16.371094 C 10.917969 16.167969 10.511719 16.152344 10.308594 16.210938 C 10.105469 16.269531 10.191406 16.367188 10.335938 16.503906 C 10.484375 16.640625 10.621094 16.789062 10.996094 16.742188 C 11.375 16.695312 12.046875 16.550781 12.355469 16.632812 C 12.664062 16.714844 12.628906 16.855469 12.535156 16.871094 C 12.367188 16.894531 12.371094 16.730469 12.199219 16.722656 C 12.023438 16.710938 11.96875 16.796875 11.910156 16.859375 C 11.855469 16.921875 11.8125 16.976562 11.632812 16.890625 C 11.410156 16.78125 11.234375 16.9375 11.136719 16.917969 C 11.230469 16.96875 11.382812 17.085938 11.34375 17.132812 C 11.300781 17.179688 11.234375 17.085938 11.097656 17.035156 C 10.957031 16.984375 10.753906 16.972656 10.597656 17.066406 C 10.445312 17.15625 10.605469 17.25 10.773438 17.289062 C 10.941406 17.332031 11.3125 17.332031 11.613281 17.25 C 11.914062 17.167969 12.289062 17.109375 12.429688 17.105469 C 12.53125 17.101562 12.578125 17.160156 12.507812 17.222656 C 12.613281 17.253906 12.738281 17.222656 12.800781 17.183594 C 12.972656 17.074219 12.949219 17.183594 12.910156 17.25 C 13.023438 17.257812 13.214844 17.117188 13.292969 17.167969 C 13.3125 17.632812 13.285156 18.570312 13.285156 18.894531 C 13.285156 18.949219 13.324219 18.941406 13.605469 18.941406 C 13.949219 18.941406 13.964844 18.964844 13.953125 18.800781 C 13.945312 18.640625 13.847656 17.683594 13.878906 17.335938 C 13.910156 16.988281 14.007812 17.011719 14.128906 17.039062 C 14.253906 17.066406 14.542969 17.15625 14.6875 17.152344 C 14.597656 17.054688 14.585938 16.988281 14.671875 17.007812 C 14.761719 17.027344 14.875 16.992188 14.949219 16.925781 C 14.882812 16.921875 14.835938 16.835938 14.957031 16.8125 C 15.074219 16.792969 15.113281 16.855469 15.316406 16.921875 C 15.523438 16.988281 16.292969 17.140625 16.734375 16.859375 C 16.863281 16.777344 16.757812 16.742188 16.601562 16.742188 C 16.441406 16.742188 16.359375 16.777344 16.28125 16.808594 C 16.203125 16.839844 16.136719 16.863281 16.152344 16.800781 C 16.167969 16.742188 16.027344 16.71875 15.90625 16.773438 C 15.78125 16.828125 15.675781 16.855469 15.707031 16.789062 C 15.738281 16.722656 15.691406 16.707031 15.527344 16.71875 C 15.382812 16.726562 14.957031 16.679688 14.976562 16.609375 C 14.984375 16.570312 15.066406 16.550781 15.207031 16.582031 C 15.542969 16.652344 16.292969 16.671875 16.519531 16.65625 C 16.886719 16.632812 16.777344 16.519531 16.640625 16.476562 C 16.496094 16.4375 16.339844 16.46875 16.304688 16.511719 C 16.265625 16.554688 16.144531 16.582031 16.175781 16.511719 C 16.214844 16.414062 16.011719 16.394531 15.835938 16.492188 C 15.710938 16.558594 15.6875 16.523438 15.730469 16.472656 C 15.777344 16.417969 15.703125 16.378906 15.566406 16.390625 C 15.367188 16.40625 15.007812 16.410156 14.871094 16.351562 C 14.714844 16.285156 14.75 16.265625 15.011719 16.242188 Z M 13.789062 10.90625 C 13.746094 10.917969 13.695312 10.941406 13.695312 10.886719 C 13.695312 10.828125 13.753906 10.851562 13.789062 10.859375 C 13.828125 10.863281 13.882812 10.882812 13.789062 10.90625 Z M 13.789062 10.664062 C 13.828125 10.679688 13.910156 10.6875 13.964844 10.675781 C 14.019531 10.664062 14.085938 10.703125 14 10.726562 C 13.847656 10.769531 13.691406 10.800781 13.6875 10.707031 C 13.6875 10.648438 13.75 10.652344 13.789062 10.664062 Z M 13.351562 10.621094 C 13.265625 10.585938 13.292969 10.546875 13.335938 10.53125 C 13.375 10.515625 13.460938 10.519531 13.457031 10.609375 C 13.457031 10.664062 13.386719 10.636719 13.351562 10.621094 Z M 11.960938 16.386719 C 11.914062 16.324219 11.972656 16.363281 12.0625 16.390625 C 12.117188 16.40625 12.167969 16.441406 12.164062 16.484375 C 12.160156 16.558594 12.003906 16.453125 11.960938 16.386719 Z M 12.992188 15.351562 C 13.078125 15.40625 13.351562 15.402344 13.351562 15.515625 C 13.351562 15.566406 13.292969 15.535156 13.226562 15.535156 C 13.160156 15.535156 13.019531 15.480469 12.925781 15.398438 C 12.832031 15.316406 12.90625 15.296875 12.992188 15.351562 Z M 13.335938 16.457031 C 13.324219 16.5625 13.152344 16.488281 13.023438 16.417969 C 12.894531 16.34375 13.03125 16.316406 13.089844 16.328125 C 13.144531 16.34375 13.199219 16.347656 13.269531 16.328125 C 13.335938 16.316406 13.351562 16.328125 13.335938 16.457031 Z M 13.253906 16.160156 C 13.160156 16.160156 12.960938 16.085938 12.785156 16.011719 C 12.613281 15.941406 12.769531 15.898438 12.875 15.941406 C 12.976562 15.984375 13.152344 15.992188 13.257812 15.992188 C 13.382812 15.992188 13.390625 16.160156 13.253906 16.160156 Z M 13.105469 13.804688 C 12.957031 13.785156 12.824219 13.671875 12.417969 13.578125 C 12.25 13.542969 12.289062 13.519531 12.40625 13.519531 C 12.523438 13.519531 12.867188 13.671875 13.230469 13.730469 C 13.3125 13.742188 13.410156 13.757812 13.40625 13.871094 C 13.402344 13.984375 13.25 13.824219 13.105469 13.804688 Z M 13.253906 13.382812 C 13.164062 13.316406 12.851562 13.21875 12.738281 13.195312 C 12.625 13.171875 12.558594 13.132812 12.667969 13.117188 C 12.777344 13.101562 12.929688 13.136719 13.066406 13.207031 C 13.140625 13.242188 13.269531 13.300781 13.320312 13.300781 C 13.375 13.300781 13.417969 13.292969 13.417969 13.40625 C 13.417969 13.527344 13.347656 13.453125 13.253906 13.382812 Z M 12.726562 11.128906 C 12.875 11.1875 13.171875 11.164062 13.367188 11.28125 C 13.449219 11.335938 13.335938 11.34375 13.21875 11.296875 C 13.101562 11.253906 12.960938 11.277344 12.722656 11.195312 C 12.523438 11.128906 12.609375 11.085938 12.726562 11.128906 Z M 13.117188 11.996094 C 12.9375 11.933594 12.867188 11.878906 12.878906 11.851562 C 12.890625 11.820312 13.058594 11.863281 13.171875 11.902344 C 13.375 11.96875 13.414062 11.972656 13.410156 12.0625 C 13.40625 12.132812 13.292969 12.058594 13.117188 11.996094 Z M 12.695312 12.207031 C 12.875 12.207031 13.09375 12.3125 13.246094 12.382812 C 13.351562 12.433594 13.410156 12.453125 13.40625 12.519531 C 13.40625 12.574219 13.339844 12.550781 13.289062 12.515625 C 13.238281 12.476562 12.875 12.371094 12.703125 12.296875 C 12.527344 12.226562 12.515625 12.207031 12.695312 12.207031 Z M 13.429688 12.789062 C 13.421875 12.832031 13.382812 12.800781 13.339844 12.800781 C 13.265625 12.800781 13.078125 12.660156 12.828125 12.621094 C 12.703125 12.601562 12.554688 12.496094 12.421875 12.453125 C 12.285156 12.40625 12.390625 12.347656 12.464844 12.390625 C 12.511719 12.417969 12.578125 12.433594 12.714844 12.457031 C 12.847656 12.484375 13.144531 12.59375 13.238281 12.660156 C 13.28125 12.6875 13.4375 12.679688 13.429688 12.789062 Z M 13.453125 11.558594 C 13.445312 11.640625 13.40625 11.652344 13.355469 11.605469 C 13.304688 11.558594 13.1875 11.523438 13.0625 11.488281 C 12.941406 11.453125 12.988281 11.375 13.085938 11.421875 C 13.179688 11.46875 13.308594 11.492188 13.417969 11.476562 C 13.472656 11.46875 13.453125 11.515625 13.453125 11.558594 Z M 13.679688 11.824219 C 13.683594 11.707031 13.695312 11.703125 13.769531 11.714844 C 13.851562 11.734375 14.109375 11.722656 14.210938 11.714844 C 14.316406 11.703125 14.398438 11.742188 14.222656 11.777344 C 14.050781 11.808594 13.917969 11.84375 13.84375 11.875 C 13.773438 11.90625 13.671875 11.941406 13.679688 11.824219 Z M 14.695312 14.230469 C 14.621094 14.304688 14.242188 14.375 14.011719 14.480469 C 13.824219 14.566406 13.785156 14.542969 13.785156 14.425781 C 13.785156 14.296875 13.917969 14.375 13.988281 14.328125 C 14.054688 14.28125 14.457031 14.238281 14.582031 14.171875 C 14.703125 14.109375 14.765625 14.152344 14.695312 14.230469 Z M 14.382812 14.855469 C 14.257812 14.871094 14.144531 14.9375 13.949219 15.003906 C 13.753906 15.070312 13.785156 14.964844 13.863281 14.917969 C 13.945312 14.867188 14.210938 14.804688 14.359375 14.792969 C 14.507812 14.785156 14.503906 14.839844 14.382812 14.855469 Z M 14.304688 14.070312 C 14.261719 14.113281 14.15625 14.152344 14.007812 14.1875 C 13.859375 14.222656 13.785156 14.21875 13.785156 14.132812 C 13.785156 14.046875 13.832031 14.070312 13.941406 14.082031 C 14.046875 14.089844 14.253906 14.097656 14.304688 14.070312 Z M 13.949219 13.613281 C 13.894531 13.648438 13.773438 13.667969 13.773438 13.613281 C 13.777344 13.558594 13.773438 13.5625 13.804688 13.5625 C 13.957031 13.546875 14.085938 13.464844 14.164062 13.457031 C 14.289062 13.445312 14.355469 13.4375 14.285156 13.488281 C 14.214844 13.542969 14.007812 13.578125 13.949219 13.613281 Z M 13.84375 12.445312 C 13.898438 12.449219 14.070312 12.417969 14.152344 12.386719 C 14.230469 12.355469 14.234375 12.378906 14.183594 12.410156 C 14.136719 12.441406 13.976562 12.492188 13.902344 12.515625 C 13.800781 12.550781 13.75 12.5625 13.746094 12.496094 C 13.742188 12.4375 13.753906 12.445312 13.84375 12.445312 Z M 13.859375 12.910156 C 13.96875 12.914062 14.179688 12.910156 14.246094 12.871094 C 14.316406 12.828125 14.410156 12.832031 14.449219 12.835938 C 14.488281 12.839844 14.472656 12.867188 14.402344 12.90625 C 14.335938 12.949219 14.105469 12.949219 14.027344 13 C 13.949219 13.046875 13.839844 13.058594 13.789062 13.0625 C 13.742188 13.0625 13.734375 13.0625 13.734375 13.003906 C 13.734375 12.917969 13.75 12.90625 13.859375 12.910156 Z M 13.738281 13.296875 C 13.742188 13.238281 13.75 13.222656 13.800781 13.222656 C 13.945312 13.222656 14.1875 13.109375 14.28125 13.109375 C 14.375 13.105469 14.425781 13.160156 14.308594 13.175781 C 14.195312 13.191406 13.949219 13.25 13.898438 13.285156 C 13.84375 13.316406 13.738281 13.355469 13.738281 13.296875 Z M 13.933594 13.789062 C 14.078125 13.808594 14.09375 13.859375 13.902344 13.890625 C 13.8125 13.90625 13.777344 13.914062 13.773438 13.828125 C 13.765625 13.78125 13.789062 13.769531 13.933594 13.789062 Z M 13.867188 14.691406 C 13.941406 14.695312 14.09375 14.664062 14.148438 14.648438 C 14.246094 14.617188 14.234375 14.65625 14.171875 14.691406 C 14.113281 14.722656 13.957031 14.789062 13.84375 14.773438 C 13.726562 14.761719 13.765625 14.6875 13.867188 14.691406 Z M 14.105469 16.484375 C 14.039062 16.464844 13.992188 16.457031 13.925781 16.472656 C 13.859375 16.488281 13.8125 16.433594 13.8125 16.363281 C 13.878906 16.414062 14.042969 16.332031 14.191406 16.414062 C 14.253906 16.449219 14.171875 16.503906 14.105469 16.484375 Z M 14.171875 16.078125 C 14.09375 16.078125 13.980469 16.160156 13.878906 16.140625 C 13.777344 16.121094 13.785156 16.023438 13.890625 16.050781 C 13.972656 16.070312 14.03125 16.035156 14.144531 16.007812 C 14.257812 15.984375 14.246094 16.078125 14.171875 16.078125 Z M 13.867188 15.695312 C 13.917969 15.695312 13.972656 15.695312 14.03125 15.675781 C 14.09375 15.65625 14.089844 15.695312 14.042969 15.722656 C 13.996094 15.746094 13.929688 15.792969 13.863281 15.773438 C 13.796875 15.75 13.8125 15.695312 13.867188 15.695312 Z M 13.910156 15.253906 C 13.710938 15.34375 13.773438 15.210938 13.867188 15.167969 C 13.925781 15.140625 14.195312 15.050781 14.355469 14.988281 C 14.515625 14.925781 14.632812 14.925781 14.75 14.910156 C 14.867188 14.894531 14.867188 14.917969 14.785156 15.015625 C 14.703125 15.109375 14.609375 15.082031 14.480469 15.074219 C 14.34375 15.070312 14.109375 15.167969 13.910156 15.253906 Z M 14.617188 15.414062 C 14.488281 15.417969 14.488281 15.375 14.558594 15.351562 C 14.609375 15.335938 14.703125 15.320312 14.738281 15.347656 C 14.773438 15.371094 14.746094 15.40625 14.617188 15.414062 Z M 14.617188 15.414062 "/>
<path fill-rule="nonzero" fill="rgb(93.331909%, 93.331909%, 93.331909%)" fill-opacity="1" d="M 13.410156 11.835938 C 13.410156 11.960938 13.308594 12.0625 13.179688 12.0625 L 12.707031 12.0625 C 12.582031 12.0625 12.480469 11.960938 12.480469 11.835938 C 12.480469 11.707031 12.582031 11.605469 12.707031 11.605469 L 13.179688 11.605469 C 13.308594 11.605469 13.410156 11.707031 13.410156 11.835938 Z M 14.558594 15.019531 C 14.558594 15.203125 14.410156 15.351562 14.230469 15.351562 L 14.199219 15.351562 C 14.015625 15.351562 13.867188 15.203125 13.867188 15.019531 C 13.867188 14.839844 14.015625 14.691406 14.199219 14.691406 L 14.230469 14.691406 C 14.410156 14.691406 14.558594 14.839844 14.558594 15.019531 Z M 14.105469 16.363281 C 14.105469 16.429688 14.050781 16.484375 13.984375 16.484375 C 13.917969 16.484375 13.863281 16.429688 13.863281 16.363281 L 13.863281 15.890625 C 13.863281 15.828125 13.917969 15.773438 13.984375 15.773438 C 14.050781 15.773438 14.105469 15.828125 14.105469 15.890625 Z M 13.335938 16.234375 C 13.335938 16.359375 13.234375 16.457031 13.113281 16.457031 L 13.011719 16.457031 C 12.886719 16.457031 12.789062 16.359375 12.789062 16.234375 C 12.789062 16.113281 12.886719 16.011719 13.011719 16.011719 L 13.113281 16.011719 C 13.234375 16.011719 13.335938 16.113281 13.335938 16.234375 Z M 13.417969 12.984375 C 13.417969 13.164062 13.316406 13.308594 13.191406 13.308594 C 13.0625 13.308594 12.960938 13.164062 12.960938 12.984375 L 12.960938 12.625 C 12.960938 12.445312 13.0625 12.296875 13.191406 12.296875 C 13.316406 12.296875 13.417969 12.445312 13.417969 12.625 Z M 13.957031 11.878906 C 13.957031 11.953125 13.894531 12.015625 13.820312 12.015625 C 13.742188 12.015625 13.683594 11.953125 13.683594 11.878906 L 13.683594 11.671875 C 13.683594 11.597656 13.742188 11.535156 13.820312 11.535156 C 13.894531 11.535156 13.957031 11.597656 13.957031 11.671875 Z M 15.898438 16.492188 C 15.898438 16.628906 15.800781 16.742188 15.679688 16.742188 L 15.230469 16.742188 C 15.109375 16.742188 15.011719 16.628906 15.011719 16.492188 C 15.011719 16.351562 15.109375 16.242188 15.230469 16.242188 L 15.679688 16.242188 C 15.800781 16.242188 15.898438 16.351562 15.898438 16.492188 Z M 12.421875 16.886719 C 12.421875 17.007812 12.328125 17.105469 12.207031 17.105469 L 11.675781 17.105469 C 11.554688 17.105469 11.460938 17.007812 11.460938 16.886719 C 11.460938 16.769531 11.554688 16.671875 11.675781 16.671875 L 12.207031 16.671875 C 12.328125 16.671875 12.421875 16.769531 12.421875 16.886719 Z M 12.421875 16.886719 "/>
</svg>