<svg xmlns="http://www.w3.org/2000/svg" xmlns:xlink="http://www.w3.org/1999/xlink" viewBox="0 0 27 27">
<path fill-rule="nonzero" fill="rgb(100%, 88.233948%, 31.37207%)" fill-opacity="1" d="M 24 3.75 L 3 3.75 C 2.847656 3.75 2.695312 3.761719 2.546875 3.785156 L 2.542969 5.097656 L 0.496094 5.097656 C 0.183594 5.570312 0 6.140625 0 6.75 L 0 20.25 C 0 21.90625 1.34375 23.25 3 23.25 L 24 23.25 C 25.65625 23.25 27 21.90625 27 20.25 L 27 6.75 C 27 5.09375 25.65625 3.75 24 3.75 Z M 24 3.75 "/>
<path fill-rule="nonzero" fill="rgb(0%, 14.117432%, 49.01886%)" fill-opacity="1" d="M 14.25 13.5 L 14.25 3.75 L 3 3.75 C 2.761719 3.75 2.546875 3.785156 2.546875 3.785156 L 2.542969 5.097656 L 0.496094 5.097656 C 0.496094 5.097656 0.464844 5.140625 0.402344 5.25 C 0.144531 5.691406 0 6.203125 0 6.75 L 0 13.5 Z M 14.25 13.5 "/>
<path fill-rule="nonzero" fill="rgb(93.331909%, 93.331909%, 93.331909%)" fill-opacity="1" d="M 14.25 3.75 L 12.5 3.75 L 9 6.203125 L 9 3.75 L 5.25 3.75 L 5.25 5.675781 L 2.546875 3.785156 C 2.085938 3.855469 1.65625 4.027344 1.292969 4.28125 L 4.820312 6.75 L 3.515625 6.75 L 0.726562 4.792969 C 0.644531 4.890625 0.566406 4.988281 0.496094 5.097656 L 2.859375 6.75 L 0 6.75 L 0 10.5 L 2.914062 10.5 L 0 12.574219 L 0 13.5 L 2.5 13.5 L 5.25 11.574219 L 5.25 13.5 L 9 13.5 L 9 11.046875 L 12.5 13.5 L 14.25 13.5 L 14.25 11.976562 L 12.140625 10.5 L 14.25 10.5 L 14.25 6.75 L 12.140625 6.75 L 14.25 5.273438 Z M 14.25 3.75 "/>
<path fill-rule="nonzero" fill="rgb(81.175232%, 10.588074%, 16.862488%)" fill-opacity="1" d="M 8.25 3.75 L 6 3.75 L 6 7.5 L 0 7.5 L 0 9.75 L 6 9.75 L 6 13.5 L 8.25 13.5 L 8.25 9.75 L 14.25 9.75 L 14.25 7.5 L 8.25 7.5 Z M 8.25 3.75 "/>
<path fill-rule="nonzero" fill="rgb(81.175232%, 10.588074%, 16.862488%)" fill-opacity="1" d="M 14.25 3.75 L 13.152344 3.75 L 9 6.660156 L 9 6.75 L 10.179688 6.75 L 14.25 3.898438 Z M 1.292969 4.28125 C 1.082031 4.429688 0.890625 4.601562 0.726562 4.792969 L 3.515625 6.75 L 4.820312 6.75 Z M 4.828125 10.5 L 0.550781 13.5 L 1.847656 13.5 L 5.25 11.117188 L 5.25 10.5 Z M 14.25 13.351562 L 14.25 12.4375 L 11.484375 10.5 L 10.175781 10.5 Z M 14.25 13.351562 "/>
<path fill-rule="nonzero" fill="rgb(0%, 29.019165%, 46.665955%)" fill-opacity="1" d="M 9 8.625 C 9 9.660156 8.160156 10.5 7.125 10.5 C 6.089844 10.5 5.25 9.660156 5.25 8.625 C 5.25 7.589844 6.089844 6.75 7.125 6.75 C 8.160156 6.75 9 7.589844 9 8.625 Z M 9 8.625 "/>
<path fill-rule="nonzero" fill="rgb(100%, 88.233948%, 31.37207%)" fill-opacity="1" d="M 7.125 6.722656 L 7.574219 7.925781 L 8.941406 7.953125 L 7.851562 8.871094 L 8.25 10.179688 L 7.125 9.398438 L 6 10.179688 L 6.398438 8.871094 L 5.308594 7.953125 L 6.675781 7.925781 Z M 2.867188 7.863281 L 3.050781 8.394531 L 3.613281 8.40625 L 3.167969 8.746094 L 3.328125 9.28125 L 2.867188 8.960938 L 2.40625 9.28125 L 2.570312 8.746094 L 2.121094 8.40625 L 2.683594 8.394531 Z M 11.382812 7.863281 L 11.566406 8.394531 L 12.128906 8.40625 L 11.679688 8.746094 L 11.84375 9.28125 L 11.382812 8.960938 L 10.921875 9.28125 L 11.082031 8.746094 L 10.636719 8.40625 L 11.199219 8.394531 Z M 7.125 4.367188 L 7.308594 4.894531 L 7.871094 4.90625 L 7.421875 5.246094 L 7.585938 5.785156 L 7.125 5.464844 L 6.664062 5.785156 L 6.828125 5.246094 L 6.378906 4.90625 L 6.941406 4.894531 Z M 7.125 11.464844 L 7.308594 11.996094 L 7.871094 12.007812 L 7.421875 12.347656 L 7.585938 12.882812 L 7.125 12.5625 L 6.664062 12.882812 L 6.828125 12.347656 L 6.378906 12.007812 L 6.941406 11.996094 Z M 7.125 11.464844 "/>
</svg>