<svg xmlns="http://www.w3.org/2000/svg" xmlns:xlink="http://www.w3.org/1999/xlink" viewBox="0 0 27 27">
<path fill-rule="nonzero" fill="rgb(80.783081%, 6.666565%, 14.901733%)" fill-opacity="1" d="M 27 20.25 C 27 21.90625 25.65625 23.25 24 23.25 L 3 23.25 C 1.34375 23.25 0 21.90625 0 20.25 L 0 6.75 C 0 5.09375 1.34375 3.75 3 3.75 L 24 3.75 C 25.65625 3.75 27 5.09375 27 6.75 Z M 27 20.25 "/>
<path fill-rule="nonzero" fill="rgb(93.331909%, 93.331909%, 93.331909%)" fill-opacity="1" d="M 0 9 L 27 9 L 27 18 L 0 18 Z M 0 9 "/>
<path fill-rule="nonzero" fill="rgb(3.137207%, 24.313354%, 61.567688%)" fill-opacity="1" d="M 11.222656 14.824219 C 11.125 14.5625 11.097656 14.332031 11.097656 14.332031 C 11.097656 14.332031 11.039062 14.25 10.859375 14.332031 C 10.679688 14.414062 10.488281 14.566406 10.21875 14.625 C 10.09375 14.652344 9.984375 14.589844 9.902344 14.515625 C 9.933594 14.621094 9.980469 14.722656 10.019531 14.824219 Z M 13.898438 14.824219 C 13.824219 14.671875 13.734375 14.554688 13.5 14.554688 C 13.273438 14.554688 13.171875 14.6875 13.097656 14.824219 Z M 16.980469 14.824219 C 17.027344 14.710938 17.074219 14.597656 17.109375 14.480469 C 16.859375 14.730469 16.476562 14.632812 16.359375 14.484375 C 16.230469 14.320312 15.9375 14.296875 15.9375 14.296875 C 15.9375 14.296875 15.902344 14.53125 15.824219 14.8125 C 15.824219 14.816406 15.820312 14.820312 15.820312 14.824219 Z M 16.714844 15.386719 C 16.773438 15.285156 16.835938 15.1875 16.886719 15.078125 C 16.8125 15.042969 16.726562 15.007812 16.617188 15.007812 C 16.359375 15 16.335938 15.183594 15.972656 15.1875 C 15.800781 15.1875 15.710938 15.144531 15.660156 15.089844 C 15.574219 15.195312 15.457031 15.300781 15.328125 15.386719 Z M 12.683594 15.386719 L 14.234375 15.386719 C 14.203125 15.355469 14.171875 15.324219 14.148438 15.285156 L 14.148438 15.296875 C 14.148438 15.296875 13.828125 14.988281 13.5 14.988281 C 13.078125 14.988281 12.785156 15.296875 12.785156 15.296875 L 12.796875 15.277344 C 12.765625 15.3125 12.726562 15.351562 12.683594 15.386719 Z M 11.605469 15.386719 C 11.5 15.300781 11.410156 15.195312 11.34375 15.078125 C 11.234375 15.15625 11.109375 15.21875 10.980469 15.210938 C 10.664062 15.1875 10.464844 14.851562 10.277344 14.941406 C 10.214844 14.972656 10.152344 15.003906 10.097656 15.03125 C 10.152344 15.15625 10.21875 15.273438 10.285156 15.386719 Z M 10.785156 16.054688 L 16.214844 16.054688 C 16.304688 15.957031 16.390625 15.859375 16.472656 15.753906 C 16.34375 15.644531 16.152344 15.515625 15.9375 15.515625 C 15.574219 15.515625 15.417969 15.84375 15.097656 15.84375 C 14.777344 15.84375 14.742188 15.550781 14.34375 15.550781 C 13.945312 15.550781 13.769531 15.890625 13.457031 15.890625 C 13.148438 15.890625 12.925781 15.550781 12.632812 15.550781 C 12.339844 15.550781 12.117188 15.890625 11.800781 15.890625 C 11.484375 15.890625 11.308594 15.515625 11.027344 15.515625 C 10.851562 15.515625 10.640625 15.628906 10.503906 15.714844 C 10.589844 15.832031 10.683594 15.945312 10.785156 16.054688 Z M 15.550781 16.605469 C 15.636719 16.546875 15.730469 16.496094 15.8125 16.429688 C 15.621094 16.339844 15.308594 16.207031 15.097656 16.207031 C 14.777344 16.207031 14.695312 16.382812 14.34375 16.382812 C 13.992188 16.382812 13.835938 16.183594 13.488281 16.183594 C 13.136719 16.183594 13.019531 16.441406 12.683594 16.441406 C 12.351562 16.441406 12.210938 16.160156 11.800781 16.160156 C 11.558594 16.160156 11.277344 16.261719 11.082031 16.34375 C 11.195312 16.441406 11.320312 16.523438 11.441406 16.605469 Z M 14.355469 16.804688 C 13.957031 16.804688 13.769531 17.144531 13.5 17.144531 C 13.230469 17.144531 12.996094 16.792969 12.683594 16.792969 C 12.5 16.792969 12.28125 16.894531 12.128906 16.980469 C 12.554688 17.152344 13.011719 17.25 13.5 17.25 C 13.988281 17.25 14.449219 17.144531 14.875 16.972656 C 14.738281 16.890625 14.554688 16.804688 14.355469 16.804688 Z M 14.355469 16.804688 "/>
<path fill-rule="nonzero" fill="rgb(100%, 61.567688%, 6.666565%)" fill-opacity="1" d="M 11.082031 12.507812 L 10.035156 12.078125 C 9.921875 12.34375 9.855469 12.628906 9.808594 12.921875 L 11.082031 13.011719 Z M 11.847656 12.820312 L 11.847656 13.066406 L 12.558594 13.117188 L 12.558594 13.113281 Z M 15.824219 13.011719 L 17.191406 12.914062 C 17.140625 12.605469 17.070312 12.308594 16.949219 12.03125 L 15.824219 12.492188 Z M 15.097656 12.789062 L 14.457031 13.054688 L 14.460938 13.109375 L 15.097656 13.0625 Z M 16.269531 10.992188 L 15.824219 11.378906 L 15.824219 12.011719 L 16.683594 11.5625 C 16.5625 11.359375 16.429688 11.164062 16.269531 10.992188 Z M 15.097656 12.011719 L 14.441406 12.585938 L 14.445312 12.734375 L 15.097656 12.394531 Z M 12.546875 12.691406 L 11.847656 12.078125 L 11.847656 12.507812 L 12.554688 12.878906 Z M 11.082031 11.414062 L 10.675781 11.058594 C 10.511719 11.246094 10.378906 11.449219 10.253906 11.664062 L 11.082031 12.101562 Z M 15.097656 11.402344 C 15.097656 11.289062 15.253906 11.222656 15.417969 11.207031 L 15.9375 10.671875 C 15.75 10.515625 15.554688 10.375 15.34375 10.253906 L 14.421875 11.847656 C 14.425781 11.976562 14.429688 12.105469 14.433594 12.230469 L 15.097656 11.539062 Z M 11.847656 11.261719 L 11.847656 11.605469 L 12.539062 12.359375 L 12.527344 11.984375 L 11.558594 10.308594 C 11.367188 10.425781 11.1875 10.558594 11.015625 10.703125 L 11.421875 11.140625 C 11.625 11.117188 11.847656 11.148438 11.847656 11.261719 Z M 14.414062 11.152344 L 14.933594 10.050781 C 14.734375 9.96875 14.53125 9.894531 14.316406 9.84375 L 14.109375 10.6875 C 14.109375 10.6875 14.546875 10.703125 14.453125 10.71875 C 14.429688 10.722656 14.417969 10.898438 14.414062 11.152344 Z M 12.46875 9.910156 C 12.3125 9.957031 12.164062 10.023438 12.015625 10.089844 L 12.503906 11.1875 Z M 11.082031 13.414062 L 9.761719 13.378906 C 9.757812 13.417969 9.75 13.457031 9.75 13.5 C 9.75 13.648438 9.773438 13.789062 9.792969 13.933594 L 11.082031 13.933594 Z M 15.824219 13.933594 L 17.207031 13.933594 C 17.226562 13.789062 17.25 13.648438 17.25 13.5 C 17.25 13.457031 17.242188 13.417969 17.238281 13.378906 L 15.824219 13.433594 Z M 15.824219 13.933594 "/>
<path fill-rule="nonzero" fill="rgb(80.783081%, 6.666565%, 14.901733%)" fill-opacity="1" d="M 11.285156 11.472656 L 11.285156 14.15625 C 11.285156 14.519531 11.484375 15.386719 12.058594 15.386719 C 12.84375 15.386719 13.097656 14.414062 13.097656 14.414062 C 13.097656 14.414062 12.53125 14.914062 12.128906 14.753906 C 11.726562 14.597656 11.699219 14.355469 11.699219 13.828125 L 11.699219 11.539062 C 11.699219 11.332031 11.285156 11.285156 11.285156 11.472656 Z M 15.675781 11.472656 L 15.675781 14.15625 C 15.675781 14.519531 15.476562 15.386719 14.902344 15.386719 C 14.117188 15.386719 13.863281 14.414062 13.863281 14.414062 C 13.863281 14.414062 14.429688 14.914062 14.832031 14.753906 C 15.234375 14.597656 15.261719 14.355469 15.261719 13.828125 L 15.261719 11.539062 C 15.261719 11.332031 15.675781 11.285156 15.675781 11.472656 Z M 14.109375 12.96875 L 12.761719 12.558594 L 12.761719 10.40625 C 12.761719 9.773438 13.246094 9.460938 14.109375 9.761719 C 13.359375 9.832031 13.121094 10.464844 14.109375 10.933594 Z M 14.109375 12.96875 "/>
<path fill-rule="nonzero" fill="rgb(38.822937%, 3.137207%, 6.274414%)" fill-opacity="1" d="M 15 14.035156 C 15 14.089844 14.953125 14.132812 14.898438 14.132812 L 12.007812 14.132812 C 11.953125 14.132812 11.90625 14.089844 11.90625 14.035156 C 11.90625 13.976562 11.953125 13.933594 12.007812 13.933594 L 14.898438 13.933594 C 14.953125 13.933594 15 13.976562 15 14.035156 Z M 12.761719 14.558594 L 12.09375 14.558594 L 12.378906 14.179688 L 13.050781 14.179688 Z M 14.152344 14.558594 L 14.820312 14.558594 L 14.535156 14.179688 L 13.863281 14.179688 Z M 12.492188 13.722656 L 12.328125 13.539062 L 12.492188 13.359375 C 12.523438 13.328125 12.511719 13.28125 12.46875 13.261719 C 12.421875 13.238281 12.363281 13.246094 12.332031 13.28125 L 12.257812 13.363281 L 12.257812 13.25 C 12.257812 13.226562 12.234375 13.203125 12.210938 13.203125 C 12.183594 13.203125 12.164062 13.226562 12.164062 13.25 L 12.164062 13.363281 L 12.085938 13.28125 C 12.058594 13.246094 11.996094 13.238281 11.953125 13.261719 C 11.910156 13.28125 11.898438 13.328125 11.929688 13.359375 L 12.09375 13.539062 L 11.925781 13.722656 C 11.898438 13.753906 11.910156 13.800781 11.953125 13.820312 C 11.996094 13.84375 12.054688 13.832031 12.085938 13.800781 L 12.210938 13.667969 L 12.332031 13.800781 C 12.363281 13.832031 12.421875 13.84375 12.46875 13.820312 C 12.511719 13.800781 12.523438 13.753906 12.492188 13.722656 Z M 13.113281 13.722656 L 12.945312 13.539062 L 13.113281 13.359375 C 13.144531 13.328125 13.132812 13.28125 13.089844 13.261719 C 13.042969 13.238281 12.984375 13.246094 12.953125 13.28125 L 12.878906 13.363281 L 12.878906 13.25 C 12.878906 13.226562 12.855469 13.203125 12.832031 13.203125 C 12.804688 13.203125 12.785156 13.226562 12.785156 13.25 L 12.785156 13.363281 L 12.707031 13.28125 C 12.679688 13.246094 12.617188 13.238281 12.574219 13.261719 C 12.53125 13.28125 12.519531 13.328125 12.550781 13.359375 L 12.714844 13.539062 L 12.546875 13.722656 C 12.519531 13.753906 12.53125 13.800781 12.574219 13.820312 C 12.617188 13.84375 12.675781 13.832031 12.707031 13.800781 L 12.832031 13.667969 L 12.953125 13.800781 C 12.984375 13.832031 13.042969 13.84375 13.089844 13.820312 C 13.132812 13.800781 13.144531 13.753906 13.113281 13.722656 Z M 13.734375 13.722656 L 13.570312 13.539062 L 13.734375 13.359375 C 13.765625 13.328125 13.753906 13.28125 13.710938 13.261719 C 13.667969 13.238281 13.605469 13.246094 13.574219 13.28125 L 13.5 13.363281 L 13.5 13.25 C 13.5 13.226562 13.480469 13.203125 13.453125 13.203125 C 13.425781 13.203125 13.40625 13.226562 13.40625 13.25 L 13.40625 13.363281 L 13.332031 13.28125 C 13.300781 13.25 13.238281 13.238281 13.195312 13.261719 C 13.152344 13.285156 13.140625 13.328125 13.171875 13.359375 L 13.335938 13.542969 L 13.171875 13.722656 C 13.140625 13.753906 13.152344 13.800781 13.195312 13.824219 C 13.238281 13.84375 13.300781 13.835938 13.328125 13.800781 L 13.453125 13.667969 L 13.574219 13.800781 C 13.605469 13.835938 13.667969 13.84375 13.710938 13.824219 C 13.753906 13.800781 13.765625 13.753906 13.734375 13.722656 Z M 14.359375 13.722656 L 14.191406 13.539062 L 14.359375 13.359375 C 14.390625 13.328125 14.378906 13.28125 14.332031 13.261719 C 14.289062 13.238281 14.230469 13.246094 14.199219 13.28125 L 14.125 13.363281 L 14.125 13.25 C 14.125 13.226562 14.101562 13.203125 14.074219 13.203125 C 14.050781 13.203125 14.027344 13.226562 14.027344 13.25 L 14.027344 13.363281 L 13.953125 13.28125 C 13.921875 13.246094 13.863281 13.238281 13.820312 13.261719 C 13.773438 13.28125 13.765625 13.328125 13.792969 13.359375 L 13.960938 13.539062 L 13.792969 13.722656 C 13.761719 13.753906 13.773438 13.800781 13.820312 13.820312 C 13.863281 13.84375 13.921875 13.832031 13.953125 13.800781 L 14.074219 13.667969 L 14.199219 13.800781 C 14.230469 13.832031 14.289062 13.84375 14.332031 13.820312 C 14.378906 13.800781 14.390625 13.753906 14.359375 13.722656 Z M 14.980469 13.722656 L 14.8125 13.539062 L 14.980469 13.359375 C 15.007812 13.328125 15 13.28125 14.953125 13.261719 C 14.910156 13.238281 14.851562 13.246094 14.820312 13.28125 L 14.746094 13.363281 L 14.746094 13.25 C 14.746094 13.226562 14.722656 13.203125 14.695312 13.203125 C 14.671875 13.203125 14.648438 13.226562 14.648438 13.25 L 14.648438 13.363281 L 14.574219 13.28125 C 14.542969 13.246094 14.484375 13.238281 14.441406 13.261719 C 14.394531 13.28125 14.386719 13.328125 14.414062 13.359375 L 14.582031 13.539062 L 14.414062 13.722656 C 14.382812 13.753906 14.394531 13.800781 14.441406 13.820312 C 14.484375 13.84375 14.542969 13.832031 14.574219 13.800781 L 14.695312 13.667969 L 14.820312 13.800781 C 14.851562 13.832031 14.910156 13.84375 14.953125 13.820312 C 15 13.800781 15.011719 13.753906 14.980469 13.722656 Z M 14.980469 13.722656 "/>
</svg>