<svg xmlns="http://www.w3.org/2000/svg" xmlns:xlink="http://www.w3.org/1999/xlink" viewBox="0 0 27 27">
<path fill-rule="nonzero" fill="rgb(0%, 57.254028%, 78.430176%)" fill-opacity="1" d="M 24 3.75 L 7.3125 3.75 L 7.3125 23.25 L 24 23.25 C 25.65625 23.25 27 21.90625 27 20.25 L 27 6.75 C 27 5.09375 25.65625 3.75 24 3.75 Z M 24 3.75 "/>
<path fill-rule="nonzero" fill="rgb(100%, 79.998779%, 30.195618%)" fill-opacity="1" d="M 25.3125 10.289062 C 24.421875 9.984375 23.414062 9.9375 23.414062 9.9375 L 22.757812 11.226562 C 22.757812 11.226562 24.703125 11.269531 24.703125 11.386719 C 24.703125 11.46875 24.261719 12.203125 23.984375 12.65625 C 23.84375 12.609375 23.667969 12.585938 23.460938 12.585938 C 22.617188 12.585938 22.289062 12.773438 21.9375 13.289062 C 21.585938 13.804688 21.9375 14.015625 21.9375 14.015625 C 21.9375 14.015625 21.503906 14.980469 19.875 15.519531 L 20.410156 13.671875 C 21.019531 13.570312 21.539062 13.875 21.539062 13.875 C 21.539062 13.875 21.140625 12.703125 21.632812 10.945312 C 22.125 9.1875 23.953125 7.875 23.953125 7.875 L 21.910156 8.480469 L 22.429688 6.679688 C 22.429688 6.679688 22.6875 6.117188 22.429688 5.953125 C 22.261719 5.847656 22.171875 6.074219 22.132812 6.25 C 21.953125 6.199219 21.640625 6.152344 21.304688 6.304688 C 20.789062 6.539062 19.59375 6.199219 19.59375 6.199219 C 19.59375 6.199219 20.0625 6.726562 20.414062 6.820312 C 20.039062 7.007812 19.3125 6.9375 19.3125 6.9375 C 19.3125 6.9375 20.203125 7.453125 20.800781 7.265625 C 21.195312 7.140625 21.636719 7.132812 21.886719 7.136719 L 21.449219 8.617188 L 19.59375 9.164062 C 19.59375 9.164062 18.75 9.84375 18.46875 11.835938 C 18.1875 13.828125 19.195312 15.304688 19.195312 15.304688 C 19.195312 15.304688 19.089844 14.34375 19.894531 13.867188 L 19.363281 15.660156 C 19.140625 15.710938 18.902344 15.757812 18.640625 15.792969 C 18.636719 15.777344 17.671875 13.613281 17.835938 11.789062 C 18 9.960938 19.59375 8.09375 19.59375 8.09375 L 17.507812 8.851562 L 18.238281 6.304688 C 18.238281 6.304688 18.703125 6 18.304688 5.8125 C 17.90625 5.625 17.984375 6.226562 17.984375 6.226562 C 17.796875 6.1875 17.535156 6.179688 17.257812 6.304688 C 16.742188 6.539062 15.546875 6.199219 15.546875 6.199219 C 15.546875 6.199219 16.015625 6.726562 16.367188 6.820312 C 15.992188 7.007812 15.265625 6.9375 15.265625 6.9375 C 15.265625 6.9375 16.15625 7.453125 16.753906 7.265625 C 17.136719 7.144531 17.484375 7.125 17.683594 7.128906 L 17.0625 9.011719 L 15.164062 9.703125 C 15.164062 9.703125 14.835938 10.171875 14.15625 11.53125 C 13.476562 12.890625 14.4375 14.835938 14.4375 14.835938 C 14.4375 14.835938 14.71875 14.40625 15.320312 14.28125 L 14.957031 15.382812 C 13.453125 14.691406 13.125 13.5 13.125 13.5 C 13.125 13.5 13.382812 13.453125 13.382812 13.171875 C 13.382812 12.902344 13.265625 12.761719 12.488281 12.753906 L 12.675781 12.078125 C 13.015625 12.277344 13.265625 12.585938 13.265625 12.585938 C 13.265625 12.585938 12.9375 11.367188 13.617188 10.148438 C 14.296875 8.929688 15.890625 7.875 15.960938 7.875 C 16 7.875 14.796875 8.21875 13.671875 8.535156 L 14.140625 6.859375 C 14.140625 6.859375 14.484375 6.351562 14.109375 6.234375 C 13.734375 6.117188 13.796875 6.765625 13.796875 6.765625 C 13.621094 6.742188 13.394531 6.75 13.15625 6.859375 C 12.640625 7.09375 11.445312 6.753906 11.445312 6.753906 C 11.445312 6.753906 11.914062 7.28125 12.265625 7.375 C 11.890625 7.5625 11.164062 7.492188 11.164062 7.492188 C 11.164062 7.492188 12.054688 8.007812 12.652344 7.820312 C 12.996094 7.710938 13.320312 7.6875 13.53125 7.683594 L 13.25 8.652344 L 11.765625 9.070312 C 11.765625 9.070312 11.460938 9.539062 11.109375 10.664062 C 10.757812 11.789062 11.367188 12.703125 11.367188 12.703125 C 11.367188 12.703125 11.554688 11.90625 12.140625 11.90625 C 12.195312 11.90625 12.25 11.917969 12.304688 11.929688 L 12.066406 12.761719 C 11.503906 12.804688 11.414062 12.957031 11.414062 13.195312 C 11.414062 13.476562 11.71875 13.5 11.71875 13.5 C 11.71875 13.5 11.648438 13.992188 11.835938 14.601562 C 12.023438 15.210938 11.601562 15.09375 10.898438 14.742188 C 10.851562 14.722656 10.804688 14.707031 10.761719 14.691406 L 10.765625 14.6875 L 9 13.898438 C 9 13.898438 8.625 13.359375 8.4375 13.734375 C 8.25 14.109375 8.859375 14.195312 8.859375 14.195312 L 9.871094 14.707031 C 9.671875 14.808594 9.574219 14.972656 9.679688 15.140625 C 9.914062 15.515625 10.429688 15.140625 11.484375 16.171875 C 11.839844 16.519531 12.617188 17.351562 13.753906 18.074219 C 13.957031 18.207031 23.707031 17.78125 23.636719 17.605469 C 23.46875 17.171875 23.097656 16.394531 22.59375 16.195312 C 23.71875 15.1875 23.789062 14.015625 23.789062 14.015625 C 23.789062 14.015625 24.09375 14.015625 24.351562 13.5 C 24.480469 13.242188 24.46875 13.011719 24.316406 12.847656 C 24.675781 12.152344 25.558594 10.445312 25.78125 10.054688 C 26.0625 9.5625 25.78125 9.328125 25.3125 10.289062 Z M 17.4375 15.867188 C 16.691406 15.867188 16.074219 15.765625 15.558594 15.609375 L 15.945312 14.28125 C 16.019531 14.292969 16.089844 14.296875 16.171875 14.320312 C 17.363281 14.648438 18.636719 15.785156 18.644531 15.792969 C 18.28125 15.839844 17.878906 15.867188 17.4375 15.867188 Z M 17.4375 15.867188 "/>
<path fill-rule="nonzero" fill="rgb(0%, 0%, 0%)" fill-opacity="1" d="M 26.015625 17.273438 C 25.429688 16.851562 24.890625 16.992188 24.773438 17.402344 C 24.65625 17.808594 24.117188 17.625 23.53125 17.203125 C 22.945312 16.78125 22.546875 16.851562 22.429688 17.320312 C 22.3125 17.789062 21.65625 17.742188 21.046875 17.296875 C 20.4375 16.851562 19.828125 17.179688 19.59375 17.515625 C 19.359375 17.847656 19.171875 17.882812 18.417969 17.414062 C 17.667969 16.945312 17.132812 17.226562 16.921875 17.625 C 16.710938 18.023438 16.40625 17.929688 15.773438 17.496094 C 15.140625 17.066406 14.554688 17.226562 14.25 17.496094 C 13.945312 17.765625 13.523438 17.859375 12.960938 17.496094 C 12.398438 17.136719 11.953125 17.15625 11.671875 17.445312 C 11.390625 17.734375 11.0625 18.164062 10.171875 17.472656 C 9.28125 16.78125 8.8125 17.367188 8.367188 17.671875 C 7.921875 17.976562 7.5 17.203125 7.5 17.203125 L 7.5 17.695312 C 7.5 17.695312 7.921875 18.46875 8.367188 18.164062 C 8.8125 17.859375 9.28125 17.273438 10.171875 17.964844 C 11.0625 18.65625 11.390625 18.230469 11.671875 17.9375 C 11.953125 17.648438 12.398438 17.628906 12.960938 17.988281 C 13.523438 18.351562 13.945312 18.261719 14.25 17.988281 C 14.554688 17.71875 15.140625 17.558594 15.773438 17.988281 C 16.40625 18.421875 16.710938 18.515625 16.921875 18.117188 C 17.132812 17.71875 17.664062 17.4375 18.417969 17.90625 C 19.171875 18.375 19.359375 18.339844 19.59375 18.007812 C 19.828125 17.671875 20.4375 17.34375 21.046875 17.789062 C 21.65625 18.234375 22.3125 18.28125 22.429688 17.8125 C 22.546875 17.34375 22.945312 17.273438 23.53125 17.695312 C 24.117188 18.117188 24.65625 18.300781 24.773438 17.894531 C 24.890625 17.484375 25.429688 17.34375 26.015625 17.765625 C 26.601562 18.1875 27 18 27 18 L 27 17.507812 C 27 17.507812 26.601562 17.695312 26.015625 17.273438 Z M 26.015625 17.273438 "/>
<path fill-rule="nonzero" fill="rgb(73.332214%, 86.665344%, 96.076965%)" fill-opacity="1" d="M 26.015625 17.765625 C 25.429688 17.34375 24.890625 17.484375 24.773438 17.894531 C 24.65625 18.300781 24.117188 18.117188 23.53125 17.695312 C 22.945312 17.273438 22.546875 17.34375 22.429688 17.8125 C 22.3125 18.28125 21.65625 18.234375 21.046875 17.789062 C 20.4375 17.34375 19.828125 17.671875 19.59375 18.007812 C 19.359375 18.339844 19.171875 18.375 18.417969 17.90625 C 17.667969 17.4375 17.132812 17.71875 16.921875 18.117188 C 16.710938 18.515625 16.40625 18.421875 15.773438 17.988281 C 15.140625 17.558594 14.554688 17.71875 14.25 17.988281 C 13.945312 18.261719 13.523438 18.351562 12.960938 17.988281 C 12.398438 17.628906 11.953125 17.648438 11.671875 17.9375 C 11.390625 18.230469 11.0625 18.65625 10.171875 17.964844 C 9.28125 17.273438 8.8125 17.859375 8.367188 18.164062 C 7.921875 18.46875 7.5 17.695312 7.5 17.695312 L 7.5 18.164062 C 7.5 18.164062 7.921875 18.9375 8.367188 18.632812 C 8.8125 18.328125 9.28125 17.742188 10.171875 18.433594 C 11.0625 19.125 11.390625 18.699219 11.671875 18.40625 C 11.953125 18.117188 12.398438 18.097656 12.960938 18.457031 C 13.523438 18.820312 13.945312 18.730469 14.25 18.457031 C 14.554688 18.1875 15.140625 18.027344 15.773438 18.457031 C 16.40625 18.890625 16.710938 18.984375 16.921875 18.585938 C 17.132812 18.1875 17.664062 17.90625 18.417969 18.375 C 19.171875 18.84375 19.359375 18.808594 19.59375 18.476562 C 19.828125 18.140625 20.4375 17.8125 21.046875 18.257812 C 21.65625 18.703125 22.3125 18.75 22.429688 18.28125 C 22.546875 17.8125 22.945312 17.742188 23.53125 18.164062 C 24.117188 18.585938 24.65625 18.769531 24.773438 18.363281 C 24.890625 17.953125 25.429688 17.8125 26.015625 18.234375 C 26.601562 18.65625 27 18.46875 27 18.46875 L 27 18 C 27 18 26.601562 18.1875 26.015625 17.765625 Z M 9.117188 19.476562 C 9.515625 19.027344 10.125 19.078125 10.59375 19.476562 C 11.0625 19.875 11.273438 19.574219 11.71875 19.3125 C 12.164062 19.054688 12.796875 19.039062 12.9375 19.410156 C 13.078125 19.78125 12.351562 19.277344 11.90625 19.667969 C 11.460938 20.0625 10.738281 20.179688 10.21875 19.667969 C 9.699219 19.160156 8.765625 19.875 9.117188 19.476562 Z M 14.34375 19.566406 C 14.773438 19.710938 15.351562 19.757812 15.867188 19.429688 C 16.382812 19.101562 16.757812 19.253906 17.320312 19.707031 C 17.882812 20.15625 18.304688 20.003906 18.820312 19.707031 C 19.335938 19.40625 19.757812 19.03125 20.484375 19.359375 C 21.210938 19.6875 21.5625 19.71875 21.84375 19.609375 C 22.125 19.5 21.84375 19.992188 21.140625 19.875 C 20.4375 19.757812 19.945312 19.3125 19.3125 19.734375 C 18.679688 20.15625 17.859375 20.550781 17.203125 19.988281 C 16.546875 19.429688 16.195312 19.507812 15.796875 19.75 C 15.398438 19.992188 14.953125 20.015625 14.71875 19.898438 C 14.484375 19.78125 14 19.449219 14.34375 19.566406 Z M 23.367188 19.566406 C 23.636719 19.730469 23.929688 19.773438 24.210938 19.566406 C 24.492188 19.359375 24.773438 19.527344 25.125 19.726562 C 25.476562 19.921875 25.546875 20.144531 25.125 20.007812 C 24.703125 19.875 24.539062 19.578125 24.210938 19.761719 C 23.882812 19.945312 23.53125 19.996094 23.367188 19.761719 C 23.203125 19.523438 23.164062 19.445312 23.367188 19.566406 Z M 11.296875 20.671875 C 11.683594 20.46875 12.304688 20.179688 12.75 20.671875 C 13.195312 21.164062 13.40625 20.90625 13.757812 20.671875 C 14.109375 20.4375 14.414062 20.15625 14.953125 20.507812 C 15.492188 20.859375 15.75 20.761719 15.960938 20.648438 C 16.171875 20.53125 16.359375 20.601562 15.960938 20.835938 C 15.5625 21.070312 15.164062 21.046875 14.859375 20.8125 C 14.554688 20.578125 14.296875 20.460938 13.898438 20.859375 C 13.5 21.257812 12.984375 21.375 12.609375 21 C 12.234375 20.625 12.117188 20.59375 11.742188 20.785156 C 11.367188 20.976562 10.910156 20.875 11.296875 20.671875 Z M 18.46875 20.785156 C 18.941406 20.535156 19.570312 20.109375 20.085938 20.601562 C 20.601562 21.09375 20.90625 20.863281 21.328125 20.578125 C 21.75 20.296875 22.148438 19.886719 22.757812 20.375 C 23.367188 20.859375 23.765625 20.8125 24.070312 20.671875 C 24.375 20.53125 24.234375 20.800781 23.859375 20.890625 C 23.484375 20.976562 22.96875 20.976562 22.617188 20.671875 C 22.265625 20.367188 21.9375 20.382812 21.5625 20.785156 C 21.1875 21.1875 20.25 21.300781 19.898438 20.9375 C 19.546875 20.578125 19.101562 20.789062 18.773438 20.929688 C 18.445312 21.070312 17.996094 21.035156 18.46875 20.785156 Z M 8.625 21.15625 C 8.90625 20.898438 9.28125 21 9.75 21.46875 C 10.21875 21.9375 10.429688 21.84375 10.851562 21.609375 C 11.273438 21.375 11.835938 21.328125 12.070312 21.585938 C 12.304688 21.84375 12.210938 21.925781 11.929688 21.804688 C 11.648438 21.679688 11.378906 21.609375 10.996094 21.9375 C 10.617188 22.265625 9.9375 22.335938 9.609375 21.9375 C 9.28125 21.539062 9.09375 21.304688 8.835938 21.398438 C 8.578125 21.492188 8.25 21.503906 8.625 21.15625 Z M 15.117188 21.613281 C 15.390625 21.320312 15.9375 21.082031 16.476562 21.613281 C 17.015625 22.148438 17.109375 22.078125 17.53125 21.796875 C 17.953125 21.515625 18.445312 21.191406 18.960938 21.671875 C 19.476562 22.148438 19.6875 22.054688 20.132812 21.796875 C 20.578125 21.539062 20.976562 21.308594 21.46875 21.671875 C 21.960938 22.03125 22.335938 22.125 22.757812 21.867188 C 23.179688 21.609375 23.269531 21.722656 22.875 22.054688 C 22.546875 22.328125 21.949219 22.429688 21.539062 22.03125 C 21.019531 21.53125 20.695312 21.679688 20.273438 21.984375 C 19.851562 22.289062 19.191406 22.359375 18.816406 21.960938 C 18.441406 21.5625 18.183594 21.679688 17.835938 21.960938 C 17.484375 22.242188 16.878906 22.53125 16.453125 21.9375 C 16.023438 21.347656 15.609375 21.609375 15.398438 21.726562 C 15.1875 21.84375 14.71875 22.042969 15.117188 21.613281 Z M 15.117188 21.613281 "/>
<path fill-rule="nonzero" fill="rgb(79.214478%, 0%, 0%)" fill-opacity="1" d="M 0 16.5 L 0 20.25 C 0 21.90625 1.34375 23.25 3 23.25 L 7.5 23.25 L 7.5 16.5 Z M 0 16.5 "/>
<path fill-rule="nonzero" fill="rgb(100%, 79.998779%, 30.195618%)" fill-opacity="1" d="M 6.105469 18.480469 C 5.800781 18.597656 5.519531 18.5625 5.144531 18.132812 C 5.070312 18.046875 4.984375 17.992188 4.902344 17.949219 C 5.082031 17.992188 5.3125 18.078125 5.507812 18.09375 C 5.894531 18.128906 6.28125 17.847656 6.28125 17.847656 C 6.28125 17.847656 6.105469 17.707031 5.636719 17.578125 C 5.253906 17.472656 4.609375 17.550781 4.386719 17.855469 C 4.207031 17.863281 4.03125 17.902344 3.890625 17.917969 C 3.648438 17.949219 3.363281 17.835938 3.363281 17.835938 C 3.363281 17.835938 3.316406 17.261719 2.660156 17.261719 C 2.085938 17.261719 2.074219 17.789062 2.074219 17.789062 C 2.074219 17.789062 1.78125 17.929688 1.78125 17.519531 C 1.78125 17.105469 1.453125 17.128906 1.167969 17.128906 C 0.878906 17.128906 0.808594 17.109375 0.808594 17.484375 C 0.808594 17.859375 1.019531 17.789062 1.148438 17.90625 C 1.148438 17.90625 1.277344 18.5625 2.050781 18.46875 C 2.085938 18.535156 2.097656 18.691406 2.097656 18.691406 C 2.097656 18.691406 1.957031 18.730469 1.734375 18.679688 C 1.402344 18.605469 1.160156 18.5625 1.160156 19.019531 C 1.160156 19.476562 1.640625 19.347656 2.320312 19.347656 C 3 19.347656 3.035156 18.925781 3.035156 18.925781 C 3.035156 18.925781 3.351562 18.832031 3.726562 18.855469 C 3.632812 18.9375 3.683594 19.136719 3.773438 19.230469 C 3.953125 19.429688 4.289062 19.347656 4.546875 19.347656 C 4.804688 19.347656 4.921875 19.148438 4.863281 18.878906 C 5.109375 19.054688 5.789062 18.726562 5.707031 18.878906 C 5.625 19.03125 5.824219 19.40625 6.339844 19.195312 C 6.855469 18.984375 6.410156 18.363281 6.105469 18.480469 Z M 6.105469 18.480469 "/>
<path fill-rule="nonzero" fill="rgb(0%, 0%, 0%)" fill-opacity="1" d="M 2.742188 18.1875 C 2.742188 18.308594 2.644531 18.410156 2.523438 18.410156 C 2.40625 18.410156 2.308594 18.308594 2.308594 18.1875 C 2.308594 18.066406 2.40625 17.964844 2.523438 17.964844 C 2.644531 17.964844 2.742188 18.066406 2.742188 18.1875 Z M 2.742188 18.1875 "/>
<path fill-rule="nonzero" fill="rgb(0%, 0%, 0%)" fill-opacity="1" d="M 2.523438 17.769531 C 2.523438 17.824219 2.449219 17.871094 2.359375 17.871094 C 2.265625 17.871094 2.191406 17.828125 2.191406 17.769531 C 2.191406 17.714844 2.265625 17.671875 2.359375 17.671875 C 2.449219 17.671875 2.523438 17.714844 2.523438 17.769531 Z M 2.523438 17.769531 "/>
<path fill-rule="nonzero" fill="rgb(0%, 0%, 0%)" fill-opacity="1" d="M 2.910156 17.769531 C 2.910156 17.828125 2.835938 17.871094 2.742188 17.871094 C 2.648438 17.871094 2.574219 17.828125 2.574219 17.769531 C 2.574219 17.714844 2.648438 17.671875 2.742188 17.671875 C 2.835938 17.671875 2.910156 17.714844 2.910156 17.769531 Z M 2.910156 17.769531 "/>
<path fill-rule="nonzero" fill="rgb(100%, 79.998779%, 30.195618%)" fill-opacity="1" d="M 6.105469 21.117188 C 5.800781 21.234375 5.519531 21.199219 5.144531 20.769531 C 5.070312 20.683594 4.984375 20.628906 4.902344 20.582031 C 5.082031 20.628906 5.3125 20.710938 5.507812 20.730469 C 5.894531 20.765625 6.28125 20.484375 6.28125 20.484375 C 6.28125 20.484375 6.105469 20.34375 5.636719 20.214844 C 5.253906 20.109375 4.613281 20.1875 4.386719 20.492188 C 4.207031 20.5 4.03125 20.539062 3.890625 20.554688 C 3.648438 20.585938 3.363281 20.472656 3.363281 20.472656 C 3.363281 20.472656 3.316406 19.898438 2.660156 19.898438 C 2.085938 19.898438 2.074219 20.425781 2.074219 20.425781 C 2.074219 20.425781 1.78125 20.566406 1.78125 20.152344 C 1.78125 19.742188 1.453125 19.765625 1.167969 19.765625 C 0.878906 19.765625 0.808594 19.746094 0.808594 20.121094 C 0.808594 20.496094 1.019531 20.425781 1.148438 20.542969 C 1.148438 20.542969 1.277344 21.199219 2.050781 21.105469 C 2.085938 21.167969 2.097656 21.328125 2.097656 21.328125 C 2.097656 21.328125 1.957031 21.367188 1.734375 21.316406 C 1.402344 21.242188 1.160156 21.199219 1.160156 21.65625 C 1.160156 22.113281 1.640625 21.984375 2.320312 21.984375 C 3 21.984375 3.035156 21.5625 3.035156 21.5625 C 3.035156 21.5625 3.351562 21.46875 3.726562 21.492188 C 3.632812 21.574219 3.683594 21.773438 3.773438 21.867188 C 3.953125 22.0625 4.289062 21.984375 4.546875 21.984375 C 4.804688 21.984375 4.921875 21.785156 4.863281 21.515625 C 5.109375 21.691406 5.789062 21.363281 5.707031 21.515625 C 5.625 21.667969 5.824219 22.042969 6.339844 21.832031 C 6.855469 21.621094 6.410156 21 6.105469 21.117188 Z M 6.105469 21.117188 "/>
<path fill-rule="nonzero" fill="rgb(0%, 0%, 0%)" fill-opacity="1" d="M 2.742188 20.824219 C 2.742188 20.949219 2.644531 21.046875 2.523438 21.046875 C 2.40625 21.046875 2.308594 20.949219 2.308594 20.824219 C 2.308594 20.703125 2.40625 20.601562 2.523438 20.601562 C 2.644531 20.601562 2.742188 20.703125 2.742188 20.824219 Z M 2.523438 20.410156 C 2.523438 20.464844 2.449219 20.507812 2.359375 20.507812 C 2.265625 20.507812 2.191406 20.464844 2.191406 20.410156 C 2.191406 20.351562 2.265625 20.308594 2.359375 20.308594 C 2.449219 20.308594 2.523438 20.351562 2.523438 20.410156 Z M 2.910156 20.410156 C 2.910156 20.464844 2.835938 20.507812 2.742188 20.507812 C 2.648438 20.507812 2.574219 20.464844 2.574219 20.410156 C 2.574219 20.351562 2.648438 20.308594 2.742188 20.308594 C 2.835938 20.308594 2.910156 20.351562 2.910156 20.410156 Z M 2.910156 20.410156 "/>
<path fill-rule="nonzero" fill="rgb(93.331909%, 93.331909%, 93.331909%)" fill-opacity="1" d="M 0 10.5 L 7.5 10.5 L 7.5 16.5 L 0 16.5 Z M 0 10.5 "/>
<path fill-rule="nonzero" fill="rgb(16.078186%, 18.431091%, 19.999695%)" fill-opacity="1" d="M 1.558594 12.988281 L 1.351562 12.671875 C 1.34375 12.414062 1.304688 12.210938 1.253906 12.210938 C 1.203125 12.210938 1.164062 12.414062 1.15625 12.671875 L 0.949219 12.988281 C 0.902344 13.058594 0.941406 13.117188 1.035156 13.117188 L 1.179688 13.117188 C 1.195312 13.234375 1.222656 13.3125 1.253906 13.3125 C 1.285156 13.3125 1.308594 13.234375 1.328125 13.117188 L 1.472656 13.117188 C 1.566406 13.121094 1.605469 13.0625 1.558594 12.988281 Z M 1.355469 11.886719 C 1.355469 12.066406 1.308594 12.046875 1.253906 12.046875 C 1.199219 12.046875 1.152344 12.066406 1.152344 11.886719 C 1.152344 11.710938 1.199219 11.566406 1.253906 11.566406 C 1.308594 11.566406 1.355469 11.710938 1.355469 11.886719 Z M 1.5 12.246094 C 1.320312 12.246094 1.339844 12.203125 1.339844 12.148438 C 1.339844 12.09375 1.320312 12.046875 1.5 12.046875 C 1.675781 12.046875 1.820312 12.09375 1.820312 12.148438 C 1.820312 12.203125 1.675781 12.246094 1.5 12.246094 Z M 1.007812 12.246094 C 1.1875 12.246094 1.171875 12.203125 1.171875 12.148438 C 1.171875 12.09375 1.1875 12.046875 1.007812 12.046875 C 0.832031 12.046875 0.6875 12.09375 0.6875 12.148438 C 0.6875 12.203125 0.832031 12.246094 1.007812 12.246094 Z M 3.917969 12.988281 L 3.707031 12.671875 C 3.699219 12.414062 3.660156 12.210938 3.613281 12.210938 C 3.5625 12.210938 3.523438 12.414062 3.515625 12.671875 L 3.308594 12.988281 C 3.261719 13.058594 3.300781 13.117188 3.394531 13.117188 L 3.539062 13.117188 C 3.554688 13.234375 3.582031 13.3125 3.613281 13.3125 C 3.640625 13.3125 3.667969 13.234375 3.6875 13.117188 L 3.828125 13.117188 C 3.925781 13.121094 3.964844 13.0625 3.917969 12.988281 Z M 3.710938 11.886719 C 3.710938 12.066406 3.667969 12.046875 3.613281 12.046875 C 3.558594 12.046875 3.511719 12.066406 3.511719 11.886719 C 3.511719 11.710938 3.558594 11.566406 3.613281 11.566406 C 3.667969 11.566406 3.710938 11.710938 3.710938 11.886719 Z M 3.855469 12.246094 C 3.679688 12.246094 3.695312 12.203125 3.695312 12.148438 C 3.695312 12.09375 3.679688 12.046875 3.855469 12.046875 C 4.035156 12.046875 4.179688 12.09375 4.179688 12.148438 C 4.179688 12.203125 4.035156 12.246094 3.855469 12.246094 Z M 3.367188 12.246094 C 3.546875 12.246094 3.527344 12.203125 3.527344 12.148438 C 3.527344 12.09375 3.546875 12.046875 3.367188 12.046875 C 3.191406 12.046875 3.046875 12.09375 3.046875 12.148438 C 3.046875 12.203125 3.191406 12.246094 3.367188 12.246094 Z M 6.332031 12.988281 L 6.121094 12.671875 C 6.113281 12.414062 6.074219 12.210938 6.027344 12.210938 C 5.976562 12.210938 5.9375 12.414062 5.929688 12.671875 L 5.71875 12.988281 C 5.671875 13.058594 5.710938 13.117188 5.808594 13.117188 L 5.949219 13.117188 C 5.96875 13.234375 5.996094 13.3125 6.023438 13.3125 C 6.054688 13.3125 6.082031 13.234375 6.097656 13.117188 L 6.242188 13.117188 C 6.339844 13.121094 6.378906 13.0625 6.332031 12.988281 Z M 6.125 11.886719 C 6.125 12.066406 6.082031 12.046875 6.027344 12.046875 C 5.972656 12.046875 5.925781 12.066406 5.925781 11.886719 C 5.925781 11.710938 5.972656 11.566406 6.027344 11.566406 C 6.082031 11.566406 6.125 11.710938 6.125 11.886719 Z M 6.269531 12.246094 C 6.09375 12.246094 6.109375 12.203125 6.109375 12.148438 C 6.109375 12.09375 6.09375 12.046875 6.269531 12.046875 C 6.449219 12.046875 6.589844 12.09375 6.589844 12.148438 C 6.59375 12.203125 6.449219 12.246094 6.269531 12.246094 Z M 5.78125 12.246094 C 5.960938 12.246094 5.941406 12.203125 5.941406 12.148438 C 5.941406 12.09375 5.960938 12.046875 5.78125 12.046875 C 5.605469 12.046875 5.460938 12.09375 5.460938 12.148438 C 5.460938 12.203125 5.605469 12.246094 5.78125 12.246094 Z M 4.488281 11.023438 C 4.441406 11.09375 4.480469 11.152344 4.574219 11.152344 L 4.71875 11.152344 C 4.738281 11.269531 4.761719 11.347656 4.792969 11.347656 C 4.824219 11.347656 4.847656 11.269531 4.867188 11.152344 L 5.011719 11.152344 C 5.105469 11.152344 5.144531 11.09375 5.097656 11.023438 L 4.890625 10.707031 C 4.886719 10.632812 4.882812 10.5625 4.875 10.5 L 4.710938 10.5 C 4.703125 10.5625 4.699219 10.632812 4.695312 10.707031 Z M 2.132812 11.023438 C 2.085938 11.09375 2.125 11.152344 2.21875 11.152344 L 2.363281 11.152344 C 2.382812 11.269531 2.40625 11.347656 2.4375 11.347656 C 2.46875 11.347656 2.492188 11.269531 2.511719 11.152344 L 2.65625 11.152344 C 2.75 11.152344 2.789062 11.09375 2.742188 11.023438 L 2.535156 10.707031 C 2.53125 10.632812 2.527344 10.5625 2.519531 10.5 L 2.355469 10.5 C 2.347656 10.5625 2.34375 10.632812 2.339844 10.707031 Z M 0.265625 13.820312 C 0.265625 14 0.21875 13.980469 0.164062 13.980469 C 0.109375 13.980469 0.0664062 14 0.0664062 13.820312 C 0.0664062 13.644531 0.109375 13.5 0.164062 13.5 C 0.21875 13.5 0.265625 13.644531 0.265625 13.820312 Z M 0.410156 14.179688 C 0.230469 14.179688 0.25 14.136719 0.25 14.082031 C 0.25 14.027344 0.230469 13.980469 0.410156 13.980469 C 0.585938 13.980469 0.730469 14.027344 0.730469 14.082031 C 0.730469 14.136719 0.585938 14.179688 0.410156 14.179688 Z M 0.164062 11.347656 C 0.195312 11.347656 0.21875 11.269531 0.238281 11.152344 L 0.382812 11.152344 C 0.476562 11.152344 0.515625 11.09375 0.46875 11.023438 L 0.261719 10.707031 C 0.257812 10.632812 0.253906 10.5625 0.246094 10.5 L 0.0820312 10.5 C 0.0742188 10.5625 0.0703125 10.632812 0.0664062 10.707031 L 0 10.8125 L 0 11.152344 L 0.0898438 11.152344 C 0.109375 11.269531 0.132812 11.347656 0.164062 11.347656 Z M 0.164062 15.246094 C 0.195312 15.246094 0.21875 15.167969 0.238281 15.050781 L 0.382812 15.050781 C 0.476562 15.050781 0.515625 14.992188 0.46875 14.921875 L 0.261719 14.605469 C 0.253906 14.347656 0.214844 14.144531 0.164062 14.144531 C 0.113281 14.144531 0.0742188 14.347656 0.0664062 14.605469 L 0 14.710938 L 0 15.050781 L 0.0898438 15.050781 C 0.109375 15.167969 0.132812 15.246094 0.164062 15.246094 Z M 0.0820312 14.082031 C 0.0820312 14.035156 0.0859375 14 0 13.988281 L 0 14.175781 C 0.0859375 14.160156 0.0820312 14.125 0.0820312 14.082031 Z M 2.753906 14.921875 L 2.546875 14.609375 C 2.539062 14.347656 2.5 14.144531 2.449219 14.144531 C 2.398438 14.144531 2.359375 14.347656 2.351562 14.609375 L 2.144531 14.921875 C 2.097656 14.996094 2.136719 15.054688 2.230469 15.054688 L 2.375 15.054688 C 2.394531 15.167969 2.417969 15.246094 2.449219 15.246094 C 2.480469 15.246094 2.503906 15.167969 2.523438 15.054688 L 2.667969 15.054688 C 2.761719 15.050781 2.800781 14.992188 2.753906 14.921875 Z M 2.550781 13.820312 C 2.550781 14 2.503906 13.980469 2.449219 13.980469 C 2.394531 13.980469 2.351562 14 2.351562 13.820312 C 2.351562 13.644531 2.394531 13.5 2.449219 13.5 C 2.503906 13.5 2.550781 13.644531 2.550781 13.820312 Z M 2.695312 14.179688 C 2.515625 14.179688 2.535156 14.136719 2.535156 14.082031 C 2.535156 14.027344 2.515625 13.980469 2.695312 13.980469 C 2.871094 13.980469 3.015625 14.027344 3.015625 14.082031 C 3.015625 14.136719 2.871094 14.179688 2.695312 14.179688 Z M 2.203125 14.179688 C 2.382812 14.179688 2.367188 14.136719 2.367188 14.082031 C 2.367188 14.027344 2.382812 13.980469 2.203125 13.980469 C 2.027344 13.980469 1.882812 14.027344 1.882812 14.082031 C 1.882812 14.136719 2.027344 14.179688 2.203125 14.179688 Z M 5.121094 14.921875 L 4.914062 14.609375 C 4.90625 14.347656 4.867188 14.144531 4.816406 14.144531 C 4.765625 14.144531 4.726562 14.347656 4.71875 14.609375 L 4.511719 14.921875 C 4.464844 14.996094 4.503906 15.054688 4.597656 15.054688 L 4.742188 15.054688 C 4.757812 15.167969 4.785156 15.246094 4.816406 15.246094 C 4.847656 15.246094 4.871094 15.167969 4.890625 15.054688 L 5.035156 15.054688 C 5.128906 15.050781 5.167969 14.992188 5.121094 14.921875 Z M 4.917969 13.820312 C 4.917969 14 4.871094 13.980469 4.816406 13.980469 C 4.761719 13.980469 4.714844 14 4.714844 13.820312 C 4.71875 13.644531 4.761719 13.5 4.816406 13.5 C 4.871094 13.5 4.917969 13.644531 4.917969 13.820312 Z M 5.0625 14.179688 C 4.882812 14.179688 4.902344 14.136719 4.902344 14.082031 C 4.902344 14.027344 4.882812 13.980469 5.0625 13.980469 C 5.238281 13.980469 5.382812 14.027344 5.382812 14.082031 C 5.382812 14.136719 5.238281 14.179688 5.0625 14.179688 Z M 4.570312 14.179688 C 4.75 14.179688 4.734375 14.136719 4.734375 14.082031 C 4.734375 14.027344 4.75 13.980469 4.570312 13.980469 C 4.394531 13.980469 4.25 14.027344 4.25 14.082031 C 4.25 14.136719 4.394531 14.179688 4.570312 14.179688 Z M 7.347656 13.820312 C 7.347656 14 7.300781 13.980469 7.246094 13.980469 C 7.191406 13.980469 7.148438 14 7.148438 13.820312 C 7.148438 13.644531 7.191406 13.5 7.246094 13.5 C 7.304688 13.5 7.347656 13.644531 7.347656 13.820312 Z M 6.902344 11.023438 C 6.855469 11.09375 6.894531 11.152344 6.988281 11.152344 L 7.132812 11.152344 C 7.152344 11.269531 7.175781 11.347656 7.207031 11.347656 C 7.238281 11.347656 7.265625 11.269531 7.28125 11.152344 L 7.425781 11.152344 C 7.460938 11.152344 7.480469 11.136719 7.5 11.125 L 7.5 11.003906 L 7.304688 10.707031 C 7.300781 10.632812 7.296875 10.5625 7.289062 10.5 L 7.125 10.5 C 7.117188 10.5625 7.113281 10.632812 7.113281 10.707031 Z M 7.246094 14.144531 C 7.199219 14.144531 7.160156 14.347656 7.152344 14.605469 L 6.941406 14.921875 C 6.894531 14.992188 6.933594 15.050781 7.027344 15.050781 L 7.171875 15.050781 C 7.191406 15.167969 7.214844 15.246094 7.246094 15.246094 C 7.277344 15.246094 7.304688 15.167969 7.320312 15.050781 L 7.464844 15.050781 C 7.480469 15.050781 7.484375 15.042969 7.5 15.039062 L 7.5 14.84375 L 7.34375 14.609375 C 7.335938 14.347656 7.296875 14.144531 7.246094 14.144531 Z M 7.332031 14.082031 C 7.332031 14.136719 7.3125 14.179688 7.492188 14.179688 L 7.5 14.179688 L 7.5 13.980469 L 7.492188 13.980469 C 7.3125 13.980469 7.332031 14.027344 7.332031 14.082031 Z M 7.003906 14.179688 C 7.179688 14.179688 7.164062 14.136719 7.164062 14.082031 C 7.164062 14.027344 7.179688 13.980469 7.003906 13.980469 C 6.824219 13.980469 6.679688 14.027344 6.679688 14.082031 C 6.679688 14.136719 6.824219 14.179688 7.003906 14.179688 Z M 5.949219 16.5 L 6.128906 16.5 C 6.113281 16.296875 6.082031 16.148438 6.039062 16.148438 C 6 16.148438 5.964844 16.296875 5.949219 16.5 Z M 6.140625 15.824219 C 6.140625 16.003906 6.09375 15.984375 6.039062 15.984375 C 5.984375 15.984375 5.941406 16.003906 5.941406 15.824219 C 5.941406 15.648438 5.984375 15.503906 6.039062 15.503906 C 6.09375 15.503906 6.140625 15.648438 6.140625 15.824219 Z M 6.285156 16.183594 C 6.105469 16.183594 6.125 16.140625 6.125 16.085938 C 6.125 16.03125 6.105469 15.984375 6.285156 15.984375 C 6.460938 15.984375 6.605469 16.03125 6.605469 16.085938 C 6.605469 16.140625 6.460938 16.183594 6.285156 16.183594 Z M 5.796875 16.183594 C 5.972656 16.183594 5.957031 16.140625 5.957031 16.085938 C 5.957031 16.03125 5.972656 15.984375 5.796875 15.984375 C 5.617188 15.984375 5.472656 16.03125 5.472656 16.085938 C 5.472656 16.140625 5.617188 16.183594 5.796875 16.183594 Z M 3.738281 15.824219 C 3.738281 16.003906 3.691406 15.984375 3.636719 15.984375 C 3.582031 15.984375 3.539062 16.003906 3.539062 15.824219 C 3.539062 15.648438 3.582031 15.503906 3.636719 15.503906 C 3.691406 15.503906 3.738281 15.648438 3.738281 15.824219 Z M 3.882812 16.183594 C 3.703125 16.183594 3.722656 16.140625 3.722656 16.085938 C 3.722656 16.03125 3.703125 15.984375 3.882812 15.984375 C 4.058594 15.984375 4.203125 16.03125 4.203125 16.085938 C 4.203125 16.140625 4.058594 16.183594 3.882812 16.183594 Z M 3.394531 16.183594 C 3.570312 16.183594 3.554688 16.140625 3.554688 16.085938 C 3.554688 16.03125 3.570312 15.984375 3.394531 15.984375 C 3.214844 15.984375 3.070312 16.03125 3.070312 16.085938 C 3.070312 16.140625 3.214844 16.183594 3.394531 16.183594 Z M 3.546875 16.5 L 3.726562 16.5 C 3.710938 16.296875 3.679688 16.148438 3.636719 16.148438 C 3.597656 16.148438 3.5625 16.296875 3.546875 16.5 Z M 1.136719 16.5 L 1.316406 16.5 C 1.300781 16.296875 1.265625 16.148438 1.226562 16.148438 C 1.183594 16.148438 1.152344 16.296875 1.136719 16.5 Z M 1.324219 15.824219 C 1.324219 16.003906 1.28125 15.984375 1.226562 15.984375 C 1.171875 15.984375 1.125 16.003906 1.125 15.824219 C 1.125 15.648438 1.171875 15.503906 1.226562 15.503906 C 1.28125 15.503906 1.324219 15.648438 1.324219 15.824219 Z M 1.472656 16.183594 C 1.292969 16.183594 1.308594 16.140625 1.308594 16.085938 C 1.308594 16.03125 1.292969 15.984375 1.472656 15.984375 C 1.648438 15.984375 1.792969 16.03125 1.792969 16.085938 C 1.792969 16.140625 1.648438 16.183594 1.472656 16.183594 Z M 0.980469 16.183594 C 1.160156 16.183594 1.140625 16.140625 1.140625 16.085938 C 1.140625 16.03125 1.160156 15.984375 0.980469 15.984375 C 0.804688 15.984375 0.660156 16.03125 0.660156 16.085938 C 0.660156 16.140625 0.804688 16.183594 0.980469 16.183594 Z M 0.980469 16.183594 "/>
<path fill-rule="nonzero" fill="rgb(86.273193%, 14.117432%, 12.156677%)" fill-opacity="1" d="M 0 10.5 L 0 6.75 C 0 5.09375 1.34375 3.75 3 3.75 L 3.75 4.5 L 4.5 3.75 L 7.5 3.75 L 7.5 10.5 L 4.5 10.5 L 3.75 9.75 L 3 10.5 Z M 0 10.5 "/>
<path fill-rule="nonzero" fill="rgb(0%, 58.430481%, 26.274109%)" fill-opacity="1" d="M 7.5 4.867188 L 7.5 3.75 L 7.074219 3.75 L 4.5 6.066406 L 3.75 6.734375 L 3 6.066406 L 1.144531 4.394531 L 1.140625 4.394531 C 0.847656 4.625 0.597656 4.914062 0.410156 5.234375 L 0.410156 5.238281 L 2.074219 6.734375 L 2.996094 7.492188 L 2.074219 8.25 L 0 10.117188 L 0 10.5 L 1.242188 10.5 L 3 8.917969 L 3.75 8.25 L 4.5 8.917969 L 6.257812 10.5 L 7.5 10.5 L 7.5 10.117188 L 5.425781 8.25 L 4.496094 7.492188 L 5.425781 6.734375 Z M 7.5 4.867188 "/>
<path fill-rule="nonzero" fill="rgb(93.331909%, 93.331909%, 93.331909%)" fill-opacity="1" d="M 4.5 6.734375 L 4.5 3.75 L 3 3.75 L 3 6.734375 L 0 6.734375 L 0 8.25 L 3 8.25 L 3 10.5 L 4.5 10.5 L 4.5 8.25 L 7.5 8.25 L 7.5 6.734375 Z M 4.5 6.734375 "/>
</svg>