<svg xmlns="http://www.w3.org/2000/svg" xmlns:xlink="http://www.w3.org/1999/xlink" viewBox="0 0 27 27">
<path fill-rule="nonzero" fill="rgb(0%, 14.117432%, 49.01886%)" fill-opacity="1" d="M 24 3.75 L 3 3.75 C 2.847656 3.75 2.695312 3.761719 2.546875 3.785156 L 2.542969 5.097656 L 0.496094 5.097656 C 0.183594 5.570312 0 6.140625 0 6.75 L 0 20.25 C 0 21.90625 1.34375 23.25 3 23.25 L 24 23.25 C 25.65625 23.25 27 21.90625 27 20.25 L 27 6.75 C 27 5.09375 25.65625 3.75 24 3.75 Z M 24 3.75 "/>
<path fill-rule="nonzero" fill="rgb(86.665344%, 18.03894%, 26.66626%)" fill-opacity="1" d="M 22.847656 15.113281 C 22.847656 15.480469 22.425781 15.78125 21.910156 15.78125 C 21.390625 15.78125 20.96875 15.484375 20.96875 15.113281 C 20.96875 14.746094 21.390625 14.449219 21.910156 14.449219 C 22.425781 14.449219 22.847656 14.746094 22.847656 15.113281 Z M 22.847656 15.113281 "/>
<path fill-rule="nonzero" fill="rgb(0%, 60.391235%, 40.391541%)" fill-opacity="1" d="M 18.558594 14.078125 C 18.558594 14.394531 19.507812 14.765625 20.273438 13.832031 C 21.039062 12.902344 20.816406 14.167969 20.5 14.367188 C 20.1875 14.5625 19.851562 15.035156 19.175781 14.964844 C 18.5 14.890625 18.328125 14.625 18.171875 14.234375 C 18.015625 13.84375 18.558594 14.078125 18.558594 14.078125 Z M 18.558594 14.078125 "/>
<path fill-rule="nonzero" fill="rgb(100%, 94.508362%, 0%)" fill-opacity="1" d="M 18.695312 12.089844 C 18.773438 12.285156 18.679688 12.5 18.488281 12.582031 L 17.792969 12.863281 C 17.601562 12.941406 17.382812 12.851562 17.304688 12.660156 C 17.226562 12.46875 17.320312 12.25 17.511719 12.171875 L 18.207031 11.886719 C 18.398438 11.808594 18.617188 11.898438 18.695312 12.089844 Z M 24.671875 14.203125 C 24.5625 14.378906 24.359375 14.445312 24.222656 14.359375 L 23.242188 13.722656 C 23.105469 13.632812 23.085938 13.421875 23.199219 13.246094 C 23.3125 13.074219 23.511719 13.003906 23.648438 13.09375 L 24.632812 13.730469 C 24.765625 13.816406 24.785156 14.03125 24.671875 14.203125 Z M 24.671875 14.203125 "/>
<path fill-rule="nonzero" fill="rgb(100%, 94.508362%, 0%)" fill-opacity="1" d="M 24.800781 13.972656 C 24.855469 14.171875 24.742188 14.378906 24.539062 14.433594 C 24.339844 14.488281 24.132812 14.375 24.078125 14.175781 L 23.675781 12.730469 C 23.621094 12.53125 23.738281 12.324219 23.9375 12.265625 C 24.136719 12.210938 24.34375 12.328125 24.398438 12.527344 Z M 24.800781 13.972656 "/>
<path fill-rule="nonzero" fill="rgb(100%, 94.508362%, 0%)" fill-opacity="1" d="M 25.109375 14.140625 C 25.109375 14.347656 24.941406 14.515625 24.734375 14.515625 C 24.527344 14.515625 24.359375 14.347656 24.359375 14.140625 C 24.359375 13.933594 24.527344 13.765625 24.734375 13.765625 C 24.941406 13.765625 25.109375 13.933594 25.109375 14.140625 Z M 25.109375 14.140625 "/>
<path fill-rule="nonzero" fill="rgb(0%, 60.391235%, 40.391541%)" fill-opacity="1" d="M 18.75 13.96875 C 18.75 14.125 18.582031 14.25 18.375 14.25 C 18.167969 14.25 18 14.125 18 13.96875 L 18 12.28125 C 18 12.125 18.167969 12 18.375 12 C 18.582031 12 18.75 12.125 18.75 12.28125 Z M 18.75 13.96875 "/>
<path fill-rule="nonzero" fill="rgb(0%, 60.391235%, 40.391541%)" fill-opacity="1" d="M 19.289062 13.191406 C 19.414062 13.355469 19.414062 13.566406 19.292969 13.65625 L 18.402344 14.324219 C 18.28125 14.414062 18.078125 14.355469 17.953125 14.191406 C 17.832031 14.023438 17.828125 13.816406 17.953125 13.722656 L 18.839844 13.054688 C 18.964844 12.964844 19.164062 13.023438 19.289062 13.191406 Z M 19.289062 13.191406 "/>
<path fill-rule="nonzero" fill="rgb(0%, 60.391235%, 40.391541%)" fill-opacity="1" d="M 18.402344 13.960938 C 18.402344 14.164062 18.222656 14.332031 18 14.332031 C 17.777344 14.332031 17.597656 14.164062 17.597656 13.960938 C 17.597656 13.757812 17.777344 13.589844 18 13.589844 C 18.222656 13.589844 18.402344 13.757812 18.402344 13.960938 Z M 25.382812 12.75 C 25.304688 12.945312 24.890625 12.953125 24.464844 12.773438 C 24.042969 12.589844 23.761719 12.289062 23.847656 12.09375 C 23.929688 11.902344 24.339844 11.890625 24.765625 12.074219 C 25.191406 12.253906 25.46875 12.558594 25.382812 12.75 Z M 25.382812 12.75 "/>
<path fill-rule="nonzero" fill="rgb(83.135986%, 83.528137%, 83.920288%)" fill-opacity="1" d="M 20.855469 12.941406 C 20.417969 13.222656 19.835938 13.75 19.835938 13.75 L 20.160156 13.789062 C 20.160156 13.789062 20.558594 14.203125 20.625 14.597656 C 20.695312 14.992188 20.539062 14.726562 20.503906 15.03125 C 20.472656 15.335938 20.644531 15.539062 20.644531 15.539062 C 20.644531 15.539062 21.113281 15.382812 21.421875 15.144531 C 21.730469 14.90625 21.9375 14.550781 22.117188 14.734375 C 22.292969 14.914062 22.269531 15 22.269531 15 L 22.5 15 C 22.5 15 22.121094 14.628906 22.125 14.417969 C 22.132812 14.203125 21.792969 13.152344 21.792969 13.152344 Z M 20.34375 11.996094 C 20.34375 11.996094 20.699219 11.726562 20.660156 11.757812 C 20.625 11.792969 21.066406 11.945312 21.332031 11.835938 C 21.597656 11.726562 22.121094 11.199219 22.25 11.277344 C 22.378906 11.355469 21.601562 11.808594 21.925781 11.882812 C 22.25 11.953125 22.351562 11.679688 22.550781 11.582031 C 22.753906 11.484375 23.066406 11.46875 22.761719 11.671875 C 22.460938 11.871094 22.042969 12.738281 22.042969 12.738281 L 20.820312 12.640625 L 20.5 12.40625 Z M 20.34375 11.996094 "/>
<path fill-rule="nonzero" fill="rgb(0%, 60.391235%, 40.391541%)" fill-opacity="1" d="M 22.429688 12.902344 C 22.429688 13.074219 21.976562 13.214844 21.421875 13.214844 C 20.863281 13.214844 20.414062 13.074219 20.414062 12.902344 C 20.414062 12.730469 20.863281 12.589844 21.421875 12.589844 C 21.976562 12.589844 22.429688 12.730469 22.429688 12.902344 Z M 19.097656 16.609375 C 19.046875 16.773438 18.671875 16.800781 18.257812 16.671875 C 17.847656 16.539062 17.554688 16.300781 17.609375 16.136719 C 17.660156 15.972656 18.035156 15.945312 18.449219 16.078125 C 18.859375 16.207031 19.152344 16.445312 19.097656 16.609375 Z M 24.804688 17.828125 C 24.78125 17.953125 24.410156 17.996094 23.972656 17.917969 C 23.535156 17.84375 23.199219 17.675781 23.222656 17.550781 C 23.242188 17.421875 23.617188 17.382812 24.050781 17.460938 C 24.488281 17.535156 24.824219 17.699219 24.804688 17.828125 Z M 24.804688 17.828125 "/>
<path fill-rule="nonzero" fill="rgb(0%, 60.391235%, 40.391541%)" fill-opacity="1" d="M 24.0625 17.886719 C 23.945312 18.457031 23.746094 18.894531 23.617188 18.867188 C 23.492188 18.839844 23.484375 18.359375 23.601562 17.792969 C 23.71875 17.226562 23.917969 16.789062 24.046875 16.8125 C 24.171875 16.839844 24.179688 17.320312 24.0625 17.886719 Z M 22.175781 13.003906 C 22.382812 13.539062 22.964844 14.597656 23.519531 14.605469 C 24.070312 14.613281 24.144531 14.375 24.144531 14.375 C 24.144531 14.375 24.164062 14.796875 23.660156 14.875 C 23.15625 14.953125 22.871094 14.703125 22.964844 14.789062 C 23.054688 14.875 23.257812 15.070312 23.730469 15.191406 C 24.199219 15.316406 25 15.460938 24.976562 15.910156 C 24.953125 16.359375 24.640625 16.53125 24.671875 16.335938 C 24.703125 16.136719 24.347656 15.777344 23.730469 15.636719 C 23.109375 15.496094 22.40625 15.160156 22.101562 14.15625 C 21.792969 13.148438 22.042969 14.0625 22.042969 14.0625 C 22.042969 14.0625 21.4375 14.246094 21.441406 13.945312 C 21.441406 13.640625 21.910156 13.800781 21.816406 13.414062 C 21.71875 13.03125 21.492188 12.765625 21.71875 12.847656 C 21.945312 12.929688 22.175781 13.003906 22.175781 13.003906 Z M 20.648438 14.375 C 20.34375 14.84375 19.460938 15.5 19.175781 15.8125 C 18.890625 16.121094 18.683594 16.703125 18.621094 17.089844 C 18.5625 17.480469 18.679688 18.078125 18.894531 17.40625 C 19.109375 16.734375 19.492188 16.476562 19.878906 16.042969 C 20.265625 15.609375 20.527344 15.324219 20.671875 15.035156 C 20.8125 14.746094 20.648438 14.375 20.648438 14.375 Z M 20.648438 14.375 "/>
<path fill-rule="nonzero" fill="rgb(100%, 94.508362%, 0%)" fill-opacity="1" d="M 22.464844 14.691406 C 22.5625 15.007812 22.550781 15.285156 22.445312 15.320312 C 22.335938 15.351562 22.171875 15.121094 22.078125 14.808594 C 21.984375 14.496094 21.996094 14.214844 22.101562 14.179688 C 22.207031 14.148438 22.371094 14.378906 22.464844 14.691406 Z M 19.8125 14.6875 C 19.8125 14.78125 19.582031 14.859375 19.296875 14.859375 C 19.011719 14.859375 18.78125 14.78125 18.78125 14.6875 C 18.78125 14.59375 19.011719 14.515625 19.296875 14.515625 C 19.582031 14.515625 19.8125 14.59375 19.8125 14.6875 Z M 18.984375 17.796875 C 19.097656 18.375 19.082031 18.863281 18.949219 18.890625 C 18.820312 18.914062 18.625 18.464844 18.511719 17.886719 C 18.402344 17.308594 18.417969 16.816406 18.550781 16.792969 C 18.679688 16.765625 18.875 17.214844 18.984375 17.796875 Z M 18.984375 17.796875 "/>
<path fill-rule="nonzero" fill="rgb(100%, 94.508362%, 0%)" fill-opacity="1" d="M 19.367188 17.6875 C 19.367188 17.804688 19.035156 17.898438 18.625 17.898438 C 18.21875 17.898438 17.886719 17.804688 17.886719 17.6875 C 17.886719 17.574219 18.21875 17.476562 18.625 17.476562 C 19.035156 17.476562 19.367188 17.574219 19.367188 17.6875 Z M 19.535156 19.332031 C 19.675781 19.621094 19.714844 19.890625 19.617188 19.9375 C 19.523438 19.984375 19.328125 19.792969 19.1875 19.503906 C 19.046875 19.21875 19.007812 18.945312 19.105469 18.898438 C 19.199219 18.851562 19.390625 19.046875 19.535156 19.332031 Z M 23.609375 19.515625 C 23.398438 19.8125 23.121094 19.976562 22.980469 19.882812 C 22.84375 19.785156 22.902344 19.464844 23.109375 19.167969 C 23.316406 18.871094 23.597656 18.707031 23.734375 18.804688 C 23.871094 18.898438 23.816406 19.21875 23.609375 19.515625 Z M 25.316406 16.066406 C 25.410156 16.21875 25.128906 16.5625 24.683594 16.832031 C 24.242188 17.105469 23.808594 17.199219 23.714844 17.046875 C 23.621094 16.894531 23.902344 16.550781 24.347656 16.28125 C 24.789062 16.011719 25.222656 15.914062 25.316406 16.066406 Z M 17.730469 15.910156 C 17.941406 15.414062 18.597656 15.148438 19.03125 15.035156 C 19.460938 14.921875 19.558594 14.789062 19.90625 14.515625 C 20.257812 14.242188 20.171875 14.054688 20.34375 14.179688 C 20.515625 14.304688 20.65625 14.359375 20.492188 14.59375 C 20.328125 14.824219 19.753906 15.316406 19.382812 15.460938 C 19.011719 15.605469 18.28125 15.910156 18.234375 15.996094 C 18.1875 16.078125 17.660156 16.078125 17.730469 15.910156 Z M 17.730469 15.910156 "/>
<path fill-rule="nonzero" fill="rgb(30.195618%, 56.077576%, 79.998779%)" fill-opacity="1" d="M 19.410156 15.144531 L 22.992188 15.144531 L 22.992188 17.867188 C 22.992188 19.027344 21.199219 20.234375 21.199219 20.234375 C 21.199219 20.234375 19.410156 19.050781 19.410156 17.8125 Z M 19.410156 15.144531 "/>
<path fill-rule="nonzero" fill="rgb(0%, 60.391235%, 40.391541%)" fill-opacity="1" d="M 22.765625 18.613281 L 21.222656 15.554688 L 19.558594 18.425781 C 19.976562 19.414062 21.199219 20.234375 21.199219 20.234375 C 21.199219 20.234375 22.289062 19.492188 22.765625 18.613281 Z M 22.765625 18.613281 "/>
<path fill-rule="nonzero" fill="rgb(100%, 94.508362%, 0%)" fill-opacity="1" d="M 19.554688 18.234375 L 19.671875 18.523438 L 21.222656 15.71875 L 22.726562 18.5 L 22.847656 18.191406 L 21.253906 15.144531 Z M 22.90625 15.433594 C 23.15625 15.84375 23.613281 15.722656 23.808594 16.414062 C 24.007812 17.109375 23.902344 17.863281 23.695312 17.269531 C 23.492188 16.671875 23.429688 16.339844 22.847656 16.183594 C 22.265625 16.03125 22.90625 15.433594 22.90625 15.433594 Z M 19.175781 19.03125 L 19.027344 19.898438 L 19.8125 19.5 Z M 23.324219 19.167969 L 22.585938 19.511719 L 23.398438 19.996094 Z M 23.324219 19.167969 "/>
<path fill-rule="nonzero" fill="rgb(100%, 94.508362%, 0%)" fill-opacity="1" d="M 21.9375 17.859375 C 21.9375 17.9375 21.875 18 21.796875 18 L 20.707031 18 C 20.628906 18 20.566406 17.9375 20.566406 17.859375 C 20.566406 17.78125 20.628906 17.71875 20.707031 17.71875 L 21.796875 17.71875 C 21.875 17.71875 21.9375 17.785156 21.9375 17.859375 Z M 21.9375 17.859375 "/>
<path fill-rule="nonzero" fill="rgb(100%, 94.508362%, 0%)" fill-opacity="1" d="M 21.320312 19.304688 C 21.320312 19.410156 21.292969 19.5 21.257812 19.5 L 21.140625 19.5 C 21.109375 19.5 21.078125 19.414062 21.078125 19.304688 L 21.078125 17.445312 C 21.078125 17.335938 21.109375 17.25 21.140625 17.25 L 21.257812 17.25 C 21.292969 17.25 21.320312 17.335938 21.320312 17.445312 Z M 21.320312 19.304688 "/>
<path fill-rule="nonzero" fill="rgb(100%, 94.508362%, 0%)" fill-opacity="1" d="M 20.285156 18.621094 L 20.726562 19.078125 L 20.648438 19.171875 L 21.140625 19.5 L 21.816406 19.175781 L 21.675781 19.082031 L 22.164062 18.714844 L 22.09375 19.339844 L 21.914062 19.285156 L 21.207031 19.882812 L 20.464844 19.253906 L 20.320312 19.269531 Z M 20.285156 18.621094 "/>
<path fill-rule="nonzero" fill="rgb(0%, 14.117432%, 49.01886%)" fill-opacity="1" d="M 14.25 13.5 L 14.25 3.75 L 3 3.75 C 2.761719 3.75 2.546875 3.785156 2.546875 3.785156 L 2.542969 5.097656 L 0.496094 5.097656 C 0.496094 5.097656 0.464844 5.140625 0.402344 5.25 C 0.144531 5.691406 0 6.203125 0 6.75 L 0 13.5 Z M 14.25 13.5 "/>
<path fill-rule="nonzero" fill="rgb(93.331909%, 93.331909%, 93.331909%)" fill-opacity="1" d="M 14.25 3.75 L 12.5 3.75 L 9 6.203125 L 9 3.75 L 5.25 3.75 L 5.25 5.675781 L 2.546875 3.785156 C 2.085938 3.855469 1.65625 4.027344 1.292969 4.28125 L 4.820312 6.75 L 3.515625 6.75 L 0.726562 4.792969 C 0.644531 4.890625 0.566406 4.988281 0.496094 5.097656 L 2.859375 6.75 L 0 6.75 L 0 10.5 L 2.914062 10.5 L 0 12.574219 L 0 13.5 L 2.5 13.5 L 5.25 11.574219 L 5.25 13.5 L 9 13.5 L 9 11.046875 L 12.5 13.5 L 14.25 13.5 L 14.25 11.976562 L 12.140625 10.5 L 14.25 10.5 L 14.25 6.75 L 12.140625 6.75 L 14.25 5.273438 Z M 14.25 3.75 "/>
<path fill-rule="nonzero" fill="rgb(81.175232%, 10.588074%, 16.862488%)" fill-opacity="1" d="M 8.25 3.75 L 6 3.75 L 6 7.5 L 0 7.5 L 0 9.75 L 6 9.75 L 6 13.5 L 8.25 13.5 L 8.25 9.75 L 14.25 9.75 L 14.25 7.5 L 8.25 7.5 Z M 8.25 3.75 "/>
<path fill-rule="nonzero" fill="rgb(81.175232%, 10.588074%, 16.862488%)" fill-opacity="1" d="M 14.25 3.75 L 13.152344 3.75 L 9 6.660156 L 9 6.75 L 10.179688 6.75 L 14.25 3.898438 Z M 1.292969 4.28125 C 1.082031 4.429688 0.890625 4.601562 0.726562 4.792969 L 3.515625 6.75 L 4.820312 6.75 Z M 4.828125 10.5 L 0.550781 13.5 L 1.847656 13.5 L 5.25 11.117188 L 5.25 10.5 Z M 14.25 13.351562 L 14.25 12.4375 L 11.484375 10.5 L 10.175781 10.5 Z M 14.25 13.351562 "/>
</svg>