<svg xmlns="http://www.w3.org/2000/svg" xmlns:xlink="http://www.w3.org/1999/xlink" viewBox="0 0 27 27">
<path fill-rule="nonzero" fill="rgb(91.763306%, 4.31366%, 9.803772%)" fill-opacity="1" d="M 24 3.75 L 3 3.75 C 2.242188 3.75 1.554688 4.03125 1.027344 4.492188 L 5.191406 7.5 L 27 7.5 L 27 6.75 C 27 5.09375 25.65625 3.75 24 3.75 Z M 24 3.75 "/>
<path fill-rule="nonzero" fill="rgb(93.331909%, 93.331909%, 93.331909%)" fill-opacity="1" d="M 10.382812 11.25 L 27 11.25 L 27 7.5 L 5.191406 7.5 Z M 10.382812 11.25 "/>
<path fill-rule="nonzero" fill="rgb(91.763306%, 4.31366%, 9.803772%)" fill-opacity="1" d="M 13.5 13.5 L 10.382812 15.75 L 27 15.75 L 27 11.25 L 10.382812 11.25 Z M 13.5 13.5 "/>
<path fill-rule="nonzero" fill="rgb(93.331909%, 93.331909%, 93.331909%)" fill-opacity="1" d="M 5.191406 19.5 L 27 19.5 L 27 15.75 L 10.382812 15.75 Z M 5.191406 19.5 "/>
<path fill-rule="nonzero" fill="rgb(91.763306%, 4.31366%, 9.803772%)" fill-opacity="1" d="M 1.027344 22.507812 C 1.554688 22.96875 2.242188 23.25 3 23.25 L 24 23.25 C 25.65625 23.25 27 21.90625 27 20.25 L 27 19.5 L 5.191406 19.5 Z M 1.027344 22.507812 "/>
<path fill-rule="nonzero" fill="rgb(5.882263%, 33.332825%, 92.547607%)" fill-opacity="1" d="M 10.382812 15.75 L 13.5 13.5 L 10.382812 11.25 L 5.191406 7.5 L 1.027344 4.492188 C 0.398438 5.042969 0 5.847656 0 6.75 L 0 20.25 C 0 21.152344 0.398438 21.957031 1.027344 22.507812 L 5.191406 19.5 Z M 10.382812 15.75 "/>
<path fill-rule="nonzero" fill="rgb(100%, 100%, 100%)" fill-opacity="1" d="M 6.140625 14.128906 L 7.875 12.871094 L 5.730469 12.871094 L 5.066406 10.828125 L 4.398438 12.871094 L 2.25 12.871094 L 3.984375 14.128906 L 3.320312 16.171875 L 5.0625 14.910156 L 6.804688 16.171875 Z M 6.140625 14.128906 "/>
</svg>