<svg xmlns="http://www.w3.org/2000/svg" xmlns:xlink="http://www.w3.org/1999/xlink" viewBox="0 0 27 27">
<path fill-rule="nonzero" fill="rgb(19.999695%, 39.99939%, 100%)" fill-opacity="1" d="M 24 3.75 L 3 3.75 C 1.34375 3.75 0 5.09375 0 6.75 L 0 20.25 C 0 21.90625 1.34375 23.25 3 23.25 L 24 23.25 C 25.65625 23.25 27 21.90625 27 20.25 L 27 6.75 C 27 5.09375 25.65625 3.75 24 3.75 Z M 24 3.75 "/>
<path fill-rule="nonzero" fill="rgb(100%, 0%, 0%)" fill-opacity="1" d="M 13.5 13.5 L 1.027344 22.507812 C 1.554688 22.972656 2.246094 23.25 3 23.25 L 24 23.25 C 24.757812 23.25 25.445312 22.96875 25.972656 22.507812 Z M 13.5 13.5 "/>
<path fill-rule="nonzero" fill="rgb(100%, 100%, 0%)" fill-opacity="1" d="M 13.5 13.515625 L 27 14.628906 L 27 12.398438 Z M 0 12.398438 L 0 14.628906 L 13.5 13.515625 Z M 1.804688 4 C 1.148438 4.285156 0.613281 4.796875 0.304688 5.433594 L 13.5 13.5 L 1.804688 3.996094 Z M 26.695312 5.433594 C 26.382812 4.796875 25.851562 4.285156 25.195312 3.996094 L 13.5 13.5 Z M 14.625 3.75 L 12.375 3.75 L 13.5 13.5 Z M 14.625 3.75 "/>
</svg>