<svg xmlns="http://www.w3.org/2000/svg" xmlns:xlink="http://www.w3.org/1999/xlink" viewBox="0 0 27 27">
<path fill-rule="nonzero" fill="rgb(0%, 14.117432%, 49.01886%)" fill-opacity="1" d="M 24 3.75 L 3 3.75 C 2.847656 3.75 2.695312 3.761719 2.546875 3.785156 L 2.542969 5.097656 L 0.496094 5.097656 C 0.183594 5.570312 0 6.140625 0 6.75 L 0 20.25 C 0 21.90625 1.34375 23.25 3 23.25 L 24 23.25 C 25.65625 23.25 27 21.90625 27 20.25 L 27 6.75 C 27 5.09375 25.65625 3.75 24 3.75 Z M 24 3.75 "/>
<path fill-rule="nonzero" fill="rgb(93.331909%, 93.331909%, 93.331909%)" fill-opacity="1" d="M 20.601562 17.632812 C 17.152344 16.285156 17.28125 13.15625 17.421875 9.84375 L 17.429688 9.65625 L 17.585938 9.550781 C 17.871094 9.355469 19.242188 8.976562 20.738281 8.976562 C 22.238281 8.976562 23.609375 9.355469 23.890625 9.550781 L 24.046875 9.65625 L 24.054688 9.84375 C 24.195312 13.15625 24.328125 16.285156 20.875 17.632812 L 20.738281 17.6875 Z M 20.601562 17.632812 "/>
<path fill-rule="nonzero" fill="rgb(100%, 100%, 0%)" fill-opacity="1" d="M 23.679688 9.859375 C 23.472656 9.71875 22.191406 9.351562 20.738281 9.351562 C 19.285156 9.351562 18.003906 9.71875 17.796875 9.859375 C 17.65625 13.21875 17.589844 16.054688 20.738281 17.285156 C 23.890625 16.054688 23.820312 13.21875 23.679688 9.859375 Z M 23.679688 9.859375 "/>
<path fill-rule="nonzero" fill="rgb(56.077576%, 77.253723%, 100%)" fill-opacity="1" d="M 17.75 12 C 17.785156 14.394531 18.285156 16.328125 20.738281 17.285156 C 23.191406 16.328125 23.691406 14.394531 23.726562 12 Z M 17.75 12 "/>
<path fill-rule="nonzero" fill="rgb(21.176147%, 42.352295%, 78.822327%)" fill-opacity="1" d="M 20.738281 17.285156 C 22.03125 16.78125 22.777344 16.003906 23.203125 15.03125 L 18.273438 15.03125 C 18.699219 16.003906 19.445312 16.78125 20.738281 17.285156 Z M 20.738281 17.285156 "/>
<path fill-rule="nonzero" fill="rgb(0%, 84.70459%, 37.646484%)" fill-opacity="1" d="M 20.710938 15.59375 C 20.636719 15.59375 20.578125 15.652344 20.578125 15.726562 C 20.578125 15.800781 20.636719 15.859375 20.710938 15.859375 L 22.714844 15.859375 C 22.78125 15.773438 22.84375 15.683594 22.898438 15.59375 Z M 20.46875 16.273438 C 20.46875 16.347656 20.527344 16.40625 20.601562 16.40625 L 22.210938 16.40625 C 22.304688 16.320312 22.394531 16.234375 22.476562 16.140625 L 20.601562 16.140625 C 20.527344 16.140625 20.46875 16.203125 20.46875 16.273438 Z M 20.125 16.820312 C 20.125 16.894531 20.183594 16.953125 20.257812 16.953125 L 21.433594 16.953125 C 21.582031 16.871094 21.722656 16.78125 21.851562 16.6875 L 20.257812 16.6875 C 20.183594 16.6875 20.125 16.75 20.125 16.820312 Z M 20.125 16.820312 "/>
<path fill-rule="nonzero" fill="rgb(36.470032%, 19.215393%, 0%)" fill-opacity="1" d="M 18.421875 13.414062 C 18.546875 13.078125 18.828125 12.601562 18.9375 12.585938 C 19.046875 12.570312 20.246094 14.921875 20.152344 15.03125 C 20.058594 15.140625 18.71875 15.210938 18.453125 15.164062 C 18.1875 15.117188 18.421875 13.414062 18.421875 13.414062 Z M 18.421875 13.414062 "/>
<path fill-rule="nonzero" fill="rgb(81.175232%, 38.430786%, 0%)" fill-opacity="1" d="M 19.828125 15.421875 C 19.734375 15.125 18.25 12.359375 18.15625 12.359375 C 18.089844 12.359375 17.917969 12.613281 17.785156 12.839844 C 17.871094 13.980469 18.117188 14.988281 18.710938 15.800781 C 19.210938 15.761719 19.894531 15.632812 19.828125 15.421875 Z M 19.828125 15.421875 "/>
<path fill-rule="nonzero" fill="rgb(100%, 100%, 0%)" fill-opacity="1" d="M 20.324219 12.203125 L 20.421875 12.203125 L 20.421875 15.046875 L 20.324219 15.046875 Z M 21.324219 12.125 L 21.421875 12.125 L 21.421875 15.046875 L 21.324219 15.046875 Z M 22.246094 12.203125 L 22.34375 12.203125 L 22.34375 15.046875 L 22.246094 15.046875 Z M 22.246094 12.203125 "/>
<path fill-rule="nonzero" fill="rgb(0%, 0%, 0%)" fill-opacity="1" d="M 18.984375 14.324219 C 19.132812 14.363281 19.761719 14.714844 20.152344 14.832031 C 20.621094 14.972656 21.3125 14.953125 21.5 14.953125 C 21.6875 14.953125 22.046875 14.40625 22.203125 14.40625 L 23.140625 14.40625 C 23.28125 14.40625 23.234375 15.34375 22.875 15.34375 L 20.34375 15.34375 C 20.109375 15.34375 19.3125 14.609375 19.15625 14.53125 C 19 14.453125 18.851562 14.285156 18.984375 14.324219 Z M 18.984375 14.324219 "/>
<path fill-rule="nonzero" fill="rgb(93.331909%, 93.331909%, 93.331909%)" fill-opacity="1" d="M 20.738281 12.507812 C 20.738281 12.589844 20.671875 12.65625 20.589844 12.65625 L 20.070312 12.65625 C 19.988281 12.65625 19.921875 12.589844 19.921875 12.507812 C 19.921875 12.425781 19.988281 12.359375 20.070312 12.359375 L 20.589844 12.359375 C 20.671875 12.359375 20.738281 12.425781 20.738281 12.507812 Z M 21.730469 12.359375 C 21.730469 12.441406 21.664062 12.507812 21.582031 12.507812 L 21.066406 12.507812 C 20.984375 12.507812 20.914062 12.441406 20.914062 12.359375 C 20.914062 12.277344 20.984375 12.210938 21.066406 12.210938 L 21.582031 12.210938 C 21.664062 12.210938 21.730469 12.277344 21.730469 12.359375 Z M 22.753906 12.65625 C 22.753906 12.738281 22.6875 12.804688 22.605469 12.804688 L 22.085938 12.804688 C 22.003906 12.804688 21.9375 12.738281 21.9375 12.65625 C 21.9375 12.574219 22.003906 12.507812 22.085938 12.507812 L 22.605469 12.507812 C 22.6875 12.507812 22.753906 12.574219 22.753906 12.65625 Z M 22.753906 13.476562 C 22.753906 13.558594 22.6875 13.625 22.605469 13.625 L 22.085938 13.625 C 22.003906 13.625 21.9375 13.558594 21.9375 13.476562 C 21.9375 13.394531 22.003906 13.328125 22.085938 13.328125 L 22.605469 13.328125 C 22.6875 13.328125 22.753906 13.394531 22.753906 13.476562 Z M 22.753906 14.019531 C 22.753906 14.101562 22.6875 14.167969 22.605469 14.167969 L 22.085938 14.167969 C 22.003906 14.167969 21.9375 14.101562 21.9375 14.019531 C 21.9375 13.9375 22.003906 13.871094 22.085938 13.871094 L 22.605469 13.871094 C 22.6875 13.871094 22.753906 13.9375 22.753906 14.019531 Z M 21.730469 12.90625 C 21.730469 12.988281 21.664062 13.054688 21.582031 13.054688 L 21.066406 13.054688 C 20.984375 13.054688 20.914062 12.988281 20.914062 12.90625 C 20.914062 12.824219 20.984375 12.757812 21.066406 12.757812 L 21.582031 12.757812 C 21.664062 12.757812 21.730469 12.824219 21.730469 12.90625 Z M 21.730469 13.476562 C 21.730469 13.558594 21.664062 13.625 21.582031 13.625 L 21.066406 13.625 C 20.984375 13.625 20.914062 13.558594 20.914062 13.476562 C 20.914062 13.394531 20.984375 13.328125 21.066406 13.328125 L 21.582031 13.328125 C 21.664062 13.328125 21.730469 13.394531 21.730469 13.476562 Z M 21.730469 14.019531 C 21.730469 14.101562 21.664062 14.167969 21.582031 14.167969 L 21.066406 14.167969 C 20.984375 14.167969 20.914062 14.101562 20.914062 14.019531 C 20.914062 13.9375 20.984375 13.871094 21.066406 13.871094 L 21.582031 13.871094 C 21.664062 13.871094 21.730469 13.9375 21.730469 14.019531 Z M 20.738281 13.054688 C 20.738281 13.136719 20.671875 13.203125 20.589844 13.203125 L 20.070312 13.203125 C 19.988281 13.203125 19.921875 13.136719 19.921875 13.054688 C 19.921875 12.972656 19.988281 12.90625 20.070312 12.90625 L 20.589844 12.90625 C 20.671875 12.90625 20.738281 12.972656 20.738281 13.054688 Z M 20.738281 13.625 C 20.738281 13.707031 20.671875 13.773438 20.589844 13.773438 L 20.070312 13.773438 C 19.988281 13.773438 19.921875 13.707031 19.921875 13.625 C 19.921875 13.542969 19.988281 13.476562 20.070312 13.476562 L 20.589844 13.476562 C 20.671875 13.476562 20.738281 13.542969 20.738281 13.625 Z M 20.738281 14.167969 C 20.738281 14.25 20.671875 14.316406 20.589844 14.316406 L 20.070312 14.316406 C 19.988281 14.316406 19.921875 14.25 19.921875 14.167969 C 19.921875 14.089844 19.988281 14.019531 20.070312 14.019531 L 20.589844 14.019531 C 20.671875 14.019531 20.738281 14.085938 20.738281 14.167969 Z M 20.738281 14.167969 "/>
<path fill-rule="nonzero" fill="rgb(67.449951%, 37.254333%, 10.195923%)" fill-opacity="1" d="M 19.398438 9.929688 C 19.417969 9.808594 19.734375 9.90625 19.859375 9.796875 C 19.984375 9.6875 20.320312 9.421875 20.597656 9.765625 C 20.75 9.957031 20.710938 10.089844 20.882812 10.246094 C 21.054688 10.402344 21.96875 10.796875 22.265625 10.703125 C 22.25 10.890625 21.984375 10.984375 21.984375 10.984375 C 21.984375 10.984375 22.234375 11.171875 22.265625 11.390625 C 22.296875 11.609375 21.890625 11.050781 21.3125 11.203125 C 21.082031 11.265625 20.824219 11.503906 20.355469 11.390625 C 19.886719 11.273438 19.875 10.570312 19.863281 10.273438 C 19.859375 10.167969 19.390625 10.011719 19.398438 9.929688 Z M 19.398438 9.929688 "/>
<path fill-rule="nonzero" fill="rgb(93.331909%, 93.331909%, 93.331909%)" fill-opacity="1" d="M 19.636719 9.867188 C 19.65625 9.765625 19.90625 9.871094 20.015625 9.789062 C 20.125 9.710938 20.421875 9.515625 20.621094 9.8125 C 20.730469 9.980469 20.691406 10.082031 20.820312 10.222656 C 20.949219 10.363281 21.667969 10.746094 21.914062 10.691406 C 21.890625 10.839844 21.667969 10.898438 21.667969 10.898438 C 21.667969 10.898438 21.859375 11.070312 21.871094 11.25 C 21.878906 11.429688 21.585938 10.945312 21.105469 11.03125 C 20.914062 11.066406 20.6875 11.246094 20.316406 11.117188 C 19.941406 10.992188 19.976562 10.417969 19.988281 10.175781 C 19.988281 10.089844 19.621094 9.933594 19.636719 9.867188 Z M 19.636719 9.867188 "/>
<path fill-rule="nonzero" fill="rgb(0%, 0%, 0%)" fill-opacity="1" d="M 20.53125 11.746094 C 20.53125 11.777344 20.507812 11.800781 20.476562 11.800781 C 20.445312 11.800781 20.417969 11.777344 20.417969 11.746094 L 20.417969 11.390625 C 20.417969 11.363281 20.445312 11.335938 20.476562 11.335938 C 20.507812 11.335938 20.53125 11.363281 20.53125 11.390625 Z M 20.945312 11.746094 C 20.945312 11.777344 20.921875 11.800781 20.890625 11.800781 C 20.859375 11.800781 20.835938 11.777344 20.835938 11.746094 L 20.835938 11.390625 C 20.835938 11.363281 20.859375 11.335938 20.890625 11.335938 C 20.921875 11.335938 20.945312 11.363281 20.945312 11.390625 Z M 20.453125 9.949219 C 20.453125 10.007812 20.40625 10.054688 20.347656 10.054688 C 20.289062 10.054688 20.242188 10.007812 20.242188 9.949219 C 20.242188 9.890625 20.289062 9.84375 20.347656 9.84375 C 20.40625 9.84375 20.453125 9.890625 20.453125 9.949219 Z M 20.453125 9.949219 "/>
<path fill-rule="nonzero" fill="rgb(0%, 14.117432%, 49.01886%)" fill-opacity="1" d="M 14.25 13.5 L 14.25 3.75 L 3 3.75 C 2.761719 3.75 2.546875 3.785156 2.546875 3.785156 L 2.542969 5.097656 L 0.496094 5.097656 C 0.496094 5.097656 0.464844 5.140625 0.402344 5.25 C 0.144531 5.691406 0 6.203125 0 6.75 L 0 13.5 Z M 14.25 13.5 "/>
<path fill-rule="nonzero" fill="rgb(93.331909%, 93.331909%, 93.331909%)" fill-opacity="1" d="M 14.25 3.75 L 12.5 3.75 L 9 6.203125 L 9 3.75 L 5.25 3.75 L 5.25 5.675781 L 2.546875 3.785156 C 2.085938 3.855469 1.65625 4.027344 1.292969 4.28125 L 4.820312 6.75 L 3.515625 6.75 L 0.726562 4.792969 C 0.644531 4.890625 0.566406 4.988281 0.496094 5.097656 L 2.859375 6.75 L 0 6.75 L 0 10.5 L 2.914062 10.5 L 0 12.574219 L 0 13.5 L 2.5 13.5 L 5.25 11.574219 L 5.25 13.5 L 9 13.5 L 9 11.046875 L 12.5 13.5 L 14.25 13.5 L 14.25 11.976562 L 12.140625 10.5 L 14.25 10.5 L 14.25 6.75 L 12.140625 6.75 L 14.25 5.273438 Z M 14.25 3.75 "/>
<path fill-rule="nonzero" fill="rgb(81.175232%, 10.588074%, 16.862488%)" fill-opacity="1" d="M 8.25 3.75 L 6 3.75 L 6 7.5 L 0 7.5 L 0 9.75 L 6 9.75 L 6 13.5 L 8.25 13.5 L 8.25 9.75 L 14.25 9.75 L 14.25 7.5 L 8.25 7.5 Z M 8.25 3.75 "/>
<path fill-rule="nonzero" fill="rgb(81.175232%, 10.588074%, 16.862488%)" fill-opacity="1" d="M 14.25 3.75 L 13.152344 3.75 L 9 6.660156 L 9 6.75 L 10.179688 6.75 L 14.25 3.898438 Z M 1.292969 4.28125 C 1.082031 4.429688 0.890625 4.601562 0.726562 4.792969 L 3.515625 6.75 L 4.820312 6.75 Z M 4.828125 10.5 L 0.550781 13.5 L 1.847656 13.5 L 5.25 11.117188 L 5.25 10.5 Z M 14.25 13.351562 L 14.25 12.4375 L 11.484375 10.5 L 10.175781 10.5 Z M 14.25 13.351562 "/>
</svg>