<svg xmlns="http://www.w3.org/2000/svg" xmlns:xlink="http://www.w3.org/1999/xlink" viewBox="0 0 27 27">
<path fill-rule="nonzero" fill="rgb(1.176453%, 16.470337%, 52.940369%)" fill-opacity="1" d="M 27 20.25 C 27 21.90625 25.65625 23.25 24 23.25 L 3 23.25 C 1.34375 23.25 0 21.90625 0 20.25 L 0 6.75 C 0 5.09375 1.34375 3.75 3 3.75 L 24 3.75 C 25.65625 3.75 27 5.09375 27 6.75 Z M 27 20.25 "/>
<path fill-rule="nonzero" fill="rgb(86.273193%, 9.411621%, 11.764526%)" fill-opacity="1" d="M 24 3.75 L 3 3.75 C 1.34375 3.75 0 5.09375 0 6.75 L 0 13.5 L 27 13.5 L 27 6.75 C 27 5.09375 25.65625 3.75 24 3.75 Z M 24 3.75 "/>
<path fill-rule="nonzero" fill="rgb(93.331909%, 93.331909%, 93.331909%)" fill-opacity="1" d="M 0.984375 22.457031 L 12.773438 13.546875 L 0.996094 4.53125 C 0.390625 5.078125 0 5.867188 0 6.75 L 0 20.25 C 0 21.128906 0.382812 21.910156 0.984375 22.457031 Z M 0.984375 22.457031 "/>
<path fill-rule="nonzero" fill="rgb(98.03772%, 85.488892%, 6.274414%)" fill-opacity="1" d="M 6.46875 11.054688 C 6.46875 11.742188 5.746094 12.296875 4.859375 12.296875 C 3.96875 12.296875 3.246094 11.742188 3.246094 11.054688 C 3.246094 10.367188 3.96875 9.8125 4.859375 9.8125 C 5.746094 9.8125 6.46875 10.367188 6.46875 11.054688 Z M 6.46875 11.054688 "/>
<path fill-rule="nonzero" fill="rgb(74.116516%, 44.7052%, 37.254333%)" fill-opacity="1" d="M 2.890625 10.53125 C 3.234375 10.1875 4.480469 10.203125 4.855469 10.421875 C 4.4375 9.855469 5.015625 10.125 5.46875 10.125 C 5.921875 10.125 6.046875 10.265625 5.75 10.296875 C 5.453125 10.328125 5.203125 10.28125 5.28125 10.375 C 5.359375 10.46875 5.8125 10.390625 6.21875 10.296875 C 6.625 10.203125 7.09375 10.546875 7.125 10.609375 C 7.15625 10.671875 6.40625 10.515625 6.140625 10.609375 C 5.875 10.703125 5.453125 10.6875 5.484375 10.78125 C 5.515625 10.875 5.042969 10.9375 4.859375 10.890625 C 4.671875 10.84375 3.90625 10.859375 4.03125 10.78125 C 4.15625 10.703125 4.3125 10.609375 4.375 10.578125 C 4.4375 10.546875 3.4375 10.515625 2.890625 10.53125 Z M 2.890625 10.53125 "/>
<path fill-rule="nonzero" fill="rgb(86.273193%, 9.411621%, 11.764526%)" fill-opacity="1" d="M 7.617188 10.921875 C 7.617188 10.921875 6.914062 11.277344 6.199219 11.109375 C 5.414062 10.921875 4.839844 11.003906 4.839844 11.214844 C 4.839844 11.003906 4.265625 10.921875 3.480469 11.109375 C 2.765625 11.277344 2.0625 10.921875 2.0625 10.921875 C 2.0625 10.921875 2.582031 11.753906 2.273438 13.417969 C 1.957031 15.117188 2.050781 15.890625 3.390625 15.941406 C 4.523438 15.984375 4.839844 16.324219 4.839844 16.324219 C 4.839844 16.324219 5.15625 15.984375 6.289062 15.941406 C 7.628906 15.890625 7.722656 15.117188 7.40625 13.417969 C 7.097656 11.753906 7.617188 10.921875 7.617188 10.921875 Z M 7.617188 10.921875 "/>
<path fill-rule="nonzero" fill="rgb(38.822937%, 69.018555%, 88.626099%)" fill-opacity="1" d="M 7.101562 13.933594 C 6.703125 12.5625 7.125 11.4375 7.125 11.4375 C 7.125 11.4375 6.503906 11.625 5.8125 11.425781 C 5.121094 11.226562 4.839844 11.566406 4.839844 11.566406 C 4.839844 11.566406 4.558594 11.226562 3.867188 11.425781 C 3.175781 11.625 2.554688 11.4375 2.554688 11.4375 C 2.554688 11.4375 2.976562 12.5625 2.578125 13.933594 C 2.179688 15.304688 3.152344 15.503906 3.808594 15.492188 C 4.464844 15.480469 4.839844 15.855469 4.839844 15.855469 C 4.839844 15.855469 5.214844 15.480469 5.871094 15.492188 C 6.527344 15.503906 7.5 15.304688 7.101562 13.933594 Z M 7.101562 13.933594 "/>
<path fill-rule="nonzero" fill="rgb(100%, 100%, 100%)" fill-opacity="1" d="M 6.410156 14.917969 L 6.410156 14.238281 L 6.5625 14.238281 L 6.5625 13.96875 L 6.398438 13.96875 L 6.398438 13.242188 L 6.550781 13.242188 L 5.296875 12.410156 L 5.296875 12.070312 L 5.484375 12.070312 L 4.839844 11.636719 L 4.195312 12.070312 L 4.382812 12.070312 L 4.382812 12.410156 L 3.128906 13.242188 L 3.28125 13.242188 L 3.28125 13.96875 L 3.117188 13.96875 L 3.117188 14.238281 L 3.269531 14.238281 L 3.269531 14.917969 L 3.082031 14.917969 L 3.082031 15.257812 L 6.597656 15.257812 L 6.597656 14.917969 Z M 6.535156 12.085938 C 6.535156 12.355469 6.476562 12.457031 6.410156 12.457031 C 6.34375 12.457031 6.289062 12.355469 6.289062 12.085938 C 6.289062 11.820312 6.410156 11.601562 6.410156 11.601562 C 6.410156 11.601562 6.535156 11.820312 6.535156 12.085938 Z M 6.535156 12.085938 "/>
<path fill-rule="nonzero" fill="rgb(100%, 100%, 100%)" fill-opacity="1" d="M 6.886719 12.492188 L 5.933594 12.492188 C 5.933594 12.363281 6.148438 12.257812 6.410156 12.257812 C 6.671875 12.257812 6.886719 12.363281 6.886719 12.492188 Z M 6.886719 12.492188 "/>
<path fill-rule="nonzero" fill="rgb(0.392151%, 53.33252%, 18.823242%)" fill-opacity="1" d="M 3.65625 12.140625 C 3.65625 12.140625 3.480469 12.457031 3.445312 12.644531 C 3.410156 12.832031 3.304688 12.527344 3.304688 12.527344 C 3.304688 12.527344 3.117188 12.714844 3.070312 12.785156 C 3.023438 12.855469 3.011719 12.246094 3.070312 12.164062 C 3.128906 12.082031 2.929688 12.105469 2.859375 12.070312 C 2.789062 12.035156 3.011719 11.8125 3.011719 11.8125 C 3.011719 11.8125 2.707031 11.671875 2.8125 11.636719 C 2.917969 11.601562 3.304688 11.625 3.433594 11.730469 C 3.5625 11.835938 3.867188 11.660156 3.984375 11.636719 C 4.101562 11.613281 3.984375 11.753906 3.890625 11.835938 C 3.796875 11.917969 3.84375 12.128906 3.84375 12.234375 C 3.84375 12.339844 3.65625 12.140625 3.65625 12.140625 Z M 3.65625 12.140625 "/>
<path fill-rule="nonzero" fill="rgb(71.37146%, 71.37146%, 71.37146%)" fill-opacity="1" d="M 4.183594 13.652344 L 5.566406 13.652344 L 5.566406 14.050781 L 4.183594 14.050781 Z M 3.515625 13.324219 L 3.9375 13.324219 L 3.9375 13.875 L 3.515625 13.875 Z M 3.515625 14.25 L 3.9375 14.25 L 3.9375 14.800781 L 3.515625 14.800781 Z M 5.777344 13.324219 L 6.199219 13.324219 L 6.199219 13.875 L 5.777344 13.875 Z M 5.777344 14.25 L 6.199219 14.25 L 6.199219 14.800781 L 5.777344 14.800781 Z M 4.535156 12.164062 L 5.167969 12.164062 L 5.167969 12.457031 L 4.535156 12.457031 Z M 4.535156 12.164062 "/>
<path fill-rule="nonzero" fill="rgb(98.03772%, 85.488892%, 6.274414%)" fill-opacity="1" d="M 8.625 14.074219 L 8.507812 13.40625 L 7.886719 13.605469 L 8.074219 14.507812 L 8.214844 14.542969 C 8.214844 14.542969 8.226562 15.269531 7.675781 15.832031 C 7.125 16.394531 6.152344 16.394531 6.152344 16.394531 C 6.152344 16.394531 5.648438 16.757812 4.839844 16.757812 C 4.03125 16.757812 3.527344 16.394531 3.527344 16.394531 C 3.527344 16.394531 2.554688 16.394531 2.003906 15.832031 C 1.453125 15.269531 1.464844 14.542969 1.464844 14.542969 L 1.605469 14.507812 L 1.792969 13.605469 L 1.171875 13.40625 L 1.054688 14.074219 L 0.832031 14.097656 C 0.832031 14.097656 0.84375 15.410156 1.300781 16.101562 C 1.757812 16.792969 2.777344 17.003906 2.777344 17.003906 C 2.777344 17.003906 2.789062 17.085938 2.8125 17.167969 C 3.480469 17.554688 4.839844 17.578125 4.839844 17.578125 C 4.839844 17.578125 6.199219 17.554688 6.867188 17.167969 C 6.890625 17.085938 6.902344 17.003906 6.902344 17.003906 C 6.902344 17.003906 7.921875 16.792969 8.378906 16.101562 C 8.835938 15.410156 8.847656 14.097656 8.847656 14.097656 Z M 8.625 14.074219 "/>
</svg>