<svg xmlns="http://www.w3.org/2000/svg" xmlns:xlink="http://www.w3.org/1999/xlink" viewBox="0 0 27 27">
<path fill-rule="nonzero" fill="rgb(0%, 14.117432%, 49.01886%)" fill-opacity="1" d="M 24 3.75 L 3 3.75 C 2.847656 3.75 2.695312 3.761719 2.546875 3.785156 L 2.542969 5.097656 L 0.496094 5.097656 C 0.183594 5.570312 0 6.140625 0 6.75 L 0 20.25 C 0 21.90625 1.34375 23.25 3 23.25 L 24 23.25 C 25.65625 23.25 27 21.90625 27 20.25 L 27 6.75 C 27 5.09375 25.65625 3.75 24 3.75 Z M 24 3.75 "/>
<path fill-rule="nonzero" fill="rgb(75.292969%, 90.194702%, 91.371155%)" fill-opacity="1" d="M 19.980469 9.828125 C 19.875 9.527344 19.183594 9.269531 18.878906 9.386719 C 19.230469 8.730469 19.8125 8.53125 20.109375 8.226562 C 20.402344 7.921875 20.414062 7.652344 20.414062 7.652344 C 20.414062 7.652344 20.683594 8.109375 20.953125 8.53125 C 21.222656 8.953125 21.589844 9.1875 21.589844 9.1875 C 21.589844 9.1875 20.636719 9.472656 19.980469 9.828125 Z M 19.980469 9.828125 "/>
<path fill-rule="nonzero" fill="rgb(68.234253%, 45.881653%, 12.940979%)" fill-opacity="1" d="M 20.121094 9.765625 C 20.121094 9.800781 20.089844 9.828125 20.054688 9.828125 C 20.019531 9.828125 19.992188 9.800781 19.992188 9.765625 L 19.992188 7.914062 C 19.992188 7.878906 20.019531 7.851562 20.054688 7.851562 C 20.089844 7.851562 20.121094 7.878906 20.121094 7.914062 Z M 20.121094 9.765625 "/>
<path fill-rule="nonzero" fill="rgb(78.038025%, 91.371155%, 92.155457%)" fill-opacity="1" d="M 20.558594 10.125 C 20.054688 10.125 19.253906 10.101562 19.183594 9.960938 C 19.113281 9.820312 19.089844 9.457031 19.089844 9.457031 C 19.089844 9.457031 19.6875 9.75 20.496094 9.75 C 21.304688 9.75 21.820312 9.457031 21.820312 9.457031 C 21.820312 9.457031 21.828125 9.949219 21.585938 10.042969 C 21.421875 10.109375 21.132812 10.125 20.558594 10.125 Z M 20.558594 10.125 "/>
<path fill-rule="nonzero" fill="rgb(62.35199%, 76.077271%, 100%)" fill-opacity="1" d="M 16.957031 12.234375 C 16.863281 12.46875 16.851562 12.773438 17.027344 12.902344 C 17.203125 13.03125 17.484375 12.773438 17.484375 12.773438 C 17.484375 12.773438 16.980469 12.726562 16.957031 12.234375 Z M 16.957031 12.234375 "/>
<path fill-rule="nonzero" fill="rgb(0%, 63.920593%, 83.920288%)" fill-opacity="1" d="M 18.105469 12.632812 C 17.882812 12.433594 17.417969 12.585938 17.417969 12.585938 C 17.417969 12.585938 17.472656 12.316406 17.613281 12.234375 C 17.226562 12.199219 17.023438 12.304688 16.890625 12.632812 C 16.734375 12.457031 16.957031 12.023438 16.957031 12.023438 C 16.957031 12.023438 17.460938 11.71875 17.941406 12.023438 C 18.339844 11.472656 18.402344 10.523438 17.921875 10.605469 C 18.046875 10.289062 18.953125 10.488281 18.78125 11.035156 C 18.609375 11.578125 18.328125 11.789062 18.328125 11.789062 C 18.328125 11.789062 18.796875 11.34375 19.121094 11.542969 C 19.441406 11.742188 19.582031 12.671875 18.878906 12.367188 C 18.175781 12.058594 18.046875 12.25 18.035156 12.367188 C 18.023438 12.480469 18.105469 12.632812 18.105469 12.632812 Z M 18.105469 12.632812 "/>
<path fill-rule="nonzero" fill="rgb(62.35199%, 76.077271%, 100%)" fill-opacity="1" d="M 19.734375 12.46875 C 19.433594 13.351562 18.84375 13.351562 18.84375 13.351562 C 18.84375 13.351562 18.878906 13.046875 18.996094 12.910156 C 18.492188 13.101562 17.789062 12.796875 17.941406 12.023438 C 18.058594 12.515625 18.550781 12.679688 19.007812 12.457031 C 19.464844 12.234375 19.78125 12.335938 19.734375 12.46875 Z M 19.734375 12.46875 "/>
<path fill-rule="nonzero" fill="rgb(0%, 63.920593%, 83.920288%)" fill-opacity="1" d="M 16.441406 11.167969 C 16.355469 11.027344 16.558594 10.78125 16.835938 10.875 C 16.652344 11.074219 16.734375 11.273438 16.835938 11.414062 C 16.933594 11.554688 16.535156 11.320312 16.441406 11.167969 Z M 16.441406 11.167969 "/>
<path fill-rule="nonzero" fill="rgb(62.35199%, 76.077271%, 100%)" fill-opacity="1" d="M 18.304688 10.558594 C 18.082031 10.488281 17.917969 10.605469 17.917969 10.605469 C 17.917969 10.605469 17.800781 10.335938 17.4375 10.441406 C 17.074219 10.546875 16.851562 10.414062 16.851562 10.414062 C 16.851562 10.414062 16.96875 10.796875 17.519531 10.800781 C 17.179688 11.238281 16.605469 11.320312 16.441406 11.167969 C 16.535156 11.378906 16.863281 11.636719 16.980469 11.648438 C 17.097656 11.660156 17.714844 11.296875 17.847656 10.875 C 17.871094 10.800781 17.941406 10.886719 17.847656 11.03125 C 17.753906 11.179688 17.671875 11.34375 17.730469 11.601562 C 17.816406 11.457031 18 11.449219 18.09375 11.226562 C 18.1875 11.003906 18.105469 10.769531 18.304688 10.699219 C 18.503906 10.628906 18.304688 10.558594 18.304688 10.558594 Z M 18.304688 10.558594 "/>
<path fill-rule="nonzero" fill="rgb(55.293274%, 65.881348%, 76.469421%)" fill-opacity="1" d="M 21.15625 13.859375 C 20.792969 13.859375 20.765625 13.234375 20.765625 13.234375 C 20.765625 13.234375 20.65625 13.285156 20.34375 13.546875 C 20.03125 13.8125 19.5625 13.863281 19.5625 13.863281 C 19.5625 13.863281 19.203125 13.46875 19.625 13 C 19.609375 12.53125 19.078125 12.046875 19.078125 12.046875 L 18.640625 11.953125 C 18.640625 11.953125 19.6875 10.9375 20.453125 10.875 C 21.21875 10.8125 21.265625 11.15625 21.203125 11.859375 C 21.140625 12.5625 21.359375 13 21.359375 13 C 21.359375 13 22.015625 13.859375 21.15625 13.859375 Z M 21.15625 13.859375 "/>
<path fill-rule="nonzero" fill="rgb(79.998779%, 8.235168%, 18.823242%)" fill-opacity="1" d="M 19.230469 11.648438 C 19.148438 11.742188 19.152344 11.777344 19.382812 11.765625 C 19.617188 11.753906 19.738281 11.769531 19.738281 11.769531 C 19.738281 11.769531 19.253906 12.023438 18.949219 11.882812 C 18.996094 11.730469 19.230469 11.648438 19.230469 11.648438 Z M 20.929688 13.160156 C 20.929688 13.160156 21.246094 12.960938 21.363281 13.300781 C 21.480469 13.640625 21.347656 13.675781 21.191406 13.6875 C 21.035156 13.699219 20.929688 13.160156 20.929688 13.160156 Z M 20.929688 13.160156 "/>
<path fill-rule="nonzero" fill="rgb(62.35199%, 76.077271%, 100%)" fill-opacity="1" d="M 22.019531 12.175781 C 21.914062 12.402344 21.914062 12.902344 22.429688 13.089844 C 22.523438 12.714844 22.453125 12.492188 22.019531 12.175781 Z M 23.132812 12.421875 C 23.25 12.304688 23.167969 11.847656 22.816406 12.023438 C 22.464844 12.199219 22.304688 12.152344 22.214844 12.09375 C 22.277344 11.988281 22.523438 11.90625 22.523438 11.90625 C 22.523438 11.90625 22.074219 11.941406 21.964844 11.566406 C 22.230469 11.636719 22.359375 11.566406 22.359375 11.566406 C 22.359375 11.566406 22.210938 11.460938 22.214844 11.378906 C 22.417969 11.308594 22.699219 11.53125 22.699219 11.53125 C 22.699219 11.53125 22.601562 11.367188 22.578125 10.980469 C 22.558594 10.59375 22.875 10.460938 23.109375 10.644531 C 22.886719 10.910156 23.144531 11.425781 23.25 11.871094 C 23.683594 11.554688 24.210938 11.625 24.234375 12.117188 C 24.257812 12.609375 24.105469 12.492188 24.105469 12.492188 C 24.105469 12.492188 24.292969 12.023438 23.613281 12.09375 C 23.90625 12.234375 23.765625 12.367188 23.765625 12.367188 C 23.765625 12.367188 23.449219 12.28125 23.132812 12.421875 Z M 23.132812 12.421875 "/>
<path fill-rule="nonzero" fill="rgb(0%, 63.920593%, 83.920288%)" fill-opacity="1" d="M 21.597656 11.15625 C 21.292969 11.121094 21.410156 11.496094 20.964844 11.648438 C 21.070312 11.695312 21.28125 11.648438 21.28125 11.648438 C 21.28125 11.648438 21.070312 12.035156 21.28125 12.433594 C 21.46875 12.28125 21.527344 12.023438 21.527344 12.023438 C 21.527344 12.023438 21.527344 12.472656 21.761719 12.6875 C 21.964844 12.421875 21.867188 12.09375 21.867188 12.09375 C 21.867188 12.09375 22.011719 12.496094 22.464844 12.6875 C 22.921875 12.878906 23.226562 12.457031 23.261719 12.234375 C 23.296875 12.011719 23.191406 11.945312 23.191406 11.945312 C 23.191406 11.945312 22.808594 12.304688 22.464844 12.09375 C 22.617188 11.953125 22.550781 11.875 22.214844 11.851562 C 21.878906 11.824219 21.796875 11.355469 21.761719 11.296875 C 21.726562 11.238281 21.597656 11.15625 21.597656 11.15625 Z M 22.617188 10.75 C 22.746094 10.40625 23.191406 10.351562 23.355469 10.453125 C 23.660156 10.289062 23.980469 10.617188 24.234375 10.511719 C 24.128906 10.757812 23.8125 10.878906 23.648438 10.800781 C 23.847656 11.085938 24.378906 11.277344 24.574219 11.105469 C 24.769531 10.933594 24.636719 11.328125 24.234375 11.457031 C 23.835938 11.589844 23.554688 11.105469 23.554688 11.105469 C 23.554688 11.105469 23.636719 11.40625 23.554688 11.53125 C 23.25 11.425781 23.089844 11.105469 23.101562 10.875 C 23.109375 10.644531 22.917969 10.472656 22.617188 10.75 Z M 22.617188 10.75 "/>
<path fill-rule="nonzero" fill="rgb(62.35199%, 76.077271%, 100%)" fill-opacity="1" d="M 24.234375 11.457031 C 24.550781 11.390625 24.785156 11.132812 24.796875 11.03125 C 24.808594 10.933594 24.636719 10.632812 24.234375 10.800781 C 24.585938 10.933594 24.519531 11.363281 24.234375 11.457031 Z M 24.234375 11.457031 "/>
<path fill-rule="nonzero" fill="rgb(0%, 63.920593%, 83.920288%)" fill-opacity="1" d="M 24.167969 11.882812 C 24.410156 12.210938 24.339844 12.5625 24.292969 12.632812 C 24.246094 12.703125 23.882812 12.828125 23.742188 12.585938 C 24.046875 12.5625 24.332031 12.296875 24.167969 11.882812 Z M 24.167969 11.882812 "/>
<path fill-rule="nonzero" fill="rgb(85.096741%, 63.920593%, 13.725281%)" fill-opacity="1" d="M 20.570312 11.191406 C 20.035156 11.191406 19.230469 11.457031 19.230469 11.457031 C 19.230469 11.457031 19.203125 11.140625 19.03125 10.875 C 18.859375 10.609375 18.78125 10.234375 18.78125 10.234375 C 18.78125 10.234375 19.21875 10.3125 19.265625 10.578125 C 19.3125 10.84375 19.25 11.078125 19.25 11.078125 L 19.78125 10.9375 C 19.78125 10.9375 19.640625 10.707031 19.515625 10.875 C 19.390625 11.042969 19.25 10.421875 19.4375 10.328125 C 19.625 10.234375 20.121094 10.125 20.121094 10.125 C 20.121094 10.125 20.15625 10.578125 20.1875 10.6875 C 20.21875 10.796875 19.9375 10.800781 19.9375 10.800781 L 19.984375 10.875 L 20.453125 10.875 C 20.453125 10.875 20.296875 10.699219 20.296875 10.421875 C 20.296875 10.117188 20.625 9.828125 20.625 9.828125 C 20.625 9.828125 20.917969 10.21875 20.917969 10.453125 C 20.917969 10.683594 20.742188 10.875 20.742188 10.875 L 21.15625 10.953125 C 21.15625 10.953125 21.3125 10.640625 21.15625 10.71875 C 21 10.796875 21 10.625 21.0625 10.421875 C 21.125 10.21875 21.078125 10.03125 21.078125 10.03125 L 21.71875 10.328125 C 21.71875 10.328125 21.765625 10.398438 21.71875 10.644531 C 21.671875 10.890625 21.390625 10.867188 21.390625 10.867188 L 21.390625 11.015625 L 21.8125 11.125 C 21.8125 11.125 21.6875 10.832031 21.8125 10.644531 C 21.9375 10.453125 22.359375 10.328125 22.359375 10.328125 C 22.359375 10.328125 22.015625 10.949219 21.8125 11.457031 C 21.554688 11.335938 21.105469 11.191406 20.570312 11.191406 Z M 20.570312 11.191406 "/>
<path fill-rule="nonzero" fill="rgb(100%, 100%, 100%)" fill-opacity="1" d="M 20.578125 13.5 L 18.582031 13.5 L 18.582031 15.914062 C 18.582031 17.972656 19.964844 18.300781 20.5625 18.464844 L 20.5625 18.46875 L 20.570312 18.464844 L 20.578125 18.46875 L 20.578125 18.464844 C 21.175781 18.300781 22.5625 17.972656 22.5625 15.914062 L 22.5625 13.5 Z M 20.578125 13.5 "/>
<path fill-rule="nonzero" fill="rgb(9.01947%, 60.391235%, 97.647095%)" fill-opacity="1" d="M 20.5625 13.5 L 18.582031 13.5 L 18.582031 15.855469 L 22.558594 15.855469 L 22.558594 13.5 Z M 20.5625 13.5 "/>
<path fill-rule="nonzero" fill="rgb(9.01947%, 60.391235%, 97.647095%)" fill-opacity="1" d="M 20.570312 17.238281 C 20.570312 17.238281 20.425781 16.5 19.78125 15.855469 L 21.28125 15.855469 C 21.28125 15.855469 20.703125 16.441406 20.570312 17.238281 Z M 20.570312 17.238281 "/>
<path fill-rule="nonzero" fill="rgb(100%, 100%, 100%)" fill-opacity="1" d="M 20.570312 14.472656 C 20.570312 14.472656 20.425781 15.210938 19.78125 15.855469 L 21.28125 15.855469 C 21.28125 15.855469 20.703125 15.269531 20.570312 14.472656 Z M 20.390625 14.472656 C 20.347656 14.601562 20.085938 14.847656 19.898438 14.90625 C 19.710938 14.964844 19.421875 15.1875 19.382812 15.292969 C 19.347656 15.175781 19.476562 15 19.476562 15 C 19.476562 15 19.265625 15.023438 19.242188 15.292969 C 19.21875 15.5625 18.78125 15.574219 18.78125 15.574219 C 18.78125 15.574219 18.867188 15.199219 19.089844 14.976562 C 19.3125 14.753906 19.449219 14.882812 19.585938 14.800781 C 19.722656 14.71875 19.535156 14.53125 19.6875 14.320312 C 19.839844 14.109375 20.25 14.167969 20.390625 14.003906 C 20.4375 14.132812 20.039062 14.367188 19.980469 14.390625 C 19.921875 14.414062 19.898438 14.554688 19.96875 14.542969 C 20.039062 14.53125 20.285156 14.496094 20.390625 14.472656 Z M 20.75 14.472656 C 20.792969 14.601562 21.054688 14.847656 21.242188 14.90625 C 21.429688 14.964844 21.71875 15.1875 21.757812 15.292969 C 21.792969 15.175781 21.664062 15 21.664062 15 C 21.664062 15 21.875 15.023438 21.898438 15.292969 C 21.921875 15.5625 22.359375 15.574219 22.359375 15.574219 C 22.359375 15.574219 22.273438 15.199219 22.050781 14.976562 C 21.828125 14.753906 21.691406 14.882812 21.554688 14.800781 C 21.417969 14.71875 21.605469 14.53125 21.453125 14.320312 C 21.300781 14.109375 20.890625 14.167969 20.75 14.003906 C 20.703125 14.132812 21.101562 14.367188 21.160156 14.390625 C 21.21875 14.414062 21.242188 14.554688 21.171875 14.542969 C 21.101562 14.53125 20.855469 14.496094 20.75 14.472656 Z M 20.75 14.472656 "/>
<path fill-rule="nonzero" fill="rgb(9.01947%, 60.391235%, 97.647095%)" fill-opacity="1" d="M 20.390625 17.226562 C 20.347656 17.097656 20.085938 16.851562 19.898438 16.792969 C 19.710938 16.734375 19.421875 16.511719 19.382812 16.40625 C 19.347656 16.523438 19.476562 16.699219 19.476562 16.699219 C 19.476562 16.699219 19.265625 16.675781 19.242188 16.40625 C 19.21875 16.136719 18.78125 16.125 18.78125 16.125 C 18.78125 16.125 18.867188 16.5 19.089844 16.722656 C 19.3125 16.945312 19.449219 16.816406 19.585938 16.898438 C 19.722656 16.980469 19.535156 17.167969 19.6875 17.378906 C 19.839844 17.589844 20.25 17.53125 20.390625 17.695312 C 20.4375 17.566406 20.039062 17.332031 19.980469 17.308594 C 19.921875 17.285156 19.898438 17.144531 19.96875 17.15625 C 20.039062 17.167969 20.285156 17.203125 20.390625 17.226562 Z M 20.75 17.226562 C 20.792969 17.097656 21.054688 16.851562 21.242188 16.792969 C 21.429688 16.734375 21.71875 16.511719 21.757812 16.40625 C 21.792969 16.523438 21.664062 16.699219 21.664062 16.699219 C 21.664062 16.699219 21.875 16.675781 21.898438 16.40625 C 21.921875 16.136719 22.359375 16.125 22.359375 16.125 C 22.359375 16.125 22.273438 16.5 22.050781 16.722656 C 21.828125 16.945312 21.691406 16.816406 21.554688 16.898438 C 21.417969 16.980469 21.605469 17.167969 21.453125 17.378906 C 21.300781 17.589844 20.890625 17.53125 20.75 17.695312 C 20.703125 17.566406 21.101562 17.332031 21.160156 17.308594 C 21.21875 17.285156 21.242188 17.144531 21.171875 17.15625 C 21.101562 17.167969 20.855469 17.203125 20.75 17.226562 Z M 20.75 17.226562 "/>
<path fill-rule="nonzero" fill="rgb(0%, 0%, 0%)" fill-opacity="1" d="M 19.242188 12.023438 C 19.582031 12.164062 19.875 11.976562 20.179688 11.730469 C 20.484375 11.484375 20.8125 11.613281 20.90625 11.648438 C 21 11.683594 20.800781 11.679688 20.453125 11.882812 C 20.109375 12.082031 19.945312 12.144531 19.933594 12.367188 C 19.921875 12.585938 19.828125 12.460938 19.78125 12.367188 C 19.734375 12.269531 19.722656 12.527344 19.78125 12.785156 C 19.839844 13.042969 19.738281 13.351562 19.738281 13.351562 C 19.738281 13.351562 19.652344 12.542969 19.242188 12.023438 Z M 19.242188 12.023438 "/>
<path fill-rule="nonzero" fill="rgb(84.70459%, 67.0578%, 42.744446%)" fill-opacity="1" d="M 15.925781 13.945312 C 15.925781 13.945312 15.984375 13.769531 16.21875 13.640625 C 16.453125 13.511719 16.289062 13.40625 16.136719 13.417969 C 15.984375 13.429688 15.867188 13.441406 15.703125 13.863281 C 15.539062 14.285156 14.917969 16.113281 15.925781 17.097656 C 15.632812 16.957031 15.363281 16.382812 15.363281 16.382812 C 15.363281 16.382812 15.398438 16.769531 15.597656 17.15625 C 15 16.21875 15.070312 15.222656 15.164062 14.472656 C 15.257812 13.722656 15.480469 13.242188 15.820312 13.21875 C 16.101562 12.796875 16.617188 13.015625 17.003906 13.351562 C 17.390625 13.6875 17.578125 14.003906 17.578125 14.003906 C 17.578125 14.003906 17.628906 13.382812 17.921875 13.441406 C 18.210938 13.5 18.632812 13.710938 18.691406 13.863281 C 18.75 14.015625 18.328125 13.898438 18.246094 13.804688 C 18.164062 13.710938 18.003906 13.605469 17.921875 13.699219 C 17.835938 13.792969 17.777344 14.214844 17.777344 14.214844 C 17.777344 14.214844 17.984375 13.828125 18.109375 13.863281 C 18.234375 13.898438 18.800781 14.402344 18.78125 14.578125 C 18.761719 14.753906 18.609375 14.484375 18.457031 14.367188 C 18.304688 14.25 18.183594 14.039062 18.109375 14.074219 C 18.035156 14.109375 17.765625 14.730469 17.742188 14.789062 C 17.71875 14.847656 17.804688 14.835938 17.917969 14.675781 C 18.035156 14.519531 18.164062 14.34375 18.234375 14.34375 C 18.304688 14.34375 18.789062 15.011719 18.78125 15.164062 C 18.773438 15.316406 18.699219 15.457031 18.640625 15.492188 C 18.582031 15.527344 18.667969 15.316406 18.527344 15.070312 C 18.386719 14.824219 18.257812 14.566406 18.199219 14.601562 C 18.140625 14.636719 17.871094 15.058594 17.824219 15.164062 C 17.777344 15.269531 18.128906 14.917969 18.257812 14.976562 C 18.386719 15.035156 18.574219 15.703125 18.582031 15.914062 C 18.585938 16.125 18.457031 16.265625 18.394531 16.324219 C 18.328125 16.382812 18.351562 16.113281 18.394531 15.984375 C 18.433594 15.855469 18.339844 15.691406 18.304688 15.492188 C 18.269531 15.292969 18.234375 15.105469 18.199219 15.164062 C 18.164062 15.222656 17.625 15.691406 17.578125 15.726562 C 17.53125 15.761719 17.746094 15.726562 17.917969 15.632812 C 18.09375 15.539062 18.1875 15.550781 18.210938 15.726562 C 18.234375 15.902344 18.269531 16.453125 18 16.605469 C 17.730469 16.757812 18.023438 16.417969 18.058594 16.253906 C 18.09375 16.089844 18.070312 15.738281 18 15.773438 C 17.929688 15.808594 17.4375 16.171875 17.285156 16.230469 C 17.132812 16.289062 17.214844 16.6875 17.367188 16.910156 C 17.519531 17.132812 17.851562 17.355469 17.917969 17.15625 C 17.988281 16.957031 18.246094 16.746094 18.394531 16.851562 C 18.539062 16.957031 18.46875 17.15625 18.46875 17.15625 C 18.46875 17.15625 18.660156 17.15625 18.640625 17.367188 C 18.621094 17.578125 18.351562 17.785156 17.695312 17.695312 C 17.039062 17.601562 16.21875 17.34375 16.265625 16.195312 C 16.019531 15.1875 16.207031 14.753906 16.242188 14.472656 C 16.277344 14.191406 16.382812 13.777344 16.347656 13.742188 C 16.3125 13.710938 16.042969 13.792969 15.925781 13.945312 Z M 25.253906 13.945312 C 25.253906 13.945312 25.195312 13.769531 24.960938 13.640625 C 24.722656 13.511719 24.890625 13.40625 25.039062 13.417969 C 25.191406 13.429688 25.308594 13.441406 25.472656 13.863281 C 25.640625 14.285156 26.257812 16.113281 25.25 17.097656 C 25.546875 16.957031 25.8125 16.382812 25.8125 16.382812 C 25.8125 16.382812 25.777344 16.769531 25.582031 17.15625 C 26.179688 16.21875 26.109375 15.222656 26.015625 14.472656 C 25.921875 13.722656 25.695312 13.242188 25.359375 13.21875 C 25.078125 12.796875 24.5625 13.015625 24.175781 13.351562 C 23.785156 13.6875 23.597656 14.003906 23.597656 14.003906 C 23.597656 14.003906 23.546875 13.382812 23.257812 13.441406 C 22.964844 13.5 22.546875 13.710938 22.488281 13.863281 C 22.429688 14.015625 22.847656 13.898438 22.933594 13.804688 C 23.015625 13.710938 23.171875 13.605469 23.257812 13.699219 C 23.339844 13.792969 23.402344 14.214844 23.402344 14.214844 C 23.402344 14.214844 23.191406 13.828125 23.070312 13.863281 C 22.945312 13.898438 22.378906 14.402344 22.398438 14.578125 C 22.417969 14.753906 22.570312 14.484375 22.722656 14.367188 C 22.875 14.25 22.996094 14.039062 23.070312 14.074219 C 23.144531 14.109375 23.414062 14.730469 23.4375 14.789062 C 23.460938 14.847656 23.375 14.835938 23.257812 14.675781 C 23.144531 14.519531 23.015625 14.34375 22.945312 14.34375 C 22.875 14.34375 22.386719 15.011719 22.398438 15.164062 C 22.40625 15.316406 22.476562 15.457031 22.539062 15.492188 C 22.597656 15.527344 22.511719 15.316406 22.652344 15.070312 C 22.792969 14.824219 22.921875 14.566406 22.980469 14.601562 C 23.039062 14.636719 23.308594 15.058594 23.355469 15.164062 C 23.402344 15.269531 23.050781 14.917969 22.921875 14.976562 C 22.792969 15.035156 22.601562 15.703125 22.597656 15.914062 C 22.59375 16.125 22.71875 16.265625 22.785156 16.324219 C 22.851562 16.382812 22.828125 16.113281 22.785156 15.984375 C 22.746094 15.855469 22.839844 15.691406 22.875 15.492188 C 22.910156 15.292969 22.945312 15.105469 22.980469 15.164062 C 23.015625 15.222656 23.554688 15.691406 23.601562 15.726562 C 23.648438 15.761719 23.433594 15.726562 23.257812 15.632812 C 23.085938 15.539062 22.992188 15.550781 22.96875 15.726562 C 22.945312 15.902344 22.910156 16.453125 23.179688 16.605469 C 23.449219 16.757812 23.15625 16.417969 23.121094 16.253906 C 23.085938 16.089844 23.109375 15.738281 23.179688 15.773438 C 23.25 15.808594 23.742188 16.171875 23.894531 16.230469 C 24.046875 16.289062 23.964844 16.6875 23.8125 16.910156 C 23.660156 17.132812 23.328125 17.355469 23.257812 17.15625 C 23.191406 16.957031 22.929688 16.746094 22.785156 16.851562 C 22.640625 16.957031 22.710938 17.15625 22.710938 17.15625 C 22.710938 17.15625 22.519531 17.15625 22.539062 17.367188 C 22.558594 17.578125 22.828125 17.785156 23.484375 17.695312 C 24.140625 17.601562 24.960938 17.34375 24.914062 16.195312 C 25.160156 15.1875 24.972656 14.753906 24.9375 14.472656 C 24.902344 14.191406 24.796875 13.777344 24.832031 13.742188 C 24.867188 13.710938 25.136719 13.792969 25.253906 13.945312 Z M 25.253906 13.945312 "/>
<path fill-rule="nonzero" fill="rgb(79.998779%, 8.235168%, 18.823242%)" fill-opacity="1" d="M 17.847656 18.597656 C 17.945312 18.261719 18.761719 17.953125 19.019531 18 C 19.277344 18.046875 19.746094 18.234375 19.476562 18.46875 C 19.207031 18.703125 18.632812 18.902344 18.246094 18.984375 C 17.859375 19.066406 17.777344 18.84375 17.847656 18.597656 Z M 23.308594 18.597656 C 23.214844 18.261719 22.394531 17.953125 22.136719 18 C 21.878906 18.046875 21.410156 18.234375 21.679688 18.46875 C 21.949219 18.703125 22.523438 18.902344 22.910156 18.984375 C 23.296875 19.066406 23.378906 18.84375 23.308594 18.597656 Z M 23.308594 18.597656 "/>
<path fill-rule="nonzero" fill="rgb(98.431396%, 98.03772%, 90.586853%)" fill-opacity="1" d="M 23.550781 18.152344 C 23.550781 18.152344 23.1875 17.757812 22.835938 17.996094 C 22.484375 18.234375 21.46875 19.078125 20.570312 19.078125 C 19.671875 19.078125 18.65625 18.234375 18.304688 17.996094 C 17.953125 17.757812 17.589844 18.152344 17.589844 18.152344 C 17.589844 18.152344 17.765625 18.234375 17.730469 18.410156 C 17.695312 18.585938 17.730469 18.890625 17.921875 18.953125 C 17.699219 18.40625 18.46875 18.679688 18.78125 19.003906 C 19.097656 19.324219 19.921875 19.710938 20.570312 19.710938 C 21.21875 19.710938 22.046875 19.324219 22.359375 19.003906 C 22.675781 18.679688 23.441406 18.40625 23.222656 18.953125 C 23.410156 18.890625 23.445312 18.585938 23.410156 18.410156 C 23.375 18.234375 23.550781 18.152344 23.550781 18.152344 Z M 23.550781 18.152344 "/>
<path fill-rule="nonzero" fill="rgb(98.431396%, 98.03772%, 90.586853%)" fill-opacity="1" d="M 18.949219 17.996094 C 19.363281 17.910156 19.898438 18.363281 19.992188 18.46875 C 20.085938 18.574219 19.945312 18.902344 19.78125 18.773438 C 19.617188 18.644531 19.511719 18.621094 19.3125 18.585938 C 19.113281 18.554688 18.855469 18.289062 19.136719 18.1875 C 19.015625 18.328125 19.136719 18.515625 19.324219 18.398438 C 19.511719 18.28125 19.359375 18.078125 18.949219 17.996094 Z M 22.265625 17.996094 C 21.851562 17.910156 21.316406 18.363281 21.222656 18.46875 C 21.128906 18.574219 21.269531 18.902344 21.433594 18.773438 C 21.597656 18.644531 21.703125 18.621094 21.902344 18.585938 C 22.101562 18.554688 22.359375 18.289062 22.078125 18.1875 C 22.199219 18.328125 22.078125 18.515625 21.890625 18.398438 C 21.703125 18.28125 21.855469 18.078125 22.265625 17.996094 Z M 22.265625 17.996094 "/>
<path fill-rule="nonzero" fill="rgb(0%, 14.117432%, 49.01886%)" fill-opacity="1" d="M 14.25 13.5 L 14.25 3.75 L 3 3.75 C 2.761719 3.75 2.546875 3.785156 2.546875 3.785156 L 2.542969 5.097656 L 0.496094 5.097656 C 0.496094 5.097656 0.464844 5.140625 0.402344 5.25 C 0.144531 5.691406 0 6.203125 0 6.75 L 0 13.5 Z M 14.25 13.5 "/>
<path fill-rule="nonzero" fill="rgb(93.331909%, 93.331909%, 93.331909%)" fill-opacity="1" d="M 14.25 3.75 L 12.5 3.75 L 9 6.203125 L 9 3.75 L 5.25 3.75 L 5.25 5.675781 L 2.546875 3.785156 C 2.085938 3.855469 1.65625 4.027344 1.292969 4.28125 L 4.820312 6.75 L 3.515625 6.75 L 0.726562 4.792969 C 0.644531 4.890625 0.566406 4.988281 0.496094 5.097656 L 2.859375 6.75 L 0 6.75 L 0 10.5 L 2.914062 10.5 L 0 12.574219 L 0 13.5 L 2.5 13.5 L 5.25 11.574219 L 5.25 13.5 L 9 13.5 L 9 11.046875 L 12.5 13.5 L 14.25 13.5 L 14.25 11.976562 L 12.140625 10.5 L 14.25 10.5 L 14.25 6.75 L 12.140625 6.75 L 14.25 5.273438 Z M 14.25 3.75 "/>
<path fill-rule="nonzero" fill="rgb(81.175232%, 10.588074%, 16.862488%)" fill-opacity="1" d="M 8.25 3.75 L 6 3.75 L 6 7.5 L 0 7.5 L 0 9.75 L 6 9.75 L 6 13.5 L 8.25 13.5 L 8.25 9.75 L 14.25 9.75 L 14.25 7.5 L 8.25 7.5 Z M 8.25 3.75 "/>
<path fill-rule="nonzero" fill="rgb(81.175232%, 10.588074%, 16.862488%)" fill-opacity="1" d="M 14.25 3.75 L 13.152344 3.75 L 9 6.660156 L 9 6.75 L 10.179688 6.75 L 14.25 3.898438 Z M 1.292969 4.28125 C 1.082031 4.429688 0.890625 4.601562 0.726562 4.792969 L 3.515625 6.75 L 4.820312 6.75 Z M 4.828125 10.5 L 0.550781 13.5 L 1.847656 13.5 L 5.25 11.117188 L 5.25 10.5 Z M 14.25 13.351562 L 14.25 12.4375 L 11.484375 10.5 L 10.175781 10.5 Z M 14.25 13.351562 "/>
</svg>