<svg xmlns="http://www.w3.org/2000/svg" xmlns:xlink="http://www.w3.org/1999/xlink" viewBox="0 0 27 27">
<path fill-rule="nonzero" fill="rgb(0%, 14.117432%, 49.01886%)" fill-opacity="1" d="M 24 3.75 L 3 3.75 C 2.847656 3.75 2.695312 3.761719 2.546875 3.785156 L 2.542969 5.097656 L 0.496094 5.097656 C 0.183594 5.570312 0 6.140625 0 6.75 L 0 20.25 C 0 21.90625 1.34375 23.25 3 23.25 L 24 23.25 C 25.65625 23.25 27 21.90625 27 20.25 L 27 6.75 C 27 5.09375 25.65625 3.75 24 3.75 Z M 24 3.75 "/>
<path fill-rule="nonzero" fill="rgb(100%, 100%, 100%)" fill-opacity="1" d="M 17.25 9 L 17.25 11.792969 C 17.25 15.679688 19.414062 17.097656 21.117188 18.023438 C 22.820312 17.097656 24.71875 15.679688 24.71875 11.792969 L 24.71875 9 Z M 17.25 9 "/>
<path fill-rule="nonzero" fill="rgb(99.606323%, 76.861572%, 0%)" fill-opacity="1" d="M 21.117188 17.574219 C 19.464844 16.648438 17.5625 15.316406 17.5625 11.792969 L 17.5625 9.5 L 24.460938 9.5 L 24.460938 11.792969 C 24.460938 15.316406 22.769531 16.648438 21.117188 17.574219 Z M 21.117188 17.574219 "/>
<path fill-rule="nonzero" fill="rgb(0%, 65.489197%, 15.686035%)" fill-opacity="1" d="M 22.464844 15.738281 C 22.417969 15.328125 22.078125 14.039062 21.679688 13.652344 C 21.28125 13.265625 21.117188 13.566406 21.117188 13.566406 C 21.117188 13.566406 20.953125 13.265625 20.554688 13.652344 C 20.15625 14.039062 19.816406 15.328125 19.769531 15.738281 C 19.722656 16.148438 19.816406 16.242188 20.027344 16.242188 C 20.121094 16.441406 20.484375 16.476562 20.484375 16.476562 C 20.484375 16.476562 20.894531 16.746094 21.117188 16.476562 C 21.339844 16.746094 21.75 16.476562 21.75 16.476562 C 21.75 16.476562 22.113281 16.441406 22.207031 16.242188 C 22.417969 16.242188 22.511719 16.148438 22.464844 15.738281 Z M 22.464844 15.738281 "/>
<path fill-rule="nonzero" fill="rgb(94.116211%, 3.137207%, 17.64679%)" fill-opacity="1" d="M 21.714844 13.183594 C 21.714844 13.539062 21.808594 13.828125 21.128906 13.828125 C 20.449219 13.828125 20.542969 13.539062 20.542969 13.183594 C 20.542969 12.824219 20.804688 12.535156 21.128906 12.535156 C 21.453125 12.535156 21.714844 12.824219 21.714844 13.183594 Z M 21.714844 13.183594 "/>
<path fill-rule="nonzero" fill="rgb(100%, 62.35199%, 24.313354%)" fill-opacity="1" d="M 19.863281 12.714844 C 19.675781 13.03125 19.382812 12.808594 19.253906 12.433594 C 19.125 12.058594 18.609375 11.953125 18.421875 11.847656 C 18.234375 11.742188 18.1875 11.566406 18.421875 11.4375 C 18.65625 11.308594 18.515625 11.144531 18.679688 11.097656 C 18.46875 11.050781 18.28125 11.167969 18.261719 11.097656 C 18.246094 11.027344 18.410156 10.832031 18.679688 10.800781 C 18.457031 10.523438 18.585938 9.9375 18.679688 9.925781 C 18.773438 9.914062 18.964844 10.089844 19.0625 10.265625 C 19.160156 10.441406 19.441406 10.40625 19.417969 10.652344 C 19.476562 10.710938 19.675781 10.675781 19.863281 10.980469 C 20.050781 11.285156 19.863281 12.714844 19.863281 12.714844 Z M 19.863281 12.714844 "/>
<path fill-rule="nonzero" fill="rgb(100%, 57.254028%, 49.803162%)" fill-opacity="1" d="M 19.945312 12.667969 C 19.679688 12.6875 19.582031 12.457031 19.535156 12.117188 C 19.488281 11.777344 19.007812 11.90625 19.230469 11.394531 C 19.453125 10.886719 19.535156 11.195312 19.558594 10.800781 C 19.582031 10.40625 19.710938 10.078125 19.828125 10.078125 C 19.945312 10.078125 20.097656 10.441406 20.15625 10.59375 C 20.214844 10.75 20.441406 10.710938 20.539062 11.238281 C 20.636719 11.765625 20.519531 12.152344 20.390625 12.269531 C 20.261719 12.386719 20.203125 12.40625 20.179688 12.535156 C 20.15625 12.667969 20.121094 12.65625 19.945312 12.667969 Z M 19.945312 12.667969 "/>
<path fill-rule="nonzero" fill="rgb(99.606323%, 61.567688%, 87.841797%)" fill-opacity="1" d="M 19.945312 10.429688 C 20.027344 10.488281 20.03125 10.570312 19.945312 10.710938 C 19.863281 10.851562 20 10.992188 20.007812 11.226562 C 20.015625 11.460938 19.894531 11.542969 19.921875 11.660156 C 19.945312 11.777344 20.132812 12 20.109375 12.269531 C 20.085938 12.539062 20.03125 12.621094 19.945312 12.667969 C 19.863281 12.714844 19.898438 12.527344 19.917969 12.351562 C 19.933594 12.175781 19.816406 11.976562 19.757812 11.800781 C 19.699219 11.625 19.835938 11.496094 19.875 11.320312 C 19.910156 11.144531 19.816406 10.984375 19.804688 10.800781 C 19.792969 10.617188 19.945312 10.429688 19.945312 10.429688 Z M 19.945312 10.429688 "/>
<path fill-rule="nonzero" fill="rgb(72.940063%, 35.68573%, 12.156677%)" fill-opacity="1" d="M 22.664062 10.875 C 22.699219 10.617188 22.6875 10.21875 22.605469 10.078125 C 22.523438 9.9375 22.394531 9.855469 22.476562 9.832031 C 22.558594 9.808594 22.945312 10.21875 22.734375 11.050781 C 22.523438 11.882812 22.664062 10.875 22.664062 10.875 Z M 22.664062 10.875 "/>
<path fill-rule="nonzero" fill="rgb(72.940063%, 35.68573%, 12.156677%)" fill-opacity="1" d="M 22.621094 10.804688 C 22.464844 10.710938 22.261719 10.476562 22.28125 10.347656 C 22.300781 10.21875 22.453125 9.984375 22.476562 10.03125 C 22.5 10.078125 22.40625 10.222656 22.476562 10.414062 C 22.546875 10.605469 22.582031 10.617188 22.675781 10.742188 C 22.773438 10.871094 22.621094 10.804688 22.621094 10.804688 Z M 22.535156 10.980469 C 22.441406 10.867188 21.398438 10.195312 21.503906 10.148438 C 21.609375 10.101562 22.507812 10.664062 22.648438 10.980469 C 22.792969 11.296875 22.535156 10.980469 22.535156 10.980469 Z M 22.535156 10.980469 "/>
<path fill-rule="nonzero" fill="rgb(72.940063%, 35.68573%, 12.156677%)" fill-opacity="1" d="M 22.476562 11.179688 C 22.09375 10.800781 21.152344 10.734375 21.199219 10.675781 C 21.246094 10.617188 22.453125 10.726562 22.625 11.078125 C 22.792969 11.425781 22.476562 11.179688 22.476562 11.179688 Z M 22.476562 11.179688 "/>
<path fill-rule="nonzero" fill="rgb(72.940063%, 35.68573%, 12.156677%)" fill-opacity="1" d="M 22.449219 11.378906 C 22.019531 11.15625 21.265625 11.109375 21.199219 11.121094 C 21.128906 11.132812 21.925781 10.898438 22.492188 11.25 C 23.0625 11.601562 22.449219 11.378906 22.449219 11.378906 Z M 22.476562 11.695312 C 22.03125 11.496094 21.375 11.554688 21.257812 11.625 C 21.140625 11.695312 21.597656 11.359375 21.914062 11.390625 C 22.230469 11.425781 22.535156 11.492188 22.625 11.550781 C 22.710938 11.613281 22.632812 11.765625 22.476562 11.695312 Z M 22.476562 11.695312 "/>
<path fill-rule="nonzero" fill="rgb(72.940063%, 35.68573%, 12.156677%)" fill-opacity="1" d="M 22.734375 10.800781 C 22.683594 10.511719 22.679688 10.269531 22.296875 10.300781 C 21.910156 10.328125 21.839844 11.050781 21.9375 12.058594 C 22.03125 13.066406 21.914062 13.398438 21.898438 13.453125 C 21.878906 13.511719 22.113281 13.253906 22.097656 12.808594 C 22.078125 12.363281 21.980469 11.382812 22.011719 11.023438 C 22.042969 10.664062 22.21875 10.394531 22.453125 10.464844 C 22.683594 10.535156 22.632812 10.714844 22.625 10.9375 C 22.617188 11.15625 22.734375 10.800781 22.734375 10.800781 Z M 22.734375 10.800781 "/>
<path fill-rule="nonzero" fill="rgb(72.940063%, 35.68573%, 12.156677%)" fill-opacity="1" d="M 22.992188 12.675781 C 22.992188 12.675781 23.109375 12.609375 23.261719 11.8125 C 23.414062 11.015625 23.085938 10.675781 22.792969 10.675781 C 22.5 10.675781 22.171875 11.015625 22.324219 11.8125 C 22.476562 12.609375 22.59375 12.675781 22.59375 12.675781 C 22.59375 12.675781 22.234375 13.015625 22.285156 13.183594 C 22.335938 13.347656 22.792969 13.351562 22.792969 13.351562 C 22.792969 13.351562 23.25 13.347656 23.300781 13.183594 C 23.351562 13.015625 22.992188 12.675781 22.992188 12.675781 Z M 22.992188 12.675781 "/>
<path fill-rule="nonzero" fill="rgb(72.940063%, 35.68573%, 12.156677%)" fill-opacity="1" d="M 22.925781 10.875 C 22.890625 10.617188 22.902344 10.21875 22.984375 10.078125 C 23.066406 9.9375 23.195312 9.855469 23.113281 9.832031 C 23.03125 9.808594 22.644531 10.21875 22.855469 11.050781 C 23.066406 11.882812 22.925781 10.875 22.925781 10.875 Z M 22.925781 10.875 "/>
<path fill-rule="nonzero" fill="rgb(72.940063%, 35.68573%, 12.156677%)" fill-opacity="1" d="M 22.964844 10.804688 C 23.125 10.710938 23.328125 10.476562 23.308594 10.347656 C 23.289062 10.21875 23.136719 9.984375 23.113281 10.03125 C 23.089844 10.078125 23.183594 10.222656 23.113281 10.414062 C 23.042969 10.605469 23.007812 10.617188 22.914062 10.742188 C 22.816406 10.871094 22.964844 10.804688 22.964844 10.804688 Z M 23.054688 10.980469 C 23.148438 10.867188 24.191406 10.195312 24.085938 10.148438 C 23.980469 10.101562 23.082031 10.664062 22.941406 10.980469 C 22.796875 11.296875 23.054688 10.980469 23.054688 10.980469 Z M 23.054688 10.980469 "/>
<path fill-rule="nonzero" fill="rgb(72.940063%, 35.68573%, 12.156677%)" fill-opacity="1" d="M 23.113281 11.179688 C 23.496094 10.800781 24.4375 10.734375 24.390625 10.675781 C 24.34375 10.617188 23.132812 10.726562 22.964844 11.078125 C 22.796875 11.425781 23.113281 11.179688 23.113281 11.179688 Z M 23.113281 11.179688 "/>
<path fill-rule="nonzero" fill="rgb(72.940063%, 35.68573%, 12.156677%)" fill-opacity="1" d="M 23.140625 11.378906 C 23.570312 11.15625 24.324219 11.109375 24.390625 11.121094 C 24.460938 11.132812 23.664062 10.898438 23.097656 11.25 C 22.527344 11.601562 23.140625 11.378906 23.140625 11.378906 Z M 23.113281 11.695312 C 23.558594 11.496094 24.214844 11.554688 24.332031 11.625 C 24.449219 11.695312 23.992188 11.359375 23.675781 11.390625 C 23.359375 11.425781 23.054688 11.492188 22.964844 11.550781 C 22.878906 11.613281 22.957031 11.765625 23.113281 11.695312 Z M 23.113281 11.695312 "/>
<path fill-rule="nonzero" fill="rgb(72.940063%, 35.68573%, 12.156677%)" fill-opacity="1" d="M 22.855469 10.800781 C 22.90625 10.511719 22.910156 10.269531 23.296875 10.300781 C 23.679688 10.328125 23.75 11.050781 23.652344 12.058594 C 23.558594 13.066406 23.675781 13.398438 23.691406 13.453125 C 23.710938 13.511719 23.476562 13.253906 23.496094 12.808594 C 23.511719 12.363281 23.609375 11.382812 23.578125 11.023438 C 23.546875 10.664062 23.371094 10.394531 23.140625 10.464844 C 22.90625 10.535156 22.960938 10.714844 22.964844 10.9375 C 22.972656 11.15625 22.855469 10.800781 22.855469 10.800781 Z M 22.855469 10.800781 "/>
<path fill-rule="nonzero" fill="rgb(0%, 14.117432%, 49.01886%)" fill-opacity="1" d="M 14.25 13.5 L 14.25 3.75 L 3 3.75 C 2.761719 3.75 2.546875 3.785156 2.546875 3.785156 L 2.542969 5.097656 L 0.496094 5.097656 C 0.496094 5.097656 0.464844 5.140625 0.402344 5.25 C 0.144531 5.691406 0 6.203125 0 6.75 L 0 13.5 Z M 14.25 13.5 "/>
<path fill-rule="nonzero" fill="rgb(93.331909%, 93.331909%, 93.331909%)" fill-opacity="1" d="M 14.25 3.75 L 12.5 3.75 L 9 6.203125 L 9 3.75 L 5.25 3.75 L 5.25 5.675781 L 2.546875 3.785156 C 2.085938 3.855469 1.65625 4.027344 1.292969 4.28125 L 4.820312 6.75 L 3.515625 6.75 L 0.726562 4.792969 C 0.644531 4.890625 0.566406 4.988281 0.496094 5.097656 L 2.859375 6.75 L 0 6.75 L 0 10.5 L 2.914062 10.5 L 0 12.574219 L 0 13.5 L 2.5 13.5 L 5.25 11.574219 L 5.25 13.5 L 9 13.5 L 9 11.046875 L 12.5 13.5 L 14.25 13.5 L 14.25 11.976562 L 12.140625 10.5 L 14.25 10.5 L 14.25 6.75 L 12.140625 6.75 L 14.25 5.273438 Z M 14.25 3.75 "/>
<path fill-rule="nonzero" fill="rgb(81.175232%, 10.588074%, 16.862488%)" fill-opacity="1" d="M 8.25 3.75 L 6 3.75 L 6 7.5 L 0 7.5 L 0 9.75 L 6 9.75 L 6 13.5 L 8.25 13.5 L 8.25 9.75 L 14.25 9.75 L 14.25 7.5 L 8.25 7.5 Z M 8.25 3.75 "/>
<path fill-rule="nonzero" fill="rgb(81.175232%, 10.588074%, 16.862488%)" fill-opacity="1" d="M 14.25 3.75 L 13.152344 3.75 L 9 6.660156 L 9 6.75 L 10.179688 6.75 L 14.25 3.898438 Z M 1.292969 4.28125 C 1.082031 4.429688 0.890625 4.601562 0.726562 4.792969 L 3.515625 6.75 L 4.820312 6.75 Z M 4.828125 10.5 L 0.550781 13.5 L 1.847656 13.5 L 5.25 11.117188 L 5.25 10.5 Z M 14.25 13.351562 L 14.25 12.4375 L 11.484375 10.5 L 10.175781 10.5 Z M 14.25 13.351562 "/>
</svg>