<svg xmlns="http://www.w3.org/2000/svg" xmlns:xlink="http://www.w3.org/1999/xlink" viewBox="0 0 27 27">
<path fill-rule="nonzero" fill="rgb(0%, 13.725281%, 58.430481%)" fill-opacity="1" d="M 24 3.75 L 13.5 3.75 L 13.5 12.75 L 0 12.75 L 0 20.25 C 0 21.90625 1.34375 23.25 3 23.25 L 24 23.25 C 25.65625 23.25 27 21.90625 27 20.25 L 27 6.75 C 27 5.09375 25.65625 3.75 24 3.75 Z M 24 3.75 "/>
<path fill-rule="nonzero" fill="rgb(93.331909%, 93.331909%, 93.331909%)" fill-opacity="1" d="M 0 12 L 14.25 12 L 14.25 13.5 L 0 13.5 Z M 0 12 "/>
<path fill-rule="nonzero" fill="rgb(0%, 13.725281%, 58.430481%)" fill-opacity="1" d="M 4.5 12.75 L 0 12.75 L 0 6.75 C 0 5.09375 1.34375 3.75 3 3.75 L 4.5 3.75 Z M 4.5 12.75 "/>
<path fill-rule="nonzero" fill="rgb(93.331909%, 93.331909%, 93.331909%)" fill-opacity="1" d="M 4.5 3.75 L 9 3.75 L 9 12.75 L 4.5 12.75 Z M 12.75 3.75 L 14.25 3.75 L 14.25 13.5 L 12.75 13.5 Z M 12.75 3.75 "/>
<path fill-rule="nonzero" fill="rgb(92.939758%, 16.078186%, 22.3526%)" fill-opacity="1" d="M 9 3.75 L 13.5 3.75 L 13.5 12.75 L 9 12.75 Z M 9 3.75 "/>
<path fill-rule="nonzero" fill="rgb(100%, 100%, 100%)" fill-opacity="1" d="M 22.472656 15.070312 L 21.195312 17.042969 L 21.195312 13.472656 L 22.898438 13.472656 L 23.527344 12.75 L 17.707031 12.75 L 18.335938 13.472656 L 20.035156 13.472656 L 20.035156 17.042969 L 18.761719 15.070312 L 16.90625 17.972656 L 17.832031 17.972656 L 18.761719 16.445312 L 20.617188 19.710938 L 22.472656 16.445312 L 23.402344 17.972656 L 24.328125 17.972656 Z M 22.472656 15.070312 "/>
<path fill-rule="nonzero" fill="rgb(100%, 100%, 100%)" fill-opacity="1" d="M 20.25 14.253906 L 22.597656 14.253906 L 22.082031 14.960938 L 20.25 14.960938 Z M 17.832031 17.265625 L 19.6875 17.265625 L 19.6875 17.730469 L 17.832031 17.730469 Z M 21.546875 17.265625 L 23.402344 17.265625 L 23.402344 17.730469 L 21.546875 17.730469 Z M 20.617188 20.40625 L 20.839844 21.175781 L 21.617188 21.175781 L 21.003906 21.671875 L 21.230469 22.429688 L 20.617188 21.964844 L 20.003906 22.417969 L 20.230469 21.667969 L 19.617188 21.175781 L 20.371094 21.175781 Z M 16.613281 13.5 L 16.839844 14.269531 L 17.613281 14.269531 L 17.003906 14.742188 L 17.226562 15.492188 L 16.613281 15.023438 L 16.003906 15.472656 L 16.226562 14.742188 L 15.613281 14.269531 L 16.371094 14.269531 Z M 24.617188 13.5 L 24.84375 14.269531 L 25.617188 14.269531 L 25.007812 14.742188 L 25.230469 15.492188 L 24.617188 15.023438 L 24.007812 15.472656 L 24.230469 14.742188 L 23.621094 14.269531 L 24.375 14.269531 Z M 18.421875 18.863281 L 18.644531 19.632812 L 19.417969 19.632812 L 18.808594 20.113281 L 19.03125 20.867188 L 18.421875 20.398438 L 17.808594 20.847656 L 18.03125 20.113281 L 17.421875 19.632812 L 18.175781 19.632812 Z M 22.8125 18.863281 L 23.039062 19.632812 L 23.8125 19.632812 L 23.203125 20.113281 L 23.425781 20.867188 L 22.8125 20.398438 L 22.203125 20.847656 L 22.425781 20.113281 L 21.816406 19.632812 L 22.570312 19.632812 Z M 22.8125 18.863281 "/>
</svg>