<svg xmlns="http://www.w3.org/2000/svg" xmlns:xlink="http://www.w3.org/1999/xlink" viewBox="0 0 27 27">
<path fill-rule="nonzero" fill="rgb(0%, 14.117432%, 49.01886%)" fill-opacity="1" d="M 27 20.25 C 27 21.90625 25.65625 23.25 24 23.25 L 3 23.25 C 1.34375 23.25 0 21.90625 0 20.25 L 0 6.75 C 0 5.09375 1.34375 3.75 3 3.75 L 24 3.75 C 25.65625 3.75 27 5.09375 27 6.75 Z M 27 20.25 "/>
<path fill-rule="nonzero" fill="rgb(100%, 100%, 100%)" fill-opacity="1" d="M 2.515625 8.359375 L 2.773438 9.1875 L 3.636719 9.179688 L 2.929688 9.679688 L 3.203125 10.5 L 2.511719 9.984375 L 1.8125 10.496094 L 2.09375 9.675781 L 1.390625 9.171875 L 2.253906 9.183594 Z M 6.074219 13.5 L 6.40625 14.5625 L 7.519531 14.554688 L 6.609375 15.199219 L 6.960938 16.253906 L 6.070312 15.589844 L 5.171875 16.246094 L 5.53125 15.195312 L 4.625 14.546875 L 5.738281 14.558594 Z M 6.214844 4.890625 L 6.472656 5.714844 L 7.335938 5.710938 L 6.628906 6.207031 L 6.902344 7.03125 L 6.210938 6.511719 L 5.515625 7.023438 L 5.792969 6.207031 L 5.089844 5.703125 L 5.953125 5.714844 Z M 9.796875 8.191406 L 9.980469 8.773438 L 10.589844 8.769531 L 10.089844 9.125 L 10.285156 9.703125 L 9.792969 9.339844 L 9.300781 9.703125 L 9.496094 9.121094 L 9 8.765625 L 9.613281 8.773438 Z M 9.796875 8.191406 "/>
<path fill-rule="nonzero" fill="rgb(99.606323%, 81.959534%, 0%)" fill-opacity="1" d="M 24 21.75 L 3.75 21.75 C 3.75 21.75 3.550781 21.621094 3.550781 21.375 C 3.550781 21.128906 3.75 21 3.75 21 L 24 21 L 25.113281 21.375 Z M 3.75 20.25 C 3.75 20.25 7.5 18.75 12 14.25 C 16.5 9.75 19.5 6.75 21 6 C 19.683594 7.316406 18.171875 16.5 21.921875 19.5 C 21.921875 19.5 24 19.890625 24 20.25 Z M 3.75 20.25 "/>
</svg>