<svg xmlns="http://www.w3.org/2000/svg" xmlns:xlink="http://www.w3.org/1999/xlink" viewBox="0 0 27 27">
<path fill-rule="nonzero" fill="rgb(29.411316%, 57.254028%, 85.881042%)" fill-opacity="1" d="M 27 20.25 C 27 21.90625 25.65625 23.25 24 23.25 L 3 23.25 C 1.34375 23.25 0 21.90625 0 20.25 L 0 6.75 C 0 5.09375 1.34375 3.75 3 3.75 L 24 3.75 C 25.65625 3.75 27 5.09375 27 6.75 Z M 27 20.25 "/>
<path fill-rule="nonzero" fill="rgb(100%, 100%, 100%)" fill-opacity="1" d="M 7.914062 11.648438 C 8.027344 11.417969 8.210938 11.199219 8.425781 11.039062 C 8.90625 10.675781 9.429688 10.207031 9.4375 9.589844 C 9.277344 10.035156 8.796875 10.21875 8.472656 10.519531 C 8.304688 10.679688 8.175781 10.875 8.097656 11.074219 L 8.085938 11.066406 C 8.125 10.886719 8.203125 10.726562 8.253906 10.554688 C 8.394531 10.085938 8.367188 9.523438 8.824219 9.210938 C 8.589844 9.269531 8.390625 9.421875 8.214844 9.617188 C 7.847656 10.027344 7.878906 10.628906 7.929688 11.167969 C 7.941406 11.335938 7.933594 11.476562 7.914062 11.648438 Z M 10.328125 17.445312 C 9.796875 17.015625 9.714844 16.371094 9.476562 15.804688 C 9.328125 15.457031 9.089844 15.140625 8.832031 14.832031 C 9.117188 15.394531 8.992188 16.121094 9.359375 16.652344 C 9.472656 16.820312 9.632812 16.980469 9.78125 17.113281 L 9.773438 17.121094 C 9.640625 17.058594 9.519531 16.964844 9.398438 16.863281 C 8.757812 16.332031 7.796875 16.261719 7.414062 15.394531 C 7.515625 16.03125 8.023438 16.597656 8.566406 16.953125 C 9.085938 17.292969 9.75 17.253906 10.328125 17.445312 Z M 10.328125 17.445312 "/>
<path fill-rule="nonzero" fill="rgb(100%, 100%, 100%)" fill-opacity="1" d="M 7.925781 15.660156 C 8.289062 15.945312 8.71875 16.164062 9.046875 16.414062 C 8.980469 16.25 8.875 16.101562 8.832031 15.929688 C 8.640625 15.148438 8.746094 14.246094 8.414062 13.523438 C 8.476562 13.933594 8.3125 14.296875 8.277344 14.6875 C 8.246094 15.007812 8.300781 15.320312 8.425781 15.589844 C 8.460938 15.667969 8.527344 15.742188 8.546875 15.820312 C 8.429688 15.714844 8.34375 15.574219 8.257812 15.441406 C 7.871094 14.8125 7.058594 14.40625 7.003906 13.640625 C 6.976562 13.980469 7.003906 14.339844 7.117188 14.644531 C 7.277344 15.0625 7.578125 15.382812 7.925781 15.660156 Z M 8.472656 10.3125 C 8.730469 10.070312 9.027344 9.894531 9.242188 9.605469 C 9.503906 9.261719 9.730469 8.878906 10.070312 8.582031 C 9.609375 8.761719 9.113281 8.945312 8.8125 9.421875 C 8.636719 9.695312 8.613281 10.023438 8.472656 10.3125 Z M 11.703125 17.789062 C 11.800781 17.765625 11.917969 17.773438 12.007812 17.742188 C 11.632812 17.664062 11.273438 17.550781 10.984375 17.285156 C 10.566406 16.90625 10.199219 16.5 9.753906 16.207031 C 10.101562 16.675781 10.203125 17.355469 10.835938 17.59375 C 10.949219 17.636719 11.078125 17.644531 11.175781 17.707031 C 11.054688 17.726562 10.945312 17.6875 10.832031 17.664062 C 10.011719 17.488281 9.011719 17.710938 8.398438 17.015625 C 8.632812 17.46875 9.109375 17.832031 9.570312 17.984375 C 10.285156 18.21875 11.03125 17.957031 11.703125 17.789062 Z M 11.703125 17.789062 "/>
<path fill-rule="nonzero" fill="rgb(100%, 100%, 100%)" fill-opacity="1" d="M 8.042969 14.878906 L 8.078125 14.910156 C 8.039062 14.65625 8.023438 14.386719 8.09375 14.144531 C 8.203125 13.757812 8.335938 13.386719 8.410156 12.984375 C 8.464844 12.675781 8.527344 12.328125 8.492188 12.027344 C 8.453125 12.191406 8.410156 12.347656 8.320312 12.488281 C 7.980469 13.011719 7.636719 13.625 7.871094 14.289062 C 7.867188 14.296875 7.859375 14.304688 7.851562 14.296875 C 7.753906 14.078125 7.734375 13.828125 7.671875 13.59375 C 7.507812 12.972656 7.027344 12.449219 7.171875 11.730469 C 7.097656 11.886719 7.066406 12.0625 7.027344 12.234375 C 6.945312 12.671875 7.027344 13.140625 7.148438 13.546875 C 7.296875 14.054688 7.792969 14.417969 8.042969 14.878906 Z M 8.042969 14.878906 "/>
<path fill-rule="nonzero" fill="rgb(100%, 100%, 100%)" fill-opacity="1" d="M 8.667969 11.523438 C 8.78125 11.296875 8.847656 11.042969 8.878906 10.792969 C 8.839844 10.898438 8.773438 10.996094 8.6875 11.082031 C 8.3125 11.433594 7.875 11.785156 7.789062 12.285156 C 7.777344 12.355469 7.769531 12.429688 7.75 12.496094 C 7.734375 12.503906 7.734375 12.488281 7.726562 12.480469 L 7.773438 11.859375 C 7.816406 11.257812 7.5 10.582031 7.847656 10.050781 C 7.835938 10.046875 7.832031 10.054688 7.820312 10.0625 C 7.503906 10.46875 7.289062 10.914062 7.289062 11.457031 C 7.289062 12.132812 7.679688 12.601562 7.726562 13.234375 C 7.828125 12.574219 8.378906 12.105469 8.667969 11.523438 Z M 19.328125 13.59375 C 19.265625 13.828125 19.246094 14.078125 19.152344 14.300781 C 19.140625 14.304688 19.132812 14.296875 19.128906 14.289062 C 19.367188 13.625 19.019531 13.011719 18.683594 12.488281 C 18.59375 12.351562 18.550781 12.191406 18.507812 12.027344 C 18.472656 12.328125 18.535156 12.675781 18.589844 12.988281 C 18.664062 13.386719 18.800781 13.761719 18.910156 14.144531 C 18.980469 14.386719 18.960938 14.65625 18.925781 14.910156 L 18.957031 14.882812 C 19.210938 14.417969 19.707031 14.054688 19.855469 13.546875 C 19.976562 13.144531 20.058594 12.675781 19.976562 12.234375 C 19.9375 12.066406 19.90625 11.886719 19.832031 11.730469 C 19.972656 12.449219 19.492188 12.972656 19.328125 13.59375 Z M 17.601562 16.863281 C 17.480469 16.964844 17.359375 17.058594 17.226562 17.121094 L 17.21875 17.113281 C 17.367188 16.980469 17.527344 16.820312 17.640625 16.652344 C 18.007812 16.121094 17.886719 15.394531 18.167969 14.832031 C 17.910156 15.140625 17.671875 15.457031 17.523438 15.804688 C 17.285156 16.371094 17.203125 17.015625 16.671875 17.445312 C 17.25 17.257812 17.914062 17.292969 18.433594 16.953125 C 18.976562 16.597656 19.484375 16.03125 19.585938 15.394531 C 19.203125 16.261719 18.242188 16.332031 17.601562 16.863281 Z M 17.601562 16.863281 "/>
<path fill-rule="nonzero" fill="rgb(100%, 100%, 100%)" fill-opacity="1" d="M 15.824219 17.707031 C 15.921875 17.644531 16.050781 17.636719 16.164062 17.59375 C 16.800781 17.355469 16.898438 16.675781 17.246094 16.207031 C 16.800781 16.5 16.433594 16.90625 16.019531 17.285156 C 15.726562 17.550781 15.367188 17.664062 14.992188 17.738281 C 15.085938 17.773438 15.199219 17.765625 15.296875 17.789062 C 15.96875 17.953125 16.714844 18.21875 17.429688 17.980469 C 17.890625 17.828125 18.371094 17.46875 18.601562 17.011719 C 17.988281 17.710938 16.988281 17.484375 16.167969 17.660156 C 16.054688 17.6875 15.945312 17.722656 15.824219 17.707031 Z M 18.453125 15.820312 C 18.472656 15.742188 18.539062 15.667969 18.574219 15.589844 C 18.699219 15.320312 18.757812 15.007812 18.726562 14.6875 C 18.6875 14.296875 18.523438 13.933594 18.585938 13.523438 C 18.253906 14.246094 18.359375 15.148438 18.167969 15.929688 C 18.125 16.101562 18.019531 16.25 17.953125 16.414062 C 18.28125 16.164062 18.714844 15.945312 19.074219 15.660156 C 19.421875 15.382812 19.726562 15.0625 19.882812 14.644531 C 19.996094 14.339844 20.023438 13.980469 19.996094 13.640625 C 19.941406 14.40625 19.128906 14.8125 18.742188 15.441406 C 18.660156 15.574219 18.574219 15.714844 18.453125 15.820312 Z M 19.226562 11.863281 L 19.273438 12.484375 C 19.265625 12.488281 19.265625 12.507812 19.25 12.5 C 19.230469 12.429688 19.222656 12.355469 19.210938 12.285156 C 19.128906 11.785156 18.6875 11.433594 18.316406 11.082031 C 18.226562 10.996094 18.160156 10.898438 18.121094 10.792969 C 18.152344 11.042969 18.222656 11.296875 18.332031 11.523438 C 18.621094 12.105469 19.175781 12.574219 19.273438 13.234375 C 19.320312 12.601562 19.710938 12.132812 19.710938 11.457031 C 19.710938 10.914062 19.496094 10.46875 19.179688 10.0625 C 19.167969 10.058594 19.164062 10.046875 19.152344 10.050781 C 19.503906 10.582031 19.183594 11.257812 19.226562 11.863281 Z M 19.226562 11.863281 "/>
<path fill-rule="nonzero" fill="rgb(100%, 100%, 100%)" fill-opacity="1" d="M 18.75 10.554688 C 18.800781 10.726562 18.875 10.886719 18.914062 11.066406 L 18.902344 11.074219 C 18.828125 10.875 18.699219 10.679688 18.527344 10.519531 C 18.207031 10.21875 17.722656 10.035156 17.5625 9.589844 C 17.570312 10.207031 18.097656 10.675781 18.574219 11.039062 C 18.792969 11.203125 18.972656 11.417969 19.085938 11.648438 C 19.066406 11.476562 19.058594 11.335938 19.074219 11.167969 C 19.125 10.632812 19.15625 10.027344 18.785156 9.617188 C 18.609375 9.421875 18.410156 9.269531 18.175781 9.210938 C 18.632812 9.523438 18.609375 10.085938 18.75 10.554688 Z M 15.917969 18.253906 C 15.367188 18.027344 14.804688 17.722656 14.175781 17.722656 C 13.945312 17.722656 13.71875 17.761719 13.5 17.828125 C 13.28125 17.761719 13.054688 17.722656 12.824219 17.722656 C 12.195312 17.722656 11.632812 18.027344 11.082031 18.253906 C 10.582031 18.460938 9.917969 18.421875 9.476562 18.117188 C 9.695312 18.390625 9.988281 18.558594 10.292969 18.675781 C 10.851562 18.898438 11.507812 18.726562 11.988281 18.421875 C 12.332031 18.199219 12.628906 17.890625 13.039062 17.890625 C 13.113281 17.890625 13.1875 17.898438 13.257812 17.914062 C 12.683594 18.144531 12.15625 18.550781 11.746094 18.941406 C 11.824219 19.027344 11.921875 19.105469 12.011719 19.179688 C 12.46875 18.710938 12.984375 18.203125 13.5 17.992188 C 14.015625 18.203125 14.53125 18.710938 14.988281 19.179688 C 15.078125 19.105469 15.175781 19.027344 15.25 18.941406 C 14.839844 18.550781 14.316406 18.148438 13.738281 17.914062 C 13.8125 17.898438 13.886719 17.890625 13.960938 17.890625 C 14.371094 17.890625 14.667969 18.199219 15.011719 18.421875 C 15.488281 18.726562 16.144531 18.898438 16.707031 18.675781 C 17.007812 18.558594 17.300781 18.390625 17.523438 18.117188 C 17.082031 18.421875 16.417969 18.460938 15.917969 18.253906 Z M 15.917969 18.253906 "/>
<path fill-rule="nonzero" fill="rgb(100%, 100%, 100%)" fill-opacity="1" d="M 18.527344 10.3125 C 18.386719 10.023438 18.363281 9.695312 18.1875 9.417969 C 17.886719 8.945312 17.390625 8.761719 16.929688 8.582031 C 17.269531 8.878906 17.496094 9.261719 17.757812 9.605469 C 17.972656 9.894531 18.269531 10.070312 18.527344 10.3125 Z M 9.425781 10.734375 L 9.371094 10.707031 C 9.070312 11.320312 8.898438 12.007812 8.898438 12.738281 C 8.898438 13.183594 8.964844 13.617188 9.085938 14.035156 L 9.195312 14.007812 C 9.078125 13.617188 9.015625 13.210938 9.011719 12.792969 L 9.839844 12.792969 C 9.847656 13.140625 9.898438 13.480469 10 13.804688 L 10.105469 13.777344 C 10.007812 13.460938 9.957031 13.132812 9.953125 12.792969 L 10.703125 12.792969 C 10.707031 12.902344 10.71875 13.011719 10.734375 13.121094 C 10.679688 13.128906 10.628906 13.144531 10.628906 13.144531 L 10.605469 13.21875 C 10.554688 13.230469 10.519531 13.316406 10.519531 13.316406 C 10.480469 13.328125 10.445312 13.378906 10.460938 13.394531 C 10.472656 13.410156 10.4375 13.414062 10.4375 13.414062 L 10.4375 13.515625 L 10.414062 13.550781 L 10.417969 13.664062 C 10.445312 13.664062 10.441406 13.714844 10.441406 13.714844 C 10.394531 13.71875 10.40625 13.78125 10.40625 13.78125 L 10.308594 13.8125 L 10.289062 13.84375 L 10.167969 13.839844 L 10.136719 13.867188 C 10.128906 13.839844 10.113281 13.808594 10.105469 13.777344 L 10 13.804688 C 10 13.816406 10.007812 13.828125 10.011719 13.839844 L 9.871094 13.839844 L 9.863281 13.816406 L 9.816406 13.804688 L 9.8125 13.753906 L 9.742188 13.757812 L 9.726562 13.785156 L 9.652344 13.789062 C 9.65625 13.839844 9.578125 13.910156 9.570312 13.890625 C 9.558594 13.871094 9.507812 13.820312 9.53125 13.808594 C 9.554688 13.800781 9.617188 13.789062 9.617188 13.789062 L 9.617188 13.757812 L 9.445312 13.753906 L 9.425781 13.78125 L 9.355469 13.785156 L 9.355469 13.863281 L 9.324219 13.871094 C 9.300781 13.886719 9.328125 13.9375 9.328125 13.9375 C 9.359375 13.972656 9.324219 14.023438 9.324219 14.023438 C 9.296875 14.050781 9.347656 14.101562 9.347656 14.101562 C 9.382812 14.113281 9.324219 14.140625 9.324219 14.140625 C 9.332031 14.1875 9.359375 14.203125 9.359375 14.203125 C 9.332031 14.25 9.378906 14.273438 9.378906 14.273438 L 9.382812 14.351562 L 9.414062 14.371094 L 9.414062 14.421875 L 9.433594 14.457031 L 9.507812 14.457031 L 9.503906 14.339844 C 9.4375 14.261719 9.558594 14.242188 9.566406 14.273438 C 9.570312 14.300781 9.621094 14.316406 9.621094 14.316406 C 9.628906 14.386719 9.707031 14.429688 9.730469 14.359375 C 9.753906 14.289062 9.773438 14.328125 9.785156 14.363281 C 9.800781 14.394531 9.890625 14.476562 9.890625 14.476562 L 9.957031 14.476562 L 9.96875 14.542969 C 10.046875 14.539062 10.070312 14.546875 10.101562 14.65625 C 10.132812 14.761719 10.222656 14.792969 10.222656 14.792969 L 10.289062 14.785156 C 10.289062 14.730469 10.351562 14.796875 10.351562 14.824219 C 10.351562 14.851562 10.476562 14.960938 10.476562 14.960938 L 10.601562 14.988281 L 10.640625 15.019531 C 10.714844 15.113281 10.789062 15.203125 10.871094 15.289062 L 10.285156 15.875 C 9.765625 15.34375 9.394531 14.707031 9.191406 14.011719 L 9.085938 14.039062 C 9.296875 14.769531 9.691406 15.441406 10.246094 15.996094 C 10.621094 16.371094 11.050781 16.671875 11.515625 16.894531 L 11.570312 16.796875 C 11.128906 16.585938 10.722656 16.304688 10.363281 15.953125 L 10.949219 15.367188 C 11.253906 15.664062 11.601562 15.898438 11.980469 16.070312 L 12.035156 15.976562 C 11.667969 15.808594 11.328125 15.578125 11.03125 15.289062 L 11.132812 15.1875 C 11.140625 15.199219 11.148438 15.203125 11.152344 15.222656 C 11.160156 15.292969 11.191406 15.277344 11.191406 15.277344 L 11.457031 15.273438 L 11.550781 15.191406 L 11.789062 15.1875 C 11.910156 15.183594 11.835938 15.019531 11.8125 15.019531 C 11.796875 15.007812 11.796875 14.976562 11.800781 14.949219 C 11.988281 15.09375 12.1875 15.226562 12.40625 15.316406 L 12.460938 15.222656 C 12.171875 15.101562 11.90625 14.925781 11.667969 14.707031 L 11.640625 14.679688 L 12.226562 14.09375 C 12.414062 14.273438 12.632812 14.40625 12.871094 14.492188 L 12.925781 14.394531 C 12.699219 14.316406 12.484375 14.1875 12.304688 14.015625 L 12.835938 13.484375 C 13 13.628906 13.199219 13.710938 13.414062 13.730469 L 13.414062 13.734375 C 13.414062 13.734375 13.398438 13.777344 13.417969 13.785156 C 13.441406 13.792969 13.433594 13.796875 13.441406 13.804688 L 13.433594 13.832031 C 13.414062 13.808594 13.40625 13.847656 13.414062 13.859375 C 13.425781 13.871094 13.390625 13.863281 13.390625 13.878906 C 13.390625 13.890625 13.378906 13.898438 13.390625 13.90625 C 13.402344 13.914062 13.386719 13.917969 13.375 13.925781 C 13.359375 13.9375 13.433594 13.941406 13.433594 13.941406 C 13.433594 13.941406 13.417969 13.914062 13.4375 13.914062 L 13.445312 13.914062 L 13.445312 13.949219 C 13.4375 13.949219 13.433594 13.953125 13.425781 13.949219 L 13.425781 13.980469 L 13.386719 13.988281 L 13.417969 14.023438 L 13.445312 14.027344 L 13.445312 14.105469 L 13.441406 14.109375 C 13.441406 14.171875 13.289062 14.128906 13.277344 14.113281 L 13.269531 14.199219 L 13.242188 14.203125 L 13.246094 14.257812 L 13.242188 14.339844 L 13.292969 14.328125 L 13.292969 14.363281 L 13.417969 14.367188 L 13.445312 14.339844 L 13.445312 14.429688 L 13.441406 14.433594 L 13.359375 14.441406 L 13.324219 14.460938 L 13.320312 14.460938 L 13.308594 14.433594 L 13.273438 14.433594 L 13.261719 14.449219 C 13.148438 14.433594 13.035156 14.425781 12.929688 14.386719 L 12.871094 14.484375 C 12.941406 14.511719 13.011719 14.527344 13.082031 14.542969 C 13.070312 14.550781 13.050781 14.5625 13.054688 14.570312 C 13.0625 14.59375 13.019531 14.617188 13.019531 14.617188 L 12.976562 14.632812 L 12.949219 14.675781 L 12.890625 14.691406 L 12.882812 14.792969 L 12.855469 14.8125 L 12.855469 14.855469 L 12.824219 14.863281 L 12.824219 14.886719 L 12.777344 14.890625 L 12.804688 14.960938 L 12.84375 14.980469 C 12.90625 14.988281 12.878906 15.070312 12.878906 15.070312 L 12.914062 15.074219 L 12.933594 15.125 L 12.972656 15.199219 C 12.984375 15.257812 13.027344 15.242188 13.046875 15.238281 C 13.0625 15.234375 13.082031 15.292969 13.082031 15.292969 L 13.265625 15.296875 C 13.265625 15.296875 13.257812 15.316406 13.289062 15.328125 C 13.308594 15.332031 13.378906 15.335938 13.445312 15.339844 L 13.445312 15.421875 C 13.101562 15.414062 12.769531 15.34375 12.460938 15.214844 L 12.40625 15.3125 C 12.730469 15.449219 13.082031 15.527344 13.445312 15.53125 L 13.445312 16.285156 C 12.949219 16.277344 12.472656 16.167969 12.035156 15.96875 L 11.980469 16.066406 C 12.433594 16.273438 12.929688 16.386719 13.445312 16.394531 L 13.445312 17.222656 C 12.785156 17.214844 12.152344 17.066406 11.570312 16.789062 L 11.515625 16.886719 C 12.128906 17.179688 12.800781 17.335938 13.5 17.335938 C 14.234375 17.335938 14.9375 17.164062 15.574219 16.84375 L 15.519531 16.742188 C 14.929688 17.042969 14.261719 17.214844 13.554688 17.222656 L 13.554688 16.394531 C 13.890625 16.390625 14.21875 16.332031 14.53125 16.242188 L 14.621094 16.269531 L 14.644531 16.34375 L 14.683594 16.339844 L 14.710938 16.316406 L 14.820312 16.3125 L 14.878906 16.261719 L 14.9375 16.25 L 15.421875 15.839844 C 15.644531 15.703125 15.855469 15.550781 16.046875 15.363281 L 16.632812 15.949219 C 16.304688 16.265625 15.929688 16.535156 15.519531 16.742188 L 15.574219 16.847656 C 16.003906 16.628906 16.402344 16.339844 16.753906 15.992188 C 17.121094 15.621094 17.417969 15.199219 17.640625 14.746094 L 17.640625 14.742188 L 17.578125 14.707031 L 17.640625 14.742188 C 17.941406 14.125 18.101562 13.445312 18.101562 12.738281 C 18.101562 12.136719 17.984375 11.550781 17.765625 11.011719 C 17.539062 10.445312 17.195312 9.929688 16.753906 9.484375 C 16.308594 9.039062 15.785156 8.695312 15.21875 8.46875 C 14.679688 8.25 14.097656 8.136719 13.5 8.136719 C 12.761719 8.136719 12.0625 8.3125 11.441406 8.625 L 11.492188 8.722656 C 12.09375 8.421875 12.753906 8.257812 13.445312 8.25 L 13.445312 9.078125 C 12.882812 9.085938 12.351562 9.222656 11.878906 9.457031 L 11.929688 9.554688 C 12.394531 9.324219 12.910156 9.195312 13.445312 9.1875 L 13.445312 9.941406 C 13.027344 9.949219 12.632812 10.050781 12.277344 10.222656 L 12.328125 10.320312 C 12.671875 10.152344 13.050781 10.058594 13.445312 10.050781 L 13.445312 10.878906 C 13.183594 10.886719 12.9375 10.949219 12.714844 11.054688 L 12.765625 11.152344 C 12.976562 11.054688 13.207031 10.996094 13.445312 10.992188 L 13.445312 11.742188 C 13.359375 11.75 13.277344 11.773438 13.195312 11.800781 L 13.160156 11.800781 L 13.15625 11.75 L 13.179688 11.734375 L 13.144531 11.722656 L 13.117188 11.757812 L 13.105469 11.800781 L 13.058594 11.8125 L 13.058594 11.835938 L 13.027344 11.835938 L 13.027344 11.875 C 12.960938 11.914062 12.894531 11.945312 12.835938 11.996094 L 12.304688 11.464844 C 12.441406 11.335938 12.597656 11.230469 12.765625 11.152344 L 12.714844 11.054688 C 12.535156 11.136719 12.371094 11.25 12.226562 11.386719 L 11.640625 10.796875 C 11.847656 10.601562 12.078125 10.4375 12.328125 10.316406 L 12.277344 10.222656 C 12.015625 10.351562 11.773438 10.519531 11.5625 10.71875 L 11.03125 10.1875 C 11.300781 9.929688 11.601562 9.714844 11.929688 9.554688 L 11.878906 9.457031 C 11.539062 9.628906 11.226562 9.847656 10.953125 10.113281 L 10.367188 9.523438 C 10.703125 9.195312 11.082031 8.925781 11.492188 8.71875 L 11.445312 8.625 C 10.546875 9.074219 9.816406 9.808594 9.375 10.707031 Z M 11.140625 12.792969 L 11.144531 12.816406 L 11.074219 12.894531 L 11.082031 12.96875 L 11.039062 12.984375 L 11.03125 13.015625 L 11.011719 13.117188 L 11.058594 13.121094 C 11.082031 13.109375 11.078125 13.179688 11.058594 13.191406 C 11.039062 13.199219 10.988281 13.21875 11.015625 13.238281 C 11.042969 13.257812 10.941406 13.25 10.941406 13.222656 C 10.941406 13.195312 10.886719 13.171875 10.871094 13.179688 C 10.867188 13.1875 10.855469 13.175781 10.847656 13.160156 C 10.828125 13.039062 10.816406 12.917969 10.8125 12.792969 Z M 10.835938 15.070312 L 10.847656 15.070312 C 10.867188 14.988281 10.980469 15.074219 10.988281 15.101562 C 10.992188 15.113281 11.007812 15.125 11.023438 15.136719 L 10.953125 15.207031 C 10.910156 15.164062 10.875 15.113281 10.835938 15.070312 Z M 11.5625 14.597656 C 11.519531 14.554688 11.492188 14.503906 11.457031 14.460938 C 11.464844 14.4375 11.476562 14.414062 11.476562 14.414062 C 11.535156 14.378906 11.460938 14.316406 11.460938 14.316406 C 11.472656 14.257812 11.429688 14.195312 11.429688 14.195312 C 11.347656 14.136719 11.371094 14.027344 11.371094 14.027344 L 11.371094 13.953125 C 11.300781 13.886719 11.398438 13.878906 11.398438 13.878906 C 11.429688 13.820312 11.375 13.777344 11.375 13.777344 L 11.371094 13.71875 L 11.296875 13.707031 L 11.285156 13.488281 L 11.121094 13.246094 C 11.085938 13.238281 11.109375 13.179688 11.109375 13.179688 C 11.152344 13.15625 11.101562 13.101562 11.101562 13.101562 L 11.097656 12.996094 L 11.195312 12.988281 L 11.21875 12.949219 L 11.265625 12.949219 L 11.257812 12.828125 C 11.269531 12.796875 11.289062 12.792969 11.304688 12.792969 L 11.3125 12.792969 C 11.324219 12.792969 11.339844 12.796875 11.339844 12.796875 L 11.402344 12.804688 L 11.410156 12.792969 L 11.632812 12.792969 L 11.652344 12.910156 L 11.589844 12.964844 C 11.539062 12.992188 11.539062 13.058594 11.59375 13.070312 C 11.632812 13.078125 11.617188 13.167969 11.5625 13.105469 C 11.480469 13.105469 11.609375 13.179688 11.570312 13.160156 C 11.65625 13.203125 11.636719 13.125 11.636719 13.125 L 11.679688 13.089844 C 11.699219 13.183594 11.722656 13.273438 11.753906 13.359375 C 11.839844 13.601562 11.972656 13.820312 12.152344 14.007812 Z M 11.398438 12.671875 C 11.34375 12.640625 11.371094 12.515625 11.371094 12.515625 C 11.457031 12.382812 11.558594 12.460938 11.558594 12.460938 L 11.625 12.457031 C 11.648438 12.472656 11.660156 12.488281 11.664062 12.507812 C 11.660156 12.542969 11.65625 12.574219 11.652344 12.609375 C 11.644531 12.628906 11.632812 12.644531 11.632812 12.644531 C 11.628906 12.652344 11.628906 12.667969 11.628906 12.679688 L 11.449219 12.679688 L 11.449219 12.675781 Z M 12.429688 12.859375 L 12.445312 12.832031 L 12.453125 12.792969 L 12.507812 12.792969 C 12.507812 12.820312 12.519531 12.84375 12.523438 12.871094 L 12.519531 12.890625 L 12.488281 12.898438 L 12.480469 12.878906 L 12.464844 12.929688 L 12.382812 12.929688 L 12.378906 12.875 Z M 12.226562 13.933594 C 12.0625 13.757812 11.9375 13.554688 11.859375 13.335938 C 11.824219 13.238281 11.796875 13.136719 11.78125 13.03125 C 11.820312 13.046875 11.863281 13.109375 11.863281 13.121094 C 11.863281 13.132812 12.046875 13.125 12.046875 13.125 C 12.097656 13.15625 12.117188 13.242188 12.117188 13.242188 C 12.167969 13.175781 12.273438 13.238281 12.195312 13.277344 C 12.269531 13.324219 12.269531 13.363281 12.269531 13.363281 C 12.332031 13.347656 12.332031 13.394531 12.332031 13.40625 C 12.332031 13.421875 12.347656 13.335938 12.347656 13.335938 C 12.28125 13.285156 12.441406 13.265625 12.394531 13.359375 L 12.367188 13.402344 L 12.414062 13.441406 L 12.417969 13.546875 C 12.519531 13.539062 12.492188 13.410156 12.492188 13.410156 L 12.539062 13.402344 C 12.539062 13.359375 12.570312 13.382812 12.570312 13.382812 C 12.546875 13.257812 12.605469 13.214844 12.632812 13.199219 C 12.667969 13.269531 12.703125 13.339844 12.757812 13.398438 Z M 12.703125 13.109375 C 12.710938 13.078125 12.710938 13.054688 12.710938 13.054688 C 12.667969 13.035156 12.691406 12.96875 12.738281 13.023438 C 12.785156 13.082031 12.710938 12.910156 12.710938 12.910156 L 12.675781 12.878906 L 12.644531 12.875 C 12.636719 12.828125 12.613281 12.785156 12.613281 12.734375 C 12.613281 12.714844 12.625 12.695312 12.628906 12.671875 C 12.636719 12.667969 12.648438 12.671875 12.648438 12.671875 L 12.675781 12.695312 L 12.714844 12.726562 L 12.722656 12.757812 L 12.691406 12.769531 L 12.6875 12.808594 L 12.703125 12.859375 L 12.738281 12.859375 C 12.753906 12.785156 12.851562 12.785156 12.878906 12.832031 L 12.90625 12.765625 C 12.839844 12.730469 12.90625 12.679688 12.925781 12.703125 C 12.941406 12.726562 12.984375 12.640625 12.984375 12.640625 C 12.984375 12.640625 13.019531 12.683594 12.984375 12.628906 C 12.953125 12.570312 13.007812 12.542969 13.007812 12.542969 C 13 12.488281 13.070312 12.496094 13.070312 12.496094 L 13.074219 12.421875 L 13.007812 12.417969 C 12.996094 12.480469 12.9375 12.425781 12.964844 12.410156 C 12.992188 12.398438 13.023438 12.367188 13.023438 12.367188 L 13.023438 12.320312 L 13.050781 12.3125 L 13.054688 12.265625 L 13.125 12.265625 L 13.183594 12.234375 L 13.199219 12.214844 L 13.261719 12.207031 L 13.355469 12.125 L 13.347656 12.085938 C 13.292969 12.085938 13.347656 12.042969 13.347656 12.042969 L 13.355469 11.972656 L 13.304688 11.972656 L 13.296875 11.890625 C 13.359375 11.875 13.421875 11.851562 13.492188 11.851562 L 13.5 11.964844 L 13.449219 11.949219 L 13.417969 11.949219 L 13.402344 11.917969 L 13.375 11.914062 L 13.375 12.019531 L 13.402344 12.042969 L 13.425781 12.066406 L 13.472656 12.070312 L 13.480469 12.125 L 13.597656 12.128906 L 13.613281 12.152344 L 13.683594 12.15625 L 13.816406 12.292969 L 13.808594 12.335938 L 13.785156 12.351562 C 13.792969 12.382812 13.722656 12.367188 13.722656 12.367188 L 13.722656 12.394531 L 13.757812 12.398438 L 13.789062 12.417969 L 13.835938 12.335938 C 13.886719 12.304688 13.910156 12.351562 13.914062 12.378906 C 13.917969 12.40625 13.890625 12.402344 13.890625 12.402344 L 13.890625 12.46875 L 13.917969 12.476562 C 13.964844 12.535156 13.898438 12.566406 13.898438 12.566406 L 13.886719 12.613281 C 13.871094 12.65625 13.820312 12.648438 13.820312 12.648438 L 13.800781 12.675781 L 13.746094 12.691406 L 13.855469 12.703125 C 13.867188 12.667969 13.894531 12.65625 13.910156 12.675781 C 13.921875 12.695312 13.921875 12.726562 13.921875 12.726562 L 13.949219 12.734375 L 13.945312 12.785156 L 13.972656 12.792969 L 13.972656 12.945312 L 14.007812 12.984375 C 14.0625 12.960938 14.0625 12.996094 14.035156 13.015625 C 14.007812 13.035156 14.023438 13.117188 14.023438 13.117188 L 14 13.140625 L 14 13.179688 L 13.972656 13.199219 L 13.972656 13.25 C 13.925781 13.226562 13.871094 13.238281 13.855469 13.25 C 13.816406 13.222656 13.726562 13.234375 13.726562 13.257812 C 13.753906 13.292969 13.695312 13.304688 13.695312 13.304688 L 13.664062 13.339844 C 13.6875 13.386719 13.640625 13.394531 13.640625 13.394531 L 13.640625 13.480469 L 13.585938 13.535156 L 13.585938 13.601562 C 13.558594 13.605469 13.53125 13.621094 13.5 13.621094 C 13.285156 13.621094 13.082031 13.535156 12.921875 13.394531 C 12.921875 13.394531 12.925781 13.394531 12.925781 13.390625 C 12.949219 13.355469 12.984375 13.347656 12.984375 13.347656 L 13 13.316406 L 13.125 13.320312 C 13.132812 13.269531 13.195312 13.289062 13.195312 13.3125 C 13.195312 13.335938 13.242188 13.316406 13.242188 13.316406 L 13.273438 13.265625 L 13.324219 13.265625 L 13.328125 13.207031 L 13.351562 13.191406 L 13.351562 13.109375 C 13.425781 13.085938 13.417969 13.015625 13.417969 13.015625 L 13.4375 12.992188 L 13.425781 12.957031 C 13.390625 12.945312 13.410156 12.910156 13.433594 12.921875 C 13.453125 12.929688 13.398438 12.878906 13.398438 12.878906 C 13.371094 12.902344 13.347656 12.847656 13.347656 12.847656 L 13.277344 12.847656 L 13.277344 12.78125 L 13.269531 12.722656 L 13.199219 12.6875 L 13.148438 12.734375 L 13.140625 12.800781 L 13.140625 12.84375 L 13.09375 12.851562 L 13.085938 12.980469 L 13.046875 12.996094 L 13.050781 13.042969 L 13 13.054688 L 12.949219 13.070312 L 12.941406 13.132812 L 12.90625 13.15625 L 12.886719 13.210938 L 12.863281 13.339844 C 12.796875 13.273438 12.742188 13.191406 12.703125 13.109375 Z M 15.171875 10.648438 C 15.179688 10.65625 15.191406 10.664062 15.191406 10.664062 C 15.214844 10.683594 15.238281 10.699219 15.257812 10.71875 L 15.257812 10.746094 C 15.292969 10.738281 15.339844 10.78125 15.347656 10.8125 L 14.773438 11.386719 C 14.609375 11.230469 14.417969 11.109375 14.214844 11.023438 C 14.007812 10.9375 13.785156 10.886719 13.554688 10.878906 L 13.554688 10.050781 C 13.890625 10.058594 14.21875 10.125 14.519531 10.25 C 14.753906 10.347656 14.96875 10.488281 15.171875 10.648438 Z M 15.6875 10.628906 C 15.753906 10.664062 15.804688 10.75 15.796875 10.765625 C 15.789062 10.785156 15.851562 10.777344 15.851562 10.777344 C 15.863281 10.695312 15.941406 10.722656 15.945312 10.75 C 15.949219 10.777344 15.964844 10.839844 15.964844 10.839844 L 15.988281 10.882812 L 16.019531 10.914062 L 16.070312 10.910156 L 16.085938 10.9375 L 16.144531 10.949219 C 16.144531 10.949219 16.195312 11.003906 16.199219 11.019531 C 16.207031 11.035156 16.273438 11.027344 16.292969 11.035156 C 16.3125 11.039062 16.339844 11.050781 16.34375 11.074219 C 16.347656 11.097656 16.378906 11.136719 16.378906 11.136719 C 16.378906 11.136719 16.433594 11.152344 16.4375 11.171875 C 16.441406 11.1875 16.464844 11.230469 16.464844 11.230469 L 16.511719 11.269531 L 16.515625 11.3125 L 16.566406 11.316406 L 16.582031 11.371094 L 16.664062 11.367188 L 16.710938 11.335938 C 16.722656 11.328125 16.730469 11.320312 16.742188 11.316406 C 16.757812 11.351562 16.785156 11.386719 16.796875 11.425781 C 16.957031 11.820312 17.039062 12.246094 17.046875 12.679688 L 16.296875 12.679688 C 16.292969 12.554688 16.273438 12.429688 16.253906 12.304688 C 16.261719 12.277344 16.269531 12.253906 16.261719 12.246094 C 16.246094 12.230469 16.273438 12.164062 16.273438 12.164062 C 16.273438 12.164062 16.292969 12.125 16.273438 12.089844 C 16.253906 12.050781 16.277344 12.007812 16.292969 11.988281 L 16.257812 11.972656 L 16.21875 11.964844 L 16.179688 11.972656 L 16.15625 11.894531 L 16.164062 11.882812 L 16.1875 11.886719 L 16.1875 11.859375 L 16.144531 11.84375 C 16.140625 11.835938 16.136719 11.820312 16.132812 11.808594 L 16.125 11.691406 L 16.09375 11.667969 L 16.101562 11.632812 L 16.066406 11.617188 L 16.085938 11.554688 L 16.054688 11.488281 L 15.992188 11.488281 C 15.96875 11.449219 15.953125 11.410156 15.929688 11.371094 C 15.929688 11.363281 15.933594 11.355469 15.957031 11.347656 C 15.980469 11.339844 15.988281 11.339844 15.992188 11.339844 L 15.988281 11.292969 L 15.945312 11.261719 L 15.929688 11.207031 C 15.929688 11.207031 15.878906 11.21875 15.886719 11.246094 C 15.886719 11.25 15.875 11.25 15.871094 11.253906 C 15.839844 11.207031 15.804688 11.164062 15.769531 11.121094 C 15.773438 11.113281 15.773438 11.105469 15.777344 11.097656 C 15.796875 11.066406 15.785156 11.046875 15.753906 11.035156 C 15.722656 11.027344 15.722656 11.027344 15.710938 10.988281 C 15.703125 10.953125 15.664062 10.941406 15.664062 10.941406 L 15.652344 10.886719 L 15.609375 10.914062 C 15.589844 10.894531 15.578125 10.871094 15.558594 10.851562 L 15.578125 10.792969 C 15.558594 10.789062 15.554688 10.773438 15.546875 10.761719 Z M 15.535156 11 L 15.53125 11.003906 C 15.53125 11.050781 15.550781 11.046875 15.570312 11.042969 L 15.609375 11.09375 C 15.609375 11.113281 15.621094 11.125 15.640625 11.132812 C 15.714844 11.230469 15.78125 11.335938 15.839844 11.441406 C 15.835938 11.449219 15.835938 11.453125 15.835938 11.453125 L 15.757812 11.464844 L 15.757812 11.539062 L 15.722656 11.550781 L 15.726562 11.597656 L 15.777344 11.59375 C 15.777344 11.59375 15.777344 11.652344 15.792969 11.628906 C 15.804688 11.605469 15.921875 11.632812 15.914062 11.691406 C 15.910156 11.710938 16.027344 11.773438 16.015625 11.847656 C 16.027344 11.851562 16.027344 11.859375 16.035156 11.867188 C 16.058594 11.929688 16.074219 11.996094 16.09375 12.066406 L 16.089844 12.070312 L 16.097656 12.078125 C 16.113281 12.140625 16.128906 12.207031 16.140625 12.269531 C 16.136719 12.316406 16.125 12.363281 16.101562 12.378906 C 16.046875 12.410156 16.105469 12.390625 16.105469 12.390625 L 16.097656 12.496094 C 16.113281 12.542969 16.132812 12.519531 16.148438 12.496094 C 16.152344 12.488281 16.160156 12.484375 16.164062 12.480469 C 16.171875 12.546875 16.183594 12.613281 16.183594 12.683594 L 15.625 12.683594 L 15.632812 12.667969 L 15.65625 12.605469 L 15.734375 12.582031 L 15.746094 12.519531 L 15.703125 12.515625 C 15.703125 12.515625 15.75 12.429688 15.773438 12.429688 C 15.796875 12.429688 15.949219 12.429688 15.964844 12.421875 C 15.976562 12.410156 16.003906 12.335938 16.003906 12.320312 C 16.003906 12.308594 16.042969 12.300781 16.054688 12.296875 C 16.070312 12.292969 16.101562 12.253906 16.113281 12.234375 C 16.121094 12.21875 16.089844 12.101562 16.070312 12.117188 C 16.050781 12.136719 16.007812 12.148438 16.007812 12.148438 L 15.996094 12.199219 L 15.972656 12.21875 C 15.972656 12.21875 15.976562 12.230469 15.972656 12.265625 C 15.96875 12.296875 15.925781 12.316406 15.925781 12.316406 L 15.90625 12.339844 C 15.90625 12.339844 15.796875 12.347656 15.78125 12.339844 C 15.738281 12.320312 15.769531 12.265625 15.796875 12.269531 C 15.824219 12.273438 15.792969 12.1875 15.792969 12.1875 L 15.828125 12.183594 C 15.828125 12.183594 15.832031 12.101562 15.847656 12.101562 C 15.863281 12.101562 15.84375 12.070312 15.824219 12.058594 C 15.804688 12.042969 15.78125 11.996094 15.761719 12 C 15.746094 12.007812 15.671875 12 15.671875 12 L 15.65625 12.03125 L 15.605469 12.039062 C 15.605469 12.039062 15.609375 12.078125 15.601562 12.085938 C 15.574219 12.121094 15.464844 12.191406 15.511719 12.074219 L 15.527344 12.042969 L 15.527344 12 L 15.441406 11.996094 C 15.441406 11.996094 15.402344 11.984375 15.402344 11.964844 C 15.402344 11.945312 15.394531 11.921875 15.394531 11.921875 L 15.296875 11.8125 L 15.183594 11.800781 L 15.171875 11.777344 L 15.101562 11.765625 C 15.09375 11.761719 15.089844 11.765625 15.078125 11.765625 C 15.046875 11.714844 15.007812 11.671875 14.972656 11.625 L 14.964844 11.59375 C 14.960938 11.574219 14.910156 11.511719 14.882812 11.507812 C 14.871094 11.496094 14.863281 11.480469 14.847656 11.464844 L 15.425781 10.890625 C 15.441406 10.90625 15.445312 10.914062 15.46875 10.933594 C 15.472656 10.933594 15.476562 10.933594 15.480469 10.933594 C 15.5 10.953125 15.515625 10.976562 15.535156 11 Z M 15.957031 13.824219 C 15.828125 14.109375 15.65625 14.367188 15.441406 14.589844 C 15.433594 14.496094 15.410156 14.390625 15.410156 14.390625 L 15.375 14.371094 L 15.382812 14.257812 L 15.332031 14.257812 L 15.25 14.367188 L 15.238281 14.398438 L 15.191406 14.351562 L 15.214844 14.324219 L 15.210938 14.269531 L 15.246094 14.242188 L 15.246094 14.195312 L 15.273438 14.183594 L 15.277344 14.082031 L 15.300781 14.074219 L 15.300781 13.851562 L 15.230469 13.785156 C 15.226562 13.808594 15.152344 13.808594 15.152344 13.808594 C 15.152344 13.808594 15.132812 13.839844 15.121094 13.839844 C 15.105469 13.839844 15.136719 13.882812 15.128906 13.910156 C 15.121094 13.941406 15.082031 13.941406 15.082031 13.941406 L 15.011719 13.957031 L 14.992188 13.980469 L 14.917969 13.980469 L 14.910156 13.933594 L 14.921875 13.917969 L 14.992188 13.898438 L 15.039062 13.875 L 15.0625 13.828125 C 15.066406 13.78125 15.121094 13.785156 15.121094 13.785156 C 15.121094 13.785156 15.230469 13.695312 15.234375 13.652344 C 15.238281 13.609375 15.277344 13.492188 15.339844 13.492188 L 15.460938 13.492188 C 15.507812 13.472656 15.492188 13.414062 15.492188 13.414062 L 15.554688 13.402344 L 15.5625 13.433594 C 15.5625 13.433594 15.644531 13.445312 15.65625 13.429688 C 15.664062 13.417969 15.683594 13.382812 15.707031 13.398438 C 15.730469 13.414062 15.804688 13.363281 15.804688 13.363281 C 15.808594 13.332031 15.925781 13.347656 15.925781 13.347656 L 15.9375 13.304688 C 15.9375 13.304688 15.859375 13.195312 15.847656 13.195312 C 15.832031 13.195312 15.757812 13.128906 15.75 13.152344 C 15.675781 13.132812 15.679688 13.03125 15.679688 13.03125 L 15.652344 12.964844 C 15.652344 12.929688 15.582031 12.847656 15.566406 12.855469 C 15.539062 12.835938 15.535156 12.8125 15.535156 12.792969 L 16.183594 12.792969 C 16.179688 13.15625 16.097656 13.507812 15.957031 13.824219 Z M 13.855469 13.695312 L 13.878906 13.703125 L 13.839844 13.738281 L 13.800781 13.78125 L 13.753906 13.765625 L 13.699219 13.761719 L 13.679688 13.726562 L 13.648438 13.722656 L 13.644531 13.789062 L 13.621094 13.816406 L 13.566406 13.875 C 13.625 13.875 13.585938 13.90625 13.554688 13.921875 L 13.554688 13.730469 C 13.613281 13.730469 13.664062 13.707031 13.71875 13.695312 L 13.742188 13.714844 L 13.785156 13.714844 L 13.789062 13.679688 C 13.808594 13.671875 13.835938 13.671875 13.859375 13.664062 C 13.851562 13.675781 13.855469 13.695312 13.855469 13.695312 Z M 14.691406 11.621094 C 14.699219 11.625 14.707031 11.628906 14.710938 11.628906 C 14.738281 11.628906 14.800781 11.617188 14.800781 11.617188 L 14.839844 11.625 C 14.863281 11.652344 14.882812 11.683594 14.902344 11.710938 L 14.855469 11.703125 L 14.75 11.691406 C 14.679688 11.742188 14.664062 11.796875 14.664062 11.796875 C 14.632812 11.859375 14.558594 11.785156 14.570312 11.746094 Z M 14.539062 14.265625 L 14.660156 14.324219 C 14.675781 14.34375 14.734375 14.339844 14.734375 14.339844 L 14.753906 14.363281 C 14.753906 14.363281 14.789062 14.359375 14.8125 14.386719 C 14.835938 14.414062 14.957031 14.390625 14.957031 14.390625 L 14.992188 14.417969 L 15.042969 14.4375 L 15.128906 14.441406 L 15.179688 14.492188 C 15.097656 14.53125 14.925781 14.519531 14.914062 14.507812 C 14.902344 14.496094 14.804688 14.453125 14.804688 14.453125 C 14.804688 14.453125 14.730469 14.390625 14.714844 14.410156 C 14.703125 14.429688 14.636719 14.386719 14.636719 14.402344 C 14.636719 14.414062 14.578125 14.367188 14.578125 14.367188 L 14.484375 14.335938 L 14.554688 14.320312 Z M 14.554688 13.710938 C 14.554688 13.707031 14.558594 13.703125 14.554688 13.695312 C 14.546875 13.6875 14.539062 13.6875 14.53125 13.6875 L 14.492188 13.648438 C 14.488281 13.621094 14.496094 13.582031 14.492188 13.566406 C 14.488281 13.546875 14.570312 13.519531 14.558594 13.5625 C 14.542969 13.605469 14.558594 13.625 14.558594 13.625 C 14.617188 13.566406 14.667969 13.628906 14.664062 13.640625 C 14.660156 13.65625 14.695312 13.671875 14.71875 13.65625 C 14.742188 13.640625 14.769531 13.699219 14.761719 13.726562 C 14.753906 13.753906 14.667969 13.75 14.664062 13.722656 C 14.660156 13.695312 14.644531 13.703125 14.636719 13.71875 C 14.628906 13.730469 14.59375 13.738281 14.570312 13.730469 Z M 14.953125 11.929688 C 14.90625 11.929688 14.898438 11.890625 14.898438 11.890625 C 14.898438 11.890625 14.859375 11.875 14.859375 11.894531 C 14.859375 11.914062 14.847656 11.953125 14.859375 11.96875 C 14.875 11.988281 14.839844 12.015625 14.828125 12.003906 C 14.816406 11.988281 14.777344 11.945312 14.785156 11.933594 C 14.796875 11.917969 14.722656 11.828125 14.796875 11.816406 C 14.871094 11.800781 14.789062 11.757812 14.820312 11.75 L 14.855469 11.730469 L 14.890625 11.730469 L 14.910156 11.714844 C 14.929688 11.746094 14.953125 11.773438 14.972656 11.800781 C 14.972656 11.8125 14.960938 11.816406 14.960938 11.828125 C 14.976562 11.898438 15 11.929688 14.953125 11.929688 Z M 13.847656 13.546875 C 13.824219 13.558594 13.792969 13.558594 13.765625 13.566406 L 13.765625 13.476562 L 13.808594 13.425781 C 13.859375 13.410156 13.851562 13.511719 13.847656 13.546875 Z M 13.554688 15.316406 C 13.582031 15.289062 13.671875 15.289062 13.714844 15.320312 C 13.765625 15.355469 13.835938 15.332031 13.835938 15.332031 L 13.875 15.382812 C 13.769531 15.394531 13.664062 15.421875 13.554688 15.421875 Z M 14.175781 11.125 C 14.367188 11.203125 14.542969 11.320312 14.695312 11.464844 L 14.664062 11.496094 C 14.652344 11.480469 14.601562 11.46875 14.601562 11.453125 C 14.601562 11.433594 14.554688 11.410156 14.558594 11.4375 C 14.5625 11.46875 14.527344 11.480469 14.515625 11.472656 C 14.507812 11.460938 14.480469 11.5 14.480469 11.5 C 14.480469 11.515625 14.46875 11.535156 14.5 11.539062 C 14.527344 11.542969 14.578125 11.519531 14.582031 11.546875 C 14.582031 11.558594 14.585938 11.566406 14.585938 11.574219 L 14.40625 11.753906 C 14.378906 11.757812 14.355469 11.753906 14.355469 11.753906 C 14.339844 11.796875 14.277344 11.75 14.292969 11.722656 C 14.3125 11.695312 14.3125 11.675781 14.3125 11.675781 L 14.289062 11.671875 L 14.261719 11.722656 C 14.195312 11.722656 14.179688 11.761719 14.191406 11.785156 C 14.207031 11.808594 14.171875 11.78125 14.164062 11.8125 C 14.15625 11.84375 14.167969 11.84375 14.195312 11.859375 C 14.222656 11.875 14.183594 11.875 14.203125 11.898438 C 14.214844 11.914062 14.238281 11.914062 14.242188 11.917969 L 14.222656 11.9375 C 14.191406 11.953125 14.144531 11.949219 14.144531 11.949219 C 14.144531 11.960938 14.128906 11.960938 14.117188 11.96875 C 14.070312 11.929688 14.019531 11.902344 13.96875 11.875 L 13.964844 11.867188 L 13.960938 11.867188 C 13.9375 11.855469 13.914062 11.835938 13.890625 11.824219 C 13.90625 11.816406 13.925781 11.808594 13.9375 11.78125 C 13.953125 11.726562 13.964844 11.644531 13.964844 11.644531 C 13.964844 11.644531 13.890625 11.636719 13.882812 11.660156 C 13.878906 11.683594 13.832031 11.699219 13.832031 11.699219 C 13.832031 11.699219 13.796875 11.714844 13.808594 11.730469 C 13.824219 11.75 13.78125 11.761719 13.78125 11.761719 C 13.78125 11.761719 13.785156 11.78125 13.78125 11.796875 C 13.707031 11.773438 13.632812 11.75 13.554688 11.746094 L 13.554688 10.992188 C 13.773438 10.996094 13.980469 11.042969 14.175781 11.125 Z M 13.601562 14.175781 L 13.707031 14.152344 C 13.71875 14.105469 13.765625 14.160156 13.765625 14.160156 C 13.808594 14.15625 13.820312 14.191406 13.820312 14.191406 L 13.878906 14.199219 C 13.929688 14.214844 13.902344 14.21875 13.902344 14.238281 C 13.90625 14.265625 13.929688 14.257812 13.929688 14.257812 L 13.941406 14.195312 L 13.96875 14.199219 L 13.941406 14.164062 L 13.890625 14.144531 L 13.832031 14.121094 C 13.796875 14.066406 13.84375 14.078125 13.878906 14.082031 L 13.941406 14.082031 C 13.941406 14.082031 14.011719 14.175781 14.011719 14.199219 C 14.011719 14.222656 14.042969 14.226562 14.042969 14.226562 L 14.085938 14.222656 L 14.097656 14.257812 L 14.140625 14.257812 L 14.15625 14.285156 L 14.238281 14.285156 L 14.242188 14.242188 L 14.164062 14.226562 L 14.160156 14.179688 L 14.105469 14.167969 C 14.085938 14.085938 14.117188 14.0625 14.140625 14.101562 L 14.167969 14.105469 L 14.160156 14.035156 L 14.191406 14.023438 L 14.183594 13.925781 L 14.15625 13.917969 L 14.15625 13.882812 L 14.269531 13.886719 C 14.261719 13.824219 14.277344 13.796875 14.277344 13.796875 L 14.308594 13.796875 L 14.3125 13.820312 L 14.453125 13.835938 L 14.460938 13.835938 C 14.515625 13.867188 14.488281 13.910156 14.46875 13.921875 C 14.449219 13.929688 14.417969 13.929688 14.417969 13.929688 L 14.410156 13.949219 L 14.289062 13.957031 L 14.28125 14.003906 C 14.21875 13.996094 14.195312 14.0625 14.210938 14.09375 C 14.222656 14.128906 14.210938 14.15625 14.210938 14.15625 L 14.261719 14.179688 L 14.328125 14.160156 C 14.335938 14.113281 14.378906 14.101562 14.414062 14.074219 C 14.449219 14.050781 14.496094 14.109375 14.488281 14.152344 C 14.414062 14.203125 14.347656 14.265625 14.265625 14.308594 C 14.140625 14.367188 14.007812 14.410156 13.871094 14.4375 L 13.820312 14.425781 L 13.816406 14.351562 C 13.808594 14.304688 13.71875 14.304688 13.722656 14.339844 C 13.726562 14.371094 13.558594 14.351562 13.554688 14.351562 L 13.554688 14.222656 Z M 13.554688 15.535156 C 13.683594 15.53125 13.808594 15.503906 13.933594 15.484375 L 13.949219 15.519531 L 14.027344 15.542969 L 14.082031 15.558594 L 14.101562 15.640625 L 14.144531 15.644531 L 14.160156 15.695312 C 14.210938 15.734375 14.144531 15.8125 14.144531 15.8125 L 14.144531 15.917969 L 14.183594 15.933594 L 14.175781 15.972656 L 14.238281 16.035156 L 14.308594 16.039062 L 14.421875 16.160156 C 14.144531 16.234375 13.855469 16.277344 13.554688 16.285156 Z M 15.40625 15.71875 L 15.40625 15.683594 C 15.492188 15.621094 15.496094 15.511719 15.417969 15.503906 C 15.355469 15.496094 15.382812 15.433594 15.441406 15.421875 L 15.472656 15.410156 L 15.472656 15.367188 L 15.578125 15.265625 L 15.578125 15.191406 L 15.347656 14.996094 C 15.296875 14.980469 15.296875 14.914062 15.316406 14.851562 C 15.355469 14.820312 15.398438 14.789062 15.4375 14.753906 L 15.765625 15.078125 C 15.753906 15.101562 15.742188 15.128906 15.746094 15.144531 L 15.789062 15.160156 L 15.792969 15.242188 C 15.824219 15.273438 15.894531 15.273438 15.949219 15.261719 L 15.96875 15.28125 C 15.796875 15.449219 15.609375 15.589844 15.40625 15.71875 Z M 16.046875 15.203125 L 16.027344 15.183594 L 16.019531 15.066406 L 15.996094 15.042969 L 15.992188 14.925781 C 16.011719 14.863281 15.902344 14.773438 15.894531 14.792969 C 15.886719 14.8125 15.824219 14.796875 15.824219 14.816406 C 15.824219 14.835938 15.789062 14.929688 15.804688 14.960938 L 15.804688 14.964844 L 15.515625 14.675781 C 15.742188 14.4375 15.925781 14.167969 16.054688 13.878906 C 16.207031 13.539062 16.289062 13.171875 16.296875 12.792969 L 17.046875 12.792969 C 17.039062 13.308594 16.921875 13.796875 16.714844 14.238281 C 16.546875 14.597656 16.320312 14.921875 16.046875 15.203125 Z M 17.539062 14.6875 C 17.328125 15.125 17.046875 15.523438 16.710938 15.871094 L 16.125 15.285156 C 16.414062 14.988281 16.644531 14.652344 16.8125 14.292969 C 17.03125 13.828125 17.152344 13.320312 17.160156 12.792969 L 17.988281 12.792969 C 17.980469 13.46875 17.820312 14.113281 17.539062 14.6875 Z M 17.664062 11.054688 C 17.871094 11.566406 17.980469 12.113281 17.988281 12.679688 L 17.160156 12.679688 C 17.152344 12.230469 17.0625 11.792969 16.902344 11.382812 C 16.878906 11.328125 16.847656 11.28125 16.820312 11.230469 C 16.828125 11.203125 16.835938 11.152344 16.878906 11.164062 C 16.925781 11.179688 16.894531 11.0625 16.894531 11.0625 C 16.894531 11.0625 16.828125 11.015625 16.832031 10.992188 C 16.835938 10.96875 16.765625 10.921875 16.773438 10.902344 C 16.777344 10.882812 16.710938 10.847656 16.714844 10.828125 C 16.722656 10.808594 16.683594 10.757812 16.683594 10.757812 L 16.613281 10.691406 L 16.605469 10.648438 L 16.550781 10.644531 L 16.4375 10.507812 L 16.445312 10.46875 L 16.410156 10.464844 L 16.410156 10.414062 L 16.378906 10.394531 L 16.328125 10.390625 L 16.222656 10.273438 L 16.214844 10.222656 L 16.164062 10.222656 L 16.171875 10.144531 L 16.714844 9.601562 C 17.128906 10.027344 17.449219 10.519531 17.664062 11.054688 Z M 13.554688 9.078125 L 13.554688 8.25 C 14.121094 8.253906 14.667969 8.367188 15.179688 8.570312 C 15.714844 8.785156 16.210938 9.105469 16.636719 9.523438 L 16.140625 10.015625 C 16.121094 10.023438 16.101562 10.027344 16.089844 10.019531 C 16.058594 10.007812 16.101562 9.972656 16.101562 9.972656 L 16.101562 9.9375 L 16.074219 9.90625 C 16.074219 9.90625 15.996094 9.917969 15.992188 9.902344 C 15.988281 9.890625 15.972656 9.828125 15.972656 9.828125 L 15.96875 9.746094 L 15.9375 9.734375 L 15.933594 9.703125 L 15.882812 9.707031 L 15.882812 9.652344 L 15.851562 9.644531 L 15.824219 9.628906 L 15.820312 9.574219 L 15.71875 9.570312 L 15.648438 9.464844 L 15.535156 9.457031 L 15.503906 9.425781 L 15.460938 9.417969 L 15.425781 9.402344 L 15.414062 9.425781 L 15.324219 9.429688 L 15.320312 9.460938 C 15.285156 9.476562 15.179688 9.472656 15.121094 9.472656 C 15.039062 9.433594 14.960938 9.378906 14.875 9.34375 L 14.835938 9.449219 C 14.910156 9.476562 14.980469 9.527344 15.054688 9.5625 C 15.050781 9.566406 15.046875 9.578125 15.042969 9.578125 C 15.019531 9.578125 15.027344 9.640625 15.027344 9.640625 C 15.027344 9.640625 15.085938 9.640625 15.105469 9.644531 C 15.125 9.648438 15.125 9.695312 15.125 9.695312 C 15.195312 9.691406 15.222656 9.785156 15.214844 9.808594 C 15.203125 9.832031 15.242188 9.832031 15.242188 9.832031 C 15.242188 9.832031 15.242188 9.90625 15.230469 9.925781 C 15.222656 9.945312 15.292969 9.960938 15.308594 9.988281 C 15.328125 10.015625 15.300781 10.109375 15.289062 10.117188 C 15.273438 10.121094 15.324219 10.132812 15.320312 10.160156 C 15.316406 10.183594 15.332031 10.160156 15.339844 10.195312 L 15.351562 10.3125 L 15.417969 10.320312 C 15.425781 10.257812 15.546875 10.253906 15.566406 10.261719 C 15.644531 10.289062 15.707031 10.414062 15.707031 10.441406 C 15.707031 10.46875 15.65625 10.472656 15.65625 10.472656 L 15.65625 10.503906 L 15.492188 10.671875 C 15.476562 10.660156 15.460938 10.652344 15.449219 10.660156 C 15.425781 10.671875 15.4375 10.558594 15.4375 10.558594 C 15.4375 10.558594 15.476562 10.53125 15.496094 10.546875 C 15.515625 10.558594 15.339844 10.308594 15.300781 10.332031 C 15.265625 10.355469 15.179688 10.308594 15.1875 10.265625 C 15.191406 10.226562 15.019531 10.082031 15.019531 10.082031 C 15.019531 10.082031 14.964844 10.046875 14.953125 10.074219 C 14.945312 10.101562 14.925781 10.121094 14.953125 10.136719 C 14.980469 10.148438 14.976562 10.113281 15.007812 10.144531 C 15.042969 10.179688 15.101562 10.21875 15.078125 10.25 C 15.054688 10.277344 15.027344 10.285156 15.027344 10.285156 L 15.058594 10.324219 L 15.109375 10.324219 L 15.121094 10.402344 C 15.121094 10.402344 15.175781 10.433594 15.191406 10.464844 C 15.199219 10.492188 15.195312 10.507812 15.191406 10.523438 C 15.085938 10.445312 14.980469 10.375 14.867188 10.308594 C 14.871094 10.296875 14.875 10.285156 14.875 10.277344 C 14.863281 10.246094 14.910156 10.230469 14.933594 10.265625 L 14.980469 10.261719 L 14.988281 10.21875 L 14.925781 10.167969 L 14.875 10.167969 C 14.875 10.167969 14.871094 10.203125 14.835938 10.191406 C 14.804688 10.175781 14.824219 10.179688 14.796875 10.175781 C 14.765625 10.171875 14.777344 10.238281 14.78125 10.257812 L 14.78125 10.261719 C 14.707031 10.222656 14.636719 10.175781 14.558594 10.148438 C 14.246094 10.019531 13.90625 9.945312 13.554688 9.941406 L 13.554688 9.523438 C 13.582031 9.519531 13.597656 9.515625 13.601562 9.503906 C 13.605469 9.484375 13.609375 9.480469 13.640625 9.472656 C 13.667969 9.46875 13.632812 9.414062 13.605469 9.417969 C 13.582031 9.421875 13.566406 9.40625 13.554688 9.390625 L 13.554688 9.1875 C 14 9.195312 14.433594 9.285156 14.835938 9.449219 L 14.875 9.34375 C 14.460938 9.175781 14.015625 9.085938 13.554688 9.078125 Z M 12.679688 11.996094 L 12.636719 11.992188 C 12.617188 12.035156 12.570312 11.988281 12.570312 11.988281 C 12.5625 11.960938 12.496094 11.988281 12.496094 11.988281 C 12.496094 12.042969 12.410156 11.964844 12.410156 11.964844 L 12.246094 11.847656 C 12.152344 11.765625 12.015625 11.871094 12.007812 11.894531 C 12.011719 11.929688 11.984375 11.933594 11.957031 11.925781 C 12.03125 11.789062 12.117188 11.65625 12.226562 11.542969 Z M 12.148438 11.464844 C 12.027344 11.59375 11.929688 11.742188 11.847656 11.902344 C 11.828125 11.902344 11.804688 11.902344 11.796875 11.917969 C 11.785156 11.957031 11.722656 11.949219 11.722656 11.949219 L 11.714844 11.964844 L 11.667969 11.976562 L 11.65625 12.003906 L 11.601562 12.015625 L 11.742188 12.007812 C 11.78125 12.003906 11.726562 12.089844 11.707031 12.085938 L 11.640625 12.089844 L 11.617188 12.113281 L 11.558594 12.113281 L 11.527344 12.148438 L 11.441406 12.144531 C 11.441406 12.144531 11.390625 12.1875 11.394531 12.203125 C 11.398438 12.214844 11.382812 12.257812 11.371094 12.257812 C 11.355469 12.257812 11.328125 12.300781 11.335938 12.3125 C 11.347656 12.328125 11.308594 12.375 11.308594 12.375 L 11.300781 12.421875 L 11.273438 12.433594 L 11.273438 12.558594 L 11.21875 12.597656 L 11.21875 12.652344 L 11.191406 12.683594 L 10.816406 12.683594 C 10.824219 12.308594 10.90625 11.949219 11.058594 11.617188 C 11.183594 11.347656 11.351562 11.097656 11.5625 10.878906 Z M 11.484375 10.800781 C 11.269531 11.023438 11.089844 11.28125 10.960938 11.566406 C 10.800781 11.90625 10.710938 12.285156 10.703125 12.679688 L 9.953125 12.679688 C 9.960938 12.160156 10.078125 11.660156 10.296875 11.207031 C 10.460938 10.863281 10.679688 10.546875 10.953125 10.265625 Z M 10.285156 9.601562 L 10.875 10.191406 C 10.601562 10.472656 10.375 10.796875 10.199219 11.152344 C 9.976562 11.617188 9.847656 12.136719 9.839844 12.679688 L 9.011719 12.679688 C 9.019531 12.003906 9.179688 11.351562 9.46875 10.757812 C 9.675781 10.339844 9.949219 9.945312 10.285156 9.601562 Z M 10.285156 9.601562 "/>
<path fill-rule="nonzero" fill="rgb(100%, 100%, 100%)" fill-opacity="1" d="M 9.828125 14.941406 L 9.878906 14.988281 L 9.898438 14.957031 L 9.867188 14.886719 L 9.835938 14.863281 L 9.8125 14.796875 L 9.742188 14.765625 L 9.773438 14.847656 L 9.792969 14.890625 Z M 11.445312 13.261719 C 11.449219 13.3125 11.484375 13.226562 11.484375 13.226562 L 11.484375 12.90625 L 11.402344 12.898438 L 11.40625 12.929688 L 11.429688 12.929688 C 11.46875 12.996094 11.433594 13.15625 11.433594 13.15625 C 11.433594 13.15625 11.378906 13.160156 11.371094 13.132812 C 11.359375 13.105469 11.335938 13.195312 11.355469 13.210938 C 11.375 13.222656 11.441406 13.210938 11.445312 13.261719 Z M 11.445312 13.261719 "/>
<path fill-rule="nonzero" fill="rgb(100%, 100%, 100%)" fill-opacity="1" d="M 11.402344 13.289062 L 11.402344 13.402344 L 11.476562 13.5 L 11.503906 13.433594 L 11.515625 13.394531 L 11.480469 13.378906 L 11.484375 13.308594 L 11.515625 13.304688 L 11.519531 13.269531 L 11.449219 13.316406 Z M 12.867188 13.082031 L 12.878906 13.035156 L 12.90625 13.019531 L 12.910156 12.972656 L 12.929688 12.941406 L 12.957031 12.90625 L 12.964844 12.871094 L 13.011719 12.84375 L 13.070312 12.832031 L 13.09375 12.804688 L 13.101562 12.746094 L 13.105469 12.707031 L 13.125 12.675781 L 13.179688 12.652344 L 13.179688 12.5625 L 13.152344 12.5625 L 13.148438 12.53125 L 13.097656 12.527344 L 13.085938 12.550781 L 13.0625 12.550781 L 13.058594 12.585938 L 13.085938 12.585938 L 13.09375 12.617188 L 13.074219 12.632812 L 13.0625 12.660156 L 13.027344 12.667969 L 12.945312 12.746094 L 12.9375 12.785156 L 12.914062 12.816406 L 12.886719 12.890625 L 12.789062 12.894531 L 12.773438 12.980469 L 12.785156 13.050781 Z M 13.234375 13.386719 L 13.191406 13.394531 L 13.199219 13.457031 L 13.226562 13.480469 L 13.277344 13.496094 C 13.277344 13.496094 13.347656 13.476562 13.351562 13.421875 L 13.246094 13.417969 Z M 13.601562 13.121094 C 13.613281 13.160156 13.609375 13.054688 13.628906 13.058594 C 13.648438 13.0625 13.632812 12.992188 13.632812 12.992188 L 13.550781 13.054688 C 13.59375 13.058594 13.597656 13.101562 13.601562 13.121094 Z M 13.929688 13.023438 C 13.863281 12.976562 13.867188 12.917969 13.847656 12.875 C 13.839844 12.855469 13.820312 12.839844 13.804688 12.878906 L 13.804688 12.941406 C 13.804688 12.941406 13.871094 13.042969 13.894531 13.058594 C 13.917969 13.074219 13.957031 13.042969 13.929688 13.023438 Z M 16.019531 13.167969 C 16 13.109375 15.890625 13.160156 15.910156 13.1875 C 15.9375 13.222656 15.984375 13.203125 16.003906 13.210938 C 16.019531 13.214844 16.039062 13.222656 16.019531 13.167969 Z M 16.167969 11.597656 C 16.167969 11.613281 16.179688 11.683594 16.179688 11.683594 C 16.179688 11.683594 16.210938 11.699219 16.214844 11.714844 C 16.21875 11.734375 16.214844 11.773438 16.230469 11.777344 C 16.242188 11.78125 16.269531 11.800781 16.261719 11.820312 C 16.253906 11.839844 16.253906 11.875 16.253906 11.875 L 16.269531 11.917969 L 16.308594 11.941406 C 16.308594 11.941406 16.320312 11.828125 16.300781 11.824219 C 16.277344 11.820312 16.285156 11.753906 16.285156 11.753906 C 16.285156 11.753906 16.308594 11.664062 16.269531 11.664062 C 16.234375 11.664062 16.261719 11.617188 16.238281 11.601562 C 16.214844 11.589844 16.230469 11.523438 16.21875 11.503906 C 16.210938 11.484375 16.210938 11.460938 16.1875 11.449219 C 16.164062 11.433594 16.191406 11.5 16.179688 11.507812 C 16.164062 11.519531 16.15625 11.539062 16.140625 11.550781 C 16.125 11.566406 16.167969 11.585938 16.167969 11.597656 Z M 15.96875 11.15625 C 15.984375 11.175781 16.011719 11.1875 16.011719 11.207031 C 16.011719 11.226562 16.003906 11.242188 16.03125 11.246094 C 16.058594 11.25 16.078125 11.242188 16.085938 11.261719 C 16.09375 11.285156 16.09375 11.324219 16.089844 11.34375 C 16.085938 11.363281 16.09375 11.390625 16.117188 11.390625 C 16.140625 11.390625 16.144531 11.394531 16.144531 11.410156 C 16.144531 11.425781 16.171875 11.359375 16.171875 11.359375 C 16.148438 11.339844 16.132812 11.296875 16.132812 11.296875 C 16.132812 11.296875 16.109375 11.230469 16.109375 11.222656 C 16.109375 11.210938 16.074219 11.203125 16.0625 11.199219 C 16.046875 11.195312 16.023438 11.152344 16.023438 11.152344 Z M 15.917969 11.050781 C 15.9375 11.050781 15.949219 11.0625 15.96875 11.070312 C 15.988281 11.082031 16 11.09375 16.015625 11.113281 L 16.0625 11.097656 C 16.0625 11.097656 16.066406 11.050781 16.046875 11.066406 C 16.027344 11.082031 16.015625 11.035156 15.996094 11.039062 C 15.976562 11.042969 15.96875 11.019531 15.949219 10.996094 C 15.929688 10.972656 15.9375 10.96875 15.914062 10.953125 C 15.890625 10.9375 15.875 10.9375 15.875 10.957031 C 15.875 10.976562 15.898438 10.984375 15.890625 11.007812 C 15.878906 11.035156 15.898438 11.050781 15.917969 11.050781 Z M 15.386719 11.378906 C 15.386719 11.378906 15.402344 11.402344 15.417969 11.414062 C 15.429688 11.429688 15.460938 11.457031 15.429688 11.476562 C 15.398438 11.496094 15.433594 11.492188 15.433594 11.492188 C 15.433594 11.492188 15.429688 11.589844 15.386719 11.574219 C 15.347656 11.5625 15.332031 11.628906 15.332031 11.644531 C 15.332031 11.664062 15.496094 11.671875 15.472656 11.644531 C 15.457031 11.632812 15.492188 11.597656 15.492188 11.597656 C 15.492188 11.597656 15.601562 11.609375 15.625 11.609375 C 15.648438 11.609375 15.667969 11.605469 15.652344 11.578125 C 15.640625 11.558594 15.597656 11.5625 15.597656 11.5625 C 15.597656 11.5625 15.542969 11.574219 15.492188 11.546875 C 15.441406 11.519531 15.5 11.507812 15.511719 11.507812 C 15.519531 11.507812 15.5625 11.476562 15.542969 11.453125 C 15.523438 11.429688 15.542969 11.386719 15.542969 11.40625 C 15.542969 11.425781 15.59375 11.433594 15.605469 11.421875 C 15.613281 11.40625 15.605469 11.363281 15.582031 11.351562 C 15.558594 11.335938 15.621094 11.328125 15.605469 11.300781 C 15.582031 11.277344 15.574219 11.25 15.574219 11.25 C 15.574219 11.25 15.546875 11.289062 15.492188 11.269531 C 15.492188 11.269531 15.480469 11.359375 15.453125 11.375 L 15.386719 11.375 Z M 15.992188 11.339844 L 15.992188 11.34375 C 15.992188 11.34375 15.996094 11.34375 15.992188 11.339844 Z M 14.316406 11.621094 C 14.316406 11.636719 14.347656 11.652344 14.367188 11.652344 C 14.386719 11.652344 14.4375 11.613281 14.4375 11.613281 C 14.4375 11.613281 14.460938 11.546875 14.441406 11.550781 C 14.421875 11.554688 14.386719 11.585938 14.382812 11.554688 C 14.378906 11.527344 14.320312 11.542969 14.320312 11.542969 L 14.246094 11.550781 L 14.242188 11.585938 L 14.292969 11.589844 C 14.292969 11.589844 14.316406 11.609375 14.316406 11.621094 Z M 14.714844 10.054688 C 14.691406 10.054688 14.652344 10.023438 14.660156 10.007812 C 14.667969 9.988281 14.582031 9.96875 14.582031 9.96875 C 14.582031 9.96875 14.503906 9.894531 14.53125 9.902344 C 14.558594 9.914062 14.542969 9.871094 14.542969 9.871094 C 14.542969 9.871094 14.488281 9.878906 14.476562 9.875 C 14.460938 9.871094 14.464844 9.828125 14.464844 9.828125 C 14.464844 9.828125 14.410156 9.8125 14.410156 9.828125 C 14.410156 9.839844 14.429688 9.839844 14.4375 9.871094 C 14.445312 9.898438 14.441406 9.945312 14.484375 9.953125 C 14.527344 9.964844 14.535156 9.972656 14.539062 9.992188 C 14.542969 10.011719 14.597656 10.015625 14.597656 10.015625 L 14.632812 10.035156 L 14.746094 10.128906 L 14.746094 10.089844 C 14.742188 10.089844 14.738281 10.054688 14.714844 10.054688 Z M 14.226562 9.449219 C 14.230469 9.453125 14.234375 9.445312 14.234375 9.445312 C 14.21875 9.441406 14.207031 9.4375 14.226562 9.449219 Z M 14.371094 9.449219 L 14.339844 9.425781 C 14.339844 9.425781 14.289062 9.421875 14.289062 9.410156 C 14.289062 9.394531 14.253906 9.449219 14.234375 9.449219 C 14.257812 9.460938 14.292969 9.480469 14.292969 9.480469 C 14.332031 9.480469 14.351562 9.507812 14.351562 9.523438 C 14.351562 9.535156 14.40625 9.53125 14.40625 9.53125 L 14.410156 9.5 Z M 15.699219 9.4375 C 15.699219 9.4375 15.785156 9.539062 15.78125 9.488281 C 15.773438 9.347656 15.707031 9.34375 15.683594 9.316406 C 15.664062 9.285156 15.5625 9.320312 15.570312 9.359375 C 15.574219 9.382812 15.59375 9.40625 15.628906 9.414062 Z M 13.90625 8.890625 L 13.90625 8.839844 L 13.890625 8.820312 L 13.871094 8.753906 L 13.8125 8.734375 L 13.75 8.757812 L 13.6875 8.800781 L 13.617188 8.8125 L 13.578125 8.851562 L 13.726562 8.867188 L 13.753906 8.914062 L 13.863281 8.925781 L 13.929688 8.996094 C 13.992188 9.011719 14.003906 8.984375 13.96875 8.953125 Z M 14.335938 8.660156 L 14.253906 8.660156 C 14.246094 8.625 14.171875 8.640625 14.167969 8.660156 C 14.164062 8.679688 14.136719 8.683594 14.136719 8.683594 L 14.03125 8.691406 C 14.019531 8.722656 13.964844 8.738281 13.960938 8.722656 C 13.949219 8.679688 13.890625 8.773438 13.953125 8.792969 C 14.011719 8.808594 14.070312 8.792969 14.070312 8.792969 L 14.085938 8.761719 L 14.316406 8.765625 C 14.335938 8.75 14.347656 8.71875 14.347656 8.71875 C 14.347656 8.71875 14.402344 8.703125 14.425781 8.710938 C 14.449219 8.71875 14.429688 8.644531 14.40625 8.652344 C 14.382812 8.664062 14.335938 8.660156 14.335938 8.660156 Z M 13.082031 9.640625 C 13.085938 9.652344 13.132812 9.65625 13.136719 9.644531 C 13.140625 9.628906 13.160156 9.601562 13.117188 9.601562 C 13.078125 9.601562 13.085938 9.578125 13.074219 9.5625 C 13.058594 9.550781 12.960938 9.550781 12.964844 9.566406 C 12.96875 9.589844 13.007812 9.621094 13.007812 9.621094 C 13.007812 9.621094 13.078125 9.625 13.082031 9.640625 Z M 13.300781 13.886719 C 13.320312 13.882812 13.335938 13.871094 13.351562 13.867188 C 13.371094 13.863281 13.378906 13.835938 13.382812 13.808594 C 13.390625 13.777344 13.378906 13.765625 13.378906 13.765625 C 13.378906 13.765625 13.359375 13.792969 13.332031 13.765625 C 13.304688 13.734375 13.28125 13.828125 13.269531 13.847656 C 13.269531 13.851562 13.28125 13.886719 13.300781 13.886719 Z M 13.300781 13.886719 "/>
</svg>