<svg xmlns="http://www.w3.org/2000/svg" xmlns:xlink="http://www.w3.org/1999/xlink" viewBox="0 0 27 27">
<path fill-rule="nonzero" fill="rgb(0%, 14.117432%, 49.01886%)" fill-opacity="1" d="M 24 3.75 L 3 3.75 C 2.847656 3.75 2.695312 3.761719 2.546875 3.785156 L 2.542969 5.097656 L 0.496094 5.097656 C 0.183594 5.570312 0 6.140625 0 6.75 L 0 20.25 C 0 21.90625 1.34375 23.25 3 23.25 L 24 23.25 C 25.65625 23.25 27 21.90625 27 20.25 L 27 6.75 C 27 5.09375 25.65625 3.75 24 3.75 Z M 24 3.75 "/>
<path fill-rule="nonzero" fill="rgb(100%, 100%, 100%)" fill-opacity="1" d="M 25.097656 16.984375 C 24.890625 16.84375 24.578125 16.550781 24.523438 16.464844 C 24.3125 16.113281 24.070312 16.039062 23.90625 16.039062 C 23.882812 16.039062 23.859375 16.042969 23.839844 16.042969 C 23.917969 15.910156 23.96875 15.78125 23.96875 15.65625 L 23.96875 8.734375 L 16.40625 8.734375 L 16.40625 15.65625 C 16.40625 15.78125 16.457031 15.910156 16.539062 16.042969 C 16.515625 16.042969 16.492188 16.039062 16.472656 16.039062 C 16.304688 16.039062 16.0625 16.113281 15.851562 16.464844 C 15.796875 16.550781 15.488281 16.847656 15.277344 16.984375 C 15.101562 17.09375 15 17.273438 14.988281 17.488281 C 14.972656 17.785156 15.140625 18.132812 15.425781 18.371094 C 15.542969 18.46875 15.683594 18.519531 15.828125 18.519531 C 16.023438 18.519531 16.1875 18.429688 16.320312 18.320312 C 17.566406 19.351562 18.835938 19.851562 20.1875 19.851562 C 21.539062 19.851562 22.808594 19.351562 24.054688 18.320312 C 24.183594 18.429688 24.351562 18.519531 24.546875 18.519531 C 24.691406 18.519531 24.832031 18.46875 24.945312 18.371094 C 25.230469 18.132812 25.402344 17.785156 25.386719 17.488281 C 25.375 17.273438 25.273438 17.09375 25.097656 16.984375 Z M 25.097656 16.984375 "/>
<path fill-rule="nonzero" fill="rgb(0%, 38.038635%, 16.078186%)" fill-opacity="1" d="M 20.1875 18.027344 C 18.515625 17.28125 16.78125 16.175781 16.78125 15.65625 L 16.78125 9.109375 L 23.59375 9.109375 L 23.59375 15.65625 C 23.59375 16.175781 21.859375 17.28125 20.1875 18.027344 Z M 20.1875 18.027344 "/>
<path fill-rule="nonzero" fill="rgb(100%, 77.645874%, 70.979309%)" fill-opacity="1" d="M 18.808594 13.417969 C 18.65625 13.476562 18.609375 13.066406 18.808594 12.773438 C 19.007812 12.480469 19.59375 11.882812 19.722656 11.332031 C 19.851562 10.78125 20.078125 10.863281 20.1875 10.710938 C 20.296875 10.558594 20.3125 10.382812 20.1875 10.347656 C 20.0625 10.3125 19.886719 10.265625 20.003906 9.808594 C 20.121094 9.351562 20.625 9.398438 20.625 9.714844 C 20.625 10.03125 20.507812 10.3125 20.625 10.558594 C 20.742188 10.804688 21.011719 10.746094 21.175781 11.214844 C 21.339844 11.683594 21.398438 12.140625 21.292969 12.339844 C 21.1875 12.539062 21.128906 13.300781 20.988281 13.5 C 20.847656 13.699219 20.660156 13.617188 20.695312 13.253906 C 20.730469 12.890625 20.964844 12.398438 21.035156 12.140625 C 21.105469 11.882812 20.929688 11.355469 20.671875 11.296875 C 20.414062 11.238281 19.945312 11.835938 19.734375 12.082031 C 19.523438 12.328125 19.066406 12.515625 19.042969 12.714844 C 19.019531 12.914062 18.960938 13.359375 18.808594 13.417969 Z M 18.808594 13.417969 "/>
<path fill-rule="nonzero" fill="rgb(100%, 100%, 100%)" fill-opacity="1" d="M 21.574219 16.40625 C 21.304688 16.464844 20.707031 16.6875 20.378906 16.605469 C 20.050781 16.523438 19.464844 16.734375 19.382812 16.625 C 19.300781 16.511719 19.464844 15.902344 19.488281 15.621094 C 19.511719 15.339844 19.546875 15.058594 19.5 15.058594 C 19.453125 15.058594 19.257812 15.058594 19.359375 14.554688 C 19.464844 14.050781 19.640625 13.125 19.640625 13.125 C 19.640625 13.125 19.464844 13.054688 19.570312 12.773438 C 19.675781 12.492188 19.804688 11.824219 19.769531 11.671875 C 19.734375 11.519531 19.476562 11.566406 19.570312 11.332031 C 19.664062 11.097656 19.734375 11.050781 19.804688 10.875 C 19.875 10.699219 20.019531 10.5625 20.121094 10.605469 C 20.222656 10.652344 20.335938 10.78125 20.453125 10.710938 C 20.566406 10.640625 20.578125 10.535156 20.730469 10.546875 C 20.882812 10.558594 21.207031 10.867188 21.140625 10.933594 C 21.070312 11.003906 20.949219 11.242188 20.925781 11.539062 C 20.90625 11.835938 20.71875 12.5625 20.660156 12.796875 C 20.601562 13.035156 20.859375 13.59375 21 14.125 C 21.140625 14.648438 21.574219 16.40625 21.574219 16.40625 Z M 21.574219 16.40625 "/>
<path fill-rule="nonzero" fill="rgb(61.175537%, 31.764221%, 0%)" fill-opacity="1" d="M 20.011719 9.472656 C 20.078125 9.289062 20.414062 9.140625 20.695312 9.363281 C 20.976562 9.585938 21.09375 9.996094 20.894531 10.242188 C 20.695312 10.488281 20.578125 10.429688 20.503906 10.242188 C 20.425781 10.054688 20.507812 9.886719 20.402344 9.832031 C 20.296875 9.773438 20.390625 9.609375 20.296875 9.574219 C 20.203125 9.539062 19.914062 9.730469 20.011719 9.472656 Z M 20.011719 9.472656 "/>
<path fill-rule="nonzero" fill="rgb(100%, 0%, 0%)" fill-opacity="1" d="M 17.335938 9.363281 C 17.289062 9.308594 17.167969 9.527344 17.214844 9.679688 C 17.261719 9.832031 17.25 9.976562 17.34375 9.953125 C 17.433594 9.929688 17.410156 9.796875 17.472656 9.691406 C 17.519531 9.609375 17.332031 9.632812 17.390625 9.539062 Z M 17.335938 9.363281 "/>
<path fill-rule="nonzero" fill="rgb(97.253418%, 77.645874%, 0%)" fill-opacity="1" d="M 17.144531 9.902344 L 17.765625 9.902344 C 17.765625 9.902344 17.847656 9.621094 17.976562 9.609375 C 18.105469 9.597656 18.140625 9.890625 18.140625 9.890625 C 18.140625 9.890625 18.433594 9.960938 18.5625 9.878906 C 18.691406 9.796875 19.007812 9.890625 18.761719 10.03125 C 18.515625 10.171875 18.65625 9.878906 18.515625 10.03125 C 18.375 10.183594 18.246094 10.242188 18.269531 10.300781 C 18.292969 10.359375 18.195312 10.40625 18 10.40625 C 17.800781 10.40625 17.671875 10.359375 17.695312 10.265625 C 17.71875 10.171875 17.566406 10.136719 17.390625 10.101562 C 17.214844 10.066406 17.144531 9.902344 17.144531 9.902344 Z M 17.144531 9.902344 "/>
<path fill-rule="nonzero" fill="rgb(100%, 0%, 0%)" fill-opacity="1" d="M 17.335938 10.554688 C 17.289062 10.5 17.167969 10.71875 17.214844 10.871094 C 17.261719 11.023438 17.25 11.167969 17.34375 11.144531 C 17.433594 11.121094 17.410156 10.988281 17.472656 10.882812 C 17.519531 10.800781 17.332031 10.824219 17.390625 10.730469 Z M 17.335938 10.554688 "/>
<path fill-rule="nonzero" fill="rgb(97.253418%, 77.645874%, 0%)" fill-opacity="1" d="M 17.144531 11.09375 L 17.765625 11.09375 C 17.765625 11.09375 17.847656 10.8125 17.976562 10.800781 C 18.105469 10.789062 18.140625 11.082031 18.140625 11.082031 C 18.140625 11.082031 18.433594 11.152344 18.5625 11.070312 C 18.691406 10.988281 19.007812 11.082031 18.761719 11.222656 C 18.515625 11.363281 18.65625 11.070312 18.515625 11.222656 C 18.375 11.375 18.246094 11.433594 18.269531 11.492188 C 18.292969 11.550781 18.195312 11.597656 18 11.597656 C 17.800781 11.597656 17.671875 11.550781 17.695312 11.457031 C 17.71875 11.363281 17.566406 11.328125 17.390625 11.292969 C 17.214844 11.257812 17.144531 11.09375 17.144531 11.09375 Z M 17.144531 11.09375 "/>
<path fill-rule="nonzero" fill="rgb(100%, 0%, 0%)" fill-opacity="1" d="M 17.335938 11.878906 C 17.289062 11.824219 17.167969 12.042969 17.214844 12.195312 C 17.261719 12.347656 17.25 12.492188 17.34375 12.46875 C 17.433594 12.445312 17.410156 12.3125 17.472656 12.207031 C 17.519531 12.125 17.332031 12.148438 17.390625 12.054688 Z M 17.335938 11.878906 "/>
<path fill-rule="nonzero" fill="rgb(97.253418%, 77.645874%, 0%)" fill-opacity="1" d="M 17.144531 12.417969 L 17.765625 12.417969 C 17.765625 12.417969 17.847656 12.136719 17.976562 12.125 C 18.105469 12.113281 18.140625 12.40625 18.140625 12.40625 C 18.140625 12.40625 18.433594 12.476562 18.5625 12.394531 C 18.691406 12.3125 19.007812 12.40625 18.761719 12.546875 C 18.515625 12.6875 18.65625 12.394531 18.515625 12.546875 C 18.375 12.699219 18.246094 12.757812 18.269531 12.816406 C 18.292969 12.875 18.195312 12.921875 18 12.921875 C 17.800781 12.921875 17.671875 12.875 17.695312 12.78125 C 17.71875 12.6875 17.566406 12.652344 17.390625 12.617188 C 17.214844 12.582031 17.144531 12.417969 17.144531 12.417969 Z M 17.144531 12.417969 "/>
<path fill-rule="nonzero" fill="rgb(100%, 0%, 0%)" fill-opacity="1" d="M 18.085938 13.167969 C 18.039062 13.117188 17.917969 13.332031 17.964844 13.484375 C 18.011719 13.636719 18 13.78125 18.09375 13.757812 C 18.183594 13.734375 18.160156 13.601562 18.222656 13.496094 C 18.269531 13.414062 18.082031 13.4375 18.140625 13.34375 Z M 18.085938 13.167969 "/>
<path fill-rule="nonzero" fill="rgb(97.253418%, 77.645874%, 0%)" fill-opacity="1" d="M 17.894531 13.707031 L 18.515625 13.707031 C 18.515625 13.707031 18.597656 13.425781 18.726562 13.414062 C 18.855469 13.402344 18.890625 13.695312 18.890625 13.695312 C 18.890625 13.695312 19.183594 13.765625 19.3125 13.683594 C 19.441406 13.601562 19.757812 13.695312 19.511719 13.835938 C 19.265625 13.976562 19.40625 13.683594 19.265625 13.835938 C 19.125 13.988281 18.996094 14.046875 19.019531 14.105469 C 19.042969 14.164062 18.945312 14.207031 18.75 14.207031 C 18.550781 14.207031 18.421875 14.164062 18.445312 14.070312 C 18.46875 13.976562 18.316406 13.941406 18.140625 13.902344 C 17.964844 13.867188 17.894531 13.707031 17.894531 13.707031 Z M 17.894531 13.707031 "/>
<path fill-rule="nonzero" fill="rgb(100%, 0%, 0%)" fill-opacity="1" d="M 17.292969 14.21875 C 17.246094 14.164062 17.125 14.382812 17.171875 14.535156 C 17.21875 14.6875 17.207031 14.832031 17.296875 14.808594 C 17.390625 14.785156 17.367188 14.652344 17.429688 14.546875 C 17.476562 14.464844 17.289062 14.488281 17.347656 14.394531 Z M 17.292969 14.21875 "/>
<path fill-rule="nonzero" fill="rgb(97.253418%, 77.645874%, 0%)" fill-opacity="1" d="M 17.101562 14.757812 L 17.722656 14.757812 C 17.722656 14.757812 17.804688 14.476562 17.933594 14.464844 C 18.0625 14.453125 18.097656 14.746094 18.097656 14.746094 C 18.097656 14.746094 18.390625 14.816406 18.519531 14.734375 C 18.648438 14.652344 18.964844 14.746094 18.71875 14.886719 C 18.472656 15.027344 18.613281 14.734375 18.472656 14.886719 C 18.332031 15.039062 18.203125 15.097656 18.226562 15.15625 C 18.25 15.214844 18.152344 15.257812 17.953125 15.257812 C 17.757812 15.257812 17.628906 15.214844 17.652344 15.121094 C 17.675781 15.027344 17.523438 14.992188 17.347656 14.953125 C 17.171875 14.917969 17.101562 14.757812 17.101562 14.757812 Z M 17.101562 14.757812 "/>
<path fill-rule="nonzero" fill="rgb(100%, 0%, 0%)" fill-opacity="1" d="M 17.292969 15.472656 C 17.246094 15.417969 17.125 15.636719 17.171875 15.789062 C 17.21875 15.941406 17.207031 16.085938 17.296875 16.0625 C 17.390625 16.039062 17.367188 15.90625 17.429688 15.800781 C 17.476562 15.71875 17.289062 15.742188 17.347656 15.648438 Z M 17.292969 15.472656 "/>
<path fill-rule="nonzero" fill="rgb(97.253418%, 77.645874%, 0%)" fill-opacity="1" d="M 17.101562 16.011719 L 17.722656 16.011719 C 17.722656 16.011719 17.804688 15.730469 17.933594 15.71875 C 18.0625 15.707031 18.097656 16 18.097656 16 C 18.097656 16 18.390625 16.070312 18.519531 15.988281 C 18.648438 15.90625 18.964844 16 18.71875 16.140625 C 18.472656 16.28125 18.613281 15.988281 18.472656 16.140625 C 18.332031 16.292969 18.203125 16.351562 18.226562 16.410156 C 18.25 16.46875 18.152344 16.511719 17.953125 16.511719 C 17.757812 16.511719 17.628906 16.46875 17.652344 16.375 C 17.675781 16.28125 17.523438 16.246094 17.347656 16.210938 C 17.171875 16.171875 17.101562 16.011719 17.101562 16.011719 Z M 17.101562 16.011719 "/>
<path fill-rule="nonzero" fill="rgb(100%, 0%, 0%)" fill-opacity="1" d="M 21.765625 15.472656 C 21.71875 15.417969 21.597656 15.636719 21.644531 15.789062 C 21.691406 15.941406 21.679688 16.085938 21.773438 16.0625 C 21.863281 16.039062 21.84375 15.90625 21.902344 15.800781 C 21.949219 15.71875 21.761719 15.742188 21.820312 15.648438 Z M 21.765625 15.472656 "/>
<path fill-rule="nonzero" fill="rgb(97.253418%, 77.645874%, 0%)" fill-opacity="1" d="M 21.574219 16.011719 L 22.195312 16.011719 C 22.195312 16.011719 22.277344 15.730469 22.40625 15.71875 C 22.535156 15.707031 22.570312 16 22.570312 16 C 22.570312 16 22.863281 16.070312 22.992188 15.988281 C 23.121094 15.90625 23.4375 16 23.191406 16.140625 C 22.945312 16.28125 23.085938 15.988281 22.945312 16.140625 C 22.804688 16.292969 22.675781 16.351562 22.699219 16.410156 C 22.722656 16.46875 22.625 16.511719 22.429688 16.511719 C 22.230469 16.511719 22.101562 16.46875 22.125 16.375 C 22.148438 16.28125 21.996094 16.246094 21.820312 16.210938 C 21.644531 16.175781 21.574219 16.011719 21.574219 16.011719 Z M 21.574219 16.011719 "/>
<path fill-rule="nonzero" fill="rgb(100%, 0%, 0%)" fill-opacity="1" d="M 21.765625 14.292969 C 21.71875 14.242188 21.597656 14.460938 21.644531 14.613281 C 21.691406 14.765625 21.679688 14.910156 21.773438 14.882812 C 21.863281 14.863281 21.84375 14.726562 21.902344 14.621094 C 21.949219 14.539062 21.761719 14.5625 21.820312 14.46875 Z M 21.765625 14.292969 "/>
<path fill-rule="nonzero" fill="rgb(97.253418%, 77.645874%, 0%)" fill-opacity="1" d="M 21.574219 14.832031 L 22.195312 14.832031 C 22.195312 14.832031 22.277344 14.550781 22.40625 14.539062 C 22.535156 14.527344 22.570312 14.820312 22.570312 14.820312 C 22.570312 14.820312 22.863281 14.890625 22.992188 14.808594 C 23.121094 14.726562 23.4375 14.820312 23.191406 14.960938 C 22.945312 15.101562 23.085938 14.808594 22.945312 14.960938 C 22.804688 15.113281 22.675781 15.171875 22.699219 15.230469 C 22.722656 15.289062 22.625 15.335938 22.429688 15.335938 C 22.230469 15.335938 22.101562 15.289062 22.125 15.195312 C 22.148438 15.101562 21.996094 15.066406 21.820312 15.03125 C 21.644531 14.996094 21.574219 14.832031 21.574219 14.832031 Z M 21.574219 14.832031 "/>
<path fill-rule="nonzero" fill="rgb(100%, 0%, 0%)" fill-opacity="1" d="M 21.765625 13.089844 C 21.71875 13.035156 21.597656 13.253906 21.644531 13.40625 C 21.691406 13.558594 21.679688 13.703125 21.773438 13.679688 C 21.863281 13.65625 21.84375 13.523438 21.902344 13.417969 C 21.949219 13.335938 21.761719 13.359375 21.820312 13.265625 Z M 21.765625 13.089844 "/>
<path fill-rule="nonzero" fill="rgb(97.253418%, 77.645874%, 0%)" fill-opacity="1" d="M 21.574219 13.628906 L 22.195312 13.628906 C 22.195312 13.628906 22.277344 13.347656 22.40625 13.335938 C 22.535156 13.320312 22.570312 13.617188 22.570312 13.617188 C 22.570312 13.617188 22.863281 13.6875 22.992188 13.601562 C 23.121094 13.523438 23.4375 13.617188 23.191406 13.753906 C 22.945312 13.894531 23.085938 13.601562 22.945312 13.753906 C 22.804688 13.90625 22.675781 13.964844 22.699219 14.023438 C 22.722656 14.082031 22.625 14.128906 22.429688 14.128906 C 22.230469 14.128906 22.101562 14.085938 22.125 13.992188 C 22.148438 13.898438 21.996094 13.863281 21.820312 13.828125 C 21.644531 13.792969 21.574219 13.628906 21.574219 13.628906 Z M 21.574219 13.628906 "/>
<path fill-rule="nonzero" fill="rgb(100%, 0%, 0%)" fill-opacity="1" d="M 21.765625 11.878906 C 21.71875 11.824219 21.597656 12.042969 21.644531 12.195312 C 21.691406 12.347656 21.679688 12.492188 21.773438 12.46875 C 21.863281 12.445312 21.84375 12.3125 21.902344 12.207031 C 21.949219 12.125 21.761719 12.148438 21.820312 12.054688 Z M 21.765625 11.878906 "/>
<path fill-rule="nonzero" fill="rgb(97.253418%, 77.645874%, 0%)" fill-opacity="1" d="M 21.574219 12.417969 L 22.195312 12.417969 C 22.195312 12.417969 22.277344 12.136719 22.40625 12.125 C 22.535156 12.113281 22.570312 12.40625 22.570312 12.40625 C 22.570312 12.40625 22.863281 12.476562 22.992188 12.394531 C 23.121094 12.3125 23.4375 12.40625 23.191406 12.546875 C 22.945312 12.6875 23.085938 12.394531 22.945312 12.546875 C 22.804688 12.699219 22.675781 12.757812 22.699219 12.816406 C 22.722656 12.875 22.625 12.921875 22.429688 12.921875 C 22.230469 12.921875 22.101562 12.875 22.125 12.78125 C 22.148438 12.6875 21.996094 12.652344 21.820312 12.617188 C 21.644531 12.582031 21.574219 12.417969 21.574219 12.417969 Z M 21.574219 12.417969 "/>
<path fill-rule="nonzero" fill="rgb(100%, 0%, 0%)" fill-opacity="1" d="M 21.765625 10.628906 C 21.71875 10.578125 21.597656 10.796875 21.644531 10.949219 C 21.691406 11.101562 21.679688 11.242188 21.773438 11.222656 C 21.863281 11.199219 21.84375 11.066406 21.902344 10.957031 C 21.949219 10.875 21.761719 10.898438 21.820312 10.804688 Z M 21.765625 10.628906 "/>
<path fill-rule="nonzero" fill="rgb(97.253418%, 77.645874%, 0%)" fill-opacity="1" d="M 21.574219 11.167969 L 22.195312 11.167969 C 22.195312 11.167969 22.277344 10.886719 22.40625 10.875 C 22.535156 10.863281 22.570312 11.15625 22.570312 11.15625 C 22.570312 11.15625 22.863281 11.226562 22.992188 11.144531 C 23.121094 11.0625 23.4375 11.15625 23.191406 11.296875 C 22.945312 11.4375 23.085938 11.144531 22.945312 11.296875 C 22.804688 11.449219 22.675781 11.507812 22.699219 11.566406 C 22.722656 11.625 22.625 11.671875 22.429688 11.671875 C 22.230469 11.671875 22.101562 11.625 22.125 11.53125 C 22.148438 11.4375 21.996094 11.402344 21.820312 11.367188 C 21.644531 11.332031 21.574219 11.167969 21.574219 11.167969 Z M 21.574219 11.167969 "/>
<path fill-rule="nonzero" fill="rgb(100%, 0%, 0%)" fill-opacity="1" d="M 21.765625 9.363281 C 21.71875 9.308594 21.597656 9.527344 21.644531 9.679688 C 21.691406 9.832031 21.679688 9.976562 21.773438 9.953125 C 21.863281 9.929688 21.84375 9.796875 21.902344 9.691406 C 21.949219 9.609375 21.761719 9.632812 21.820312 9.539062 Z M 21.765625 9.363281 "/>
<path fill-rule="nonzero" fill="rgb(97.253418%, 77.645874%, 0%)" fill-opacity="1" d="M 21.574219 9.902344 L 22.195312 9.902344 C 22.195312 9.902344 22.277344 9.621094 22.40625 9.609375 C 22.535156 9.597656 22.570312 9.890625 22.570312 9.890625 C 22.570312 9.890625 22.863281 9.960938 22.992188 9.878906 C 23.121094 9.796875 23.4375 9.890625 23.191406 10.03125 C 22.945312 10.171875 23.085938 9.878906 22.945312 10.03125 C 22.804688 10.183594 22.675781 10.242188 22.699219 10.300781 C 22.722656 10.359375 22.625 10.40625 22.429688 10.40625 C 22.230469 10.40625 22.101562 10.359375 22.125 10.265625 C 22.148438 10.171875 21.996094 10.136719 21.820312 10.101562 C 21.644531 10.066406 21.574219 9.902344 21.574219 9.902344 Z M 24.894531 17.296875 C 24.660156 17.144531 24.296875 16.8125 24.203125 16.65625 C 24.109375 16.5 23.921875 16.28125 23.722656 16.515625 C 23.523438 16.746094 21.9375 18.292969 20.1875 18.292969 C 18.4375 18.292969 16.851562 16.746094 16.652344 16.515625 C 16.453125 16.28125 16.265625 16.5 16.171875 16.65625 C 16.078125 16.8125 15.714844 17.144531 15.480469 17.296875 C 15.246094 17.449219 15.386719 17.847656 15.667969 18.082031 C 15.949219 18.316406 16.289062 17.800781 16.289062 17.800781 C 17.261719 18.667969 18.527344 19.476562 20.1875 19.476562 C 21.847656 19.476562 23.113281 18.667969 24.085938 17.800781 C 24.085938 17.800781 24.425781 18.316406 24.707031 18.082031 C 24.988281 17.847656 25.128906 17.449219 24.894531 17.296875 Z M 24.894531 17.296875 "/>
<path fill-rule="nonzero" fill="rgb(0%, 14.117432%, 49.01886%)" fill-opacity="1" d="M 14.25 13.5 L 14.25 3.75 L 3 3.75 C 2.761719 3.75 2.546875 3.785156 2.546875 3.785156 L 2.542969 5.097656 L 0.496094 5.097656 C 0.496094 5.097656 0.464844 5.140625 0.402344 5.25 C 0.144531 5.691406 0 6.203125 0 6.75 L 0 13.5 Z M 14.25 13.5 "/>
<path fill-rule="nonzero" fill="rgb(93.331909%, 93.331909%, 93.331909%)" fill-opacity="1" d="M 14.25 3.75 L 12.5 3.75 L 9 6.203125 L 9 3.75 L 5.25 3.75 L 5.25 5.675781 L 2.546875 3.785156 C 2.085938 3.855469 1.65625 4.027344 1.292969 4.28125 L 4.820312 6.75 L 3.515625 6.75 L 0.726562 4.792969 C 0.644531 4.890625 0.566406 4.988281 0.496094 5.097656 L 2.859375 6.75 L 0 6.75 L 0 10.5 L 2.914062 10.5 L 0 12.574219 L 0 13.5 L 2.5 13.5 L 5.25 11.574219 L 5.25 13.5 L 9 13.5 L 9 11.046875 L 12.5 13.5 L 14.25 13.5 L 14.25 11.976562 L 12.140625 10.5 L 14.25 10.5 L 14.25 6.75 L 12.140625 6.75 L 14.25 5.273438 Z M 14.25 3.75 "/>
<path fill-rule="nonzero" fill="rgb(81.175232%, 10.588074%, 16.862488%)" fill-opacity="1" d="M 8.25 3.75 L 6 3.75 L 6 7.5 L 0 7.5 L 0 9.75 L 6 9.75 L 6 13.5 L 8.25 13.5 L 8.25 9.75 L 14.25 9.75 L 14.25 7.5 L 8.25 7.5 Z M 8.25 3.75 "/>
<path fill-rule="nonzero" fill="rgb(81.175232%, 10.588074%, 16.862488%)" fill-opacity="1" d="M 14.25 3.75 L 13.152344 3.75 L 9 6.660156 L 9 6.75 L 10.179688 6.75 L 14.25 3.898438 Z M 1.292969 4.28125 C 1.082031 4.429688 0.890625 4.601562 0.726562 4.792969 L 3.515625 6.75 L 4.820312 6.75 Z M 4.828125 10.5 L 0.550781 13.5 L 1.847656 13.5 L 5.25 11.117188 L 5.25 10.5 Z M 14.25 13.351562 L 14.25 12.4375 L 11.484375 10.5 L 10.175781 10.5 Z M 14.25 13.351562 "/>
</svg>