<svg xmlns="http://www.w3.org/2000/svg" xmlns:xlink="http://www.w3.org/1999/xlink" viewBox="0 0 27 27">
<path fill-rule="nonzero" fill="rgb(93.331909%, 93.331909%, 93.331909%)" fill-opacity="1" d="M 27 20.25 C 27 21.90625 25.65625 23.25 24 23.25 L 3 23.25 C 1.34375 23.25 0 21.90625 0 20.25 L 0 6.75 C 0 5.09375 1.34375 3.75 3 3.75 L 24 3.75 C 25.65625 3.75 27 5.09375 27 6.75 Z M 27 20.25 "/>
<path fill-rule="nonzero" fill="rgb(21.568298%, 58.430481%, 26.274109%)" fill-opacity="1" d="M 9.75 18.609375 C 9.75 18.609375 9.609375 18.703125 9.46875 18.671875 C 9.328125 18.640625 9.125 18.679688 9.125 18.679688 L 7.914062 16.597656 C 7.914062 16.597656 7.265625 17.203125 6.671875 16.671875 C 6.984375 16.765625 7.359375 16.140625 7.8125 16.40625 C 7.390625 16.015625 6.578125 16.703125 6.171875 15.75 C 6.734375 16.09375 7.0625 15.546875 7.578125 15.890625 C 7.078125 15.328125 6.34375 15.941406 6.046875 15.183594 C 6.5 15.34375 6.875 14.851562 7.28125 15.183594 C 6.9375 14.484375 5.890625 15.453125 5.6875 14.28125 C 6.140625 14.515625 6.640625 14.21875 6.921875 14.453125 C 6.390625 13.4375 5.90625 14.609375 5.453125 13.125 C 5.765625 13.5625 6.203125 13.140625 6.65625 13.828125 C 6.328125 12.578125 5.4375 13.625 5.15625 12.15625 C 5.71875 11.96875 5.953125 12.796875 6.40625 12.96875 C 6.125 12 5.53125 12.28125 5.890625 11.140625 C 6.703125 11.546875 6.34375 12.234375 6.609375 13.03125 C 6.8125 12.75 6.546875 12.390625 6.6875 12.140625 C 6.828125 11.890625 6.90625 11.765625 6.859375 11.640625 C 7.59375 12.484375 6.703125 13.203125 6.78125 13.5 C 6.859375 13.796875 6.984375 13.90625 6.984375 13.90625 C 6.984375 13.90625 6.90625 13.453125 7.0625 13.1875 C 7.21875 12.921875 7.46875 12.828125 7.453125 12.59375 C 7.625 12.796875 7.5625 13.265625 7.359375 13.5 C 7.15625 13.734375 7.125 14.3125 7.25 14.515625 C 7.203125 13.882812 7.765625 13.921875 7.671875 13.28125 C 7.984375 13.34375 8.09375 14.0625 7.75 14.328125 C 7.40625 14.59375 7.671875 15.328125 7.671875 15.328125 C 7.671875 15.328125 7.6875 14.859375 7.875 14.640625 C 8.0625 14.421875 8.171875 14.1875 8.125 13.96875 C 8.375 14.171875 8.40625 14.75 8.234375 15.03125 C 8.0625 15.3125 7.796875 15.46875 8.0625 15.921875 C 8.03125 15.09375 8.59375 15.25 8.578125 14.71875 C 8.90625 14.96875 8.71875 15.5 8.53125 15.671875 C 8.34375 15.84375 8.375 16.234375 8.375 16.234375 C 8.375 16.234375 8.578125 15.953125 8.734375 15.84375 C 8.890625 15.734375 9 15.421875 9 15.421875 C 9 15.421875 9.195312 16.394531 8.578125 16.4375 C 8.5625 16.890625 9.4375 18.234375 9.75 18.609375 Z M 9.75 18.609375 "/>
<path fill-rule="nonzero" fill="rgb(0%, 50.587463%, 78.038025%)" fill-opacity="1" d="M 20.511719 14.347656 L 20.835938 14.503906 L 19.066406 16.597656 L 20.714844 13.46875 L 20.957031 13.808594 L 21.421875 11.734375 L 20.070312 13.277344 L 20.421875 13.355469 L 19.1875 15.671875 L 19.578125 14.03125 L 19.890625 14.3125 L 19.890625 12.1875 L 18.90625 13.984375 L 19.265625 13.984375 L 18.570312 16.828125 L 18.207031 17.511719 L 17.785156 17.675781 L 17.617188 17.972656 L 17.496094 17.988281 L 16.121094 19.453125 L 16.816406 19.460938 L 16.953125 20.140625 L 17.539062 19.441406 L 17.328125 20.125 L 17.953125 19.824219 L 18.375 20.375 L 18.859375 18.4375 L 18.636719 18.019531 L 18.632812 18 L 18.753906 17.480469 L 21.097656 14.683594 L 21.253906 15.070312 L 22.183594 13.160156 Z M 2.734375 11.296875 L 1.296875 11.296875 C 1.296875 11.296875 1.609375 11.359375 1.75 11.6875 C 1.890625 12.015625 2.769531 14.597656 2.84375 14.910156 C 2.953125 15.375 2.609375 15.46875 2.609375 15.46875 L 4.03125 15.46875 C 4.03125 15.46875 3.625 15.398438 3.75 14.910156 C 3.875 14.421875 4.703125 12 4.796875 11.703125 C 4.890625 11.40625 5.15625 11.296875 5.15625 11.296875 L 3.734375 11.296875 C 3.734375 11.296875 4.21875 11.40625 4.078125 11.796875 C 3.9375 12.1875 3.3125 14.28125 3.3125 14.28125 C 3.3125 14.28125 2.609375 12.1875 2.484375 11.796875 C 2.359375 11.40625 2.734375 11.296875 2.734375 11.296875 Z M 25.382812 11.296875 L 24.070312 11.296875 C 24.070312 11.296875 24.324219 11.472656 24.324219 11.8125 C 24.324219 12.160156 24.316406 14.761719 24.316406 15.011719 C 24.316406 15.339844 24.015625 15.46875 24.015625 15.46875 L 25.4375 15.46875 C 25.4375 15.46875 25.054688 15.269531 25.054688 14.988281 L 25.054688 11.734375 C 25.054688 11.4375 25.382812 11.296875 25.382812 11.296875 Z M 25.382812 11.296875 "/>
<path fill-rule="nonzero" fill="rgb(95.684814%, 77.645874%, 23.921204%)" fill-opacity="1" d="M 24.75 6.359375 C 24.382812 6.40625 23.195312 7.046875 21.023438 7.46875 C 20.898438 7.375 20.664062 7.421875 20.289062 7.59375 C 19.914062 7.765625 18.117188 8.265625 17.617188 8.453125 C 17.117188 8.640625 16.851562 9.027344 16.914062 9.359375 C 17.023438 9.953125 17.460938 10.046875 17.304688 10.21875 C 17.148438 10.390625 16.679688 9.984375 16.367188 10.171875 C 16.203125 10.269531 15.304688 10.050781 15.28125 9.953125 C 15.203125 9.609375 14.859375 9.3125 14.859375 9.3125 C 14.859375 9.3125 15.125 9.265625 15.1875 9.15625 C 14.75 8.90625 14.46875 8.421875 14.46875 8.421875 C 14.46875 8.421875 14.75 8.546875 14.84375 8.421875 C 14.484375 8.09375 14.515625 7.34375 14.34375 7.015625 C 14.171875 6.6875 13.96875 6.4375 13.550781 6.421875 C 13.132812 6.40625 12.96875 6.4375 12.71875 6.765625 C 12.53125 6.75 12.496094 6.96875 12.496094 6.96875 C 12.496094 6.96875 12.328125 6.984375 12.0625 7.03125 C 11.796875 7.078125 11.625 7.40625 11.734375 7.703125 C 11.796875 7.53125 12.140625 7.5 12.421875 7.46875 C 12.703125 7.4375 12.90625 7.78125 12.796875 7.890625 C 12.6875 8 12.65625 8.140625 12.59375 8.40625 C 12.53125 8.671875 12.070312 8.796875 12.070312 8.796875 C 12.070312 8.796875 12.203125 8.9375 12.40625 8.921875 C 12.296875 9.09375 11.96875 9.328125 11.734375 9.359375 C 11.875 9.53125 12.09375 9.5 12.09375 9.5 C 12.09375 9.5 11.96875 9.84375 11.734375 10.046875 C 11.734375 10.046875 10.867188 10.269531 10.703125 10.171875 C 10.390625 9.984375 9.921875 10.390625 9.765625 10.21875 C 9.609375 10.046875 10.046875 9.953125 10.15625 9.359375 C 10.21875 9.027344 9.953125 8.640625 9.453125 8.453125 C 8.953125 8.265625 7.15625 7.765625 6.78125 7.59375 C 6.40625 7.421875 6.171875 7.375 6.046875 7.46875 C 3.875 7.046875 2.6875 6.40625 2.320312 6.359375 C 1.953125 6.3125 1.84375 6.921875 2.390625 7.171875 C 2.234375 7.34375 2.328125 7.8125 2.796875 7.84375 C 2.609375 8.046875 2.84375 8.46875 3.6875 8.65625 C 3.578125 8.875 3.8125 9.390625 4.828125 9.5625 C 4.71875 9.875 5.0625 10.203125 5.828125 10.296875 C 5.6875 10.515625 5.953125 10.859375 6.6875 10.9375 C 6.453125 11.296875 7.078125 11.546875 7.875 11.53125 C 7.609375 11.6875 7.71875 12.125 8.09375 12.203125 C 7.96875 12.453125 8.3125 12.875 8.71875 12.8125 C 8.75 13.015625 9.03125 13.171875 9.296875 12.984375 C 9.296875 13.25 9.875 13.546875 10.046875 13.203125 C 10.179688 13.332031 10.554688 13.417969 10.808594 13.160156 C 10.820312 13.222656 10.835938 13.285156 10.851562 13.34375 C 10.746094 13.65625 10.523438 13.988281 10.15625 14.265625 C 9.765625 14.5625 9.5625 15.046875 9.578125 15.359375 C 9.59375 15.671875 9.46875 15.90625 9.28125 15.984375 L 9.453125 16.046875 C 9.453125 16.046875 9.171875 16.421875 9.015625 16.453125 C 8.859375 16.484375 8.109375 16.390625 7.96875 16.53125 C 7.828125 16.671875 7.546875 17.234375 7.734375 17.34375 C 7.921875 17.453125 8 17.640625 8.109375 17.75 C 8.21875 17.859375 8.8125 17.6875 8.9375 17.578125 C 9.0625 17.46875 9.046875 16.921875 9.15625 16.859375 C 9.265625 16.796875 10.296875 16.328125 10.296875 16.328125 L 10.3125 16.5625 C 10.3125 16.5625 10.484375 16.359375 10.625 16.296875 C 10.765625 16.234375 10.796875 15.9375 10.875 15.796875 C 10.945312 15.664062 11.457031 15.210938 12.148438 15.066406 C 12.234375 15.113281 12.09375 15.21875 12.09375 15.21875 C 11.820312 15.15625 11.703125 15.515625 11.71875 15.65625 C 11.421875 15.6875 10.734375 16.640625 10.625 16.96875 C 10.515625 17.296875 10.609375 17.4375 10.75 17.421875 C 10.734375 17.652344 10.921875 17.851562 11.125 17.785156 C 11.140625 18.027344 11.28125 18.1875 11.453125 18.171875 C 11.484375 18.4375 11.640625 18.589844 11.828125 18.546875 C 11.859375 18.8125 12.0625 18.953125 12.328125 18.875 C 12.34375 19.234375 12.609375 19.578125 12.984375 19.1875 C 13.046875 19.90625 13.9375 20.140625 14.03125 19.234375 C 14.359375 19.53125 14.78125 19.375 14.78125 18.875 C 14.96875 19.015625 15.234375 18.828125 15.25 18.546875 C 15.4375 18.625 15.59375 18.4375 15.59375 18.125 C 15.796875 18.234375 15.941406 18.007812 15.925781 17.769531 C 16.140625 17.84375 16.34375 17.625 16.300781 17.375 C 16.503906 17.453125 16.640625 17.128906 16.394531 16.734375 C 16.003906 16.109375 15.390625 15.65625 15.390625 15.65625 C 15.390625 15.65625 15.488281 15.28125 14.988281 15.210938 C 14.917969 15.199219 14.84375 15.109375 14.917969 15.066406 C 15.605469 15.214844 16.109375 15.664062 16.183594 15.796875 C 16.261719 15.9375 16.292969 16.234375 16.433594 16.296875 C 16.574219 16.359375 16.746094 16.5625 16.746094 16.5625 L 16.761719 16.328125 C 16.761719 16.328125 17.792969 16.796875 17.902344 16.859375 C 18.007812 16.921875 17.996094 17.464844 18.121094 17.578125 C 18.246094 17.6875 18.839844 17.859375 18.949219 17.746094 C 19.058594 17.636719 19.136719 17.449219 19.324219 17.339844 C 19.511719 17.230469 19.230469 16.667969 19.089844 16.527344 C 18.949219 16.390625 18.199219 16.484375 18.042969 16.453125 C 17.886719 16.417969 17.605469 16.046875 17.605469 16.046875 L 17.777344 15.984375 C 17.589844 15.90625 17.464844 15.671875 17.480469 15.359375 C 17.492188 15.046875 17.292969 14.5625 16.902344 14.265625 C 16.542969 13.992188 16.320312 13.667969 16.214844 13.363281 C 16.230469 13.292969 16.25 13.226562 16.261719 13.160156 C 16.515625 13.414062 16.890625 13.332031 17.023438 13.199219 C 17.195312 13.542969 17.773438 13.246094 17.773438 12.980469 C 18.039062 13.167969 18.320312 13.011719 18.351562 12.808594 C 18.757812 12.871094 19.101562 12.449219 18.976562 12.199219 C 19.351562 12.121094 19.460938 11.683594 19.195312 11.527344 C 19.992188 11.542969 20.617188 11.296875 20.382812 10.933594 C 21.117188 10.855469 21.382812 10.511719 21.242188 10.292969 C 22.007812 10.199219 22.351562 9.871094 22.242188 9.558594 C 23.257812 9.386719 23.492188 8.871094 23.382812 8.652344 C 24.226562 8.464844 24.460938 8.046875 24.273438 7.84375 C 24.742188 7.808594 24.835938 7.339844 24.679688 7.171875 C 25.226562 6.921875 25.113281 6.3125 24.75 6.359375 Z M 24.75 6.359375 "/>
<path fill-rule="nonzero" fill="rgb(100%, 100%, 100%)" fill-opacity="1" d="M 10.355469 11.625 C 10.359375 12.378906 10.535156 13.039062 10.804688 13.609375 C 10.960938 13.941406 11.144531 14.242188 11.351562 14.519531 L 11.804688 15.054688 C 11.96875 15.230469 12.140625 15.386719 12.308594 15.53125 L 12.761719 15.890625 C 12.953125 16.035156 13.140625 16.160156 13.304688 16.265625 C 13.386719 16.316406 13.464844 16.363281 13.535156 16.40625 C 13.605469 16.363281 13.679688 16.316406 13.761719 16.265625 C 13.914062 16.167969 14.085938 16.054688 14.261719 15.921875 L 14.71875 15.566406 C 14.902344 15.414062 15.085938 15.242188 15.265625 15.050781 L 15.71875 14.515625 C 15.925781 14.242188 16.109375 13.9375 16.261719 13.609375 C 16.53125 13.035156 16.707031 12.378906 16.714844 11.625 Z M 10.355469 11.625 "/>
<path fill-rule="nonzero" fill="rgb(65.489197%, 0%, 19.999695%)" fill-opacity="1" d="M 10.804688 11.625 L 10.804688 13.609375 C 10.960938 13.941406 11.144531 14.242188 11.351562 14.519531 L 11.351562 11.625 L 11.804688 11.625 L 11.804688 15.054688 C 11.96875 15.230469 12.140625 15.386719 12.308594 15.53125 L 12.308594 11.625 L 12.761719 11.625 L 12.761719 15.890625 C 12.953125 16.035156 13.140625 16.160156 13.304688 16.265625 L 13.304688 11.625 L 13.761719 11.625 L 13.761719 16.265625 C 13.914062 16.167969 14.085938 16.054688 14.261719 15.921875 L 14.261719 11.625 L 14.71875 11.625 L 14.71875 15.566406 C 14.898438 15.410156 15.085938 15.238281 15.265625 15.050781 L 15.265625 11.625 L 15.71875 11.625 L 15.71875 14.511719 C 15.921875 14.242188 16.105469 13.9375 16.261719 13.609375 L 16.261719 11.625 Z M 10.804688 11.625 "/>
<path fill-rule="nonzero" fill="rgb(9.01947%, 14.901733%, 40.783691%)" fill-opacity="1" d="M 13.535156 9.390625 C 13.535156 9.390625 12.753906 9.796875 11.898438 9.796875 C 11.042969 9.796875 10.351562 9.40625 10.351562 9.40625 L 10.351562 11.578125 C 10.351562 11.652344 10.359375 11.722656 10.363281 11.796875 L 16.707031 11.796875 C 16.710938 11.722656 16.71875 11.652344 16.71875 11.578125 L 16.71875 9.40625 C 16.71875 9.40625 16.023438 9.796875 15.171875 9.796875 C 14.316406 9.796875 13.535156 9.390625 13.535156 9.390625 Z M 13.535156 9.390625 "/>
</svg>