<svg xmlns="http://www.w3.org/2000/svg" xmlns:xlink="http://www.w3.org/1999/xlink" viewBox="0 0 27 27">
<path fill-rule="nonzero" fill="rgb(92.939758%, 16.078186%, 22.3526%)" fill-opacity="1" d="M 24 3.75 L 13.5 3.75 L 13.5 12.75 L 0 12.75 L 0 20.25 C 0 21.90625 1.34375 23.25 3 23.25 L 24 23.25 C 25.65625 23.25 27 21.90625 27 20.25 L 27 6.75 C 27 5.09375 25.65625 3.75 24 3.75 Z M 24 3.75 "/>
<path fill-rule="nonzero" fill="rgb(93.331909%, 93.331909%, 93.331909%)" fill-opacity="1" d="M 0 12 L 14.25 12 L 14.25 13.5 L 0 13.5 Z M 0 12 "/>
<path fill-rule="nonzero" fill="rgb(0%, 13.725281%, 58.430481%)" fill-opacity="1" d="M 4.5 12.75 L 0 12.75 L 0 6.75 C 0 5.09375 1.34375 3.75 3 3.75 L 4.5 3.75 Z M 4.5 12.75 "/>
<path fill-rule="nonzero" fill="rgb(93.331909%, 93.331909%, 93.331909%)" fill-opacity="1" d="M 4.5 3.75 L 9 3.75 L 9 12.75 L 4.5 12.75 Z M 12.75 3.75 L 14.25 3.75 L 14.25 13.5 L 12.75 13.5 Z M 12.75 3.75 "/>
<path fill-rule="nonzero" fill="rgb(92.939758%, 16.078186%, 22.3526%)" fill-opacity="1" d="M 9 3.75 L 13.5 3.75 L 13.5 12.75 L 9 12.75 Z M 9 3.75 "/>
<path fill-rule="nonzero" fill="rgb(100%, 100%, 100%)" fill-opacity="1" d="M 18.285156 16.738281 L 22.964844 16.738281 L 20.625 14.398438 Z M 22.964844 10.5 L 18.285156 10.5 L 20.625 12.839844 Z M 23.746094 15.960938 L 23.746094 11.28125 L 21.40625 13.621094 Z M 17.503906 11.28125 L 17.503906 15.960938 L 19.84375 13.621094 Z M 17.503906 11.28125 "/>
</svg>