<svg xmlns="http://www.w3.org/2000/svg" xmlns:xlink="http://www.w3.org/1999/xlink" viewBox="0 0 27 27">
<path fill-rule="nonzero" fill="rgb(14.117432%, 29.019165%, 64.704895%)" fill-opacity="1" d="M 27 20.25 C 27 21.90625 25.65625 23.25 24 23.25 L 3 23.25 C 1.34375 23.25 0 21.90625 0 20.25 L 0 6.75 C 0 5.09375 1.34375 3.75 3 3.75 L 24 3.75 C 25.65625 3.75 27 5.09375 27 6.75 Z M 27 20.25 "/>
<path fill-rule="nonzero" fill="rgb(81.567383%, 65.097046%, 31.37207%)" fill-opacity="1" d="M 12.757812 10.273438 L 12.917969 10.269531 C 13.007812 10.363281 13.105469 10.457031 13.199219 10.550781 C 13.195312 10.625 13.226562 10.675781 13.300781 10.699219 C 13.234375 10.714844 13.167969 10.722656 13.101562 10.730469 C 13.074219 10.765625 13.039062 10.796875 13 10.816406 C 13.011719 10.921875 13.109375 10.984375 13.175781 11.058594 C 13.246094 11.0625 13.324219 11.0625 13.378906 11.117188 L 13.53125 11.121094 L 13.535156 11.320312 C 13.597656 11.316406 13.679688 11.328125 13.695312 11.246094 C 13.808594 11.246094 13.921875 11.246094 14.035156 11.246094 C 14.0625 11.308594 14.132812 11.3125 14.1875 11.339844 L 14.214844 11.480469 C 14.273438 11.40625 14.328125 11.3125 14.429688 11.308594 C 14.464844 11.351562 14.496094 11.398438 14.53125 11.441406 C 14.589844 11.445312 14.652344 11.453125 14.675781 11.515625 L 14.78125 11.519531 C 14.78125 11.644531 14.773438 11.769531 14.789062 11.894531 L 14.851562 11.933594 C 14.851562 12.035156 14.851562 12.132812 14.851562 12.234375 C 14.914062 12.289062 15.019531 12.335938 15.074219 12.242188 L 15.164062 12.242188 C 15.203125 12.296875 15.25 12.347656 15.304688 12.382812 C 15.308594 12.480469 15.304688 12.582031 15.308594 12.679688 C 15.4375 12.726562 15.355469 12.902344 15.378906 13.007812 C 15.445312 13.054688 15.496094 13.113281 15.527344 13.1875 C 15.546875 13.152344 15.566406 13.121094 15.585938 13.089844 L 15.8125 13.09375 C 15.84375 13.132812 15.878906 13.171875 15.914062 13.210938 L 15.976562 13.277344 C 16.03125 13.292969 16.082031 13.308594 16.125 13.34375 L 16.257812 13.351562 C 16.292969 13.433594 16.382812 13.421875 16.453125 13.433594 L 16.355469 13.507812 C 16.355469 13.671875 16.367188 13.839844 16.347656 14 L 16.289062 14.035156 C 16.289062 14.117188 16.273438 14.203125 16.21875 14.269531 L 16.355469 14.265625 L 16.359375 14.34375 L 16.425781 14.34375 C 16.425781 14.324219 16.429688 14.285156 16.433594 14.265625 L 16.550781 14.265625 L 16.558594 14.339844 C 16.628906 14.355469 16.734375 14.316406 16.773438 14.398438 C 16.957031 14.402344 17.140625 14.398438 17.328125 14.398438 L 17.335938 14.496094 C 17.363281 14.527344 17.390625 14.5625 17.417969 14.597656 C 17.480469 14.597656 17.542969 14.597656 17.605469 14.597656 L 17.601562 14.707031 C 17.65625 14.757812 17.722656 14.804688 17.800781 14.804688 L 17.804688 14.667969 L 17.925781 14.667969 L 17.933594 14.59375 C 18.019531 14.597656 18.136719 14.570312 18.15625 14.6875 L 18.226562 14.578125 C 18.285156 14.597656 18.335938 14.636719 18.382812 14.671875 L 18.382812 14.773438 C 18.484375 14.792969 18.445312 14.902344 18.457031 14.976562 L 18.328125 15.074219 C 18.328125 15.179688 18.328125 15.28125 18.328125 15.386719 L 18.203125 15.390625 L 18.203125 15.746094 C 18.128906 15.804688 18.066406 15.867188 18 15.929688 L 18 16.148438 C 17.949219 16.1875 17.90625 16.226562 17.859375 16.265625 L 17.859375 16.359375 C 17.808594 16.40625 17.75 16.441406 17.679688 16.449219 C 17.648438 16.488281 17.617188 16.527344 17.585938 16.566406 C 17.5625 16.570312 17.519531 16.582031 17.5 16.589844 L 17.605469 16.652344 C 17.605469 16.796875 17.605469 16.9375 17.605469 17.082031 C 17.519531 17.152344 17.40625 17.148438 17.300781 17.148438 L 17.191406 17.285156 C 17.109375 17.28125 17.054688 17.335938 17.007812 17.390625 C 17.007812 17.457031 17.011719 17.527344 17.011719 17.59375 C 17.132812 17.65625 17.179688 17.832031 17.335938 17.828125 C 17.335938 17.941406 17.355469 18.070312 17.246094 18.144531 C 17.199219 18.144531 17.148438 18.144531 17.101562 18.144531 C 17.027344 18.253906 16.863281 18.179688 16.753906 18.195312 L 16.753906 18.074219 L 16.648438 18.070312 C 16.613281 18.109375 16.578125 18.152344 16.542969 18.191406 C 16.480469 18.199219 16.429688 18.230469 16.382812 18.265625 C 16.304688 18.273438 16.230469 18.269531 16.160156 18.269531 L 16.152344 18.347656 L 15.984375 18.34375 C 15.9375 18.390625 15.902344 18.445312 15.894531 18.511719 L 15.78125 18.613281 C 15.785156 18.691406 15.785156 18.777344 15.699219 18.816406 C 15.71875 18.90625 15.652344 19.066406 15.78125 19.089844 L 15.777344 19.191406 C 15.601562 19.195312 15.425781 19.191406 15.253906 19.195312 L 15.25 19.019531 C 15.125 18.980469 15.203125 18.820312 15.179688 18.726562 L 15.105469 18.722656 L 15.105469 18.605469 C 15.046875 18.597656 14.984375 18.609375 14.960938 18.542969 L 14.855469 18.542969 L 14.847656 18.402344 L 14.53125 18.402344 C 14.527344 18.425781 14.523438 18.476562 14.523438 18.5 C 14.492188 18.53125 14.460938 18.566406 14.433594 18.597656 L 14.273438 18.597656 C 14.242188 18.640625 14.214844 18.679688 14.1875 18.722656 C 14.109375 18.722656 14.03125 18.722656 13.953125 18.726562 C 13.921875 18.761719 13.894531 18.792969 13.859375 18.820312 L 13.855469 18.917969 C 13.796875 18.925781 13.730469 18.925781 13.714844 18.996094 L 13.558594 18.996094 C 13.523438 19.039062 13.492188 19.082031 13.460938 19.125 L 13.171875 19.125 C 13.128906 19.234375 12.992188 19.179688 12.898438 19.199219 C 12.859375 19.253906 12.8125 19.300781 12.757812 19.335938 C 12.757812 19.398438 12.753906 19.457031 12.753906 19.519531 L 12.679688 19.527344 L 12.679688 19.703125 C 12.632812 19.738281 12.59375 19.773438 12.550781 19.804688 C 12.554688 19.964844 12.554688 20.125 12.550781 20.285156 L 12.679688 20.386719 L 12.679688 20.808594 C 12.648438 20.839844 12.621094 20.867188 12.589844 20.898438 L 12.480469 20.898438 L 12.480469 21.011719 L 12.394531 21.09375 C 12.277344 21.09375 12.160156 21.09375 12.042969 21.097656 C 11.992188 21.164062 11.933594 21.230469 11.878906 21.296875 L 11.644531 21.292969 C 11.632812 21.234375 11.621094 21.175781 11.578125 21.125 C 11.574219 20.96875 11.578125 20.816406 11.578125 20.660156 C 11.640625 20.597656 11.707031 20.53125 11.773438 20.46875 L 11.773438 20.265625 L 11.707031 20.230469 C 11.695312 20.019531 11.707031 19.804688 11.703125 19.59375 L 11.585938 19.59375 C 11.578125 19.527344 11.589844 19.441406 11.5 19.433594 C 11.5 19.273438 11.5 19.117188 11.503906 18.957031 L 11.386719 18.855469 C 11.375 18.792969 11.375 18.722656 11.304688 18.699219 L 11.300781 18.5625 C 11.21875 18.527344 11.234375 18.390625 11.320312 18.371094 C 11.246094 18.308594 11.179688 18.238281 11.109375 18.171875 L 11.105469 18.082031 C 11.023438 18.066406 10.949219 18.027344 10.871094 18.003906 C 10.847656 17.949219 10.789062 17.941406 10.738281 17.941406 L 10.683594 17.882812 C 10.636719 17.878906 10.59375 17.859375 10.558594 17.820312 L 10.464844 17.820312 C 10.4375 17.695312 10.378906 17.578125 10.394531 17.445312 C 10.363281 17.417969 10.332031 17.386719 10.304688 17.351562 C 10.140625 17.347656 9.980469 17.355469 9.820312 17.351562 C 9.777344 17.351562 9.742188 17.335938 9.714844 17.308594 C 9.679688 17.269531 9.640625 17.234375 9.601562 17.203125 C 9.601562 17.09375 9.605469 16.984375 9.597656 16.878906 C 9.570312 16.804688 9.523438 16.738281 9.476562 16.675781 L 9.476562 16.578125 L 9.402344 16.566406 L 9.402344 16.464844 C 9.324219 16.417969 9.355469 16.320312 9.34375 16.246094 L 9.152344 16.242188 L 9.152344 16.140625 L 9.054688 16.050781 L 8.949219 16.042969 L 8.949219 15.941406 C 8.890625 15.902344 8.871094 15.84375 8.875 15.777344 L 9.007812 15.769531 C 9.007812 15.652344 9.007812 15.53125 9 15.414062 C 8.960938 15.339844 8.929688 15.257812 8.867188 15.203125 L 8.804688 15.125 L 8.710938 15.117188 L 8.628906 15.03125 L 8.625 14.886719 C 8.527344 14.867188 8.5625 14.757812 8.550781 14.683594 C 8.433594 14.605469 8.539062 14.460938 8.570312 14.363281 C 8.59375 14.335938 8.617188 14.308594 8.644531 14.285156 C 8.6875 14.242188 8.726562 14.191406 8.765625 14.140625 L 8.933594 14.140625 L 9.039062 14.273438 L 9.152344 14.265625 L 9.152344 14.398438 C 9.367188 14.398438 9.582031 14.394531 9.796875 14.398438 C 9.804688 14.335938 9.792969 14.257812 9.871094 14.246094 C 9.875 14.121094 9.875 14 9.878906 13.875 C 9.953125 13.871094 10.039062 13.886719 10.09375 13.820312 L 10.195312 13.8125 L 10.195312 13.613281 C 10.300781 13.613281 10.40625 13.621094 10.507812 13.609375 L 10.542969 13.535156 C 10.613281 13.53125 10.65625 13.566406 10.675781 13.632812 C 10.714844 13.585938 10.753906 13.542969 10.792969 13.496094 C 10.859375 13.484375 10.917969 13.453125 10.960938 13.402344 C 11.03125 13.34375 11.117188 13.316406 11.195312 13.273438 L 11.117188 13.199219 C 11.113281 13.105469 11.054688 13.042969 10.980469 12.992188 C 10.980469 12.902344 10.980469 12.8125 10.980469 12.722656 C 11.035156 12.671875 11.089844 12.621094 11.140625 12.566406 L 11.28125 12.566406 C 11.363281 12.453125 11.464844 12.359375 11.578125 12.269531 L 11.578125 12.167969 C 11.601562 12.167969 11.65625 12.167969 11.683594 12.167969 C 11.695312 12.234375 11.75 12.242188 11.804688 12.242188 C 11.832031 12.207031 11.863281 12.175781 11.894531 12.144531 L 11.902344 12.0625 C 12.003906 11.992188 11.933594 11.84375 11.957031 11.738281 C 12.007812 11.691406 12.078125 11.652344 12.101562 11.578125 C 12.082031 11.507812 12.007812 11.472656 11.960938 11.421875 C 11.996094 11.253906 11.84375 11.179688 11.757812 11.070312 L 11.640625 11.054688 C 11.628906 11 11.632812 10.933594 11.578125 10.898438 C 11.578125 10.820312 11.578125 10.742188 11.578125 10.660156 C 11.746094 10.660156 11.914062 10.671875 12.078125 10.65625 L 12.113281 10.597656 C 12.183594 10.554688 12.261719 10.523438 12.324219 10.46875 C 12.394531 10.464844 12.464844 10.464844 12.535156 10.464844 C 12.566406 10.421875 12.601562 10.378906 12.636719 10.335938 L 12.75 10.339844 C 12.753906 10.324219 12.757812 10.289062 12.757812 10.273438 Z M 12.757812 10.273438 "/>
<path fill-rule="nonzero" fill="rgb(92.939758%, 92.939758%, 92.939758%)" fill-opacity="1" d="M 21.015625 6.910156 L 20.726562 7.792969 L 19.808594 7.785156 L 20.5625 8.332031 L 20.269531 9.203125 L 21.023438 8.65625 L 21.757812 9.203125 L 21.472656 8.316406 L 22.21875 7.785156 L 21.289062 7.785156 Z M 18.011719 6.097656 L 17.722656 6.984375 L 16.804688 6.976562 L 17.558594 7.523438 L 17.265625 8.390625 L 18.015625 7.84375 L 18.753906 8.390625 L 18.46875 7.507812 L 19.214844 6.976562 L 18.285156 6.976562 Z M 15.003906 5.703125 L 14.714844 6.589844 L 13.796875 6.578125 L 14.550781 7.125 L 14.257812 7.996094 L 15.011719 7.449219 L 15.746094 7.996094 L 15.460938 7.109375 L 16.210938 6.578125 L 15.277344 6.578125 Z M 5.984375 6.910156 L 6.273438 7.792969 L 7.191406 7.785156 L 6.4375 8.332031 L 6.730469 9.203125 L 5.976562 8.65625 L 5.238281 9.203125 L 5.527344 8.316406 L 4.777344 7.785156 L 5.710938 7.785156 Z M 8.992188 6.097656 L 9.277344 6.984375 L 10.195312 6.976562 L 9.441406 7.523438 L 9.734375 8.390625 L 8.984375 7.84375 L 8.246094 8.390625 L 8.535156 7.507812 L 7.785156 6.976562 L 8.714844 6.976562 Z M 11.996094 5.703125 L 12.285156 6.589844 L 13.203125 6.578125 L 12.449219 7.125 L 12.742188 7.996094 L 11.988281 7.449219 L 11.253906 7.996094 L 11.539062 7.109375 L 10.792969 6.578125 L 11.722656 6.578125 Z M 11.996094 5.703125 "/>
</svg>