<svg xmlns="http://www.w3.org/2000/svg" xmlns:xlink="http://www.w3.org/1999/xlink" viewBox="0 0 27 27">
<path fill-rule="nonzero" fill="rgb(93.331909%, 93.331909%, 93.331909%)" fill-opacity="1" d="M 27 20.25 C 27 21.90625 25.65625 23.25 24 23.25 L 3 23.25 C 1.34375 23.25 0 21.90625 0 20.25 L 0 6.75 C 0 5.09375 1.34375 3.75 3 3.75 L 24 3.75 C 25.65625 3.75 27 5.09375 27 6.75 Z M 27 20.25 "/>
<path fill-rule="nonzero" fill="rgb(83.135986%, 18.03894%, 6.666565%)" fill-opacity="1" d="M 6.582031 6.097656 L 7 6.097656 L 7.617188 7.917969 L 8.230469 6.097656 L 8.648438 6.097656 L 8.648438 8.25 L 8.367188 8.25 L 8.367188 6.980469 C 8.367188 6.9375 8.371094 6.863281 8.371094 6.761719 C 8.375 6.660156 8.375 6.550781 8.375 6.433594 L 7.757812 8.25 L 7.472656 8.25 L 6.851562 6.433594 L 6.851562 6.5 C 6.851562 6.554688 6.851562 6.632812 6.855469 6.742188 C 6.859375 6.851562 6.859375 6.929688 6.859375 6.980469 L 6.859375 8.25 L 6.582031 8.25 Z M 10.015625 6.097656 L 10.34375 6.097656 L 11.125 8.25 L 10.804688 8.25 L 10.582031 7.605469 L 9.738281 7.605469 L 9.503906 8.25 L 9.207031 8.25 Z M 10.5 7.367188 L 10.167969 6.417969 L 9.824219 7.367188 Z M 11 6.097656 L 11.339844 6.097656 L 11.960938 7.132812 L 12.578125 6.097656 L 12.921875 6.097656 L 12.105469 7.382812 L 12.105469 8.25 L 11.816406 8.25 L 11.816406 7.382812 Z M 14.941406 6.40625 C 15.082031 6.597656 15.15625 6.839844 15.15625 7.136719 C 15.15625 7.457031 15.074219 7.726562 14.910156 7.9375 C 14.71875 8.1875 14.445312 8.3125 14.089844 8.3125 C 13.761719 8.3125 13.5 8.203125 13.308594 7.984375 C 13.140625 7.773438 13.058594 7.507812 13.058594 7.183594 C 13.058594 6.894531 13.128906 6.644531 13.273438 6.4375 C 13.460938 6.171875 13.734375 6.039062 14.097656 6.039062 C 14.476562 6.039062 14.757812 6.160156 14.941406 6.40625 Z M 14.683594 7.777344 C 14.796875 7.59375 14.855469 7.382812 14.855469 7.140625 C 14.855469 6.890625 14.789062 6.683594 14.65625 6.53125 C 14.523438 6.375 14.34375 6.300781 14.113281 6.300781 C 13.890625 6.300781 13.710938 6.375 13.566406 6.527344 C 13.425781 6.683594 13.359375 6.90625 13.359375 7.207031 C 13.359375 7.445312 13.417969 7.644531 13.539062 7.808594 C 13.660156 7.972656 13.855469 8.054688 14.125 8.054688 C 14.382812 8.054688 14.570312 7.960938 14.683594 7.777344 Z M 17.066406 6.097656 L 17.066406 6.355469 L 16.339844 6.355469 L 16.339844 8.25 L 16.046875 8.25 L 16.046875 6.355469 L 15.320312 6.355469 L 15.320312 6.097656 Z M 19.019531 6.097656 L 19.019531 6.355469 L 18.292969 6.355469 L 18.292969 8.25 L 17.996094 8.25 L 17.996094 6.355469 L 17.273438 6.355469 L 17.273438 6.097656 Z M 19.492188 6.097656 L 21.054688 6.097656 L 21.054688 6.363281 L 19.777344 6.363281 L 19.777344 7.015625 L 20.957031 7.015625 L 20.957031 7.265625 L 19.777344 7.265625 L 19.777344 7.996094 L 21.078125 7.996094 L 21.078125 8.25 L 19.492188 8.25 Z M 19.492188 6.097656 "/>
<path fill-rule="nonzero" fill="rgb(13.725281%, 12.156677%, 12.548828%)" fill-opacity="1" d="M 13.5 18.683594 C 13.449219 18.683594 13.40625 18.640625 13.40625 18.589844 C 13.40625 18.5625 13.394531 17.933594 12.75 17.933594 L 11.25 17.933594 C 10.421875 17.933594 9.863281 17.292969 9.863281 16.339844 L 9.863281 10.003906 C 9.863281 9.949219 9.90625 9.910156 9.957031 9.910156 L 17.027344 9.910156 C 17.078125 9.910156 17.121094 9.949219 17.121094 10.003906 L 17.121094 16.339844 C 17.121094 17.292969 16.570312 17.933594 15.75 17.933594 L 14.25 17.933594 C 13.605469 17.933594 13.59375 18.5625 13.59375 18.589844 C 13.59375 18.640625 13.550781 18.683594 13.5 18.683594 Z M 13.5 18.683594 "/>
<path fill-rule="nonzero" fill="rgb(93.331909%, 93.331909%, 93.331909%)" fill-opacity="1" d="M 10.050781 10.097656 L 10.050781 16.339844 C 10.050781 17.039062 10.421875 17.746094 11.25 17.746094 L 12.75 17.746094 C 13.164062 17.746094 13.390625 17.957031 13.5 18.1875 C 13.609375 17.957031 13.835938 17.746094 14.25 17.746094 L 15.75 17.746094 C 16.46875 17.746094 16.933594 17.191406 16.933594 16.339844 L 16.933594 10.097656 Z M 10.050781 10.097656 "/>
<path fill-rule="nonzero" fill="rgb(13.33313%, 39.99939%, 59.999084%)" fill-opacity="1" d="M 15.375 12.394531 C 15.375 12.796875 15.039062 13.125 14.625 13.125 C 14.210938 13.125 13.875 12.796875 13.875 12.394531 C 13.875 11.992188 14.210938 11.664062 14.625 11.664062 C 15.039062 11.664062 15.375 11.992188 15.375 12.394531 Z M 15.375 12.394531 "/>
<path fill-rule="nonzero" fill="rgb(13.33313%, 39.99939%, 59.999084%)" fill-opacity="1" d="M 15.375 13.519531 C 15.375 13.921875 15.039062 14.25 14.625 14.25 C 14.210938 14.25 13.875 13.921875 13.875 13.519531 C 13.875 13.117188 14.210938 12.789062 14.625 12.789062 C 15.039062 12.789062 15.375 13.117188 15.375 13.519531 Z M 15.375 13.519531 "/>
<path fill-rule="nonzero" fill="rgb(13.33313%, 39.99939%, 59.999084%)" fill-opacity="1" d="M 14.25 12.394531 C 14.25 12.796875 13.914062 13.125 13.5 13.125 C 13.085938 13.125 12.75 12.796875 12.75 12.394531 C 12.75 11.992188 13.085938 11.664062 13.5 11.664062 C 13.914062 11.664062 14.25 11.992188 14.25 12.394531 Z M 14.25 12.394531 "/>
<path fill-rule="nonzero" fill="rgb(13.33313%, 39.99939%, 59.999084%)" fill-opacity="1" d="M 14.25 13.519531 C 14.25 13.921875 13.914062 14.25 13.5 14.25 C 13.085938 14.25 12.75 13.921875 12.75 13.519531 C 12.75 13.117188 13.085938 12.789062 13.5 12.789062 C 13.914062 12.789062 14.25 13.117188 14.25 13.519531 Z M 14.25 13.519531 "/>
<path fill-rule="nonzero" fill="rgb(13.33313%, 39.99939%, 59.999084%)" fill-opacity="1" d="M 13.125 12.394531 C 13.125 12.796875 12.789062 13.125 12.375 13.125 C 11.960938 13.125 11.625 12.796875 11.625 12.394531 C 11.625 11.992188 11.960938 11.664062 12.375 11.664062 C 12.789062 11.664062 13.125 11.992188 13.125 12.394531 Z M 13.125 12.394531 "/>
<path fill-rule="nonzero" fill="rgb(13.33313%, 39.99939%, 59.999084%)" fill-opacity="1" d="M 13.125 13.519531 C 13.125 13.921875 12.789062 14.25 12.375 14.25 C 11.960938 14.25 11.625 13.921875 11.625 13.519531 C 11.625 13.117188 11.960938 12.789062 12.375 12.789062 C 12.789062 12.789062 13.125 13.117188 13.125 13.519531 Z M 13.125 13.519531 "/>
<path fill-rule="nonzero" fill="rgb(9.01947%, 9.01947%, 58.822632%)" fill-opacity="1" d="M 16.5 12.394531 C 16.5 12.164062 16.382812 11.964844 16.210938 11.832031 C 16.382812 11.699219 16.5 11.5 16.5 11.269531 C 16.5 10.867188 16.164062 10.539062 15.75 10.539062 C 15.53125 10.539062 15.335938 10.632812 15.199219 10.78125 C 15.0625 10.613281 14.859375 10.5 14.625 10.5 C 14.394531 10.5 14.199219 10.605469 14.0625 10.765625 C 13.921875 10.605469 13.726562 10.5 13.5 10.5 C 13.273438 10.5 13.074219 10.605469 12.9375 10.769531 C 12.800781 10.605469 12.601562 10.5 12.375 10.5 C 12.148438 10.5 11.949219 10.605469 11.8125 10.769531 C 11.675781 10.605469 11.476562 10.5 11.25 10.5 C 10.835938 10.5 10.5 10.835938 10.5 11.25 C 10.5 11.476562 10.605469 11.675781 10.765625 11.8125 C 10.605469 11.949219 10.5 12.148438 10.5 12.375 C 10.5 12.601562 10.605469 12.800781 10.765625 12.9375 C 10.605469 13.074219 10.5 13.273438 10.5 13.5 C 10.5 13.914062 10.835938 14.4375 11.25 14.4375 L 15.75 14.4375 C 16.164062 14.4375 16.5 14.015625 16.5 13.613281 C 16.5 13.382812 16.382812 13.136719 16.210938 13.003906 C 16.382812 12.871094 16.5 12.625 16.5 12.394531 Z M 16.5 12.394531 "/>
<path fill-rule="nonzero" fill="rgb(83.135986%, 18.03894%, 6.666565%)" fill-opacity="1" d="M 16.5 14.269531 C 16.5 14.125 16.453125 13.988281 16.378906 13.875 L 10.621094 13.875 C 10.542969 13.988281 10.5 14.125 10.5 14.269531 C 10.5 14.496094 10.609375 14.695312 10.777344 14.832031 C 10.609375 14.964844 10.5 15.164062 10.5 15.394531 C 10.5 15.621094 10.609375 15.820312 10.777344 15.957031 C 10.609375 16.089844 10.5 16.289062 10.5 16.519531 C 10.5 16.921875 10.835938 17.25 11.25 17.25 C 11.476562 17.25 11.675781 17.152344 11.8125 16.996094 C 11.949219 17.152344 12.148438 17.25 12.375 17.25 C 12.601562 17.25 12.800781 17.152344 12.9375 16.996094 C 13.074219 17.152344 13.273438 17.25 13.5 17.25 C 13.726562 17.25 13.925781 17.152344 14.0625 16.996094 C 14.199219 17.152344 14.398438 17.25 14.625 17.25 C 14.851562 17.25 15.050781 17.152344 15.1875 16.996094 C 15.324219 17.152344 15.523438 17.25 15.75 17.25 C 16.164062 17.25 16.5 16.921875 16.5 16.519531 C 16.5 16.289062 16.390625 16.089844 16.222656 15.957031 C 16.390625 15.824219 16.5 15.621094 16.5 15.394531 C 16.5 15.164062 16.390625 14.964844 16.222656 14.832031 C 16.390625 14.699219 16.5 14.496094 16.5 14.269531 Z M 16.5 14.269531 "/>
<path fill-rule="nonzero" fill="rgb(93.331909%, 93.331909%, 93.331909%)" fill-opacity="1" d="M 13.5 12.75 C 12.800781 12.75 12.21875 12.269531 12.050781 11.625 C 12.023438 11.746094 12 11.871094 12 12 C 12 12.828125 12.671875 13.5 13.5 13.5 C 14.328125 13.5 15 12.828125 15 12 C 15 11.871094 14.976562 11.746094 14.945312 11.625 C 14.78125 12.269531 14.199219 12.75 13.5 12.75 Z M 13.5 12.75 "/>
<path fill-rule="nonzero" fill="rgb(100%, 67.449951%, 19.999695%)" fill-opacity="1" d="M 12.652344 15.46875 C 12.574219 15.425781 12.503906 15.398438 12.4375 15.375 C 12.503906 15.351562 12.574219 15.324219 12.652344 15.28125 C 12.867188 15.15625 13.007812 14.996094 12.964844 14.925781 C 12.925781 14.851562 12.71875 14.894531 12.5 15.019531 C 12.425781 15.0625 12.367188 15.109375 12.3125 15.160156 C 12.328125 15.089844 12.335938 15.011719 12.335938 14.925781 C 12.335938 14.675781 12.269531 14.472656 12.1875 14.472656 C 12.105469 14.472656 12.039062 14.675781 12.039062 14.925781 C 12.039062 15.011719 12.046875 15.089844 12.0625 15.160156 C 12.007812 15.113281 11.949219 15.0625 11.871094 15.019531 C 11.65625 14.894531 11.449219 14.851562 11.40625 14.925781 C 11.367188 14.996094 11.507812 15.15625 11.722656 15.28125 C 11.796875 15.324219 11.871094 15.351562 11.9375 15.375 C 11.871094 15.398438 11.796875 15.425781 11.722656 15.46875 C 11.507812 15.59375 11.367188 15.753906 11.40625 15.824219 C 11.449219 15.898438 11.65625 15.855469 11.871094 15.730469 C 11.949219 15.6875 12.007812 15.640625 12.0625 15.589844 C 12.046875 15.660156 12.039062 15.738281 12.039062 15.824219 C 12.039062 16.074219 12.105469 16.277344 12.1875 16.277344 C 12.269531 16.277344 12.335938 16.074219 12.335938 15.824219 C 12.335938 15.738281 12.328125 15.660156 12.3125 15.59375 C 12.367188 15.640625 12.425781 15.6875 12.503906 15.730469 C 12.71875 15.855469 12.925781 15.898438 12.96875 15.824219 C 13.007812 15.753906 12.867188 15.59375 12.652344 15.46875 Z M 15.277344 15.46875 C 15.199219 15.425781 15.128906 15.398438 15.0625 15.375 C 15.128906 15.351562 15.203125 15.324219 15.277344 15.28125 C 15.492188 15.15625 15.632812 14.996094 15.589844 14.925781 C 15.550781 14.851562 15.34375 14.894531 15.125 15.019531 C 15.050781 15.0625 14.992188 15.109375 14.9375 15.15625 C 14.953125 15.089844 14.960938 15.011719 14.960938 14.925781 C 14.960938 14.675781 14.894531 14.472656 14.8125 14.472656 C 14.730469 14.472656 14.664062 14.675781 14.664062 14.925781 C 14.664062 15.011719 14.671875 15.089844 14.6875 15.160156 C 14.632812 15.109375 14.574219 15.0625 14.496094 15.019531 C 14.28125 14.894531 14.074219 14.851562 14.03125 14.925781 C 13.992188 14.996094 14.132812 15.15625 14.347656 15.28125 C 14.421875 15.324219 14.496094 15.351562 14.5625 15.375 C 14.496094 15.398438 14.421875 15.425781 14.347656 15.46875 C 14.132812 15.59375 13.992188 15.753906 14.03125 15.824219 C 14.074219 15.898438 14.28125 15.855469 14.496094 15.730469 C 14.574219 15.6875 14.632812 15.640625 14.6875 15.589844 C 14.671875 15.660156 14.664062 15.738281 14.664062 15.824219 C 14.664062 16.074219 14.730469 16.277344 14.8125 16.277344 C 14.894531 16.277344 14.960938 16.074219 14.960938 15.824219 C 14.960938 15.738281 14.953125 15.660156 14.9375 15.59375 C 14.992188 15.640625 15.050781 15.6875 15.125 15.730469 C 15.34375 15.855469 15.550781 15.898438 15.589844 15.824219 C 15.632812 15.753906 15.492188 15.59375 15.277344 15.46875 Z M 15.277344 15.46875 "/>
<path fill-rule="nonzero" fill="rgb(79.998779%, 83.920288%, 86.665344%)" fill-opacity="1" d="M 6.886719 21.492188 C 6.886719 21.492188 8.683594 20.519531 9.261719 20.390625 C 9.839844 20.257812 10.5 20.242188 10.234375 20.636719 C 9.96875 21.03125 10.285156 21.511719 9.871094 21.460938 C 9.460938 21.410156 8.519531 21.839844 8.171875 21.988281 C 7.828125 22.136719 7.3125 22.402344 7.3125 22.402344 Z M 6.886719 21.492188 "/>
<path fill-rule="nonzero" fill="rgb(39.99939%, 45.881653%, 49.803162%)" fill-opacity="1" d="M 10.5 20.882812 C 10.398438 20.636719 10.269531 20.390625 10.269531 20.390625 C 10.269531 20.390625 10.207031 20.539062 9.980469 20.640625 C 9.78125 20.730469 9.589844 20.890625 9.640625 21 C 9.714844 21.152344 10.5 20.882812 10.5 20.882812 Z M 10.5 20.882812 "/>
<path fill-rule="nonzero" fill="rgb(79.998779%, 83.920288%, 86.665344%)" fill-opacity="1" d="M 20.367188 21.492188 C 20.367188 21.492188 18.566406 20.519531 17.988281 20.390625 C 17.410156 20.257812 16.753906 20.242188 17.015625 20.636719 C 17.28125 21.03125 16.964844 21.511719 17.378906 21.460938 C 17.792969 21.410156 18.730469 21.839844 19.078125 21.988281 C 19.425781 22.136719 19.9375 22.402344 19.9375 22.402344 Z M 20.367188 21.492188 "/>
<path fill-rule="nonzero" fill="rgb(39.99939%, 45.881653%, 49.803162%)" fill-opacity="1" d="M 16.753906 20.882812 C 16.851562 20.636719 16.980469 20.390625 16.980469 20.390625 C 16.980469 20.390625 17.046875 20.539062 17.273438 20.640625 C 17.46875 20.730469 17.664062 20.890625 17.609375 21 C 17.539062 21.152344 16.753906 20.882812 16.753906 20.882812 Z M 16.753906 20.882812 "/>
<path fill-rule="nonzero" fill="rgb(79.998779%, 83.920288%, 86.665344%)" fill-opacity="1" d="M 16.472656 20.503906 C 16.027344 20.355469 14.804688 20.273438 14.410156 20.273438 L 12.84375 20.273438 C 12.445312 20.273438 11.226562 20.355469 10.78125 20.503906 C 10.335938 20.652344 9.949219 21.007812 9.640625 21 C 9.664062 21.09375 9.691406 21.214844 9.804688 21.578125 C 9.921875 21.941406 10.234375 21.921875 10.597656 21.742188 C 10.960938 21.558594 11.488281 21.445312 11.984375 21.445312 L 15.269531 21.445312 C 15.761719 21.445312 16.292969 21.558594 16.65625 21.742188 C 17.015625 21.921875 17.332031 21.941406 17.445312 21.578125 C 17.5625 21.214844 17.589844 21.09375 17.613281 21 C 17.300781 21.007812 16.917969 20.652344 16.472656 20.503906 Z M 16.472656 20.503906 "/>
<path fill-rule="nonzero" fill="rgb(59.999084%, 66.665649%, 70.979309%)" fill-opacity="1" d="M 11.6875 20.625 L 12.984375 20.625 L 12.984375 21.238281 L 11.6875 21.238281 Z M 13.632812 20.625 L 15.84375 20.625 L 15.84375 21.238281 L 13.632812 21.238281 Z M 13.632812 20.625 "/>
<path fill-rule="nonzero" fill="rgb(79.998779%, 83.920288%, 86.665344%)" fill-opacity="1" d="M 4.847656 9.65625 L 5.589844 9.84375 L 6.214844 9.34375 C 6.214844 9.34375 6.964844 9.0625 7.371094 9.28125 C 7.777344 9.5 7.433594 9.46875 7.058594 9.5625 C 6.683594 9.65625 6.605469 10.027344 6.699219 10.171875 C 6.839844 10.382812 7.269531 10.398438 7.214844 10.078125 C 7.191406 9.9375 7.808594 10.25 7.746094 10.59375 L 7.683594 10.9375 C 7.683594 10.9375 7.652344 11.71875 8.152344 11.875 C 8.652344 12.03125 8.597656 12.5 8.128906 12.46875 C 7.660156 12.4375 6.871094 11.84375 6.871094 11.84375 C 6.871094 11.84375 6.464844 12.125 6.371094 11.9375 C 6.371094 11.9375 5.402344 11.71875 5.527344 10.84375 C 5.527344 10.84375 5.222656 11.8125 5.832031 12.140625 C 6.710938 12.613281 6.820312 12.289062 7.558594 12.875 C 8.433594 13.570312 9.121094 14.859375 8.902344 16.640625 C 8.683594 18.421875 8.183594 19.617188 6.183594 19.617188 C 5.011719 19.617188 4.378906 18.742188 4.378906 17.882812 C 4.378906 17.023438 5.152344 16.5 5.644531 16.5 C 6.230469 16.5 6.417969 17.0625 6.347656 17.203125 C 6.113281 17.675781 5.886719 17.347656 6.066406 17.132812 C 6.183594 16.992188 5.949219 16.769531 5.667969 16.78125 C 5.105469 16.804688 4.800781 17.351562 4.800781 17.882812 C 4.800781 18.414062 5.402344 19.21875 6.152344 19.21875 C 6.902344 19.21875 7.746094 18.53125 7.746094 17.46875 C 7.746094 16.40625 7.308594 15.71875 6.589844 15.125 L 6.230469 15.820312 C 6.230469 15.820312 4.855469 15.625 4.074219 14.8125 C 3.292969 14 3.367188 12.964844 3.511719 13.078125 C 3.839844 13.335938 4.621094 13.375 4.621094 13.375 C 4.621094 13.375 4.308594 12.71875 4.089844 12.59375 C 3.871094 12.46875 3.425781 11.796875 3.769531 11.015625 C 4.113281 10.234375 4.621094 10 4.746094 10.25 C 4.871094 10.5 5.199219 10.328125 5.105469 10.078125 C 5.011719 9.828125 4.847656 9.65625 4.847656 9.65625 Z M 4.847656 9.65625 "/>
<path fill-rule="nonzero" fill="rgb(59.999084%, 66.665649%, 70.979309%)" fill-opacity="1" d="M 4.449219 13.054688 C 4.894531 13.664062 5.410156 14.460938 6.160156 14.859375 C 6.910156 15.257812 7.777344 16.289062 7.777344 17.320312 C 7.777344 18.351562 7.082031 19.21875 6.152344 19.21875 C 5.222656 19.21875 4.777344 18.351562 4.777344 17.789062 C 4.777344 17.226562 5.269531 16.921875 5.269531 16.921875 C 5.269531 16.921875 4.730469 17.039062 4.613281 17.742188 C 4.507812 18.367188 5.105469 19.382812 6.089844 19.382812 C 7.542969 19.382812 8.082031 18.398438 8.082031 17.320312 C 8.082031 16.242188 7.144531 15.070312 6.511719 14.4375 C 5.878906 13.804688 5.011719 13.078125 4.613281 12.65625 C 4.214844 12.234375 4.449219 13.054688 4.449219 13.054688 Z M 4.449219 13.054688 "/>
<path fill-rule="nonzero" fill="rgb(79.998779%, 83.920288%, 86.665344%)" fill-opacity="1" d="M 22.109375 9.65625 L 21.367188 9.84375 L 20.742188 9.34375 C 20.742188 9.34375 19.992188 9.0625 19.585938 9.28125 C 19.179688 9.5 19.523438 9.46875 19.898438 9.5625 C 20.273438 9.65625 20.351562 10.027344 20.257812 10.171875 C 20.117188 10.382812 19.6875 10.398438 19.742188 10.078125 C 19.765625 9.9375 19.148438 10.25 19.210938 10.59375 L 19.273438 10.9375 C 19.273438 10.9375 19.304688 11.71875 18.804688 11.875 C 18.304688 12.03125 18.359375 12.5 18.828125 12.46875 C 19.296875 12.4375 20.085938 11.84375 20.085938 11.84375 C 20.085938 11.84375 20.492188 12.125 20.585938 11.9375 C 20.585938 11.9375 21.554688 11.71875 21.429688 10.84375 C 21.429688 10.84375 21.734375 11.8125 21.125 12.140625 C 20.246094 12.613281 20.136719 12.289062 19.398438 12.875 C 18.523438 13.570312 17.835938 14.859375 18.054688 16.640625 C 18.273438 18.421875 18.773438 19.617188 20.773438 19.617188 C 21.945312 19.617188 22.578125 18.742188 22.578125 17.882812 C 22.578125 17.023438 21.804688 16.5 21.3125 16.5 C 20.726562 16.5 20.539062 17.0625 20.609375 17.203125 C 20.84375 17.675781 21.070312 17.351562 20.890625 17.132812 C 20.773438 16.992188 21.007812 16.769531 21.289062 16.78125 C 21.851562 16.804688 22.152344 17.351562 22.152344 17.882812 C 22.152344 18.414062 21.554688 19.21875 20.804688 19.21875 C 20.054688 19.21875 19.210938 18.53125 19.210938 17.46875 C 19.210938 16.40625 19.648438 15.71875 20.363281 15.125 L 20.722656 15.820312 C 20.722656 15.820312 22.097656 15.625 22.878906 14.8125 C 23.660156 14 23.585938 12.964844 23.441406 13.078125 C 23.113281 13.335938 22.332031 13.375 22.332031 13.375 C 22.332031 13.375 22.644531 12.71875 22.867188 12.59375 C 23.082031 12.46875 23.527344 11.796875 23.183594 11.015625 C 22.84375 10.234375 22.332031 10 22.210938 10.25 C 22.082031 10.5 21.757812 10.328125 21.851562 10.078125 C 21.945312 9.828125 22.109375 9.65625 22.109375 9.65625 Z M 22.109375 9.65625 "/>
<path fill-rule="nonzero" fill="rgb(59.999084%, 66.665649%, 70.979309%)" fill-opacity="1" d="M 22.507812 13.054688 C 22.0625 13.664062 21.546875 14.460938 20.796875 14.859375 C 20.046875 15.257812 19.179688 16.289062 19.179688 17.320312 C 19.179688 18.351562 19.875 19.21875 20.804688 19.21875 C 21.734375 19.21875 22.179688 18.351562 22.179688 17.789062 C 22.179688 17.226562 21.6875 16.921875 21.6875 16.921875 C 21.6875 16.921875 22.226562 17.039062 22.34375 17.742188 C 22.449219 18.367188 21.851562 19.382812 20.867188 19.382812 C 19.414062 19.382812 18.875 18.398438 18.875 17.320312 C 18.875 16.242188 19.8125 15.070312 20.445312 14.4375 C 21.078125 13.804688 21.945312 13.078125 22.34375 12.65625 C 22.742188 12.234375 22.507812 13.054688 22.507812 13.054688 Z M 22.507812 13.054688 "/>
</svg>